#N canvas 487 340 635 314 10;
#X obj 53 88 clip~ -1 1;
#X obj 54 61 *~ 1000;
#X obj 53 32 osc~ 440;
#X obj 63 242 dac~;
#X obj 70 215 *~;
#X obj 94 179 line~;
#X msg 95 141 1 \, 0 10;
#X obj 133 88 clip~ -1 1;
#X obj 134 61 *~ 1000;
#X obj 213 88 clip~ -1 1;
#X obj 214 61 *~ 1000;
#X obj 293 88 clip~ -1 1;
#X obj 294 61 *~ 1000;
#X obj 373 88 clip~ -1 1;
#X obj 374 61 *~ 1000;
#X obj 453 88 clip~ -1 1;
#X obj 454 61 *~ 1000;
#X obj 133 32 osc~ 830;
#X obj 211 28 osc~ 1020;
#X obj 293 32 osc~ 600;
#X obj 378 32 osc~ 2000;
#X obj 456 33 osc~ 1440;
#X connect 0 0 4 0;
#X connect 1 0 0 0;
#X connect 2 0 1 0;
#X connect 4 0 3 0;
#X connect 4 0 3 1;
#X connect 5 0 4 1;
#X connect 6 0 5 0;
#X connect 7 0 4 0;
#X connect 8 0 7 0;
#X connect 9 0 4 0;
#X connect 10 0 9 0;
#X connect 11 0 4 0;
#X connect 12 0 11 0;
#X connect 13 0 4 0;
#X connect 14 0 13 0;
#X connect 15 0 4 0;
#X connect 16 0 15 0;
#X connect 17 0 8 0;
#X connect 18 0 10 0;
#X connect 19 0 12 0;
#X connect 20 0 14 0;
#X connect 21 0 16 0;
