#N canvas 119 200 751 442 10;
#X obj 139 102 noise~;
#X obj 139 308 dac~;
#X obj 362 151 line~;
#X obj 361 175 *~;
#X obj 138 274 *~;
#X msg 362 128 1 \, 0 300;
#X obj 139 229 bp~ 8000 4;
#X floatatom 183 124 5 0 0 0 - - -;
#X obj 234 146 * 1000;
#X floatatom 234 123 5 0 0 0 - - -;
#X floatatom 292 125 5 0 0 0 - - -;
#X obj 362 103 bng 15 250 50 0 empty empty empty 0 -6 0 8 -262144 -1
-1;
#X obj 138 142 /~ 0.95;
#X obj 133 177 clip~ 0 1;
#X connect 0 0 12 0;
#X connect 2 0 3 0;
#X connect 2 0 3 1;
#X connect 3 0 4 1;
#X connect 4 0 1 0;
#X connect 4 0 1 1;
#X connect 5 0 2 0;
#X connect 6 0 4 0;
#X connect 7 0 12 1;
#X connect 8 0 6 1;
#X connect 9 0 8 0;
#X connect 10 0 6 2;
#X connect 11 0 5 0;
#X connect 12 0 13 0;
#X connect 13 0 6 0;
