#N canvas 189 357 478 328 10;
#X obj 78 238 clip~ -1 1;
#X obj 80 213 *~ 10000;
#X obj 85 275 outlet~;
#X text 268 222 basic square wave;
#X obj 180 83 random 1000;
#X obj 80 189 +~;
#X obj 282 164 d-smooth~;
#X obj 284 43 inlet;
#X obj 281 104 loadbang;
#X obj 283 128 \$2;
#X text 272 246 \$1 = frequency;
#X text 304 272 (0 = equal);
#X text 270 261 \$2 = pulsewidth (-1..1);
#X obj 79 157 osc~;
#X obj 151 41 loadbang;
#X obj 151 62 t b b;
#X obj 89 84 f \$1;
#X text 72 5 frequency;
#X text 277 18 pulsewidth;
#X obj 80 34 inlet;
#X obj 78 128 + 0;
#X obj 180 102 / 500;
#X connect 0 0 2 0;
#X connect 1 0 0 0;
#X connect 4 0 21 0;
#X connect 5 0 1 0;
#X connect 6 0 5 1;
#X connect 7 0 9 0;
#X connect 8 0 9 0;
#X connect 9 0 6 0;
#X connect 13 0 5 0;
#X connect 14 0 15 0;
#X connect 15 0 16 0;
#X connect 15 1 4 0;
#X connect 16 0 20 0;
#X connect 19 0 16 0;
#X connect 20 0 13 0;
#X connect 21 0 20 1;
