#N canvas 530 52 425 515 10;
#X obj 56 107 rc-sample~ test;
#X obj 55 284 rc-chan~ test;
#X obj 56 -9 midiin;
#X obj 56 24 rc-notein 1;
#X obj 56 52 stripnote;
#X obj 56 78 route 62;
#X msg 12 146 bang;
#X msg 146 13 reset;
#X obj 61 256 tabwrite~ \$0-samp-wave;
#X obj 198 319 rc-spectroscope~;
#N canvas 448 343 454 657 file 0;
#X obj 18 17 vradio 15 1 0 5 empty empty empty 0 -8 0 10 -262144 -1
-1 0;
#X obj 63 17 vradio 15 1 0 5 empty empty empty 0 -8 0 10 -262144 -1
-1 0;
#X text 39 15 0;
#X text 40 29 25;
#X text 40 47 50;
#X text 40 59 75;
#X text 39 74 99;
#X symbolatom 16 119 25 0 0 2 filename #0-filename -;
#X obj 107 23 bng 15 250 50 0 \$0-load empty load 17 7 0 10 -262144
-1 -1;
#X obj 38 178 sel 0 1 2 3 4;
#X msg 74 227 25;
#X msg 108 227 50;
#X msg 145 228 75;
#X msg 184 230 99;
#X obj 229 183 sel 0 1 2 3 4;
#X msg 265 232 25;
#X msg 299 232 50;
#X msg 336 232 75;
#X msg 375 235 99;
#X obj 229 387 symbol;
#X obj 128 472 makesymbol %s%s%s.WAV;
#X obj 128 426 pack s s s;
#X obj 3 344 inlet;
#X obj 56 394 symbol;
#X obj 121 608 s \$0-filename;
#X obj 164 318 r \$0-load;
#X obj 164 343 t b b b;
#X obj 39 512 symbol;
#X obj 160 173 loadbang;
#X obj 108 386 symbol;
#X obj 6 276 makesymbol 0%s;
#X obj 6 246 tosymbol;
#X msg 7 219 0;
#X obj 107 273 makesymbol;
#X obj 215 281 makesymbol 0%s;
#X obj 325 281 makesymbol;
#X obj 215 259 tosymbol;
#X msg 227 231 0;
#X obj 51 630 outlet;
#X obj 121 553 pack s s;
#X obj 128 503 t b a;
#X obj 121 580 makesymbol TR808WAV/%s/%s;
#X msg 51 605 load \$1;
#X symbolatom 104 79 10 0 0 2 drum #0-drum -;
#X obj -3 440 s \$0-drum;
#X obj 317 375 inlet;
#X obj 355 412 s \$0-drum;
#X obj 311 449 pack s s;
#X obj 310 418 t a a;
#X obj 254 507 makesymbol TR808WAV/%s/%s.WAV;
#X connect 0 0 9 0;
#X connect 1 0 14 0;
#X connect 9 0 32 0;
#X connect 9 1 10 0;
#X connect 9 2 11 0;
#X connect 9 3 12 0;
#X connect 9 4 13 0;
#X connect 10 0 33 0;
#X connect 11 0 33 0;
#X connect 12 0 33 0;
#X connect 13 0 33 0;
#X connect 14 0 37 0;
#X connect 14 1 15 0;
#X connect 14 2 16 0;
#X connect 14 3 17 0;
#X connect 14 4 18 0;
#X connect 15 0 35 0;
#X connect 16 0 35 0;
#X connect 17 0 35 0;
#X connect 18 0 35 0;
#X connect 19 0 21 2;
#X connect 20 0 40 0;
#X connect 21 0 20 0;
#X connect 22 0 23 1;
#X connect 22 0 44 0;
#X connect 22 0 27 1;
#X connect 23 0 21 0;
#X connect 25 0 26 0;
#X connect 26 0 23 0;
#X connect 26 1 29 0;
#X connect 26 2 19 0;
#X connect 27 0 39 0;
#X connect 28 0 32 0;
#X connect 28 0 37 0;
#X connect 29 0 21 1;
#X connect 30 0 29 1;
#X connect 31 0 30 0;
#X connect 32 0 31 0;
#X connect 33 0 29 1;
#X connect 34 0 19 1;
#X connect 35 0 19 1;
#X connect 36 0 34 0;
#X connect 37 0 36 0;
#X connect 39 0 41 0;
#X connect 40 0 27 0;
#X connect 40 1 39 1;
#X connect 41 0 24 0;
#X connect 41 0 42 0;
#X connect 42 0 38 0;
#X connect 45 0 46 0;
#X connect 45 0 48 0;
#X connect 47 0 49 0;
#X connect 48 0 47 0;
#X connect 48 1 47 1;
#X connect 49 0 42 0;
#X connect 49 0 24 0;
#X coords 0 -1 1 1 180 150 1 0 0;
#X restore 225 130 pd file;
#X msg 227 81 symbol BD;
#X msg 247 104 symbol SD;
#X msg 338 55 symbol CH;
#X obj 25 82 bng 15 250 50 0 empty empty empty 17 7 0 10 -262144 -1
-1;
#X msg 204 35 load TR808WAV/OH/OH99.WAV;
#X msg 202 10 load TR808WAV/OH/OH00.WAV;
#X msg 207 60 symbol CY;
#X msg 289 63 symbol CB;
#X msg 325 84 symbol CP;
#X obj 224 289 table \$0-samp-wave 20000;
#X obj 55 464 rc-throw2~ DRUMS;
#X connect 0 0 1 0;
#X connect 0 0 8 0;
#X connect 0 0 9 0;
#X connect 1 0 21 0;
#X connect 1 1 21 1;
#X connect 2 0 3 0;
#X connect 3 0 4 0;
#X connect 3 1 4 1;
#X connect 4 0 5 0;
#X connect 5 0 6 0;
#X connect 5 0 0 0;
#X connect 6 0 8 0;
#X connect 7 0 0 0;
#X connect 10 0 0 0;
#X connect 11 0 10 0;
#X connect 12 0 10 0;
#X connect 13 0 10 1;
#X connect 14 0 0 0;
#X connect 14 0 6 0;
#X connect 15 0 0 0;
#X connect 16 0 0 0;
#X connect 17 0 10 0;
#X connect 18 0 10 1;
#X connect 19 0 10 1;
