#N canvas 152 25 419 508 10;
#X obj 72 9 midiin;
#X obj 72 42 rc-notein 1;
#X obj 72 70 stripnote;
#X obj 253 164 hsl 128 15 0 1 0 0 empty empty empty -2 -8 0 10 -262144
-1 -1 9500 1;
#X obj 233 100 hsl 128 15 0 1 0 0 empty empty empty -2 -8 0 10 -262144
-1 -1 9700 1;
#X text 313 185 0-1;
#X obj 72 283 rc-chan~ drum;
#X msg 36 142 bang;
#X obj 44 252 tabwrite~ \$0-drum;
#X obj 199 312 rc-spectroscope~;
#X msg 230 130 tone \$1;
#X text 285 130 0-1;
#X obj 231 40 hsl 128 15 0 1 0 0 empty empty empty -2 -8 0 10 -262144
-1 -1 9300 1;
#X text 283 70 0-1;
#X obj 254 221 hsl 128 15 0 1 0 0 empty empty empty -2 -8 0 10 -262144
-1 -1 0 1;
#X text 314 243 0-1;
#X msg 251 250 tune \$1;
#X msg 228 70 amp \$1;
#X msg 250 192 decay \$1;
#X obj 15 174 bng 15 250 50 0 empty empty empty 17 7 0 10 -262144 -1
-1;
#X obj 72 96 route 61;
#X obj 94 160 bng 15 250 50 0 empty empty empty 17 7 0 10 -262144 -1
-1;
#X msg 361 192 0.5;
#X floatatom 154 95 5 1 127 0 - - -;
#X msg 145 141 tune \$1;
#X obj 44 464 rc-808bass~_;
#X obj 246 283 table \$0-drum 5000;
#X obj 72 215 rc-bendytom~_;
#X connect 0 0 1 0;
#X connect 1 0 2 0;
#X connect 1 1 2 1;
#X connect 2 0 20 0;
#X connect 3 0 18 0;
#X connect 4 0 10 0;
#X connect 7 0 27 0;
#X connect 10 0 27 0;
#X connect 12 0 17 0;
#X connect 14 0 16 0;
#X connect 17 0 27 0;
#X connect 18 0 27 0;
#X connect 19 0 8 0;
#X connect 19 0 27 0;
#X connect 20 0 7 0;
#X connect 20 0 21 0;
#X connect 21 0 27 0;
#X connect 22 0 14 0;
#X connect 23 0 24 0;
#X connect 24 0 27 0;
#X connect 27 0 6 0;
#X connect 27 0 8 0;
#X connect 27 0 9 0;
