#N canvas 1354 26 318 190 10;
#N canvas 719 596 832 454 audio 0;
#N canvas 0 0 450 300 gate 0;
#X obj 68 42 inlet;
#X obj 157 45 inlet;
#X obj 89 179 outlet;
#X obj 118 155 outlet;
#X obj 89 95 list prepend 1;
#X obj 89 120 route 1 2;
#X connect 0 0 4 1;
#X connect 1 0 4 0;
#X connect 4 0 5 0;
#X connect 5 0 2 0;
#X connect 5 1 3 0;
#X restore 77 304 pd gate 2;
#X obj 77 216 + 1;
#X obj 193 46 catch~ left;
#X obj 340 50 catch~ right;
#X obj 243 156 dac~;
#X text 206 12 audio from performance patch;
#X obj 340 76 hip~ 5;
#X obj 193 71 hip~ 5;
#X text 236 187 audio out;
#X obj 1 16 cnv 15 133 131 empty empty empty 20 12 0 14 -233017 -66577
0;
#X obj 9 109 vradio 15 1 0 2 empty empty empty 0 -6 0 8 -203904 -1
-1 0;
#X text 25 107 wav;
#X text 25 122 mp3;
#X obj 7 28 tgl 30 1 empty \$0-record record -2 -6 0 10 -166441 -258699
-1 0 1;
#N canvas 499 372 485 543 record_triggering 0;
#X obj 75 423 symbol;
#X obj -45 366 t b b;
#N canvas 393 237 651 542 filename 0;
#X obj 25 142 date -------------;
#X obj 234 143 time -------------;
#X obj 91 430 list-lastx 7;
#X obj 49 189 makefilename %d;
#X obj 73 230 makefilename %d;
#X obj 234 192 makefilename %d;
#X obj 91 392 pack s s s s s s s;
#X obj 275 232 makefilename %d;
#X obj 314 271 makefilename %d;
#X obj 499 142 symbol;
#X obj 137 32 inlet;
#X obj 91 501 outlet;
#X obj 499 176 symbol2list .;
#X msg 499 212 \$1;
#X obj 499 268 symbol;
#X text 356 193 hour;
#X text 400 234 minute;
#X text 437 272 sec;
#X text 166 191 month;
#X text 186 233 day;
#X text 146 263 year;
#X obj 212 99 t b b a;
#X msg 351 29 bbfb.pd;
#X obj 25 265 makefilename %d;
#X obj 45 356 symbol;
#X obj 25 304 t b s;
#X text 414 27 test;
#X text 35 29 patchname in;
#X obj 91 462 makesymbol %s-%s-%s_%s-%s-%s_%s;
#X text 316 463 makes filename: m_d_y-h_m_s_patchname;
#X text 559 271 patchname;
#X obj 137 58 splitfilename;
#X connect 0 0 23 0;
#X connect 0 1 3 0;
#X connect 0 2 4 0;
#X connect 1 0 5 0;
#X connect 1 1 7 0;
#X connect 1 2 8 0;
#X connect 2 0 28 0;
#X connect 3 0 24 1;
#X connect 4 0 6 1;
#X connect 5 0 6 3;
#X connect 6 0 2 0;
#X connect 7 0 6 4;
#X connect 8 0 6 5;
#X connect 9 0 12 0;
#X connect 10 0 31 0;
#X connect 12 0 13 0;
#X connect 13 0 14 0;
#X connect 14 0 6 6;
#X connect 21 0 0 0;
#X connect 21 1 1 0;
#X connect 21 2 9 0;
#X connect 22 0 21 0;
#X connect 23 0 25 0;
#X connect 24 0 6 0;
#X connect 25 0 24 0;
#X connect 25 1 6 2;
#X connect 28 0 11 0;
#X connect 31 1 21 0;
#X restore 75 450 pd filename;
#X text 126 317 patch name in;
#X text 161 451 set wav filename based on date;
#X text -57 5 toggle recording and builds soundfilename based on date/time
;
#X msg -45 404 1;
#X msg 1 430 0;
#X text 124 490 filename out with fullpath;
#X obj 202 371 loadbang;
#X obj 181 226 r \$0-load;
#X text 155 206 turn off recording on load;
#X msg 75 489 set \$1;
#X obj -45 79 spigot;
#X obj -26 191 t b b;
#X msg 41 305 1;
#X obj 41 113 t f;
#X msg 1 216 0;
#X obj -26 305 t b b;
#X text 4 76 ignore button until recording finished;
#X obj 49 275 loadbang;
#X msg 202 398 symbol unnamed;
#N canvas 0 0 386 200 done_rec_audio 0;
#X obj 27 170 throw~ left;
#X obj 113 171 throw~ right;
#X obj 25 57 inlet;
#X text 18 14 plays a sample on a bang to note when recording is done
;
#X obj 25 114 rc-sfplay~;
#X msg 25 87 play samples/unit_sounds/wave_caxixi.wav;
#X obj 26 139 *~ 0.3;
#X connect 2 0 5 0;
#X connect 4 0 6 0;
#X connect 5 0 4 0;
#X connect 6 0 1 0;
#X connect 6 0 0 0;
#X restore -26 339 pd done_rec_audio;
#X obj 59 171 s \$0-fadeout_spigot;
#X text 61 134 ignore load commands in playlist;
#X obj -26 247 delay 0;
#X obj -45 40 inlet;
#X obj 181 282 s \$0-record;
#X obj -45 108 sel 1 0;
#X text -2 40 from record tgl;
#X text -47 490 to record objs;
#X msg 181 254 set 0;
#X text 23 249 fadeout/silence area;
#X text 228 254 empty rec button;
#X obj 108 338 r \$0-patchname;
#X obj 75 517 outlet filename out;
#X obj -45 473 outlet bang;
#X obj 108 365 route close;
#X connect 0 0 2 0;
#X connect 1 0 6 0;
#X connect 1 1 0 0;
#X connect 2 0 12 0;
#X connect 6 0 36 0;
#X connect 7 0 36 0;
#X connect 9 0 21 0;
#X connect 10 0 7 0;
#X connect 10 0 31 0;
#X connect 12 0 35 0;
#X connect 13 0 28 0;
#X connect 14 0 25 0;
#X connect 14 1 17 0;
#X connect 15 0 16 0;
#X connect 16 0 13 1;
#X connect 16 0 23 0;
#X connect 18 0 15 0;
#X connect 18 0 22 0;
#X connect 18 1 7 0;
#X connect 20 0 15 0;
#X connect 21 0 0 1;
#X connect 25 0 18 0;
#X connect 26 0 13 0;
#X connect 28 0 1 0;
#X connect 28 1 14 0;
#X connect 31 0 27 0;
#X connect 34 0 37 0;
#X connect 37 0 21 0;
#X connect 37 1 0 1;
#X coords 0 0 1 1 50 30 0;
#X restore 35 248 pd record_triggering;
#N canvas 207 56 326 406 voice_plus_quindar_tones 0;
#X obj 31 69 adc~ 2;
#X obj 88 264 tgl 15 0 empty empty empty 0 -6 0 10 -262144 -1 -1 0
1;
#X obj 143 47 r /bbox/button;
#X obj 143 73 route 2;
#X obj 31 357 throw~ left;
#X obj 161 356 throw~ right;
#X text 208 72 black button;
#X text 39 381 http://www.hq.nasa.gov/alsj/quindar.html;
#X obj 143 101 sel 1 0;
#X msg 88 225 1;
#X msg 219 248 2525;
#X msg 282 219 2475;
#N canvas 0 0 320 348 quindar 0;
#X obj 89 227 *~;
#X msg 25 99 start;
#X msg 78 118 stop;
#X msg 25 60 bang;
#X obj 25 27 inlet;
#X obj 88 311 outlet~;
#X obj 104 160 ear~ 10 275;
#X obj 42 191 osc~ 2525;
#X obj 78 92 del 250;
#X obj 42 161 inlet;
#X obj 88 256 clip~ -0.45 0.45;
#X obj 89 283 *~ 0.2;
#X connect 0 0 10 0;
#X connect 1 0 6 0;
#X connect 2 0 6 0;
#X connect 3 0 1 0;
#X connect 3 0 8 0;
#X connect 4 0 3 0;
#X connect 6 0 0 1;
#X connect 7 0 0 0;
#X connect 8 0 2 0;
#X connect 9 0 7 0;
#X connect 10 0 11 0;
#X connect 11 0 5 0;
#X restore 162 293 pd quindar;
#X obj 243 134 t b b b;
#X obj 143 134 t b b b;
#X obj 262 183 delay 25;
#X text 156 118 on;
#X text 257 116 off;
#X text 14 11 "astronaut voice" - distortion + quindar tones;
#X obj 104 55 tgl 15 0 empty empty empty 0 -6 0 10 -262144 -1 -1 0
1;
#X obj 31 293 rc-spigot~;
#X obj 31 129 clip~ -0.7 0.7;
#X obj 30 98 rc-voice_dist~;
#X obj 31 160 *~ 0.4;
#X connect 0 0 22 0;
#X connect 1 0 20 1;
#X connect 2 0 3 0;
#X connect 3 0 8 0;
#X connect 8 0 14 0;
#X connect 8 1 13 0;
#X connect 9 0 1 0;
#X connect 10 0 12 1;
#X connect 11 0 12 1;
#X connect 12 0 5 0;
#X connect 12 0 4 0;
#X connect 13 0 1 0;
#X connect 13 1 15 0;
#X connect 13 2 11 0;
#X connect 14 0 9 0;
#X connect 14 1 12 0;
#X connect 14 2 10 0;
#X connect 15 0 12 0;
#X connect 19 0 8 0;
#X connect 20 0 4 0;
#X connect 20 0 5 0;
#X connect 21 0 23 0;
#X connect 22 0 21 0;
#X connect 23 0 20 0;
#X restore 410 409 pd voice_plus_quindar_tones;
#X obj 473 49 r UNIT_OSC;
#X obj 473 76 routeOSC /pd;
#X text 414 387 voice comm;
#X obj 8 77 tgl 20 0 empty \$0-auto arm 0 -6 0 10 -261234 -1 -1 0 1
;
#N canvas 111 146 450 300 vu_meters 0;
#X obj 61 103 inlet~;
#X obj 270 109 inlet~;
#X obj 61 135 env~ 8192;
#X obj 269 136 env~ 8192;
#X obj 63 214 s \$0-vu_l;
#X obj 268 226 s \$0-vu_r;
#X obj 60 171 maxlib/scale 0 100 -99 12;
#X obj 268 174 maxlib/scale 0 100 -99 12;
#X connect 0 0 2 0;
#X connect 1 0 3 0;
#X connect 2 0 6 0;
#X connect 3 0 7 0;
#X connect 6 0 4 0;
#X connect 7 0 5 0;
#X restore 224 102 pd vu_meters;
#X obj 50 20 vu 30 120 \$0-vu_l empty -1 -8 0 10 -66577 -1 0 0;
#X obj 82 20 vu 30 120 \$0-vu_r empty -1 -8 0 10 -66577 -1 0 0;
#X obj 115 18 vfad_scale -1;
#N canvas 0 0 356 365 rec_flash 0;
#X msg 55 -2 1;
#X obj 78 57 \$0;
#X obj 33 32 t f b;
#X obj 33 83 pack f f;
#X obj 33 -111 metro 500;
#X obj 33 -59 sel 0 1;
#X text 66 -23 red;
#X text 84 -3 grey;
#X msg 33 -26 13;
#X obj 122 -111 sel 0;
#X obj 33 -170 inlet;
#X text 36 -193 flashes record toggle when recording;
#X msg 33 112 \; \$2-record color \$1 13 -1;
#X obj 33 -84 rc-count 2;
#X connect 0 0 2 0;
#X connect 1 0 3 1;
#X connect 2 0 3 0;
#X connect 2 1 1 0;
#X connect 3 0 12 0;
#X connect 4 0 13 0;
#X connect 5 0 8 0;
#X connect 5 1 0 0;
#X connect 8 0 2 0;
#X connect 9 0 0 0;
#X connect 10 0 4 0;
#X connect 10 0 9 0;
#X connect 13 0 5 0;
#X restore 35 355 pd rec_flash;
#X obj 256 388 rc-record_mp3~;
#X obj 152 390 rc-record~;
#N canvas 0 0 450 300 toggle 0;
#X obj 55 188 s \$0-auto;
#X obj 98 97 loadbang;
#X msg 82 127 1;
#X text 124 188 tgl rec on play;
#X obj 55 97 sel 0;
#X msg 55 151 0;
#X obj 55 66 inlet;
#X connect 1 0 2 0;
#X connect 2 0 0 0;
#X connect 4 0 5 0;
#X connect 4 1 2 0;
#X connect 5 0 0 0;
#X connect 6 0 4 0;
#X restore 585 206 pd toggle automatic recording;
#N canvas 209 204 651 729 play 0;
#X obj 60 38 inlet;
#X obj 60 695 throw~ left;
#X obj 150 695 throw~ right;
#X text 6 3 plays notification samples on unitd events;
#X obj 337 103 sel 0 1;
#X obj 59 661 clip~ -0.5 0.5;
#X obj 60 64 routeOSC /insert /removal /startup /ready /shutdown /wii
;
#X obj 60 634 rc-dist~_ 0.4;
#X obj 171 263 rc-sfplay~;
#X obj 226 325 rc-sfplay~;
#X obj 282 396 rc-sfplay~;
#X obj 337 473 rc-sfplay~;
#X obj 356 544 rc-sfplay~;
#X obj 115 194 rc-sfplay~;
#X obj 60 128 rc-sfplay~;
#X msg 171 238 play samples/unit_sounds/you_are_robotcowboy.wav;
#X msg 115 168 play samples/unit_sounds/aw.wav;
#X msg 60 105 play samples/unit_sounds/oo.wav;
#X msg 226 300 play samples/unit_sounds/unit_ready.wav;
#X msg 282 372 play samples/unit_sounds/unit_signing_off.wav;
#X msg 337 449 play samples/unit_sounds/wiimote_disconnected.wav;
#X msg 356 520 play samples/unit_sounds/wiimote_connect.wav;
#X obj 59 611 *~ 0.25;
#X connect 0 0 6 0;
#X connect 4 0 20 0;
#X connect 4 1 21 0;
#X connect 5 0 2 0;
#X connect 5 0 1 0;
#X connect 6 0 17 0;
#X connect 6 1 16 0;
#X connect 6 2 15 0;
#X connect 6 3 18 0;
#X connect 6 4 19 0;
#X connect 6 5 4 0;
#X connect 7 0 5 0;
#X connect 8 0 22 0;
#X connect 9 0 22 0;
#X connect 10 0 22 0;
#X connect 11 0 22 0;
#X connect 12 0 22 0;
#X connect 13 0 22 0;
#X connect 14 0 22 0;
#X connect 15 0 8 0;
#X connect 16 0 13 0;
#X connect 17 0 14 0;
#X connect 18 0 9 0;
#X connect 19 0 10 0;
#X connect 20 0 11 0;
#X connect 21 0 12 0;
#X connect 22 0 7 0;
#X restore 603 130 pd play sounds on rc-unitd events;
#N canvas 0 0 450 300 turn 0;
#X obj 39 64 loadbang;
#X obj -11 35 inlet;
#X msg -11 148 \; pd dsp \$1;
#X text 63 156 turn dsp on/off;
#X obj -11 63 sel 0;
#X msg -11 118 0;
#X msg 16 93 1;
#X connect 0 0 6 0;
#X connect 1 0 4 0;
#X connect 4 0 5 0;
#X connect 4 1 6 0;
#X connect 5 0 2 0;
#X connect 6 0 2 0;
#X restore 538 232 pd turn dsp on/off;
#N canvas 0 0 450 300 play 0;
#X obj 40 26 inlet;
#X obj 40 104 rc-sfplay~;
#X obj 40 222 throw~ left;
#X obj 130 222 throw~ right;
#X obj 39 188 clip~ -0.5 0.5;
#X obj 40 161 rc-dist~_ 0.4;
#X msg 40 78 play \$1;
#X obj 40 52 symbol;
#X obj 39 138 *~ 0.35;
#X connect 0 0 7 0;
#X connect 1 0 8 0;
#X connect 4 0 3 0;
#X connect 4 0 2 0;
#X connect 5 0 4 0;
#X connect 6 0 1 0;
#X connect 7 0 6 0;
#X connect 8 0 5 0;
#X restore 632 182 pd play specific sound;
#X obj 538 156 route dsp recording play;
#X obj 473 103 routeOSC /transport /audio /unitd;
#X obj 473 259 route start stop done;
#X msg 473 291 1;
#X msg 514 292 0;
#X obj 59 157 s \$0-rec-armed;
#N canvas 0 0 450 300 send 0;
#X obj 142 142 spigot;
#X obj 175 80 sel 1 0;
#X msg 175 109 1;
#X msg 204 109 0;
#X text 237 89 tgl rec on play;
#X obj 175 52 r \$0-rec-armed;
#X obj 142 169 s \$0-record;
#X obj 142 26 inlet;
#X connect 0 0 6 0;
#X connect 1 0 2 0;
#X connect 1 1 3 0;
#X connect 2 0 0 1;
#X connect 3 0 0 1;
#X connect 5 0 1 0;
#X connect 7 0 0 0;
#X restore 473 318 pd send if rec is armed;
#X connect 0 0 26 0;
#X connect 0 1 25 0;
#X connect 1 0 0 0;
#X connect 2 0 7 0;
#X connect 3 0 6 0;
#X connect 6 0 20 1;
#X connect 6 0 4 1;
#X connect 6 0 25 2;
#X connect 6 0 26 2;
#X connect 7 0 20 0;
#X connect 7 0 4 0;
#X connect 7 0 26 1;
#X connect 7 0 25 1;
#X connect 10 0 1 0;
#X connect 13 0 14 0;
#X connect 14 0 24 0;
#X connect 14 0 0 1;
#X connect 14 1 0 1;
#X connect 16 0 17 0;
#X connect 17 0 32 0;
#X connect 19 0 36 0;
#X connect 31 0 29 0;
#X connect 31 1 27 0;
#X connect 31 2 30 0;
#X connect 32 0 33 0;
#X connect 32 1 31 0;
#X connect 32 2 28 0;
#X connect 33 0 34 0;
#X connect 33 1 35 0;
#X connect 33 2 35 0;
#X connect 34 0 37 0;
#X connect 35 0 37 0;
#X coords 0 -1 1 1 135 148 1 0 0;
#X restore 93 -13 pd audio;
#N canvas 485 310 974 540 playlist 0;
#X obj 176 75 openpanel;
#X obj 1 16 cnv 15 160 118 empty empty empty 20 12 0 14 -191407 -66577
0;
#X obj 5 33 tgl 30 0 empty \$0-play play -1 -6 0 10 -225271 -24198
-1 0 1;
#X obj 108 48 bng 15 250 50 0 empty empty load -4 -6 0 10 -203904 -1
-1;
#X obj 75 43 bng 20 250 50 0 \$0-next empty next -1 -6 0 10 -261682
-1 -1;
#X symbolatom 4 69 21 0 0 0 - #0-showpatch -;
#X obj 287 39 key;
#X obj 287 65 sel 32;
#X text 314 37 manual cue via spacebar;
#X obj 287 95 spigot;
#X obj 145 19 tgl 10 0 empty empty space -28 4 0 8 -261234 -1 -1 0
1;
#N canvas 1086 78 443 474 playlist 0;
#X text 220 427 patchname out;
#X obj 38 53 inlet;
#X text 82 53 bang to load next patch;
#X floatatom 38 390 5 0 0 0 - - -;
#X obj 38 363 route float;
#X text 15 15 the playlist patches are managed by a coll;
#X obj 71 339 s \$0-list_pos;
#X msg 85 286 open;
#X text 32 410 length;
#X obj 110 427 s \$0-patchname;
#X obj 38 312 coll;
#C restore;
#X msg 80 234 read \$1;
#X text 216 396 get path relative to playlist;
#N canvas 644 483 397 291 append_path 0;
#X obj 53 24 inlet patchname in;
#X obj 218 27 inlet path from playlist;
#X obj 158 234 outlet patch with path;
#X obj 218 55 splitfilename;
#X obj 53 136 symbol;
#X obj 53 195 mergefilename /;
#X obj 53 169 pack s s;
#X obj 53 96 t b a;
#N canvas 1059 127 443 378 rel_or_abs_path 0;
#X msg 184 109 1;
#X obj 100 153 demux 0 1;
#X msg 146 108 0;
#X obj 100 -78 t a a b;
#X text 214 109 path begins with '/' or 'C';
#X obj 151 183 outlet absolute;
#X obj 100 219 outlet relative;
#X obj 100 -116 inlet;
#X text 173 -101 determines absolute or relative path;
#X obj 184 -55 list trim;
#X msg 264 -25 symbol;
#X obj 184 0 s2l;
#X obj 184 -31 symbol;
#X obj 184 80 sel /;
#X obj 253 80 sel C;
#X obj 184 28 list split 2;
#X obj 184 54 list split 1;
#X text 318 -24 empty symbol;
#X obj 264 -50 loadbang;
#X connect 0 0 1 1;
#X connect 1 0 6 0;
#X connect 1 1 5 0;
#X connect 2 0 1 1;
#X connect 3 0 1 0;
#X connect 3 1 9 0;
#X connect 3 2 2 0;
#X connect 7 0 3 0;
#X connect 9 0 12 0;
#X connect 10 0 11 1;
#X connect 11 0 15 0;
#X connect 12 0 11 0;
#X connect 13 0 0 0;
#X connect 14 0 0 0;
#X connect 15 0 16 0;
#X connect 16 0 13 0;
#X connect 16 1 14 0;
#X connect 18 0 10 0;
#X restore 53 60 pd rel_or_abs_path;
#X connect 0 0 8 0;
#X connect 1 0 3 0;
#X connect 3 0 4 1;
#X connect 4 0 6 0;
#X connect 5 0 2 0;
#X connect 6 0 5 0;
#X connect 7 0 4 0;
#X connect 7 1 6 1;
#X connect 8 0 7 0;
#X connect 8 1 2 0;
#X restore 110 395 pd append_path;
#X text 130 93 absolute path;
#X obj 131 113 r \$0-playlist;
#X obj 85 262 r \$0-edit-list;
#X obj 205 206 symbol;
#X obj 213 240 splitfilename;
#X obj 301 267 s \$0-showplaylist;
#X obj 325 215 loadbang;
#X msg 325 239 symbol empty;
#X obj 131 138 route close;
#X msg 77 198 clear;
#X connect 1 0 10 0;
#X connect 4 0 3 0;
#X connect 4 1 13 0;
#X connect 7 0 10 0;
#X connect 10 0 4 0;
#X connect 10 1 6 0;
#X connect 11 0 10 0;
#X connect 13 0 9 0;
#X connect 15 0 22 0;
#X connect 16 0 7 0;
#X connect 17 0 11 0;
#X connect 17 0 13 1;
#X connect 17 0 18 0;
#X connect 18 1 19 0;
#X connect 20 0 21 0;
#X connect 21 0 19 0;
#X connect 22 0 23 0;
#X connect 22 0 21 0;
#X connect 22 1 17 0;
#X connect 23 0 10 0;
#X restore 229 412 pd playlist;
#N canvas 438 110 383 297 load_sound 0;
#X obj 155 38 inlet;
#X msg 155 83 1;
#X obj 56 83 loadbang;
#X obj 56 251 throw~ left;
#X obj 137 251 throw~ right;
#X text 18 15 play a sound when loading the patch;
#X obj 56 220 clip~ -0.5 0.5;
#X obj 155 60 t b b;
#X msg 217 86 0;
#X msg 56 107 open samples/unit_sounds/bang.wav;
#X obj 56 193 rc-dist~_ 0.4;
#X obj 56 141 rc-sfplay~;
#X obj 56 170 *~ 0.25;
#X connect 0 0 7 0;
#X connect 1 0 11 0;
#X connect 2 0 9 0;
#X connect 6 0 3 0;
#X connect 6 0 4 0;
#X connect 7 0 1 0;
#X connect 7 1 8 0;
#X connect 8 0 11 0;
#X connect 9 0 11 0;
#X connect 10 0 6 0;
#X connect 11 0 12 0;
#X connect 12 0 10 0;
#X restore 248 383 pd load_sound;
#X text 357 122 send cue out;
#X obj 287 120 s \$0-play;
#X floatatom 27 115 3 0 99 0 pos #0-list_pos -;
#X obj 140 115 bng 15 250 50 0 \$0-edit-list empty edit -25 7 0 10
-162280 -33289 -1;
#X obj 267 359 s \$0-load;
#X text 339 359 stop rec on load;
#X obj 287 310 s \$0-play;
#X text 359 312 stop play on load;
#X msg 287 287 0;
#X obj 287 239 f 0;
#X obj 287 264 sel 1;
#X text 347 383 play the loading sound;
#X text 312 413 load the next song;
#X msg 267 335 bang;
#N canvas 190 100 356 365 rec_flash 0;
#X obj 78 57 \$0;
#X obj 33 32 t f b;
#X obj 33 83 pack f f;
#X obj 33 -111 metro 500;
#X obj 33 -59 sel 0 1;
#X obj 122 -111 sel 0;
#X obj 33 -170 inlet;
#X msg 33 -26 16;
#X text 66 -23 green;
#X text 85 -3 light green;
#X msg 55 -2 6;
#X msg 33 112 \; \$2-play color \$1 16 -1;
#X text 85 -165 flashes play toggle when playing;
#X obj 33 -84 rc-count 2;
#X connect 0 0 2 1;
#X connect 1 0 2 0;
#X connect 1 1 0 0;
#X connect 2 0 11 0;
#X connect 3 0 13 0;
#X connect 4 0 7 0;
#X connect 4 1 10 0;
#X connect 5 0 10 0;
#X connect 6 0 3 0;
#X connect 6 0 5 0;
#X connect 7 0 1 0;
#X connect 10 0 1 0;
#X connect 13 0 4 0;
#X restore 5 267 pd rec_flash;
#X obj 46 43 bng 20 250 50 0 empty \$0-prev prev -1 -6 0 10 -204800
-1 -1;
#X obj 97 115 bng 15 250 50 0 empty empty ld_list -44 7 0 10 -66577
-33289 -1;
#X obj 14 340 r \$0-patchname;
#X obj 176 119 s \$0-patchname;
#X obj 14 500 print Unit-Control;
#X msg 14 475 Loading Patch -> \$1;
#X obj 36 452 s \$0-showpatch;
#X text 149 452 to gui;
#X obj 229 212 t a b b b;
#X obj 534 98 r UNIT_OSC;
#X obj 534 128 routeOSC /pd;
#X obj 534 463 s \$0-patchname;
#X obj 534 408 route patch playlist;
#X obj 679 303 s \$0-play;
#X obj 718 281 s \$0-prev;
#X obj 757 259 s \$0-next;
#X msg 718 256 bang;
#X msg 757 237 bang;
#X obj 592 435 s \$0-playlist;
#X obj 97 145 openpanel;
#X obj 97 170 s \$0-playlist;
#N canvas 50 52 571 565 button_box 0;
#X obj 29 344 sel 1;
#X obj 235 115 sel 1;
#X text 275 116 big button down;
#X text 258 344 red button down;
#X text 288 59 buttons from buttonbox;
#X obj 29 257 speedlim 500;
#X obj 235 151 s \$0-play;
#X msg 104 66 1;
#X text 308 258 try not to load too quickly;
#X obj 217 344 sel 1;
#X obj 217 255 speedlim 500;
#X text 68 345 white button down;
#X msg 29 65 1;
#X obj 193 82 route 3 0 1;
#X obj 29 23 inlet prev;
#X obj 104 24 inlet next;
#X text 257 373 forward;
#X text 69 371 backward;
#X msg 217 374 next;
#X msg 29 373 prev;
#X obj 217 464 outlet to playlist;
#X msg 322 423 clear;
#X obj 322 395 r \$0-unloadplaylist;
#X text 280 82 white button \, red button \, big button;
#N canvas 1079 567 450 347 timers 0;
#X obj 224 18 timer;
#X obj 273 18 timer;
#X obj 254 51 moses 50;
#X floatatom 257 83 5 0 0 0 - - -;
#X obj 118 -104 inlet;
#X obj 228 -98 inlet;
#X obj 118 -77 sel 1;
#X obj 228 -74 sel 1;
#X msg 106 5 symbol prev;
#X msg 122 35 symbol next;
#X obj 67 70 symbol;
#X obj 118 -53 t b b b;
#X obj 228 -50 t b b b;
#X obj 127 148 print;
#X msg 233 132 reset;
#X obj 32 28 delay 50;
#X msg 129 113 1;
#X msg 164 115 2;
#X msg 198 118 3;
#X connect 0 0 2 0;
#X connect 0 0 15 0;
#X connect 1 0 2 0;
#X connect 1 0 15 0;
#X connect 2 0 3 0;
#X connect 2 0 18 0;
#X connect 3 0 14 0;
#X connect 4 0 6 0;
#X connect 5 0 7 0;
#X connect 6 0 11 0;
#X connect 7 0 12 0;
#X connect 8 0 10 1;
#X connect 9 0 10 1;
#X connect 9 0 17 0;
#X connect 10 0 13 0;
#X connect 11 1 8 0;
#X connect 11 2 1 1;
#X connect 11 2 0 0;
#X connect 12 0 16 0;
#X connect 12 1 9 0;
#X connect 12 2 1 0;
#X connect 12 2 0 1;
#X connect 14 0 13 0;
#X connect 15 0 10 0;
#X connect 16 0 13 0;
#X connect 17 0 13 0;
#X connect 18 0 13 0;
#X restore 130 232 pd timers;
#X obj 193 56 r /bbox/button;
#X connect 0 0 19 0;
#X connect 1 0 6 0;
#X connect 5 0 0 0;
#X connect 7 0 10 0;
#X connect 9 0 18 0;
#X connect 10 0 9 0;
#X connect 12 0 5 0;
#X connect 13 0 24 0;
#X connect 13 0 5 0;
#X connect 13 1 24 1;
#X connect 13 1 10 0;
#X connect 13 2 1 0;
#X connect 14 0 12 0;
#X connect 15 0 7 0;
#X connect 18 0 20 0;
#X connect 19 0 20 0;
#X connect 21 0 20 0;
#X connect 22 0 21 0;
#X connect 25 0 13 0;
#X restore 229 165 pd button_box;
#N canvas 0 0 450 300 /pd/transport 0;
#X obj 139 46 inlet;
#X obj 139 78 sel 0;
#X msg 139 126 stop;
#X msg 166 104 start;
#X obj 166 227 s UNIT_OSC;
#X msg 166 197 /pd/transport \$1;
#X obj 166 173 symbol;
#X connect 0 0 1 0;
#X connect 1 0 2 0;
#X connect 1 1 3 0;
#X connect 2 0 6 0;
#X connect 3 0 6 0;
#X connect 5 0 4 0;
#X connect 6 0 5 0;
#X restore 24 223 pd /pd/transport start/stop;
#X obj 5 180 t a a a;
#X symbolatom 5 92 21 0 0 0 - #0-showplaylist -;
#X obj 606 328 route patch playlist;
#X obj 664 355 s \$0-unloadplaylist;
#X obj 606 383 s \$0-patchname;
#X msg 606 356 close;
#X obj 14 425 rc-openclose;
#X msg 679 281 0;
#X obj 679 213 route done prev next;
#X obj 137 48 bng 15 250 50 0 empty empty close -6 -6 0 10 -262130
-1 -1;
#X msg 195 96 close;
#X obj 14 367 route close;
#X msg 14 396 close;
#X obj 117 398 loadbang;
#X msg 117 426 symbol unnamed;
#X obj 534 154 routeOSC /load /unload /transport;
#X obj 534 436 symbol;
#X connect 0 0 31 0;
#X connect 2 0 51 0;
#X connect 3 0 0 0;
#X connect 4 0 49 1;
#X connect 6 0 7 0;
#X connect 7 0 9 0;
#X connect 9 0 14 0;
#X connect 10 0 9 1;
#X connect 21 0 19 0;
#X connect 22 0 23 0;
#X connect 23 0 21 0;
#X connect 26 0 17 0;
#X connect 28 0 49 0;
#X connect 29 0 47 0;
#X connect 30 0 62 0;
#X connect 33 0 32 0;
#X connect 36 0 11 0;
#X connect 36 1 12 0;
#X connect 36 2 26 0;
#X connect 36 3 22 0;
#X connect 37 0 38 0;
#X connect 38 0 66 0;
#X connect 40 0 67 0;
#X connect 40 1 46 0;
#X connect 44 0 42 0;
#X connect 45 0 43 0;
#X connect 47 0 48 0;
#X connect 49 0 36 0;
#X connect 51 0 27 0;
#X connect 51 1 50 0;
#X connect 51 2 22 1;
#X connect 53 0 56 0;
#X connect 53 1 54 0;
#X connect 53 1 56 0;
#X connect 56 0 55 0;
#X connect 57 0 33 0;
#X connect 57 0 34 0;
#X connect 58 0 41 0;
#X connect 59 0 58 0;
#X connect 59 1 44 0;
#X connect 59 2 45 0;
#X connect 60 0 61 0;
#X connect 61 0 31 0;
#X connect 62 0 63 0;
#X connect 62 0 65 0;
#X connect 62 1 57 0;
#X connect 63 0 57 0;
#X connect 64 0 65 0;
#X connect 65 0 34 0;
#X connect 66 0 40 0;
#X connect 66 1 53 0;
#X connect 66 2 59 0;
#X connect 67 0 39 0;
#X coords 0 -1 1 1 162 135 1 0 0;
#X restore -79 -15 pd playlist;
#N canvas 1065 308 535 354 connections 0;
#X text 125 96 OSC in;
#X obj 11 96 udpreceive 8880;
#X obj 11 122 unpackOSC;
#X text 90 324 global send to patches;
#X obj 11 324 s UNIT_OSC;
#X obj 23 146 routeOSC /pd;
#X text 164 228 button box;
#X text 195 52 7770 - unitd;
#X text 196 65 9990 - visual;
#X text 195 38 8880 - pd OSC;
#X text 196 78 3333 - pd control;
#X obj 1 14 cnv 15 160 30 empty empty empty 20 12 0 14 -233017 -66577
0;
#X obj 10 22 tgl 15 0 empty \$0-visual-local visual_local 17 7 0 10
-204786 -1 -1 0 1;
#X obj 106 22 tgl 15 0 \$0-debug-con empty debug 17 7 0 10 -261234
-1 -1 0 1;
#N canvas 940 40 339 205 PD_RECV 0;
#X obj 42 147 s pd;
#N canvas 0 0 450 300 debug 0;
#X obj 87 102 inlet;
#X obj 87 225 outlet;
#X obj 118 158 spigot;
#X obj 118 187 print debug_PD_RECV;
#X obj 151 133 r \$0-debug-con;
#X connect 0 0 1 0;
#X connect 0 0 2 0;
#X connect 2 0 3 0;
#X connect 4 0 2 1;
#X restore 42 62 pd debug;
#X obj 117 122 print Unit-Control PD_RECV ignored;
#X obj 42 35 netreceive 3333 1;
#X obj 79 147 outlet;
#X obj 42 90 route pd unit;
#X connect 1 0 5 0;
#X connect 3 0 1 0;
#X connect 5 0 0 0;
#X connect 5 1 4 0;
#X connect 5 2 2 0;
#X restore 32 294 pd PD_RECV;
#X text 323 16 OSC addr structure;
#X text 194 19 ports;
#X text 329 84 /pd/transport prev;
#X text 329 205 /pd/unitd/sounds event;
#X text 328 66 /pd/transport next;
#X text 329 117 /pd/load patch patch.pd;
#X text 330 136 /pd/load playlist playlist.txt;
#X text 327 36 /pd/transport start or stop;
#X text 328 51 /pd/transport done;
#X text 331 224 /pd/audio dsp 1 or 0;
#X text 331 244 /pd/audio recording 1 or 0;
#X text 331 283 /pd/visual connect # ip 1 or 0;
#N canvas 671 393 697 530 UNIT_VISUAL 0;
#X msg 37 328 disconnect;
#X obj 77 363 r UNIT_VISUAL;
#X obj 37 477 udpsend;
#X obj 77 424 packOSC;
#X obj 139 426 tgl 15 0 empty empty empty 17 7 0 10 -262144 -1 -1 0
1;
#X obj 77 395 spigot;
#X msg 430 66 connect 192.168.1.255 9990;
#X text 428 43 broadcast to 192.168.1.*;
#X msg 431 111 connect 255.255.255.255 9990;
#X text 434 90 broadcast to everyone!;
#X msg 139 451 set \$1;
#X obj 79 39 r UNIT_OSC;
#X obj 79 67 routeOSC /pd;
#X obj 79 93 routeOSC /visual;
#X obj 37 274 sel 0;
#X text 169 397 connection 1;
#X obj 53 242 r \$0-connection-1;
#X obj 79 201 s \$0-connection-1;
#X obj 166 174 s \$0-connection-2;
#X msg 396 344 disconnect;
#X obj 436 373 r UNIT_VISUAL;
#X obj 396 487 udpsend;
#X obj 436 434 packOSC;
#X obj 498 436 tgl 15 0 empty empty empty 17 7 0 10 -262144 -1 -1 0
1;
#X obj 436 405 spigot;
#X obj 396 243 sel 0;
#X msg 423 319 connect \$1 9990;
#X obj 430 160 r \$0-connection-2;
#X text 528 407 connection 2;
#X msg 64 303 connect 127.0.0.1 9990;
#X text 182 114 /pd/visual connect ip 1 or 0;
#X obj 79 147 route 127.0.0.1;
#X obj 423 289 symbol;
#X obj 139 476 s \$0-visual-local;
#X text 229 303 local address and port;
#X obj 37 9 inlet;
#X obj 79 117 route connect;
#X text 510 291 remote address and port;
#X obj 479 214 f;
#X obj 430 214 t b a;
#X msg 423 265 bang;
#X obj 430 187 unpack s f;
#X connect 0 0 2 0;
#X connect 1 0 5 0;
#X connect 2 0 4 0;
#X connect 3 0 2 0;
#X connect 4 0 5 1;
#X connect 4 0 10 0;
#X connect 5 0 3 0;
#X connect 10 0 33 0;
#X connect 11 0 12 0;
#X connect 12 0 13 0;
#X connect 13 0 36 0;
#X connect 14 0 0 0;
#X connect 14 1 29 0;
#X connect 16 0 14 0;
#X connect 19 0 21 0;
#X connect 20 0 24 0;
#X connect 21 0 23 0;
#X connect 22 0 21 0;
#X connect 23 0 24 1;
#X connect 24 0 22 0;
#X connect 25 0 19 0;
#X connect 25 1 40 0;
#X connect 26 0 21 0;
#X connect 27 0 41 0;
#X connect 29 0 2 0;
#X connect 31 0 17 0;
#X connect 31 1 18 0;
#X connect 32 0 26 0;
#X connect 35 0 14 0;
#X connect 36 0 31 0;
#X connect 38 0 25 0;
#X connect 39 0 38 0;
#X connect 39 1 32 1;
#X connect 40 0 32 0;
#X connect 41 0 39 0;
#X connect 41 1 38 0;
#X restore 10 58 pd UNIT_VISUAL;
#X text 329 185 /pd/devices/devname event;
#X text 332 304 /pd/visual load sprites.xml;
#N canvas 77 616 450 300 debug_OSC 0;
#X obj 118 158 spigot;
#X obj 118 187 print debug_OSC;
#X obj 151 133 r \$0-debug-con;
#X obj 118 110 r UNIT_OSC;
#X connect 0 0 1 0;
#X connect 2 0 0 1;
#X connect 3 0 0 0;
#X restore 134 294 pd debug_OSC;
#X text 329 100 /pd/transport home;
#X text 331 262 /pd/audio play soundfile.wav;
#X text 328 153 /pd/unload patch;
#X text 328 168 /pd/unload playlist;
#N canvas 0 0 450 469 /keyboard 0;
#X floatatom 141 100 5 0 0 0 - - -;
#X obj 34 27 inlet;
#X obj 34 58 routeOSC /keyboard;
#X obj 34 208 bng 15 250 50 0 empty empty empty 17 7 0 10 -262144 -1
-1;
#N canvas 229 326 413 458 timers 0;
#X obj 56 128 timer;
#X obj 105 128 timer;
#X obj 163 132 timer;
#X obj 212 132 timer;
#X obj 40 39 inlet;
#X obj 173 37 inlet;
#X obj 287 38 inlet;
#X obj 168 429 outlet;
#X obj 181 170 moses 50;
#X obj 79 169 moses 50;
#X obj 276 130 timer;
#X obj 325 130 timer;
#X obj 286 171 moses 50;
#X obj 79 256 timer;
#X obj 128 256 timer;
#X obj 100 293 moses 50;
#X obj 237 255 timer;
#X obj 286 255 timer;
#X obj 247 291 moses 50;
#X obj 138 364 timer;
#X obj 187 364 timer;
#X obj 168 397 moses 50;
#X msg 79 197 bang;
#X msg 181 197 bang;
#X msg 286 198 bang;
#X msg 100 320 bang;
#X msg 247 318 bang;
#X connect 0 0 9 0;
#X connect 1 0 9 0;
#X connect 2 0 8 0;
#X connect 3 0 8 0;
#X connect 4 0 0 0;
#X connect 4 0 1 1;
#X connect 4 0 2 0;
#X connect 4 0 3 1;
#X connect 5 0 0 1;
#X connect 5 0 1 0;
#X connect 5 0 10 0;
#X connect 5 0 11 1;
#X connect 6 0 2 1;
#X connect 6 0 3 0;
#X connect 6 0 10 1;
#X connect 6 0 11 0;
#X connect 8 0 23 0;
#X connect 9 0 22 0;
#X connect 10 0 12 0;
#X connect 11 0 12 0;
#X connect 12 0 24 0;
#X connect 13 0 15 0;
#X connect 14 0 15 0;
#X connect 15 0 25 0;
#X connect 16 0 18 0;
#X connect 17 0 18 0;
#X connect 18 0 26 0;
#X connect 19 0 21 0;
#X connect 20 0 21 0;
#X connect 21 0 7 0;
#X connect 22 0 13 0;
#X connect 22 0 14 1;
#X connect 23 0 13 1;
#X connect 23 0 14 0;
#X connect 23 0 16 0;
#X connect 23 0 17 1;
#X connect 24 0 17 0;
#X connect 24 0 16 1;
#X connect 25 0 19 0;
#X connect 25 0 20 1;
#X connect 26 0 19 1;
#X connect 26 0 20 0;
#X restore 34 181 pd timers;
#X text 138 146 ctrl \, alt \, q;
#X obj 240 208 bng 15 250 50 0 empty empty empty 17 7 0 10 -262144
-1 -1;
#N canvas 229 326 413 458 timers 0;
#X obj 56 128 timer;
#X obj 105 128 timer;
#X obj 163 132 timer;
#X obj 212 132 timer;
#X obj 40 39 inlet;
#X obj 173 37 inlet;
#X obj 287 38 inlet;
#X obj 168 429 outlet;
#X obj 181 170 moses 50;
#X obj 79 169 moses 50;
#X obj 276 130 timer;
#X obj 325 130 timer;
#X obj 286 171 moses 50;
#X obj 79 256 timer;
#X obj 128 256 timer;
#X obj 100 293 moses 50;
#X obj 237 255 timer;
#X obj 286 255 timer;
#X obj 247 291 moses 50;
#X obj 138 364 timer;
#X obj 187 364 timer;
#X obj 168 397 moses 50;
#X msg 79 197 bang;
#X msg 181 197 bang;
#X msg 286 198 bang;
#X msg 100 320 bang;
#X msg 247 318 bang;
#X connect 0 0 9 0;
#X connect 1 0 9 0;
#X connect 2 0 8 0;
#X connect 3 0 8 0;
#X connect 4 0 0 0;
#X connect 4 0 1 1;
#X connect 4 0 2 0;
#X connect 4 0 3 1;
#X connect 5 0 0 1;
#X connect 5 0 1 0;
#X connect 5 0 10 0;
#X connect 5 0 11 1;
#X connect 6 0 2 1;
#X connect 6 0 3 0;
#X connect 6 0 10 1;
#X connect 6 0 11 0;
#X connect 8 0 23 0;
#X connect 9 0 22 0;
#X connect 10 0 12 0;
#X connect 11 0 12 0;
#X connect 12 0 24 0;
#X connect 13 0 15 0;
#X connect 14 0 15 0;
#X connect 15 0 25 0;
#X connect 16 0 18 0;
#X connect 17 0 18 0;
#X connect 18 0 26 0;
#X connect 19 0 21 0;
#X connect 20 0 21 0;
#X connect 21 0 7 0;
#X connect 22 0 13 0;
#X connect 22 0 14 1;
#X connect 23 0 13 1;
#X connect 23 0 14 0;
#X connect 23 0 16 0;
#X connect 23 0 17 1;
#X connect 24 0 17 0;
#X connect 24 0 16 1;
#X connect 25 0 19 0;
#X connect 25 0 20 1;
#X connect 26 0 19 1;
#X connect 26 0 20 0;
#X restore 240 181 pd timers;
#X obj 34 146 sel 50 52 113;
#X obj 240 152 sel 50 52 109;
#X connect 0 0 8 0;
#X connect 0 0 9 0;
#X connect 1 0 2 0;
#X connect 2 0 0 0;
#X connect 4 0 3 0;
#X connect 7 0 6 0;
#X connect 8 0 4 0;
#X connect 8 1 4 1;
#X connect 8 2 4 2;
#X connect 9 0 7 0;
#X connect 9 1 7 1;
#X connect 9 2 7 2;
#X restore 178 193 pd /keyboard;
#X obj 23 170 routeOSC /devices;
#X obj 23 197 unit-joystick /bbox;
#X connect 1 0 2 0;
#X connect 2 0 5 0;
#X connect 2 0 4 0;
#X connect 5 0 36 0;
#X connect 12 0 27 0;
#X connect 14 0 4 0;
#X connect 36 0 35 0;
#X connect 36 0 37 0;
#X coords 0 -1 1 1 162 45 1 0 0;
#X restore -79 120 pd connections;
#N canvas 0 0 412 570 v3.4.3 0;
#X text 24 20 v2 - Consoles Afire Tour;
#X text 42 99 - reorganize patch into gui objects;
#X text 42 115 - add mp3 recording and switch;
#X text 23 42 v3 - record_triggering: use file.path.current;
#X text 41 57 - record_triggering: add 2 sec silence after stop \,
ignore buttons until 2 sec over \, play a sample when rec done;
#X text 42 82 - now cannot load if song is playing;
#X text 43 135 - change /pd/transport from "cue" to "start" "stop"
;
#X text 41 155 - "done" rec changed to "UNIT_DONE" and now only stops
transport;
#X text 23 190 v3.1 - updated sounds to from mac to flite \, added
wiimote sounds;
#X text 24 227 v3.2 - added record/play flash and vu meters;
#X text 48 243 - changed playlist control from counter to pure coll
;
#X text 49 261 - replaced pdmtl file.* with getdir and stripfilename
;
#X text 24 287 v3.3 - fixed dir bug with recorder;
#X text 55 324 - replaces hard samples with rc-sfplay~ (speeds load)
;
#X text 54 306 - added subdir loading;
#X text 25 346 v3.4 - now uses rc-openclose;
#X text 55 365 - load playlist files s now manual \, the playlist path
is appended to relative patch paths;
#X text 25 399 v3.4.1 - cleaned up patches \, centered around osc parsing
;
#X text 67 433 - added pd netrecieve to UNIT_OSC;
#X text 67 415 - cleaned ond expanded osc addr stucture;
#X text 26 453 v3.4.2 - added playlist loading \, sample playing over
osc;
#X text 69 475 - playlists and patches can now be cleared;
#X text 69 495 - playlist symbol in gui;
#X text 27 517 v3.4.3 - bug fix: added symbol patchname from OSC patch
load;
#X restore 152 149 pd v3.4.3;
