#N canvas 210 174 699 154 10;
#N canvas 317 731 424 196 MASTER 0;
#X obj 1 17 cnv 15 93 130 empty empty empty 20 12 0 14 -191407 -66577
0;
#N canvas 672 602 364 177 vu_meters 0;
#X obj 18 41 inlet~;
#X obj 207 44 inlet~;
#X obj 208 74 env~ 8192;
#X obj 19 73 env~ 8192;
#X obj 19 104 - 100;
#X obj 208 105 - 100;
#X obj 19 148 outlet;
#X obj 208 145 outlet;
#X connect 0 0 3 0;
#X connect 1 0 2 0;
#X connect 2 0 5 0;
#X connect 3 0 4 0;
#X connect 4 0 6 0;
#X connect 5 0 7 0;
#X restore 150 169 pd vu_meters;
#X obj 9 23 vu 30 120 empty empty -1 -8 0 10 -66577 -1 0 0;
#X obj 41 23 vu 30 120 empty empty -1 -8 0 10 -66577 -1 0 0;
#X obj 74 21 vfad_scale -1;
#X obj 150 87 catch~ LEFT_VU;
#X obj 218 114 catch~ RIGHT_VU;
#X connect 1 0 2 0;
#X connect 1 1 3 0;
#X connect 5 0 1 0;
#X connect 6 0 1 1;
#X coords 0 -1 1 1 95 150 1 0 0;
#X restore -458 -40 pd MASTER;
#X obj -363 -40 Uvu DRUMS;
#X obj 12 -40 Uvu SAMPLES;
#X obj -138 -40 Uvu BASS;
#X obj -288 -40 Uvu GUITAR;
#X obj -213 -40 Uvu VOX;
#X obj -63 -40 Uvu LEAD;
#X obj 87 -40 Uvu FX;
#X obj 162 -40 Uvu CHAN8;
