#N canvas 132 360 437 311 10;
#X obj 16 285 sendOSC;
#X msg 16 16 connect localhost 8880;
#X msg 66 254 disconnect;
#X msg 46 158 send /pd/patch \$1;
#X obj 46 131 makefilename %s.pd;
#X obj 46 78 r \$0-patch;
#X msg 198 18 ArpeggiateNow;
#X msg 216 43 Velocipede;
#X msg 233 69 MartianPlain;
#X msg 246 93 RunningMan;
#X msg 258 117 BitStomp;
#X msg 271 141 SpaceLight;
#X msg 281 167 MyLungsWereAchingForYou;
#X obj 216 214 s \$0-patch;
#X obj 54 225 r \$0-send;
#X obj 210 286 s \$0-send;
#X msg 210 243 send /pd/load 1;
#X obj 46 104 symbol;
#X msg 288 191 Bleet;
#X msg 32 42 connect 10.0.0.101 8880;
#X msg 356 60 RopeSong;
#X text 402 287 v1;
#X connect 1 0 0 0;
#X connect 2 0 0 0;
#X connect 3 0 0 0;
#X connect 4 0 3 0;
#X connect 5 0 17 0;
#X connect 6 0 13 0;
#X connect 7 0 13 0;
#X connect 8 0 13 0;
#X connect 9 0 13 0;
#X connect 10 0 13 0;
#X connect 11 0 13 0;
#X connect 12 0 13 0;
#X connect 14 0 0 0;
#X connect 16 0 15 0;
#X connect 17 0 4 0;
#X connect 18 0 13 0;
#X connect 19 0 0 0;
#X connect 20 0 13 0;
