#N canvas 629 27 317 180 10;
#N canvas 438 545 697 472 audio 0;
#N canvas 0 0 450 300 gate 0;
#X obj 68 42 inlet;
#X obj 157 45 inlet;
#X obj 89 179 outlet;
#X obj 118 155 outlet;
#X obj 89 95 list prepend 1;
#X obj 89 120 route 1 2;
#X connect 0 0 4 1;
#X connect 1 0 4 0;
#X connect 4 0 5 0;
#X connect 5 0 2 0;
#X connect 5 1 3 0;
#X restore 127 316 pd gate 2;
#X obj 127 228 + 1;
#X obj 283 48 catch~ left;
#X obj 422 49 catch~ right;
#X obj 335 169 dac~;
#X text 295 443 recording;
#X text 296 14 audio from performance patch;
#X obj 422 75 hip~ 5;
#X obj 283 73 hip~ 5;
#X text 314 187 audio out;
#X obj 1 16 cnv 15 133 131 empty empty empty 20 12 0 14 -233017 -66577
0;
#X obj 9 109 vradio 15 1 0 2 empty empty empty 0 -6 0 10 -203904 -1
-1 0;
#X text 25 107 wav;
#X text 25 122 mp3;
#X obj 7 28 tgl 30 1 empty \$0-record record -2 -6 0 10 -166441 -258699
-1 0 1;
#N canvas 133 565 521 554 record_triggering 0;
#X obj 73 410 symbol;
#X obj -47 353 t b b;
#N canvas 0 0 651 542 filename 0;
#X obj 25 142 date -------------;
#X obj 234 143 time -------------;
#X obj 91 430 list-lastx 7;
#X obj 49 189 makefilename %d;
#X obj 73 230 makefilename %d;
#X obj 234 192 makefilename %d;
#X obj 91 392 pack s s s s s s s;
#X obj 275 232 makefilename %d;
#X obj 314 271 makefilename %d;
#X obj 499 142 symbol;
#X obj 212 25 inlet;
#X obj 91 501 outlet;
#X obj 499 176 symbol2list .;
#X msg 499 212 \$1;
#X obj 499 268 symbol;
#X text 356 193 hour;
#X text 400 234 minute;
#X text 437 272 sec;
#X text 166 191 month;
#X text 186 233 day;
#X text 146 263 year;
#X obj 212 99 t b b a;
#X msg 351 29 bbfb.pd;
#X obj 25 265 makefilename %d;
#X obj 45 356 symbol;
#X obj 25 304 t b s;
#X text 414 27 test;
#X text 110 22 patchname in;
#X obj 91 462 makesymbol %s-%s-%s_%s-%s-%s_%s;
#X text 316 463 makes filename: m_d_y-h_m_s_patchname;
#X text 559 271 patchname;
#X connect 0 0 23 0;
#X connect 0 1 3 0;
#X connect 0 2 4 0;
#X connect 1 0 5 0;
#X connect 1 1 7 0;
#X connect 1 2 8 0;
#X connect 2 0 28 0;
#X connect 3 0 24 1;
#X connect 4 0 6 1;
#X connect 5 0 6 3;
#X connect 6 0 2 0;
#X connect 7 0 6 4;
#X connect 8 0 6 5;
#X connect 9 0 12 0;
#X connect 10 0 21 0;
#X connect 12 0 13 0;
#X connect 13 0 14 0;
#X connect 14 0 6 6;
#X connect 21 0 0 0;
#X connect 21 1 1 0;
#X connect 21 2 9 0;
#X connect 22 0 21 0;
#X connect 23 0 25 0;
#X connect 24 0 6 0;
#X connect 25 0 24 0;
#X connect 25 1 6 2;
#X connect 28 0 11 0;
#X restore 73 437 pd filename;
#X text 124 304 patch name in;
#X text 150 436 set wav filename based on date;
#X text -57 5 toggle recording and builds soundfilename based on date/time
;
#X msg -47 391 1;
#X msg -1 417 0;
#X text 122 477 filename out with fullpath;
#X obj 131 353 loadbang;
#X obj 154 212 r \$0-load;
#X text 128 192 turn off recording on load;
#X msg 73 476 set \$1;
#X obj 294 69 r UNIT_OSC;
#X obj 294 97 routeOSC /pd;
#X obj 294 125 routeOSC /transport;
#X obj -47 67 spigot;
#X obj -28 178 t b b;
#X msg 39 292 1;
#X obj 39 100 t f;
#X msg -1 203 0;
#X obj -28 292 t b b;
#X text 2 64 ignore button until recording finished;
#X obj 47 262 loadbang;
#X msg 131 380 symbol unnamed;
#N canvas 0 0 386 200 done_rec_audio 0;
#X obj 26 139 *~ 0.5;
#X obj 27 170 throw~ left;
#X obj 113 171 throw~ right;
#X obj 25 57 inlet;
#X text 18 14 plays a sample on a bang to note when recording is done
;
#X obj 25 114 rc-sfplay~;
#X msg 25 87 play samples/unit_sounds/wave_caxixi.wav;
#X connect 0 0 2 0;
#X connect 0 0 1 0;
#X connect 3 0 6 0;
#X connect 5 0 0 0;
#X connect 6 0 5 0;
#X restore -28 326 pd done_rec_audio;
#X obj 54 142 s \$0-fadeout_spigot;
#X text 59 121 ignore load commands in playlist;
#X obj -28 230 delay 0;
#X obj -47 38 inlet;
#X obj 294 341 s \$0-record;
#X obj 294 268 route start stop;
#X msg 294 299 1;
#X msg 340 299 0;
#X obj -47 95 sel 1 0;
#X text -4 38 from record tgl;
#X text -49 477 to record objs;
#X text 259 45 OSC transport in to record tgl;
#X obj 327 157 inlet;
#X obj 294 242 spigot;
#X obj 327 184 sel 1 0;
#X msg 327 213 1;
#X msg 346 238 0;
#X text 316 141 tgl rec on play;
#X msg 154 240 set 0;
#X text 21 232 fadeout/silence area;
#X text 190 240 empty rec button;
#X obj 106 325 r \$0-patchname;
#X obj 73 504 outlet filename out;
#X obj -47 460 outlet bang;
#X connect 0 0 2 0;
#X connect 1 0 6 0;
#X connect 1 1 0 0;
#X connect 2 0 12 0;
#X connect 6 0 49 0;
#X connect 7 0 49 0;
#X connect 9 0 24 0;
#X connect 10 0 7 0;
#X connect 10 0 44 0;
#X connect 12 0 48 0;
#X connect 13 0 14 0;
#X connect 14 0 15 0;
#X connect 15 0 39 0;
#X connect 16 0 34 0;
#X connect 17 0 28 0;
#X connect 17 1 20 0;
#X connect 18 0 19 0;
#X connect 19 0 16 1;
#X connect 19 0 26 0;
#X connect 21 0 18 0;
#X connect 21 0 25 0;
#X connect 21 1 7 0;
#X connect 23 0 18 0;
#X connect 24 0 0 1;
#X connect 28 0 21 0;
#X connect 29 0 16 0;
#X connect 31 0 32 0;
#X connect 31 1 33 0;
#X connect 32 0 30 0;
#X connect 33 0 30 0;
#X connect 34 0 1 0;
#X connect 34 1 17 0;
#X connect 38 0 40 0;
#X connect 39 0 31 0;
#X connect 40 0 41 0;
#X connect 40 1 42 0;
#X connect 41 0 39 1;
#X connect 42 0 39 1;
#X connect 44 0 30 0;
#X connect 47 0 0 1;
#X coords 0 0 1 1 50 30 0;
#X restore 86 256 pd record_triggering;
#N canvas 207 56 326 406 voice_plus_quindar_tones 0;
#X obj 31 69 adc~ 2;
#X obj 88 264 tgl 15 0 empty empty empty 0 -6 0 10 -262144 -1 -1 0
1;
#X obj 143 47 r /bbox/button;
#X obj 143 73 route 2;
#X obj 31 357 throw~ left;
#X obj 161 356 throw~ right;
#X text 208 72 black button;
#X text 39 381 http://www.hq.nasa.gov/alsj/quindar.html;
#X obj 143 101 sel 1 0;
#X msg 88 225 1;
#X msg 219 248 2525;
#X msg 282 219 2475;
#N canvas 0 0 320 348 quindar 0;
#X obj 89 227 *~;
#X msg 25 99 start;
#X msg 78 118 stop;
#X msg 25 60 bang;
#X obj 25 27 inlet;
#X obj 88 311 outlet~;
#X obj 104 160 ear~ 10 275;
#X obj 42 191 osc~ 2525;
#X obj 78 92 del 250;
#X obj 42 161 inlet;
#X obj 88 256 clip~ -0.45 0.45;
#X obj 89 283 *~ 0.2;
#X connect 0 0 10 0;
#X connect 1 0 6 0;
#X connect 2 0 6 0;
#X connect 3 0 1 0;
#X connect 3 0 8 0;
#X connect 4 0 3 0;
#X connect 6 0 0 1;
#X connect 7 0 0 0;
#X connect 8 0 2 0;
#X connect 9 0 7 0;
#X connect 10 0 11 0;
#X connect 11 0 5 0;
#X restore 162 293 pd quindar;
#X obj 243 134 t b b b;
#X obj 143 134 t b b b;
#X obj 262 183 delay 25;
#X text 156 118 on;
#X text 257 116 off;
#X text 14 11 "astronaut voice" - distortion + quindar tones;
#X obj 104 55 tgl 15 0 empty empty empty 0 -6 0 10 -262144 -1 -1 0
1;
#X obj 30 98 rc-voice_dist~;
#X obj 31 293 rc-spigot~;
#X obj 31 160 *~ 0.7;
#X obj 31 129 clip~ -0.7 0.7;
#X connect 0 0 20 0;
#X connect 1 0 21 1;
#X connect 2 0 3 0;
#X connect 3 0 8 0;
#X connect 8 0 14 0;
#X connect 8 1 13 0;
#X connect 9 0 1 0;
#X connect 10 0 12 1;
#X connect 11 0 12 1;
#X connect 12 0 5 0;
#X connect 12 0 4 0;
#X connect 13 0 1 0;
#X connect 13 1 15 0;
#X connect 13 2 11 0;
#X connect 14 0 9 0;
#X connect 14 1 12 0;
#X connect 14 2 10 0;
#X connect 15 0 12 0;
#X connect 19 0 8 0;
#X connect 20 0 23 0;
#X connect 21 0 4 0;
#X connect 21 0 5 0;
#X connect 22 0 21 0;
#X connect 23 0 22 0;
#X restore 447 414 pd voice_plus_quindar_tones;
#N canvas 209 204 651 729 unitd_sounds 0;
#X obj 60 38 inlet;
#X obj 60 695 throw~ left;
#X obj 150 695 throw~ right;
#X text 6 3 plays notification samples on unitd events;
#X obj 337 103 sel 0 1;
#X obj 59 661 clip~ -0.5 0.5;
#X obj 59 611 *~ 0.5;
#X obj 60 64 routeOSC /insert /removal /startup /ready /shutdown /wii
;
#X obj 60 634 rc-dist~_ 0.4;
#X obj 171 263 rc-sfplay~;
#X obj 226 325 rc-sfplay~;
#X obj 282 396 rc-sfplay~;
#X obj 337 473 rc-sfplay~;
#X obj 356 544 rc-sfplay~;
#X obj 115 194 rc-sfplay~;
#X obj 60 128 rc-sfplay~;
#X msg 171 238 play samples/unit_sounds/you_are_robotcowboy.wav;
#X msg 115 168 play samples/unit_sounds/aw.wav;
#X msg 60 105 play samples/unit_sounds/oo.wav;
#X msg 226 300 play samples/unit_sounds/unit_ready.wav;
#X msg 282 372 play samples/unit_sounds/unit_signing_off.wav;
#X msg 337 449 play samples/unit_sounds/wiimote_disconnected.wav;
#X msg 356 520 play samples/unit_sounds/wiimote_connect.wav;
#X connect 0 0 7 0;
#X connect 4 0 21 0;
#X connect 4 1 22 0;
#X connect 5 0 2 0;
#X connect 5 0 1 0;
#X connect 6 0 8 0;
#X connect 7 0 18 0;
#X connect 7 1 17 0;
#X connect 7 2 16 0;
#X connect 7 3 19 0;
#X connect 7 4 20 0;
#X connect 7 5 4 0;
#X connect 8 0 5 0;
#X connect 9 0 6 0;
#X connect 10 0 6 0;
#X connect 11 0 6 0;
#X connect 12 0 6 0;
#X connect 13 0 6 0;
#X connect 14 0 6 0;
#X connect 15 0 6 0;
#X connect 16 0 9 0;
#X connect 17 0 14 0;
#X connect 18 0 15 0;
#X connect 19 0 10 0;
#X connect 20 0 11 0;
#X connect 21 0 12 0;
#X connect 22 0 13 0;
#X restore 466 362 pd unitd_sounds;
#X obj 466 279 r UNIT_OSC;
#X obj 466 334 routeOSC /unitd;
#X obj 466 306 routeOSC /pd;
#X text 460 255 play sounds on events;
#X text 445 392 voice comm;
#X obj 523 34 loadbang;
#X msg 523 59 \; pd dsp 1;
#X text 514 10 turn dsp on;
#X obj 8 77 tgl 20 0 empty \$0-auto arm 0 -6 0 10 -261234 -1 -1 0 1
;
#X obj 496 203 s \$0-auto;
#X obj 496 156 loadbang;
#X msg 496 180 1;
#X text 490 136 tgl rec on play;
#N canvas 111 146 450 300 vu_meters 0;
#X obj 61 103 inlet~;
#X obj 270 109 inlet~;
#X obj 61 135 env~ 8192;
#X obj 269 136 env~ 8192;
#X obj 63 214 s \$0-vu_l;
#X obj 268 226 s \$0-vu_r;
#X obj 60 171 maxlib/scale 0 100 -99 12;
#X obj 268 174 maxlib/scale 0 100 -99 12;
#X connect 0 0 2 0;
#X connect 1 0 3 0;
#X connect 2 0 6 0;
#X connect 3 0 7 0;
#X connect 6 0 4 0;
#X connect 7 0 5 0;
#X restore 314 104 pd vu_meters;
#X obj 50 20 vu 30 120 \$0-vu_l empty -1 -8 0 10 -66577 -1 0 0;
#X obj 82 20 vu 30 120 \$0-vu_r empty -1 -8 0 10 -66577 -1 0 0;
#X obj 115 18 vfad_scale -1;
#N canvas 0 0 356 365 rec_flash 0;
#X msg 55 -2 1;
#X obj 78 57 \$0;
#X obj 33 32 t f b;
#X obj 33 83 pack f f;
#X obj 33 -111 metro 500;
#X obj 33 -59 sel 0 1;
#X text 66 -23 red;
#X text 84 -3 grey;
#X msg 33 -26 13;
#X obj 122 -111 sel 0;
#X obj 33 -170 inlet;
#X text 36 -193 flashes record toggle when recording;
#X msg 33 112 \; \$2-record color \$1 13 -1;
#X obj 33 -84 rc-count 2;
#X connect 0 0 2 0;
#X connect 1 0 3 1;
#X connect 2 0 3 0;
#X connect 2 1 1 0;
#X connect 3 0 12 0;
#X connect 4 0 13 0;
#X connect 5 0 8 0;
#X connect 5 1 0 0;
#X connect 8 0 2 0;
#X connect 9 0 0 0;
#X connect 10 0 4 0;
#X connect 10 0 9 0;
#X connect 13 0 5 0;
#X restore 86 370 pd rec_flash;
#X obj 338 392 rc-record_mp3~;
#X obj 242 392 rc-record~;
#X connect 0 0 37 0;
#X connect 0 1 36 0;
#X connect 1 0 0 0;
#X connect 2 0 8 0;
#X connect 3 0 7 0;
#X connect 7 0 4 1;
#X connect 7 0 31 1;
#X connect 7 0 36 2;
#X connect 7 0 37 2;
#X connect 8 0 4 0;
#X connect 8 0 31 0;
#X connect 8 0 36 1;
#X connect 8 0 37 1;
#X connect 11 0 1 0;
#X connect 14 0 15 0;
#X connect 15 0 35 0;
#X connect 15 0 0 1;
#X connect 15 1 0 1;
#X connect 18 0 20 0;
#X connect 19 0 17 0;
#X connect 20 0 19 0;
#X connect 23 0 24 0;
#X connect 26 0 15 1;
#X connect 28 0 29 0;
#X connect 29 0 27 0;
#X coords 0 -1 1 1 135 148 1 0 0;
#X restore 93 -13 pd audio;
#N canvas 940 43 560 694 playlist 1;
#X obj 128 120 openpanel;
#X obj 1 16 cnv 15 160 93 empty empty empty 20 12 0 14 -191407 -66577
0;
#X obj 5 33 tgl 30 0 empty \$0-play play -1 -6 0 10 -225271 -24198
-1 0 1;
#X obj 128 48 bng 15 250 50 0 empty empty load -1 -6 0 10 -203904 -1
-1;
#X obj 87 43 bng 20 250 50 0 empty empty next -1 -6 0 10 -261682 -1
-1;
#X symbolatom 4 69 25 0 0 0 - #0-showpatch -;
#X obj 280 13 key;
#X obj 280 42 sel 32;
#X text 307 11 manual cue via spacebar;
#X obj 280 72 spigot;
#X obj 145 19 tgl 10 0 empty empty space -28 4 0 8 -261234 -1 -1 0
1;
#X obj 22 274 s UNIT_OSC;
#X obj 162 407 sel 1;
#X obj 206 219 r /bbox/button;
#X obj 301 276 sel 1;
#N canvas 447 589 388 411 playlist 0;
#X text 196 377 patchname out;
#X obj 38 53 inlet;
#X text 83 52 bang to load next patch;
#X floatatom 38 337 5 0 0 0 - - -;
#X obj 38 310 route float;
#X text 15 15 the playlist patches are managed by a coll;
#X obj 71 286 s \$0-list_pos;
#X obj 85 209 r \$0-edit_list;
#X msg 85 233 open;
#X obj 38 80 sel 1 0;
#X text 78 132 forward;
#X text 97 108 backward;
#X obj 182 110 r \$0-load_list;
#X msg 38 133 next;
#X msg 57 110 prev;
#X text 32 357 length;
#X obj 101 376 s \$0-patchname;
#X obj 38 259 coll;
#C restore;
#X obj 182 137 openpanel;
#X msg 80 182 read \$1;
#X text 199 344 get path relative to playlist;
#N canvas 838 341 397 291 append_path 0;
#X obj 53 24 inlet patchname in;
#X obj 218 27 inlet path from playlist;
#X obj 158 234 outlet patch with path;
#X obj 218 55 splitfilename;
#X obj 53 136 symbol;
#X obj 53 195 mergefilename /;
#X obj 53 169 pack s s;
#X obj 53 96 t b a;
#N canvas 541 74 443 378 rel_or_abs_path 0;
#X obj 184 -46 list.trim;
#X obj 184 -19 any2string 128 -1;
#X obj 184 8 list.split 2;
#X obj 184 33 list.split 1;
#X obj 253 59 sel 58;
#X obj 184 59 sel 47;
#X msg 184 88 1;
#X obj 100 132 demux 0 1;
#X msg 151 88 0;
#X obj 100 -78 t a a b;
#X text 214 88 path begins with '/' or 'C';
#X obj 151 162 outlet absolute;
#X obj 100 198 outlet relative;
#X obj 100 -116 inlet;
#X text 173 -101 determines absolute or relative path;
#X connect 0 0 1 0;
#X connect 1 0 2 0;
#X connect 2 0 3 0;
#X connect 3 0 5 0;
#X connect 3 1 4 0;
#X connect 4 0 6 0;
#X connect 5 0 6 0;
#X connect 6 0 7 1;
#X connect 7 0 12 0;
#X connect 7 1 11 0;
#X connect 8 0 7 1;
#X connect 9 0 7 0;
#X connect 9 1 0 0;
#X connect 9 2 8 0;
#X connect 13 0 9 0;
#X restore 53 56 pd rel_or_abs_path;
#X connect 0 0 8 0;
#X connect 1 0 3 0;
#X connect 3 0 4 1;
#X connect 4 0 6 0;
#X connect 5 0 2 0;
#X connect 6 0 5 0;
#X connect 7 0 4 0;
#X connect 7 1 6 1;
#X connect 8 0 7 0;
#X connect 8 1 2 0;
#X restore 101 344 pd append_path;
#X obj 278 281 print;
#X obj 267 203 print l;
#X connect 1 0 9 0;
#X connect 4 0 3 0;
#X connect 4 1 21 0;
#X connect 4 1 23 0;
#X connect 7 0 8 0;
#X connect 8 0 17 0;
#X connect 9 0 13 0;
#X connect 9 1 14 0;
#X connect 12 0 18 0;
#X connect 13 0 17 0;
#X connect 14 0 17 0;
#X connect 17 0 4 0;
#X connect 17 1 6 0;
#X connect 18 0 19 0;
#X connect 18 0 21 1;
#X connect 19 0 17 0;
#X connect 21 0 16 0;
#X connect 21 0 22 0;
#X restore 205 661 pd playlist;
#X text 341 277 big button down;
#X text 343 411 red button down;
#X text 301 222 buttons from buttonbox;
#X obj 162 355 speedlim 500;
#N canvas 438 110 383 297 load_sound 0;
#X obj 155 38 inlet;
#X msg 155 83 1;
#X obj 56 83 loadbang;
#X obj 56 251 throw~ left;
#X obj 137 251 throw~ right;
#X text 18 15 play a sound when loading the patch;
#X obj 56 220 clip~ -0.5 0.5;
#X obj 56 170 *~ 0.5;
#X obj 155 60 t b b;
#X msg 217 86 0;
#X msg 56 107 open samples/unit_sounds/bang.wav;
#X obj 56 193 rc-dist~_ 0.4;
#X obj 56 141 rc-sfplay~;
#X connect 0 0 8 0;
#X connect 1 0 12 0;
#X connect 2 0 10 0;
#X connect 6 0 3 0;
#X connect 6 0 4 0;
#X connect 7 0 11 0;
#X connect 8 0 1 0;
#X connect 8 1 9 0;
#X connect 9 0 12 0;
#X connect 10 0 12 0;
#X connect 11 0 6 0;
#X connect 12 0 7 0;
#X restore 222 635 pd load_sound;
#X text 346 80 send cue out;
#X obj 320 326 s \$0-play;
#X obj 280 97 s \$0-play;
#X msg 148 229 1;
#X floatatom 27 91 3 0 99 0 pos #0-list_pos -;
#X obj 140 91 bng 15 250 50 0 \$0-edit_list empty edit -25 7 0 10 -162280
-33289 -1;
#X obj 162 382 spigot;
#X obj 393 319 r \$0-fadeout_spigot;
#X obj 239 609 s \$0-load;
#X text 302 609 stop rec on load;
#X obj 256 560 s \$0-play;
#X text 319 559 stop play on load;
#X obj 301 302 spigot;
#X text 387 295 ignore events in fade;
#X obj 22 166 sel 1 0;
#X msg 22 193 start;
#X msg 64 194 stop;
#X msg 22 245 /pd/transport \$1;
#X msg 256 537 0;
#X obj 22 219 symbol;
#X msg 320 185 0;
#X obj 320 160 r UNIT_DONE;
#X obj 256 489 f 0;
#X obj 256 514 sel 1;
#X text 310 636 play the loading sound;
#X text 283 661 load the next song;
#X msg 239 585 bang;
#X text 386 359 try not to load too quickly;
#N canvas 0 0 356 365 rec_flash 0;
#X obj 78 57 \$0;
#X obj 33 32 t f b;
#X obj 33 83 pack f f;
#X obj 33 -111 metro 500;
#X obj 33 -59 sel 0 1;
#X obj 122 -111 sel 0;
#X obj 33 -170 inlet;
#X msg 33 -26 16;
#X text 66 -23 green;
#X text 85 -3 light green;
#X msg 55 -2 6;
#X msg 33 112 \; \$2-play color \$1 16 -1;
#X text 85 -165 flashes play toggle when playing;
#X obj 33 -84 rc-count 2;
#X connect 0 0 2 1;
#X connect 1 0 2 0;
#X connect 1 1 0 0;
#X connect 2 0 11 0;
#X connect 3 0 13 0;
#X connect 4 0 7 0;
#X connect 4 1 10 0;
#X connect 5 0 10 0;
#X connect 6 0 3 0;
#X connect 6 0 5 0;
#X connect 7 0 1 0;
#X connect 10 0 1 0;
#X connect 13 0 4 0;
#X restore 115 189 pd rec_flash;
#X obj 61 127 t a;
#X obj 55 43 bng 20 250 50 0 empty empty prev -1 -6 0 10 -204800 -1
-1;
#X obj 302 411 sel 1;
#X obj 302 359 speedlim 500;
#X obj 302 386 spigot;
#X text 293 245 red button \, white button \, big button;
#X text 196 408 white button down;
#X obj 205 463 t f b b b;
#X msg 138 283 1;
#X obj 206 245 route 3 0 1;
#X msg 162 430 0;
#X msg 302 433 1;
#X text 193 429 prev;
#X text 333 433 next;
#X obj 97 91 bng 15 250 50 0 \$0-load_list empty ld_list -44 7 0 10
-66577 -33289 -1;
#X obj 25 559 r \$0-patchname;
#X obj 128 144 s \$0-patchname;
#X obj 25 586 rc-openclose;
#X obj 25 661 print Unit-Control;
#X msg 25 636 Loading Patch -> \$1;
#X obj 17 422 r UNIT_OSC;
#X obj 17 452 routeOSC /pd;
#X obj 17 478 routeOSC /load /playlist;
#X obj 17 533 s \$0-patchname;
#X obj 87 507 s \$0-load_list;
#X obj 41 610 s \$0-showpatch;
#X text 133 611 to gui;
#X connect 0 0 66 0;
#X connect 2 0 50 0;
#X connect 3 0 0 0;
#X connect 4 0 24 0;
#X connect 6 0 7 0;
#X connect 7 0 9 0;
#X connect 9 0 23 0;
#X connect 10 0 9 1;
#X connect 12 0 60 0;
#X connect 13 0 59 0;
#X connect 14 0 33 0;
#X connect 19 0 27 0;
#X connect 24 0 53 0;
#X connect 27 0 12 0;
#X connect 28 0 27 1;
#X connect 28 0 33 1;
#X connect 28 0 54 1;
#X connect 33 0 22 0;
#X connect 35 0 36 0;
#X connect 35 1 37 0;
#X connect 36 0 40 0;
#X connect 37 0 40 0;
#X connect 38 0 11 0;
#X connect 39 0 31 0;
#X connect 40 0 38 0;
#X connect 41 0 22 0;
#X connect 42 0 41 0;
#X connect 43 0 44 0;
#X connect 44 0 39 0;
#X connect 47 0 29 0;
#X connect 50 0 35 0;
#X connect 50 0 43 1;
#X connect 50 0 49 0;
#X connect 51 0 58 0;
#X connect 52 0 61 0;
#X connect 53 0 54 0;
#X connect 54 0 52 0;
#X connect 57 0 15 0;
#X connect 57 1 20 0;
#X connect 57 2 47 0;
#X connect 57 3 43 0;
#X connect 58 0 19 0;
#X connect 59 0 19 0;
#X connect 59 1 53 0;
#X connect 59 2 14 0;
#X connect 60 0 57 0;
#X connect 61 0 57 0;
#X connect 65 0 67 0;
#X connect 67 0 69 0;
#X connect 67 0 75 0;
#X connect 69 0 68 0;
#X connect 70 0 71 0;
#X connect 71 0 72 0;
#X connect 72 0 73 0;
#X connect 72 1 74 0;
#X coords 0 -1 1 1 162 110 1 0 0;
#X restore -79 -15 pd playlist;
#N canvas 918 95 553 381 connections 1;
#X text 111 72 OSC in;
#X obj 12 71 udpreceive 8880;
#X obj 12 97 unpackOSC;
#X obj 24 172 unit-joystick /bbox;
#X text 91 308 global send to patches;
#X obj 12 308 s UNIT_OSC;
#X obj 24 121 routeOSC /pd;
#N canvas 568 492 410 387 send2visual 0;
#X msg 123 196 disconnect;
#X obj 25 12 loadbang;
#X obj 25 38 t b b b;
#X text 282 109 load file;
#X text 206 139 faster framerate;
#X text 216 71 address and port;
#X obj 96 167 r UNIT_VISUAL;
#X text 355 200 laptop;
#X msg 44 108 send /visual/file visual_sprites.txt;
#X msg 25 139 send /visual/framerate 24;
#X obj 89 12 bng 15 250 50 0 empty empty empty 0 -6 0 10 -262144 -1
-1;
#X obj 114 265 packOSC;
#X obj 114 239 spigot;
#X obj 136 300 udpsend;
#X obj 176 267 tgl 15 0 empty empty empty 17 7 0 10 -262144 -1 -1 0
1;
#X obj 51 301 udpsend;
#X obj 25 270 packOSC;
#X obj 81 273 tgl 15 0 empty empty empty 17 7 0 10 -262144 -1 -1 0
1;
#X msg 64 70 connect 127.0.0.1 9990;
#X obj 25 240 spigot;
#X msg 221 306 connect 192.168.1.255 9990;
#X text 219 283 broadcast to 192.168.1.*;
#X msg 222 351 connect 255.255.255.255 9990;
#X text 225 330 broadcast to everyone!;
#X msg 202 198 connect 17.0.0.100 9990;
#X connect 0 0 13 0;
#X connect 0 0 15 0;
#X connect 1 0 2 0;
#X connect 2 0 9 0;
#X connect 2 1 8 0;
#X connect 2 2 18 0;
#X connect 2 2 24 0;
#X connect 6 0 12 0;
#X connect 6 0 19 0;
#X connect 8 0 12 0;
#X connect 8 0 19 0;
#X connect 9 0 12 0;
#X connect 9 0 19 0;
#X connect 10 0 2 0;
#X connect 11 0 13 0;
#X connect 12 0 11 0;
#X connect 13 0 14 0;
#X connect 14 0 12 1;
#X connect 15 0 17 0;
#X connect 16 0 15 0;
#X connect 17 0 19 1;
#X connect 18 0 15 0;
#X connect 19 0 16 0;
#X connect 24 0 13 0;
#X restore 266 307 pd send2visual;
#X text 159 203 button box;
#X obj 24 145 routeOSC /devices;
#X text 202 123 7770 - unitd;
#X text 203 136 9990 - visual;
#X text 202 109 8880 - pd OSC;
#X text 203 149 3333 - pd control;
#X obj 1 14 cnv 15 160 30 empty empty empty 20 12 0 14 -233017 -66577
0;
#X obj 10 22 tgl 15 0 empty \$0-visual-local-connected visual_local
17 7 0 10 -204786 -1 -1 0 1;
#X obj 106 22 tgl 15 0 \$0-debug-con empty debug 17 7 0 10 -261234
-1 -1 1 1;
#N canvas 0 0 450 300 debug 0;
#X obj 87 102 inlet;
#X obj 87 225 outlet;
#X obj 118 158 spigot;
#X obj 118 187 print debug_OSC;
#X obj 151 133 r \$0-debug-con;
#X connect 0 0 1 0;
#X connect 0 0 2 0;
#X connect 2 0 3 0;
#X connect 4 0 2 1;
#X restore 12 276 pd debug;
#N canvas 817 26 403 322 PD_RECV 0;
#X obj 42 286 s pd;
#X obj 87 250 print unit;
#N canvas 0 0 450 300 debug 0;
#X obj 87 102 inlet;
#X obj 87 225 outlet;
#X obj 118 158 spigot;
#X obj 118 187 print debug_PD_RECV;
#X obj 151 133 r \$0-debug-con;
#X connect 0 0 1 0;
#X connect 0 0 2 0;
#X connect 2 0 3 0;
#X connect 4 0 2 1;
#X restore 42 62 pd debug;
#X obj 177 116 print Unit-Control PD_RECV ignored;
#X obj 42 90 route pd unit menuclose;
#X obj 42 35 netreceive 3333 1;
#X msg 132 200 \; \$1 menuclose \;;
#X obj 132 166 makefilename pd-%s;
#X obj 132 139 symbol;
#X connect 2 0 4 0;
#X connect 4 0 0 0;
#X connect 4 1 1 0;
#X connect 4 2 8 0;
#X connect 4 3 3 0;
#X connect 5 0 2 0;
#X connect 7 0 6 0;
#X connect 8 0 7 0;
#X restore 266 275 pd PD_RECV;
#X text 324 73 OSC addr structure;
#X text 201 90 ports;
#X text 330 141 /pd/transport prev;
#X text 332 198 /pd/devices/devname events;
#X text 332 219 /pd/unitd/sounds event;
#X text 329 123 /pd/transport next;
#X text 330 159 /pd/load patch patch.pd;
#X text 331 178 /pd/load playlist playlist.txt;
#X text 328 93 /pd/transport start or stop;
#X text 329 108 /pd/transport done;
#X connect 1 0 2 0;
#X connect 2 0 6 0;
#X connect 2 0 17 0;
#X connect 6 0 9 0;
#X connect 9 0 3 0;
#X connect 17 0 5 0;
#X coords 0 -1 1 1 162 45 1 0 0;
#X restore -79 108 pd connections;
#N canvas 0 0 438 395 v3.4 0;
#X text 24 20 v2 - Consoles Afire Tour;
#X text 42 99 - reorganize patch into gui objects;
#X text 42 115 - add mp3 recording and switch;
#X text 23 42 v3 - record_triggering: use file.path.current;
#X text 41 57 - record_triggering: add 2 sec silence after stop \,
ignore buttons until 2 sec over \, play a sample when rec done;
#X text 42 82 - now cannot load if song is playing;
#X text 43 135 - change /pd/transport from "cue" to "start" "stop"
;
#X text 41 155 - "done" rec changed to "UNIT_DONE" and now only stops
transport;
#X text 23 190 v3.1 - updated sounds to from mac to flite \, added
wiimote sounds;
#X text 24 227 v3.2 - added record/play flash and vu meters;
#X text 48 243 - changed playlist control from counter to pure coll
;
#X text 49 261 - replaced pdmtl file.* with getdir and stripfilename
;
#X text 24 287 v3.3 - fixed dir bug with recorder;
#X text 55 324 - replaces hard samples with rc-sfplay~ (speeds load)
;
#X text 54 306 - added subdir loading;
#X text 25 346 v3.4 - now uses rc-openclose;
#X text 55 365 - load playlist files s now manual \, the playlist path
is appended to relative patch paths;
#X restore 181 144 pd v3.4;
