#N canvas 4 52 1340 891 10;
#X obj 5 40 tgl 30 0 empty \$0-play play -1 -6 0 10 -225271 -24198
-1 0 1;
#X obj 129 55 bng 15 250 50 0 empty empty load -4 -6 0 10 -203904 -1
-1;
#X obj 88 50 bng 20 250 50 0 empty \$0-next next -1 -6 0 10 -261682
-1 -1;
#X obj 212 60 tgl 10 0 empty empty space -4 -6 0 8 -261234 -1 -1 0
1;
#X obj 46 50 bng 20 250 50 0 empty \$0-prev prev -1 -6 0 10 -204800
-1 -1;
#X obj 254 60 bng 15 250 50 0 empty empty ld_list -4 -6 0 10 -66577
-33289 -1;
#X obj 171 56 bng 15 250 50 0 empty empty close -6 -6 0 10 -262130
-1 -1;
#X msg 16 140 play \$1;
#X msg 81 140 prev;
#X msg 120 141 next;
#X msg 234 142 close;
#X obj 330 63 key;
#X obj 330 89 sel 32;
#X text 357 61 manual cue via spacebar;
#X obj 330 119 spigot;
#X msg 248 204 play \$1;
#X obj 330 166 tgl 15 0 empty empty empty 17 7 0 10 -262144 -1 -1 0
1;
#X msg 330 143 bang;
#X msg 23 422 Loading Patch -> \$1;
#X obj 23 447 s UNIT_MESSAGE;
#X symbolatom 14 382 21 0 0 0 patch - -;
#X symbolatom 72 361 21 0 0 0 list - -;
#X obj 14 334 route patch playlist;
#X floatatom 156 333 5 0 0 0 - - -;
#X msg 186 199 home;
#X text 363 165 send cue out;
#X obj 773 50 r UNIT_OSC;
#X obj 773 80 routeOSC /pd;
#X obj 773 415 s \$0-patchname;
#X obj 773 360 route patch playlist;
#X obj 983 241 s \$0-play;
#X obj 1012 216 s \$0-prev;
#X obj 1049 192 s \$0-next;
#X msg 1012 170 bang;
#X msg 1049 170 bang;
#X obj 831 387 s \$0-playlist;
#X obj 845 280 route patch playlist;
#X obj 845 335 s \$0-patchname;
#X msg 845 308 close;
#X msg 983 199 0;
#X obj 773 106 routeOSC /load /unload /transport;
#X obj 773 388 symbol;
#X obj 942 335 s \$0-playlist;
#X msg 942 309 close;
#X msg 927 204 set \$1;
#X msg 903 172 1;
#X msg 939 172 0;
#X obj 903 143 route start stop done prev next home;
#X msg 1121 171 bang;
#X obj 1121 193 s \$0-home;
#N canvas 58 102 527 498 button_box 0;
#X obj 29 344 sel 1;
#X obj 235 115 sel 1;
#X text 275 116 big button down;
#X text 258 344 red button down;
#X text 288 59 buttons from buttonbox;
#X obj 29 257 speedlim 500;
#X obj 235 151 s \$0-play;
#X msg 104 66 1;
#X text 308 258 try not to load too quickly;
#X obj 217 344 sel 1;
#X obj 217 255 speedlim 500;
#X text 68 345 white button down;
#X msg 29 65 1;
#X obj 193 82 route 3 0 1;
#X obj 29 23 inlet prev;
#X obj 104 24 inlet next;
#X msg 217 374 next;
#X msg 29 373 prev;
#X obj 217 464 outlet to playlist;
#X text 280 82 white button \, red button \, big button;
#N canvas 1083 592 450 347 timers 0;
#X obj 224 18 timer;
#X obj 273 18 timer;
#X obj 254 51 moses 50;
#X floatatom 257 83 5 0 0 0 - - -;
#X obj 118 -104 inlet;
#X obj 228 -98 inlet;
#X obj 118 -77 sel 1;
#X obj 228 -74 sel 1;
#X msg 106 5 symbol prev;
#X msg 122 35 symbol next;
#X obj 67 70 symbol;
#X obj 118 -53 t b b b;
#X obj 228 -50 t b b b;
#X obj 127 148 print;
#X msg 233 132 reset;
#X obj 32 28 delay 50;
#X msg 129 113 1;
#X msg 164 115 2;
#X msg 198 118 3;
#X connect 0 0 2 0;
#X connect 0 0 15 0;
#X connect 1 0 2 0;
#X connect 1 0 15 0;
#X connect 2 0 3 0;
#X connect 2 0 18 0;
#X connect 3 0 14 0;
#X connect 4 0 6 0;
#X connect 5 0 7 0;
#X connect 6 0 11 0;
#X connect 7 0 12 0;
#X connect 8 0 10 1;
#X connect 9 0 10 1;
#X connect 9 0 17 0;
#X connect 10 0 13 0;
#X connect 11 1 8 0;
#X connect 11 2 1 1;
#X connect 11 2 0 0;
#X connect 12 0 16 0;
#X connect 12 1 9 0;
#X connect 12 2 1 0;
#X connect 12 2 0 1;
#X connect 14 0 13 0;
#X connect 15 0 10 0;
#X connect 16 0 13 0;
#X connect 17 0 13 0;
#X connect 18 0 13 0;
#X restore 130 232 pd timers;
#X obj 193 56 r /bbox/button;
#X obj 304 377 r \$0-home;
#X text 359 401 goto first patch;
#X msg 304 403 home;
#X obj 173 26 inlet home;
#X msg 173 53 home;
#X connect 0 0 17 0;
#X connect 1 0 6 0;
#X connect 5 0 0 0;
#X connect 7 0 10 0;
#X connect 9 0 16 0;
#X connect 10 0 9 0;
#X connect 12 0 5 0;
#X connect 13 0 5 0;
#X connect 13 1 10 0;
#X connect 13 2 1 0;
#X connect 14 0 12 0;
#X connect 15 0 7 0;
#X connect 16 0 18 0;
#X connect 17 0 18 0;
#X connect 21 0 13 0;
#X connect 22 0 24 0;
#X connect 24 0 18 0;
#X connect 25 0 26 0;
#X connect 26 0 18 0;
#X restore 563 39 pd button_box;
#N canvas 446 160 383 297 load_sound 0;
#X obj 155 38 inlet;
#X msg 155 83 1;
#X obj 56 83 loadbang;
#X text 18 15 play a sound when loading the patch;
#X obj 57 243 clip~ -0.5 0.5;
#X obj 155 60 t b b;
#X msg 217 86 0;
#X msg 56 107 open samples/unit_sounds/bang.wav;
#X obj 56 193 rc-dist~_ 0.4;
#X obj 56 141 rc-sfplay~;
#X obj 56 170 *~ 0.25;
#X obj 57 218 *~ 0.4;
#X obj 56 271 throw~ LEFT;
#X obj 138 271 throw~ RIGHT;
#X connect 0 0 5 0;
#X connect 1 0 9 0;
#X connect 2 0 7 0;
#X connect 4 0 12 0;
#X connect 4 0 13 0;
#X connect 5 0 1 0;
#X connect 5 1 6 0;
#X connect 6 0 9 0;
#X connect 7 0 9 0;
#X connect 8 0 11 0;
#X connect 9 0 10 0;
#X connect 10 0 8 0;
#X connect 11 0 4 0;
#X restore 473 419 pd load_sound;
#X text 561 418 play the loading sound;
#X obj 492 389 s \$0-load;
#X text 564 389 stop rec on load;
#X msg 492 365 bang;
#X obj 512 330 s \$0-play;
#X text 584 332 stop play on load;
#X msg 512 307 0;
#X obj 512 259 f 0;
#X obj 512 284 sel 1;
#X obj 473 222 t b b b;
#N canvas 4 52 450 300 /pd/transport 0;
#X obj 139 46 inlet;
#X obj 139 78 sel 0;
#X msg 139 126 stop;
#X msg 166 104 start;
#X obj 166 227 s UNIT_OSC;
#X msg 166 197 /pd/transport \$1;
#X obj 166 173 symbol;
#X obj 56 226 s UNIT_MESSAGE;
#X msg 56 201 transport \$1;
#X connect 0 0 1 0;
#X connect 1 0 2 0;
#X connect 1 1 3 0;
#X connect 2 0 6 0;
#X connect 3 0 6 0;
#X connect 5 0 4 0;
#X connect 6 0 5 0;
#X connect 6 0 8 0;
#X connect 8 0 7 0;
#X restore 587 159 pd /pd/transport start/stop;
#X obj 568 116 t a a a;
#N canvas 194 125 356 365 play_flash 0;
#X obj 78 57 \$0;
#X obj 33 32 t f b;
#X obj 33 83 pack f f;
#X obj 33 -111 metro 500;
#X obj 33 -59 sel 0 1;
#X obj 122 -111 sel 0;
#X obj 33 -170 inlet;
#X msg 33 -26 16;
#X text 66 -23 green;
#X text 85 -3 light green;
#X msg 55 -2 6;
#X msg 33 112 \; \$2-play color \$1 16 -1;
#X text 85 -165 flashes play toggle when playing;
#X obj 33 -84 rc-count 2;
#X msg 50 -138 0;
#X connect 0 0 2 1;
#X connect 1 0 2 0;
#X connect 1 1 0 0;
#X connect 2 0 11 0;
#X connect 3 0 13 0;
#X connect 4 0 7 0;
#X connect 4 1 10 0;
#X connect 5 0 10 0;
#X connect 6 0 3 0;
#X connect 6 0 5 0;
#X connect 7 0 1 0;
#X connect 10 0 1 0;
#X connect 13 0 4 0;
#X connect 14 0 3 0;
#X restore 568 216 pd play_flash;
#X obj 593 186 r \$0-play-flash;
#X msg 317 211 playlist load;
#X msg 287 249 playlist edit;
#X obj 212 335 bng 15 250 50 0 empty empty empty 17 7 0 10 -262144
-1 -1;
#X msg 166 431 Loading Playlist -> \$1;
#X msg 160 141 load;
#X msg 154 283 load /home/dano/Projects/robotcowboy/pd/Uvu.pd;
#X msg 264 318 playlist close;
#X obj 14 280 rc-playlist;
#X obj 5 512 tgl 30 1 empty \$0-record record -2 -6 0 10 -166441 -258699
-1 0 1;
#X obj 86 520 tgl 20 0 empty \$0-auto arm 0 -6 0 10 -261234 -1 -1 1
1;
#X obj 139 507 vradio 15 1 0 2 empty empty empty 0 -6 0 8 -203904 -1
-1 0;
#N canvas 302 193 403 412 voice_plus_quindar_tones 0;
#X obj 31 69 adc~ 2;
#X obj 143 47 r /bbox/button;
#X obj 143 73 route 2;
#X text 208 72 black button;
#X text 39 381 http://www.hq.nasa.gov/alsj/quindar.html;
#X obj 143 101 sel 1 0;
#X msg 88 225 1;
#X msg 217 250 2525;
#X msg 282 219 2475;
#N canvas 700 383 320 348 quindar 0;
#X obj 89 227 *~;
#X msg 25 99 start;
#X msg 78 118 stop;
#X obj 25 27 inlet;
#X obj 88 311 outlet~;
#X obj 104 160 ear~ 10 275;
#X obj 42 191 osc~ 2525;
#X obj 78 92 del 250;
#X obj 42 161 inlet;
#X obj 88 256 clip~ -0.45 0.45;
#X obj 89 283 *~ 0.2;
#X obj 25 54 t b b;
#X connect 0 0 9 0;
#X connect 1 0 5 0;
#X connect 2 0 5 0;
#X connect 3 0 11 0;
#X connect 5 0 0 1;
#X connect 6 0 0 0;
#X connect 7 0 2 0;
#X connect 8 0 6 0;
#X connect 9 0 10 0;
#X connect 10 0 4 0;
#X connect 11 0 1 0;
#X connect 11 1 7 0;
#X restore 160 293 pd quindar;
#X obj 262 183 delay 25;
#X text 156 118 on;
#X text 257 116 off;
#X text 14 11 "astronaut voice" - distortion + quindar tones;
#X obj 131 29 tgl 15 0 empty empty empty 0 -6 0 10 -262144 -1 -1 0
1;
#X obj 31 293 rc-spigot~;
#X obj 31 129 clip~ -0.7 0.7;
#X obj 31 160 *~ 0.4;
#X obj 31 357 throw~ LEFT;
#X obj 159 356 throw~ RIGHT;
#X obj 272 332 switch~;
#X obj 143 134 t b b b b;
#X msg 202 167 1;
#X msg 128 251 0;
#X obj 30 98 rc-voice_dist~;
#X msg 323 256 0;
#X obj 323 225 delay 275;
#X obj 243 134 t b b b b;
#X connect 0 0 24 0;
#X connect 1 0 2 0;
#X connect 2 0 5 0;
#X connect 5 0 21 0;
#X connect 5 1 27 0;
#X connect 6 0 15 1;
#X connect 7 0 9 1;
#X connect 8 0 9 1;
#X connect 9 0 18 0;
#X connect 9 0 19 0;
#X connect 10 0 9 0;
#X connect 14 0 5 0;
#X connect 15 0 18 0;
#X connect 15 0 19 0;
#X connect 16 0 17 0;
#X connect 17 0 15 0;
#X connect 21 0 6 0;
#X connect 21 1 9 0;
#X connect 21 2 7 0;
#X connect 21 3 22 0;
#X connect 22 0 20 0;
#X connect 23 0 15 1;
#X connect 24 0 16 0;
#X connect 25 0 20 0;
#X connect 26 0 25 0;
#X connect 27 0 23 0;
#X connect 27 1 10 0;
#X connect 27 2 8 0;
#X connect 27 3 26 0;
#X restore 493 486 pd voice_plus_quindar_tones;
#X text 497 464 voice comm;
#N canvas 397 262 651 542 filename 0;
#X obj 25 142 date -------------;
#X obj 234 143 time -------------;
#X obj 91 430 list-lastx 7;
#X obj 49 189 makefilename %d;
#X obj 73 230 makefilename %d;
#X obj 234 192 makefilename %d;
#X obj 91 392 pack s s s s s s s;
#X obj 275 232 makefilename %d;
#X obj 314 271 makefilename %d;
#X obj 499 142 symbol;
#X obj 137 32 inlet;
#X obj 91 501 outlet;
#X obj 499 176 symbol2list .;
#X msg 499 212 \$1;
#X obj 499 268 symbol;
#X text 356 193 hour;
#X text 400 234 minute;
#X text 437 272 sec;
#X text 166 191 month;
#X text 186 233 day;
#X text 146 263 year;
#X obj 212 99 t b b a;
#X msg 351 29 bbfb.pd;
#X obj 25 265 makefilename %d;
#X obj 45 356 symbol;
#X obj 25 304 t b s;
#X text 414 27 test;
#X text 35 29 patchname in;
#X obj 91 462 makesymbol %s-%s-%s_%s-%s-%s_%s;
#X text 316 463 makes filename: m_d_y-h_m_s_patchname;
#X text 559 271 patchname;
#X obj 137 58 splitfilename;
#X connect 0 0 23 0;
#X connect 0 1 3 0;
#X connect 0 2 4 0;
#X connect 1 0 5 0;
#X connect 1 1 7 0;
#X connect 1 2 8 0;
#X connect 2 0 28 0;
#X connect 3 0 24 1;
#X connect 4 0 6 1;
#X connect 5 0 6 3;
#X connect 6 0 2 0;
#X connect 7 0 6 4;
#X connect 8 0 6 5;
#X connect 9 0 12 0;
#X connect 10 0 31 0;
#X connect 12 0 13 0;
#X connect 13 0 14 0;
#X connect 14 0 6 6;
#X connect 21 0 0 0;
#X connect 21 1 1 0;
#X connect 21 2 9 0;
#X connect 22 0 21 0;
#X connect 23 0 25 0;
#X connect 24 0 6 0;
#X connect 25 0 24 0;
#X connect 25 1 6 2;
#X connect 28 0 11 0;
#X connect 31 1 21 0;
#X restore 801 494 pd filename;
#X text 887 495 set wav filename based on date;
#X text 850 534 filename out with fullpath;
#X msg 801 533 set \$1;
#X obj 801 561 outlet filename out;
#X obj 924 468 symbol;
#X text 975 362 patch name in;
#X obj 1051 416 loadbang;
#X msg 1051 443 symbol unnamed;
#X obj 957 383 r \$0-patchname;
#X obj 957 410 route close;
#X obj 1051 546 r \$0-load;
#X text 1025 526 turn off recording on load;
#X obj 1051 602 s \$0-record;
#X msg 1051 574 set 0;
#X text 1098 574 empty rec button;
#N canvas 8 77 386 200 done_rec_audio 0;
#X obj 25 57 inlet;
#X text 18 14 plays a sample on a bang to note when recording is done
;
#X msg 25 87 play samples/unit_sounds/wave_caxixi.wav;
#X obj 26 139 *~ 0.3;
#X obj 25 114 rc-sfplay~;
#X obj 26 171 throw~ LEFT;
#X obj 116 171 throw~ RIGHT;
#X connect 0 0 2 0;
#X connect 2 0 4 0;
#X connect 3 0 5 0;
#X connect 3 0 6 0;
#X connect 4 0 3 0;
#X restore 969 629 pd done_rec_audio;
#X obj 571 550 r UNIT_OSC;
#X obj 571 577 routeOSC /pd;
#N canvas 8 76 450 300 toggle 0;
#X obj 55 188 s \$0-auto;
#X obj 98 97 loadbang;
#X msg 82 127 1;
#X text 124 188 tgl rec on play;
#X obj 55 97 sel 0;
#X msg 55 151 0;
#X obj 55 66 inlet;
#X msg 224 176 recording is \$1;
#X obj 224 203 s UNIT_MESSAGE;
#X connect 1 0 2 0;
#X connect 2 0 0 0;
#X connect 2 0 7 0;
#X connect 4 0 5 0;
#X connect 4 1 2 0;
#X connect 5 0 0 0;
#X connect 5 0 7 0;
#X connect 6 0 4 0;
#X connect 7 0 8 0;
#X restore 683 707 pd toggle automatic recording;
#N canvas 217 254 651 729 play 0;
#X obj 60 38 inlet;
#X text 6 3 plays notification samples on unitd events;
#X obj 337 103 sel 0 1;
#X obj 59 661 clip~ -0.5 0.5;
#X obj 60 64 routeOSC /insert /removal /startup /ready /shutdown /wii
;
#X obj 58 614 rc-dist~_ 0.4;
#X msg 171 238 play samples/unit_sounds/you_are_robotcowboy.wav;
#X msg 115 168 play samples/unit_sounds/aw.wav;
#X msg 60 105 play samples/unit_sounds/oo.wav;
#X msg 226 300 play samples/unit_sounds/unit_ready.wav;
#X msg 282 372 play samples/unit_sounds/unit_signing_off.wav;
#X msg 337 449 play samples/unit_sounds/wiimote_disconnected.wav;
#X msg 356 520 play samples/unit_sounds/wiimote_connect.wav;
#X obj 59 590 *~ 0.25;
#X obj 59 638 *~ 0.4;
#X obj 171 263 rc-sfplay~;
#X obj 226 325 rc-sfplay~;
#X obj 282 396 rc-sfplay~;
#X obj 337 473 rc-sfplay~;
#X obj 356 544 rc-sfplay~;
#X obj 115 194 rc-sfplay~;
#X obj 60 128 rc-sfplay~;
#X obj 60 695 throw~ LEFT;
#X obj 150 695 throw~ RIGHT;
#X connect 0 0 4 0;
#X connect 2 0 11 0;
#X connect 2 1 12 0;
#X connect 3 0 22 0;
#X connect 3 0 23 0;
#X connect 4 0 8 0;
#X connect 4 1 7 0;
#X connect 4 2 6 0;
#X connect 4 3 9 0;
#X connect 4 4 10 0;
#X connect 4 5 2 0;
#X connect 5 0 14 0;
#X connect 6 0 15 0;
#X connect 7 0 20 0;
#X connect 8 0 21 0;
#X connect 9 0 16 0;
#X connect 10 0 17 0;
#X connect 11 0 18 0;
#X connect 12 0 19 0;
#X connect 13 0 5 0;
#X connect 14 0 3 0;
#X connect 15 0 13 0;
#X connect 16 0 13 0;
#X connect 17 0 13 0;
#X connect 18 0 13 0;
#X connect 19 0 13 0;
#X connect 20 0 13 0;
#X connect 21 0 13 0;
#X restore 701 631 pd play sounds on rc-unitd events;
#N canvas 8 77 450 300 turn 0;
#X obj 39 64 loadbang;
#X obj -11 35 inlet;
#X msg -11 148 \; pd dsp \$1;
#X text 63 156 turn dsp on/off;
#X obj -11 63 sel 0;
#X msg -11 118 0;
#X msg 16 93 1;
#X msg 178 149 dsp is \$1;
#X obj 178 176 s UNIT_MESSAGE;
#X connect 0 0 6 0;
#X connect 1 0 4 0;
#X connect 4 0 5 0;
#X connect 4 1 6 0;
#X connect 5 0 2 0;
#X connect 5 0 7 0;
#X connect 6 0 2 0;
#X connect 6 0 7 0;
#X connect 7 0 8 0;
#X restore 636 733 pd turn dsp on/off;
#N canvas 4 52 450 300 play 0;
#X obj 40 26 inlet;
#X obj 39 188 clip~ -0.5 0.5;
#X obj 40 161 rc-dist~_ 0.4;
#X msg 40 78 play \$1;
#X obj 40 52 symbol;
#X obj 39 138 *~ 0.35;
#X obj 40 104 rc-sfplay~;
#X msg 182 75 playing \$1;
#X obj 182 101 s UNIT_MESSAGE;
#X obj 39 221 throw~ LEFT;
#X obj 129 221 throw~ RIGHT;
#X connect 0 0 4 0;
#X connect 1 0 9 0;
#X connect 1 0 10 0;
#X connect 2 0 1 0;
#X connect 3 0 6 0;
#X connect 4 0 3 0;
#X connect 4 0 7 0;
#X connect 5 0 2 0;
#X connect 6 0 5 0;
#X connect 7 0 8 0;
#X restore 730 683 pd play specific sound;
#X obj 636 657 route dsp recording play;
#X obj 571 604 routeOSC /transport /audio /unitd;
#X obj 571 760 route start stop done;
#X msg 571 792 1;
#X msg 612 793 0;
#N canvas 12 92 450 300 send 0;
#X obj 142 142 spigot;
#X obj 175 80 sel 1 0;
#X msg 175 109 1;
#X msg 204 109 0;
#X text 237 89 tgl rec on play;
#X obj 175 52 r \$0-rec-armed;
#X obj 142 169 s \$0-record;
#X obj 142 26 inlet;
#X connect 0 0 6 0;
#X connect 1 0 2 0;
#X connect 1 1 3 0;
#X connect 2 0 0 1;
#X connect 3 0 0 1;
#X connect 5 0 1 0;
#X connect 7 0 0 0;
#X restore 571 819 pd send if rec is armed;
#X obj 857 822 throw~ LEFT_VU;
#X obj 989 832 throw~ RIGHT_VU;
#X msg 5 559 record \$1;
#X msg 86 571 wav;
#X msg 114 592 mp3;
#X msg 170 581 filename;
#X obj 285 607 savepanel;
#X obj 285 640 print;
#X msg 285 574 bang;
#X obj 267 399 rc-playlist;
#X obj 5 631 rc-output~_;
#X connect 0 0 7 0;
#X connect 1 0 70 0;
#X connect 2 0 9 0;
#X connect 3 0 14 1;
#X connect 4 0 8 0;
#X connect 5 0 66 0;
#X connect 6 0 10 0;
#X connect 7 0 73 0;
#X connect 8 0 73 0;
#X connect 9 0 73 0;
#X connect 10 0 73 0;
#X connect 11 0 12 0;
#X connect 12 0 14 0;
#X connect 14 0 17 0;
#X connect 15 0 73 0;
#X connect 16 0 15 0;
#X connect 17 0 16 0;
#X connect 18 0 19 0;
#X connect 20 0 18 0;
#X connect 21 0 69 0;
#X connect 22 0 20 0;
#X connect 22 1 21 0;
#X connect 24 0 73 0;
#X connect 26 0 27 0;
#X connect 27 0 40 0;
#X connect 29 0 41 0;
#X connect 29 1 35 0;
#X connect 33 0 31 0;
#X connect 34 0 32 0;
#X connect 36 0 38 0;
#X connect 36 1 38 0;
#X connect 36 1 43 0;
#X connect 38 0 37 0;
#X connect 39 0 30 0;
#X connect 40 0 29 0;
#X connect 40 1 36 0;
#X connect 40 2 47 0;
#X connect 41 0 28 0;
#X connect 43 0 42 0;
#X connect 44 0 30 0;
#X connect 45 0 44 0;
#X connect 46 0 44 0;
#X connect 47 0 45 0;
#X connect 47 1 46 0;
#X connect 47 2 39 0;
#X connect 47 3 33 0;
#X connect 47 4 34 0;
#X connect 47 5 48 0;
#X connect 48 0 49 0;
#X connect 55 0 53 0;
#X connect 58 0 56 0;
#X connect 59 0 60 0;
#X connect 60 0 58 0;
#X connect 61 0 51 0;
#X connect 61 1 55 0;
#X connect 61 2 59 0;
#X connect 63 0 64 0;
#X connect 63 1 62 0;
#X connect 65 0 64 0;
#X connect 66 0 73 0;
#X connect 67 0 73 0;
#X connect 69 0 19 0;
#X connect 70 0 73 0;
#X connect 71 0 73 0;
#X connect 72 0 73 0;
#X connect 73 0 22 0;
#X connect 73 1 23 0;
#X connect 73 2 68 0;
#X connect 74 0 110 0;
#X connect 79 0 82 0;
#X connect 82 0 83 0;
#X connect 84 0 79 0;
#X connect 86 0 87 0;
#X connect 87 0 84 1;
#X connect 88 0 89 0;
#X connect 89 0 87 0;
#X connect 89 1 84 1;
#X connect 90 0 93 0;
#X connect 93 0 92 0;
#X connect 96 0 97 0;
#X connect 97 0 103 0;
#X connect 102 0 100 0;
#X connect 102 1 98 0;
#X connect 102 2 101 0;
#X connect 103 0 104 0;
#X connect 103 1 102 0;
#X connect 103 2 99 0;
#X connect 104 0 105 0;
#X connect 104 1 106 0;
#X connect 104 2 106 0;
#X connect 105 0 107 0;
#X connect 106 0 107 0;
#X connect 110 0 118 0;
#X connect 111 0 118 0;
#X connect 112 0 118 0;
#X connect 114 0 115 0;
#X connect 116 0 114 0;
