#N canvas 905 142 329 241 10;
#N canvas 188 162 832 454 audio 0;
#N canvas 0 22 450 300 gate 0;
#X obj 68 42 inlet;
#X obj 157 45 inlet;
#X obj 89 179 outlet;
#X obj 118 155 outlet;
#X obj 89 95 list prepend 1;
#X obj 89 120 route 1 2;
#X connect 0 0 4 1;
#X connect 1 0 4 0;
#X connect 4 0 5 0;
#X connect 5 0 2 0;
#X connect 5 1 3 0;
#X restore 77 304 pd gate 2;
#X obj 77 216 + 1;
#X obj 243 156 dac~;
#X text 206 12 audio from performance patch;
#X obj 340 76 hip~ 5;
#X obj 193 71 hip~ 5;
#X text 236 187 audio out;
#X obj 1 16 cnv 15 133 131 empty empty empty 20 12 0 14 -191407 -66577
0;
#X obj 6 109 vradio 15 1 0 2 empty empty empty 0 -6 0 8 -203904 -1
-1 0;
#X text 25 107 wav;
#X text 25 122 mp3;
#X obj 6 29 tgl 30 1 empty \$0-record record -2 -6 0 10 -166441 -258699
-1 0 1;
#N canvas 499 372 485 543 record_triggering 0;
#X obj 75 423 symbol;
#X obj -45 366 t b b;
#N canvas 393 237 651 542 filename 0;
#X obj 25 142 date -------------;
#X obj 234 143 time -------------;
#X obj 91 430 list-lastx 7;
#X obj 49 189 makefilename %d;
#X obj 73 230 makefilename %d;
#X obj 234 192 makefilename %d;
#X obj 91 392 pack s s s s s s s;
#X obj 275 232 makefilename %d;
#X obj 314 271 makefilename %d;
#X obj 499 142 symbol;
#X obj 137 32 inlet;
#X obj 91 501 outlet;
#X obj 499 176 symbol2list .;
#X msg 499 212 \$1;
#X obj 499 268 symbol;
#X text 356 193 hour;
#X text 400 234 minute;
#X text 437 272 sec;
#X text 166 191 month;
#X text 186 233 day;
#X text 146 263 year;
#X obj 212 99 t b b a;
#X msg 351 29 bbfb.pd;
#X obj 25 265 makefilename %d;
#X obj 45 356 symbol;
#X obj 25 304 t b s;
#X text 414 27 test;
#X text 35 29 patchname in;
#X obj 91 462 makesymbol %s-%s-%s_%s-%s-%s_%s;
#X text 316 463 makes filename: m_d_y-h_m_s_patchname;
#X text 559 271 patchname;
#X obj 137 58 splitfilename;
#X connect 0 0 23 0;
#X connect 0 1 3 0;
#X connect 0 2 4 0;
#X connect 1 0 5 0;
#X connect 1 1 7 0;
#X connect 1 2 8 0;
#X connect 2 0 28 0;
#X connect 3 0 24 1;
#X connect 4 0 6 1;
#X connect 5 0 6 3;
#X connect 6 0 2 0;
#X connect 7 0 6 4;
#X connect 8 0 6 5;
#X connect 9 0 12 0;
#X connect 10 0 31 0;
#X connect 12 0 13 0;
#X connect 13 0 14 0;
#X connect 14 0 6 6;
#X connect 21 0 0 0;
#X connect 21 1 1 0;
#X connect 21 2 9 0;
#X connect 22 0 21 0;
#X connect 23 0 25 0;
#X connect 24 0 6 0;
#X connect 25 0 24 0;
#X connect 25 1 6 2;
#X connect 28 0 11 0;
#X connect 31 1 21 0;
#X restore 75 450 pd filename;
#X text 126 317 patch name in;
#X text 161 451 set wav filename based on date;
#X text -57 5 toggle recording and builds soundfilename based on date/time
;
#X msg -45 404 1;
#X msg 1 430 0;
#X text 124 490 filename out with fullpath;
#X obj 202 371 loadbang;
#X obj 181 226 r \$0-load;
#X text 155 206 turn off recording on load;
#X msg 75 489 set \$1;
#X obj -45 79 spigot;
#X obj -26 191 t b b;
#X msg 41 305 1;
#X obj 41 113 t f;
#X msg 1 216 0;
#X obj -26 305 t b b;
#X text 4 76 ignore button until recording finished;
#X obj 49 275 loadbang;
#X msg 202 398 symbol unnamed;
#N canvas 0 22 386 200 done_rec_audio 0;
#X obj 25 57 inlet;
#X text 18 14 plays a sample on a bang to note when recording is done
;
#X msg 25 87 play samples/unit_sounds/wave_caxixi.wav;
#X obj 26 139 *~ 0.3;
#X obj 25 114 rc-sfplay~;
#X obj 26 171 throw~ LEFT;
#X obj 116 171 throw~ RIGHT;
#X connect 0 0 2 0;
#X connect 2 0 4 0;
#X connect 3 0 5 0;
#X connect 3 0 6 0;
#X connect 4 0 3 0;
#X restore -26 339 pd done_rec_audio;
#X obj 59 171 s \$0-fadeout_spigot;
#X text 61 134 ignore load commands in playlist;
#X obj -26 247 delay 0;
#X obj -45 40 inlet;
#X obj 181 282 s \$0-record;
#X obj -45 108 sel 1 0;
#X text -2 40 from record tgl;
#X text -47 490 to record objs;
#X msg 181 254 set 0;
#X text 23 249 fadeout/silence area;
#X text 228 254 empty rec button;
#X obj 108 338 r \$0-patchname;
#X obj 75 517 outlet filename out;
#X obj -45 473 outlet bang;
#X obj 108 365 route close;
#X connect 0 0 2 0;
#X connect 1 0 6 0;
#X connect 1 1 0 0;
#X connect 2 0 12 0;
#X connect 6 0 36 0;
#X connect 7 0 36 0;
#X connect 9 0 21 0;
#X connect 10 0 7 0;
#X connect 10 0 31 0;
#X connect 12 0 35 0;
#X connect 13 0 28 0;
#X connect 14 0 25 0;
#X connect 14 1 17 0;
#X connect 15 0 16 0;
#X connect 16 0 13 1;
#X connect 16 0 23 0;
#X connect 18 0 15 0;
#X connect 18 0 22 0;
#X connect 18 1 7 0;
#X connect 20 0 15 0;
#X connect 21 0 0 1;
#X connect 25 0 18 0;
#X connect 26 0 13 0;
#X connect 28 0 1 0;
#X connect 28 1 14 0;
#X connect 31 0 27 0;
#X connect 34 0 37 0;
#X connect 37 0 21 0;
#X connect 37 1 0 1;
#X coords 0 0 1 1 50 30 0;
#X restore 35 248 pd record_triggering;
#N canvas 301 289 326 406 voice_plus_quindar_tones 0;
#X obj 31 69 adc~ 2;
#X obj 88 264 tgl 15 0 empty empty empty 0 -6 0 10 -262144 -1 -1 0
1;
#X obj 143 47 r /bbox/button;
#X obj 143 73 route 2;
#X text 208 72 black button;
#X text 39 381 http://www.hq.nasa.gov/alsj/quindar.html;
#X obj 143 101 sel 1 0;
#X msg 88 225 1;
#X msg 219 248 2525;
#X msg 282 219 2475;
#N canvas 776 555 286 348 quindar 0;
#X obj 89 227 *~;
#X msg 25 99 start;
#X msg 78 118 stop;
#X msg 25 60 bang;
#X obj 25 27 inlet;
#X obj 89 311 outlet~;
#X obj 104 160 ear~ 10 275;
#X obj 42 191 osc~ 2525;
#X obj 78 92 del 250;
#X obj 42 161 inlet;
#X obj 89 256 clip~ -0.45 0.45;
#X obj 89 283 *~ 0.2;
#X obj 206 139 outlet;
#X msg 152 114 1;
#X msg 194 109 0;
#X obj 187 67 loadbang;
#X connect 0 0 10 0;
#X connect 1 0 6 0;
#X connect 1 0 13 0;
#X connect 2 0 6 0;
#X connect 3 0 1 0;
#X connect 3 0 8 0;
#X connect 4 0 3 0;
#X connect 6 0 0 1;
#X connect 7 0 0 0;
#X connect 8 0 2 0;
#X connect 8 0 14 0;
#X connect 9 0 7 0;
#X connect 10 0 11 0;
#X connect 11 0 5 0;
#X connect 13 0 12 0;
#X connect 14 0 12 0;
#X connect 15 0 14 0;
#X restore 162 293 pd quindar;
#X obj 243 134 t b b b;
#X obj 143 134 t b b b;
#X obj 262 183 delay 25;
#X text 156 118 on;
#X text 257 116 off;
#X text 14 11 "astronaut voice" - distortion + quindar tones;
#X obj 131 29 tgl 15 0 empty empty empty 0 -6 0 10 -262144 -1 -1 0
1;
#X obj 31 129 clip~ -0.7 0.7;
#X obj 31 357 throw~ LEFT;
#X obj 161 356 throw~ RIGHT;
#X obj 31 98 rc-voice_dist~;
#X obj 31 293 rc-spigot~;
#X obj 31 160 *~ 0.3;
#X connect 0 0 21 0;
#X connect 1 0 22 1;
#X connect 2 0 3 0;
#X connect 3 0 6 0;
#X connect 6 0 12 0;
#X connect 6 1 11 0;
#X connect 7 0 1 0;
#X connect 8 0 10 1;
#X connect 9 0 10 1;
#X connect 10 0 19 0;
#X connect 10 0 20 0;
#X connect 11 0 1 0;
#X connect 11 1 13 0;
#X connect 11 2 9 0;
#X connect 12 0 7 0;
#X connect 12 1 10 0;
#X connect 12 2 8 0;
#X connect 13 0 10 0;
#X connect 17 0 6 0;
#X connect 18 0 23 0;
#X connect 21 0 18 0;
#X connect 22 0 19 0;
#X connect 22 0 20 0;
#X connect 23 0 22 0;
#X restore 410 409 pd voice_plus_quindar_tones;
#X obj 473 49 r UNIT_OSC;
#X obj 473 76 routeOSC /pd;
#X text 414 387 voice comm;
#X obj 6 77 tgl 20 0 empty \$0-auto arm 0 -6 0 10 -261234 -1 -1 0 1
;
#N canvas 656 502 364 177 vu_meters 0;
#X obj 19 148 s \$0-vu_l;
#X obj 208 145 s \$0-vu_r;
#X obj 18 41 inlet~;
#X obj 207 44 inlet~;
#X obj 208 74 env~ 8192;
#X obj 19 73 env~ 8192;
#X obj 93 57 switch~;
#X obj 93 28 r \$0-vu-control;
#X msg 154 55 0;
#X obj 19 104 - 100;
#X obj 208 105 - 100;
#X connect 2 0 5 0;
#X connect 3 0 4 0;
#X connect 4 0 10 0;
#X connect 5 0 9 0;
#X connect 7 0 6 0;
#X connect 7 0 8 0;
#X connect 8 0 9 0;
#X connect 8 0 10 0;
#X connect 9 0 0 0;
#X connect 10 0 1 0;
#X restore 224 102 pd vu_meters;
#X obj 50 20 vu 30 120 \$0-vu_l empty -1 -8 0 10 -66577 -1 0 0;
#X obj 82 20 vu 30 120 \$0-vu_r empty -1 -8 0 10 -66577 -1 0 0;
#X obj 115 18 vfad_scale -1;
#N canvas 0 22 356 365 rec_flash 0;
#X msg 55 -2 1;
#X obj 78 57 \$0;
#X obj 33 32 t f b;
#X obj 33 83 pack f f;
#X obj 33 -111 metro 500;
#X obj 33 -59 sel 0 1;
#X text 66 -23 red;
#X text 84 -3 grey;
#X msg 33 -26 13;
#X obj 122 -111 sel 0;
#X obj 33 -170 inlet;
#X text 36 -193 flashes record toggle when recording;
#X msg 33 112 \; \$2-record color \$1 13 -1;
#X obj 33 -84 rc-count 2;
#X connect 0 0 2 0;
#X connect 1 0 3 1;
#X connect 2 0 3 0;
#X connect 2 1 1 0;
#X connect 3 0 12 0;
#X connect 4 0 13 0;
#X connect 5 0 8 0;
#X connect 5 1 0 0;
#X connect 8 0 2 0;
#X connect 9 0 0 0;
#X connect 10 0 4 0;
#X connect 10 0 9 0;
#X connect 13 0 5 0;
#X restore 35 355 pd rec_flash;
#X obj 256 388 rc-record_mp3~;
#X obj 152 388 rc-record~;
#N canvas 0 22 450 300 toggle 0;
#X obj 55 188 s \$0-auto;
#X obj 98 97 loadbang;
#X msg 82 127 1;
#X text 124 188 tgl rec on play;
#X obj 55 97 sel 0;
#X msg 55 151 0;
#X obj 55 66 inlet;
#X msg 224 176 recording is \$1;
#X obj 224 203 s UNIT_MESSAGE;
#X connect 1 0 2 0;
#X connect 2 0 0 0;
#X connect 2 0 7 0;
#X connect 4 0 5 0;
#X connect 4 1 2 0;
#X connect 5 0 0 0;
#X connect 5 0 7 0;
#X connect 6 0 4 0;
#X connect 7 0 8 0;
#X restore 585 206 pd toggle automatic recording;
#N canvas 209 71 651 729 play 0;
#X obj 60 38 inlet;
#X text 6 3 plays notification samples on unitd events;
#X obj 337 103 sel 0 1;
#X obj 169 649 clip~ -0.5 0.5;
#X obj 60 64 routeOSC /insert /removal /startup /ready /shutdown /wii
;
#X msg 171 238 play samples/unit_sounds/you_are_robotcowboy.wav;
#X msg 115 168 play samples/unit_sounds/aw.wav;
#X msg 60 105 play samples/unit_sounds/oo.wav;
#X msg 226 300 play samples/unit_sounds/unit_ready.wav;
#X msg 282 372 play samples/unit_sounds/unit_signing_off.wav;
#X msg 337 449 play samples/unit_sounds/wiimote_disconnected.wav;
#X msg 356 520 play samples/unit_sounds/wiimote_connect.wav;
#X obj 171 263 rc-sfplay~;
#X obj 226 325 rc-sfplay~;
#X obj 282 396 rc-sfplay~;
#X obj 337 473 rc-sfplay~;
#X obj 356 544 rc-sfplay~;
#X obj 115 194 rc-sfplay~;
#X obj 60 128 rc-sfplay~;
#X obj 59 695 throw~ LEFT;
#X obj 149 695 throw~ RIGHT;
#X obj 58 614 rc-dist~_ 0;
#X obj 58 638 *~ 1;
#X obj 59 590 *~ 0.8;
#X connect 0 0 4 0;
#X connect 2 0 10 0;
#X connect 2 1 11 0;
#X connect 3 0 19 0;
#X connect 3 0 20 0;
#X connect 4 0 7 0;
#X connect 4 1 6 0;
#X connect 4 2 5 0;
#X connect 4 3 8 0;
#X connect 4 4 9 0;
#X connect 4 5 2 0;
#X connect 5 0 12 0;
#X connect 6 0 17 0;
#X connect 7 0 18 0;
#X connect 8 0 13 0;
#X connect 9 0 14 0;
#X connect 10 0 15 0;
#X connect 11 0 16 0;
#X connect 12 0 23 0;
#X connect 13 0 23 0;
#X connect 14 0 23 0;
#X connect 15 0 23 0;
#X connect 16 0 23 0;
#X connect 17 0 23 0;
#X connect 18 0 23 0;
#X connect 21 0 22 0;
#X connect 22 0 19 0;
#X connect 22 0 20 0;
#X connect 23 0 21 0;
#X restore 603 130 pd play sounds on rc-unitd events;
#N canvas 0 22 450 300 turn 0;
#X obj 66 37 loadbang;
#X obj -11 35 inlet;
#X msg -11 148 \; pd dsp \$1;
#X text 63 156 turn dsp on/off;
#X obj -11 63 sel 0;
#X msg -11 118 0;
#X msg 16 93 1;
#X msg 178 149 dsp is \$1;
#X obj 178 176 s UNIT_MESSAGE;
#X obj 66 64 delay 100;
#X text 137 45 wait a bit to make sure pd is ready to connect;
#X connect 0 0 9 0;
#X connect 1 0 4 0;
#X connect 4 0 5 0;
#X connect 4 1 6 0;
#X connect 5 0 2 0;
#X connect 5 0 7 0;
#X connect 6 0 2 0;
#X connect 6 0 7 0;
#X connect 7 0 8 0;
#X connect 9 0 6 0;
#X restore 538 232 pd turn dsp on/off;
#N canvas 0 22 450 300 play 0;
#X obj 40 26 inlet;
#X obj 39 188 clip~ -0.5 0.5;
#X obj 40 161 rc-dist~_ 0.4;
#X msg 40 78 play \$1;
#X obj 40 52 symbol;
#X obj 39 138 *~ 0.35;
#X obj 40 104 rc-sfplay~;
#X msg 182 75 playing \$1;
#X obj 182 101 s UNIT_MESSAGE;
#X obj 39 221 throw~ LEFT;
#X obj 129 221 throw~ RIGHT;
#X connect 0 0 4 0;
#X connect 1 0 9 0;
#X connect 1 0 10 0;
#X connect 2 0 1 0;
#X connect 3 0 6 0;
#X connect 4 0 3 0;
#X connect 4 0 7 0;
#X connect 5 0 2 0;
#X connect 6 0 5 0;
#X connect 7 0 8 0;
#X restore 632 182 pd play specific sound;
#X obj 538 156 route dsp recording play;
#X obj 473 103 routeOSC /transport /audio /unitd;
#X obj 473 259 route start stop done;
#X msg 473 291 1;
#X msg 514 292 0;
#X obj 59 157 s \$0-rec-armed;
#N canvas 4 46 450 300 send 0;
#X obj 142 142 spigot;
#X obj 175 80 sel 1 0;
#X msg 175 109 1;
#X msg 204 109 0;
#X text 237 89 tgl rec on play;
#X obj 175 52 r \$0-rec-armed;
#X obj 142 169 s \$0-record;
#X obj 142 26 inlet;
#X connect 0 0 6 0;
#X connect 1 0 2 0;
#X connect 1 1 3 0;
#X connect 2 0 0 1;
#X connect 3 0 0 1;
#X connect 5 0 1 0;
#X connect 7 0 0 0;
#X restore 473 318 pd send if rec is armed;
#X obj 193 46 catch~ LEFT;
#X obj 340 50 catch~ RIGHT;
#X obj 30 77 tgl 15 0 empty empty vu 1 -7 0 10 -262130 -1 -1 1 1;
#X obj 84 181 s \$0-vu-control;
#X connect 0 0 24 0;
#X connect 0 1 23 0;
#X connect 1 0 0 0;
#X connect 4 0 2 1;
#X connect 4 0 23 2;
#X connect 4 0 24 2;
#X connect 4 0 18 1;
#X connect 5 0 2 0;
#X connect 5 0 24 1;
#X connect 5 0 23 1;
#X connect 5 0 18 0;
#X connect 8 0 1 0;
#X connect 11 0 12 0;
#X connect 12 0 22 0;
#X connect 12 0 0 1;
#X connect 12 1 0 1;
#X connect 14 0 15 0;
#X connect 15 0 30 0;
#X connect 17 0 34 0;
#X connect 29 0 27 0;
#X connect 29 1 25 0;
#X connect 29 2 28 0;
#X connect 30 0 31 0;
#X connect 30 1 29 0;
#X connect 30 2 26 0;
#X connect 31 0 32 0;
#X connect 31 1 33 0;
#X connect 31 2 33 0;
#X connect 32 0 35 0;
#X connect 33 0 35 0;
#X connect 36 0 5 0;
#X connect 37 0 4 0;
#X connect 38 0 39 0;
#X coords 0 -1 1 1 135 148 1 0 0;
#X restore 74 -8 pd audio;
#N canvas 137 216 965 526 playlist 0;
#X obj 176 75 openpanel;
#X obj 1 16 cnv 15 160 118 empty empty empty 20 12 0 14 -191407 -66577
0;
#X obj 5 33 tgl 30 0 empty \$0-play play -1 -6 0 10 -225271 -24198
-1 0 1;
#X obj 108 48 bng 15 250 50 0 empty empty load -4 -6 0 10 -203904 -1
-1;
#X obj 75 43 bng 20 250 50 0 empty \$0-next next -1 -6 0 10 -261682
-1 -1;
#X symbolatom 4 69 21 0 0 0 - #0-showpatch -;
#X obj 287 39 key;
#X obj 287 65 sel 32;
#X text 314 37 manual cue via spacebar;
#X obj 287 95 spigot;
#X obj 145 19 tgl 10 0 empty empty space -28 4 0 8 -261234 -1 -1 0
1;
#N canvas 1039 82 443 474 playlist 0;
#X text 220 427 patchname out;
#X obj 38 53 inlet;
#X text 82 53 bang to load next patch;
#X floatatom 38 390 5 0 0 0 - - -;
#X obj 38 363 route float;
#X text 15 15 the playlist patches are managed by a coll;
#X obj 71 339 s \$0-list_pos;
#X msg 85 286 open;
#X text 32 410 length;
#X obj 110 427 s \$0-patchname;
#X obj 38 312 coll;
#C restore;
#X msg 80 234 read \$1;
#X text 216 396 get path relative to playlist;
#N canvas 644 483 397 291 append_path 0;
#X obj 53 24 inlet patchname in;
#X obj 218 27 inlet path from playlist;
#X obj 158 234 outlet patch with path;
#X obj 218 55 splitfilename;
#X obj 53 136 symbol;
#X obj 53 195 mergefilename /;
#X obj 53 169 pack s s;
#X obj 53 96 t b a;
#N canvas 1059 127 443 378 rel_or_abs_path 0;
#X msg 184 109 1;
#X obj 100 153 demux 0 1;
#X msg 146 108 0;
#X obj 100 -78 t a a b;
#X text 214 109 path begins with '/' or 'C';
#X obj 151 183 outlet absolute;
#X obj 100 219 outlet relative;
#X obj 100 -116 inlet;
#X text 173 -101 determines absolute or relative path;
#X obj 184 -55 list trim;
#X msg 264 -25 symbol;
#X obj 184 0 s2l;
#X obj 184 -31 symbol;
#X obj 184 80 sel /;
#X obj 253 80 sel C;
#X obj 184 28 list split 2;
#X obj 184 54 list split 1;
#X text 318 -24 empty symbol;
#X obj 264 -50 loadbang;
#X connect 0 0 1 1;
#X connect 1 0 6 0;
#X connect 1 1 5 0;
#X connect 2 0 1 1;
#X connect 3 0 1 0;
#X connect 3 1 9 0;
#X connect 3 2 2 0;
#X connect 7 0 3 0;
#X connect 9 0 12 0;
#X connect 10 0 11 1;
#X connect 11 0 15 0;
#X connect 12 0 11 0;
#X connect 13 0 0 0;
#X connect 14 0 0 0;
#X connect 15 0 16 0;
#X connect 16 0 13 0;
#X connect 16 1 14 0;
#X connect 18 0 10 0;
#X restore 53 60 pd rel_or_abs_path;
#X connect 0 0 8 0;
#X connect 1 0 3 0;
#X connect 3 0 4 1;
#X connect 4 0 6 0;
#X connect 5 0 2 0;
#X connect 6 0 5 0;
#X connect 7 0 4 0;
#X connect 7 1 6 1;
#X connect 8 0 7 0;
#X connect 8 1 2 0;
#X restore 110 395 pd append_path;
#X text 130 93 absolute path;
#X obj 131 113 r \$0-playlist;
#X obj 85 262 r \$0-edit-list;
#X obj 205 206 symbol;
#X obj 213 240 splitfilename;
#X obj 301 267 s \$0-showplaylist;
#X obj 325 215 loadbang;
#X msg 325 239 symbol empty;
#X obj 131 138 route close;
#X msg 77 198 clear;
#X msg 38 107 1;
#X obj 38 82 route home;
#X connect 1 0 25 0;
#X connect 4 0 3 0;
#X connect 4 1 13 0;
#X connect 7 0 10 0;
#X connect 10 0 4 0;
#X connect 10 1 6 0;
#X connect 11 0 10 0;
#X connect 13 0 9 0;
#X connect 15 0 22 0;
#X connect 16 0 7 0;
#X connect 17 0 11 0;
#X connect 17 0 13 1;
#X connect 17 0 18 0;
#X connect 18 1 19 0;
#X connect 20 0 21 0;
#X connect 21 0 19 0;
#X connect 22 0 23 0;
#X connect 22 0 21 0;
#X connect 22 1 17 0;
#X connect 23 0 10 0;
#X connect 24 0 10 0;
#X connect 25 0 24 0;
#X connect 25 1 10 0;
#X restore 229 412 pd playlist;
#N canvas 438 110 383 297 load_sound 0;
#X obj 155 38 inlet;
#X msg 155 83 1;
#X obj 56 83 loadbang;
#X text 18 15 play a sound when loading the patch;
#X obj 165 231 clip~ -0.5 0.5;
#X obj 155 60 t b b;
#X msg 217 86 0;
#X msg 56 107 open samples/unit_sounds/bang.wav;
#X obj 164 181 rc-dist~_ 0.4;
#X obj 56 141 rc-sfplay~;
#X obj 164 158 *~ 0.25;
#X obj 165 206 *~ 0.4;
#X obj 165 258 throw~ LEFT;
#X obj 247 258 throw~ RIGHT;
#X obj 56 201 rc-throw~;
#X obj 56 176 *~ 0.7;
#X connect 0 0 5 0;
#X connect 1 0 9 0;
#X connect 2 0 7 0;
#X connect 4 0 12 0;
#X connect 4 0 13 0;
#X connect 5 0 1 0;
#X connect 5 1 6 0;
#X connect 6 0 9 0;
#X connect 7 0 9 0;
#X connect 8 0 11 0;
#X connect 9 0 15 0;
#X connect 10 0 8 0;
#X connect 11 0 4 0;
#X connect 15 0 14 0;
#X restore 248 383 pd load_sound;
#X text 357 122 send cue out;
#X obj 287 120 s \$0-play;
#X floatatom 27 115 3 0 99 0 pos #0-list_pos -;
#X obj 140 115 bng 15 250 50 0 \$0-edit-list empty edit -25 7 0 10
-162280 -33289 -1;
#X obj 267 359 s \$0-load;
#X text 339 359 stop rec on load;
#X obj 287 310 s \$0-play;
#X text 359 312 stop play on load;
#X msg 287 287 0;
#X obj 287 239 f 0;
#X obj 287 264 sel 1;
#X text 347 383 play the loading sound;
#X text 312 413 load the next song;
#X msg 267 335 bang;
#X obj 46 43 bng 20 250 50 0 empty \$0-prev prev -1 -6 0 10 -204800
-1 -1;
#X obj 97 115 bng 15 250 50 0 empty empty ld_list -44 7 0 10 -66577
-33289 -1;
#X obj 14 340 r \$0-patchname;
#X obj 176 119 s \$0-patchname;
#X msg 14 475 Loading Patch -> \$1;
#X obj 36 452 s \$0-showpatch;
#X text 149 452 to gui;
#X obj 229 212 t a b b b;
#X obj 534 98 r UNIT_OSC;
#X obj 534 128 routeOSC /pd;
#X obj 534 463 s \$0-patchname;
#X obj 534 408 route patch playlist;
#X obj 744 289 s \$0-play;
#X obj 773 264 s \$0-prev;
#X obj 810 240 s \$0-next;
#X msg 773 218 bang;
#X msg 810 218 bang;
#X obj 592 435 s \$0-playlist;
#X obj 97 145 openpanel;
#X obj 97 170 s \$0-playlist;
#N canvas 50 52 527 498 button_box 0;
#X obj 29 344 sel 1;
#X obj 235 115 sel 1;
#X text 275 116 big button down;
#X text 258 344 red button down;
#X text 288 59 buttons from buttonbox;
#X obj 29 257 speedlim 500;
#X obj 235 151 s \$0-play;
#X msg 104 66 1;
#X text 308 258 try not to load too quickly;
#X obj 217 344 sel 1;
#X obj 217 255 speedlim 500;
#X text 68 345 white button down;
#X msg 29 65 1;
#X obj 193 82 route 3 0 1;
#X obj 29 23 inlet prev;
#X obj 104 24 inlet next;
#X msg 217 374 next;
#X msg 29 373 prev;
#X obj 217 464 outlet to playlist;
#X text 280 82 white button \, red button \, big button;
#N canvas 1079 567 450 347 timers 0;
#X obj 224 18 timer;
#X obj 273 18 timer;
#X obj 254 51 moses 50;
#X floatatom 257 83 5 0 0 0 - - -;
#X obj 118 -104 inlet;
#X obj 228 -98 inlet;
#X obj 118 -77 sel 1;
#X obj 228 -74 sel 1;
#X msg 106 5 symbol prev;
#X msg 122 35 symbol next;
#X obj 67 70 symbol;
#X obj 118 -53 t b b b;
#X obj 228 -50 t b b b;
#X obj 127 148 print;
#X msg 233 132 reset;
#X obj 32 28 delay 50;
#X msg 129 113 1;
#X msg 164 115 2;
#X msg 198 118 3;
#X connect 0 0 2 0;
#X connect 0 0 15 0;
#X connect 1 0 2 0;
#X connect 1 0 15 0;
#X connect 2 0 3 0;
#X connect 2 0 18 0;
#X connect 3 0 14 0;
#X connect 4 0 6 0;
#X connect 5 0 7 0;
#X connect 6 0 11 0;
#X connect 7 0 12 0;
#X connect 8 0 10 1;
#X connect 9 0 10 1;
#X connect 9 0 17 0;
#X connect 10 0 13 0;
#X connect 11 1 8 0;
#X connect 11 2 1 1;
#X connect 11 2 0 0;
#X connect 12 0 16 0;
#X connect 12 1 9 0;
#X connect 12 2 1 0;
#X connect 12 2 0 1;
#X connect 14 0 13 0;
#X connect 15 0 10 0;
#X connect 16 0 13 0;
#X connect 17 0 13 0;
#X connect 18 0 13 0;
#X restore 130 232 pd timers;
#X obj 193 56 r /bbox/button;
#X obj 304 377 r \$0-home;
#X text 359 401 goto first patch;
#X msg 304 403 home;
#X connect 0 0 17 0;
#X connect 1 0 6 0;
#X connect 5 0 0 0;
#X connect 7 0 10 0;
#X connect 9 0 16 0;
#X connect 10 0 9 0;
#X connect 12 0 5 0;
#X connect 13 0 5 0;
#X connect 13 1 10 0;
#X connect 13 2 1 0;
#X connect 14 0 12 0;
#X connect 15 0 7 0;
#X connect 16 0 18 0;
#X connect 17 0 18 0;
#X connect 21 0 13 0;
#X connect 22 0 24 0;
#X connect 24 0 18 0;
#X restore 229 165 pd button_box;
#N canvas 0 22 450 300 /pd/transport 0;
#X obj 139 46 inlet;
#X obj 139 78 sel 0;
#X msg 139 126 stop;
#X msg 166 104 start;
#X obj 166 227 s UNIT_OSC;
#X msg 166 197 /pd/transport \$1;
#X obj 166 173 symbol;
#X obj 56 226 s UNIT_MESSAGE;
#X msg 56 201 transport \$1;
#X connect 0 0 1 0;
#X connect 1 0 2 0;
#X connect 1 1 3 0;
#X connect 2 0 6 0;
#X connect 3 0 6 0;
#X connect 5 0 4 0;
#X connect 6 0 5 0;
#X connect 6 0 8 0;
#X connect 8 0 7 0;
#X restore 24 223 pd /pd/transport start/stop;
#X obj 5 180 t a a a;
#X symbolatom 5 92 21 0 0 0 - #0-showplaylist -;
#X obj 606 328 route patch playlist;
#X obj 606 383 s \$0-patchname;
#X msg 606 356 close;
#X obj 14 425 rc-openclose;
#X msg 744 247 0;
#X obj 137 48 bng 15 250 50 0 empty empty close -6 -6 0 10 -262130
-1 -1;
#X msg 195 96 close;
#X obj 14 367 route close;
#X msg 14 396 close;
#X obj 117 398 loadbang;
#X msg 117 426 symbol unnamed;
#X obj 534 154 routeOSC /load /unload /transport;
#X obj 534 436 symbol;
#X obj 703 383 s \$0-playlist;
#X msg 703 357 close;
#X msg 688 252 set \$1;
#X msg 664 220 1;
#X msg 700 220 0;
#N canvas 190 100 356 365 play_flash 0;
#X obj 78 57 \$0;
#X obj 33 32 t f b;
#X obj 33 83 pack f f;
#X obj 33 -111 metro 500;
#X obj 33 -59 sel 0 1;
#X obj 122 -111 sel 0;
#X obj 33 -170 inlet;
#X msg 33 -26 16;
#X text 66 -23 green;
#X text 85 -3 light green;
#X msg 55 -2 6;
#X msg 33 112 \; \$2-play color \$1 16 -1;
#X text 85 -165 flashes play toggle when playing;
#X obj 33 -84 rc-count 2;
#X connect 0 0 2 1;
#X connect 1 0 2 0;
#X connect 1 1 0 0;
#X connect 2 0 11 0;
#X connect 3 0 13 0;
#X connect 4 0 7 0;
#X connect 4 1 10 0;
#X connect 5 0 10 0;
#X connect 6 0 3 0;
#X connect 6 0 5 0;
#X connect 7 0 1 0;
#X connect 10 0 1 0;
#X connect 13 0 4 0;
#X restore 5 280 pd play_flash;
#X obj 640 289 s \$0-play-flash;
#X obj 30 250 r \$0-play-flash;
#X obj 664 191 route start stop done prev next home;
#X msg 882 219 bang;
#X obj 882 241 s \$0-home;
#X obj 14 500 s UNIT_MESSAGE;
#X connect 0 0 30 0;
#X connect 2 0 49 0;
#X connect 3 0 0 0;
#X connect 4 0 47 1;
#X connect 6 0 7 0;
#X connect 7 0 9 0;
#X connect 9 0 14 0;
#X connect 10 0 9 1;
#X connect 21 0 19 0;
#X connect 22 0 23 0;
#X connect 23 0 21 0;
#X connect 26 0 17 0;
#X connect 27 0 47 0;
#X connect 28 0 45 0;
#X connect 29 0 58 0;
#X connect 31 0 75 0;
#X connect 34 0 11 0;
#X connect 34 1 12 0;
#X connect 34 2 26 0;
#X connect 34 3 22 0;
#X connect 35 0 36 0;
#X connect 36 0 62 0;
#X connect 38 0 63 0;
#X connect 38 1 44 0;
#X connect 42 0 40 0;
#X connect 43 0 41 0;
#X connect 45 0 46 0;
#X connect 47 0 34 0;
#X connect 49 0 69 0;
#X connect 49 1 48 0;
#X connect 49 2 22 1;
#X connect 51 0 53 0;
#X connect 51 1 53 0;
#X connect 51 1 65 0;
#X connect 53 0 52 0;
#X connect 54 0 31 0;
#X connect 54 0 32 0;
#X connect 55 0 39 0;
#X connect 56 0 57 0;
#X connect 57 0 30 0;
#X connect 58 0 59 0;
#X connect 58 0 61 0;
#X connect 58 1 54 0;
#X connect 59 0 54 0;
#X connect 60 0 61 0;
#X connect 61 0 32 0;
#X connect 62 0 38 0;
#X connect 62 1 51 0;
#X connect 62 2 72 0;
#X connect 63 0 37 0;
#X connect 65 0 64 0;
#X connect 66 0 39 0;
#X connect 67 0 66 0;
#X connect 67 0 70 0;
#X connect 68 0 66 0;
#X connect 68 0 70 0;
#X connect 71 0 69 0;
#X connect 72 0 67 0;
#X connect 72 1 68 0;
#X connect 72 2 55 0;
#X connect 72 3 42 0;
#X connect 72 4 43 0;
#X connect 72 5 73 0;
#X connect 73 0 74 0;
#X coords 0 -1 1 1 162 135 1 0 0;
#X restore -100 -10 pd playlist;
#N canvas 475 342 535 354 connections 0;
#X text 125 96 OSC in;
#X obj 11 96 udpreceive 8880;
#X obj 11 122 unpackOSC;
#X text 90 324 global send to patches;
#X obj 11 324 s UNIT_OSC;
#X obj 23 146 routeOSC /pd;
#X text 159 218 button box;
#X obj 1 14 cnv 15 160 30 empty empty empty 20 12 0 14 -191407 -66577
0;
#X obj 42 23 tgl 15 0 empty \$0-visual0 0 17 7 0 10 -204786 -1 -1 0
1;
#X obj 109 23 tgl 15 0 empty \$0-debug debug 17 7 0 10 -261234 -1 -1
0 1;
#N canvas 361 177 339 205 PD_RECV 0;
#X obj 42 147 s pd;
#N canvas 0 22 450 300 debug 0;
#X obj 87 102 inlet;
#X obj 87 225 outlet;
#X obj 118 158 spigot;
#X obj 118 187 print debug_PD_RECV;
#X obj 151 133 r \$0-debug-con;
#X connect 0 0 1 0;
#X connect 0 0 2 0;
#X connect 2 0 3 0;
#X connect 4 0 2 1;
#X restore 42 62 pd debug;
#X obj 42 35 netreceive 3333 1;
#X obj 79 147 outlet;
#X obj 42 90 route pd unit;
#X obj 117 122 print UNIT-MESSAGE: PD_RECV ignored;
#X connect 1 0 4 0;
#X connect 2 0 1 0;
#X connect 4 0 0 0;
#X connect 4 1 3 0;
#X connect 4 2 5 0;
#X restore 32 294 pd PD_RECV;
#X text 194 19 ports;
#N canvas 0 22 450 469 /keyboard 0;
#X floatatom 141 100 5 0 0 0 - - -;
#X obj 34 27 inlet;
#X obj 34 58 routeOSC /keyboard;
#X obj 34 208 bng 15 250 50 0 empty empty empty 17 7 0 10 -262144 -1
-1;
#N canvas 229 326 413 458 timers 0;
#X obj 56 128 timer;
#X obj 105 128 timer;
#X obj 163 132 timer;
#X obj 212 132 timer;
#X obj 40 39 inlet;
#X obj 173 37 inlet;
#X obj 287 38 inlet;
#X obj 168 429 outlet;
#X obj 181 170 moses 50;
#X obj 79 169 moses 50;
#X obj 276 130 timer;
#X obj 325 130 timer;
#X obj 286 171 moses 50;
#X obj 79 256 timer;
#X obj 128 256 timer;
#X obj 100 293 moses 50;
#X obj 237 255 timer;
#X obj 286 255 timer;
#X obj 247 291 moses 50;
#X obj 138 364 timer;
#X obj 187 364 timer;
#X obj 168 397 moses 50;
#X msg 79 197 bang;
#X msg 181 197 bang;
#X msg 286 198 bang;
#X msg 100 320 bang;
#X msg 247 318 bang;
#X connect 0 0 9 0;
#X connect 1 0 9 0;
#X connect 2 0 8 0;
#X connect 3 0 8 0;
#X connect 4 0 0 0;
#X connect 4 0 1 1;
#X connect 4 0 2 0;
#X connect 4 0 3 1;
#X connect 5 0 0 1;
#X connect 5 0 1 0;
#X connect 5 0 10 0;
#X connect 5 0 11 1;
#X connect 6 0 2 1;
#X connect 6 0 3 0;
#X connect 6 0 10 1;
#X connect 6 0 11 0;
#X connect 8 0 23 0;
#X connect 9 0 22 0;
#X connect 10 0 12 0;
#X connect 11 0 12 0;
#X connect 12 0 24 0;
#X connect 13 0 15 0;
#X connect 14 0 15 0;
#X connect 15 0 25 0;
#X connect 16 0 18 0;
#X connect 17 0 18 0;
#X connect 18 0 26 0;
#X connect 19 0 21 0;
#X connect 20 0 21 0;
#X connect 21 0 7 0;
#X connect 22 0 13 0;
#X connect 22 0 14 1;
#X connect 23 0 13 1;
#X connect 23 0 14 0;
#X connect 23 0 16 0;
#X connect 23 0 17 1;
#X connect 24 0 17 0;
#X connect 24 0 16 1;
#X connect 25 0 19 0;
#X connect 25 0 20 1;
#X connect 26 0 19 1;
#X connect 26 0 20 0;
#X restore 34 181 pd timers;
#X text 138 146 ctrl \, alt \, q;
#X obj 240 208 bng 15 250 50 0 empty empty empty 17 7 0 10 -262144
-1 -1;
#N canvas 229 326 413 458 timers 0;
#X obj 56 128 timer;
#X obj 105 128 timer;
#X obj 163 132 timer;
#X obj 212 132 timer;
#X obj 40 39 inlet;
#X obj 173 37 inlet;
#X obj 287 38 inlet;
#X obj 168 429 outlet;
#X obj 181 170 moses 50;
#X obj 79 169 moses 50;
#X obj 276 130 timer;
#X obj 325 130 timer;
#X obj 286 171 moses 50;
#X obj 79 256 timer;
#X obj 128 256 timer;
#X obj 100 293 moses 50;
#X obj 237 255 timer;
#X obj 286 255 timer;
#X obj 247 291 moses 50;
#X obj 138 364 timer;
#X obj 187 364 timer;
#X obj 168 397 moses 50;
#X msg 79 197 bang;
#X msg 181 197 bang;
#X msg 286 198 bang;
#X msg 100 320 bang;
#X msg 247 318 bang;
#X connect 0 0 9 0;
#X connect 1 0 9 0;
#X connect 2 0 8 0;
#X connect 3 0 8 0;
#X connect 4 0 0 0;
#X connect 4 0 1 1;
#X connect 4 0 2 0;
#X connect 4 0 3 1;
#X connect 5 0 0 1;
#X connect 5 0 1 0;
#X connect 5 0 10 0;
#X connect 5 0 11 1;
#X connect 6 0 2 1;
#X connect 6 0 3 0;
#X connect 6 0 10 1;
#X connect 6 0 11 0;
#X connect 8 0 23 0;
#X connect 9 0 22 0;
#X connect 10 0 12 0;
#X connect 11 0 12 0;
#X connect 12 0 24 0;
#X connect 13 0 15 0;
#X connect 14 0 15 0;
#X connect 15 0 25 0;
#X connect 16 0 18 0;
#X connect 17 0 18 0;
#X connect 18 0 26 0;
#X connect 19 0 21 0;
#X connect 20 0 21 0;
#X connect 21 0 7 0;
#X connect 22 0 13 0;
#X connect 22 0 14 1;
#X connect 23 0 13 1;
#X connect 23 0 14 0;
#X connect 23 0 16 0;
#X connect 23 0 17 1;
#X connect 24 0 17 0;
#X connect 24 0 16 1;
#X connect 25 0 19 0;
#X connect 25 0 20 1;
#X connect 26 0 19 1;
#X connect 26 0 20 0;
#X restore 240 181 pd timers;
#X obj 34 146 sel 50 52 113;
#X obj 240 152 sel 50 52 109;
#X connect 0 0 8 0;
#X connect 0 0 9 0;
#X connect 1 0 2 0;
#X connect 2 0 0 0;
#X connect 4 0 3 0;
#X connect 7 0 6 0;
#X connect 8 0 4 0;
#X connect 8 1 4 1;
#X connect 8 2 4 2;
#X connect 9 0 7 0;
#X connect 9 1 7 1;
#X connect 9 2 7 2;
#X restore 178 193 pd /keyboard;
#X obj 23 170 routeOSC /devices;
#X obj 23 197 unit-joystick /bbox;
#X obj 189 266 r UNIT_MESSAGE;
#X text 184 247 pd term messages;
#X text 195 38 8880 - pd OSC in;
#X text 195 52 7770 - unitd in;
#X text 196 65 9990 - visual in;
#X text 196 78 3333 - pd pdsend in;
#X obj 72 23 tgl 15 0 empty \$0-visual1 1 17 7 0 10 -204786 -1 -1 0
1;
#X text 1 21 visual;
#N canvas 87 494 504 176 debug_OSC 0;
#X obj 27 108 spigot;
#X obj 27 28 r UNIT_OSC;
#X obj 60 67 inlet;
#X obj 349 137 s UNIT_MESSAGE;
#X obj 27 137 print UNIT-CONTROL OSC;
#X obj 177 110 spigot;
#X obj 177 137 print UNIT-CONTROL VISUAL;
#X obj 177 30 r UNIT_VISUAL;
#X msg 349 111 debug connections is \$1;
#X connect 0 0 4 0;
#X connect 1 0 0 0;
#X connect 2 0 0 1;
#X connect 2 0 8 0;
#X connect 2 0 5 1;
#X connect 5 0 6 0;
#X connect 7 0 5 0;
#X connect 8 0 3 0;
#X restore 109 56 pd debug_OSC;
#N canvas 187 284 639 320 UNIT_VISUAL 0;
#X msg 430 66 connect 192.168.1.255 9990;
#X text 428 43 broadcast to 192.168.1.*;
#X msg 431 111 connect 255.255.255.255 9990;
#X text 434 90 broadcast to everyone!;
#X obj 79 39 r UNIT_OSC;
#X obj 79 67 routeOSC /pd;
#X obj 79 93 routeOSC /visual;
#X obj 37 9 inlet;
#X obj 79 117 route connect disconnect;
#X text 210 56 /pd/visual connect 1 or 0 ip;
#X text 209 72 /pd/visual disconnect 0 or 1;
#X obj 79 152 route 0 1;
#X obj 241 157 route 0 1;
#X msg 241 194 disconnect;
#X msg 320 195 disconnect;
#N canvas 490 255 530 476 connection 0;
#X msg 57 181 disconnect;
#X obj 135 265 r UNIT_VISUAL;
#X obj 233 360 packOSC;
#X obj 295 362 tgl 15 0 empty empty empty 17 7 0 10 -262144 -1 -1 0
1;
#X obj 233 331 spigot;
#X msg 295 387 set \$1;
#X obj 0 130 sel 0;
#X text 292 329 connection 1;
#X text 293 149 local address and port;
#X obj 275 263 s UNIT_MESSAGE;
#X obj 275 236 list trim;
#X obj 275 209 list prepend visual udpsend 0;
#X obj 57 104 route disconnect;
#X msg 150 149 connect 127.0.0.1 9990;
#X obj 0 45 inlet;
#X obj 57 45 inlet;
#X obj 295 412 s \$0-visual0;
#X obj 57 437 udpsend;
#X obj 135 294 route connection1 connection0;
#X connect 0 0 11 0;
#X connect 0 0 17 0;
#X connect 1 0 18 0;
#X connect 2 0 17 0;
#X connect 3 0 4 1;
#X connect 3 0 5 0;
#X connect 4 0 2 0;
#X connect 5 0 16 0;
#X connect 6 0 0 0;
#X connect 6 1 13 0;
#X connect 10 0 9 0;
#X connect 11 0 10 0;
#X connect 12 0 0 0;
#X connect 12 1 13 0;
#X connect 13 0 11 0;
#X connect 13 0 17 0;
#X connect 14 0 6 0;
#X connect 15 0 12 0;
#X connect 17 0 3 0;
#X connect 18 1 4 0;
#X connect 18 2 4 0;
#X restore 37 273 pd connection 0 local;
#N canvas 725 303 619 594 connection 0;
#X msg 136 263 disconnect;
#X obj 198 351 r UNIT_VISUAL;
#X obj 282 457 packOSC;
#X obj 344 459 tgl 15 0 empty empty empty 17 7 0 10 -262144 -1 -1 0
1;
#X obj 282 428 spigot;
#X obj 71 122 sel 0;
#X msg 211 218 connect \$1 9990;
#X text 358 431 connection 2;
#X obj 211 188 symbol;
#X text 298 190 remote address and port;
#X msg 211 164 bang;
#X obj 360 346 s UNIT_MESSAGE;
#X obj 360 319 list trim;
#X obj 360 291 list prepend visual udpsend 1;
#X obj 136 29 inlet;
#X obj 136 66 route disconnect;
#X obj 71 43 inlet;
#X msg 344 485 set \$1;
#X obj 344 510 s \$0-visual1;
#X obj 229 122 t b a;
#X obj 229 95 symbol;
#X obj 136 539 udpsend;
#X obj 198 383 route connection0 connection1;
#X connect 0 0 13 0;
#X connect 0 0 21 0;
#X connect 1 0 22 0;
#X connect 2 0 21 0;
#X connect 3 0 4 1;
#X connect 3 0 17 0;
#X connect 4 0 2 0;
#X connect 5 0 0 0;
#X connect 5 1 10 0;
#X connect 6 0 13 0;
#X connect 6 0 21 0;
#X connect 8 0 6 0;
#X connect 10 0 8 0;
#X connect 12 0 11 0;
#X connect 13 0 12 0;
#X connect 14 0 15 0;
#X connect 15 0 0 0;
#X connect 15 1 20 0;
#X connect 16 0 5 0;
#X connect 17 0 18 0;
#X connect 19 0 10 0;
#X connect 19 1 8 1;
#X connect 20 0 19 0;
#X connect 21 0 3 0;
#X connect 22 1 4 0;
#X connect 22 2 4 0;
#X restore 179 272 pd connection 1 external;
#X obj 179 8 inlet;
#X connect 4 0 5 0;
#X connect 5 0 6 0;
#X connect 6 0 8 0;
#X connect 7 0 15 0;
#X connect 8 0 11 0;
#X connect 8 1 12 0;
#X connect 11 0 15 1;
#X connect 11 1 16 1;
#X connect 12 0 13 0;
#X connect 12 1 14 0;
#X connect 13 0 15 1;
#X connect 14 0 16 1;
#X connect 17 0 16 0;
#X restore 15 56 pd UNIT_VISUAL;
#X text 334 0 OSC addr structure;
#X text 340 68 /pd/transport prev;
#X text 340 212 /pd/unitd/sounds event;
#X text 339 50 /pd/transport next;
#X text 340 101 /pd/load patch patch.pd;
#X text 341 120 /pd/load playlist playlist.txt;
#X text 338 20 /pd/transport start or stop;
#X text 339 35 /pd/transport done;
#X text 340 230 /pd/audio dsp 1 or 0;
#X text 340 250 /pd/audio recording 1 or 0;
#X text 339 195 /pd/devices/devname event;
#X text 344 330 /pd/visual load sprites.xml;
#X text 340 84 /pd/transport home;
#X text 340 268 /pd/audio play soundfile.wav;
#X text 339 137 /pd/unload patch;
#X text 339 152 /pd/unload playlist;
#X text 342 311 /pd/visual disconnect 0 or 1;
#X text 340 293 /pd/visual connect 0 or 1 ip;
#X obj 189 296 print UNIT-CONTROL;
#X connect 1 0 2 0;
#X connect 2 0 5 0;
#X connect 2 0 4 0;
#X connect 5 0 13 0;
#X connect 8 0 24 0;
#X connect 9 0 23 0;
#X connect 10 0 4 0;
#X connect 13 0 12 0;
#X connect 13 0 14 0;
#X connect 15 0 43 0;
#X connect 21 0 24 1;
#X coords 0 -1 1 1 162 45 1 0 0;
#X restore -98 133 pd connections;
#N canvas 0 22 401 659 v3.5.0 0;
#X text 24 20 v2 - Consoles Afire Tour;
#X text 42 99 - reorganize patch into gui objects;
#X text 42 115 - add mp3 recording and switch;
#X text 23 42 v3 - record_triggering: use file.path.current;
#X text 41 57 - record_triggering: add 2 sec silence after stop \,
ignore buttons until 2 sec over \, play a sample when rec done;
#X text 42 82 - now cannot load if song is playing;
#X text 43 135 - change /pd/transport from "cue" to "start" "stop"
;
#X text 41 155 - "done" rec changed to "UNIT_DONE" and now only stops
transport;
#X text 23 190 v3.1 - updated sounds to from mac to flite \, added
wiimote sounds;
#X text 24 227 v3.2 - added record/play flash and vu meters;
#X text 48 243 - changed playlist control from counter to pure coll
;
#X text 49 261 - replaced pdmtl file.* with getdir and stripfilename
;
#X text 24 287 v3.3 - fixed dir bug with recorder;
#X text 55 324 - replaces hard samples with rc-sfplay~ (speeds load)
;
#X text 54 306 - added subdir loading;
#X text 25 346 v3.4 - now uses rc-openclose;
#X text 55 365 - load playlist files s now manual \, the playlist path
is appended to relative patch paths;
#X text 25 399 v3.4.1 - cleaned up patches \, centered around osc parsing
;
#X text 67 433 - added pd netrecieve to UNIT_OSC;
#X text 67 415 - cleaned ond expanded osc addr stucture;
#X text 26 453 v3.4.2 - added playlist loading \, sample playing over
osc;
#X text 69 475 - playlists and patches can now be cleared;
#X text 69 495 - playlist symbol in gui;
#X text 27 517 v3.4.3 - bug fix: added symbol patchname from OSC patch
load;
#X text 25 542 v3.4.4 - added play tgl and flash based from osc transport
;
#X text 69 561 - added next \, prev \, and home to osc transport;
#X text 70 580 - updated /pd/visual connection control;
#X text 40 603 v3.5 - added global 8 channel mixer;
#X text 70 622 - added global drummachine;
#X restore 152 203 pd v3.5.0;
#N canvas 663 441 357 290 cpu 0;
#X obj 154 86 t b b;
#X obj 154 113 cputime;
#X obj 154 136 int;
#X obj 154 191 * 0.1;
#X obj 1 14 cnv 15 133 30 empty empty empty 20 12 0 14 -191407 -66577
0;
#X obj 5 22 tgl 15 0 empty empty empty 17 7 0 10 -203904 -1 -1 0 1
;
#X floatatom 32 22 5 0 0 0 - - -;
#X floatatom 99 22 5 0 0 0 MAIV - -;
#X text 4 252 approximates the cpu load on the Xybernaut MAIV wearable
;
#X text 203 216 500 Mhz;
#X text 145 16 100 percent is really about 90;
#X obj 154 163 mavg 5;
#X obj 155 217 * 7.75;
#X obj 154 60 metro 250;
#X connect 0 0 1 0;
#X connect 0 1 1 1;
#X connect 1 0 2 0;
#X connect 2 0 11 0;
#X connect 3 0 6 0;
#X connect 3 0 12 0;
#X connect 5 0 13 0;
#X connect 11 0 3 0;
#X connect 12 0 7 0;
#X connect 13 0 0 0;
#X coords 0 -1 1 1 135 45 1 0 0;
#X restore 74 150 pd cpu load;
#N canvas 131 221 779 179 mixer 0;
#N canvas 80 301 422 312 DRUMS 0;
#N canvas 463 329 354 347 gain 0;
#X obj 21 296 outlet~;
#X obj 167 182 inlet~;
#X obj 22 264 *~ 0;
#X obj 222 183 inlet~;
#X obj 175 262 *~ 0;
#X obj 175 294 outlet~;
#X msg 113 107 0;
#X obj 94 80 sel 0 1;
#X obj 80 203 spigot;
#X obj 113 180 tgl 15 0 empty empty empty 17 7 0 10 -262144 -1 -1 1
1;
#X obj 50 102 t b b;
#X msg 77 127 1;
#X obj 50 29 loadbang;
#X obj 80 179 f 0;
#X obj -27 57 fadtodb;
#X obj -27 28 inlet amp;
#X obj 94 53 inlet mute;
#X floatatom -27 116 5 0 0 0 - - -;
#X obj -27 83 dbtorms;
#X connect 1 0 2 0;
#X connect 2 0 0 0;
#X connect 3 0 4 0;
#X connect 4 0 5 0;
#X connect 6 0 2 1;
#X connect 6 0 4 1;
#X connect 6 0 9 0;
#X connect 7 0 10 0;
#X connect 7 1 6 0;
#X connect 8 0 2 1;
#X connect 8 0 4 1;
#X connect 9 0 8 1;
#X connect 10 0 13 0;
#X connect 10 1 11 0;
#X connect 11 0 9 0;
#X connect 12 0 10 0;
#X connect 13 0 8 0;
#X connect 14 0 18 0;
#X connect 15 0 14 0;
#X connect 16 0 7 0;
#X connect 17 0 13 0;
#X connect 18 0 17 0;
#X restore 177 220 pd gain;
#N canvas 436 294 393 200 vu_meters 0;
#X obj 45 44 inlet~;
#X obj 219 47 inlet~;
#X obj 220 145 outlet;
#X obj 46 145 outlet;
#X obj 220 77 env~ 8192;
#X obj 46 76 env~ 8192;
#X obj 127 41 switch~;
#X obj 127 12 r \$0-vu-control;
#X msg 182 41 0;
#X obj 220 108 - 100;
#X obj 46 107 - 100;
#X connect 0 0 5 0;
#X connect 1 0 4 0;
#X connect 4 0 9 0;
#X connect 5 0 10 0;
#X connect 7 0 6 0;
#X connect 7 0 8 0;
#X connect 8 0 9 0;
#X connect 8 0 10 0;
#X connect 9 0 2 0;
#X connect 10 0 3 0;
#X restore 110 279 pd vu_meters;
#X obj 1 17 cnv 15 93 145 empty empty empty 20 12 0 14 -233017 -66577
0;
#X obj 8 36 vsl 30 121 0 120 0 0 empty empty empty 0 -9 0 10 -128992
-4034 -4034 8985 1;
#X obj 54 37 vu 15 120 empty empty -1 -8 0 10 -66577 -1 0 0;
#X obj 70 37 vu 15 120 empty empty -1 -8 0 10 -66577 -1 0 0;
#X obj 71 20 tgl 15 1 empty empty mute -25 7 0 10 -258113 -262144 -1
0 1;
#X obj 162 33 inlet;
#X obj 236 86 clip 0 1;
#X obj 162 58 route gain mute;
#X obj 40 34 vfad_scale -1;
#X obj 162 85 clip 0 120;
#X text 111 7 a stereo mixer channel with level \, vu \, and mute;
#N canvas 295 508 327 207 local 0;
#X obj 97 72 loadbang;
#X msg 39 120 89.85;
#X msg 39 74 set \$1;
#X obj 39 45 inlet;
#X obj 39 150 outlet;
#X connect 0 0 1 0;
#X connect 1 0 4 0;
#X connect 2 0 1 0;
#X connect 3 0 2 0;
#X restore -9 210 pd local state_save;
#X obj 217 175 catch~ DRUMS/right;
#X obj 205 33 r DRUMS;
#X obj 274 281 throw~ RIGHT;
#X obj 200 280 throw~ LEFT;
#X obj 202 149 catch~ DRUMS/left;
#X obj 162 109 dbtofad;
#X connect 0 0 1 0;
#X connect 0 0 17 0;
#X connect 0 1 1 1;
#X connect 0 1 16 0;
#X connect 1 0 4 0;
#X connect 1 1 5 0;
#X connect 3 0 0 0;
#X connect 3 0 13 0;
#X connect 6 0 0 1;
#X connect 7 0 9 0;
#X connect 8 0 6 0;
#X connect 9 0 11 0;
#X connect 9 1 8 0;
#X connect 11 0 19 0;
#X connect 13 0 3 0;
#X connect 14 0 0 3;
#X connect 15 0 9 0;
#X connect 18 0 0 2;
#X connect 19 0 3 0;
#X coords 0 -1 1 1 95 165 1 0 0;
#X restore -401 -75 pd DRUMS;
#N canvas 76 280 422 312 GUITAR 0;
#N canvas 459 308 354 347 gain 0;
#X obj 21 296 outlet~;
#X obj 167 182 inlet~;
#X obj 22 264 *~ 0;
#X obj 222 183 inlet~;
#X obj 175 262 *~ 0;
#X obj 175 294 outlet~;
#X msg 113 107 0;
#X obj 94 80 sel 0 1;
#X obj 80 203 spigot;
#X obj 113 180 tgl 15 0 empty empty empty 17 7 0 10 -262144 -1 -1 1
1;
#X obj 50 102 t b b;
#X msg 77 127 1;
#X obj 50 29 loadbang;
#X obj 80 179 f 0;
#X obj -27 57 fadtodb;
#X obj -27 28 inlet amp;
#X obj 94 53 inlet mute;
#X floatatom -27 116 5 0 0 0 - - -;
#X obj -27 83 dbtorms;
#X connect 1 0 2 0;
#X connect 2 0 0 0;
#X connect 3 0 4 0;
#X connect 4 0 5 0;
#X connect 6 0 2 1;
#X connect 6 0 4 1;
#X connect 6 0 9 0;
#X connect 7 0 10 0;
#X connect 7 1 6 0;
#X connect 8 0 2 1;
#X connect 8 0 4 1;
#X connect 9 0 8 1;
#X connect 10 0 13 0;
#X connect 10 1 11 0;
#X connect 11 0 9 0;
#X connect 12 0 10 0;
#X connect 13 0 8 0;
#X connect 14 0 18 0;
#X connect 15 0 14 0;
#X connect 16 0 7 0;
#X connect 17 0 13 0;
#X connect 18 0 17 0;
#X restore 177 220 pd gain;
#N canvas 436 294 393 200 vu_meters 0;
#X obj 45 44 inlet~;
#X obj 219 47 inlet~;
#X obj 220 145 outlet;
#X obj 46 145 outlet;
#X obj 220 77 env~ 8192;
#X obj 46 76 env~ 8192;
#X obj 128 42 switch~;
#X obj 128 13 r \$0-vu-control;
#X msg 179 42 0;
#X obj 46 107 - 100;
#X obj 220 108 - 100;
#X connect 0 0 5 0;
#X connect 1 0 4 0;
#X connect 4 0 10 0;
#X connect 5 0 9 0;
#X connect 7 0 6 0;
#X connect 7 0 8 0;
#X connect 8 0 9 0;
#X connect 8 0 10 0;
#X connect 9 0 3 0;
#X connect 10 0 2 0;
#X restore 110 279 pd vu_meters;
#X obj 1 17 cnv 15 93 145 empty empty empty 20 12 0 14 -233017 -66577
0;
#X obj 8 36 vsl 30 121 0 117 0 0 empty empty empty 0 -9 0 10 -128992
-4034 -4034 6100 1;
#X obj 54 37 vu 15 120 empty empty -1 -8 0 10 -66577 -1 0 0;
#X obj 70 37 vu 15 120 empty empty -1 -8 0 10 -66577 -1 0 0;
#X obj 71 20 tgl 15 1 empty empty mute -25 7 0 10 -258113 -262144 -1
0 1;
#X obj 162 33 inlet;
#X obj 236 86 clip 0 1;
#X obj 162 58 route gain mute;
#X obj 40 34 vfad_scale -1;
#X obj 162 85 clip 0 120;
#X text 111 7 a stereo mixer channel with level \, vu \, and mute;
#N canvas 291 487 327 207 local 0;
#X obj 97 72 loadbang;
#X msg 39 120 59.475;
#X msg 39 74 set \$1;
#X obj 39 45 inlet;
#X obj 39 150 outlet;
#X connect 0 0 1 0;
#X connect 1 0 4 0;
#X connect 2 0 1 0;
#X connect 3 0 2 0;
#X restore -9 210 pd local state_save;
#X obj 274 281 throw~ RIGHT;
#X obj 200 280 throw~ LEFT;
#X obj 205 33 r GUITAR;
#X obj 202 149 catch~ GUITAR/left;
#X obj 217 175 catch~ GUITAR/right;
#X obj 162 108 dbtofad;
#X connect 0 0 1 0;
#X connect 0 0 15 0;
#X connect 0 1 1 1;
#X connect 0 1 14 0;
#X connect 1 0 4 0;
#X connect 1 1 5 0;
#X connect 3 0 0 0;
#X connect 3 0 13 0;
#X connect 6 0 0 1;
#X connect 7 0 9 0;
#X connect 8 0 6 0;
#X connect 9 0 11 0;
#X connect 9 1 8 0;
#X connect 11 0 19 0;
#X connect 13 0 3 0;
#X connect 16 0 9 0;
#X connect 17 0 0 2;
#X connect 18 0 0 3;
#X connect 19 0 3 0;
#X coords 0 -1 1 1 95 165 1 0 0;
#X restore -306 -75 pd GUITAR;
#N canvas 76 280 422 312 VOX 0;
#N canvas 459 308 354 347 gain 0;
#X obj 21 296 outlet~;
#X obj 167 182 inlet~;
#X obj 22 264 *~ 0;
#X obj 222 183 inlet~;
#X obj 175 262 *~ 0;
#X obj 175 294 outlet~;
#X msg 113 107 0;
#X obj 94 80 sel 0 1;
#X obj 80 203 spigot;
#X obj 113 180 tgl 15 0 empty empty empty 17 7 0 10 -262144 -1 -1 1
1;
#X obj 50 102 t b b;
#X msg 77 127 1;
#X obj 50 29 loadbang;
#X obj 80 179 f 0;
#X obj -27 57 fadtodb;
#X obj -27 28 inlet amp;
#X obj 94 53 inlet mute;
#X floatatom -27 116 5 0 0 0 - - -;
#X obj -27 83 dbtorms;
#X connect 1 0 2 0;
#X connect 2 0 0 0;
#X connect 3 0 4 0;
#X connect 4 0 5 0;
#X connect 6 0 2 1;
#X connect 6 0 4 1;
#X connect 6 0 9 0;
#X connect 7 0 10 0;
#X connect 7 1 6 0;
#X connect 8 0 2 1;
#X connect 8 0 4 1;
#X connect 9 0 8 1;
#X connect 10 0 13 0;
#X connect 10 1 11 0;
#X connect 11 0 9 0;
#X connect 12 0 10 0;
#X connect 13 0 8 0;
#X connect 14 0 18 0;
#X connect 15 0 14 0;
#X connect 16 0 7 0;
#X connect 17 0 13 0;
#X connect 18 0 17 0;
#X restore 177 220 pd gain;
#N canvas 436 294 393 200 vu_meters 0;
#X obj 45 44 inlet~;
#X obj 219 47 inlet~;
#X obj 220 145 outlet;
#X obj 46 145 outlet;
#X obj 220 77 env~ 8192;
#X obj 46 76 env~ 8192;
#X obj 127 42 switch~;
#X obj 127 13 r \$0-vu-control;
#X msg 179 41 0;
#X obj 220 108 - 100;
#X obj 46 107 - 100;
#X connect 0 0 5 0;
#X connect 1 0 4 0;
#X connect 4 0 9 0;
#X connect 5 0 10 0;
#X connect 7 0 6 0;
#X connect 7 0 8 0;
#X connect 8 0 9 0;
#X connect 8 0 10 0;
#X connect 9 0 2 0;
#X connect 10 0 3 0;
#X restore 110 279 pd vu_meters;
#X obj 1 17 cnv 15 93 145 empty empty empty 20 12 0 14 -233017 -66577
0;
#X obj 8 36 vsl 30 121 0 117 0 0 empty empty empty 0 -9 0 10 -128992
-4034 -4034 6000 1;
#X obj 54 37 vu 15 120 empty empty -1 -8 0 10 -66577 -1 0 0;
#X obj 70 37 vu 15 120 empty empty -1 -8 0 10 -66577 -1 0 0;
#X obj 71 20 tgl 15 1 empty empty mute -25 7 0 10 -258113 -262144 -1
0 1;
#X obj 162 33 inlet;
#X obj 236 86 clip 0 1;
#X obj 162 58 route gain mute;
#X obj 40 34 vfad_scale -1;
#X obj 162 85 clip 0 120;
#X text 111 7 a stereo mixer channel with level \, vu \, and mute;
#N canvas 291 487 327 207 local 0;
#X obj 97 72 loadbang;
#X msg 39 120 58.5;
#X msg 39 74 set \$1;
#X obj 39 45 inlet;
#X obj 39 150 outlet;
#X connect 0 0 1 0;
#X connect 1 0 4 0;
#X connect 2 0 1 0;
#X connect 3 0 2 0;
#X restore -9 210 pd local state_save;
#X obj 274 281 throw~ RIGHT;
#X obj 200 280 throw~ LEFT;
#X obj 205 33 r VOX;
#X obj 202 149 catch~ VOX/left;
#X obj 217 175 catch~ VOX/right;
#X obj 162 108 fadtodb;
#X connect 0 0 1 0;
#X connect 0 0 15 0;
#X connect 0 1 1 1;
#X connect 0 1 14 0;
#X connect 1 0 4 0;
#X connect 1 1 5 0;
#X connect 3 0 0 0;
#X connect 3 0 13 0;
#X connect 6 0 0 1;
#X connect 7 0 9 0;
#X connect 8 0 6 0;
#X connect 9 0 11 0;
#X connect 9 1 8 0;
#X connect 11 0 19 0;
#X connect 13 0 3 0;
#X connect 16 0 9 0;
#X connect 17 0 0 2;
#X connect 18 0 0 3;
#X connect 19 0 3 0;
#X coords 0 -1 1 1 95 165 1 0 0;
#X restore -211 -75 pd VOX;
#N canvas 80 301 422 312 BASS 0;
#N canvas 463 329 354 347 gain 0;
#X obj 21 296 outlet~;
#X obj 167 182 inlet~;
#X obj 22 264 *~ 0;
#X obj 222 183 inlet~;
#X obj 175 262 *~ 0;
#X obj 175 294 outlet~;
#X msg 113 107 0;
#X obj 94 80 sel 0 1;
#X obj 80 203 spigot;
#X obj 113 180 tgl 15 0 empty empty empty 17 7 0 10 -262144 -1 -1 1
1;
#X obj 50 102 t b b;
#X msg 77 127 1;
#X obj 50 29 loadbang;
#X obj 80 179 f 0;
#X obj -27 57 fadtodb;
#X obj -27 28 inlet amp;
#X obj 94 53 inlet mute;
#X floatatom -27 116 5 0 0 0 - - -;
#X obj -27 83 dbtorms;
#X connect 1 0 2 0;
#X connect 2 0 0 0;
#X connect 3 0 4 0;
#X connect 4 0 5 0;
#X connect 6 0 2 1;
#X connect 6 0 4 1;
#X connect 6 0 9 0;
#X connect 7 0 10 0;
#X connect 7 1 6 0;
#X connect 8 0 2 1;
#X connect 8 0 4 1;
#X connect 9 0 8 1;
#X connect 10 0 13 0;
#X connect 10 1 11 0;
#X connect 11 0 9 0;
#X connect 12 0 10 0;
#X connect 13 0 8 0;
#X connect 14 0 18 0;
#X connect 15 0 14 0;
#X connect 16 0 7 0;
#X connect 17 0 13 0;
#X connect 18 0 17 0;
#X restore 177 220 pd gain;
#N canvas 436 294 393 200 vu_meters 0;
#X obj 45 44 inlet~;
#X obj 219 47 inlet~;
#X obj 220 145 outlet;
#X obj 46 145 outlet;
#X obj 220 77 env~ 8192;
#X obj 46 76 env~ 8192;
#X obj 130 43 switch~;
#X obj 130 14 r \$0-vu-control;
#X msg 181 43 0;
#X obj 220 108 - 100;
#X obj 46 107 - 100;
#X connect 0 0 5 0;
#X connect 1 0 4 0;
#X connect 4 0 9 0;
#X connect 5 0 10 0;
#X connect 7 0 6 0;
#X connect 7 0 8 0;
#X connect 8 0 9 0;
#X connect 8 0 10 0;
#X connect 9 0 2 0;
#X connect 10 0 3 0;
#X restore 110 279 pd vu_meters;
#X obj 1 17 cnv 15 93 145 empty empty empty 20 12 0 14 -233017 -66577
0;
#X obj 8 36 vsl 30 121 0 117 0 0 empty empty empty 0 -9 0 10 -128992
-4034 -4034 9000 1;
#X obj 54 37 vu 15 120 empty empty -1 -8 0 10 -66577 -1 0 0;
#X obj 70 37 vu 15 120 empty empty -1 -8 0 10 -66577 -1 0 0;
#X obj 71 20 tgl 15 1 empty empty mute -25 7 0 10 -258113 -262144 -1
0 1;
#X obj 162 33 inlet;
#X obj 236 86 clip 0 1;
#X obj 162 58 route gain mute;
#X obj 40 34 vfad_scale -1;
#X obj 162 85 clip 0 120;
#X text 111 7 a stereo mixer channel with level \, vu \, and mute;
#N canvas 291 487 327 207 local 0;
#X obj 97 72 loadbang;
#X msg 39 120 87.75;
#X msg 39 74 set \$1;
#X obj 39 45 inlet;
#X obj 39 150 outlet;
#X connect 0 0 1 0;
#X connect 1 0 4 0;
#X connect 2 0 1 0;
#X connect 3 0 2 0;
#X restore -9 210 pd local state_save;
#X obj 274 281 throw~ RIGHT;
#X obj 200 280 throw~ LEFT;
#X obj 205 33 r BASS;
#X obj 202 149 catch~ BASS/left;
#X obj 217 175 catch~ BASS/right;
#X obj 162 109 fadtodb;
#X connect 0 0 1 0;
#X connect 0 0 15 0;
#X connect 0 1 1 1;
#X connect 0 1 14 0;
#X connect 1 0 4 0;
#X connect 1 1 5 0;
#X connect 3 0 0 0;
#X connect 3 0 13 0;
#X connect 6 0 0 1;
#X connect 7 0 9 0;
#X connect 8 0 6 0;
#X connect 9 0 11 0;
#X connect 9 1 8 0;
#X connect 11 0 19 0;
#X connect 13 0 3 0;
#X connect 16 0 9 0;
#X connect 17 0 0 2;
#X connect 18 0 0 3;
#X connect 19 0 3 0;
#X coords 0 -1 1 1 95 165 1 0 0;
#X restore -116 -75 pd BASS;
#N canvas 76 280 422 312 LEAD 0;
#N canvas 459 308 354 347 gain 0;
#X obj 21 296 outlet~;
#X obj 167 182 inlet~;
#X obj 22 264 *~ 0;
#X obj 222 183 inlet~;
#X obj 175 262 *~ 0;
#X obj 175 294 outlet~;
#X msg 113 107 0;
#X obj 94 80 sel 0 1;
#X obj 80 203 spigot;
#X obj 113 180 tgl 15 0 empty empty empty 17 7 0 10 -262144 -1 -1 1
1;
#X obj 50 102 t b b;
#X msg 77 127 1;
#X obj 50 29 loadbang;
#X obj 80 179 f 0;
#X obj -27 57 fadtodb;
#X obj -27 28 inlet amp;
#X obj 94 53 inlet mute;
#X floatatom -27 116 5 0 0 0 - - -;
#X obj -27 83 dbtorms;
#X connect 1 0 2 0;
#X connect 2 0 0 0;
#X connect 3 0 4 0;
#X connect 4 0 5 0;
#X connect 6 0 2 1;
#X connect 6 0 4 1;
#X connect 6 0 9 0;
#X connect 7 0 10 0;
#X connect 7 1 6 0;
#X connect 8 0 2 1;
#X connect 8 0 4 1;
#X connect 9 0 8 1;
#X connect 10 0 13 0;
#X connect 10 1 11 0;
#X connect 11 0 9 0;
#X connect 12 0 10 0;
#X connect 13 0 8 0;
#X connect 14 0 18 0;
#X connect 15 0 14 0;
#X connect 16 0 7 0;
#X connect 17 0 13 0;
#X connect 18 0 17 0;
#X restore 177 220 pd gain;
#N canvas 436 294 393 200 vu_meters 0;
#X obj 45 44 inlet~;
#X obj 219 47 inlet~;
#X obj 220 145 outlet;
#X obj 46 145 outlet;
#X obj 220 77 env~ 8192;
#X obj 46 76 env~ 8192;
#X obj 133 44 switch~;
#X obj 133 15 r \$0-vu-control;
#X msg 185 43 0;
#X obj 46 107 - 100;
#X obj 220 108 - 100;
#X connect 0 0 5 0;
#X connect 1 0 4 0;
#X connect 4 0 10 0;
#X connect 5 0 9 0;
#X connect 7 0 6 0;
#X connect 7 0 8 0;
#X connect 8 0 9 0;
#X connect 8 0 10 0;
#X connect 9 0 3 0;
#X connect 10 0 2 0;
#X restore 110 279 pd vu_meters;
#X obj 1 17 cnv 15 93 145 empty empty empty 20 12 0 14 -233017 -66577
0;
#X obj 8 36 vsl 30 121 0 117 0 0 empty empty empty 0 -9 0 10 -128992
-4034 -4034 8400 1;
#X obj 54 37 vu 15 120 empty empty -1 -8 0 10 -66577 -1 0 0;
#X obj 70 37 vu 15 120 empty empty -1 -8 0 10 -66577 -1 0 0;
#X obj 71 20 tgl 15 1 empty empty mute -25 7 0 10 -258113 -262144 -1
0 1;
#X obj 162 33 inlet;
#X obj 236 86 clip 0 1;
#X obj 162 58 route gain mute;
#X obj 40 34 vfad_scale -1;
#X obj 162 85 clip 0 120;
#X text 111 7 a stereo mixer channel with level \, vu \, and mute;
#N canvas 291 487 327 207 local 0;
#X obj 97 72 loadbang;
#X msg 39 120 81.9;
#X msg 39 74 set \$1;
#X obj 39 45 inlet;
#X obj 39 150 outlet;
#X connect 0 0 1 0;
#X connect 1 0 4 0;
#X connect 2 0 1 0;
#X connect 3 0 2 0;
#X restore -9 210 pd local state_save;
#X obj 274 281 throw~ RIGHT;
#X obj 200 280 throw~ LEFT;
#X obj 202 149 catch~ LEAD/left;
#X obj 217 175 catch~ LEAD/right;
#X obj 205 33 r LEAD;
#X obj 162 109 fadtodb;
#X connect 0 0 1 0;
#X connect 0 0 15 0;
#X connect 0 1 1 1;
#X connect 0 1 14 0;
#X connect 1 0 4 0;
#X connect 1 1 5 0;
#X connect 3 0 0 0;
#X connect 3 0 13 0;
#X connect 6 0 0 1;
#X connect 7 0 9 0;
#X connect 8 0 6 0;
#X connect 9 0 11 0;
#X connect 9 1 8 0;
#X connect 11 0 19 0;
#X connect 13 0 3 0;
#X connect 16 0 0 2;
#X connect 17 0 0 3;
#X connect 18 0 9 0;
#X connect 19 0 3 0;
#X coords 0 -1 1 1 95 165 1 0 0;
#X restore -21 -75 pd LEAD;
#N canvas 76 280 422 312 CHAN8 0;
#N canvas 459 308 354 347 gain 0;
#X obj 21 296 outlet~;
#X obj 167 182 inlet~;
#X obj 22 264 *~ 0;
#X obj 222 183 inlet~;
#X obj 175 262 *~ 0;
#X obj 175 294 outlet~;
#X msg 113 107 0;
#X obj 94 80 sel 0 1;
#X obj 80 203 spigot;
#X obj 113 180 tgl 15 0 empty empty empty 17 7 0 10 -262144 -1 -1 1
1;
#X obj 50 102 t b b;
#X msg 77 127 1;
#X obj 50 29 loadbang;
#X obj 80 179 f 0;
#X obj -27 57 fadtodb;
#X obj -27 28 inlet amp;
#X obj 94 53 inlet mute;
#X floatatom -27 116 5 0 0 0 - - -;
#X obj -27 83 dbtorms;
#X connect 1 0 2 0;
#X connect 2 0 0 0;
#X connect 3 0 4 0;
#X connect 4 0 5 0;
#X connect 6 0 2 1;
#X connect 6 0 4 1;
#X connect 6 0 9 0;
#X connect 7 0 10 0;
#X connect 7 1 6 0;
#X connect 8 0 2 1;
#X connect 8 0 4 1;
#X connect 9 0 8 1;
#X connect 10 0 13 0;
#X connect 10 1 11 0;
#X connect 11 0 9 0;
#X connect 12 0 10 0;
#X connect 13 0 8 0;
#X connect 14 0 18 0;
#X connect 15 0 14 0;
#X connect 16 0 7 0;
#X connect 17 0 13 0;
#X connect 18 0 17 0;
#X restore 177 220 pd gain;
#N canvas 436 294 393 200 vu_meters 0;
#X obj 45 44 inlet~;
#X obj 219 47 inlet~;
#X obj 220 145 outlet;
#X obj 46 145 outlet;
#X obj 220 77 env~ 8192;
#X obj 46 76 env~ 8192;
#X obj 126 43 switch~;
#X obj 126 14 r \$0-vu-control;
#X msg 181 43 0;
#X obj 46 107 - 100;
#X obj 220 108 - 100;
#X connect 0 0 5 0;
#X connect 1 0 4 0;
#X connect 4 0 10 0;
#X connect 5 0 9 0;
#X connect 7 0 6 0;
#X connect 7 0 8 0;
#X connect 8 0 9 0;
#X connect 8 0 10 0;
#X connect 9 0 3 0;
#X connect 10 0 2 0;
#X restore 110 279 pd vu_meters;
#X obj 1 17 cnv 15 93 145 empty empty empty 20 12 0 14 -233017 -66577
0;
#X obj 8 36 vsl 30 121 0 117 0 0 empty empty empty 0 -9 0 10 -128992
-4034 -4034 8400 1;
#X obj 54 37 vu 15 120 empty empty -1 -8 0 10 -66577 -1 0 0;
#X obj 70 37 vu 15 120 empty empty -1 -8 0 10 -66577 -1 0 0;
#X obj 71 20 tgl 15 1 empty empty mute -25 7 0 10 -258113 -262144 -1
0 1;
#X obj 162 33 inlet;
#X obj 236 86 clip 0 1;
#X obj 162 58 route gain mute;
#X obj 40 34 vfad_scale -1;
#X obj 162 85 clip 0 120;
#X text 111 7 a stereo mixer channel with level \, vu \, and mute;
#N canvas 291 487 327 207 local 0;
#X obj 97 72 loadbang;
#X msg 39 120 81.9;
#X msg 39 74 set \$1;
#X obj 39 45 inlet;
#X obj 39 150 outlet;
#X connect 0 0 1 0;
#X connect 1 0 4 0;
#X connect 2 0 1 0;
#X connect 3 0 2 0;
#X restore -9 210 pd local state_save;
#X obj 274 281 throw~ RIGHT;
#X obj 200 280 throw~ LEFT;
#X obj 202 149 catch~ CHAN8/left;
#X obj 217 175 catch~ CHAN8/right;
#X obj 205 33 r CHAN8;
#X obj 162 109 fadtodb;
#X connect 0 0 1 0;
#X connect 0 0 15 0;
#X connect 0 1 1 1;
#X connect 0 1 14 0;
#X connect 1 0 4 0;
#X connect 1 1 5 0;
#X connect 3 0 0 0;
#X connect 3 0 13 0;
#X connect 6 0 0 1;
#X connect 7 0 9 0;
#X connect 8 0 6 0;
#X connect 9 0 11 0;
#X connect 9 1 8 0;
#X connect 11 0 19 0;
#X connect 13 0 3 0;
#X connect 16 0 0 2;
#X connect 17 0 0 3;
#X connect 18 0 9 0;
#X connect 19 0 3 0;
#X coords 0 -1 1 1 95 165 1 0 0;
#X restore 264 -75 pd CHAN8;
#N canvas 80 305 422 312 SAMPLES 0;
#N canvas 459 308 354 347 gain 0;
#X obj 21 296 outlet~;
#X obj 167 182 inlet~;
#X obj 22 264 *~ 0;
#X obj 222 183 inlet~;
#X obj 175 262 *~ 0;
#X obj 175 294 outlet~;
#X msg 113 107 0;
#X obj 94 80 sel 0 1;
#X obj 80 203 spigot;
#X obj 113 180 tgl 15 0 empty empty empty 17 7 0 10 -262144 -1 -1 1
1;
#X obj 50 102 t b b;
#X msg 77 127 1;
#X obj 50 29 loadbang;
#X obj 80 179 f 0;
#X obj -27 57 fadtodb;
#X obj -27 28 inlet amp;
#X obj 94 53 inlet mute;
#X floatatom -27 116 5 0 0 0 - - -;
#X obj -27 83 dbtorms;
#X connect 1 0 2 0;
#X connect 2 0 0 0;
#X connect 3 0 4 0;
#X connect 4 0 5 0;
#X connect 6 0 2 1;
#X connect 6 0 4 1;
#X connect 6 0 9 0;
#X connect 7 0 10 0;
#X connect 7 1 6 0;
#X connect 8 0 2 1;
#X connect 8 0 4 1;
#X connect 9 0 8 1;
#X connect 10 0 13 0;
#X connect 10 1 11 0;
#X connect 11 0 9 0;
#X connect 12 0 10 0;
#X connect 13 0 8 0;
#X connect 14 0 18 0;
#X connect 15 0 14 0;
#X connect 16 0 7 0;
#X connect 17 0 13 0;
#X connect 18 0 17 0;
#X restore 177 220 pd gain;
#N canvas 436 294 393 200 vu_meters 0;
#X obj 45 44 inlet~;
#X obj 219 47 inlet~;
#X obj 220 145 outlet;
#X obj 46 145 outlet;
#X obj 220 77 env~ 8192;
#X obj 46 76 env~ 8192;
#X obj 132 44 switch~;
#X obj 132 15 r \$0-vu-control;
#X msg 185 45 0;
#X obj 46 107 - 100;
#X obj 220 109 - 100;
#X connect 0 0 5 0;
#X connect 1 0 4 0;
#X connect 4 0 10 0;
#X connect 5 0 9 0;
#X connect 7 0 6 0;
#X connect 7 0 8 0;
#X connect 8 0 9 0;
#X connect 8 0 10 0;
#X connect 9 0 3 0;
#X connect 10 0 2 0;
#X restore 110 279 pd vu_meters;
#X obj 1 17 cnv 15 93 145 empty empty empty 20 12 0 14 -233017 -66577
0;
#X obj 8 36 vsl 30 121 0 117 0 0 empty empty empty 0 -9 0 10 -128992
-4034 -4034 8400 1;
#X obj 54 37 vu 15 120 empty empty -1 -8 0 10 -66577 -1 0 0;
#X obj 70 37 vu 15 120 empty empty -1 -8 0 10 -66577 -1 0 0;
#X obj 71 20 tgl 15 1 empty empty mute -25 7 0 10 -258113 -262144 -1
0 1;
#X obj 162 33 inlet;
#X obj 236 86 clip 0 1;
#X obj 162 58 route gain mute;
#X obj 40 34 vfad_scale -1;
#X obj 162 85 clip 0 120;
#X text 111 7 a stereo mixer channel with level \, vu \, and mute;
#N canvas 291 487 327 207 local 0;
#X obj 97 72 loadbang;
#X msg 39 120 81.9;
#X msg 39 74 set \$1;
#X obj 39 45 inlet;
#X obj 39 150 outlet;
#X connect 0 0 1 0;
#X connect 1 0 4 0;
#X connect 2 0 1 0;
#X connect 3 0 2 0;
#X restore -9 210 pd local state_save;
#X obj 274 281 throw~ RIGHT;
#X obj 200 280 throw~ LEFT;
#X obj 162 109 fadtodb;
#X obj 202 149 catch~ SAMPLES/left;
#X obj 217 175 catch~ SAMPLES/right;
#X obj 205 33 r SAMPLES;
#X connect 0 0 1 0;
#X connect 0 0 15 0;
#X connect 0 1 1 1;
#X connect 0 1 14 0;
#X connect 1 0 4 0;
#X connect 1 1 5 0;
#X connect 3 0 0 0;
#X connect 3 0 13 0;
#X connect 6 0 0 1;
#X connect 7 0 9 0;
#X connect 8 0 6 0;
#X connect 9 0 11 0;
#X connect 9 1 8 0;
#X connect 11 0 16 0;
#X connect 13 0 3 0;
#X connect 16 0 3 0;
#X connect 17 0 0 2;
#X connect 18 0 0 3;
#X connect 19 0 9 0;
#X coords 0 -1 1 1 95 165 1 0 0;
#X restore 74 -75 pd SAMPLES;
#N canvas 80 305 422 312 FX 0;
#N canvas 459 308 354 347 gain 0;
#X obj 21 296 outlet~;
#X obj 167 182 inlet~;
#X obj 22 264 *~ 0;
#X obj 222 183 inlet~;
#X obj 175 262 *~ 0;
#X obj 175 294 outlet~;
#X msg 113 107 0;
#X obj 94 80 sel 0 1;
#X obj 80 203 spigot;
#X obj 113 180 tgl 15 0 empty empty empty 17 7 0 10 -262144 -1 -1 1
1;
#X obj 50 102 t b b;
#X msg 77 127 1;
#X obj 50 29 loadbang;
#X obj 80 179 f 0;
#X obj -27 57 fadtodb;
#X obj -27 28 inlet amp;
#X obj 94 53 inlet mute;
#X floatatom -27 116 5 0 0 0 - - -;
#X obj -27 83 dbtorms;
#X connect 1 0 2 0;
#X connect 2 0 0 0;
#X connect 3 0 4 0;
#X connect 4 0 5 0;
#X connect 6 0 2 1;
#X connect 6 0 4 1;
#X connect 6 0 9 0;
#X connect 7 0 10 0;
#X connect 7 1 6 0;
#X connect 8 0 2 1;
#X connect 8 0 4 1;
#X connect 9 0 8 1;
#X connect 10 0 13 0;
#X connect 10 1 11 0;
#X connect 11 0 9 0;
#X connect 12 0 10 0;
#X connect 13 0 8 0;
#X connect 14 0 18 0;
#X connect 15 0 14 0;
#X connect 16 0 7 0;
#X connect 17 0 13 0;
#X connect 18 0 17 0;
#X restore 177 220 pd gain;
#N canvas 436 294 393 200 vu_meters 0;
#X obj 45 44 inlet~;
#X obj 219 47 inlet~;
#X obj 220 145 outlet;
#X obj 46 145 outlet;
#X obj 220 77 env~ 8192;
#X obj 46 76 env~ 8192;
#X obj 128 43 switch~;
#X obj 128 14 r \$0-vu-control;
#X msg 181 40 0;
#X obj 220 108 - 100;
#X obj 46 107 - 100;
#X connect 0 0 5 0;
#X connect 1 0 4 0;
#X connect 4 0 9 0;
#X connect 5 0 10 0;
#X connect 7 0 6 0;
#X connect 7 0 8 0;
#X connect 8 0 9 0;
#X connect 8 0 10 0;
#X connect 9 0 2 0;
#X connect 10 0 3 0;
#X restore 110 279 pd vu_meters;
#X obj 1 17 cnv 15 93 145 empty empty empty 20 12 0 14 -233017 -66577
0;
#X obj 8 36 vsl 30 121 0 117 0 0 empty empty empty 0 -9 0 10 -128992
-4034 -4034 8400 1;
#X obj 54 37 vu 15 120 empty empty -1 -8 0 10 -66577 -1 0 0;
#X obj 70 37 vu 15 120 empty empty -1 -8 0 10 -66577 -1 0 0;
#X obj 71 20 tgl 15 1 empty empty mute -25 7 0 10 -258113 -262144 -1
0 1;
#X obj 162 33 inlet;
#X obj 236 86 clip 0 1;
#X obj 162 58 route gain mute;
#X obj 40 34 vfad_scale -1;
#X obj 162 85 clip 0 120;
#X text 111 7 a stereo mixer channel with level \, vu \, and mute;
#N canvas 291 487 327 207 local 0;
#X obj 97 72 loadbang;
#X msg 39 120 81.9;
#X msg 39 74 set \$1;
#X obj 39 45 inlet;
#X obj 39 150 outlet;
#X connect 0 0 1 0;
#X connect 1 0 4 0;
#X connect 2 0 1 0;
#X connect 3 0 2 0;
#X restore -9 210 pd local state_save;
#X obj 274 281 throw~ RIGHT;
#X obj 200 280 throw~ LEFT;
#X obj 162 109 fadtodb;
#X obj 202 149 catch~ FX/left;
#X obj 217 175 catch~ FX/right;
#X obj 205 33 r FX;
#X connect 0 0 1 0;
#X connect 0 0 15 0;
#X connect 0 1 1 1;
#X connect 0 1 14 0;
#X connect 1 0 4 0;
#X connect 1 1 5 0;
#X connect 3 0 0 0;
#X connect 3 0 13 0;
#X connect 6 0 0 1;
#X connect 7 0 9 0;
#X connect 8 0 6 0;
#X connect 9 0 11 0;
#X connect 9 1 8 0;
#X connect 11 0 16 0;
#X connect 13 0 3 0;
#X connect 16 0 3 0;
#X connect 17 0 0 2;
#X connect 18 0 0 3;
#X connect 19 0 9 0;
#X coords 0 -1 1 1 95 165 1 0 0;
#X restore 169 -75 pd FX;
#X restore -19 197 pd mixer;
