#N canvas 16 126 331 190 10;
#N canvas 460 444 393 200 vu_meters 0;
#X obj 45 44 inlet~;
#X obj 219 47 inlet~;
#X obj 220 145 outlet;
#X obj 46 145 outlet;
#X obj 220 77 env~ 8192;
#X obj 46 76 env~ 8192;
#X obj 220 108 - 100;
#X obj 46 107 - 100;
#X connect 0 0 5 0;
#X connect 1 0 4 0;
#X connect 4 0 6 0;
#X connect 5 0 7 0;
#X connect 6 0 2 0;
#X connect 7 0 3 0;
#X restore 151 122 pd vu_meters;
#X obj 1 17 cnv 15 73 130 empty empty empty 20 12 0 14 -233017 -66577
0;
#X obj 9 22 vu 20 120 empty empty -1 -8 0 10 -66577 -1 0 0;
#X obj 31 22 vu 20 120 empty empty -1 -8 0 10 -66577 -1 0 0;
#X obj 54 20 vfad_scale -1;
#X obj 150 66 catch~ \$1_L_VU;
#X obj 219 92 catch~ \$1_R_VU;
#X connect 0 0 2 0;
#X connect 0 1 3 0;
#X connect 5 0 0 0;
#X connect 6 0 0 1;
#X coords 0 -1 1 1 75 150 1 0 0;
