#N canvas 830 130 289 422 10;
#X declare -stdpath extra/list-abs -stdpath extra/moocow -stdpath extra/zexy
;
#X declare -stdpath extra/mrpeach;
#X obj 3 294 outlet;
#X obj 3 18 inlet;
#X obj 46 241 outlet;
#X obj 90 241 outlet;
#X obj 30 118 s \$0-reset;
#X obj 30 143 r \$0-done;
#X obj 3 167 until;
#X obj 3 93 t b b;
#X obj 132 146 t a;
#X text 1 340 danomatika.com | robotcowboy.com;
#X text 2 325 2011 Dan Wilcox GPL v3;
#X text 2 355 https://github.com/danomatika/rc-patches;
#X obj 3 59 route bang;
#X obj 3 265 csv_parse;
#X obj 4 384 declare -stdpath extra/mrpeach;
#X obj 3 212 binfile;
#X connect 1 0 12 0;
#X connect 5 0 6 1;
#X connect 6 0 15 0;
#X connect 7 0 6 0;
#X connect 7 1 4 0;
#X connect 8 0 15 0;
#X connect 12 0 7 0;
#X connect 12 1 8 0;
#X connect 13 0 0 0;
#X connect 13 1 6 1;
#X connect 15 0 13 0;
#X connect 15 1 2 0;
#X connect 15 2 3 0;
#X connect 15 2 6 1;
