#N canvas 441 36 489 714 10;
#X declare -stdpath extra/list-abs -stdpath extra/moocow -stdpath extra/zexy
;
#X declare -stdpath extra/zexy -stdpath extra/moocow -stdpath extra/mrpeach
;
#X declare -stdpath extra/zexy;
#X obj 78 216 tgl 15 0 empty empty connected 17 7 0 10 -262144 -1 -1
0 1;
#X msg 54 164 raw 1;
#X obj 54 137 loadbang;
#X text 17 671 danomatika.com | robotcowboy.com;
#X text 18 656 2011 Dan Wilcox GPL v3;
#X text 18 686 https://github.com/danomatika/rc-patches;
#X text 96 164 output raw bytes;
#X obj 60 428 print line;
#X text 76 399 outputs each line as a list;
#X symbolatom 33 583 45 0 0 1 Datetime - -, f 45;
#X floatatom 60 558 10 0 0 1 Lat - -, f 10;
#X floatatom 87 535 10 0 0 1 Lon - -, f 10;
#X floatatom 114 510 10 0 0 1 Magnitude - -, f 10;
#X text 132 475 parse earthquake data;
#X obj 33 400 t a a;
#X text 103 332 parse raw csv bytes into lists \, one per line;
#X obj 84 365 bng 15 250 50 0 empty empty empty 17 7 0 10 -262144 -1
-1;
#X text 103 364 bangs when a line is finished;
#X msg 96 269 34 \, 97 \, 32 \, 98 \, 32 \, 99 \, 32 \, 100 \, 34 \,
44 \, 49 \, 50 \, 51 \, 13 \, 10;
#X msg 97 297 34 97 32 98 32 99 32 100 34 44 49 50 51 13 10;
#X text 379 296 "a b c d" \, 123;
#X text 70 243 raw bytes in as floats or lists;
#X text 30 627 aka: "a fancy \, string" --> a fancy string;
#X text 30 612 note: quotes and commas inside quoted strings are swallowed
;
#X obj 33 452 list;
#X text 18 6 csv_parse: parse raw bytes of a csv file into lists;
#X obj 33 333 csv_parse;
#X obj 33 192 http_get;
#X obj 282 659 declare -stdpath extra/zexy;
#X obj 33 477 packel 1 2 3 5;
#X msg 33 77 get http://earthquake.usgs.gov/fdsnws/event/1/query?format=csv&limit=10&orderby=time
;
#X text 31 35 fetch earthquake data for the last 10 events from the
USGS;
#X text 32 52 (see http://earthquake.usgs.gov/fdsnws/event/1/#parameters)
;
#X connect 1 0 27 0;
#X connect 2 0 1 0;
#X connect 14 0 24 0;
#X connect 14 1 7 0;
#X connect 18 0 26 0;
#X connect 19 0 26 0;
#X connect 24 0 29 0;
#X connect 26 0 14 0;
#X connect 26 1 16 0;
#X connect 27 0 26 0;
#X connect 27 2 0 0;
#X connect 29 0 9 0;
#X connect 29 1 10 0;
#X connect 29 2 11 0;
#X connect 29 3 12 0;
#X connect 30 0 27 0;
