#N canvas 830 130 294 396 10;
#X obj 26 302 outlet;
#X obj 26 26 inlet;
#X obj 69 249 outlet;
#X obj 113 249 outlet;
#X obj 26 220 mrpeach/binfile;
#X obj 53 126 s \$0-reset;
#X obj 53 151 r \$0-done;
#X obj 26 175 until;
#X obj 26 101 t b b;
#X obj 155 154 t a;
#X text 24 348 danomatika.com | robotcowboy.com;
#X text 25 333 2011 Dan Wilcox GPL v3;
#X text 25 363 https://github.com/danomatika/rc-patches;
#X obj 26 67 route bang;
#X obj 26 273 csv_parse;
#X connect 1 0 13 0;
#X connect 4 0 14 0;
#X connect 4 1 2 0;
#X connect 4 2 3 0;
#X connect 4 2 7 1;
#X connect 6 0 7 1;
#X connect 7 0 4 0;
#X connect 8 0 7 0;
#X connect 8 1 5 0;
#X connect 9 0 4 0;
#X connect 13 0 8 0;
#X connect 13 1 9 0;
#X connect 14 0 0 0;
#X connect 14 1 7 1;
