#N canvas 587 92 443 609 10;
#X declare -stdpath extra/list-abs -stdpath extra/moocow -stdpath extra/zexy
;
#X declare -stdpath extra/mrpeach;
#X declare -stdpath extra/zexy;
#X obj -281 303 print line;
#X obj -286 236 print info;
#X obj -241 203 print end;
#X obj -263 204 bng 15 250 50 0 empty empty empty 17 7 0 10 -262144
-1 -1;
#X text -175 203 bangs at end of file;
#X text -213 236 outputs paramaters from the info message;
#X text -265 274 outputs each line as a list;
#X msg -292 75 info;
#X msg -281 100 bang;
#X msg -273 124 rewind;
#X text -225 124 rewind to the beginning of the file;
#X text -251 73 send out info on the binary file (sorry \, no number
of lines);
#X text -136 49 open a file to read;
#X symbolatom -308 461 45 0 0 1 Datetime - -, f 45;
#X floatatom -281 436 10 0 0 1 Lat - -, f 10;
#X floatatom -254 413 10 0 0 1 Lon - -, f 10;
#X floatatom -227 388 10 0 0 1 Magnitude - -, f 10;
#X text -202 353 parse earthquake data;
#X obj -308 275 t a a;
#X text -325 561 danomatika.com | robotcowboy.com;
#X text -324 546 2011 Dan Wilcox GPL v3;
#X text -324 576 https://github.com/danomatika/rc-patches;
#X text -326 506 aka: "a fancy \, string" --> a fancy string;
#X text -326 491 note: quotes and commas inside quoted strings are
swallowed;
#X text -255 150 etc \, all binfile options are there ...;
#X text -241 99 send out one line;
#X obj -308 328 list;
#X text -319 11 csv_file: wrapper around mrpeach [binfile] to read
csv files;
#X obj -308 177 csv_file;
#X msg -308 49 read media/eqs1hour-M1.csv;
#X obj -77 548 declare -stdpath extra/zexy;
#X obj -308 355 packel 4 5 6 7;
#X connect 7 0 28 0;
#X connect 8 0 28 0;
#X connect 9 0 28 0;
#X connect 18 0 26 0;
#X connect 18 1 0 0;
#X connect 26 0 31 0;
#X connect 28 0 18 0;
#X connect 28 1 1 0;
#X connect 28 2 3 0;
#X connect 28 2 2 0;
#X connect 29 0 28 0;
#X connect 31 0 13 0;
#X connect 31 1 14 0;
#X connect 31 2 15 0;
#X connect 31 3 16 0;
