#N canvas 1096 386 294 396 10;
#X declare -lib moocow;
#X declare -lib zexy;
#X declare -lib mrpeach;
#X obj 190 83 import moocow;
#X obj 26 302 outlet;
#X obj 26 26 inlet;
#X obj 69 249 outlet;
#X obj 113 249 outlet;
#X obj 26 220 mrpeach/binfile;
#X obj 53 126 s \$0-reset;
#X obj 53 151 r \$0-done;
#X obj 26 175 until;
#X obj 26 101 t b b;
#X obj 167 172 t a;
#X obj 190 56 import zexy;
#X obj 190 28 import mrpeach;
#X text 24 348 danomatika.com | robotcowboy.com;
#X text 25 333 2011 Dan Wilcox GPL v3;
#X text 25 363 https://github.com/danomatika/rc-patches;
#N canvas 0 22 450 300 write 0;
#X obj 53 32 inlet;
#X obj 51 258 outlet;
#X obj 53 82 print list;
#X obj 146 84 l2s |;
#X connect 0 0 3 0;
#X connect 3 0 2 0;
#X restore 194 128 pd write list;
#X obj 26 67 route bang addline;
#X obj 26 273 csvparse;
#X connect 2 0 17 0;
#X connect 5 0 18 0;
#X connect 5 1 3 0;
#X connect 5 2 4 0;
#X connect 5 2 8 1;
#X connect 7 0 8 1;
#X connect 8 0 5 0;
#X connect 9 0 8 0;
#X connect 9 1 6 0;
#X connect 10 0 5 0;
#X connect 17 0 9 0;
#X connect 17 1 16 0;
#X connect 17 2 10 0;
#X connect 18 0 1 0;
