#N canvas 914 430 364 263 10;
#N canvas 394 175 578 534 build 0;
#X obj 80 42 inlet chars;
#X text -13 8 build each comma separated symbol;
#X text 181 272 send out symbol on comma;
#X obj 173 300 r \$0-reset;
#X obj 80 74 route bang;
#X obj 170 153 tgl 15 0 empty empty empty 17 7 0 10 -262144 -1 -1 0
1;
#X obj 170 179 moses 1;
#X obj 185 379 list prepend;
#X obj 275 379 list;
#X obj 137 273 t b b;
#X msg 173 330 bang;
#X obj 164 406 list;
#X obj 137 236 spigot;
#X obj 242 108 r \$0-reset;
#X msg 242 133 0;
#X obj 137 107 sel 44 34;
#X msg 170 206 1;
#X msg 209 205 0;
#X obj 164 498 outlet symbol;
#X text 248 207 keep building list if we are inside a quoted string
;
#X obj 258 303 t a;
#X text 172 82 check for comma \, and quote ";
#X obj 164 468 zexy/list2symbol;
#X obj 164 436 wchars2any 128 -1;
#X obj 3 40 inlet send;
#X connect 0 0 4 0;
#X connect 3 0 10 0;
#X connect 4 1 15 0;
#X connect 5 0 6 0;
#X connect 6 0 16 0;
#X connect 6 1 17 0;
#X connect 7 0 8 0;
#X connect 7 0 11 1;
#X connect 8 0 7 1;
#X connect 9 0 10 0;
#X connect 9 1 11 0;
#X connect 10 0 11 1;
#X connect 10 0 7 1;
#X connect 11 0 23 0;
#X connect 12 0 9 0;
#X connect 13 0 14 0;
#X connect 14 0 5 0;
#X connect 15 0 12 0;
#X connect 15 1 5 0;
#X connect 15 2 20 0;
#X connect 16 0 12 1;
#X connect 17 0 12 1;
#X connect 20 0 7 0;
#X connect 22 0 18 0;
#X connect 23 0 22 0;
#X connect 24 0 9 0;
#X restore 112 115 pd build symbol;
#N canvas 1037 114 235 377 build 0;
#X obj 91 208 list prepend;
#X obj 182 208 list;
#X obj 56 240 list;
#X msg 17 174 bang;
#X obj 56 321 list trim;
#X obj 36 106 s \$0-done;
#X obj 17 42 inlet send;
#X obj 91 177 inlet symbols;
#X obj 56 350 outlet list;
#X obj 17 74 t b b b;
#X text 12 11 build each line;
#X obj 72 140 r \$0-reset;
#X obj 56 267 l2s;
#X obj 56 293 s2l;
#N canvas 991 616 373 196 default 0;
#X text 14 14 use comma as the default delimiter since it will never
be in the list (as opposed to spaces ...);
#X obj 16 162 outlet;
#X obj 16 135 symbol;
#X obj 16 107 bytes2any;
#X msg 16 80 44;
#X obj 16 54 loadbang;
#X text 83 104 sigh \, convert comma ascii code to a symbol;
#X connect 2 0 1 0;
#X connect 3 0 2 0;
#X connect 4 0 3 0;
#X connect 5 0 4 0;
#X restore 110 247 pd default delim;
#X text 90 280 convert symbols to nums;
#X connect 0 0 1 0;
#X connect 0 0 2 1;
#X connect 1 0 0 1;
#X connect 2 0 12 0;
#X connect 3 0 2 1;
#X connect 3 0 1 0;
#X connect 4 0 8 0;
#X connect 6 0 9 0;
#X connect 7 0 0 0;
#X connect 9 0 3 0;
#X connect 9 1 5 0;
#X connect 9 2 2 0;
#X connect 11 0 3 0;
#X connect 12 0 13 0;
#X connect 13 0 4 0;
#X connect 14 0 12 1;
#X connect 14 0 13 1;
#X restore 37 142 pd build line;
#X obj 18 59 sel 10 13;
#X text 82 58 check for EOL and CR;
#X msg 18 200 bang;
#X obj 18 228 s \$0-reset;
#X obj 18 91 t b b b;
#X obj 18 20 inlet bytes;
#X obj 37 172 outlet list;
#X text 102 215 danomatika.com | robotcowboy.com;
#X text 103 200 2011 Dan Wilcox GPL v3;
#X text 103 230 https://github.com/danomatika/rc-patches;
#X connect 0 0 1 1;
#X connect 1 0 8 0;
#X connect 2 0 6 0;
#X connect 2 2 0 1;
#X connect 4 0 5 0;
#X connect 6 0 4 0;
#X connect 6 1 1 0;
#X connect 6 2 0 0;
#X connect 7 0 2 0;
