#N canvas 489 54 664 502 10;
#X declare -path ../rc;
#X obj 31 79 tgl 30 0 empty empty run 32 7 0 10 -262144 -1 -1 0 1;
#X obj 85 181 loadbang;
#X obj 73 149 tgl 15 0 empty empty empty 17 7 0 10 -262144 -1 -1 0
1;
#X msg 108 239 defaultView;
#X obj 435 161 v gem_width;
#X obj 515 161 v gem_height;
#X floatatom 435 185 5 0 0 0 - - -;
#X floatatom 515 186 5 0 0 0 - - -;
#X obj 435 136 t b b;
#X text 397 443 danomatika.com | robotcowboy.com;
#X text 398 458 https://github.com/danomatika/rc-patches;
#X text 191 239 set the default GEM viewport of -1 1 -1 1 (default)
;
#X text 104 460 <-- optional frame rate creation arg;
#X msg 121 344 color 0.8 0.8 0.8;
#X text 244 344 accepts all other [gemwin] commands;
#X msg 160 394 dimen 300 300;
#X obj 435 112 bng 15 250 50 0 empty empty empty 17 7 0 10 -262144
-1 -1;
#X msg 142 369 color 0 0 0;
#X msg 31 119 run \$1;
#X text 97 148 rendering is on by default;
#X text 258 369 see;
#X text 334 369 help;
#X obj 285 370 gemwin;
#X text 87 88 <float> 0-1 creates/destroys the window;
#X text 194 312 upper left corner is 0 0 and lower right is width height
;
#X text 85 38 adds some automation and accepts all [gemwin] commands
;
#X text 398 428 2012 Dan Wilcox GPL v3;
#X text 20 17 [gem_win]: a utility wrapper around [gemwin];
#X msg 127 297 pixelView;
#X msg 184 420 demen 400 400;
#X text 193 295 set a pixel-sized viewport matching the window size
(dimen);
#X text 371 88 window dimension is stored in 2 global values;
#X msg 85 211 title gem_win help \, frame 30 \, dimen 500 500;
#X obj 31 460 gem_win 30;
#X msg 117 268 defaultViewFlipped;
#X text 241 268 the default viewport fliiped vertically;
#X connect 0 0 18 0;
#X connect 1 0 32 0;
#X connect 2 0 33 0;
#X connect 3 0 33 0;
#X connect 4 0 6 0;
#X connect 5 0 7 0;
#X connect 8 0 4 0;
#X connect 8 1 5 0;
#X connect 13 0 33 0;
#X connect 15 0 33 0;
#X connect 16 0 8 0;
#X connect 17 0 33 0;
#X connect 18 0 33 0;
#X connect 28 0 33 0;
#X connect 29 0 33 0;
#X connect 32 0 33 0;
#X connect 34 0 33 0;
