#N canvas 573 130 376 477 10;
#X obj 80 352 GEMglEnd;
#X obj 23 11 inlet;
#X obj 121 231 inlet x1;
#X obj 183 231 inlet y1;
#X obj 121 289 inlet x2;
#X obj 178 289 inlet y2;
#X obj 80 196 GEMglBegin GL_LINES;
#X msg 191 143 GL_LINES;
#X msg 142 118 GL_POINTS;
#X obj 191 170 GLdefine;
#X obj 273 197 inlet list;
#X obj 23 41 route draw;
#X obj 80 386 outlet gemlist;
#X obj 273 222 unpack f f f f;
#X text 24 432 danomatika.com | robotcowboy.com;
#X text 25 417 2011 Dan Wilcox GPL v3;
#X text 25 447 https://github.com/danomatika/rc-patches;
#X obj 80 263 GEMglVertex3f \$1 \$2 2;
#X obj 80 320 GEMglVertex3f \$3 \$4 2;
#X obj 142 90 select point line;
#X obj 142 65 symbol;
#X connect 0 0 12 0;
#X connect 1 0 11 0;
#X connect 2 0 17 1;
#X connect 3 0 17 2;
#X connect 4 0 18 1;
#X connect 5 0 18 2;
#X connect 6 0 17 0;
#X connect 7 0 9 0;
#X connect 8 0 9 0;
#X connect 9 0 6 1;
#X connect 10 0 13 0;
#X connect 11 0 20 0;
#X connect 11 1 6 0;
#X connect 13 0 17 1;
#X connect 13 1 17 2;
#X connect 13 2 18 1;
#X connect 13 3 18 2;
#X connect 17 0 18 0;
#X connect 18 0 0 0;
#X connect 19 0 8 0;
#X connect 19 1 7 0;
#X connect 20 0 19 0;
