#N canvas 761 249 417 506 10;
#X declare -path ../rc-patches;
#X obj 105 364 pix_film;
#X obj 15 11 inlet;
#X obj 189 122 moses 1;
#X msg 189 148 0;
#X msg 228 149 1;
#X obj 189 97 change;
#X obj 243 93 expr 1/$f1*1000;
#X obj 243 68 inlet fps;
#X obj 300 269 inlet frame pos;
#X obj 228 238 inlet loopsize in frames;
#N canvas 673 108 384 201 args 0;
#X obj 15 27 loadbang;
#X obj 15 89 list append \$1;
#X obj 15 120 sel 0;
#X obj 272 116 sel 0;
#X msg 272 140 30;
#X obj 42 165 outlet filename;
#X obj 299 165 outlet fps;
#X obj 160 88 f \$3;
#X obj 272 88 f \$2;
#X obj 160 165 outlet playing;
#X connect 0 0 1 0;
#X connect 0 0 7 0;
#X connect 0 0 8 0;
#X connect 1 0 2 0;
#X connect 2 1 5 0;
#X connect 3 0 4 0;
#X connect 3 1 6 0;
#X connect 4 0 6 0;
#X connect 7 0 9 0;
#X connect 8 0 3 0;
#X restore 170 43 pd args;
#X obj 189 211 metro 30;
#X obj 86 477 outlet gemlist;
#X obj 127 418 outlet lwh;
#X obj 150 392 outlet finished;
#X obj 86 446 pix_texture;
#X obj 15 70 symbol;
#X msg 15 214 open \$1;
#X obj 15 97 rc-filename;
#X obj 243 120 moses 1;
#X obj 229 14 declare -path ../rc-patches;
#X obj 15 42 route open play texture;
#X obj 303 381 unpack f f f;
#X obj 189 268 u_count;
#X obj 150 338 + 0;
#X obj 300 300 moses 0;
#X obj 258 268 + 1;
#X msg 228 342 0;
#X obj 189 299 moses 0;
#X connect 0 0 15 0;
#X connect 0 1 13 0;
#X connect 0 1 22 0;
#X connect 0 2 14 0;
#X connect 1 0 21 0;
#X connect 2 0 3 0;
#X connect 2 1 4 0;
#X connect 3 0 11 0;
#X connect 4 0 11 0;
#X connect 5 0 2 0;
#X connect 6 0 19 0;
#X connect 7 0 6 0;
#X connect 8 0 25 0;
#X connect 9 0 23 1;
#X connect 10 0 17 0;
#X connect 10 1 5 0;
#X connect 10 2 6 0;
#X connect 11 0 23 0;
#X connect 15 0 12 0;
#X connect 16 0 18 0;
#X connect 17 0 0 0;
#X connect 18 0 17 0;
#X connect 19 1 11 1;
#X connect 21 0 16 0;
#X connect 21 1 2 0;
#X connect 21 2 15 0;
#X connect 21 3 0 0;
#X connect 22 0 26 0;
#X connect 22 0 23 1;
#X connect 23 0 28 0;
#X connect 24 0 0 1;
#X connect 25 1 24 1;
#X connect 26 0 28 1;
#X connect 27 0 23 0;
#X connect 28 0 24 0;
#X connect 28 1 27 0;
