#N canvas 198 229 590 478 10;
#X declare -path ../rc;
#X declare -path ../rc-patches;
#X text 327 374 danomatika.com | robotcowboy.com;
#X text 328 359 2011 Dan Wilcox GPL v3;
#X text 328 389 https://github.com/danomatika/rc-patches;
#X obj 39 58 gemhead;
#X msg 417 276 run \$1;
#X obj 417 249 tgl 15 0 empty empty <--_start_gem_window 17 7 0 10
-262144 -1 -1 0 1;
#X obj 417 308 gem_win;
#N canvas 190 199 191 110 setup 0;
#X obj 18 70 outlet;
#X obj 18 15 loadbang;
#X msg 18 41 dimen 400 400 \, pixelView;
#X connect 1 0 2 0;
#X connect 2 0 0 0;
#X restore 469 276 pd setup;
#X msg 89 140 open data/test_clip.mov;
#X obj 270 270 bng 15 250 50 0 empty empty finished 17 7 0 10 -262144
-1 -1;
#X obj 154 300 unpack f f f;
#X floatatom 154 391 5 0 0 1 length_in_frames - -;
#X floatatom 188 362 5 0 0 1 width - -;
#X floatatom 223 333 5 0 0 1 height - -;
#X obj 39 434 gem_square 200 200 400 center;
#X obj 61 85 tgl 15 0 empty empty empty 17 7 0 10 -262144 -1 -1 0 1
;
#X floatatom 116 168 5 0 0 1 framerate - -;
#X floatatom 193 192 5 0 0 1 position - -;
#X floatatom 270 211 5 0 0 1 loopsize_in_frames - -;
#X msg 61 108 play \$1;
#X text 17 14 a simple video player wrapper around [pix_film];
#X text 265 56 includes framecounter and texture;
#X text 337 97 creation args: file framerate play?;
#X text 234 435 render the video to a square;
#X text 87 84 play the video clip?;
#X text 242 140 open a video file;
#X obj 39 241 gem_videoplayer data/test_clip.mov 30 1;
#X connect 3 0 26 0;
#X connect 4 0 6 0;
#X connect 5 0 4 0;
#X connect 7 0 6 0;
#X connect 8 0 26 0;
#X connect 10 0 11 0;
#X connect 10 1 12 0;
#X connect 10 2 13 0;
#X connect 15 0 19 0;
#X connect 16 0 26 1;
#X connect 17 0 26 2;
#X connect 18 0 26 3;
#X connect 19 0 26 0;
#X connect 26 0 14 0;
#X connect 26 1 10 0;
#X connect 26 2 9 0;
