#N canvas 598 152 616 499 10;
#X obj 19 24 inlet gemlist;
#X obj 149 466 outlet gemlist;
#X obj 149 401 rectangle;
#X obj 149 323 GEMglPushMatrix;
#X obj 149 433 GEMglPopMatrix;
#X obj 273 24 inlet x;
#X obj 326 25 inlet y;
#X obj 381 25 inlet w;
#X obj 436 26 inlet h;
#X obj 483 54 inlet list;
#X obj 273 175 unpack f f f f;
#X text 304 452 danomatika.com | robotcowboy.com;
#X text 305 437 2011 Dan Wilcox GPL v3;
#X text 305 467 https://github.com/danomatika/rc-patches;
#X obj 19 84 symbol;
#X msg 19 112 draw \$1;
#N canvas 461 118 344 286 args 0;
#X obj 90 82 \$3;
#X obj 148 83 \$4;
#X obj 90 107 sel 0;
#X obj 148 109 sel 0;
#X msg 148 136 10;
#X msg 90 135 10;
#X obj 37 109 \$1;
#X obj 56 168 \$2;
#X obj 37 23 loadbang;
#X obj 117 181 outlet w;
#X obj 175 180 outlet h;
#X obj 56 208 outlet y;
#X obj 37 238 outlet x;
#X obj 236 180 outlet mode;
#X obj 236 114 select 0;
#X obj 37 53 t b b b b b;
#X obj 236 90 list append \$5;
#X msg 236 139 center;
#X connect 0 0 2 0;
#X connect 1 0 3 0;
#X connect 2 0 5 0;
#X connect 2 1 9 0;
#X connect 3 0 4 0;
#X connect 3 1 10 0;
#X connect 4 0 10 0;
#X connect 5 0 9 0;
#X connect 6 0 12 0;
#X connect 7 0 11 0;
#X connect 8 0 15 0;
#X connect 14 0 17 0;
#X connect 14 1 13 0;
#X connect 15 0 6 0;
#X connect 15 1 7 0;
#X connect 15 2 1 0;
#X connect 15 2 0 0;
#X connect 15 4 16 0;
#X connect 16 0 14 0;
#X connect 17 0 13 0;
#X restore 215 53 pd args;
#X obj 273 53 t b f;
#X obj 326 53 t b f;
#X obj 381 53 t b f;
#X obj 436 53 t b f;
#X obj 19 55 route draw mode;
#X obj 273 136 pack f f f f;
#X obj 383 296 spigot;
#X obj 288 293 spigot;
#X msg 321 244 0;
#X msg 205 234 1;
#X obj 156 174 sel center corner;
#X obj 156 149 symbol;
#X obj 129 102 t b a;
#X text 290 365 so shift the draw pos to draw from the corner;
#X text 401 324 gem draws rects from the center;
#X msg 156 74 bang;
#X obj 210 103 t a b;
#X obj 149 368 translateXYZ \$1 \$2 0;
#X obj 368 324 + 0;
#X obj 273 323 + 0;
#X obj 483 82 unpack f f f f s;
#X text 424 209 [rectangle] is 2x in size;
#X obj 327 210 * 0.5;
#X obj 383 210 * 0.5;
#X connect 0 0 21 0;
#X connect 2 0 4 0;
#X connect 3 0 34 0;
#X connect 4 0 1 0;
#X connect 5 0 17 0;
#X connect 6 0 18 0;
#X connect 7 0 19 0;
#X connect 8 0 20 0;
#X connect 9 0 37 0;
#X connect 10 0 36 0;
#X connect 10 1 35 0;
#X connect 10 2 39 0;
#X connect 10 3 40 0;
#X connect 14 0 15 0;
#X connect 15 0 2 0;
#X connect 16 0 22 0;
#X connect 16 1 22 1;
#X connect 16 2 22 2;
#X connect 16 3 22 3;
#X connect 16 4 33 0;
#X connect 17 0 22 0;
#X connect 17 1 22 0;
#X connect 18 0 22 0;
#X connect 18 1 22 1;
#X connect 19 0 22 0;
#X connect 19 1 22 2;
#X connect 20 0 22 0;
#X connect 20 1 22 3;
#X connect 21 0 14 0;
#X connect 21 1 29 0;
#X connect 21 2 3 0;
#X connect 22 0 10 0;
#X connect 23 0 35 1;
#X connect 24 0 36 1;
#X connect 25 0 24 1;
#X connect 25 0 23 1;
#X connect 25 0 35 1;
#X connect 25 0 36 1;
#X connect 26 0 23 1;
#X connect 26 0 24 1;
#X connect 27 0 25 0;
#X connect 27 1 26 0;
#X connect 28 0 27 0;
#X connect 29 0 22 0;
#X connect 29 1 28 0;
#X connect 32 0 29 0;
#X connect 33 0 28 0;
#X connect 33 1 25 0;
#X connect 34 0 2 0;
#X connect 35 0 34 2;
#X connect 36 0 34 1;
#X connect 37 0 22 0;
#X connect 37 1 22 1;
#X connect 37 2 22 2;
#X connect 37 3 22 3;
#X connect 37 4 28 0;
#X connect 39 0 2 1;
#X connect 39 0 24 0;
#X connect 40 0 2 2;
#X connect 40 0 23 0;
