#N canvas 553 78 546 530 10;
#X declare -path ../rc;
#X floatatom 29 407 5 0 0 0 - - -, f 5;
#X floatatom 74 408 5 0 0 0 - - -, f 5;
#X msg 74 382 40.66;
#X msg 29 382 122;
#X obj 29 347 loadbang;
#X obj 74 434 osc~;
#X obj 29 433 osc~;
#X msg 278 297 draw point;
#X floatatom 208 279 5 0 10 0 - - -, f 5;
#X msg 208 297 width \$1;
#X floatatom 207 234 5 0 100 0 - - -, f 5;
#X msg 207 252 length \$1;
#X msg 278 325 draw linestrip;
#X msg 278 351 draw fill;
#X text 278 252 takes all [scopeXYZ~] commands;
#X obj 190 120 g_hsl R 0 1;
#X obj 190 152 g_hsl G 0 1;
#X obj 190 185 g_hsl B 0 1;
#X obj 190 87 g_tgl alpha;
#X text 266 89 color control;
#X obj 122 44 g_tgl run;
#X text 26 323 XYZ inlets;
#X text 207 487 danomatika.com | robotcowboy.com;
#X text 208 502 https://github.com/danomatika/rc-patches;
#X text 208 472 2012 Dan Wilcox GPL v3;
#X obj 29 483 gem_scope;
#X text 249 48 creates the GEM window for you;
#X text 9 8 [gem_scope]: a wrapper around scopeXYZ~;
#X msg 253 400 FSAA 0 \, dimen 200 200;
#X msg 253 427 FSAA 8 \, dimen 400 400;
#X text 395 413 [gem_win] commands too;
#X connect 0 0 6 0;
#X connect 1 0 5 0;
#X connect 2 0 1 0;
#X connect 3 0 0 0;
#X connect 4 0 3 0;
#X connect 4 0 2 0;
#X connect 5 0 25 1;
#X connect 6 0 25 0;
#X connect 7 0 25 3;
#X connect 8 0 9 0;
#X connect 9 0 25 3;
#X connect 10 0 11 0;
#X connect 11 0 25 3;
#X connect 12 0 25 3;
#X connect 13 0 25 3;
#X connect 15 0 16 0;
#X connect 16 0 17 0;
#X connect 17 0 25 3;
#X connect 18 0 15 0;
#X connect 20 0 25 3;
#X connect 28 0 25 3;
#X connect 29 0 25 3;
