#N canvas 543 46 561 383 10;
#X declare -path ../rc;
#X floatatom 192 147 5 0 0 0 x1 - -;
#X floatatom 220 177 5 0 0 0 y1 - -;
#X floatatom 248 205 5 0 0 0 x2 - -;
#X text 406 261 also set using list;
#X text 295 337 danomatika.com | robotcowboy.com;
#X text 296 322 2011 Dan Wilcox GPL v3;
#X text 296 352 https://github.com/danomatika/rc-patches;
#X obj 164 112 gemhead;
#X msg 77 80 draw point;
#X msg 51 55 draw line;
#X text 130 48 draw options;
#X text 13 16 draw a 2d line;
#X text 285 28 creation args: x1 y1 x2 y2;
#X msg 305 263 100 100 100 200;
#X obj 164 291 gem_line 100 100 200 100;
#X floatatom 276 235 5 0 0 0 y2 - -;
#X msg 340 140 run \$1;
#X obj 340 113 tgl 15 0 empty empty <--_start_gem_window 17 7 0 10
-262144 -1 -1 0 1;
#X obj 340 172 gem_win;
#N canvas 190 199 191 110 setup 0;
#X obj 18 70 outlet;
#X obj 18 15 loadbang;
#X msg 18 41 dimen 400 400 \, pixelView;
#X connect 1 0 2 0;
#X connect 2 0 0 0;
#X restore 392 140 pd setup;
#X connect 0 0 14 1;
#X connect 1 0 14 2;
#X connect 2 0 14 3;
#X connect 7 0 14 0;
#X connect 8 0 14 0;
#X connect 9 0 14 0;
#X connect 13 0 14 5;
#X connect 15 0 14 4;
#X connect 16 0 18 0;
#X connect 17 0 16 0;
#X connect 19 0 18 0;
