#N canvas 422 22 641 602 10;
#X declare -path ../rc;
#X text 39 560 danomatika.com | robotcowboy.com;
#X text 40 545 2011 Dan Wilcox GPL v3;
#X text 40 575 https://github.com/danomatika/rc-patches;
#X obj 39 125 gemhead;
#X text 25 8 save current transform state;
#X obj 367 123 gemhead;
#X floatatom 80 209 5 0 0 0 - - -;
#X floatatom 126 268 5 0 0 0 - - -;
#X obj 39 325 square 50;
#X obj 367 323 square 50;
#X floatatom 406 212 5 0 0 0 - - -;
#X floatatom 454 269 5 0 0 0 - - -;
#X floatatom 445 213 5 0 0 0 - - -;
#X floatatom 121 209 5 0 0 0 - - -;
#X obj 39 156 colorRGB 1 0 0;
#X obj 39 99 tgl 15 0 empty empty empty 17 7 0 10 -262144 -1 -1 0 1
;
#X floatatom 82 389 5 0 0 0 - - -;
#X floatatom 126 448 5 0 0 0 - - -;
#X obj 39 505 square 50;
#X floatatom 125 389 5 0 0 0 - - -;
#X obj 39 474 rotateXYZ 0 0 0;
#X obj 39 294 rotateXYZ 0 0 0;
#X obj 367 152 colorRGB 0 1 0;
#X obj 367 536 square 50;
#X floatatom 410 425 5 0 0 0 - - -;
#X floatatom 454 482 5 0 0 0 - - -;
#X floatatom 453 426 5 0 0 0 - - -;
#X obj 367 95 tgl 15 0 empty empty empty 17 7 0 10 -262144 -1 -1 0
1;
#X obj 367 507 rotateXYZ 0 0 0;
#X obj 367 294 rotateXYZ 0 0 0;
#X text 246 11 this is fundamentally useful when you *do not* want
;
#X text 320 50 to affect the rest of the render chain;
#X text 251 30 previous transformations (rotate \, translate \, etc)
;
#X text 31 72 without pushMatrix/popMatrix;
#X text 54 363 second square is drawn relative to the first;
#X text 183 253 draw first square;
#X text 517 251 draw first square;
#X text 465 182 <-- save the current state;
#X text 502 275 mess with transforms;
#X text 457 352 <-- return to previous state;
#X text 390 398 second square is not affected by first;
#X text 36 25 used with [gem_popMatrix];
#X obj 367 183 gem_pushMatrix;
#X obj 367 352 gem_popMatrix;
#X obj 39 418 translateXYZ 100 100 0;
#X obj 367 456 translateXYZ 150 150 0;
#X obj 367 243 translateXYZ 50 50 0;
#X obj 39 238 translateXYZ 250 50 0;
#X msg 200 151 run \$1;
#X obj 200 124 tgl 15 0 empty empty <--_start_gem_window 17 7 0 10
-262144 -1 -1 0 1;
#X obj 200 183 gem_win;
#N canvas 190 199 191 110 setup 0;
#X obj 18 70 outlet;
#X obj 18 15 loadbang;
#X msg 18 41 dimen 400 400 \, pixelView;
#X connect 1 0 2 0;
#X connect 2 0 0 0;
#X restore 252 151 pd setup;
#X connect 3 0 14 0;
#X connect 5 0 22 0;
#X connect 6 0 47 1;
#X connect 7 0 21 3;
#X connect 8 0 44 0;
#X connect 9 0 43 0;
#X connect 10 0 46 1;
#X connect 11 0 29 3;
#X connect 12 0 46 2;
#X connect 13 0 47 2;
#X connect 14 0 47 0;
#X connect 15 0 3 0;
#X connect 16 0 44 1;
#X connect 17 0 20 3;
#X connect 19 0 44 2;
#X connect 20 0 18 0;
#X connect 21 0 8 0;
#X connect 22 0 42 0;
#X connect 24 0 45 1;
#X connect 25 0 28 3;
#X connect 26 0 45 2;
#X connect 27 0 5 0;
#X connect 28 0 23 0;
#X connect 29 0 9 0;
#X connect 42 0 46 0;
#X connect 43 0 45 0;
#X connect 44 0 20 0;
#X connect 45 0 28 0;
#X connect 46 0 29 0;
#X connect 47 0 21 0;
#X connect 48 0 50 0;
#X connect 49 0 48 0;
#X connect 51 0 50 0;
