#N canvas 552 39 601 499 10;
#X declare -path ../rc;
#X text 294 247 adds pos to input arguments;
#X floatatom 218 250 5 0 0 0 x - -;
#X floatatom 244 280 5 0 0 0 y - -;
#X floatatom 270 305 5 0 0 0 w - -;
#X floatatom 296 337 5 0 0 0 h - -;
#X text 458 362 also set using list;
#X text 316 449 danomatika.com | robotcowboy.com;
#X text 317 434 2011 Dan Wilcox GPL v3;
#X text 317 464 https://github.com/danomatika/rc-patches;
#X obj 193 215 gemhead;
#X msg 77 99 draw point;
#X msg 51 74 draw line;
#X msg 16 51 draw fill;
#X msg 114 143 mode center;
#X msg 137 170 mode corner;
#X text 130 67 draw options;
#X text 219 149 draw with pos at upperleft corner (default) or rect
center?;
#X text 308 15 creation args: x y w h mode;
#X msg 322 362 50 50 100 100 center;
#X text 17 14 a 2d wrapper around [rectangle];
#X msg 29 422 run \$1;
#X obj 29 395 tgl 15 0 empty empty <--_start_gem_window 17 7 0 10 -262144
-1 -1 1 1;
#X obj 29 454 gem_win;
#N canvas 190 199 191 110 setup 0;
#X obj 18 70 outlet;
#X obj 18 15 loadbang;
#X msg 18 41 dimen 400 400 \, pixelView;
#X connect 1 0 2 0;
#X connect 2 0 0 0;
#X restore 81 422 pd setup;
#X obj 193 392 gem_rect 20 20 100 100;
#X text 258 51 note: this is meant ot be used with a pixel viewport
;
#X text 278 71 so the y axis is flipped;
#X connect 1 0 24 1;
#X connect 2 0 24 2;
#X connect 3 0 24 3;
#X connect 4 0 24 4;
#X connect 9 0 24 0;
#X connect 10 0 24 0;
#X connect 11 0 24 0;
#X connect 12 0 24 0;
#X connect 13 0 24 0;
#X connect 14 0 24 0;
#X connect 18 0 24 5;
#X connect 20 0 22 0;
#X connect 21 0 20 0;
#X connect 23 0 22 0;
