#N canvas 423 89 505 491 10;
#X declare -stdpath extra/zexy -stdpath extra/moocow -stdpath extra/mrpeach
;
#X obj 170 456 outlet;
#X obj 21 25 inlet;
#X obj 195 273 outlet;
#X obj 228 251 outlet;
#X obj 170 407 spigot;
#X obj 162 338 route bang;
#X obj 197 170 t a b;
#X msg 203 381 1;
#X obj 323 307 moses 1;
#X text 335 367 catch header?;
#X obj 21 111 s \$0-header;
#X obj 323 279 r \$0-header;
#X msg 323 334 0;
#X msg 362 334 1;
#N canvas 813 102 434 440 send 0;
#X obj 92 318 select 1;
#X obj 92 374 list trim;
#X obj 65 62 list prepend GET;
#X obj 65 116 list trim;
#X obj 92 349 list;
#X obj 65 239 list split;
#X obj 128 215 - 1;
#X obj 128 188 list length;
#X obj 65 263 list append 13 10 13 10;
#X obj 65 162 trigger a a;
#X obj 65 6 inlet;
#X obj 92 289 inlet;
#X obj 92 401 outlet;
#X text 159 214 strip NULL terminator and;
#X text 222 262 add carriage returns;
#X obj 65 92 list append HTTP/1.0;
#X obj 65 139 any2bytes;
#X obj 65 34 list split 1;
#X text 148 35 ignore port (if added);
#X connect 0 0 4 0;
#X connect 1 0 12 0;
#X connect 2 0 15 0;
#X connect 3 0 16 0;
#X connect 4 0 1 0;
#X connect 5 0 8 0;
#X connect 6 0 5 1;
#X connect 7 0 6 0;
#X connect 8 0 4 1;
#X connect 9 0 5 0;
#X connect 9 1 7 0;
#X connect 10 0 17 0;
#X connect 11 0 0 0;
#X connect 15 0 3 0;
#X connect 16 0 9 0;
#X connect 17 0 2 0;
#X restore 197 140 pd send GET request;
#N canvas 363 249 384 372 connect 0;
#X obj 48 91 symbol;
#X obj 48 171 list split 2;
#X obj 48 196 list split 1;
#X text 63 114 add carriage returns;
#X text 142 173 extract server ip;
#X obj 48 32 inlet;
#X obj 82 310 outlet;
#X obj 48 146 symbol2list /;
#X obj 48 61 list split 1;
#X msg 255 120 80;
#X obj 209 91 route float bang;
#X msg 82 278 connect \$1 \$2;
#X obj 82 250 pack s f;
#X text 289 120 choose port;
#X connect 0 0 7 0;
#X connect 1 0 2 0;
#X connect 2 1 12 0;
#X connect 5 0 8 0;
#X connect 7 0 1 0;
#X connect 8 0 0 0;
#X connect 8 1 10 0;
#X connect 9 0 12 1;
#X connect 10 0 12 1;
#X connect 10 1 9 0;
#X connect 10 2 9 0;
#X connect 11 0 6 0;
#X connect 12 0 11 0;
#X restore 329 140 pd connect to server;
#X obj 197 111 trigger a a;
#X obj 308 221 t b;
#X text 203 76 2010 mrpeach \, HCS \, & the PD community;
#X text 203 36 danomatika.com | robotcowboy.com;
#X text 204 51 https://github.com/danomatika/rc-patches;
#X text 204 21 2011 Dan Wilcox GPL v3;
#X msg 84 167 verbosity 0;
#X obj 84 138 loadbang;
#X obj 308 368 0;
#X obj 275 406 r \$0-raw;
#X obj 62 88 s \$0-raw;
#N canvas 867 438 343 233 bytes 0;
#X obj 17 161 spigot;
#X obj 164 161 spigot;
#X obj 17 188 outlet;
#X obj 164 12 inlet list;
#X obj 197 60 inlet;
#X msg 197 124 1;
#X msg 236 124 0;
#X obj 197 85 moses 1;
#X msg 50 124 0;
#X msg 88 124 1;
#X obj 257 35 loadbang;
#X msg 257 59 0;
#X obj 17 60 any2wchars 0 10;
#X connect 0 0 2 0;
#X connect 1 0 2 0;
#X connect 3 0 1 0;
#X connect 3 0 12 0;
#X connect 4 0 7 0;
#X connect 5 0 1 1;
#X connect 6 0 1 1;
#X connect 7 0 5 0;
#X connect 7 0 8 0;
#X connect 7 1 6 0;
#X connect 7 1 9 0;
#X connect 8 0 0 1;
#X connect 9 0 0 1;
#X connect 10 0 11 0;
#X connect 11 0 7 0;
#X connect 12 0 0 0;
#X restore 170 432 pd bytes or wchars;
#X obj 21 59 route header raw connect get;
#X obj 162 307 wchars2any 0 10;
#X obj 162 221 tcpclient;
#N canvas 0 22 414 108 declares 0;
#X obj -105 27 declare -stdpath extra/zexy -stdpath extra/moocow -stdpath
extra/mrpeach;
#X restore 45 456 pd declares;
#X connect 1 0 28 0;
#X connect 4 0 27 0;
#X connect 5 0 7 0;
#X connect 5 1 4 0;
#X connect 6 0 30 0;
#X connect 6 1 17 0;
#X connect 7 0 4 1;
#X connect 8 0 12 0;
#X connect 8 1 13 0;
#X connect 11 0 8 0;
#X connect 12 0 24 1;
#X connect 13 0 24 1;
#X connect 14 0 6 0;
#X connect 15 0 30 0;
#X connect 16 0 14 0;
#X connect 16 1 15 0;
#X connect 17 0 24 0;
#X connect 22 0 30 0;
#X connect 23 0 22 0;
#X connect 24 0 4 1;
#X connect 25 0 27 1;
#X connect 27 0 0 0;
#X connect 28 0 10 0;
#X connect 28 1 26 0;
#X connect 28 3 16 0;
#X connect 28 4 30 0;
#X connect 29 0 5 0;
#X connect 30 0 29 0;
#X connect 30 1 2 0;
#X connect 30 2 3 0;
#X connect 30 2 14 1;
