#N canvas 773 139 456 500 10;
#X declare -lib moocow;
#X declare -lib list-abs;
#X declare -lib mrpeach;
#X text 53 345 from;
#X obj 87 322 unpack 0 0 0 0;
#X floatatom 87 345 3 0 0 0 - - -;
#X floatatom 114 345 3 0 0 0 - - -;
#X floatatom 141 345 3 0 0 0 - - -;
#X floatatom 168 345 3 0 0 0 - - -;
#X obj 107 299 tgl 15 0 empty empty connected 18 7 0 8 -24198 -241291
-1 0 1;
#X text 194 345 (Server IP Address);
#X obj 68 381 print got;
#X text 15 476 2010 mrpeach \, HCS \, & the PD community;
#X msg 93 101 disconnect;
#X msg 68 61 get http://132.205.142.12/index.php;
#X msg 45 38 get http://checkip.dyndns.org/index.html;
#X text 13 7 httpget: a simple webclient using HTTP-GET;
#X text 111 251 also takes tcpclient arguments (except for connect)
;
#X text 15 436 danomatika.com | robotcowboy.com;
#X text 16 451 https://github.com/danomatika/rc-patches;
#X text 16 421 2011 Dan Wilcox GPL v3;
#X msg 106 167 header \$1;
#X obj 106 144 tgl 15 0 empty empty empty 17 7 0 10 -262144 -1 -1 0
1;
#X text 133 144 print the HTTP header? (off by default);
#X text 166 102 ... useful for large files ...;
#X msg 124 222 raw \$1;
#X obj 124 199 tgl 15 0 empty empty empty 17 7 0 10 -262144 -1 -1 0
1;
#X text 150 198 output raw bytes instead of floats & symbols;
#X obj 68 276 httpget;
#X text 133 382 outputs each line as a list;
#X connect 1 0 2 0;
#X connect 1 1 3 0;
#X connect 1 2 4 0;
#X connect 1 3 5 0;
#X connect 10 0 25 0;
#X connect 11 0 25 0;
#X connect 12 0 25 0;
#X connect 18 0 25 0;
#X connect 19 0 18 0;
#X connect 22 0 25 0;
#X connect 23 0 22 0;
#X connect 25 0 8 0;
#X connect 25 1 1 0;
#X connect 25 2 6 0;
