#N canvas 278 54 1033 605 10;
#X declare -path ../rc-patches;
#X obj 41 351 r DRUMMACHINE;
#X text 134 351 triggers are 60 \, 61 \, ...;
#X obj 25 566 throw~ LEFT;
#X obj 660 566 throw~ RIGHT;
#X obj 25 381 rc-808~;
#X obj 25 256 unpack f f;
#X obj 25 318 pack f f;
#X obj 25 287 + 59;
#X obj 225 15 declare -path ../rc-patches;
#X obj 181 81 rc-drumseq32_8;
#X obj 11 3 rc-midimetro;
#X obj 816 567 dac~;
#X obj 816 338 catch~ LEFT;
#X obj 816 392 rc-chan2~ out;
#X obj 860 364 catch~ RIGHT;
#X connect 0 0 4 0;
#X connect 4 0 2 0;
#X connect 4 1 3 0;
#X connect 5 0 7 0;
#X connect 5 1 6 1;
#X connect 6 0 4 0;
#X connect 7 0 6 0;
#X connect 9 0 5 0;
#X connect 10 0 9 0;
#X connect 12 0 13 0;
#X connect 13 0 11 0;
#X connect 13 1 11 1;
#X connect 14 0 13 1;
