#N canvas 50 465 705 557 10;
#X obj 176 308 rc-chan~;
#N canvas 779 344 584 467 synth 1;
#X obj 100 28 inlet;
#X obj 102 231 outlet~;
#N canvas 203 410 683 652 pluck 0;
#X obj 297 496 outlet~;
#X obj 204 24 inlet;
#X obj 378 229 sig~;
#X floatatom 234 154 5 0 0 0 - - -;
#X obj 204 76 t b f;
#X obj 271 286 + 0.95;
#X obj 271 234 inlet;
#X obj 378 177 mtof;
#X obj 204 177 del 2;
#X obj 204 50 unpack 0 0;
#X obj 376 112 * 0.0078;
#X obj 376 138 s \$0-vel;
#X obj 320 328 r \$0-vel;
#X msg 204 203 0;
#X obj 148 282 *~ 0;
#X text 262 211 feedback;
#X text 83 23 midi note pairs;
#X obj 378 203 expr 1000/$f1;
#X text 24 157 short burst of noise;
#X obj 297 470 *~;
#X obj 337 442 line~;
#X msg 388 413 1;
#X obj 388 389 t b;
#X obj 337 362 select 0;
#X text 385 341 unclick on note-off;
#X msg 337 388 0 500;
#N canvas 173 102 600 400 delays 1;
#X obj 77 73 inlet~;
#X obj 278 79 inlet;
#X obj 227 180 *~ 0.995;
#X obj 227 206 lop~ 5000;
#X obj 412 128 vd~ \$0-buff;
#X floatatom 290 180 5 0 0 0 - - -;
#X obj 412 79 inlet~;
#X obj 411 172 clip~ -0.5 0.5;
#X obj 412 311 outlet~;
#X obj 164 74 block~ 1;
#X obj 77 256 delwrite~ \$0-buff 256;
#X connect 0 0 10 0;
#X connect 1 0 2 1;
#X connect 2 0 3 0;
#X connect 3 0 10 0;
#X connect 4 0 2 0;
#X connect 4 0 7 0;
#X connect 5 0 3 1;
#X connect 6 0 4 0;
#X connect 7 0 8 0;
#X restore 242 328 pd delays;
#X obj 96 207 lop~ 500;
#X obj 131 235 r \$0-vel;
#X text 262 364 BOOST!;
#X obj 242 388 *~ 1.5;
#X floatatom 147 143 5 0 0 0 - - -;
#X floatatom 320 232 5 0 0 0 - - -;
#X floatatom 231 305 5 0 0 0 - - -;
#X obj 271 260 * 0.001;
#X floatatom 440 139 5 0 0 0 - - -;
#X obj 455 400 t b b;
#X msg 482 461 0;
#X msg 455 430 1 15;
#X obj 24 208 ead~ 10 20;
#X msg 75 335 bang;
#X obj 108 261 *~;
#X floatatom 30 177 5 0 0 0 - - -;
#X floatatom 47 116 5 0 0 0 - - -;
#X obj 79 178 osc~ 500;
#X floatatom 109 125 5 0 0 0 - - -;
#X msg 171 203 1;
#X connect 1 0 9 0;
#X connect 2 0 26 2;
#X connect 3 0 8 1;
#X connect 4 0 8 0;
#X connect 4 0 46 0;
#X connect 4 1 7 0;
#X connect 5 0 26 1;
#X connect 5 0 33 0;
#X connect 6 0 34 0;
#X connect 7 0 17 0;
#X connect 8 0 13 0;
#X connect 9 0 4 0;
#X connect 9 1 10 0;
#X connect 10 0 11 0;
#X connect 10 0 35 0;
#X connect 12 0 23 0;
#X connect 14 0 26 0;
#X connect 17 0 2 0;
#X connect 19 0 0 0;
#X connect 20 0 19 1;
#X connect 21 0 20 0;
#X connect 22 0 21 0;
#X connect 23 0 25 0;
#X connect 23 1 22 0;
#X connect 25 0 20 0;
#X connect 26 0 30 0;
#X connect 27 0 41 0;
#X connect 28 0 40 0;
#X connect 30 0 19 0;
#X connect 31 0 27 1;
#X connect 32 0 34 0;
#X connect 34 0 5 0;
#X connect 36 0 38 0;
#X connect 36 1 37 0;
#X connect 37 0 20 0;
#X connect 38 0 20 0;
#X connect 39 0 41 1;
#X connect 40 0 39 0;
#X connect 41 0 14 0;
#X connect 42 0 39 1;
#X connect 43 0 39 2;
#X connect 44 0 27 0;
#X connect 45 0 44 1;
#X connect 46 0 14 1;
#X restore 99 122 pd pluck;
#X obj 100 152 rc-dist~;
#X obj 101 205 lop~ 3000;
#X obj 158 66 inlet;
#X connect 0 0 2 0;
#X connect 2 0 3 0;
#X connect 3 0 4 0;
#X connect 4 0 1 0;
#X connect 5 0 2 1;
#X restore 177 254 pd synth;
#X floatatom 177 232 5 0 0 0 - - -;
#X obj 177 159 metro 1000;
#X obj 177 138 tgl 15 0 empty empty empty 0 -6 0 8 -262144 -1 -1 0
1;
#X obj 177 207 + 30;
#X obj 177 183 random 12;
#X obj 258 145 r timer/midi;
#X obj 258 174 rc-notein 8;
#X obj 258 202 - 12;
#X obj 258 229 pack f f;
#X connect 1 0 0 0;
#X connect 2 0 1 0;
#X connect 3 0 6 0;
#X connect 4 0 3 0;
#X connect 5 0 2 0;
#X connect 6 0 5 0;
#X connect 7 0 8 0;
#X connect 8 0 9 0;
#X connect 8 1 10 1;
#X connect 9 0 10 0;
#X connect 10 0 1 0;
