#N canvas 0 25 431 636 10;
#X obj 17 91 vsl 15 128 0.5 0.989 0 0 \$0-muting empty empty 0 -8 0
10 -262144 -1 -1 12700 1;
#X floatatom 17 232 5 0 0 0 - - -;
#X text -3 243 mute strings;
#X obj 91 581 dac~;
#X floatatom 46 196 5 0 0 0 - - #0-pick-angle;
#X obj 46 171 deg2rad;
#X floatatom 46 149 5 0 0 0 - - -;
#X text 81 148 degrees;
#X obj 98 528 *~;
#X obj 290 359 vsl 15 128 0.5 5 0 0 empty empty empty 0 -8 0 10 -262144
-1 -1 4939 1;
#X obj 17 48 loadbang;
#X msg 17 70 0.989;
#X msg 46 128 45;
#X obj 260 162 hsl 128 15 2 50 0 0 \$0-pick-location \$0-pick-location1
empty -2 -6 0 10 -262144 -1 -1 794 1;
#X text 285 128 pick location;
#X text 245 145 middle;
#X text 371 146 bridge;
#X obj 257 100 loadbang;
#N canvas 0 25 1016 635 delay-writer 0;
#X obj 306 468 outlet~;
#X obj 580 -88 sin;
#X obj 605 -87 cos;
#N canvas 0 25 1001 656 body-resonance 0;
#X obj 429 1 inlet~;
#X obj 423 299 outlet~;
#X obj 349 114 bp~ 325 70;
#X obj 484 114 bp~ 437 75;
#X obj 551 114 bp~ 490 48;
#X obj 428 31 hip~ 2;
#X obj 764 114 bp~ 881 39;
#X obj 692 114 bp~ 771 58;
#X obj 619 114 bp~ 542 80;
#X obj 244 140 *~ 0.8;
#X obj 294 141 *~ 0.925;
#X obj 415 141 *~ 0.95;
#X obj 482 142 *~ 0.85;
#X obj 541 143 *~ 0.72;
#X obj 662 142 *~ 0.42;
#X obj 732 143 *~ 0.3;
#X obj 351 140 *~ 0.5;
#X obj 605 142 *~ 0.45;
#X obj 108 132 *~ 0.2;
#X obj 19 113 bp~ 35 10;
#X obj 37 134 *~ 0.5;
#X obj 416 114 bp~ 377 72;
#X obj 85 113 bp~ 90 10;
#X obj 151 114 bp~ 150 40;
#X obj 283 114 bp~ 260 55;
#X obj 217 114 bp~ 195 50;
#X obj 165 134 *~ 0.5;
#X obj 423 244 *~ 4;
#X connect 0 0 5 0;
#X connect 2 0 16 0;
#X connect 3 0 12 0;
#X connect 4 0 13 0;
#X connect 5 0 2 0;
#X connect 5 0 3 0;
#X connect 5 0 4 0;
#X connect 5 0 6 0;
#X connect 5 0 7 0;
#X connect 5 0 8 0;
#X connect 5 0 19 0;
#X connect 5 0 21 0;
#X connect 5 0 22 0;
#X connect 5 0 23 0;
#X connect 5 0 24 0;
#X connect 5 0 25 0;
#X connect 6 0 15 0;
#X connect 7 0 14 0;
#X connect 8 0 17 0;
#X connect 9 0 27 0;
#X connect 10 0 27 0;
#X connect 11 0 27 0;
#X connect 12 0 27 0;
#X connect 13 0 27 0;
#X connect 14 0 27 0;
#X connect 15 0 27 0;
#X connect 16 0 27 0;
#X connect 17 0 27 0;
#X connect 18 0 27 0;
#X connect 19 0 20 0;
#X connect 20 0 27 0;
#X connect 21 0 11 0;
#X connect 22 0 18 0;
#X connect 23 0 26 0;
#X connect 24 0 10 0;
#X connect 25 0 9 0;
#X connect 26 0 27 0;
#X connect 27 0 1 0;
#X restore 460 339 pd body-resonance;
#N canvas 0 25 1016 656 pick-position 0;
#X obj 81 21 inlet~;
#X obj 80 267 outlet~;
#X obj 257 21 inlet position;
#X obj 81 216 -~;
#X obj 15 21 inlet bang;
#X obj -4 226 tgl 15 0 empty empty empty 0 -6 0 10 -262144 -1 -1 0
1;
#X msg -9 181 1;
#X msg 22 181 0;
#X floatatom 31 135 5 0 0 0 - - -;
#X obj 31 153 sel 0;
#X obj 1 64 t b b;
#X msg 31 97 1 0 \, 0 40;
#X obj 31 116 line 1 40;
#X obj -4 247 switch~ 16;
#X obj 141 98 delwrite~ \$0-low-e-pick-position 100;
#X obj 141 154 delread~ \$0-low-e-pick-position 3;
#X connect 0 0 3 0;
#X connect 0 0 14 0;
#X connect 2 0 15 0;
#X connect 3 0 1 0;
#X connect 4 0 10 0;
#X connect 5 0 13 0;
#X connect 6 0 5 0;
#X connect 7 0 5 0;
#X connect 8 0 9 0;
#X connect 9 0 7 0;
#X connect 10 0 11 0;
#X connect 10 1 6 0;
#X connect 11 0 12 0;
#X connect 12 0 8 0;
#X connect 15 0 3 1;
#X restore 357 151 pd pick-position;
#X floatatom 472 125 5 0 0 0 - - -;
#X text 503 123 in ms;
#X obj 605 -62 abs;
#X obj 580 -62 abs;
#X text 629 -84 absolute value to preserve magnitude of components
but avoid cancellation;
#N canvas 0 25 995 656 low-e-string 0;
#X text 245 266 vertical plane;
#X obj 367 319 *~;
#X obj 459 321 *~;
#X obj 587 409 clip~ -1 1;
#X obj 587 352 *~;
#X obj 227 345 *~;
#X obj 614 321 *~;
#X obj 250 309 *~;
#X text 642 318 horizontal-horizontal transfer;
#X text 87 307 vertical-vertical transfer;
#X text 467 349 horizontal-vertical;
#X text 249 347 vertical-horizontal;
#X obj 167 595 *~ 0.1;
#X obj 665 438 clip~ -1 1;
#X obj 429 607 clip~ -1 1;
#X obj 140 427 clip~ -1 1;
#X obj 366 620 *~ 100;
#X obj 236 618 *~ 0.3;
#X obj 297 618 *~ 0.3;
#X obj 424 452 *~ 0.01425;
#X obj 103 181 inlet~ pluck;
#X obj 870 202 inlet~ bodyres;
#X obj 361 716 outlet~;
#X floatatom 680 221 5 0 0 0 - - -;
#X floatatom 754 225 5 0 0 0 - - -;
#X obj 427 716 outlet~ body-res;
#X obj 14 521 tgl 15 0 empty empty empty 0 -6 0 10 -262144 -1 -1 0
1;
#X msg 9 476 1;
#X msg 40 476 0;
#X floatatom 40 439 5 0 0 0 - - -;
#X obj 40 457 sel 0;
#X obj 41 419 line 1 60000;
#X msg 41 400 1 0 \, 0 60000;
#X obj 14 547 switch~ 1;
#X obj 35 181 inlet bang;
#X obj 39 223 t b b;
#X text 857 320 horizontal plane;
#X obj 638 201 r \$0-sin-magnitude;
#X obj 755 202 r \$0-cos-magnitude;
#X obj 140 452 delwrite~ \$0-low-e-string-del-xz 50;
#X obj 665 460 delwrite~ \$0-low-e-string-del-xy 50;
#X obj 423 101 r \$0-offset;
#X obj 587 390 hip~ 2;
#X obj 666 417 hip~ 2;
#X obj 429 583 hip~ 2;
#X obj 378 583 hip~ 2;
#X obj 140 408 hip~ 2;
#X obj 167 617 lop~ 2000;
#X obj 229 211 lop~ 1500;
#X obj 265 402 lop~ 3000;
#X obj 587 371 lop~ 2625;
#X obj 666 397 lop~ 3750;
#X obj 140 388 lop~ 3375;
#X obj 237 595 lop~ 2250;
#X obj 298 595 lop~ 2250;
#X obj 226 251 *~ 0.59;
#X obj 311 243 *~ 0.42;
#X obj 580 231 *~ 0.393;
#X obj 672 237 *~ 0.6;
#X obj 489 155 inlet~ muting;
#X obj 422 235 /~;
#X obj 374 235 *~;
#X obj 191 284 vd~ \$0-low-e-string-del-xz 24.2698;
#X obj 586 266 vd~ \$0-low-e-string-del-xy 24.2698;
#X obj 242 185 inlet~ delaylength;
#X connect 1 0 7 0;
#X connect 1 0 5 0;
#X connect 2 0 4 0;
#X connect 2 0 6 0;
#X connect 3 0 39 0;
#X connect 4 0 50 0;
#X connect 5 0 19 0;
#X connect 5 0 49 0;
#X connect 6 0 51 0;
#X connect 7 0 52 0;
#X connect 12 0 47 0;
#X connect 13 0 40 0;
#X connect 13 0 54 0;
#X connect 14 0 40 0;
#X connect 15 0 39 0;
#X connect 15 0 53 0;
#X connect 16 0 22 0;
#X connect 17 0 22 0;
#X connect 18 0 22 0;
#X connect 19 0 25 0;
#X connect 20 0 12 0;
#X connect 20 0 48 0;
#X connect 21 0 44 0;
#X connect 26 0 33 0;
#X connect 27 0 26 0;
#X connect 28 0 26 0;
#X connect 29 0 30 0;
#X connect 30 0 28 0;
#X connect 31 0 29 0;
#X connect 32 0 31 0;
#X connect 34 0 35 0;
#X connect 35 0 32 0;
#X connect 35 1 27 0;
#X connect 37 0 1 1;
#X connect 37 0 23 0;
#X connect 38 0 2 1;
#X connect 38 0 24 0;
#X connect 41 0 60 1;
#X connect 41 0 61 1;
#X connect 42 0 3 0;
#X connect 43 0 13 0;
#X connect 44 0 14 0;
#X connect 44 0 16 0;
#X connect 45 0 14 0;
#X connect 46 0 15 0;
#X connect 46 0 19 0;
#X connect 47 0 22 0;
#X connect 48 0 1 0;
#X connect 48 0 2 0;
#X connect 49 0 45 0;
#X connect 50 0 42 0;
#X connect 51 0 43 0;
#X connect 52 0 46 0;
#X connect 53 0 17 0;
#X connect 54 0 18 0;
#X connect 55 0 7 1;
#X connect 56 0 5 1;
#X connect 57 0 4 1;
#X connect 58 0 6 1;
#X connect 59 0 55 0;
#X connect 59 0 56 0;
#X connect 59 0 57 0;
#X connect 59 0 58 0;
#X connect 60 0 63 0;
#X connect 61 0 62 0;
#X connect 62 0 5 0;
#X connect 62 0 7 0;
#X connect 63 0 4 0;
#X connect 63 0 6 0;
#X connect 64 0 60 0;
#X connect 64 0 61 0;
#X restore 356 220 pd low-e-string;
#N canvas 0 25 1016 656 gopluckyourself 0;
#X obj 62 57 noise~;
#X obj 258 -81 inlet bang;
#X obj 129 412 outlet~;
#X obj 241 148 tgl 15 0 empty empty empty 0 -6 0 10 -262144 -1 -1 0
1;
#X msg 236 103 1;
#X msg 267 103 0;
#X floatatom 326 81 5 0 0 0 - - -;
#X obj 326 99 sel 0;
#X obj 143 57 vline~;
#X obj 128 312 *~;
#X obj 15 126 clip~ -1 1;
#X obj 143 88 *~;
#X obj 14 83 *~ 5;
#X obj 50 248 *~ 0.1;
#X obj 241 168 switch~ 64;
#X obj 116 229 vcf~ 15;
#X obj 148 264 *~ 6;
#X msg 326 43 1 0 \, 0 50;
#X obj 326 62 line 1 50;
#X obj 129 350 *~ 1;
#X obj 128 331 lop~ 2000;
#X msg 141 37 1 2 0 \, 0 9 2;
#X obj 240 -54 f 0;
#X obj 286 -53 + 1;
#X obj 239 -34 mod 2;
#X obj 214 -7 t b b f b;
#X obj 211 230 sel 0 1;
#X msg 200 265 3000;
#X msg 240 265 1667;
#X obj 159 148 *~ 1000;
#X obj 160 172 +~ 20;
#X connect 0 0 12 0;
#X connect 1 0 22 0;
#X connect 3 0 14 0;
#X connect 4 0 3 0;
#X connect 5 0 3 0;
#X connect 6 0 7 0;
#X connect 7 0 5 0;
#X connect 8 0 11 0;
#X connect 8 0 11 1;
#X connect 9 0 20 0;
#X connect 10 0 13 0;
#X connect 10 0 15 0;
#X connect 11 0 16 0;
#X connect 11 0 29 0;
#X connect 12 0 10 0;
#X connect 13 0 9 0;
#X connect 15 0 9 0;
#X connect 16 0 9 1;
#X connect 17 0 18 0;
#X connect 18 0 6 0;
#X connect 19 0 2 0;
#X connect 20 0 19 0;
#X connect 21 0 8 0;
#X connect 22 0 23 0;
#X connect 22 0 24 0;
#X connect 23 0 22 1;
#X connect 24 0 25 0;
#X connect 25 0 17 0;
#X connect 25 1 21 0;
#X connect 25 2 26 0;
#X connect 25 3 4 0;
#X connect 26 0 27 0;
#X connect 26 1 28 0;
#X connect 27 0 20 1;
#X connect 28 0 20 1;
#X connect 29 0 30 0;
#X connect 30 0 15 1;
#X restore 357 124 pd gopluckyourself;
#X obj 160 186 tgl 15 0 empty empty empty 0 -6 0 10 -262144 -1 -1 0
1;
#X msg 155 141 1;
#X msg 182 141 0;
#X floatatom 182 104 5 0 0 0 - - -;
#X obj 182 122 sel 0;
#X obj 156 212 switch~ 1;
#N canvas 0 25 995 656 convert-and-trigger 0;
#N canvas 0 0 450 300 midi-to-delay-length 0;
#X obj 33 51 mtof~;
#X obj 33 73 expr~ 1000/$v1;
#X obj 33 94 outlet~;
#X obj 33 31 inlet~;
#X connect 0 0 1 0;
#X connect 1 0 2 0;
#X connect 3 0 0 0;
#X restore 153 270 pd midi-to-delay-length;
#X obj 45 16 inlet;
#X obj 61 672 outlet bang;
#X obj 45 66 t b b f;
#X obj 133 672 outlet pluck-bang;
#X obj 153 243 +~;
#X obj 241 672 outlet~ delay-length;
#X obj 167 192 line~;
#X msg 167 166 \$1 5;
#X text 176 243 this is a signal in case you want to make a bend mechanism
;
#X connect 0 0 6 0;
#X connect 1 0 3 0;
#X connect 3 0 4 0;
#X connect 3 1 2 0;
#X connect 3 2 8 0;
#X connect 5 0 0 0;
#X connect 7 0 5 1;
#X connect 8 0 7 0;
#X restore 284 87 pd convert-and-trigger;
#X obj 580 -120 r \$0-pick-angle;
#N canvas 0 25 1016 640 pick-position-delay-calculator 0;
#N canvas 0 0 450 300 midi-to-delay-length 0;
#X obj 33 51 mtof;
#X obj 33 71 expr 1000/$f1;
#X obj 33 31 inlet;
#X obj 33 92 outlet;
#X connect 0 0 1 0;
#X connect 1 0 3 0;
#X connect 2 0 0 0;
#X restore 141 -99 pd midi-to-delay-length;
#X obj 141 -154 loadbang;
#X obj 141 -23 / 4;
#X floatatom 204 -218 5 0 0 0 - - -;
#X obj 201 -190 t b f;
#X obj 188 -257 r \$0-pick-location;
#X obj 96 104 s \$0-low-e-pick-position-delay;
#X msg 141 -129 28;
#X connect 0 0 2 0;
#X connect 1 0 7 0;
#X connect 2 0 6 0;
#X connect 3 0 4 0;
#X connect 4 0 2 0;
#X connect 4 1 2 1;
#X connect 5 0 3 0;
#X connect 7 0 0 0;
#X restore 349 -119 pd pick-position-delay-calculator;
#X obj 472 87 r \$0-low-e-pick-position-delay;
#X obj 460 359 delwrite~ \$0-from-body 0;
#X obj 433 196 delread~ \$0-from-body 0;
#X obj 559 -32 s \$0-sin-magnitude;
#X obj 675 -32 s \$0-cos-magnitude;
#X obj 265 -6 t b f b;
#X floatatom 265 -93 5 0 0 0 - - -;
#X obj 265 -119 inlet note;
#X obj 461 314 *~ 0.75;
#X msg 182 65 1 0 \, 0 60000;
#X obj 183 84 line 1 60000;
#X obj 865 -34 line~;
#X obj 865 -120 r \$0-muting;
#X connect 1 0 8 0;
#X connect 2 0 7 0;
#X connect 3 0 22 0;
#X connect 4 0 10 1;
#X connect 5 0 4 2;
#X connect 7 0 25 0;
#X connect 8 0 24 0;
#X connect 10 0 0 0;
#X connect 10 1 29 0;
#X connect 11 0 4 1;
#X connect 12 0 17 0;
#X connect 13 0 12 0;
#X connect 14 0 12 0;
#X connect 15 0 16 0;
#X connect 16 0 14 0;
#X connect 18 0 10 0;
#X connect 18 1 11 0;
#X connect 18 1 4 0;
#X connect 18 2 10 2;
#X connect 19 0 2 0;
#X connect 19 0 1 0;
#X connect 21 0 5 0;
#X connect 23 0 10 4;
#X connect 26 0 30 0;
#X connect 26 1 18 0;
#X connect 26 2 13 0;
#X connect 27 0 26 0;
#X connect 28 0 27 0;
#X connect 29 0 3 0;
#X connect 30 0 31 0;
#X connect 31 0 15 0;
#X connect 32 0 10 3;
#X connect 33 0 32 0;
#X restore 23 340 pd delay-writer;
#X obj 290 316 loadbang;
#X obj 46 106 loadbang;
#X text 80 197 radians;
#X text 81 125 pick angle;
#X obj 150 95 vsl 15 128 1 1.004 0 0 \$0-offset \$0-offset1 empty 0
-8 0 10 -262144 -1 -1 0 1;
#X floatatom 150 229 8 0 0 0 - - -;
#X obj 125 54 loadbang;
#X msg 139 73 1;
#X text 108 29 offset two axes;
#X text 107 38 (like a kantele);
#X floatatom 23 307 5 0 0 0 - - -;
#X text 34 285 note;
#X floatatom 263 183 5 0 0 0 - - -;
#X floatatom 68 370 5 0 0 0 - - -;
#X floatatom 144 369 5 0 0 0 - - -;
#X obj 24 485 *~;
#X obj 92 485 *~;
#X floatatom 107 460 5 0 0 0 - - -;
#X floatatom 39 460 5 0 0 0 - - -;
#X obj 156 490 *~;
#X floatatom 171 461 5 0 0 0 - - -;
#X msg 257 120 5;
#X text 152 -22 WAVEGUIDE BASS;
#X obj 39 420 loadbang;
#X msg 39 440 1;
#X obj 107 420 loadbang;
#X obj 171 420 loadbang;
#X msg 171 440 0.1;
#X obj 93 389 hip~ 2000;
#X obj 23 390 lop~ 150;
#X msg 107 440 0.075;
#X obj 98 550 clip~ -1 1;
#X msg 290 335 2.25;
#X text 160 389 some eq;
#X text 178 490 (dry);
#X text 237 488 raise volume and clip;
#X text 221 505 (for a little bite on the attack);
#X text 380 589 sg 2008;
#X connect 0 0 1 0;
#X connect 5 0 4 0;
#X connect 6 0 5 0;
#X connect 8 0 50 0;
#X connect 9 0 8 1;
#X connect 10 0 11 0;
#X connect 11 0 0 0;
#X connect 12 0 6 0;
#X connect 13 0 31 0;
#X connect 17 0 40 0;
#X connect 18 0 48 0;
#X connect 18 0 38 0;
#X connect 18 0 47 0;
#X connect 19 0 51 0;
#X connect 20 0 12 0;
#X connect 23 0 24 0;
#X connect 25 0 26 0;
#X connect 26 0 23 0;
#X connect 29 0 18 0;
#X connect 32 0 48 1;
#X connect 33 0 47 1;
#X connect 34 0 8 0;
#X connect 35 0 8 0;
#X connect 36 0 35 1;
#X connect 37 0 34 1;
#X connect 38 0 8 0;
#X connect 39 0 38 1;
#X connect 40 0 13 0;
#X connect 42 0 43 0;
#X connect 43 0 37 0;
#X connect 44 0 49 0;
#X connect 45 0 46 0;
#X connect 46 0 39 0;
#X connect 47 0 35 0;
#X connect 48 0 34 0;
#X connect 49 0 36 0;
#X connect 50 0 3 0;
#X connect 50 0 3 1;
#X connect 51 0 9 0;
