#N canvas 574 482 801 568 10;
#X text 308 285 trg lvl att dec sus% rel;
#X obj 124 409 *~;
#X obj 41 230 clip~ -1 1;
#X obj 42 142 mtof;
#X obj 41 176 phasor~;
#X obj 41 205 *~ 1;
#X text 54 159 tone;
#X obj 125 169 osc~;
#X obj 125 191 *~ 100;
#X obj 125 215 clip~ -1 1;
#X obj 125 122 + 0.1;
#X obj 125 147 mtof;
#X obj 40 42 stripnote;
#X obj 124 238 *~ 0.1;
#N canvas 633 139 468 455 filter 0;
#X obj 64 383 outlet~;
#X obj 62 24 inlet~;
#X obj 96 47 s-midictl 5 4;
#X obj 152 68 s-midictl 41 4;
#X obj 97 302 +~;
#X obj 97 233 line~;
#X msg 97 201 \$1 10;
#X msg 153 201 \$1 10;
#X obj 153 233 line~;
#X obj 113 183 init 22050;
#X obj 190 180 init 1;
#X obj 152 153 exp;
#X obj 153 94 - 64;
#X obj 152 120 / 16;
#X obj 95 97 d-mtof;
#X obj 267 37 inlet~;
#X obj 301 86 s-midictl 21 4;
#X obj 299 232 line~;
#X msg 299 194 \$1 10;
#X obj 298 150 d-mtof;
#X obj 260 257 *~;
#X text 110 29 cutoff;
#X text 193 48 q;
#X text 303 71 env mod;
#X obj 301 112 / 1.5;
#X obj 360 10 inlet;
#X obj 334 33 route cutoff q mod;
#X obj 243 386 iem_cot4~;
#X obj 64 358 vcf_filter~ lp2;
#X obj 97 329 iem_cot~;
#X obj 208 340 vcf_lp2~;
#X connect 1 0 28 0;
#X connect 2 0 14 0;
#X connect 3 0 12 0;
#X connect 4 0 29 0;
#X connect 5 0 4 0;
#X connect 6 0 5 0;
#X connect 7 0 8 0;
#X connect 8 0 28 2;
#X connect 9 0 6 0;
#X connect 10 0 7 0;
#X connect 11 0 7 0;
#X connect 12 0 13 0;
#X connect 13 0 11 0;
#X connect 14 0 6 0;
#X connect 15 0 20 0;
#X connect 16 0 24 0;
#X connect 17 0 20 1;
#X connect 18 0 17 0;
#X connect 19 0 18 0;
#X connect 20 0 4 1;
#X connect 24 0 19 0;
#X connect 25 0 26 0;
#X connect 26 0 14 0;
#X connect 26 1 12 0;
#X connect 26 2 24 0;
#X connect 28 0 0 0;
#X connect 29 0 28 1;
#X restore 125 362 pd filter;
#X floatatom 498 208 5 0 0 0 - - -;
#X floatatom 389 246 5 0 0 0 - - -;
#X obj 389 215 *;
#X obj 386 168 / 3;
#X obj 497 125 / 3;
#X obj 495 177 *;
#X floatatom 341 243 5 0 0 0 - - -;
#X obj 341 212 *;
#X obj 338 165 / 3;
#X obj 341 327 vsl 15 128 0 127 0 0 empty empty empty 0 -9 0 10 -262144
-1 -1 5500 1;
#X obj 361 327 vsl 15 128 0 127 0 0 empty empty empty 0 -9 0 10 -262144
-1 -1 8200 1;
#X obj 381 327 vsl 15 128 0 127 0 0 empty empty empty 0 -9 0 10 -262144
-1 -1 11100 1;
#X msg 161 325 cutoff \$1;
#X msg 200 342 q \$1;
#X msg 220 361 mod \$1;
#X obj 427 327 vsl 15 128 0 127 0 0 empty empty empty 0 -9 0 10 -262144
-1 -1 900 1;
#X obj 447 327 vsl 15 128 0 127 0 0 empty empty empty 0 -9 0 10 -262144
-1 -1 10200 1;
#X obj 468 326 vsl 15 128 0 127 0 0 empty empty empty 0 -9 0 10 -262144
-1 -1 3300 1;
#X obj 493 326 vsl 15 128 0 127 0 0 empty empty empty 0 -9 0 10 -262144
-1 -1 7600 1;
#X obj 425 245 / 127;
#X obj 38 100 - 12;
#X obj 702 327 loadbang;
#X floatatom 331 485 5 0 0 0 - - -;
#X floatatom 376 485 5 0 0 0 - - -;
#X floatatom 416 487 5 0 0 0 - - -;
#X floatatom 462 487 5 0 0 0 - - -;
#X floatatom 499 487 5 0 0 0 - - -;
#X floatatom 539 487 5 0 0 0 - - -;
#X floatatom 581 491 5 0 0 0 - - -;
#X msg 604 344 9;
#X msg 625 317 102;
#X msg 619 258 33;
#X msg 615 281 76;
#X msg 626 379 111;
#X msg 611 417 82;
#X obj 123 513 outlet~;
#X obj 103 14 inlet;
#X obj 41 17 inlet;
#X floatatom 88 73 5 0 0 0 - - -;
#X floatatom 155 68 5 0 0 0 - - -;
#X msg 603 451 55;
#X obj 308 302 rc-adsr~_ 1 10 1 100 1000;
#X connect 1 0 50 0;
#X connect 2 0 14 0;
#X connect 3 0 4 0;
#X connect 4 0 5 0;
#X connect 5 0 2 0;
#X connect 7 0 8 0;
#X connect 8 0 9 0;
#X connect 9 0 13 0;
#X connect 10 0 11 0;
#X connect 11 0 7 0;
#X connect 12 0 35 0;
#X connect 12 0 53 0;
#X connect 13 0 14 0;
#X connect 14 0 1 0;
#X connect 17 0 16 0;
#X connect 17 0 56 3;
#X connect 18 0 17 1;
#X connect 18 0 17 0;
#X connect 19 0 20 1;
#X connect 19 0 20 0;
#X connect 20 0 15 0;
#X connect 20 0 56 5;
#X connect 22 0 21 0;
#X connect 22 0 56 2;
#X connect 23 0 22 1;
#X connect 23 0 22 0;
#X connect 24 0 27 0;
#X connect 24 0 37 0;
#X connect 25 0 28 0;
#X connect 25 0 38 0;
#X connect 26 0 29 0;
#X connect 26 0 39 0;
#X connect 27 0 14 2;
#X connect 28 0 14 2;
#X connect 29 0 14 2;
#X connect 30 0 23 0;
#X connect 30 0 40 0;
#X connect 31 0 18 0;
#X connect 31 0 41 0;
#X connect 32 0 34 0;
#X connect 32 0 42 0;
#X connect 33 0 19 0;
#X connect 33 0 43 0;
#X connect 34 0 56 4;
#X connect 35 0 3 0;
#X connect 35 0 10 0;
#X connect 36 0 46 0;
#X connect 36 0 47 0;
#X connect 36 0 45 0;
#X connect 36 0 44 0;
#X connect 36 0 48 0;
#X connect 36 0 49 0;
#X connect 36 0 55 0;
#X connect 44 0 30 0;
#X connect 45 0 31 0;
#X connect 46 0 32 0;
#X connect 47 0 33 0;
#X connect 48 0 26 0;
#X connect 49 0 25 0;
#X connect 51 0 12 1;
#X connect 51 0 54 0;
#X connect 52 0 12 0;
#X connect 54 0 56 0;
#X connect 55 0 24 0;
#X connect 56 0 1 1;
#X connect 56 0 14 1;
