#N canvas 752 126 728 628 10;
#X floatatom 68 143 5 0 0 0 - - -;
#X floatatom 130 133 5 0 0 0 - - -;
#X obj 68 341 *~;
#X obj 68 370 rc-chan~ ka;
#X obj 68 194 rc-sawosc~ c;
#X obj 186 195 rc-adsr~ a;
#N canvas 121 284 730 520 drums 0;
#X obj 361 301 rc-chan~ c-hat;
#X obj 24 306 rc-chan~ c-kick;
#X obj 189 302 rc-chan~ c-snare;
#X obj 534 302 rc-chan~ c-tom;
#X obj 24 33 inlet;
#X obj 69 52 inlet;
#X obj 24 77 pack f f;
#X obj 24 108 route 60 61 62 63 64;
#X obj 24 164 rc-808bass~ kick;
#X obj 189 165 rc-808snare~;
#X obj 362 171 rc-808hihat~;
#X obj 534 170 rc-808cymbal~;
#X obj 286 498 rc-throw2~;
#X connect 0 0 12 0;
#X connect 0 1 12 1;
#X connect 1 0 12 0;
#X connect 1 1 12 1;
#X connect 2 0 12 0;
#X connect 2 1 12 1;
#X connect 3 0 12 0;
#X connect 3 1 12 1;
#X connect 4 0 6 0;
#X connect 5 0 6 1;
#X connect 6 0 7 0;
#X connect 7 0 8 0;
#X connect 7 1 9 0;
#X connect 7 2 10 1;
#X connect 7 3 11 0;
#X connect 8 0 1 0;
#X connect 9 0 2 0;
#X connect 10 0 0 0;
#X connect 10 1 0 0;
#X connect 11 0 3 0;
#X restore 326 88 pd drums;
#X obj 439 159 sssad/datastore;
#X obj 439 114 loadbang;
#X msg 439 137 load;
#X text 478 135 save state;
#N canvas 519 196 763 724 datastore 0;
#X obj 10 10 r SSSADDATA;
#X msg 10 30 \; SSSAD metro/eofstop 1 \; SSSAD metro/bpm 120 \; SSSAD
metro/ticksperbeat 4 \; SSSAD metro/filename /home/dano/test_export.mid
\; SSSAD \$1/speed 1.46928 \; SSSAD \$1/ticksperbeat 4 \; SSSAD \$1/bpm
120 \; SSSAD c-tom/pan 0.5 \; SSSAD c-tom/mute 0 \; SSSAD c-tom/amp
100.165 \; SSSAD c-snare/pan 0.5 \; SSSAD c-snare/mute 0 \; SSSAD c-snare/amp
91.15 \; SSSAD c-kick/pan 0.5 \; SSSAD c-kick/mute 0 \; SSSAD c-kick/amp
79 \; SSSAD c-hat/pan 0.5 \; SSSAD c-hat/mute 0 \; SSSAD c-hat/amp
85.23 \; SSSAD kick/reverse 0 \; SSSAD kick/speed 1 \; SSSAD kick/filename
/usr/local/share/rc-drums/909/909 kik brr.wav \; SSSAD snare/reverse
0 \; SSSAD snare/speed 1 \; SSSAD snare/filename /usr/local/share/rc-drums/909/909
lo sn.wav \; SSSAD hat/reverse 0 \; SSSAD hat/speed 1 \; SSSAD hat/filename
/usr/local/share/rc-drums/808/808 c_hat.wav \; SSSAD tom/reverse 0
\; SSSAD tom/speed 1 \; SSSAD tom/filename /usr/local/share/rc-drums/808/808
tom lo.wav \; SSSAD a/R 1072.46 \; SSSAD a/S 62.3188 \; SSSAD a/D 318.841
\; SSSAD a/A 34.7826 \; SSSAD a/amp 0.246377 \; SSSAD c/amp 0.637681
\; SSSAD c/detune -7 \; SSSAD ka/pan 0.5 \; SSSAD ka/mute 0 \; SSSAD
ka/amp 84 \; SSSAD_ADMIN set \; SSSAD /hlp/bd/tune 0.862319 \; SSSAD
/hlp/bd/decay 0.775362 \; SSSAD /hlp/bd/tone 0.23913 \; SSSAD /hlp/bd/amp
0.688406 \; SSSAD metro/eofstop 1 \; SSSAD metro/bpm 120 \; SSSAD metro/ticksperbeat
4 \; SSSAD metro/filename /home/dano/test_export.mid \; SSSAD \$1/speed
1.46928 \; SSSAD \$1/ticksperbeat 4 \; SSSAD \$1/bpm 120 \; SSSAD c-tom/pan
0.5 \; SSSAD c-tom/mute 0 \; SSSAD c-tom/amp 100.165 \; SSSAD c-snare/pan
0.640351 \; SSSAD c-snare/mute 0 \; SSSAD c-snare/amp 82.15 \; SSSAD
c-kick/pan 0.5 \; SSSAD c-kick/mute 0 \; SSSAD c-kick/amp 79 \; SSSAD
c-hat/pan 0.359649 \; SSSAD c-hat/mute 0 \; SSSAD c-hat/amp 89.23 \;
SSSAD tom/reverse 0 \; SSSAD tom/speed 1 \; SSSAD tom/filename /usr/local/share/rc-drums/808/808
tom lo.wav \; SSSAD a/R 1072.46 \; SSSAD a/S 62.3188 \; SSSAD a/D 318.841
\; SSSAD a/A 34.7826 \; SSSAD a/amp 0.246377 \; SSSAD c/amp 0.637681
\; SSSAD c/detune -7 \; SSSAD ka/pan 0.5 \; SSSAD ka/mute 0 \; SSSAD
ka/amp 56 \; SSSAD \$1/snappy 0.5 \; SSSAD \$1/tune 0.5 \; SSSAD \$1/tone
0.5 \; SSSAD \$1/amp 0.5 \; SSSAD /hlp/sd/snappy 0.630435 \; SSSAD
/hlp/sd/tune 0.775362 \; SSSAD /hlp/sd/tone 0.210145 \; SSSAD /hlp/sd/amp
0.702899 \; SSSAD kick/tune 0.5 \; SSSAD kick/decay 0.5 \; SSSAD kick/tone
0.5 \; SSSAD kick/amp 0.5 \; SSSAD metro/eofstop 1 \; SSSAD metro/bpm
120 \; SSSAD metro/ticksperbeat 4 \; SSSAD metro/filename /home/dano/test_export.mid
\; SSSAD \$1/speed 1.46928 \; SSSAD \$1/ticksperbeat 4 \; SSSAD \$1/bpm
120 \; SSSAD c-tom/pan 0.5 \; SSSAD c-tom/mute 0 \; SSSAD c-tom/amp
100.165 \; SSSAD c-snare/pan 0.640351 \; SSSAD c-snare/mute 0 \; SSSAD
c-snare/amp 82.15 \; SSSAD c-kick/pan 0.5 \; SSSAD c-kick/mute 0 \;
SSSAD c-kick/amp 79 \; SSSAD c-hat/pan 0.359649 \; SSSAD c-hat/mute
0 \; SSSAD c-hat/amp 89.23 \; SSSAD tom/reverse 0 \; SSSAD tom/speed
1 \; SSSAD tom/filename /usr/local/share/rc-drums/808/808 tom lo.wav
\; SSSAD a/R 1072.46 \; SSSAD a/S 62.3188 \; SSSAD a/D 318.841 \; SSSAD
a/A 34.7826 \; SSSAD a/amp 0.246377 \; SSSAD c/amp 0.637681 \; SSSAD
c/detune -7 \; SSSAD ka/pan 0.5 \; SSSAD ka/mute 0 \; SSSAD ka/amp
56 \;;
#X connect 0 0 1 0;
#X restore 439 228 pd datastore;
#X obj 244 450 midifile;
#X floatatom 296 479 5 0 0 0 - - -;
#X obj 355 483 bng 15 250 50 0 empty empty empty 17 7 0 10 -262144
-1 -1;
#X obj 259 383 tgl 15 0 empty empty empty 17 7 0 10 -262144 -1 -1 0
1;
#X msg 327 410 rewind;
#X msg 392 477 0;
#X obj 18 -12 ctlin;
#X floatatom 326 64 5 0 0 0 - - -;
#X floatatom 379 64 5 0 0 0 - - -;
#X msg 191 143 0;
#X obj 259 410 metro 3;
#X obj 206 384 bng 15 250 50 0 empty empty empty 17 7 0 10 -262144
-1 -1;
#X msg 383 309 verbose \$1;
#X text 428 289 verbosity defaults to 1;
#X floatatom 383 292 5 0 0 0 - - -;
#X obj 383 277 hradio 15 1 1 4 empty empty verbosity 0 -6 0 12 -62784
-241291 -1 2;
#X msg 331 384 2.005;
#X msg 401 384 2.4;
#X msg 479 399 dump 1;
#N canvas 122 192 450 300 bpm2tick 0;
#X obj 43 30 inlet;
#X obj 43 202 outlet;
#X text 161 67 1 tick = 768 ms;
#X obj 43 75 expr 60000 / $f1;
#X obj 43 158 / 192;
#X connect 0 0 3 0;
#X connect 3 0 4 0;
#X connect 4 0 1 0;
#X restore 441 535 pd bpm2tick;
#X msg 430 352 2.6;
#X floatatom 447 496 5 0 0 0 - - -;
#X msg 475 458 120;
#X floatatom 443 569 5 0 0 0 - - -;
#X msg 223 347 read /home/dano/test_export.mid;
#X obj 326 39 rc-notein 1;
#X obj 237 56 rc-ctlin;
#X floatatom 229 106 5 0 0 0 - - -;
#X floatatom 272 114 5 0 0 0 - - -;
#X floatatom 310 109 5 0 0 0 - - -;
#X floatatom 15 20 5 0 0 0 - - -;
#X floatatom 57 18 5 0 0 0 - - -;
#X floatatom 101 19 5 0 0 0 - - -;
#X obj 195 -13 pgmin;
#X floatatom 189 11 5 0 0 0 - - -;
#X floatatom 228 15 5 0 0 0 - - -;
#X floatatom 456 42 5 0 0 0 - - -;
#X floatatom 495 46 5 0 0 0 - - -;
#X obj 462 18 rc-pgmin;
#X obj 338 156 notein 1;
#X floatatom 345 188 5 0 0 0 - - -;
#X floatatom 383 187 5 0 0 0 - - -;
#X obj 550 503 s-metro;
#X obj 342 513 bng 15 250 50 0 empty empty empty 17 7 0 10 -262144
-1 -1;
#X obj 556 182 rc-sample~;
#X obj 68 91 rc-notein 2;
#X obj 304 -13 r metro/midi;
#X obj 244 537 s metro/midi;
#X obj 68 65 r metro/midi;
#X obj 678 457 bng 15 250 50 0 empty empty empty 17 7 0 10 -262144
-1 -1;
#X floatatom 611 456 5 0 0 0 - - -;
#N canvas 0 0 450 300 tick2pbm 0;
#X obj 94 143 * 192;
#X obj 113 213 * 60000;
#X obj 120 271 outlet;
#X obj 73 71 inlet;
#X connect 0 0 1 0;
#X connect 1 0 2 0;
#X connect 3 0 0 0;
#X restore 326 576 pd tick2pbm;
#X floatatom 248 588 5 0 0 0 - - -;
#X msg 508 313 load /home/dano/test_export.mid;
#X obj 545 337 rc-midimetro metro;
#X floatatom 545 456 5 0 0 0 - - -;
#X obj 69 556 rc-throw~;
#X connect 0 0 4 0;
#X connect 1 0 5 0;
#X connect 2 0 3 0;
#X connect 3 0 68 0;
#X connect 4 0 2 0;
#X connect 5 0 2 1;
#X connect 8 0 9 0;
#X connect 9 0 7 0;
#X connect 12 0 59 0;
#X connect 12 1 13 0;
#X connect 12 2 14 0;
#X connect 12 2 55 0;
#X connect 14 0 17 0;
#X connect 14 0 16 0;
#X connect 15 0 22 0;
#X connect 16 0 12 0;
#X connect 17 0 15 0;
#X connect 18 0 42 0;
#X connect 18 1 43 0;
#X connect 18 2 44 0;
#X connect 19 0 6 0;
#X connect 20 0 6 1;
#X connect 21 0 5 0;
#X connect 22 0 12 0;
#X connect 23 0 12 0;
#X connect 24 0 12 0;
#X connect 26 0 24 0;
#X connect 27 0 26 0;
#X connect 28 0 22 1;
#X connect 29 0 22 1;
#X connect 30 0 12 0;
#X connect 31 0 22 1;
#X connect 31 0 35 0;
#X connect 32 0 22 1;
#X connect 33 0 31 0;
#X connect 34 0 33 0;
#X connect 35 0 63 0;
#X connect 36 0 12 0;
#X connect 37 0 19 0;
#X connect 37 1 20 0;
#X connect 38 0 39 0;
#X connect 38 1 40 0;
#X connect 38 2 41 0;
#X connect 45 0 46 0;
#X connect 45 1 47 0;
#X connect 50 0 48 0;
#X connect 50 1 49 0;
#X connect 51 0 52 0;
#X connect 51 1 53 0;
#X connect 57 0 0 0;
#X connect 57 1 1 0;
#X connect 58 0 37 0;
#X connect 58 0 38 0;
#X connect 58 0 50 0;
#X connect 60 0 57 0;
#X connect 63 0 64 0;
#X connect 65 0 66 0;
#X connect 66 0 67 0;
#X connect 66 1 62 0;
#X connect 66 2 61 0;
