#N canvas 748 106 619 427 10;
#X text 304 286 trg lvl att dec sus% rel;
#X obj 196 346 *~;
#X obj 395 224 *;
#X obj 395 193 / 3;
#X obj 517 195 / 3;
#X obj 517 228 *;
#X obj 333 224 *;
#X obj 333 193 / 3;
#X obj 196 401 outlet~;
#X obj 18 143 moses 1;
#X obj 116 136 clip 0 1;
#X obj 177 136 clip 0 1;
#X obj 246 138 clip 0 1;
#X obj 333 138 clip 0 1;
#X obj 395 138 clip 0 1;
#X obj 452 138 clip 0 1;
#X obj 517 140 clip 0 1;
#X obj 217 23 inlet note control;
#X obj 510 21 inlet vel;
#X obj 510 74 s \$0-vel;
#X obj 510 48 clip 0 127;
#X obj 279 266 r \$0-vel;
#N canvas 810 107 323 297 phasor 0;
#X obj 80 83 mtof;
#X obj 80 124 phasor~;
#X text 122 98 tone;
#X obj 163 126 osc~;
#X obj 163 148 *~ 100;
#X obj 163 172 clip~ -1 1;
#X obj 163 79 + 0.1;
#X obj 163 104 mtof;
#X obj 163 195 *~ 0.1;
#X obj 80 35 inlet;
#X obj 80 239 outlet~;
#X obj 80 200 clip~ -1 1;
#X obj 80 150 -~ 0.5;
#X obj 80 174 *~ 2;
#X connect 0 0 1 0;
#X connect 1 0 12 0;
#X connect 3 0 4 0;
#X connect 4 0 5 0;
#X connect 5 0 8 0;
#X connect 6 0 7 0;
#X connect 7 0 3 0;
#X connect 8 0 10 0;
#X connect 9 0 6 0;
#X connect 9 0 0 0;
#X connect 11 0 10 0;
#X connect 12 0 13 0;
#X connect 13 0 11 0;
#X restore 18 177 pd phasor osc;
#X text 302 346 Dan Wilcox 2009;
#X text 7 357 damian@frey.co.nz;
#X text 7 342 damian stewart 2008;
#X text 10 388 GPL v3;
#X text 9 313 d-303;
#X text 302 382 adapted from a prerelease of d-303;
#X text 302 397 which is under GPL v3 which means this is GPL v3;
#X text 45 14 a tr303 emulation;
#X obj 333 167 * 127;
#X obj 395 164 * 127;
#X obj 517 167 * 127;
#N canvas 700 81 472 305 defaults 0;
#X obj 115 31 inlet;
#X obj 157 254 outlet;
#X msg 272 128 a 0.07;
#X msg 257 187 s 0.259;
#X msg 247 219 r 0.598;
#X msg 123 155 q 0.645;
#X msg 157 129 mod 0.874;
#X obj 157 70 t b;
#X obj 194 41 loadbang;
#X msg 271 157 d 0.253;
#X msg 81 186 cutoff 0.724;
#X connect 0 0 7 0;
#X connect 2 0 1 0;
#X connect 3 0 1 0;
#X connect 4 0 1 0;
#X connect 5 0 1 0;
#X connect 6 0 1 0;
#X connect 7 0 10 0;
#X connect 7 0 5 0;
#X connect 7 0 6 0;
#X connect 7 0 2 0;
#X connect 7 0 9 0;
#X connect 7 0 3 0;
#X connect 7 0 4 0;
#X connect 8 0 7 0;
#X connect 9 0 1 0;
#X connect 10 0 1 0;
#X restore 345 23 pd defaults;
#X text 25 101 no 0 notes;
#X obj 217 52 route float cutoff q mod a d s r reset;
#X obj 452 257 * 100;
#X text 301 358 danomatika.com | robotcowboy.com;
#X obj 116 164 * 127;
#X obj 116 191 mtof;
#X obj 225 231 *~ 1;
#X obj 304 303 rc-adsr~_ 1 10 100 50 1000;
#X obj 138 309 rc-lp~_ 2000 0.5;
#X obj 116 216 + 200;
#X obj 196 375 *~ 2;
#X connect 1 0 45 0;
#X connect 2 0 42 3;
#X connect 3 0 2 1;
#X connect 3 0 2 0;
#X connect 4 0 5 1;
#X connect 4 0 5 0;
#X connect 5 0 42 5;
#X connect 6 0 42 2;
#X connect 7 0 6 1;
#X connect 7 0 6 0;
#X connect 9 1 22 0;
#X connect 10 0 39 0;
#X connect 11 0 43 3;
#X connect 12 0 41 1;
#X connect 13 0 31 0;
#X connect 14 0 32 0;
#X connect 15 0 37 0;
#X connect 16 0 33 0;
#X connect 17 0 36 0;
#X connect 18 0 20 0;
#X connect 20 0 19 0;
#X connect 21 0 42 0;
#X connect 22 0 43 0;
#X connect 31 0 7 0;
#X connect 32 0 3 0;
#X connect 33 0 4 0;
#X connect 34 0 36 0;
#X connect 36 0 9 0;
#X connect 36 1 10 0;
#X connect 36 2 11 0;
#X connect 36 3 12 0;
#X connect 36 4 13 0;
#X connect 36 5 14 0;
#X connect 36 6 15 0;
#X connect 36 7 16 0;
#X connect 36 8 34 0;
#X connect 37 0 42 4;
#X connect 39 0 40 0;
#X connect 40 0 44 0;
#X connect 41 0 43 1;
#X connect 42 0 1 1;
#X connect 42 0 41 0;
#X connect 43 0 1 0;
#X connect 44 0 43 2;
#X connect 45 0 8 0;
