#N canvas 73 94 619 427 10;
#X text 304 286 trg lvl att dec sus% rel;
#X obj 196 370 *~;
#X obj 18 86 stripnote;
#N canvas 518 89 417 519 filter 0;
#X obj 34 479 outlet~;
#X obj 67 390 +~;
#X obj 68 349 line~;
#X msg 68 313 \$1 10;
#X msg 144 195 \$1 10;
#X obj 144 223 line~;
#X obj 76 250 init 22050;
#X obj 174 169 init 1;
#X obj 144 168 exp;
#X obj 144 116 - 64;
#X obj 144 142 / 16;
#X obj 246 218 line~;
#X msg 246 190 \$1 10;
#X obj 231 247 *~;
#X text 84 276 cutoff;
#X text 189 135 q;
#X text 296 186 env mod;
#X obj 246 134 / 1.5;
#X obj 109 82 route cutoff q mod;
#X obj 196 434 iem_cot4~;
#X obj 67 417 iem_cot~;
#X obj 34 454 vcf_filter~ lp2;
#N canvas 275 303 145 199 d-mtof 0;
#X obj 30 15 inlet;
#X obj 30 44 + 32;
#X obj 30 70 / 16;
#X obj 29 95 exp;
#X obj 28 127 outlet;
#X floatatom 26 164 8 0 0 0 - - -;
#X connect 0 0 1 0;
#X connect 1 0 2 0;
#X connect 2 0 3 0;
#X connect 3 0 4 0;
#X connect 3 0 5 0;
#X restore 246 162 pd d-mtof;
#N canvas 361 704 145 199 d-mtof 0;
#X obj 30 15 inlet;
#X obj 30 44 + 32;
#X obj 30 70 / 16;
#X obj 29 95 exp;
#X obj 28 127 outlet;
#X floatatom 26 164 8 0 0 0 - - -;
#X connect 0 0 1 0;
#X connect 1 0 2 0;
#X connect 2 0 3 0;
#X connect 3 0 4 0;
#X connect 3 0 5 0;
#X restore 68 219 pd d-mtof;
#X obj 232 27 inlet~ env;
#X obj 307 27 inlet control;
#X obj 35 29 inlet~ audio;
#X floatatom 235 359 5 0 0 0 - - -;
#X obj 236 327 d-mtof;
#X connect 1 0 20 0;
#X connect 2 0 1 0;
#X connect 3 0 2 0;
#X connect 4 0 5 0;
#X connect 5 0 21 2;
#X connect 6 0 3 0;
#X connect 7 0 4 0;
#X connect 8 0 4 0;
#X connect 9 0 10 0;
#X connect 10 0 8 0;
#X connect 11 0 13 1;
#X connect 12 0 11 0;
#X connect 13 0 1 1;
#X connect 17 0 22 0;
#X connect 18 0 23 0;
#X connect 18 0 28 0;
#X connect 18 1 9 0;
#X connect 18 2 17 0;
#X connect 20 0 21 1;
#X connect 21 0 0 0;
#X connect 22 0 12 0;
#X connect 23 0 3 0;
#X connect 24 0 13 0;
#X connect 25 0 18 0;
#X connect 26 0 21 0;
#X connect 28 0 27 0;
#X restore 135 345 pd filter;
#X obj 395 224 *;
#X obj 395 193 / 3;
#X obj 517 195 / 3;
#X obj 517 228 *;
#X obj 333 224 *;
#X obj 333 193 / 3;
#X msg 116 188 cutoff \$1;
#X msg 186 188 q \$1;
#X msg 247 188 mod \$1;
#X obj 195 401 outlet~;
#X obj 18 143 moses 1;
#X obj 116 136 clip 0 1;
#X obj 186 138 clip 0 1;
#X obj 247 138 clip 0 1;
#X obj 333 138 clip 0 1;
#X obj 395 138 clip 0 1;
#X obj 452 138 clip 0 1;
#X obj 517 140 clip 0 1;
#X obj 217 23 inlet note control;
#X obj 510 21 inlet vel;
#X obj 510 74 s \$0-vel;
#X obj 69 55 r \$0-vel;
#X obj 510 48 clip 0 127;
#X obj 279 266 r \$0-vel;
#N canvas 0 0 323 297 phasor 0;
#X obj 79 193 clip~ -1 1;
#X obj 80 83 mtof;
#X obj 80 124 phasor~;
#X obj 79 163 *~ 1;
#X text 122 98 tone;
#X obj 163 126 osc~;
#X obj 163 148 *~ 100;
#X obj 163 172 clip~ -1 1;
#X obj 163 79 + 0.1;
#X obj 163 104 mtof;
#X obj 162 195 *~ 0.1;
#X obj 80 35 inlet;
#X obj 78 237 outlet~;
#X connect 0 0 12 0;
#X connect 1 0 2 0;
#X connect 2 0 3 0;
#X connect 3 0 0 0;
#X connect 5 0 6 0;
#X connect 6 0 7 0;
#X connect 7 0 10 0;
#X connect 8 0 9 0;
#X connect 9 0 5 0;
#X connect 10 0 12 0;
#X connect 11 0 8 0;
#X connect 11 0 1 0;
#X restore 18 177 pd phasor osc;
#X text 302 346 Dan Wilcox 2009;
#X text 7 357 damian@frey.co.nz;
#X text 7 342 damian stewart 2008;
#X text 10 388 GPL v3;
#X text 9 313 d-303;
#X text 302 382 adapted from a prerelease of d-303;
#X text 302 397 which is under GPL v3 which means this is GPL v3;
#X text 45 14 a tr303 emulation;
#X obj 333 167 * 127;
#X obj 395 164 * 127;
#X obj 517 167 * 127;
#X obj 116 162 * 127;
#X obj 186 163 * 127;
#X obj 247 163 * 127;
#N canvas 700 81 472 305 defaults 0;
#X obj 115 31 inlet;
#X obj 157 254 outlet;
#X msg 272 128 a 0.07;
#X msg 257 187 s 0.259;
#X msg 247 219 r 0.598;
#X msg 81 186 cutoff 0.433;
#X msg 123 155 q 0.645;
#X msg 157 129 mod 0.874;
#X obj 157 70 t b;
#X obj 194 41 loadbang;
#X msg 271 157 d 0.253;
#X connect 0 0 8 0;
#X connect 2 0 1 0;
#X connect 3 0 1 0;
#X connect 4 0 1 0;
#X connect 5 0 1 0;
#X connect 6 0 1 0;
#X connect 7 0 1 0;
#X connect 8 0 5 0;
#X connect 8 0 6 0;
#X connect 8 0 7 0;
#X connect 8 0 2 0;
#X connect 8 0 10 0;
#X connect 8 0 3 0;
#X connect 8 0 4 0;
#X connect 9 0 8 0;
#X connect 10 0 1 0;
#X restore 345 23 pd defaults;
#X text 34 123 no 0 notes;
#X obj 217 52 route float cutoff q mod a d s r reset;
#X obj 304 303 rc-adsr~_ 1 10 100 50 1000;
#X obj 452 257 * 100;
#X text 301 358 danomatika.com | robotcowboy.com;
#X connect 1 0 13 0;
#X connect 2 0 14 0;
#X connect 3 0 1 0;
#X connect 4 0 46 3;
#X connect 5 0 4 1;
#X connect 5 0 4 0;
#X connect 6 0 7 1;
#X connect 6 0 7 0;
#X connect 7 0 46 5;
#X connect 8 0 46 2;
#X connect 9 0 8 1;
#X connect 9 0 8 0;
#X connect 10 0 3 2;
#X connect 11 0 3 2;
#X connect 12 0 3 2;
#X connect 14 1 28 0;
#X connect 15 0 40 0;
#X connect 16 0 41 0;
#X connect 17 0 42 0;
#X connect 18 0 37 0;
#X connect 19 0 38 0;
#X connect 20 0 47 0;
#X connect 21 0 39 0;
#X connect 22 0 45 0;
#X connect 23 0 26 0;
#X connect 25 0 2 1;
#X connect 26 0 24 0;
#X connect 27 0 46 0;
#X connect 28 0 3 0;
#X connect 37 0 9 0;
#X connect 38 0 5 0;
#X connect 39 0 6 0;
#X connect 40 0 10 0;
#X connect 41 0 11 0;
#X connect 42 0 12 0;
#X connect 43 0 45 0;
#X connect 45 0 2 0;
#X connect 45 1 15 0;
#X connect 45 2 16 0;
#X connect 45 3 17 0;
#X connect 45 4 18 0;
#X connect 45 5 19 0;
#X connect 45 6 20 0;
#X connect 45 7 21 0;
#X connect 45 8 43 0;
#X connect 46 0 1 1;
#X connect 46 0 3 1;
#X connect 47 0 46 4;
