#N canvas 1040 378 535 388 10;
#X obj 16 304 outlet~;
#N canvas 257 212 459 426 mix 0;
#X obj 348 304 *~;
#X floatatom 363 211 5 0 1 0 - - -;
#X obj 79 306 *~;
#X floatatom 94 198 5 0 1 0 - - -;
#X obj 78 344 +~;
#X obj 348 65 inlet~;
#X obj 80 29 inlet~;
#X obj 77 375 outlet~;
#X obj 363 186 r \$0-wet;
#X obj 94 173 r \$0-dry;
#X obj 94 234 f;
#X obj 171 31 r \$0-onoff;
#X obj 94 261 spigot;
#X msg 171 264 1;
#X obj 363 266 spigot;
#X obj 363 235 f;
#X msg 228 262 0;
#X obj 171 76 sel 0;
#X msg 265 173 bang;
#X obj 265 93 t b b;
#X msg 292 118 1;
#X obj 171 114 t b b;
#X msg 198 143 0;
#X text 404 67 wet;
#X text 123 28 dry;
#X obj 235 58 loadbang;
#X text 167 358 turn mix on and off;
#X text 169 375 turns dry to 1 when off;
#X connect 0 0 4 1;
#X connect 1 0 15 0;
#X connect 2 0 4 0;
#X connect 3 0 10 0;
#X connect 4 0 7 0;
#X connect 5 0 0 0;
#X connect 6 0 2 0;
#X connect 8 0 1 0;
#X connect 9 0 3 0;
#X connect 10 0 12 0;
#X connect 11 0 17 0;
#X connect 12 0 2 1;
#X connect 13 0 2 1;
#X connect 14 0 0 1;
#X connect 15 0 14 0;
#X connect 16 0 0 1;
#X connect 17 0 21 0;
#X connect 17 1 19 0;
#X connect 18 0 15 0;
#X connect 18 0 10 0;
#X connect 19 0 18 0;
#X connect 19 1 20 0;
#X connect 20 0 14 1;
#X connect 20 0 12 1;
#X connect 21 0 16 0;
#X connect 21 0 13 0;
#X connect 21 1 22 0;
#X connect 22 0 14 1;
#X connect 22 0 12 1;
#X connect 25 0 21 0;
#X restore 17 277 pd mix;
#X obj 257 339 s \$0-wet;
#X obj 290 313 s \$0-dry;
#N canvas 0 0 634 348 state_saving 0;
#X text 10 9 sssad sends and recieves;
#X obj 366 209 r \$0-wet;
#X obj 261 234 sssad/sssad \$1/wet;
#X obj 261 256 s \$0-wet;
#X obj 442 254 r \$0-dry;
#X obj 337 279 sssad/sssad \$1/dry;
#X obj 337 301 s \$0-dry;
#X obj 187 41 r \$0-depth;
#X obj 70 64 sssad/sssad \$1/depth;
#X obj 70 89 s \$0-depth;
#X obj 244 95 r \$0-lfo;
#X obj 139 120 sssad/sssad \$1/lfo;
#X obj 139 142 s \$0-lfo;
#X obj 316 147 r \$0-freq;
#X obj 205 172 sssad/sssad \$1/freq;
#X obj 205 194 s \$0-freq;
#X connect 1 0 2 1;
#X connect 2 0 3 0;
#X connect 4 0 5 1;
#X connect 5 0 6 0;
#X connect 7 0 8 1;
#X connect 8 0 9 0;
#X connect 10 0 11 1;
#X connect 11 0 12 0;
#X connect 13 0 14 1;
#X connect 14 0 15 0;
#X restore 397 345 pd state_saving;
#X obj 458 233 s \$0-onoff;
#X text 190 55 Creation args: name;
#X obj 1 16 cnv 15 143 80 empty empty empty 20 12 0 14 -228856 -66577
0;
#X obj 4 20 tgl 12 1 \$0-onoff \$0-onoff empty -6 -6 0 10 -191407 -1
-1 1 1;
#X obj 257 181 route wet dry depth lfo freq onoff;
#X obj 324 286 s \$0-depth;
#X obj 357 260 s \$0-lfo;
#X obj 391 233 s \$0-freq;
#X obj 69 63 hsl 70 15 0 1 0 0 \$0-wet \$0-wet wet 0 8 0 10 -191407
-1 -1 6900 1;
#X obj 21 64 nbx 4 14 0 1 0 1 \$0-wet \$0-wet empty -20 6 0 10 -261234
-1 -1 1 256;
#X obj 69 78 hsl 70 15 0 1 0 0 \$0-dry \$0-dry dry 0 8 0 10 -191407
-1 -1 4300 1;
#X obj 21 79 nbx 4 14 0 1 0 1 \$0-dry \$0-dry empty -20 6 0 10 -261234
-1 -1 0.623188 256;
#X obj 69 19 hsl 70 15 0 1 0 0 \$0-depth \$0-depth depth 0 8 0 10 -191407
-1 -1 1700 1;
#X obj 21 19 nbx 4 14 0 1 0 1 \$0-depth \$0-depth empty -20 6 0 10
-261234 -1 -1 0.246377 256;
#X obj 69 34 hsl 70 15 0 1 0 0 \$0-lfo \$0-lfo lfo 0 8 0 10 -191407
-1 -1 0 1;
#X obj 21 34 nbx 4 14 0 1 0 1 \$0-lfo \$0-lfo empty -20 6 0 10 -261234
-1 -1 0 256;
#X obj 69 48 hsl 70 15 0 1 0 0 \$0-freq \$0-freq freq 0 8 0 10 -191407
-1 -1 150 1;
#X obj 21 49 nbx 4 14 0 1 0 1 \$0-freq \$0-freq empty -20 6 0 10 -261234
-1 -1 0.0217391 256;
#N canvas 0 0 450 495 control 0;
#X obj 111 420 outlet;
#X obj 151 237 r \$0-freq;
#X obj 136 182 r \$0-lfo;
#X obj 111 128 r \$0-depth;
#X msg 111 152 depth \$1;
#X msg 136 206 lfo \$1;
#X msg 151 259 freq \$1;
#X connect 1 0 6 0;
#X connect 2 0 5 0;
#X connect 3 0 4 0;
#X connect 4 0 0 0;
#X connect 5 0 0 0;
#X connect 6 0 0 0;
#X restore 89 223 pd control in;
#X obj 16 158 inlet~ auduo;
#X obj 257 149 inlet contorl messages;
#X text 13 334 2009 Dan Wilcox;
#X text 12 351 danomatika.com | robotcowboy.com;
#X text 172 19 a 5 voice chorus with gui;
#X text 174 87 from an example chorus patch by Frank Barknecht on the
pd-list;
#N canvas 0 0 450 300 defaults 0;
#X obj 81 228 outlet;
#X obj 110 59 loadbang;
#X msg 243 142 wet 1;
#X msg 293 142 dry 0;
#X msg 106 141 freq 0.5;
#X msg 176 143 lfo 0.5;
#X msg 31 142 depth 0;
#X connect 1 0 6 0;
#X connect 1 0 4 0;
#X connect 1 0 5 0;
#X connect 1 0 2 0;
#X connect 1 0 3 0;
#X connect 2 0 0 0;
#X connect 3 0 0 0;
#X connect 4 0 0 0;
#X connect 5 0 0 0;
#X connect 6 0 0 0;
#X restore 414 153 pd defaults;
#X obj 424 208 clip 0 1;
#N canvas 0 0 354 211 guts 0;
#X obj -50 84 inlet~;
#X obj -51 158 outlet~;
#X obj 12 95 inlet;
#X obj -51 122 rc-chorus~_;
#X obj 90 132 r \$0-onoff;
#X obj 90 157 switch~;
#X connect 0 0 3 0;
#X connect 2 0 3 1;
#X connect 3 0 1 0;
#X connect 4 0 5 0;
#X restore 50 250 pd guts;
#X connect 1 0 0 0;
#X connect 9 0 2 0;
#X connect 9 1 3 0;
#X connect 9 2 10 0;
#X connect 9 3 11 0;
#X connect 9 4 12 0;
#X connect 9 5 31 0;
#X connect 23 0 32 1;
#X connect 24 0 1 0;
#X connect 24 0 32 0;
#X connect 25 0 9 0;
#X connect 30 0 9 0;
#X connect 31 0 5 0;
#X connect 32 0 1 1;
#X coords 0 -1 1 1 145 100 1 0 0;
