#N canvas 151 42 439 769 10;
#X obj 145 42 inlet;
#N canvas 283 357 425 253 m2channel 0;
#X obj 171 163 outlet chan;
#X obj 120 39 inlet;
#X obj 171 135 - 175;
#X obj 120 73 moses 175;
#X obj 171 105 moses 192;
#X connect 1 0 3 0;
#X connect 2 0 0 0;
#X connect 3 1 4 0;
#X connect 4 0 2 0;
#X restore 145 157 pd m2channel;
#X obj 145 127 unpack f f f;
#X obj 242 737 outlet chan;
#X obj 76 739 outlet value;
#X obj 94 678 unpack f f f;
#X obj 145 252 pack f f f;
#X obj 62 156 loadbang;
#X obj 62 212 sel 0;
#N canvas 0 0 450 300 gate 0;
#X obj 68 42 inlet;
#X obj 157 45 inlet;
#X obj 89 179 outlet;
#X obj 118 155 outlet;
#X obj 89 95 list prepend 1;
#X obj 89 120 route 1 2;
#X connect 0 0 4 1;
#X connect 1 0 4 0;
#X connect 4 0 5 0;
#X connect 5 0 2 0;
#X connect 5 1 3 0;
#X restore 94 281 pd gate 2;
#X msg 62 238 1;
#X msg 94 238 2;
#X obj 62 187 f \$1;
#X text 39 133 if no arg \$1;
#X text 37 119 don't filter;
#X obj 158 370 loadbang;
#X obj 158 426 sel 0;
#N canvas 0 0 450 300 gate 0;
#X obj 68 42 inlet;
#X obj 157 45 inlet;
#X obj 89 179 outlet;
#X obj 118 155 outlet;
#X obj 89 95 list prepend 1;
#X obj 89 120 route 1 2;
#X connect 0 0 4 1;
#X connect 1 0 4 0;
#X connect 4 0 5 0;
#X connect 5 0 2 0;
#X connect 5 1 3 0;
#X restore 190 498 pd gate 2;
#X msg 158 452 1;
#X msg 190 452 2;
#X text 133 333 don't filter;
#X text 135 347 if no arg \$2;
#X obj 158 401 f \$2;
#X obj 126 635 list trim;
#X text 301 550 filter by channel;
#X text 307 336 filter by control;
#X text 235 245 ctl chan val;
#X obj 145 223 f;
#X obj 145 187 t b f;
#X obj 241 335 route \$1;
#X obj 241 551 route \$2;
#X text 182 680 ctl chan val;
#X obj 241 582 list prepend 0 0;
#X obj 126 551 list prepend 0;
#X obj 163 740 outlet ctl;
#X text 235 129 event+chan ctl val;
#X text 12 12 an analog to [ctlin] for midi streams from midiin or
mrpeach [midifile];
#X obj 145 72 zl group 3;
#X connect 0 0 37 0;
#X connect 1 0 28 0;
#X connect 2 0 1 0;
#X connect 2 1 27 1;
#X connect 2 2 6 2;
#X connect 5 0 3 0;
#X connect 5 1 34 0;
#X connect 5 2 4 0;
#X connect 6 0 9 1;
#X connect 7 0 12 0;
#X connect 8 0 10 0;
#X connect 8 1 11 0;
#X connect 9 0 5 0;
#X connect 9 1 29 0;
#X connect 10 0 9 0;
#X connect 11 0 9 0;
#X connect 12 0 8 0;
#X connect 15 0 22 0;
#X connect 16 0 18 0;
#X connect 16 1 19 0;
#X connect 17 0 33 0;
#X connect 17 1 30 0;
#X connect 18 0 17 0;
#X connect 19 0 17 0;
#X connect 22 0 16 0;
#X connect 23 0 5 0;
#X connect 27 0 6 0;
#X connect 28 0 27 0;
#X connect 28 1 6 1;
#X connect 29 0 17 1;
#X connect 30 0 32 0;
#X connect 32 0 23 0;
#X connect 33 0 23 0;
#X connect 37 0 2 0;
