#N canvas 126 529 465 426 10;
#X text 114 38 from an example chorus patch by Frank Barknecht on the
pd-list;
#X obj 48 251 catch~ \$0-chorus;
#X obj 28 356 outlet~;
#X obj 28 62 inlet~ audio;
#X obj 310 66 inlet control messages;
#X obj 48 97 delwrite~ \$0-dline 1000;
#X obj 310 258 clip 0 1;
#X obj 349 206 clip 0 1;
#X obj 388 130 clip 0 1;
#N canvas 4 51 898 278 guts 0;
#X obj 419 204 vd~ \$0-dline;
#X obj 419 230 throw~ \$0-chorus;
#X obj 419 39 r~ \$0-rand;
#X obj 419 158 +~ 10;
#X obj 446 91 random 50;
#X obj 446 69 r \$0-randinit;
#X text 25 12 5 voices using variables delay;
#X obj 692 229 s~ \$0-rand;
#X obj 731 189 sig~ 1;
#X obj 692 151 osc~ 1;
#X obj 692 189 *~ 1;
#X text 781 189 keep positive!;
#X obj 692 123 r \$0-freq;
#X obj 753 151 r \$0-lfo-vol;
#X obj 463 113 r \$0-delay;
#X obj 29 207 vd~ \$0-dline;
#X obj 29 233 throw~ \$0-chorus;
#X obj 29 42 r~ \$0-rand;
#X obj 29 161 +~ 10;
#X obj 56 94 random 50;
#X obj 56 72 r \$0-randinit;
#X obj 73 116 r \$0-delay;
#X obj 156 207 vd~ \$0-dline;
#X obj 156 233 throw~ \$0-chorus;
#X obj 156 42 r~ \$0-rand;
#X obj 156 161 +~ 10;
#X obj 183 94 random 50;
#X obj 183 72 r \$0-randinit;
#X obj 200 116 r \$0-delay;
#X obj 285 206 vd~ \$0-dline;
#X obj 285 232 throw~ \$0-chorus;
#X obj 285 41 r~ \$0-rand;
#X obj 285 160 +~ 10;
#X obj 312 93 random 50;
#X obj 312 71 r \$0-randinit;
#X obj 329 115 r \$0-delay;
#X obj 547 204 vd~ \$0-dline;
#X obj 547 230 throw~ \$0-chorus;
#X obj 547 39 r~ \$0-rand;
#X obj 547 158 +~ 10;
#X obj 574 91 random 50;
#X obj 574 69 r \$0-randinit;
#X obj 591 113 r \$0-delay;
#X connect 0 0 1 0;
#X connect 2 0 3 0;
#X connect 3 0 0 0;
#X connect 4 0 3 1;
#X connect 5 0 4 0;
#X connect 8 0 7 0;
#X connect 9 0 10 0;
#X connect 10 0 7 0;
#X connect 12 0 9 0;
#X connect 13 0 10 1;
#X connect 13 0 8 0;
#X connect 14 0 3 1;
#X connect 15 0 16 0;
#X connect 17 0 18 0;
#X connect 18 0 15 0;
#X connect 19 0 18 1;
#X connect 20 0 19 0;
#X connect 21 0 18 1;
#X connect 22 0 23 0;
#X connect 24 0 25 0;
#X connect 25 0 22 0;
#X connect 26 0 25 1;
#X connect 27 0 26 0;
#X connect 28 0 25 1;
#X connect 29 0 30 0;
#X connect 31 0 32 0;
#X connect 32 0 29 0;
#X connect 33 0 32 1;
#X connect 34 0 33 0;
#X connect 35 0 32 1;
#X connect 36 0 37 0;
#X connect 38 0 39 0;
#X connect 39 0 36 0;
#X connect 40 0 39 1;
#X connect 41 0 40 0;
#X connect 42 0 39 1;
#X restore 58 138 pd guts;
#X obj 388 178 s \$0-freq;
#X obj 349 233 s \$0-lfo-vol;
#X obj 388 153 * 1.5;
#X obj 55 203 s \$0-randinit;
#X msg 55 179 bang;
#X obj 310 375 s \$0-delay;
#X msg 350 313 10;
#X msg 383 328 30;
#X msg 412 327 50;
#X obj 310 284 * 40;
#X obj 310 310 + 10;
#X obj 48 282 *~ 0.3;
#X text 25 389 2009 Dan Wilcox;
#X text 25 408 danomatika.com | robotcowboy.com;
#X text 18 6 a 5 voice chorus;
#X obj 310 96 route depth lfo freq;
#X obj 207 67 loadbang;
#X obj 207 186 \$1;
#X obj 238 150 \$2;
#X obj 265 108 \$3;
#X obj 207 209 sel 0;
#X obj 238 175 sel 0;
#X obj 265 131 sel 0;
#X connect 1 0 21 0;
#X connect 3 0 5 0;
#X connect 3 0 2 0;
#X connect 4 0 25 0;
#X connect 6 0 19 0;
#X connect 7 0 11 0;
#X connect 8 0 12 0;
#X connect 12 0 10 0;
#X connect 14 0 13 0;
#X connect 16 0 15 0;
#X connect 17 0 15 0;
#X connect 18 0 15 0;
#X connect 19 0 20 0;
#X connect 20 0 15 0;
#X connect 21 0 2 0;
#X connect 25 0 6 0;
#X connect 25 1 7 0;
#X connect 25 2 8 0;
#X connect 26 0 27 0;
#X connect 26 0 28 0;
#X connect 26 0 29 0;
#X connect 27 0 30 0;
#X connect 28 0 31 0;
#X connect 29 0 32 0;
#X connect 30 1 6 0;
#X connect 31 1 7 0;
#X connect 32 1 8 1;
