#N canvas 900 181 438 265 10;
#X obj 60 135 shell;
#X msg 60 106 env | grep USER=;
#X obj 60 189 splitfilename =;
#X obj 60 161 symbol;
#X obj 60 76 inlet;
#X obj 147 220 outlet;
#X text 45 19 grabs current username from shell enviornment var: USER
;
#X text 152 40 Linux/Unix only \, probably works for Mac;
#X connect 0 0 3 0;
#X connect 1 0 0 0;
#X connect 2 1 5 0;
#X connect 3 0 2 0;
#X connect 4 0 1 0;
