#N canvas 79 274 450 300 10;
#X obj 76 62 inlet~;
#X obj 104 262 outlet~;
#X obj 158 61 inlet~;
#X obj 322 89 inlet ctl;
#X obj 322 125 moses 0;
#X obj 199 108 t b b;
#X obj 249 138 t b b;
#X obj 97 191 vline~;
#X msg 118 163 0 5;
#X msg 150 163 1 5;
#X msg 247 197 0 5;
#X msg 279 197 1 5;
#X obj 226 226 vline~;
#X obj 76 233 *~;
#X obj 148 235 *~;
#X connect 0 0 13 0;
#X connect 2 0 14 0;
#X connect 3 0 4 0;
#X connect 4 0 5 0;
#X connect 4 1 6 0;
#X connect 5 0 9 0;
#X connect 5 1 10 0;
#X connect 6 0 8 0;
#X connect 6 1 11 0;
#X connect 7 0 13 1;
#X connect 8 0 7 0;
#X connect 9 0 7 0;
#X connect 10 0 12 0;
#X connect 11 0 12 0;
#X connect 12 0 14 1;
#X connect 13 0 1 0;
#X connect 14 0 1 0;
