#N canvas 474 204 415 335 10;
#X obj 84 194 rc-jitter_;
#X msg 27 78 message;
#X msg 98 95 lala;
#X obj 57 125 t b a;
#X obj 57 274 timer;
#X floatatom 57 304 5 0 0 0 - - -;
#X obj 111 276 print;
#X msg 199 164 reset;
#X text 238 163 reset pipe and random to 0;
#X msg 167 94 20;
#X msg 206 100 100;
#X text 162 72 set random amount;
#X floatatom 91 72 5 0 0 0 - - -;
#X floatatom 141 223 5 0 0 1 pipe_length - -;
#X text 16 11 rc-jitter_ : a random length pipe;
#X floatatom 206 125 5 0 0 0 - - -;
#X text 40 43 messages in;
#X text 158 277 messages out;
#X connect 0 0 6 0;
#X connect 0 0 4 1;
#X connect 0 1 13 0;
#X connect 1 0 3 0;
#X connect 2 0 3 0;
#X connect 3 0 4 0;
#X connect 3 1 0 0;
#X connect 4 0 5 0;
#X connect 7 0 0 1;
#X connect 9 0 0 1;
#X connect 10 0 0 1;
#X connect 12 0 3 0;
#X connect 15 0 0 1;
