#N canvas 793 122 386 330 10;
#X obj 25 50 inlet;
#X obj 115 280 outlet;
#X obj 115 168 t a b;
#X obj 284 106 moses 0;
#X obj 235 48 inlet control;
#X msg 211 147 0;
#X text 8 17 a random length pipe;
#X obj 115 251 pipe 0;
#X obj 172 223 random \$1;
#X obj 191 282 outlet pipe lenth;
#X obj 25 77 route float symbol list;
#X obj 160 101 symbol;
#X obj 235 77 route reset float;
#X obj 235 105 t b b;
#X msg 262 135 bang;
#X connect 0 0 10 0;
#X connect 2 0 7 0;
#X connect 2 1 8 0;
#X connect 3 1 8 1;
#X connect 4 0 12 0;
#X connect 5 0 7 1;
#X connect 5 0 8 1;
#X connect 7 0 1 0;
#X connect 8 0 7 1;
#X connect 8 0 9 0;
#X connect 10 0 2 0;
#X connect 10 1 2 0;
#X connect 10 2 2 0;
#X connect 10 3 11 0;
#X connect 11 0 2 0;
#X connect 12 0 13 0;
#X connect 12 1 3 0;
#X connect 13 0 5 0;
#X connect 13 1 14 0;
#X connect 14 0 7 0;
