#N canvas 161 626 639 472 10;
#X obj 13 425 hip~ 5;
#X floatatom 87 49 0 0 0 0 - - -;
#X text 126 48 <-- frequency (Hz.);
#X floatatom 150 108 0 0 0 0 - - -;
#X obj 150 133 * 441;
#X obj 50 220 +~ 1;
#X obj 87 73 phasor~ 0;
#X obj 13 401 *~;
#X obj 72 308 line~;
#X obj 149 242 * 441;
#X floatatom 149 218 0 0 0 0 - - -;
#X obj 72 284 pack 0 100;
#X obj 51 356 +~;
#X obj 72 332 samphold~;
#X obj 74 170 samphold~;
#X obj 51 196 *~;
#X obj 12 103 -~ 0.5;
#X obj 12 127 *~ 0.5;
#X obj 12 150 cos~;
#X obj 51 381 tabread4~ \$0-sample;
#N canvas 0 0 450 300 (subpatch) 0;
#X array \$0-sample 132300 float 2;
#X coords 0 -1 132300 1 100 70 1;
#X restore 521 378 graph;
#X obj 13 447 outlet~;
#X obj 276 55 inlet~;
#X obj 296 122 tabwrite~ \$0-sample;
#X msg 328 75 bang;
#X msg 370 86 stop;
#X obj 473 202 convert.smp2ms;
#X obj 463 136 hsl 128 15 1 10000 0 0 empty empty empty -2 -8 0 10
-262144 -1 -1 3500 1;
#X floatatom 338 228 5 0 0 0 - - -;
#X obj 508 276 s \$0-sample;
#X obj 24 27 tgl 15 0 \$0-record \$0-record empty 17 7 0 10 -262144
-1 -1 0 1;
#X obj 343 30 r \$0-record;
#X obj 446 56 sel 1 0;
#X msg 196 182 100;
#X obj 210 346 line~;
#X msg 210 293 44100 1000;
#X msg 287 310 0 0;
#X msg 338 384 \; \$2-sample resize \$1;
#X obj 331 200 convert.ms2smp;
#X msg 319 157 2000;
#X obj 354 344 pack f f;
#X obj 399 315 \$0;
#X obj 362 265 t f b;
#X msg 365 163 3000;
#X obj 323 310 / 100;
#X connect 0 0 21 0;
#X connect 1 0 6 0;
#X connect 3 0 4 0;
#X connect 4 0 14 0;
#X connect 5 0 12 0;
#X connect 6 0 13 1;
#X connect 6 0 14 1;
#X connect 6 0 15 0;
#X connect 6 0 16 0;
#X connect 7 0 0 0;
#X connect 8 0 13 0;
#X connect 9 0 11 0;
#X connect 10 0 9 0;
#X connect 11 0 8 0;
#X connect 12 0 19 0;
#X connect 13 0 12 1;
#X connect 14 0 15 1;
#X connect 15 0 5 0;
#X connect 16 0 17 0;
#X connect 17 0 18 0;
#X connect 18 0 7 0;
#X connect 19 0 7 1;
#X connect 22 0 23 0;
#X connect 24 0 23 0;
#X connect 25 0 23 0;
#X connect 27 0 26 0;
#X connect 28 0 42 0;
#X connect 31 0 32 0;
#X connect 32 0 24 0;
#X connect 32 1 25 0;
#X connect 33 0 10 0;
#X connect 35 0 34 0;
#X connect 36 0 34 0;
#X connect 38 0 28 0;
#X connect 39 0 38 0;
#X connect 40 0 37 0;
#X connect 41 0 40 1;
#X connect 42 0 40 0;
#X connect 42 0 44 0;
#X connect 42 1 41 0;
#X connect 43 0 38 0;
#X connect 44 0 4 1;
#X coords 0 -1 1 1 85 60 1 0 0;
