#N canvas 379 95 497 548 10;
#X obj 56 504 outlet~;
#X obj 178 107 inlet~ env;
#X obj 56 109 inlet~ audio;
#X obj 228 423 sig~ 3;
#X obj 212 261 mtof;
#X obj 388 234 exp;
#X obj 388 260 / 13.7;
#X obj 309 262 mtof;
#X obj 309 233 * 127;
#X obj 179 294 *~ 100;
#X obj 274 133 route mod cutoff q;
#X text 287 422 0 - 4;
#X obj 274 105 inlet control;
#X text 18 19 a low-pass resonant filter;
#X text 150 498 Dan Wilcox 2009 robotcowboy.com|danomatika.com;
#X obj 388 205 * 4;
#X obj 212 231 * 89.95;
#X obj 56 462 vcf_lp4~;
#X text 83 62 just a wrapper around vcf~;
#X obj 179 342 +~ 2000;
#X connect 1 0 9 0;
#X connect 2 0 17 0;
#X connect 3 0 17 2;
#X connect 4 0 9 1;
#X connect 5 0 6 0;
#X connect 6 0 3 0;
#X connect 7 0 19 1;
#X connect 8 0 7 0;
#X connect 9 0 19 0;
#X connect 10 0 16 0;
#X connect 10 1 8 0;
#X connect 10 2 15 0;
#X connect 12 0 10 0;
#X connect 15 0 5 0;
#X connect 16 0 4 0;
#X connect 17 0 0 0;
#X connect 19 0 17 1;
