#N canvas 576 107 440 464 10;
#X obj 32 435 outlet~;
#N canvas 369 369 485 290 Oscillator_Bank 0;
#X obj -27 32 inlet note;
#X obj -27 257 outlet~;
#X obj 129 256 outlet~;
#X obj 228 256 outlet~;
#X obj 113 32 r \$0-control;
#X obj 370 257 outlet~;
#X obj 113 65 routeOSC /osc1 /osc2 /osc3 /mod /noise;
#X obj 269 219 throw~ \$0-mod;
#N canvas 655 156 558 576 Mod 0;
#X obj 36 20 inlet~ vco3;
#X obj 122 21 inlet~ pink noise;
#X obj 285 21 inlet control;
#X obj 431 212 switch~;
#X obj 431 141 sel 0;
#X msg 431 169 0;
#X msg 466 169 1;
#X obj 146 162 clip 0 10;
#X obj 146 191 / 10;
#X obj 36 332 *~ 1;
#X obj 36 366 +~;
#X obj 230 317 / 127;
#X obj 36 416 *~ 0;
#X obj 219 541 outlet~ mod vca;
#X obj 36 544 outlet~ mod vco;
#X obj 36 507 *~ 0;
#X obj 219 509 *~ 0;
#X obj 299 393 sel 0;
#X msg 299 421 0;
#X msg 334 421 1;
#X obj 398 431 sel 0;
#X msg 398 459 0;
#X msg 433 459 1;
#X obj 146 218 expr 1-$f1 \; $f1;
#X obj 122 326 *~ 1;
#X obj 230 339 sqrt 2;
#X obj 285 56 routeOSC /mix /osc /filter /onoff;
#X obj 230 361 * 1;
#X obj 36 474 *~ 100;
#X connect 0 0 9 0;
#X connect 1 0 24 0;
#X connect 2 0 26 0;
#X connect 4 0 5 0;
#X connect 4 1 6 0;
#X connect 5 0 3 0;
#X connect 6 0 3 0;
#X connect 7 0 8 0;
#X connect 8 0 23 0;
#X connect 9 0 10 0;
#X connect 10 0 12 0;
#X connect 11 0 25 0;
#X connect 12 0 16 0;
#X connect 12 0 28 0;
#X connect 15 0 14 0;
#X connect 16 0 13 0;
#X connect 17 0 18 0;
#X connect 17 1 19 0;
#X connect 18 0 15 1;
#X connect 19 0 15 1;
#X connect 20 0 21 0;
#X connect 20 1 22 0;
#X connect 21 0 16 1;
#X connect 22 0 16 1;
#X connect 23 0 9 1;
#X connect 23 1 24 1;
#X connect 24 0 10 1;
#X connect 25 0 27 0;
#X connect 26 0 7 0;
#X connect 26 1 17 0;
#X connect 26 2 20 0;
#X connect 26 3 4 0;
#X connect 26 4 11 0;
#X connect 27 0 12 1;
#X connect 28 0 15 0;
#X restore 267 181 pd Mod Mixer;
#N canvas 377 38 576 661 Osc3 0;
#X msg 483 370 0.33;
#X msg 447 370 0.5;
#X msg 525 370 0.25;
#X obj 152 516 *~ 0;
#X obj 267 519 *~ 0;
#X obj 29 517 *~ 1;
#X msg 50 488 1;
#X msg 80 490 0;
#X msg 172 486 1;
#X msg 202 488 0;
#X obj 50 461 sel 0;
#X obj 172 459 sel 1;
#X msg 289 487 1;
#X msg 319 489 0;
#X obj 289 460 sel 2;
#X obj 384 514 *~ 0;
#X msg 406 482 1;
#X msg 436 484 0;
#X obj 406 455 sel 3 4 5;
#X obj 343 130 int;
#X text 443 69 0 - triangle;
#X text 444 106 2 - sawtooth;
#X text 444 124 3 - 1:2 square;
#X text 445 141 4 - 1:3 square;
#X text 444 159 5 - 1:4 square;
#X obj 199 131 int;
#X obj 97 364 + 0;
#X obj 343 156 clip 0 5;
#X obj 199 157 clip 0 5;
#X obj 97 245 f;
#X obj 199 216 t b f;
#X obj 97 334 + 0;
#X obj 97 199 t b f;
#X obj 14 22 inlet note;
#X text 443 87 1 - rev sawtooth;
#X obj 152 436 expr~ (1-$v1) - 1;
#X obj 148 21 inlet control;
#N canvas 0 22 481 394 detune 0;
#X msg 235 154 127;
#X msg 207 153 0;
#X msg 115 153 -7;
#X msg 148 153 7;
#X obj 90 198 clip -7 7;
#X obj 115 68 inlet control;
#X obj 115 110 sel 1;
#X obj 90 305 outlet note;
#X obj 171 302 outlet detune;
#X obj 90 254 demux 1 2;
#X msg 225 213 0;
#X msg 173 214 1;
#X text 156 110 increase range if control is off;
#X obj 90 36 inlet detune;
#X connect 0 0 4 2;
#X connect 1 0 4 1;
#X connect 2 0 4 1;
#X connect 3 0 4 2;
#X connect 4 0 9 0;
#X connect 5 0 6 0;
#X connect 6 0 2 0;
#X connect 6 0 3 0;
#X connect 6 0 11 0;
#X connect 6 1 1 0;
#X connect 6 1 0 0;
#X connect 6 1 10 0;
#X connect 9 0 7 0;
#X connect 9 1 8 0;
#X connect 10 0 9 1;
#X connect 11 0 9 1;
#X connect 13 0 4 0;
#X restore 66 164 pd detune;
#X obj 29 411 rc-triangle~_;
#X obj 267 408 rc-sawtooth~_;
#X obj 152 410 rc-sawtooth~_;
#X obj 384 635 outlet~ mod;
#X obj 152 598 rc-spigot~;
#X obj 152 634 outlet~;
#X obj 15 221 t f;
#X obj 15 553 t f;
#X obj 14 121 spigot;
#N canvas 0 22 450 300 (subpatch) 0;
#X obj 118 76 inlet;
#X obj 118 110 sel 0;
#X msg 115 138 0;
#X msg 149 139 1;
#X obj 126 198 outlet;
#X connect 0 0 1 0;
#X connect 1 0 2 0;
#X connect 1 1 3 0;
#X connect 2 0 4 0;
#X connect 3 0 4 0;
#X restore 148 87 pd 0 or 1;
#X text 216 457 reverse;
#X obj 384 408 rc-square~_;
#X obj 97 306 + 0;
#X obj 28 254 r \$0-tune;
#X obj 28 283 t b f;
#X obj 148 60 routeOSC /control /range /detune /waveform;
#X obj 199 188 expr ($f1-2)*12;
#X connect 0 0 49 3;
#X connect 1 0 49 3;
#X connect 2 0 49 3;
#X connect 3 0 42 0;
#X connect 3 0 41 0;
#X connect 4 0 42 0;
#X connect 4 0 41 0;
#X connect 5 0 42 0;
#X connect 5 0 41 0;
#X connect 6 0 5 1;
#X connect 7 0 5 1;
#X connect 8 0 3 1;
#X connect 9 0 3 1;
#X connect 10 0 6 0;
#X connect 10 1 7 0;
#X connect 11 0 8 0;
#X connect 11 1 9 0;
#X connect 12 0 4 1;
#X connect 13 0 4 1;
#X connect 14 0 12 0;
#X connect 14 1 13 0;
#X connect 15 0 42 0;
#X connect 15 0 41 0;
#X connect 16 0 15 1;
#X connect 17 0 15 1;
#X connect 18 0 16 0;
#X connect 18 0 1 0;
#X connect 18 1 0 0;
#X connect 18 1 16 0;
#X connect 18 2 2 0;
#X connect 18 2 16 0;
#X connect 18 3 17 0;
#X connect 19 0 27 0;
#X connect 25 0 28 0;
#X connect 26 0 38 0;
#X connect 26 0 39 0;
#X connect 26 0 40 0;
#X connect 26 0 49 0;
#X connect 27 0 14 0;
#X connect 27 0 18 0;
#X connect 27 0 11 0;
#X connect 27 0 10 0;
#X connect 28 0 54 0;
#X connect 29 0 50 0;
#X connect 30 0 29 0;
#X connect 30 1 26 1;
#X connect 31 0 26 0;
#X connect 32 0 29 0;
#X connect 32 1 31 1;
#X connect 33 0 46 0;
#X connect 35 0 3 0;
#X connect 36 0 53 0;
#X connect 37 0 29 0;
#X connect 37 1 32 0;
#X connect 38 0 5 0;
#X connect 39 0 4 0;
#X connect 40 0 35 0;
#X connect 42 0 43 0;
#X connect 44 0 45 0;
#X connect 45 0 42 1;
#X connect 46 0 29 0;
#X connect 47 0 46 1;
#X connect 47 0 44 0;
#X connect 47 0 37 1;
#X connect 49 0 15 0;
#X connect 50 0 31 0;
#X connect 51 0 52 0;
#X connect 52 0 29 0;
#X connect 52 1 50 1;
#X connect 53 0 47 0;
#X connect 53 1 25 0;
#X connect 53 2 37 0;
#X connect 53 3 19 0;
#X connect 54 0 30 0;
#X restore 228 142 pd Osc3;
#N canvas 442 35 567 582 Osc2 0;
#X msg 483 297 0.33;
#X msg 448 297 0.5;
#X msg 526 297 0.25;
#X obj 153 443 *~ 0;
#X obj 268 446 *~ 0;
#X obj 30 444 *~ 1;
#X msg 51 415 1;
#X msg 81 417 0;
#X msg 173 413 1;
#X msg 203 415 0;
#X obj 51 388 sel 0;
#X obj 173 386 sel 1;
#X msg 290 414 1;
#X msg 320 416 0;
#X obj 290 387 sel 2;
#X obj 385 441 *~ 0;
#X msg 407 409 1;
#X msg 437 411 0;
#X obj 407 382 sel 3 4 5;
#X obj 353 117 int;
#X text 404 25 0 - triangle;
#X text 405 46 1 - triangle/sawtooth mix;
#X text 406 65 2 - sawtooth;
#X text 406 83 3 - 1:2 square;
#X text 407 100 4 - 1:3 square;
#X text 406 118 5 - 1:4 square;
#X obj 140 86 int;
#X obj 30 299 + 0;
#X obj 353 143 clip 0 5;
#X obj 140 112 clip 0 5;
#X obj 30 213 f;
#X obj 140 171 t b f;
#X obj 30 272 + 0;
#X obj 262 144 t b f;
#X obj 30 24 inlet note;
#X obj 262 116 clip -7 7;
#X obj 207 549 outlet~;
#X obj 140 25 inlet controller;
#X obj 30 338 rc-triangle~_;
#X obj 153 337 rc-trisaw~_;
#X obj 268 335 rc-sawtooth~_;
#X obj 406 265 inlet~ mod;
#X obj 385 335 rc-square~_;
#X obj 49 145 r \$0-tune;
#X obj 49 174 t b f;
#X obj 30 244 + 0;
#X obj 140 55 routeOSC /range /detune /waveform;
#X obj 140 143 expr ($f1-2)*12;
#X connect 0 0 42 3;
#X connect 1 0 42 3;
#X connect 2 0 42 3;
#X connect 3 0 36 0;
#X connect 4 0 36 0;
#X connect 5 0 36 0;
#X connect 6 0 5 1;
#X connect 7 0 5 1;
#X connect 8 0 3 1;
#X connect 9 0 3 1;
#X connect 10 0 6 0;
#X connect 10 1 7 0;
#X connect 11 0 8 0;
#X connect 11 1 9 0;
#X connect 12 0 4 1;
#X connect 13 0 4 1;
#X connect 14 0 12 0;
#X connect 14 1 13 0;
#X connect 15 0 36 0;
#X connect 16 0 15 1;
#X connect 17 0 15 1;
#X connect 18 0 16 0;
#X connect 18 0 1 0;
#X connect 18 1 0 0;
#X connect 18 1 16 0;
#X connect 18 2 2 0;
#X connect 18 2 16 0;
#X connect 18 3 17 0;
#X connect 19 0 28 0;
#X connect 26 0 29 0;
#X connect 27 0 38 0;
#X connect 27 0 39 0;
#X connect 27 0 40 0;
#X connect 27 0 42 0;
#X connect 28 0 14 0;
#X connect 28 0 18 0;
#X connect 28 0 11 0;
#X connect 28 0 10 0;
#X connect 29 0 47 0;
#X connect 30 0 45 0;
#X connect 31 0 30 0;
#X connect 31 1 27 1;
#X connect 32 0 27 0;
#X connect 33 0 30 0;
#X connect 33 1 32 1;
#X connect 34 0 30 0;
#X connect 35 0 33 0;
#X connect 37 0 46 0;
#X connect 38 0 5 0;
#X connect 39 0 3 0;
#X connect 40 0 4 0;
#X connect 41 0 38 1;
#X connect 41 0 39 1;
#X connect 41 0 40 1;
#X connect 41 0 42 1;
#X connect 42 0 15 0;
#X connect 43 0 44 0;
#X connect 44 0 30 0;
#X connect 44 1 45 1;
#X connect 45 0 32 0;
#X connect 46 0 26 0;
#X connect 46 1 35 0;
#X connect 46 2 19 0;
#X connect 47 0 31 0;
#X restore 129 225 pd Osc2;
#N canvas 462 194 573 531 Osc1 0;
#X obj 206 496 outlet~;
#X msg 483 288 0.33;
#X msg 448 288 0.5;
#X msg 526 288 0.25;
#X obj 153 434 *~ 0;
#X obj 268 437 *~ 0;
#X obj 30 435 *~ 1;
#X msg 51 406 1;
#X msg 81 408 0;
#X msg 174 405 1;
#X msg 204 407 0;
#X obj 51 379 sel 0;
#X obj 174 378 sel 1;
#X msg 289 405 1;
#X msg 319 407 0;
#X obj 289 378 sel 2;
#X obj 385 432 *~ 0;
#X msg 407 400 1;
#X msg 437 402 0;
#X obj 407 373 sel 3 4 5;
#X obj 276 118 int;
#X text 361 53 0 - triangle;
#X text 362 74 1 - triangle/sawtooth mix;
#X text 363 93 2 - sawtooth;
#X text 363 111 3 - 1:2 square;
#X text 364 128 4 - 1:3 square;
#X text 363 146 5 - 1:4 square;
#X obj 130 95 int;
#X obj 30 287 + 0;
#X obj 276 144 clip 0 5;
#X obj 130 121 clip 0 5;
#X obj 30 209 f;
#X obj 130 180 t b f;
#X obj 30 26 inlet note;
#X obj 130 27 inlet control;
#X obj 30 329 rc-triangle~_;
#X obj 153 328 rc-trisaw~_;
#X obj 268 326 rc-sawtooth~_;
#X obj 406 254 inlet~ mod;
#X obj 181 205 loadbang;
#X obj 181 236 random 1000;
#X obj 181 264 / 1000;
#X obj 385 326 rc-square~_;
#X obj 54 136 r \$0-tune;
#X obj 54 165 t b f;
#X obj 30 234 + 0;
#X obj 130 63 routeOSC /range /waveform;
#X obj 130 152 expr ($f1-2)*12;
#X text 260 234 seed the phase;
#X connect 1 0 42 3;
#X connect 2 0 42 3;
#X connect 3 0 42 3;
#X connect 4 0 0 0;
#X connect 5 0 0 0;
#X connect 6 0 0 0;
#X connect 7 0 6 1;
#X connect 8 0 6 1;
#X connect 9 0 4 1;
#X connect 10 0 4 1;
#X connect 11 0 7 0;
#X connect 11 1 8 0;
#X connect 12 0 9 0;
#X connect 12 1 10 0;
#X connect 13 0 5 1;
#X connect 14 0 5 1;
#X connect 15 0 13 0;
#X connect 15 1 14 0;
#X connect 16 0 0 0;
#X connect 17 0 16 1;
#X connect 18 0 16 1;
#X connect 19 0 17 0;
#X connect 19 0 2 0;
#X connect 19 1 1 0;
#X connect 19 1 17 0;
#X connect 19 2 3 0;
#X connect 19 2 17 0;
#X connect 19 3 18 0;
#X connect 20 0 29 0;
#X connect 27 0 30 0;
#X connect 28 0 35 0;
#X connect 28 0 36 0;
#X connect 28 0 37 0;
#X connect 28 0 42 0;
#X connect 29 0 15 0;
#X connect 29 0 19 0;
#X connect 29 0 12 0;
#X connect 29 0 11 0;
#X connect 30 0 47 0;
#X connect 31 0 45 0;
#X connect 32 0 31 0;
#X connect 32 1 28 1;
#X connect 33 0 31 0;
#X connect 34 0 46 0;
#X connect 35 0 6 0;
#X connect 36 0 4 0;
#X connect 37 0 5 0;
#X connect 38 0 35 1;
#X connect 38 0 36 1;
#X connect 38 0 37 1;
#X connect 38 0 42 1;
#X connect 39 0 40 0;
#X connect 40 0 41 0;
#X connect 41 0 35 2;
#X connect 41 0 36 2;
#X connect 41 0 37 2;
#X connect 42 0 16 0;
#X connect 43 0 44 0;
#X connect 44 0 31 0;
#X connect 44 1 45 1;
#X connect 45 0 28 0;
#X connect 46 0 27 0;
#X connect 46 1 20 0;
#X connect 47 0 32 0;
#X restore -27 227 pd Osc1;
#N canvas 133 284 442 260 Noise 0;
#X msg 279 134 0;
#X obj 197 105 pink~;
#X obj 24 102 noise~;
#X obj 55 158 *~ 1;
#X msg 76 129 1;
#X msg 106 131 0;
#X obj 76 102 sel 0;
#X obj 226 161 *~ 1;
#X msg 247 132 1;
#X obj 247 105 sel 1;
#X text 191 38 0 - white noise to mixer / pink to mod;
#X text 190 56 1 - pink noise to mixer / pink to mod;
#X obj 55 224 outlet~ mixer;
#X obj 197 224 outlet~ mod;
#X obj 76 21 inlet control;
#X obj 76 47 routeOSC /type;
#X obj 197 132 *~ 2;
#X connect 0 0 7 1;
#X connect 1 0 16 0;
#X connect 2 0 3 0;
#X connect 3 0 12 0;
#X connect 4 0 3 1;
#X connect 5 0 3 1;
#X connect 6 0 4 0;
#X connect 6 1 5 0;
#X connect 7 0 12 0;
#X connect 8 0 7 1;
#X connect 9 0 8 0;
#X connect 9 1 0 0;
#X connect 14 0 15 0;
#X connect 15 0 6 0;
#X connect 15 0 9 0;
#X connect 16 0 7 0;
#X connect 16 0 13 0;
#X restore 370 143 pd Noise;
#X connect 0 0 11 0;
#X connect 0 0 10 0;
#X connect 0 0 9 0;
#X connect 4 0 6 0;
#X connect 6 0 11 1;
#X connect 6 1 10 1;
#X connect 6 2 9 1;
#X connect 6 3 8 2;
#X connect 6 4 12 0;
#X connect 8 0 10 2;
#X connect 8 0 11 2;
#X connect 8 1 7 0;
#X connect 9 0 3 0;
#X connect 9 1 8 0;
#X connect 10 0 2 0;
#X connect 11 0 1 0;
#X connect 12 0 5 0;
#X connect 12 1 8 1;
#X restore 32 249 pd Oscillator_Bank;
#X obj 173 283 inlet~ external;
#X obj 291 178 inlet control;
#N canvas 12 52 498 351 defaults 0;
#X obj 47 15 loadbang;
#X obj 32 313 outlet;
#X msg 126 238 /filter/cutoff 100 \, /filter/emphasis 7 \, /filter/amount
7 \, /filter/A 10 \, /filter/D 300 \, /filter/S 5 \, /contour/A 10
\, /contour/D 100 \, /contour/S 5;
#X msg 145 293 /onoff 1 \, /vol 7.5 \, /A440 0;
#X msg 88 172 /osc1/vol 5 \, /osc1/onoff 1 \, /osc2/vol 5 \, /osc2/onoff
1 \, /osc3/vol 5 \, /osc3/onoff 1 \, /external/onoff 0 \, /external/vol
5 \, /noise/onoff 0 \, /noise/vol 5 \, /noise/type 0;
#X msg 32 64 /glide/onoff 0 \, /glide 0 \, /tune 0 \, /decay 1 \, /mod/onoff
0 \, /mod 0 \, /mod/mix 5 \, /mod/osc 0 \, /mod/filter 0;
#X msg 47 113 /osc1/range 3 \, /osc/waveform 0 \, /osc2/range 3 \,
/osc2/detune 0 \, /osc2/waveform 2 \, /osc3/range 3 \, /osc3/control
1 \, /osc3/detune 0 \, /osc3/waveform 3;
#X connect 0 0 4 0;
#X connect 0 0 5 0;
#X connect 0 0 6 0;
#X connect 0 0 2 0;
#X connect 0 0 3 0;
#X connect 2 0 1 0;
#X connect 3 0 1 0;
#X connect 4 0 1 0;
#X connect 5 0 1 0;
#X connect 6 0 1 0;
#X restore 320 212 pd defaults;
#X obj 32 177 inlet note;
#X obj 101 342 inlet vel;
#N canvas 354 205 342 350 Controllers 0;
#X obj 11 29 inlet note;
#X obj 102 96 clip -2.5 2.5;
#X text 114 67 Tune;
#X text 117 194 Glide;
#X obj 33 320 outlet note;
#X obj 174 29 r \$0-control;
#X msg 265 224 0;
#X msg 292 246 1;
#X obj 265 195 sel 0;
#X obj 185 195 clip 0 5000;
#X obj 80 222 rc-portamento_ 200;
#X obj 33 274 mux 1 2;
#X obj 174 58 routeOSC /tune /glide /mod;
#X obj 225 129 routeOSC /onoff;
#X obj 102 122 s \$0-tune;
#X obj 11 63 moses 1;
#X connect 0 0 15 0;
#X connect 1 0 14 0;
#X connect 5 0 12 0;
#X connect 6 0 11 2;
#X connect 7 0 11 2;
#X connect 8 0 6 0;
#X connect 8 1 7 0;
#X connect 9 0 10 1;
#X connect 10 0 11 1;
#X connect 11 0 4 0;
#X connect 12 0 1 0;
#X connect 12 1 13 0;
#X connect 13 0 8 0;
#X connect 13 1 9 0;
#X connect 15 1 11 0;
#X connect 15 1 10 0;
#X restore 32 212 pd Controllers;
#X obj 291 251 s \$0-control;
#N canvas 834 334 446 344 Modifiers 0;
#X obj 27 19 inlet~ audio;
#X obj 27 312 outlet~ audio;
#X obj 27 275 *~;
#X obj 108 90 inlet vel;
#X obj 156 131 r \$0-control;
#N canvas 693 45 267 222 Loudness 0;
#X obj 29 30 inlet vel;
#X obj 143 32 inlet control;
#X obj 29 196 outlet~;
#X obj 143 79 routeOSC /A /D /S;
#X text 164 57 R = D;
#X obj 209 111 * 10;
#X obj 29 143 rc-adsr~_ 1 20 100 50 100;
#X obj 46 79 r \$0-adsr;
#X connect 0 0 6 0;
#X connect 1 0 3 0;
#X connect 3 0 6 2;
#X connect 3 1 6 3;
#X connect 3 1 6 5;
#X connect 3 2 5 0;
#X connect 5 0 6 4;
#X connect 6 0 2 0;
#X connect 7 0 6 0;
#X restore 108 223 pd Loudness Contour;
#N canvas 518 265 653 459 Filter 0;
#X obj 115 81 inlet vel;
#X obj 187 275 inlet~ mod;
#X obj 251 70 inlet control;
#X obj 34 19 inlet~;
#X obj 34 431 outlet~;
#X msg 154 130 127;
#X obj 34 356 rc-lp~_;
#X text 327 86 R = D;
#X obj 182 194 / 10;
#X obj 182 167 clip 0 10;
#X obj 532 294 / 10;
#X obj 532 268 clip 0 10;
#X obj 465 267 clip 0 127;
#X obj 398 226 routeOSC /amount /cutoff /emphasis;
#X obj 361 188 * 10;
#X obj 115 107 moses 1;
#X obj 251 108 routeOSC /amount /A /D /S;
#X obj 44 157 r \$0-adsr;
#X obj 172 301 +~;
#X obj 44 300 sig~ 1;
#X obj 44 321 *~ 0;
#X floatatom 49 235 5 0 0 0 - - -;
#X obj 172 246 rc-adsr~_ 1 20 1000 50 1000;
#X floatatom 84 324 5 0 0 0 - - -;
#X floatatom 214 331 5 0 0 0 - - -;
#X obj 465 298 mtof;
#X obj 40 260 expr (1-$f1)^2 \; ($f1)^2;
#X obj 172 326 *~ 1;
#X msg 203 220 1;
#X connect 0 0 15 0;
#X connect 1 0 18 1;
#X connect 2 0 16 0;
#X connect 3 0 6 0;
#X connect 5 0 22 0;
#X connect 6 0 4 0;
#X connect 8 0 21 0;
#X connect 9 0 8 0;
#X connect 10 0 6 3;
#X connect 11 0 10 0;
#X connect 12 0 25 0;
#X connect 13 1 12 0;
#X connect 13 2 11 0;
#X connect 14 0 22 4;
#X connect 15 0 22 0;
#X connect 15 1 5 0;
#X connect 16 0 9 0;
#X connect 16 1 22 2;
#X connect 16 2 22 5;
#X connect 16 2 22 3;
#X connect 16 3 14 0;
#X connect 16 4 13 0;
#X connect 17 0 22 0;
#X connect 18 0 27 0;
#X connect 19 0 20 0;
#X connect 21 0 26 0;
#X connect 22 0 18 0;
#X connect 25 0 6 2;
#X connect 26 0 20 1;
#X connect 26 0 23 0;
#X connect 26 1 24 0;
#X connect 26 1 27 1;
#X connect 27 0 6 1;
#X connect 28 0 22 1;
#X restore 27 224 pd Filter;
#X obj 61 54 catch~ \$0-mod;
#X obj 156 161 routeOSC /filter /contour /decay;
#X msg 315 214 1;
#X msg 282 214 0;
#X obj 282 189 sel 0;
#X obj 282 285 s \$0-adsr;
#X msg 360 241 legato 1;
#X obj 360 217 loadbang;
#X msg 282 242 release \$1;
#X connect 0 0 6 0;
#X connect 2 0 1 0;
#X connect 3 0 6 1;
#X connect 3 0 5 0;
#X connect 4 0 8 0;
#X connect 5 0 2 1;
#X connect 6 0 2 0;
#X connect 7 0 6 2;
#X connect 8 0 6 3;
#X connect 8 1 5 1;
#X connect 8 2 11 0;
#X connect 9 0 15 0;
#X connect 10 0 15 0;
#X connect 11 0 10 0;
#X connect 11 1 9 0;
#X connect 13 0 12 0;
#X connect 14 0 13 0;
#X connect 15 0 12 0;
#X restore 32 370 pd Modifiers;
#N canvas 191 87 1066 436 Mixer---------------- 0;
#X obj 19 17 inlet~ vco1;
#X obj 175 18 inlet~ vco2;
#X obj 331 20 inlet~ vco3;
#X obj 647 17 inlet~ external;
#X obj 18 409 outlet~;
#X obj 19 251 *~;
#X obj 19 281 rc-spigot~;
#X obj 19 320 throw~ \$0-mixer;
#X obj 18 370 catch~ \$0-mixer;
#X obj 175 243 *~;
#X obj 175 281 rc-spigot~;
#X obj 175 320 throw~ \$0-mixer;
#X obj 331 244 *~;
#X obj 331 282 rc-spigot~;
#X obj 331 321 throw~ \$0-mixer;
#X obj 487 322 throw~ \$0-mixer;
#X obj 793 16 r \$0-control;
#X obj 487 17 inlet~ noise;
#X obj 487 244 *~;
#X obj 487 282 rc-spigot~;
#X obj 647 324 throw~ \$0-mixer;
#X obj 647 246 *~;
#X obj 647 284 rc-spigot~;
#X text 15 346 summing bus;
#X obj 34 190 clip 0 10;
#X obj 34 221 / 10;
#X obj 190 216 / 10;
#X obj 346 218 / 10;
#X obj 502 217 / 10;
#X obj 662 220 / 10;
#X obj 190 190 clip 0 10;
#X obj 346 191 clip 0 10;
#X obj 502 191 clip 0 10;
#X obj 662 193 clip 0 10;
#X obj 793 52 routeOSC /osc1 /osc2 /osc3 /noise /external;
#X obj 206 162 routeOSC /vol /onoff;
#X obj 43 161 routeOSC /vol /onoff;
#X obj 354 163 routeOSC /vol /onoff;
#X obj 516 163 routeOSC /vol /onoff;
#X obj 674 165 routeOSC /vol /onoff;
#X connect 0 0 5 0;
#X connect 1 0 9 0;
#X connect 2 0 12 0;
#X connect 3 0 21 0;
#X connect 5 0 6 0;
#X connect 6 0 7 0;
#X connect 8 0 4 0;
#X connect 9 0 10 0;
#X connect 10 0 11 0;
#X connect 12 0 13 0;
#X connect 13 0 14 0;
#X connect 16 0 34 0;
#X connect 17 0 18 0;
#X connect 18 0 19 0;
#X connect 19 0 15 0;
#X connect 21 0 22 0;
#X connect 22 0 20 0;
#X connect 24 0 25 0;
#X connect 25 0 5 1;
#X connect 26 0 9 1;
#X connect 27 0 12 1;
#X connect 28 0 18 1;
#X connect 29 0 21 1;
#X connect 30 0 26 0;
#X connect 31 0 27 0;
#X connect 32 0 28 0;
#X connect 33 0 29 0;
#X connect 34 0 36 0;
#X connect 34 1 35 0;
#X connect 34 2 37 0;
#X connect 34 3 38 0;
#X connect 34 4 39 0;
#X connect 35 0 30 0;
#X connect 35 1 10 1;
#X connect 36 0 24 0;
#X connect 36 1 6 1;
#X connect 37 0 31 0;
#X connect 37 1 13 1;
#X connect 38 0 32 0;
#X connect 38 1 19 1;
#X connect 39 0 33 0;
#X connect 39 1 22 1;
#X restore 32 309 pd Mixer----------------;
#N canvas 0 22 287 343 Output 0;
#X obj 95 6 r \$0-control;
#N canvas 467 170 244 147 testtone 0;
#X obj 133 50 sel 0;
#X msg 163 79 1;
#X msg 133 78 0;
#X obj 26 23 osc~ 440;
#X obj 133 17 inlet;
#X obj 26 88 outlet~;
#X obj 133 114 switch~;
#X obj 26 61 *~ 0.33;
#X connect 0 0 2 0;
#X connect 0 1 1 0;
#X connect 1 0 6 0;
#X connect 2 0 6 0;
#X connect 3 0 7 0;
#X connect 4 0 0 0;
#X connect 7 0 5 0;
#X restore 40 97 pd testtone;
#X obj 25 -10 inlet~;
#X obj 25 303 outlet~;
#X obj 25 214 *~;
#X obj 25 241 rc-spigot~;
#X obj 40 187 / 10;
#X obj 40 161 clip 0 10;
#X obj 95 39 routeOSC /A440 /vol /onoff;
#X obj 25 128 +~;
#X connect 0 0 8 0;
#X connect 1 0 9 1;
#X connect 2 0 9 0;
#X connect 4 0 5 0;
#X connect 5 0 3 0;
#X connect 6 0 4 1;
#X connect 7 0 6 0;
#X connect 8 0 1 0;
#X connect 8 1 7 0;
#X connect 8 2 5 1;
#X connect 9 0 4 0;
#X restore 32 404 pd Output;
#X text 26 14 a minimoog-inspired 3 osc synth;
#X text 221 436 danomatika.com | robotcowboy.com;
#X text 52 38 modeled after what I can find about the minimoog ...
;
#X text 31 84 references:;
#X text 50 103 http://www.workrobot.com/music/minimoog.html;
#X text 51 121 http://emusician.com/mag/emusic_moog_minimoog/;
#X text 52 139 http://www.soundonsound.com/sos/mar05/articles/arturiaminimoog.htm
;
#X text 91 61 I'm quite sure it dosen't sound *exactly* like one;
#X text 221 421 2010 Dan Wilcox;
#X connect 1 0 10 0;
#X connect 1 1 10 1;
#X connect 1 2 10 2;
#X connect 1 3 10 3;
#X connect 2 0 10 4;
#X connect 3 0 8 0;
#X connect 4 0 8 0;
#X connect 5 0 7 0;
#X connect 6 0 9 1;
#X connect 7 0 1 0;
#X connect 9 0 11 0;
#X connect 10 0 9 0;
#X connect 11 0 0 0;
