#N canvas 163 115 507 522 10;
#X obj 206 270 /;
#X obj 206 301 int;
#X obj 92 419 sel 0;
#X msg 206 235 768 \$1;
#X obj 92 393 rc-count 4;
#X obj 92 353 sel 0;
#X text 180 395 number of beats per measure;
#X text 237 284 convert ticks to beats based on beat length;
#X obj 29 77 inlet midi ticks;
#X obj 92 475 outlet beats;
#X obj 119 448 outlet accent;
#X obj 149 146 inlet time signature pair;
#X obj 149 175 unpack f f;
#X obj 92 327 rc-count 192;
#N canvas 656 86 261 195 args 0;
#X obj 42 65 f \$1;
#X obj 153 65 f \$2;
#X obj 42 93 sel 0;
#X obj 153 93 sel 0;
#X msg 153 123 4;
#X obj 42 30 loadbang;
#X msg 42 123 4;
#X obj 42 162 outlet;
#X obj 153 161 outlet;
#X connect 0 0 2 0;
#X connect 1 0 3 0;
#X connect 2 0 6 0;
#X connect 2 1 7 0;
#X connect 3 0 4 0;
#X connect 3 1 8 0;
#X connect 4 0 8 0;
#X connect 5 0 0 0;
#X connect 5 0 1 0;
#X connect 6 0 7 0;
#X restore 158 203 pd args;
#X text 31 13 convert raw midi ticks to a time signature;
#X text 47 32 creation args: # beats per measure \, beat length;
#X text 181 61 4 4 \, 4 8 \, 3 4 \, 2 2 \, etc ...;
#X msg 29 133 reset;
#X obj 29 106 route reset float;
#X obj 78 134 sel 0;
#X obj 78 161 t f b;
#X connect 0 0 1 0;
#X connect 1 0 13 1;
#X connect 2 0 9 0;
#X connect 2 1 10 0;
#X connect 3 0 0 0;
#X connect 4 0 2 0;
#X connect 5 0 4 0;
#X connect 8 0 19 0;
#X connect 11 0 12 0;
#X connect 12 0 4 1;
#X connect 12 1 3 0;
#X connect 13 0 5 0;
#X connect 14 0 4 1;
#X connect 14 1 3 0;
#X connect 18 0 13 0;
#X connect 18 0 4 0;
#X connect 19 0 18 0;
#X connect 19 1 20 0;
#X connect 19 2 13 0;
#X connect 20 0 21 0;
#X connect 20 1 13 0;
#X connect 21 0 13 0;
#X connect 21 1 18 0;
