#N canvas 74 55 247 269 10;
#X obj 28 191 metro;
#X obj 55 163 /;
#X msg 55 134 60000 \$1;
#X obj 55 100 inlet bpm;
#N canvas 656 86 177 194 args 0;
#X obj 42 65 f \$1;
#X obj 42 93 sel 0;
#X msg 42 123 120;
#X obj 42 30 loadbang;
#X obj 42 162 s \$0-bpm;
#X connect 0 0 1 0;
#X connect 1 0 2 0;
#X connect 1 1 4 0;
#X connect 2 0 4 0;
#X connect 3 0 0 0;
#X restore 151 72 pd args;
#X obj 118 101 r \$0-bpm;
#X obj 28 71 inlet start stop;
#X obj 28 218 outlet bangs;
#X text 14 17 a bpm metronome;
#X text 65 40 creation args: bpm;
#X connect 0 0 7 0;
#X connect 1 0 0 1;
#X connect 2 0 1 0;
#X connect 3 0 2 0;
#X connect 5 0 2 0;
#X connect 6 0 0 0;
