#N canvas 360 33 848 695 10;
#X floatatom 107 315 5 0 0 0 beat_ticks - -;
#X floatatom 184 314 10 0 0 0 midi_ticks - -;
#X obj 107 341 bng 15 250 50 0 empty empty empty 17 7 0 10 -262144
-1 -1;
#X msg 70 34 1;
#X text 119 44 nonzero number or "bang" to start;
#X msg 107 83 0;
#X msg 81 57 bang;
#X msg 114 105 stop;
#X text 151 93 zero or "stop" to stop;
#X floatatom 134 183 4 0 0 0 - - -;
#X floatatom 161 220 4 0 0 0 - - -;
#X text 201 218 # of midi ticks per beat \, default: 4;
#X text 170 182 beats per minute \, default: 120;
#X floatatom 188 252 4 0 0 0 - - -;
#X text 228 251 current position in beat ticks;
#X msg 124 140 reset;
#X text 174 138 reset position to 0;
#X text 234 279 The MIDI spec calls for 192 midi ticks per beat and
;
#X msg 112 432 reset;
#X obj 44 194 tgl 15 0 empty empty empty 17 7 0 10 -262144 -1 -1 0
1;
#X obj 335 516 bng 15 250 50 0 empty empty empty 17 7 0 10 -262144
-1 -1;
#X obj 211 538 rc-bump~ 1000;
#X obj 335 539 rc-bump~ 800;
#X obj 211 564 *~ 0.5;
#X obj 309 662 rc-throw2~ DRUMS;
#X obj 335 565 *~ 0.25;
#X obj 211 512 bng 15 250 50 0 empty empty empty 17 7 0 10 -262144
-1 -1;
#X obj 49 378 sel 0;
#X text 446 357 length of beat;
#X msg 575 179 4 4;
#X msg 625 183 4 8;
#X msg 669 184 3 4;
#X msg 714 185 6 8;
#X msg 534 185 2 4;
#X msg 529 228 5 4;
#X text 578 146 time signatures;
#X msg 756 186 9 8;
#X msg 475 198 8 4;
#X msg 531 111 16 8;
#X floatatom 337 92 5 0 0 0 - - -;
#X obj 337 65 lfo 20000 20;
#X obj 337 116 + 0.5;
#X obj 337 141 * 150;
#X obj 424 582 rc-bass~;
#X msg 479 545 100;
#X obj 424 629 rc-throw~ BASS;
#X obj 424 605 *~ 0.5;
#X msg 496 149 6 4;
#X obj 493 460 loadbang;
#X obj 211 433 rc-mtimesig;
#X msg 493 488 40 45 42 54;
#X obj 321 436 rc-mtimesig 6 8;
#X obj 565 546 rc-nstep 8;
#X obj 453 457 bng 15 250 50 0 empty empty empty 17 7 0 10 -262144
-1 -1;
#X msg 565 519 bang;
#X msg 622 516 1 0 1 0 1 0 1 1;
#X obj 571 431 rc-mtimesig 8 16;
#X obj 565 581 rc-swish~ 100 1000;
#X obj 706 570 rc-bump~ 120;
#X obj 678 488 rc-nstep 8;
#X msg 678 461 bang;
#X msg 735 458 1 0 1 0 1 0 1 1;
#X obj 583 236 t a;
#X obj 565 630 *~ 0.25;
#X obj 106 281 rc-mmetro 200 8;
#X obj 706 596 *~ 0.25;
#X obj 424 515 rc-randseq 1;
#X msg 514 543 0;
#X connect 0 0 2 0;
#X connect 1 0 49 0;
#X connect 1 0 51 0;
#X connect 1 0 56 0;
#X connect 3 0 64 0;
#X connect 5 0 64 0;
#X connect 6 0 64 0;
#X connect 7 0 64 0;
#X connect 9 0 64 1;
#X connect 13 0 64 2;
#X connect 15 0 64 0;
#X connect 18 0 49 0;
#X connect 19 0 27 0;
#X connect 19 0 64 0;
#X connect 20 0 22 0;
#X connect 21 0 23 0;
#X connect 22 0 25 0;
#X connect 23 0 24 0;
#X connect 25 0 24 1;
#X connect 26 0 21 0;
#X connect 27 0 18 0;
#X connect 29 0 62 0;
#X connect 30 0 62 0;
#X connect 31 0 62 0;
#X connect 32 0 62 0;
#X connect 33 0 62 0;
#X connect 34 0 62 0;
#X connect 36 0 62 0;
#X connect 37 0 62 0;
#X connect 38 0 62 0;
#X connect 39 0 41 0;
#X connect 40 0 39 0;
#X connect 41 0 42 0;
#X connect 42 0 9 0;
#X connect 43 0 46 0;
#X connect 44 0 43 1;
#X connect 46 0 45 0;
#X connect 47 0 62 0;
#X connect 48 0 50 0;
#X connect 48 0 55 0;
#X connect 48 0 61 0;
#X connect 49 0 26 0;
#X connect 49 1 20 0;
#X connect 50 0 66 1;
#X connect 51 0 66 0;
#X connect 51 1 44 0;
#X connect 51 1 53 0;
#X connect 52 0 57 0;
#X connect 54 0 52 0;
#X connect 55 0 52 1;
#X connect 56 0 60 0;
#X connect 56 1 54 0;
#X connect 57 0 63 0;
#X connect 58 0 65 0;
#X connect 59 0 58 0;
#X connect 60 0 59 0;
#X connect 61 0 59 1;
#X connect 62 0 49 1;
#X connect 63 0 24 1;
#X connect 64 0 1 0;
#X connect 65 0 24 0;
#X connect 66 0 43 0;
#X connect 67 0 43 1;
