#N canvas 0 22 450 300 10;
#X obj 107 82 inlet~;
#X obj 92 227 outlet~;
#X obj 208 226 outlet~;
#X obj 341 35 inlet ctl;
#X obj 218 54 t b b;
#X obj 268 84 t b b;
#X obj 116 137 vline~;
#X msg 137 109 0 5;
#X msg 169 109 1 5;
#X msg 266 143 0 5;
#X msg 298 143 1 5;
#X obj 245 172 vline~;
#X obj 95 179 *~;
#X obj 167 181 *~;
#X obj 313 109 bng 15 250 50 0 empty empty empty 17 7 0 10 -262144
-1 -1;
#X obj 232 82 bng 15 250 50 0 empty empty empty 17 7 0 10 -262144 -1
-1;
#X obj 341 71 moses 1;
#X connect 0 0 12 0;
#X connect 0 0 13 0;
#X connect 3 0 16 0;
#X connect 4 0 8 0;
#X connect 4 1 9 0;
#X connect 4 1 15 0;
#X connect 5 0 7 0;
#X connect 5 1 10 0;
#X connect 5 1 14 0;
#X connect 6 0 12 1;
#X connect 7 0 6 0;
#X connect 8 0 6 0;
#X connect 9 0 11 0;
#X connect 10 0 11 0;
#X connect 11 0 13 1;
#X connect 12 0 1 0;
#X connect 13 0 2 0;
#X connect 16 0 4 0;
#X connect 16 1 5 0;
