#N canvas 861 330 362 350 10;
#N canvas 249 631 295 156 bpm2miditick 0;
#X obj 43 30 inlet;
#X obj 43 114 outlet;
#X obj 43 75 expr 60000 / ($f1*192);
#X text 108 45 192 midi ticks per beat;
#X connect 0 0 2 0;
#X connect 2 0 1 0;
#X restore 20 213 pd bpm2miditick;
#X obj -7 245 metro;
#X obj -70 81 inlet start stop;
#X obj 20 173 inlet bpm;
#X obj 110 247 inlet pos;
#X msg -70 143 0;
#X obj -7 313 outlet midi ticks;
#X obj -70 115 route reset;
#N canvas 656 86 177 194 args 0;
#X obj 42 65 f \$1;
#X obj 42 93 sel 0;
#X msg 42 123 120;
#X obj 42 30 loadbang;
#X obj 42 162 s \$0-bpm;
#X connect 0 0 1 0;
#X connect 1 0 2 0;
#X connect 1 1 4 0;
#X connect 2 0 4 0;
#X connect 3 0 0 0;
#X restore 73 81 pd args;
#X obj 83 174 r \$0-bpm;
#X obj -70 173 s \$0-reset;
#N canvas 0 22 364 290 pos 0;
#X obj 172 85 inlet pos;
#X obj 95 191 f;
#X obj 136 191 + 1;
#X obj 172 138 * 48;
#X obj 172 114 int;
#X text 179 190 pos in midi ticks;
#X obj 3 121 r \$0-reset;
#X obj 95 54 inlet metro;
#X obj 95 229 outlet;
#X connect 0 0 4 0;
#X connect 1 0 2 0;
#X connect 1 0 8 0;
#X connect 2 0 1 1;
#X connect 3 0 1 0;
#X connect 4 0 3 0;
#X connect 6 0 1 0;
#X connect 7 0 1 0;
#X restore -7 279 pd pos in midi ticks;
#X text -74 10 a bpm metronome using midi ticks \, sends ticks instead
of bangs;
#X text -44 47 creation args: bpm;
#X connect 0 0 1 1;
#X connect 1 0 11 0;
#X connect 2 0 7 0;
#X connect 3 0 0 0;
#X connect 4 0 11 1;
#X connect 5 0 10 0;
#X connect 7 0 5 0;
#X connect 7 1 1 0;
#X connect 9 0 0 0;
#X connect 11 0 6 0;
