#N canvas 471 508 739 429 10;
#X obj 81 205 outlet;
#X obj 42 234 outlet;
#X obj 42 49 inlet;
#X obj 552 71 inlet;
#N canvas 82 492 374 352 core 0;
#X obj 118 27 inlet;
#X obj 118 169 f;
#X obj 144 170 + 1;
#X obj 171 170 mod 16;
#X obj 118 222 tabread \$0-seq;
#X obj 240 256 outlet;
#X obj 240 208 select 15;
#X obj 118 191 t a a;
#X obj 118 244 select 0;
#X msg 192 118 0;
#X text 17 172 counter 0 -15;
#X text 251 230 bang on end;
#X text 37 221 read table;
#X obj 204 147 r \$0-size;
#X text 268 149 size;
#X obj 291 183 - 1;
#X text 160 26 metro on/off bangs;
#X obj 192 79 inlet;
#X text 234 78 reset counter;
#X obj 82 99 bng 15 250 50 0 empty empty empty 17 7 0 10 -262144 -1
-1;
#X obj 171 285 outlet;
#X connect 0 0 1 0;
#X connect 0 0 19 0;
#X connect 1 0 2 0;
#X connect 1 0 7 0;
#X connect 2 0 3 0;
#X connect 3 0 1 1;
#X connect 4 0 8 0;
#X connect 6 0 5 0;
#X connect 7 0 4 0;
#X connect 7 1 6 0;
#X connect 8 1 20 0;
#X connect 9 0 1 1;
#X connect 13 0 3 1;
#X connect 13 0 15 0;
#X connect 15 0 6 1;
#X connect 17 0 9 0;
#X restore 42 178 pd core;
#X obj 552 133 s \$0-seq;
#X text 130 204 bang on end of sequence;
#X obj 336 152 loadbang;
#X obj 336 292 f \$0;
#N canvas 0 0 450 300 (subpatch) 0;
#X array \$0-seq 8 float 0;
#X coords 0 127 7 0 100 70 1;
#X restore 551 182 graph;
#X obj 336 318 pack f f;
#X msg 336 356 \; \$1-seq resize \$2;
#X obj 355 237 moses 1;
#X obj 355 207 \$1;
#X text 411 237 filter bad nums;
#X text 387 206 creation arg: seq length;
#X text 282 10 list of new sequence \, contains 0 or 1 and is n items
long;
#X text 14 11 a simple n step sequence player;
#X msg 355 262 16;
#X obj 336 179 t b b;
#X text 399 262 default size: 16;
#X obj 406 299 s \$0-size;
#X obj 124 150 tabdump \$0-seq;
#X obj 124 128 bng 15 250 50 0 empty empty empty 0 -6 0 10 -262144
-1 -1;
#X obj 124 176 outlet;
#X text 142 129 send out sequence as list on "dump" msg;
#X text 87 49 metro toggle in;
#X obj 552 102 list prepend 0;
#X msg 244 42 dump;
#X text 277 41 sends out sequence list thru 3rd outlet;
#X msg 244 68 clear;
#X text 287 68 clears sequence to 0s;
#N canvas 0 0 316 293 clear_array 0;
#X obj 38 75 bng 15 250 50 0 empty empty empty 0 -6 0 10 -262144 -1
-1;
#X obj 38 44 inlet;
#X obj 38 103 t b b;
#X obj 38 259 outlet;
#X text 85 259 bang for tabdump after clearing table;
#X obj 65 170 \$0;
#X obj 65 138 bng 15 250 50 0 empty empty empty 0 -6 0 10 -262144 -1
-1;
#X msg 65 197 \; \$1-seq const 0;
#X text 14 11 clears the table;
#X connect 0 0 2 0;
#X connect 1 0 0 0;
#X connect 2 0 3 0;
#X connect 2 1 6 0;
#X connect 5 0 7 0;
#X connect 6 0 5 0;
#X restore 165 103 pd clear_array;
#X obj 42 78 route bang reset dump clear;
#X text 94 235 send in sequence;
#X connect 2 0 33 0;
#X connect 3 0 27 0;
#X connect 4 0 1 0;
#X connect 4 1 0 0;
#X connect 7 0 19 0;
#X connect 8 0 10 0;
#X connect 10 0 11 0;
#X connect 12 0 18 0;
#X connect 12 1 10 1;
#X connect 12 1 21 0;
#X connect 13 0 12 0;
#X connect 18 0 10 1;
#X connect 19 0 8 0;
#X connect 19 1 13 0;
#X connect 22 0 24 0;
#X connect 23 0 22 0;
#X connect 27 0 5 0;
#X connect 32 0 23 0;
#X connect 33 0 4 0;
#X connect 33 1 4 1;
#X connect 33 2 23 0;
#X connect 33 3 32 0;
