#N canvas 0 0 339 551 10;
#X obj 147 17 inlet;
#N canvas 0 0 450 398 m2channel 0;
#X obj 240 131 - 143;
#X obj 120 73 moses 128;
#X obj 180 101 moses 144;
#X obj 180 131 - 127;
#X text 290 130 note on events;
#X text 66 130 note off events;
#X obj 213 323 outlet chan;
#X obj 120 39 inlet;
#X obj 272 286 outlet noteoff;
#X msg 212 189 1;
#X msg 272 192 0;
#X obj 180 163 t f b;
#X obj 240 164 t f b;
#X msg 272 254 0;
#X msg 325 256 bang;
#X obj 272 232 select 1;
#X connect 0 0 12 0;
#X connect 1 1 2 0;
#X connect 2 0 3 0;
#X connect 2 1 0 0;
#X connect 3 0 11 0;
#X connect 7 0 1 0;
#X connect 9 0 15 0;
#X connect 10 0 15 0;
#X connect 11 0 6 0;
#X connect 11 1 9 0;
#X connect 12 0 6 0;
#X connect 12 1 10 0;
#X connect 13 0 8 0;
#X connect 14 0 8 0;
#X connect 15 0 13 0;
#X connect 15 1 14 0;
#X restore 147 134 pd m2channel;
#X obj 147 105 unpack f f f;
#X obj 169 194 f;
#X obj 211 197 f;
#X obj 147 162 t f b;
#X obj 147 227 pack f f f;
#X obj 147 365 list;
#X obj 147 390 list trim;
#X obj 55 130 loadbang;
#X obj 55 186 sel 0;
#N canvas 0 0 450 300 gate 0;
#X obj 68 42 inlet;
#X obj 157 45 inlet;
#X obj 89 179 outlet;
#X obj 118 155 outlet;
#X obj 89 95 list prepend 1;
#X obj 89 120 route 1 2;
#X connect 0 0 4 1;
#X connect 1 0 4 0;
#X connect 4 0 5 0;
#X connect 5 0 2 0;
#X connect 5 1 3 0;
#X restore 87 258 pd gate 2;
#X msg 55 212 1;
#X msg 87 212 2;
#X obj 147 292 t a a;
#X obj 55 161 f \$1;
#X obj 147 319 route \$1;
#X msg 147 342 bang;
#X text 32 107 if no arg \$1;
#X text 30 93 don't filter;
#X obj 148 515 outlet note;
#X obj 187 489 outlet vel;
#X obj 228 464 outlet chan;
#X obj 147 436 unpack f f f;
#X obj 147 59 zl group 3;
#X connect 0 0 24 0;
#X connect 1 0 5 0;
#X connect 1 1 4 0;
#X connect 2 0 1 0;
#X connect 2 1 3 1;
#X connect 2 2 4 1;
#X connect 3 0 6 1;
#X connect 4 0 6 2;
#X connect 5 0 6 0;
#X connect 5 1 3 0;
#X connect 6 0 11 1;
#X connect 7 0 8 0;
#X connect 8 0 23 0;
#X connect 9 0 15 0;
#X connect 10 0 12 0;
#X connect 10 1 13 0;
#X connect 11 0 23 0;
#X connect 11 1 14 0;
#X connect 12 0 11 0;
#X connect 13 0 11 0;
#X connect 14 0 16 0;
#X connect 14 1 7 1;
#X connect 15 0 10 0;
#X connect 16 0 17 0;
#X connect 17 0 7 0;
#X connect 23 0 22 0;
#X connect 23 1 20 0;
#X connect 23 2 21 0;
#X connect 24 0 2 0;
