#N canvas 104 199 404 389 10;
#X obj 67 337 bng 15 250 50 0 empty empty empty 17 7 0 10 -262144 -1
-1;
#X obj 39 91 metro 200;
#X obj 39 54 tgl 15 0 empty empty empty 17 7 0 10 -262144 -1 -1 0 1
;
#X msg 51 158 reset;
#X obj 51 119 sel 0;
#X floatatom 90 66 5 0 0 0 - - -;
#X obj 96 308 print seq_dump;
#X msg 76 198 dump;
#X text 183 55 Creation args: seq length;
#X text 249 240 sequences in as lists;
#X text 119 198 dump out the sequence;
#X text 99 161 reset pos to 0;
#X text 204 308 sequences out as lists;
#X text 84 337 end of seq;
#X obj 39 276 rc-nseq 8;
#X text 16 10 rc-nseq: an arbitrary length sequence player;
#X msg 133 225 80 0 127 0 99 0 0 0;
#X msg 134 257 10 0 20 0 30 40 50 60;
#X floatatom 39 362 5 0 0 0 - - -;
#X text 78 362 sequence out;
#X text 300 268 eats 0's;
#X msg 77 234 clear;
#X connect 1 0 14 0;
#X connect 2 0 4 0;
#X connect 2 0 1 0;
#X connect 3 0 14 0;
#X connect 4 0 3 0;
#X connect 5 0 1 1;
#X connect 7 0 14 0;
#X connect 14 0 18 0;
#X connect 14 1 0 0;
#X connect 14 2 6 0;
#X connect 16 0 14 1;
#X connect 17 0 14 1;
#X connect 21 0 14 0;
