#N canvas 203 595 393 448 10;
#X obj 123 58 inlet;
#N canvas 0 0 450 398 m2channel 0;
#X obj 240 131 - 143;
#X obj 120 73 moses 128;
#X obj 180 101 moses 144;
#X obj 180 131 - 127;
#X text 290 130 note on events;
#X text 66 130 note off events;
#X obj 213 323 outlet chan;
#X obj 120 39 inlet;
#X obj 272 286 outlet noteoff;
#X msg 212 189 1;
#X msg 272 192 0;
#X obj 180 163 t f b;
#X obj 240 164 t f b;
#X msg 272 258 0;
#X obj 272 232 sel 1;
#X connect 0 0 12 0;
#X connect 1 1 2 0;
#X connect 2 0 3 0;
#X connect 2 1 0 0;
#X connect 3 0 11 0;
#X connect 7 0 1 0;
#X connect 9 0 14 0;
#X connect 10 0 14 0;
#X connect 11 0 6 0;
#X connect 11 1 9 0;
#X connect 12 0 6 0;
#X connect 12 1 10 0;
#X connect 13 0 8 0;
#X connect 14 0 13 0;
#X restore 123 175 pd m2channel;
#X obj 123 146 unpack f f f;
#X obj 123 205 pack f f f;
#X obj 123 322 list trim;
#X obj 40 108 loadbang;
#X obj 40 164 sel 0;
#N canvas 0 0 450 300 gate 0;
#X obj 68 42 inlet;
#X obj 157 45 inlet;
#X obj 89 179 outlet;
#X obj 118 155 outlet;
#X obj 89 95 list prepend 1;
#X obj 89 120 route 1 2;
#X connect 0 0 4 1;
#X connect 1 0 4 0;
#X connect 4 0 5 0;
#X connect 5 0 2 0;
#X connect 5 1 3 0;
#X restore 72 236 pd gate 2;
#X msg 40 190 1;
#X msg 72 190 2;
#X obj 40 139 f \$1;
#X obj 123 264 route \$1;
#X text 17 85 if no arg \$1;
#X text 15 71 don't filter;
#X obj 84 407 outlet note;
#X obj 163 408 outlet vel;
#X obj 241 407 outlet chan;
#X obj 123 355 unpack f f f;
#X text 243 96 grab groups of 3 filo;
#X text 209 144 event+chan note vel;
#X text 199 203 chan note vel;
#X text 12 12 an analog to [notein] for midi streams from midiin or
mrpeach [midifile];
#X obj 123 293 list prepend 0;
#X text 213 356 chan note vel;
#X obj 123 99 zl group 3;
#X connect 0 0 24 0;
#X connect 1 0 3 0;
#X connect 1 1 3 2;
#X connect 2 0 1 0;
#X connect 2 1 3 1;
#X connect 2 2 3 2;
#X connect 3 0 7 1;
#X connect 4 0 17 0;
#X connect 5 0 10 0;
#X connect 6 0 8 0;
#X connect 6 1 9 0;
#X connect 7 0 17 0;
#X connect 7 1 11 0;
#X connect 8 0 7 0;
#X connect 9 0 7 0;
#X connect 10 0 6 0;
#X connect 11 0 22 0;
#X connect 17 0 16 0;
#X connect 17 1 14 0;
#X connect 17 2 15 0;
#X connect 22 0 4 0;
#X connect 24 0 2 0;
