#N canvas 881 249 510 357 10;
#N canvas 8 77 450 300 gate 0;
#X obj 68 42 inlet;
#X obj 157 45 inlet;
#X obj 89 179 outlet;
#X obj 118 155 outlet;
#X obj 89 95 list prepend 1;
#X obj 89 120 route 1 2;
#X connect 0 0 4 1;
#X connect 1 0 4 0;
#X connect 4 0 5 0;
#X connect 5 0 2 0;
#X connect 5 1 3 0;
#X restore 29 199 pd gate 2;
#X obj 343 266 dac~;
#X obj 365 164 hip~ 5;
#X obj 267 164 hip~ 5;
#X obj -13 47 inlet;
#X msg -13 124 1;
#X msg 29 127 2;
#X obj 29 157 t f;
#X obj 229 328 outlet recording;
#X obj 56 326 outlet filename;
#X msg 148 130 set \$1;
#X obj 148 198 t a;
#X obj 72 106 sel 1 0;
#X msg 72 158 1;
#X msg 105 158 0;
#X obj -13 76 route wav mp3 record filename;
#X text -29 17 stereo audio outlet with built in file recorders;
#X obj 184 76 loadbang;
#X msg 184 101 symbol unnamed;
#X obj 148 269 rc-record_mp3~;
#X obj 56 269 rc-record~;
#X text 265 59 Dan Wilcox 2009;
#X text 263 72 robotcowboy.com|danomatika.com;
#X obj 365 132 inlet~;
#X obj 267 131 inlet~;
#X connect 0 0 20 0;
#X connect 0 1 19 0;
#X connect 2 0 1 1;
#X connect 2 0 19 2;
#X connect 2 0 20 2;
#X connect 3 0 1 0;
#X connect 3 0 19 1;
#X connect 3 0 20 1;
#X connect 4 0 15 0;
#X connect 5 0 7 0;
#X connect 6 0 7 0;
#X connect 7 0 0 0;
#X connect 10 0 11 0;
#X connect 11 0 19 0;
#X connect 11 0 20 0;
#X connect 12 0 13 0;
#X connect 12 1 14 0;
#X connect 13 0 0 1;
#X connect 14 0 0 1;
#X connect 15 0 5 0;
#X connect 15 1 6 0;
#X connect 15 2 12 0;
#X connect 15 3 10 0;
#X connect 17 0 18 0;
#X connect 18 0 10 0;
#X connect 19 0 9 0;
#X connect 19 1 8 0;
#X connect 20 0 9 0;
#X connect 20 1 8 0;
#X connect 23 0 2 0;
#X connect 24 0 3 0;
