#N canvas 549 78 382 539 10;
#X obj 147 17 inlet;
#N canvas 102 406 425 253 m2channel 0;
#X obj 171 163 outlet chan;
#X obj 120 39 inlet;
#X obj 120 73 moses 191;
#X obj 171 135 - 191;
#X obj 171 105 moses 208;
#X connect 1 0 2 0;
#X connect 2 1 4 0;
#X connect 3 0 0 0;
#X connect 4 0 3 0;
#X restore 147 132 pd m2channel;
#X obj 147 102 unpack f f f;
#X obj 174 193 f;
#X obj 147 365 list;
#X obj 147 390 list trim;
#X obj 55 130 loadbang;
#X obj 55 186 sel 0;
#N canvas 0 0 450 300 gate 0;
#X obj 68 42 inlet;
#X obj 157 45 inlet;
#X obj 89 179 outlet;
#X obj 118 155 outlet;
#X obj 89 95 list prepend 1;
#X obj 89 120 route 1 2;
#X connect 0 0 4 1;
#X connect 1 0 4 0;
#X connect 4 0 5 0;
#X connect 5 0 2 0;
#X connect 5 1 3 0;
#X restore 87 258 pd gate 2;
#X msg 55 212 1;
#X msg 87 212 2;
#X obj 147 292 t a a;
#X obj 55 161 f \$1;
#X obj 147 319 route \$1;
#X msg 147 342 bang;
#X text 32 107 if no arg \$1;
#X text 30 93 don't filter;
#X obj 287 467 outlet chan;
#X obj 147 46 last-x 3;
#X obj 147 74 list-rev;
#X text 209 326 filter;
#X obj 136 476 outlet value;
#X obj 147 227 pack f f;
#X obj 147 160 t f b;
#X obj 147 436 unpack f f;
#X obj 216 163 + 1;
#X connect 0 0 18 0;
#X connect 1 0 23 0;
#X connect 2 1 1 0;
#X connect 2 2 25 0;
#X connect 3 0 22 1;
#X connect 4 0 5 0;
#X connect 5 0 24 0;
#X connect 6 0 12 0;
#X connect 7 0 9 0;
#X connect 7 1 10 0;
#X connect 8 0 24 0;
#X connect 8 1 11 0;
#X connect 9 0 8 0;
#X connect 10 0 8 0;
#X connect 11 0 13 0;
#X connect 11 1 4 1;
#X connect 12 0 7 0;
#X connect 13 0 14 0;
#X connect 14 0 4 0;
#X connect 18 0 19 0;
#X connect 19 0 2 0;
#X connect 22 0 8 1;
#X connect 23 0 22 0;
#X connect 23 1 3 0;
#X connect 24 0 17 0;
#X connect 24 1 21 0;
#X connect 25 0 3 1;
