#N canvas 951 422 403 483 10;
#X obj 147 48 inlet;
#N canvas 557 737 425 253 m2channel 0;
#X obj 171 163 outlet chan;
#X obj 120 39 inlet;
#X obj 120 73 moses 191;
#X obj 171 135 - 191;
#X obj 171 105 moses 208;
#X connect 1 0 2 0;
#X connect 2 1 4 0;
#X connect 3 0 0 0;
#X connect 4 0 3 0;
#X restore 147 163 pd m2channel;
#X obj 174 224 f;
#X obj 138 384 list trim;
#X obj 55 161 loadbang;
#X obj 55 217 sel 0;
#N canvas 0 0 450 300 gate 0;
#X obj 68 42 inlet;
#X obj 157 45 inlet;
#X obj 89 179 outlet;
#X obj 118 155 outlet;
#X obj 89 95 list prepend 1;
#X obj 89 120 route 1 2;
#X connect 0 0 4 1;
#X connect 1 0 4 0;
#X connect 4 0 5 0;
#X connect 5 0 2 0;
#X connect 5 1 3 0;
#X restore 87 289 pd gate 2;
#X msg 55 243 1;
#X msg 87 243 2;
#X obj 55 192 f \$1;
#X obj 138 326 route \$1;
#X text 32 138 if no arg \$1;
#X text 30 124 don't filter;
#X obj 204 455 outlet chan;
#X obj 147 258 pack f f;
#X obj 147 191 t f b;
#X obj 138 418 unpack f f;
#X obj 216 194 + 1;
#X text 12 12 an analog to [pgmin] for midi streams from midiin or
mrpeach [midifile];
#X text 210 257 chan pgm;
#X obj 147 133 unpack f f f f f;
#X text 254 134 ? 0 0 event+chan pgm;
#X text 202 326 filter by channel;
#X obj 138 356 list prepend 0;
#X text 224 77 grab groups of 5 filo;
#X text 215 417 chan pgm;
#X obj 118 453 outlet pgm;
#X obj 147 80 zl group 5;
#X connect 0 0 27 0;
#X connect 1 0 15 0;
#X connect 2 0 14 1;
#X connect 3 0 16 0;
#X connect 4 0 9 0;
#X connect 5 0 7 0;
#X connect 5 1 8 0;
#X connect 6 0 16 0;
#X connect 6 1 10 0;
#X connect 7 0 6 0;
#X connect 8 0 6 0;
#X connect 9 0 5 0;
#X connect 10 0 23 0;
#X connect 14 0 6 1;
#X connect 15 0 14 0;
#X connect 15 1 2 0;
#X connect 16 0 13 0;
#X connect 16 1 26 0;
#X connect 17 0 2 1;
#X connect 20 3 1 0;
#X connect 20 4 17 0;
#X connect 23 0 3 0;
#X connect 27 0 20 0;
