#N canvas 458 171 749 311 10;
#X obj 24 59 inlet~;
#X obj 23 217 outlet~;
#X obj 128 219 outlet~;
#X obj 262 155 clip 0 1;
#X text 355 258 Dan Wilcox 2009;
#X text 356 275 danomatika.com | robotcowboy.com;
#N canvas 44 529 578 425 mix 0;
#X obj 80 369 outlet~;
#X obj 242 375 outlet~;
#X obj 243 323 hip~ 5;
#X obj 81 316 hip~ 5;
#X text 281 130 wet;
#X obj 250 130 *~ 0;
#X obj 82 205 *~ 1;
#X text 112 205 dry;
#X obj 81 53 inlet~ dry;
#X obj 119 174 r \$0-dry;
#X obj 281 97 r \$0-wet;
#X floatatom 144 203 5 0 0 0 - - -;
#X obj 202 130 *~ 0;
#X obj 243 350 clip~ -1 1;
#X obj 80 343 clip~ -1 1;
#X obj 292 262 *~ 0;
#X obj 364 117 expr sqrt(1-$f1) \; sqrt($f1);
#X obj 222 224 *~ 0;
#X obj 202 30 inlet~ wet main;
#X obj 249 67 inlet~ wet echo;
#X obj 376 217 expr sqrt(1-$f1) \; sqrt($f1);
#X obj 376 191 r \$0-echopan;
#X obj 335 265 *~ 1;
#X obj 181 226 *~ 1;
#X obj 364 90 r \$0-revpan;
#X connect 2 0 13 0;
#X connect 3 0 14 0;
#X connect 5 0 15 0;
#X connect 5 0 22 0;
#X connect 6 0 3 0;
#X connect 6 0 2 0;
#X connect 8 0 6 0;
#X connect 9 0 6 1;
#X connect 9 0 11 0;
#X connect 10 0 5 1;
#X connect 10 0 12 1;
#X connect 12 0 17 0;
#X connect 12 0 23 0;
#X connect 13 0 1 0;
#X connect 14 0 0 0;
#X connect 15 0 3 0;
#X connect 16 0 23 1;
#X connect 16 1 17 1;
#X connect 17 0 2 0;
#X connect 18 0 12 0;
#X connect 19 0 5 0;
#X connect 20 0 15 1;
#X connect 20 1 22 1;
#X connect 21 0 20 0;
#X connect 22 0 2 0;
#X connect 23 0 3 0;
#X connect 24 0 16 0;
#X restore 23 190 pd mix wet and dry;
#X text 1 21 a simple reverb;
#X obj 522 162 clip 0 1;
#X obj 603 162 clip 0 1;
#X obj 522 192 s \$0-wet;
#X obj 603 192 s \$0-dry;
#N canvas 600 264 794 715 guts 0;
#X obj 216 276 +~;
#X obj 272 276 +~;
#X obj 215 357 +~;
#X obj 324 358 +~;
#X obj 257 357 -~;
#X obj 364 357 -~;
#X obj 214 413 +~;
#X obj 258 414 +~;
#X obj 302 415 -~;
#X obj 341 415 -~;
#X obj 301 497 *~ 0;
#X obj 259 496 *~ 0;
#X obj 214 495 *~ 0;
#X obj 342 498 *~ 0;
#X obj 107 63 s-reverb-echo \$0-echo-del1 5.43216;
#X obj 107 84 s-reverb-echo \$0-echo-del2 8.45346;
#X obj 230 226 delread~ \$0-loop-del1 39.5161;
#X obj 215 608 delwrite~ \$0-loop-del1 39.5161;
#X obj 286 251 delread~ \$0-loop-del2 37.1212;
#X obj 259 584 delwrite~ \$0-loop-del2 37.1212;
#X obj 325 284 delread~ \$0-loop-del3 34.534;
#X obj 302 560 delwrite~ \$0-loop-del3 34.534;
#X obj 341 536 delwrite~ \$0-loop-del4 32.5221;
#X obj 379 308 delread~ \$0-loop-del4 32.5221;
#X obj 107 132 s-reverb-echo \$0-echo-del4 100;
#X obj 108 109 s-reverb-echo \$0-echo-del3 79.3165;
#X floatatom 388 458 5 0 0 0 - - -;
#X obj 106 25 inlet~;
#X obj 156 355 outlet~;
#X obj 103 355 outlet~;
#X obj 285 205 *~ 0.3;
#X obj 107 157 s-reverb-echo \$0-echo-del5 129.326;
#X obj 108 181 s-reverb-echo \$0-echo-del6 192;
#X obj 388 427 r \$0-rev;
#X obj 388 186 r \$0-echo;
#X connect 0 0 2 0;
#X connect 0 0 4 0;
#X connect 0 0 29 0;
#X connect 1 0 2 1;
#X connect 1 0 4 1;
#X connect 1 0 28 0;
#X connect 2 0 6 0;
#X connect 2 0 8 0;
#X connect 3 0 8 1;
#X connect 3 0 6 1;
#X connect 4 0 7 0;
#X connect 4 0 9 0;
#X connect 5 0 7 1;
#X connect 5 0 9 1;
#X connect 6 0 12 0;
#X connect 7 0 11 0;
#X connect 8 0 10 0;
#X connect 9 0 13 0;
#X connect 10 0 21 0;
#X connect 11 0 19 0;
#X connect 12 0 17 0;
#X connect 13 0 22 0;
#X connect 14 0 15 0;
#X connect 14 1 15 1;
#X connect 15 0 25 0;
#X connect 15 1 25 1;
#X connect 16 0 0 1;
#X connect 18 0 1 1;
#X connect 20 0 3 0;
#X connect 20 0 5 0;
#X connect 23 0 3 1;
#X connect 23 0 5 1;
#X connect 24 0 31 0;
#X connect 24 1 31 1;
#X connect 25 0 24 0;
#X connect 25 1 24 1;
#X connect 26 0 13 1;
#X connect 26 0 10 1;
#X connect 26 0 11 1;
#X connect 27 0 14 0;
#X connect 30 0 1 0;
#X connect 31 0 32 0;
#X connect 31 1 32 1;
#X connect 32 0 0 0;
#X connect 32 1 30 0;
#X connect 33 0 26 0;
#X connect 34 0 30 1;
#X restore 76 142 pd guts;
#X text 14 266 Reverb design by Miller Puckette. Adapted from Chris
McCormick's s-reverb abstraction.;
#X obj 24 99 clip~ -1 1;
#X obj 287 56 inlet control;
#X obj 262 185 * 0.4;
#X obj 323 156 clip 0 1;
#X obj 323 188 s \$0-echo;
#X obj 262 214 s \$0-rev;
#X obj 287 81 route reverb echo reverbpan echopan wet dry;
#X obj 389 184 clip 0 1;
#X obj 465 189 clip 0 1;
#X obj 389 214 s \$0-revpan;
#X obj 465 219 s \$0-echopan;
#X connect 0 0 14 0;
#X connect 3 0 16 0;
#X connect 6 0 1 0;
#X connect 6 1 2 0;
#X connect 8 0 10 0;
#X connect 9 0 11 0;
#X connect 12 0 6 1;
#X connect 12 1 6 2;
#X connect 14 0 12 0;
#X connect 14 0 6 0;
#X connect 15 0 20 0;
#X connect 16 0 19 0;
#X connect 17 0 18 0;
#X connect 20 0 3 0;
#X connect 20 1 17 0;
#X connect 20 2 21 0;
#X connect 20 3 22 0;
#X connect 20 4 8 0;
#X connect 20 5 9 0;
#X connect 21 0 23 0;
#X connect 22 0 24 0;
