#N canvas 41 320 624 354 10;
#X obj 14 278 outlet~;
#N canvas 269 287 600 430 mix 0;
#X obj 77 375 outlet~;
#X obj 171 31 r \$0-onoff;
#X msg 171 264 1;
#X msg 228 262 0;
#X obj 171 84 sel 0;
#X obj 171 114 t b b;
#X obj 235 58 loadbang;
#X text 167 358 turn mix on and off;
#X text 169 375 turns dry to 1 when off;
#X obj 361 369 outlet~;
#X obj 440 158 inlet~ wet L;
#X obj 348 65 inlet~ wet R;
#X obj 79 30 inlet~ dry;
#X obj 241 132 t b b;
#X msg 239 168 0;
#X msg 284 170 1;
#X obj 79 306 *~ 0;
#X obj 348 304 *~ 1;
#X obj 441 310 *~ 1;
#X connect 1 0 4 0;
#X connect 2 0 16 1;
#X connect 3 0 17 1;
#X connect 3 0 18 1;
#X connect 4 0 5 0;
#X connect 4 1 13 0;
#X connect 5 0 2 0;
#X connect 5 1 3 0;
#X connect 6 0 13 0;
#X connect 10 0 18 0;
#X connect 11 0 17 0;
#X connect 12 0 16 0;
#X connect 13 0 14 0;
#X connect 13 1 15 0;
#X connect 14 0 16 1;
#X connect 15 0 17 1;
#X connect 15 0 18 1;
#X connect 16 0 0 0;
#X connect 16 0 9 0;
#X connect 17 0 0 0;
#X connect 18 0 9 0;
#X restore 15 251 pd mix;
#X obj 255 312 s \$0-wet;
#X obj 296 286 s \$0-dry;
#N canvas 0 0 515 365 state_saving 0;
#X text 10 9 sssad sends and recieves;
#X obj 257 100 r \$0-wet;
#X obj 152 125 sssad/sssad \$1/wet;
#X obj 152 147 s \$0-wet;
#X obj 333 145 r \$0-dry;
#X obj 228 170 sssad/sssad \$1/dry;
#X obj 228 192 s \$0-dry;
#X obj 187 41 r \$0-reverb;
#X obj 70 64 sssad/sssad \$1/reverb;
#X obj 70 89 s \$0-reverb;
#X obj 431 204 r \$0-echo;
#X obj 320 228 sssad/sssad \$1/echo;
#X obj 320 250 s \$0-echo;
#X obj 158 224 r \$0-revpan;
#X obj 35 248 sssad/sssad \$1/revpan;
#X obj 35 270 s \$0-revpan;
#X obj 256 281 r \$0-echopan;
#X obj 127 306 sssad/sssad \$1/echopan;
#X obj 127 328 s \$0-echopan;
#X connect 1 0 2 1;
#X connect 2 0 3 0;
#X connect 4 0 5 1;
#X connect 5 0 6 0;
#X connect 7 0 8 1;
#X connect 8 0 9 0;
#X connect 10 0 11 1;
#X connect 11 0 12 0;
#X connect 13 0 14 1;
#X connect 14 0 15 0;
#X connect 16 0 17 1;
#X connect 17 0 18 0;
#X restore 385 315 pd state_saving;
#X obj 489 211 s \$0-onoff;
#X text 190 55 Creation args: name;
#X obj 1 16 cnv 15 138 106 empty empty empty 20 12 0 14 -228856 -66577
0;
#X obj 2 20 tgl 12 1 \$0-onoff \$0-onoff empty -6 -6 0 10 -191407 -1
-1 1 1;
#X obj 65 90 hsl 70 15 0 1 0 0 \$0-revpan \$0-revpan reverbpan 0 8
0 10 -191407 -1 -1 1700 1;
#X obj 17 91 nbx 4 14 0 1 0 1 \$0-revpan \$0-revpan empty -20 6 0 10
-261234 -1 -1 0.246377 256;
#X obj 65 105 hsl 70 15 0 1 0 0 \$0-echopan \$0-echopan echopan 0 8
0 10 -191407 -1 -1 5800 1;
#X obj 17 106 nbx 4 14 0 1 0 1 \$0-echopan \$0-echopan empty -20 6
0 10 -261234 -1 -1 0.84058 256;
#X obj 65 19 hsl 70 15 0 1 0 0 \$0-reverb \$0-reverb reverb 0 8 0 10
-191407 -1 -1 2400 1;
#X obj 17 20 nbx 4 14 0 1 0 1 \$0-reverb \$0-reverb empty -20 6 0 10
-261234 -1 -1 0.347826 256;
#N canvas 377 278 401 352 control 0;
#X obj 131 296 outlet;
#X obj 170 68 r \$0-dry;
#X obj 109 38 r \$0-wet;
#X msg 109 67 wet \$1;
#X msg 170 92 dry \$1;
#X msg 23 89 reverb \$1;
#X obj 23 63 r \$0-reverb;
#X obj 237 97 r \$0-echo;
#X msg 237 123 echo \$1;
#X obj 245 176 r \$0-revpan;
#X msg 269 261 echopan \$1;
#X obj 269 235 r \$0-echopan;
#X msg 245 202 reverbpan \$1;
#X connect 1 0 4 0;
#X connect 2 0 3 0;
#X connect 3 0 0 0;
#X connect 4 0 0 0;
#X connect 5 0 0 0;
#X connect 6 0 5 0;
#X connect 7 0 8 0;
#X connect 8 0 0 0;
#X connect 9 0 12 0;
#X connect 10 0 0 0;
#X connect 11 0 10 0;
#X connect 12 0 0 0;
#X restore 71 193 pd control in;
#X obj 15 152 inlet~ auduo;
#X text 11 308 2009 Dan Wilcox;
#X text 10 325 danomatika.com | robotcowboy.com;
#X obj 489 185 clip 0 1;
#N canvas 4 51 354 211 guts 0;
#X obj -50 84 inlet~;
#X obj -51 158 outlet~;
#X obj 12 82 inlet;
#X obj 90 132 r \$0-onoff;
#X obj 90 157 switch~;
#X obj 12 159 outlet~;
#X obj -51 122 rc-reverb~_;
#X connect 0 0 6 0;
#X connect 2 0 6 1;
#X connect 3 0 4 0;
#X connect 6 0 1 0;
#X connect 6 1 5 0;
#X restore 32 220 pd guts;
#X text 194 73 Reverb design by Miller Puckette. Adapted from Chris
McCormick's s-reverb abstraction.;
#X obj 255 123 inlet control messages;
#X obj 338 262 s \$0-reverb;
#X obj 81 277 outlet~;
#X obj 364 239 s \$0-echo;
#X obj 65 34 hsl 70 15 0 1 0 0 \$0-echo \$0-echo echo 0 8 0 10 -191407
-1 -1 1800 1;
#X obj 17 35 nbx 4 14 0 1 0 1 \$0-echo \$0-echo empty -20 6 0 10 -261234
-1 -1 0.26087 256;
#X obj 65 55 hsl 70 15 0 1 0 0 \$0-wet \$0-wet wet 0 8 0 10 -191407
-1 -1 1600 1;
#X obj 17 56 nbx 4 14 0 1 0 1 \$0-wet \$0-wet empty -20 6 0 10 -261234
-1 -1 0.231884 256;
#X obj 65 70 hsl 70 15 0 1 0 0 \$0-dry \$0-dry dry 0 8 0 10 -191407
-1 -1 4900 1;
#X obj 17 71 nbx 4 14 0 1 0 1 \$0-dry \$0-dry empty -20 6 0 10 -261234
-1 -1 0.710145 256;
#X obj 462 267 s \$0-echopan;
#X obj 389 216 s \$0-revpan;
#X text 172 19 a simple stereo reverb with gui;
#N canvas 8 76 600 278 defaults 0;
#X obj 251 57 loadbang;
#X obj 251 95 t b;
#X obj 204 55 inlet;
#X msg 50 166 reverb 0.25;
#X msg 159 168 echo 0.25;
#X msg 251 168 reverbpan 0.5;
#X msg 354 168 echopan 0.5;
#X msg 446 168 wet 0.2;
#X msg 510 168 dry 0.8;
#X obj 251 222 outlet;
#X connect 0 0 1 0;
#X connect 1 0 3 0;
#X connect 1 0 4 0;
#X connect 1 0 5 0;
#X connect 1 0 7 0;
#X connect 1 0 6 0;
#X connect 1 0 8 0;
#X connect 2 0 1 0;
#X connect 3 0 9 0;
#X connect 4 0 9 0;
#X connect 5 0 9 0;
#X connect 6 0 9 0;
#X connect 7 0 9 0;
#X connect 8 0 9 0;
#X restore 404 124 pd defaults;
#X obj 255 155 route wet dry reverb echo reverbpan echopan onoff reset
;
#X connect 1 0 0 0;
#X connect 1 1 24 0;
#X connect 15 0 20 1;
#X connect 16 0 20 0;
#X connect 16 0 1 0;
#X connect 19 0 5 0;
#X connect 20 0 1 1;
#X connect 20 1 1 2;
#X connect 22 0 36 0;
#X connect 35 0 36 0;
#X connect 36 0 2 0;
#X connect 36 1 3 0;
#X connect 36 2 23 0;
#X connect 36 3 25 0;
#X connect 36 4 33 0;
#X connect 36 5 32 0;
#X connect 36 6 19 0;
#X connect 36 7 35 0;
#X coords 0 -1 1 1 140 125 1 0 0;
