#N canvas 566 563 332 261 10;
#X obj 63 143 *~;
#X obj 62 53 inlet~;
#X obj 79 85 inlet freq;
#X obj 63 173 outlet~;
#X text 51 21 simple ring modulator;
#X obj 79 111 osc~ 90;
#X text 54 205 2009 Dan Wilcox;
#X text 46 224 robotcowboy.com|danomatika.com;
#X connect 0 0 3 0;
#X connect 1 0 0 0;
#X connect 2 0 5 0;
#X connect 5 0 0 1;
