#N canvas 458 171 647 316 10;
#X obj 11 74 inlet~;
#X obj 10 232 outlet~;
#X obj 115 234 outlet~;
#X obj 241 168 f \$1;
#X obj 241 137 loadbang;
#X obj 221 200 clip 0 1;
#X text 384 255 Dan Wilcox 2009;
#X text 385 272 danomatika.com | robotcowboy.com;
#N canvas 44 529 433 442 mix 0;
#X obj 80 369 outlet~;
#X obj 242 375 outlet~;
#X obj 243 323 hip~ 5;
#X obj 243 350 clip~ -0.5 0.5;
#X obj 81 316 hip~ 5;
#X obj 80 343 clip~ -0.5 0.5;
#X text 273 203 wet;
#X obj 242 203 *~ 0;
#X obj 82 205 *~ 1;
#X text 112 205 dry;
#X obj 81 53 inlet~ dry;
#X obj 194 82 inlet~ wet L;
#X obj 241 119 inlet~ wet R;
#X obj 119 174 r \$0-dry;
#X obj 273 170 r \$0-wet;
#X floatatom 308 216 5 0 0 0 - - -;
#X floatatom 144 203 5 0 0 0 - - -;
#X obj 194 203 *~ 0;
#X connect 2 0 3 0;
#X connect 3 0 1 0;
#X connect 4 0 5 0;
#X connect 5 0 0 0;
#X connect 7 0 2 0;
#X connect 8 0 4 0;
#X connect 8 0 2 0;
#X connect 10 0 8 0;
#X connect 11 0 17 0;
#X connect 12 0 7 0;
#X connect 13 0 8 1;
#X connect 13 0 16 0;
#X connect 14 0 7 1;
#X connect 14 0 15 0;
#X connect 14 0 17 1;
#X connect 17 0 4 0;
#X restore 10 205 pd mix wet and dry;
#X text 1 21 a simple reverb;
#X obj 221 102 route float;
#X obj 390 140 loadbang;
#X obj 370 203 clip 0 1;
#X obj 370 105 route float;
#X obj 548 131 loadbang;
#X obj 528 194 clip 0 1;
#X obj 528 104 route float;
#X obj 221 74 inlet reverb;
#X obj 370 77 inlet wet;
#X obj 528 76 inlet dry;
#X obj 390 171 f \$2;
#X obj 548 162 f \$3;
#X obj 370 233 s \$0-wet;
#X obj 528 229 s \$0-dry;
#N canvas 0 0 794 715 guts 0;
#X obj 216 276 +~;
#X obj 272 276 +~;
#X obj 215 357 +~;
#X obj 324 358 +~;
#X obj 257 357 -~;
#X obj 364 357 -~;
#X obj 214 413 +~;
#X obj 258 414 +~;
#X obj 302 415 -~;
#X obj 341 415 -~;
#X obj 301 497 *~ 0;
#X obj 259 496 *~ 0;
#X obj 214 495 *~ 0;
#X obj 342 498 *~ 0;
#X obj 107 63 s-reverb-echo \$0-echo-del1 5.43216;
#X obj 107 84 s-reverb-echo \$0-echo-del2 8.45346;
#X obj 230 226 delread~ \$0-loop-del1 39.5161;
#X obj 215 608 delwrite~ \$0-loop-del1 39.5161;
#X obj 286 251 delread~ \$0-loop-del2 37.1212;
#X obj 259 584 delwrite~ \$0-loop-del2 37.1212;
#X obj 325 284 delread~ \$0-loop-del3 34.534;
#X obj 302 560 delwrite~ \$0-loop-del3 34.534;
#X obj 341 536 delwrite~ \$0-loop-del4 32.5221;
#X obj 379 308 delread~ \$0-loop-del4 32.5221;
#X obj 108 181 s-reverb-echo \$0-echo-del6 196;
#X obj 107 157 s-reverb-echo \$0-echo-del5 129.326;
#X obj 107 132 s-reverb-echo \$0-echo-del4 100;
#X obj 108 109 s-reverb-echo \$0-echo-del3 79.3165;
#X floatatom 388 458 5 0 0 0 - - -;
#X obj 106 25 inlet~;
#X obj 156 355 outlet~;
#X obj 103 355 outlet~;
#X obj 388 427 inlet reverb;
#X connect 0 0 2 0;
#X connect 0 0 4 0;
#X connect 0 0 31 0;
#X connect 1 0 2 1;
#X connect 1 0 4 1;
#X connect 1 0 30 0;
#X connect 2 0 6 0;
#X connect 2 0 8 0;
#X connect 3 0 8 1;
#X connect 3 0 6 1;
#X connect 4 0 7 0;
#X connect 4 0 9 0;
#X connect 5 0 7 1;
#X connect 5 0 9 1;
#X connect 6 0 12 0;
#X connect 7 0 11 0;
#X connect 8 0 10 0;
#X connect 9 0 13 0;
#X connect 10 0 21 0;
#X connect 11 0 19 0;
#X connect 12 0 17 0;
#X connect 13 0 22 0;
#X connect 14 0 15 0;
#X connect 14 1 15 1;
#X connect 15 0 27 0;
#X connect 15 1 27 1;
#X connect 16 0 0 1;
#X connect 18 0 1 1;
#X connect 20 0 3 0;
#X connect 20 0 5 0;
#X connect 23 0 3 1;
#X connect 23 0 5 1;
#X connect 24 0 0 0;
#X connect 24 1 1 0;
#X connect 25 0 24 0;
#X connect 25 1 24 1;
#X connect 26 0 25 0;
#X connect 26 1 25 1;
#X connect 27 0 26 0;
#X connect 27 1 26 1;
#X connect 28 0 13 1;
#X connect 28 0 10 1;
#X connect 28 0 11 1;
#X connect 29 0 14 0;
#X connect 32 0 28 0;
#X restore 50 153 pd guts;
#X text 159 22 Creation args: reverb wet dry;
#X text 31 267 Reverb design by Miller Puckette. Adapted from Chris
McCormick's s-reverb abstraction.;
#X obj 221 233 * 0.15;
#X obj 11 114 clip~ -1 1;
#X connect 0 0 28 0;
#X connect 3 0 5 0;
#X connect 4 0 3 0;
#X connect 5 0 27 0;
#X connect 8 0 1 0;
#X connect 8 1 2 0;
#X connect 10 0 5 0;
#X connect 11 0 20 0;
#X connect 12 0 22 0;
#X connect 13 0 12 0;
#X connect 14 0 21 0;
#X connect 15 0 23 0;
#X connect 16 0 15 0;
#X connect 17 0 10 0;
#X connect 18 0 13 0;
#X connect 19 0 16 0;
#X connect 20 0 12 0;
#X connect 21 0 15 0;
#X connect 24 0 8 1;
#X connect 24 1 8 2;
#X connect 27 0 24 1;
#X connect 28 0 24 0;
#X connect 28 0 8 0;
