#N canvas 0 0 450 432 10;
#X obj 93 36 inlet;
#X obj 164 35 inlet;
#X obj 139 337 packel;
#X obj 139 304 list;
#X obj 196 90 list-len;
#X obj 164 62 t a a;
#X obj 139 229 moses;
#X msg 93 64 bang;
#X obj 93 172 random;
#X obj 139 393 outlet;
#X obj 196 119 + 1;
#X obj 132 146 + 1;
#X obj 139 271 t b f;
#X obj 283 86 loadbang;
#X obj 283 123 list-onearg \$1;
#X obj 283 147 clip 0 1;
#X obj 139 364 list trim;
#X obj 93 201 moses 1;
#X connect 0 0 7 0;
#X connect 1 0 5 0;
#X connect 2 0 16 0;
#X connect 3 0 2 0;
#X connect 4 0 10 0;
#X connect 4 0 11 0;
#X connect 5 0 3 1;
#X connect 5 1 4 0;
#X connect 6 0 12 0;
#X connect 7 0 8 0;
#X connect 8 0 17 0;
#X connect 10 0 6 1;
#X connect 11 0 8 1;
#X connect 12 0 3 0;
#X connect 12 1 2 1;
#X connect 13 0 14 0;
#X connect 14 0 15 0;
#X connect 15 0 17 1;
#X connect 16 0 9 0;
#X connect 17 1 6 0;
