#N canvas 374 252 915 648 10;
#X obj 13 426 switch~;
#X obj 149 12 tgl 15 0 \$0dummy \$0dummy empty 0 -6 0 8 -262144 -1
-1 1 1;
#X obj 163 331 loadbang;
#X obj 166 356 f \$1;
#X msg 108 347 set \$1;
#N canvas 821 123 423 359 fft 0;
#X obj 46 64 inlet~;
#X obj 46 94 rfft~;
#X obj 46 127 *~;
#X obj 77 127 *~;
#X obj 46 157 sqrt~;
#X obj 216 60 inlet;
#X obj 278 96 block~ 1024 1;
#X obj 144 265 tabwrite~ \$0-fft;
#X obj 118 164 env~;
#X obj 147 100 > 300;
#X obj 220 191 list-geometric-mean;
#X floatatom 220 225 5 0 0 0 - - -;
#X obj 47 183 rc-spigot~;
#X obj 301 258 tgl 15 0 empty empty empty 17 7 0 10 -262144 -1 -1 1
1;
#X obj 294 231 > 70;
#X obj 301 287 sel 1;
#X obj 348 251 moses 65;
#X obj 253 306 outlet;
#X obj 56 221 clip~ 0 50;
#X connect 0 0 1 0;
#X connect 1 0 2 0;
#X connect 1 0 2 1;
#X connect 1 1 3 0;
#X connect 1 1 3 1;
#X connect 2 0 4 0;
#X connect 3 0 4 0;
#X connect 4 0 8 0;
#X connect 4 0 12 0;
#X connect 5 0 7 0;
#X connect 8 0 10 0;
#X connect 10 0 11 0;
#X connect 11 0 16 0;
#X connect 12 0 18 0;
#X connect 13 0 15 0;
#X connect 13 0 17 0;
#X connect 14 0 12 1;
#X connect 14 0 13 0;
#X connect 16 1 14 0;
#X connect 18 0 7 0;
#X restore 390 514 pd fft;
#X obj 24 198 inlet~;
#X obj 429 442 metro 20;
#X msg 429 422 1;
#X obj 404 350 loadbang;
#X obj 248 405 hip~ 50;
#X obj 248 425 *~ 1;
#X obj 400 18 inlet;
#N canvas 0 22 450 300 (subpatch) 0;
#X array \$0-fft 128 float 0;
#X coords 0 50 127 0 200 140 1;
#X restore 4 33 graph;
#X floatatom 170 12 5 0 0 0 - - -;
#X obj 400 133 loadbang;
#X msg 402 158 20;
#X obj 409 58 clip 0 1;
#X connect 1 0 0 0;
#X connect 1 0 7 0;
#X connect 2 0 3 0;
#X connect 3 0 4 0;
#X connect 3 0 0 0;
#X connect 4 0 1 0;
#X connect 6 0 10 0;
#X connect 7 0 5 1;
#X connect 8 0 7 0;
#X connect 9 0 8 0;
#X connect 10 0 11 0;
#X connect 11 0 5 0;
#X connect 12 0 17 0;
#X connect 14 0 7 1;
#X connect 15 0 16 0;
#X connect 16 0 14 0;
#X connect 17 0 1 0;
#X coords 0 -1 1 1 210 180 1 0 0;
