#N canvas 927 242 357 394 10;
#X obj 44 350 outlet~;
#X obj 132 187 inlet phase;
#X obj 71 122 mtof;
#X obj 44 60 sel 0;
#X msg 44 89 0;
#X obj 44 30 inlet midi;
#X obj 132 211 clip 0 1;
#X text 99 61 midi 0 is actually 8.175 Hz;
#X text 109 79 set set to 9Hz on noteoff;
#X obj 44 320 clip~ -1 1;
#X text 161 35 Creation args: frequency;
#X obj 44 239 phasor~ \$1;
#X obj 44 270 -~ 0.5;
#X obj 44 294 *~ 2;
#X text 93 279 fit signal to -1 to 1;
#X text 29 -9 simple midi controlled sawtooth wave;
#X text 205 351 2009 Dan Wilcox;
#X obj 44 202 +~;
#X obj 89 156 inlet~ modulation;
#X connect 1 0 6 0;
#X connect 2 0 17 0;
#X connect 3 0 4 0;
#X connect 3 1 2 0;
#X connect 4 0 17 0;
#X connect 5 0 3 0;
#X connect 6 0 11 1;
#X connect 9 0 0 0;
#X connect 11 0 12 0;
#X connect 12 0 13 0;
#X connect 13 0 9 0;
#X connect 17 0 11 0;
#X connect 18 0 17 1;
