#N canvas 392 26 511 627 10;
#X obj 303 361 r \$0-load;
#X text 290 340 if the load button is pressed;
#X obj 25 201 r \$0-save;
#X obj 354 282 s \$0-load;
#X obj 306 305 s \$0-save;
#X msg 306 256 bang;
#X msg 354 257 bang;
#X obj 1 14 cnv 15 88 33 empty empty empty 20 12 0 14 -233017 -66577
0;
#X obj 10 29 bng 15 250 50 0 \$0-save \$0-save save -3 -6 0 10 -204786
-66577 -1;
#X obj 40 29 bng 15 250 50 0 \$0-load \$0-load load -4 -6 0 10 -203904
-1 -1;
#X obj 306 178 inlet control;
#X text 107 44 Creation arg: local_prefix;
#X text 289 557 2008 Dan Wilcox;
#N canvas 89 104 503 482 local 0;
#X obj 66 354 s SSSAD_ADMIN;
#X obj 48 68 t b a b b b;
#X obj 122 93 s SSSAD_SAVE;
#X msg 85 315 \$1 set \, \$1 addsemi;
#X msg 48 388 \$1 add SSSAD_ADMIN set;
#X obj 48 225 symbol \$1;
#X obj 85 269 symbol \$1;
#X obj 85 449 outlet;
#X obj 85 423 OSCroute \$1;
#X obj 279 318 route persist;
#X obj 279 288 list trim;
#X obj 279 393 list trim;
#N canvas 125 172 450 300 local 0;
#X obj 114 166 OSCroute \$1;
#X obj 82 139 t a a;
#X msg 114 201 1;
#X msg 188 201 0;
#X obj 82 248 spigot;
#N canvas 427 206 321 380 check-for-slash 0;
#X obj 81 111 symbol2list;
#X msg 155 84 symbol;
#X msg 81 240 1;
#X msg 113 265 0;
#X obj 81 136 list trim;
#X obj 81 213 sel /;
#X obj 81 160 symbol;
#X obj 155 59 loadbang;
#X obj 81 289 t f;
#X obj 49 26 inlet;
#X obj 49 319 spigot;
#X obj 49 346 outlet;
#X obj 49 55 t a a;
#X obj 81 85 l2s;
#X obj 81 186 l2s;
#X connect 0 0 4 0;
#X connect 1 0 0 1;
#X connect 2 0 8 0;
#X connect 3 0 8 0;
#X connect 4 0 6 0;
#X connect 5 0 2 0;
#X connect 5 1 3 0;
#X connect 6 0 14 0;
#X connect 7 0 1 0;
#X connect 8 0 10 1;
#X connect 9 0 12 0;
#X connect 10 0 11 0;
#X connect 12 0 10 0;
#X connect 12 1 13 0;
#X connect 13 0 0 0;
#X connect 14 0 5 0;
#X restore 82 112 pd check-for-slash;
#X obj 82 81 inlet;
#X obj 82 274 outlet;
#X text 30 18 if local \, only let correct prefixes through;
#X connect 0 0 2 0;
#X connect 0 1 3 0;
#X connect 1 0 4 0;
#X connect 1 1 0 0;
#X connect 2 0 4 1;
#X connect 3 0 4 1;
#X connect 4 0 7 0;
#X connect 5 0 1 0;
#X connect 6 0 5 0;
#X restore 279 344 pd local filter;
#X obj 279 369 list prepend \$1 add SSSAD;
#X obj 48 18 inlet save command;
#X obj 279 261 inlet incoming data;
#X obj 146 158 r \$0-clear;
#X obj 164 182 r \$0-savetype;
#X obj 146 210 f;
#X obj 146 239 sel 1;
#X connect 1 0 5 0;
#X connect 1 1 0 0;
#X connect 1 2 6 0;
#X connect 1 4 2 0;
#X connect 3 0 8 0;
#X connect 4 0 8 0;
#X connect 5 0 4 0;
#X connect 6 0 3 0;
#X connect 8 0 7 0;
#X connect 9 0 12 0;
#X connect 10 0 9 0;
#X connect 11 0 8 0;
#X connect 12 0 13 0;
#X connect 13 0 11 0;
#X connect 14 0 1 0;
#X connect 15 0 10 0;
#X connect 16 0 18 0;
#X connect 17 0 18 1;
#X connect 18 0 19 0;
#X connect 19 0 6 0;
#X restore 85 433 pd local save;
#N canvas 0 0 557 493 global 0;
#X obj 98 314 s SSSAD_ADMIN;
#X msg 117 275 set \, addsemi;
#X msg 80 348 add SSSAD_ADMIN set;
#X obj 80 109 t b a b b b;
#X obj 154 134 s SSSAD_SAVE;
#X obj 117 413 outlet;
#X obj 339 316 route persist;
#X obj 339 286 list trim;
#X obj 339 372 list trim;
#X obj 339 348 list prepend add SSSAD;
#X obj 339 256 inlet incoming data;
#X obj 80 54 inlet save command;
#X obj 141 167 r \$0-clear;
#X obj 159 191 r \$0-savetype;
#X obj 141 219 f;
#X obj 141 248 sel 0;
#X connect 1 0 5 0;
#X connect 2 0 5 0;
#X connect 3 0 2 0;
#X connect 3 1 0 0;
#X connect 3 2 1 0;
#X connect 3 4 4 0;
#X connect 6 0 9 0;
#X connect 7 0 6 0;
#X connect 8 0 5 0;
#X connect 9 0 8 0;
#X connect 10 0 7 0;
#X connect 11 0 3 0;
#X connect 12 0 14 0;
#X connect 13 0 14 1;
#X connect 14 0 15 0;
#X connect 15 0 1 0;
#X restore 25 466 pd global save;
#X obj 25 325 demux 1 2;
#N canvas 497 85 450 300 savetype 0;
#X obj 79 24 loadbang;
#X obj 79 47 list-onearg \$1 1;
#X obj 79 73 sel 1;
#X text 117 104 global \, no arg;
#X text 149 126 local \, arg;
#X obj 79 169 outlet;
#X msg 79 102 0;
#X msg 111 127 1;
#X msg 207 21 bang;
#X obj 131 169 s \$0-savetype;
#X connect 0 0 1 0;
#X connect 1 0 2 0;
#X connect 2 0 6 0;
#X connect 2 1 7 0;
#X connect 6 0 5 0;
#X connect 6 0 9 0;
#X connect 7 0 5 0;
#X connect 7 0 9 0;
#X connect 8 0 1 0;
#X restore 85 298 pd savetype;
#X text 57 74 The local_prefix is an osc address style prefix to the
object name of sssad enabled patches aka;
#X text 97 105 [rc-patch /ka/name];
#X text 58 124 The contents of /ka/name will only be saved and loaded
by rc-sssad if its creation arg is "/ka".;
#X msg 25 297 save;
#X obj 349 436 r \$0-savetype;
#X obj 326 388 symbol \$1;
#X msg 326 411 \$1 bang;
#X obj 303 462 mux 1 2;
#X obj 113 326 r SSSAD_ADMIN;
#X obj 113 404 demux 1 2;
#X text 20 174 if the save button is pressed;
#X text 14 588 Based off of the datastore patch and sssad abstractions
by Frank Barknecht and the diy2 808_local & 808_global patches.;
#X obj 306 203 route save load clear;
#X msg 402 229 bang;
#X obj 402 255 s \$0-clear;
#X obj 69 33 bng 10 250 50 0 \$0-clear \$0-clear clear -5 -6 0 8 -261234
-1 -1;
#X obj 57 275 s SSSAD_ADMIN;
#X obj 57 252 f \$0;
#N canvas 0 0 446 355 sender 0;
#X obj 32 37 inlet;
#X obj 57 303 spigot;
#X msg 96 275 0;
#X obj 64 90 route float;
#X obj 32 64 t a a;
#X obj 64 168 ==;
#X obj 82 116 loadbang;
#X obj 82 141 f \$0;
#X obj 64 194 sel 1;
#X obj 64 220 t b b;
#X msg 64 247 1;
#X obj 57 329 outlet;
#X text 24 8 only write settings if this object sent the save command
;
#X text 131 145 compare \$0 sent on save command with \$0;
#X text 215 234 receive settings;
#X text 130 216 open spigot for a short time to;
#X obj 96 248 delay 100;
#X connect 0 0 4 0;
#X connect 1 0 11 0;
#X connect 2 0 1 1;
#X connect 3 0 5 0;
#X connect 4 0 1 0;
#X connect 4 1 3 0;
#X connect 5 0 8 0;
#X connect 6 0 7 0;
#X connect 7 0 5 1;
#X connect 8 0 9 0;
#X connect 9 0 10 0;
#X connect 9 1 16 0;
#X connect 10 0 1 1;
#X connect 16 0 2 0;
#X restore 113 352 pd sender filter;
#X obj 25 227 t b b;
#X obj 173 377 r \$0-savetype;
#X obj 85 554 outlet SSSADDATA in message;
#X text 106 6 saves state saving enabled (sssad) patch settings to
a message;
#X connect 0 0 22 0;
#X connect 0 0 24 0;
#X connect 2 0 36 0;
#X connect 5 0 4 0;
#X connect 6 0 3 0;
#X connect 10 0 29 0;
#X connect 13 0 38 0;
#X connect 14 0 38 0;
#X connect 15 0 14 0;
#X connect 15 1 13 0;
#X connect 16 0 15 1;
#X connect 20 0 15 0;
#X connect 21 0 24 2;
#X connect 22 0 23 0;
#X connect 23 0 24 1;
#X connect 24 0 38 0;
#X connect 25 0 35 0;
#X connect 26 0 14 1;
#X connect 26 1 13 1;
#X connect 29 0 5 0;
#X connect 29 1 6 0;
#X connect 29 2 30 0;
#X connect 30 0 31 0;
#X connect 34 0 33 0;
#X connect 35 0 26 0;
#X connect 36 0 20 0;
#X connect 36 1 34 0;
#X connect 37 0 26 1;
#X coords 0 -1 1 1 90 50 1 0 0;
