#N canvas 72 127 433 495 10;
#X floatatom 74 135 5 0 0 0 - - -;
#X obj 74 376 dac~;
#X obj 29 83 random 90;
#X obj 29 110 moses 20;
#X obj 29 21 tgl 15 0 empty empty empty 0 -6 0 10 -262144 -1 -1 1 1
;
#X floatatom 86 35 5 0 0 0 - - -;
#X text 52 18 run;
#X text 126 32 metro speed;
#X text 89 110 filter out notes under 20;
#X text 48 250 midi in;
#X obj 74 320 *~;
#X msg 237 161 bang;
#X msg 281 235 dur 5000;
#X obj 237 266 rc-adsr~_ 0.1 28.9 463 58 434;
#X obj 281 210 loadbang;
#X floatatom 173 246 5 0 1 0 phase - -;
#X text 159 76 Creation args: frequency;
#X text 20 -7 rc-sawtooth~_: a simple sawtooth oscillator;
#X obj 74 272 rc-sawtooth~_ 440;
#X obj 148 346 rc-scope~;
#X msg 307 316 onoff 0;
#X text 319 345 <-- graph;
#X obj 29 58 metro 1000;
#X obj 100 214 rc-spigot~;
#X obj 157 188 tgl 15 0 empty empty freq_modulation 17 7 0 10 -262144
-1 -1 1 1;
#X obj 100 187 osc~ 5;
#X connect 0 0 11 0;
#X connect 0 0 18 0;
#X connect 2 0 3 0;
#X connect 3 1 0 0;
#X connect 4 0 22 0;
#X connect 5 0 22 1;
#X connect 10 0 1 0;
#X connect 10 0 1 1;
#X connect 11 0 13 0;
#X connect 12 0 13 0;
#X connect 12 0 20 0;
#X connect 13 0 10 1;
#X connect 14 0 12 0;
#X connect 15 0 18 2;
#X connect 18 0 10 0;
#X connect 18 0 19 0;
#X connect 20 0 19 1;
#X connect 22 0 2 0;
#X connect 23 0 18 1;
#X connect 24 0 23 1;
#X connect 25 0 23 0;
