#N canvas 893 417 537 367 10;
#N canvas 0 22 450 300 (subpatch) 0;
#X array \$0-sample-left 14038 float 2;
#X coords 0 1 14038 -1 100 70 1;
#X restore 28 284 graph;
#X obj 26 46 inlet;
#X msg 80 45 bang;
#N canvas 216 204 602 463 loadfile 0;
#X obj 30 269 soundfiler;
#X obj 30 219 pack s f;
#X obj 75 195 \$0;
#N canvas 0 22 318 314 samples2ms 0;
#X text 23 10 samples to milliseconds conversion;
#X msg 99 146 1 \$1;
#X obj 99 171 /;
#X obj 72 225 *;
#X obj 99 195 * 1000;
#X obj 72 86 t f b;
#X obj 99 119 f 44100;
#X obj 138 86 inlet samplerate;
#X obj 72 55 inlet samplenum;
#X obj 72 254 outlet samplems;
#X connect 1 0 2 0;
#X connect 2 0 4 0;
#X connect 3 0 9 0;
#X connect 4 0 3 1;
#X connect 5 0 3 0;
#X connect 5 1 6 0;
#X connect 6 0 1 0;
#X connect 7 0 6 1;
#X connect 8 0 5 0;
#X restore 138 344 pd samples2ms;
#X obj 30 296 t f f;
#X obj 326 269 soundfile_info;
#X msg 326 245 read \$1;
#X obj 326 220 symbol;
#X obj 326 294 list-lastx 7;
#X obj 326 317 list split 1;
#X text 69 295 num samples out;
#X obj 30 410 pack f f;
#X obj 30 438 s \$0-sfinfo;
#X obj 30 341 - 2;
#X text 25 12 loads file to table \, uses file's sample rate to calc
play time;
#X text 42 367 num samples;
#X msg 30 244 read -resize \$1 \$2-sample-left \$2-sample-right;
#X obj 30 51 inlet;
#X obj 126 208 switch~;
#X msg 126 179 1;
#X obj 179 109 loadbang;
#X obj 30 112 t a b a b;
#X msg 179 152 set 64 1 512 \, 0;
#X text 286 151 <--- upsampled by factor of 512 \, then switched off
;
#X obj 30 81 rc-filename;
#X text 154 369 sample rate;
#X connect 0 0 4 0;
#X connect 1 0 16 0;
#X connect 2 0 1 1;
#X connect 4 0 13 0;
#X connect 4 1 3 0;
#X connect 5 0 8 0;
#X connect 6 0 5 0;
#X connect 7 0 6 0;
#X connect 8 0 9 0;
#X connect 9 0 3 1;
#X connect 9 0 11 1;
#X connect 11 0 12 0;
#X connect 13 0 11 0;
#X connect 16 0 0 0;
#X connect 17 0 24 0;
#X connect 19 0 18 0;
#X connect 20 0 22 0;
#X connect 21 0 1 0;
#X connect 21 1 2 0;
#X connect 21 2 7 0;
#X connect 21 3 19 0;
#X connect 22 0 18 0;
#X connect 24 0 21 0;
#X restore 26 236 pd loadfile;
#N canvas 405 148 397 244 defaults 0;
#X obj 98 43 loadbang;
#X obj 62 19 inlet;
#X obj 239 100 list-onearg \$1;
#X obj 239 68 loadbang;
#X obj 62 194 outlet;
#X obj 62 116 t b;
#X obj 114 70 r \$0-sfinfo;
#X msg 62 164 begin 0 \, end 127 \, reverse 0 \, speed 1 \, vel 1;
#X connect 0 0 5 0;
#X connect 1 0 5 0;
#X connect 3 0 2 0;
#X connect 5 0 7 0;
#X connect 7 0 4 0;
#X restore 132 47 pd defaults;
#N canvas 0 22 450 300 (subpatch) 0;
#X array \$0-sample-right 14038 float 2;
#X coords 0 1 14038 -1 100 70 1;
#X restore 142 284 graph;
#X obj 310 290 outlet~;
#X obj 385 290 outlet~;
#N canvas 488 211 883 488 guts 0;
#X obj 58 152 \$0;
#X obj 182 257 \$0;
#X obj 58 64 t b b;
#X obj 182 105 delay 5;
#X msg 58 179 \; \$1-cutoff 0 5;
#X text 60 212 5 ms cutoff;
#X text 188 72 play the sample;
#X text 60 230 for no pops!;
#N canvas 0 22 450 300 gate 0;
#X obj 68 42 inlet;
#X obj 157 45 inlet;
#X obj 89 179 outlet;
#X obj 118 155 outlet;
#X obj 89 95 list prepend 1;
#X obj 89 120 route 1 2;
#X connect 0 0 4 1;
#X connect 1 0 4 0;
#X connect 4 0 5 0;
#X connect 5 0 2 0;
#X connect 5 1 3 0;
#X restore 101 349 pd gate 2;
#X text 270 386 reverse;
#X text 229 438 forward;
#X obj 58 38 r \$0-play;
#X obj 101 322 + 1;
#X obj 74 106 r \$0-stop;
#X obj 320 403 s \$0-done;
#X obj 320 378 delay 100;
#X msg 320 354 bang;
#X obj 270 144 unpack f f f;
#X msg 152 375 \; \$1-phase \$3 \, \$2 \$4 \; \$1-cutoff 1;
#X msg 101 424 \; \$1-phase \$2 \, \$3 \$4 \; \$1-cutoff 1;
#X obj 215 199 f;
#X obj 243 213 f;
#X obj 182 143 t b b;
#X obj 339 210 *;
#X obj 339 180 pack f 1;
#X obj 182 302 pack f f f f;
#X obj 532 395 outlet~;
#X obj 653 395 outlet~;
#X obj 532 310 hip~ 5;
#X obj 533 289 *~;
#X obj 549 264 vline~;
#X obj 533 188 vline~;
#X obj 533 161 r \$0-phase;
#X obj 549 239 r \$0-cutoff;
#X obj 693 215 tabread4~ \$0-sample-right;
#X obj 533 215 tabread4~ \$0-sample-left;
#X obj 653 310 hip~ 5;
#X obj 654 289 *~;
#X obj 674 340 r \$0-vel;
#X obj 653 369 *~ 1;
#X obj 532 370 *~ 1;
#N canvas 1027 106 398 494 pos 0;
#X obj 128 22 r \$0-sfinfo;
#X obj 155 71 unpack f f;
#X obj 77 177 moses;
#X obj 262 146 moses;
#X obj 38 75 / 127;
#X obj 38 99 *;
#X obj 38 123 int;
#X obj 262 64 / 127;
#X obj 262 88 *;
#X obj 262 112 int;
#X obj 152 285 -;
#X obj 152 311 abs;
#N canvas 0 22 318 314 samples2ms 0;
#X text 23 10 samples to milliseconds conversion;
#X msg 99 146 1 \$1;
#X obj 99 171 /;
#X obj 72 225 *;
#X obj 99 195 * 1000;
#X obj 72 86 t f b;
#X obj 99 119 f 44100;
#X obj 138 86 inlet samplerate;
#X obj 72 55 inlet samplenum;
#X obj 72 254 outlet samplems;
#X connect 1 0 2 0;
#X connect 2 0 4 0;
#X connect 3 0 9 0;
#X connect 4 0 3 1;
#X connect 5 0 3 0;
#X connect 5 1 6 0;
#X connect 6 0 1 0;
#X connect 7 0 6 1;
#X connect 8 0 5 0;
#X restore 152 336 pd samples2ms;
#X obj 125 231 pack f f;
#X obj 301 211 t b f;
#X obj 125 367 list append;
#X obj 125 254 t a a;
#X text 202 401 begin \, end \, length in ms;
#X obj 128 46 t b a;
#X obj 38 50 r \$0-begin;
#X obj 262 39 r \$0-end;
#X obj 125 401 outlet;
#X obj 38 150 moses 0;
#X obj 262 179 moses 0;
#X msg 142 179 0 \$1;
#X connect 0 0 18 0;
#X connect 1 0 2 1;
#X connect 1 0 3 1;
#X connect 1 0 5 1;
#X connect 1 0 8 1;
#X connect 1 0 24 0;
#X connect 1 1 12 1;
#X connect 2 0 13 0;
#X connect 3 0 23 0;
#X connect 4 0 5 0;
#X connect 5 0 6 0;
#X connect 6 0 22 0;
#X connect 7 0 8 0;
#X connect 8 0 9 0;
#X connect 9 0 3 0;
#X connect 10 0 11 0;
#X connect 11 0 12 0;
#X connect 12 0 15 1;
#X connect 13 0 16 0;
#X connect 14 0 13 0;
#X connect 14 1 13 1;
#X connect 15 0 21 0;
#X connect 16 0 15 0;
#X connect 16 1 10 0;
#X connect 18 1 1 0;
#X connect 19 0 4 0;
#X connect 20 0 7 0;
#X connect 22 1 2 0;
#X connect 23 1 14 0;
#X connect 24 0 13 0;
#X restore 270 112 pd pos;
#N canvas 890 47 450 300 speed 0;
#X obj 169 98 r \$0-speed;
#X obj 131 40 r \$0-midi;
#N canvas 580 430 288 282 speed-float 0;
#X obj 105 95 moses 0;
#X obj 78 41 sel 0;
#X obj 78 67 s \$0-stop;
#X obj 78 14 inlet;
#X obj 105 132 t f b;
#X obj 105 161 abs;
#X obj 144 133 t f b;
#X msg 132 200 1;
#X msg 171 170 0;
#X obj 194 234 outlet reverse;
#X obj 105 234 outlet speed;
#X connect 0 0 4 0;
#X connect 0 1 6 0;
#X connect 1 0 2 0;
#X connect 1 1 0 0;
#X connect 3 0 1 0;
#X connect 4 0 5 0;
#X connect 4 1 7 0;
#X connect 5 0 10 0;
#X connect 6 0 10 0;
#X connect 6 1 8 0;
#X connect 7 0 9 0;
#X connect 8 0 9 0;
#X restore 169 125 pd speed-float;
#N canvas 0 22 312 258 speed-midi 0;
#N canvas 0 22 327 337 midi2speed 0;
#X obj 114 61 inlet;
#X obj 114 179 mtof;
#X obj 148 204 mtof;
#X obj 114 246 /;
#X obj 114 281 outlet;
#X obj 114 112 t f b;
#X obj 141 142 f 60;
#X text 37 22 convert midi note to playback speed;
#X connect 0 0 5 0;
#X connect 1 0 3 0;
#X connect 2 0 3 1;
#X connect 3 0 4 0;
#X connect 5 0 1 0;
#X connect 5 1 6 0;
#X connect 6 0 2 0;
#X restore 144 173 pd midi2speed;
#X obj 117 117 t b f;
#X obj 117 148 s \$0-play;
#X obj 90 62 sel 0;
#X obj 90 89 s \$0-stop;
#X obj 90 33 inlet;
#X obj 144 208 outlet;
#X connect 0 0 6 0;
#X connect 1 0 2 0;
#X connect 1 1 0 0;
#X connect 3 0 4 0;
#X connect 3 1 1 0;
#X connect 5 0 3 0;
#X restore 131 69 pd speed-midi;
#X msg 131 154 1 \$1;
#X obj 131 186 /;
#X obj 250 215 outlet reverse;
#X obj 131 217 outlet speed;
#X connect 0 0 2 0;
#X connect 1 0 3 0;
#X connect 2 0 4 0;
#X connect 2 1 6 0;
#X connect 3 0 4 0;
#X connect 4 0 5 0;
#X connect 5 0 7 0;
#X restore 384 146 pd speed;
#X obj 24 251 r \$0-reverse;
#X obj 141 291 f;
#X obj 136 256 sel 0;
#X connect 0 0 4 0;
#X connect 1 0 25 0;
#X connect 2 0 0 0;
#X connect 2 1 3 0;
#X connect 3 0 22 0;
#X connect 8 0 19 0;
#X connect 8 1 18 0;
#X connect 11 0 2 0;
#X connect 12 0 8 0;
#X connect 13 0 0 0;
#X connect 15 0 14 0;
#X connect 16 0 15 0;
#X connect 17 0 20 1;
#X connect 17 1 21 1;
#X connect 17 2 24 0;
#X connect 20 0 25 1;
#X connect 21 0 25 2;
#X connect 22 0 1 0;
#X connect 22 1 21 0;
#X connect 22 1 20 0;
#X connect 22 1 24 0;
#X connect 23 0 15 1;
#X connect 23 0 25 3;
#X connect 24 0 23 0;
#X connect 25 0 16 0;
#X connect 25 0 8 1;
#X connect 28 0 40 0;
#X connect 29 0 28 0;
#X connect 30 0 29 1;
#X connect 30 0 37 1;
#X connect 31 0 35 0;
#X connect 31 0 34 0;
#X connect 32 0 31 0;
#X connect 33 0 30 0;
#X connect 34 0 37 0;
#X connect 35 0 29 0;
#X connect 36 0 39 0;
#X connect 37 0 36 0;
#X connect 38 0 39 1;
#X connect 38 0 40 1;
#X connect 39 0 27 0;
#X connect 40 0 26 0;
#X connect 41 0 17 0;
#X connect 42 0 24 1;
#X connect 43 0 12 0;
#X restore 310 262 pd guts;
#X obj 341 44 inlet;
#X obj 341 76 route float list;
#X obj 387 101 unpack f f;
#X obj 368 212 s \$0-speed;
#X obj 60 208 s \$0-play;
#N canvas 16 109 450 300 vel 0;
#X obj 52 18 inlet;
#X obj 157 232 s \$0-vel;
#X obj 157 195 / 127;
#X obj 157 168 moses 128;
#X msg 93 193 1;
#X obj 93 166 loadbang;
#X obj 91 76 t b f;
#X obj 91 105 s \$0-play;
#X obj 28 105 s \$0-stop;
#X msg 28 76 bang;
#X obj 52 45 moses 1;
#X connect 0 0 10 0;
#X connect 2 0 1 0;
#X connect 3 0 2 0;
#X connect 4 0 1 0;
#X connect 5 0 4 0;
#X connect 6 0 7 0;
#X connect 6 1 3 0;
#X connect 9 0 8 0;
#X connect 10 0 9 0;
#X connect 10 1 6 0;
#X restore 270 101 pd vel;
#X obj 444 150 s \$0-vel;
#X obj 414 175 s \$0-midi;
#X text 18 14 a simple \, stereo one shot sample player;
#X obj 444 126 / 127;
#X obj 443 288 outlet;
#X obj 443 261 r \$0-done;
#X obj 387 149 t b f;
#X obj 341 184 s \$0-play;
#X obj 95 180 s \$0-speed;
#X obj 130 154 s \$0-reverse;
#X obj 341 105 t b f;
#X text 391 332 2008 \, 2010 Dan Wilcox;
#X obj 26 74 route load bang speed rev reset begin end float;
#X obj 200 133 s \$0-begin;
#X obj 235 160 s \$0-end;
#X connect 1 0 27 0;
#X connect 2 0 27 0;
#X connect 4 0 27 0;
#X connect 8 0 6 0;
#X connect 8 1 7 0;
#X connect 9 0 10 0;
#X connect 10 0 25 0;
#X connect 10 1 11 0;
#X connect 11 0 21 0;
#X connect 11 1 18 0;
#X connect 18 0 15 0;
#X connect 20 0 19 0;
#X connect 21 0 22 0;
#X connect 21 1 16 0;
#X connect 25 0 22 0;
#X connect 25 1 12 0;
#X connect 27 0 3 0;
#X connect 27 1 13 0;
#X connect 27 2 23 0;
#X connect 27 3 24 0;
#X connect 27 4 4 0;
#X connect 27 5 28 0;
#X connect 27 6 29 0;
#X connect 27 7 14 0;
