#N canvas 36 43 487 499 10;
#X obj 26 357 rc-scope~;
#X text 14 12 rc-scope~ : a simple oscilloscope for signals;
#X text 212 453 2009 Dan Wilcox;
#X text 213 469 danomatika.com | robotcowboy.com;
#X text 213 390 adapted from Frank Barknecht's oscilloscope;
#X msg 185 110 refresh \$1;
#X msg 119 83 onoff \$1;
#X obj 119 62 tgl 15 0 empty empty empty 17 7 0 10 -262144 -1 -1 1
1;
#X obj 188 66 hsl 128 15 10 1000 0 0 empty empty 10-1000 32 8 0 10
-262144 -1 -1 300 1;
#X floatatom 185 88 5 0 0 0 - - -;
#X obj 253 136 hsl 128 15 128 1024 0 0 empty empty 128-1024 32 8 0
10 -262144 -1 -1 0 1;
#X floatatom 250 158 5 0 0 0 - - -;
#X msg 250 180 xscale \$1;
#X obj 292 207 hsl 128 15 0.2 2 0 0 empty empty 0.2-2 32 8 0 10 -262144
-1 -1 11200 1;
#X floatatom 289 229 5 0 0 0 - - -;
#X msg 289 251 yscale \$1;
#X msg 312 282 reset;
#X obj 26 310 osc~ 440;
#X obj 29 284 hsl 128 15 20 20000 0 0 empty empty 20-20k 32 8 0 10
-262144 -1 -1 600 1;
#X connect 5 0 0 1;
#X connect 6 0 0 1;
#X connect 7 0 6 0;
#X connect 8 0 9 0;
#X connect 9 0 5 0;
#X connect 10 0 11 0;
#X connect 11 0 12 0;
#X connect 12 0 0 1;
#X connect 13 0 14 0;
#X connect 14 0 15 0;
#X connect 15 0 0 1;
#X connect 16 0 0 1;
#X connect 17 0 0 0;
#X connect 18 0 17 0;
