#N canvas 729 26 508 328 10;
#X obj 89 187 list-find;
#X obj 202 193 / 12;
#X obj 202 218 int;
#X obj 202 243 * 12;
#X obj 103 275 +;
#X obj 103 246 f;
#X obj 89 155 t f f;
#X obj 89 100 t f f;
#X obj 240 41 inlet note list;
#X obj 89 41 inlet note;
#X obj 89 67 route float clear;
#X obj 89 131 mod 12;
#X obj 149 215 sel 1;
#X text 21 14 let a note through only if it is found in the scale list
;
#X obj 103 303 outlet note in scale;
#X msg 148 97 0 1 2 3 4 5 6 7 8 9 10 11;
#X text 342 98 default full scale;
#X connect 0 1 12 0;
#X connect 1 0 2 0;
#X connect 2 0 3 0;
#X connect 3 0 4 1;
#X connect 4 0 14 0;
#X connect 5 0 4 0;
#X connect 6 0 0 0;
#X connect 6 1 5 1;
#X connect 7 0 11 0;
#X connect 7 1 1 0;
#X connect 8 0 0 1;
#X connect 9 0 10 0;
#X connect 10 0 7 0;
#X connect 10 1 15 0;
#X connect 11 0 6 0;
#X connect 12 0 5 0;
#X connect 15 0 0 1;
