#N canvas 360 58 807 625 10;
#X msg 55 388 save;
#X msg 96 427 load;
#X msg 94 396 clear;
#X obj 281 332 rc-sssad /la;
#X msg 281 389 \; SSSAD /la/delay2/dry 0.623188 \; SSSAD /la/delay2/wet
1 \; SSSAD /la/delay2/onoff 0 \; SSSAD /la/delay2/feedback 0.884058
\; SSSAD /la/delay2/del 380 \; SSSAD_ADMIN set \;;
#X msg 55 513 \; SSSAD /ka/delay1/dry 0.623188 \; SSSAD /ka/delay1/wet
1 \; SSSAD /ka/delay1/onoff 0 \; SSSAD /ka/delay1/feedback 0.884058
\; SSSAD /ka/delay1/del 380 \; SSSAD_ADMIN set \;;
#N canvas 765 739 450 300 hide 0;
#X obj 10 10 inlet;
#X msg 10 30 \; SSSAD /la/delay2/dry 0.623188 \; SSSAD /la/delay2/wet
1 \; SSSAD /la/delay2/onoff 0 \; SSSAD /la/delay2/feedback 0.884058
\; SSSAD /la/delay2/del 380 \; SSSAD /ka/delay1/dry 0.623188 \; SSSAD
/ka/delay1/wet 1 \; SSSAD /ka/delay1/onoff 0 \; SSSAD /ka/delay1/feedback
0.884058 \; SSSAD /ka/delay1/del 380 \; SSSAD porto/speed 100 \; SSSAD
porto/onoff 0 \; SSSAD_ADMIN set \;;
#X connect 0 0 1 0;
#X restore 526 332 pd hide msg in a patch;
#X obj 507 176 rc-portamento porto;
#X text 521 150 global object;
#X obj 27 222 rc-delay~ /ka/delay1;
#X obj 257 172 rc-delay~ /la/delay2;
#X text 265 146 local object in /la;
#X text 42 198 local object in /ka;
#X text 37 357 save everything /ka;
#X text 262 302 save everything /la;
#X text 506 249 just save everything!;
#X text 16 13 rc-sssad: a sssad state saving object;
#X text 45 55 Creation arg: local_prefix;
#X text 317 14 The local_prefix is an osc address style prefix to the
object name of sssad enabled patches aka;
#X text 357 45 [rc-patch /ka/name];
#X text 318 64 The contents of /ka/name will only be saved and loaded
by rc-sssad if its creation arg is "/ka".;
#X text 378 529 rc-sssad's do not cross trigger the save command \,
only the issuing object will write to the message.;
#X text 547 434 the state is saved to a msg;
#X text 618 492 2008 Dan Wilcox;
#X text 380 573 Based off of the datastore patch and sssad abstractions
by Frank Barknecht and the diy2 808_local & 808_global patches.;
#X text 318 103 If local_prefix is empty \, the object will save globally
;
#X obj 55 455 rc-sssad /ka;
#X obj 526 276 rc-sssad;
#X text 16 100 TODO: replace OSCroute's with abs;
#X text 58 116 to get rid of empty \$1 errors;
#X connect 0 0 26 0;
#X connect 1 0 26 0;
#X connect 2 0 26 0;
#X connect 3 0 4 0;
#X connect 26 0 5 0;
#X connect 27 0 6 0;
