#N canvas 927 242 426 392 10;
#X obj 44 350 outlet~;
#X obj 138 181 inlet phase;
#X obj 71 122 mtof;
#X obj 44 60 sel 0;
#X msg 44 89 0;
#X obj 44 30 inlet midi;
#X obj 138 205 clip 0 1;
#X text 99 61 midi 0 is actually 8.175 Hz;
#X text 109 79 set set to 9Hz on noteoff;
#X text 161 35 Creation args: frequency;
#X obj 44 234 phasor~ \$1;
#X text 205 351 2009 Dan Wilcox;
#X obj 44 273 expr~ if ($v1 < 0.5 \, (min($v1 \, 1-$v1) - 0.25) * 4
\, (1-$v1 - 0.5) * 2);
#X text 29 -9 simple midi controlled mixed triangle/sawtooth wave;
#X obj 44 195 +~;
#X obj 97 151 inlet~ modulation;
#X connect 1 0 6 0;
#X connect 2 0 14 0;
#X connect 3 0 4 0;
#X connect 3 1 2 0;
#X connect 4 0 14 0;
#X connect 5 0 3 0;
#X connect 6 0 10 1;
#X connect 10 0 12 0;
#X connect 12 0 0 0;
#X connect 14 0 10 0;
#X connect 15 0 14 1;
