#N canvas 941 250 357 394 10;
#X obj 44 350 outlet~;
#X obj 101 207 inlet phase;
#X obj 71 122 mtof;
#X obj 44 60 sel 0;
#X msg 44 89 0;
#X obj 44 30 inlet midi;
#X obj 101 231 clip 0 1;
#X text 99 61 midi 0 is actually 8.175 Hz;
#X text 109 79 set set to 9Hz on noteoff;
#X text 161 35 Creation args: frequency;
#X obj 44 262 phasor~ \$1;
#X text 205 351 2009 Dan Wilcox;
#X obj 44 304 expr~ (min($v1 \, 1-$v1) - 0.25) * 4;
#X text 29 -9 simple midi controlled triangle wave;
#X obj 44 219 +~;
#X obj 89 162 inlet~ mod;
#X connect 1 0 6 0;
#X connect 2 0 14 0;
#X connect 3 0 4 0;
#X connect 3 1 2 0;
#X connect 4 0 14 0;
#X connect 5 0 3 0;
#X connect 6 0 10 1;
#X connect 10 0 12 0;
#X connect 12 0 0 0;
#X connect 14 0 10 0;
#X connect 15 0 14 1;
