#N canvas 480 164 435 500 10;
#X floatatom 74 135 5 0 0 0 - - -;
#X obj 74 387 dac~;
#X obj 29 83 random 90;
#X obj 29 110 moses 20;
#X obj 29 21 tgl 15 0 empty empty empty 0 -6 0 10 -262144 -1 -1 0 1
;
#X floatatom 86 37 5 0 0 0 - - -;
#X text 52 18 run;
#X text 126 34 metro speed;
#X text 89 110 filter out notes under 20;
#X text 49 239 midi in;
#X obj 74 331 *~;
#X msg 237 161 bang;
#X msg 281 235 dur 5000;
#X obj 237 266 rc-adsr~_ 0.1 28.9 463 58 434;
#X obj 281 210 loadbang;
#X floatatom 173 237 5 0 1 0 phase - -;
#X text 159 75 Creation args: frequency;
#X obj 74 267 rc-triangle~_ 440;
#X text 20 -7 rc-triangle~_: a simple triangle oscillator;
#X obj 194 347 rc-scope~;
#X msg 353 317 onoff 0;
#X text 365 346 <-- graph;
#X obj 99 208 rc-spigot~;
#X obj 99 182 osc~ 5;
#X obj 29 58 metro 1000;
#X obj 156 185 tgl 15 0 empty empty freq_modulation 17 7 0 10 -262144
-1 -1 0 1;
#X connect 0 0 11 0;
#X connect 0 0 17 0;
#X connect 2 0 3 0;
#X connect 3 1 0 0;
#X connect 4 0 24 0;
#X connect 5 0 24 1;
#X connect 10 0 1 0;
#X connect 10 0 1 1;
#X connect 11 0 13 0;
#X connect 12 0 13 0;
#X connect 12 0 20 0;
#X connect 13 0 10 1;
#X connect 14 0 12 0;
#X connect 15 0 17 2;
#X connect 17 0 10 0;
#X connect 17 0 19 0;
#X connect 20 0 19 1;
#X connect 22 0 17 1;
#X connect 23 0 22 0;
#X connect 24 0 2 0;
#X connect 25 0 22 1;
