#N canvas 633 139 462 340 10;
#X obj 132 184 coll;
#C flags 1 0;
#C store Mod_Wheel 1 Mod_Wheel;
#C store Data_Entry_MSB 6 Data_Entry_MSB;
#C store Volume 7 Volume;
#C store Pan 10 Pan;
#C store Expression 11 Expression;
#C store Data_Entry_LSB 38 Data_Entry_LSB;
#C store Sustain_Pedal 64 Sustain_Pedal;
#C store Filter_Resonance 71 Filter_Resonance;
#C store Release_Time 72 Release_Time;
#C store Attack_Time 73 Attack_Time;
#C store Filter_Frequency 74 Filter_Frequency;
#C store Decay_Time 75 Decay_Time;
#C store Vibrato_Rate 76 Vibrato_Rate;
#C store Vibrato_Depth 77 Vibrato_Depth;
#C store Vibrato_Delay 78 Vibrato_Delay;
#C store Reverb_Level 91 Reverb_Level;
#C store Tremolo_Level 92 Tremolo_Level;
#C store Chorus_Level 93 Chorus_Level;
#C store Celeste_Level 94 Celeste_Level;
#C store Phaser_Level 95 Phaser_Level;
#C store Non_Reg_Param_LSB 98 Non_Reg_Param_LSB;
#C store Non_Reg_Param_MSB 99 Non_Reg_Param_MSB;
#C store Reg_Param_Num_LSB 100 Reg_Param_Num_LSB;
#C store Reg_Param_Num_MSB 101 Reg_Param_Num_MSB;
#C store All_Controllers_Off 121 All_Controllers_Off;
#C store All_Notes_Off 123 All_Notes_Off;
#C restore;
#X obj 132 275 unpack f s;
#X msg 188 150 flags 1 0;
#X text 186 127 save in patch;
#N canvas 0 22 315 315 print 0;
#X obj 23 14 inlet;
#X msg 110 79 1;
#X obj 23 40 t b b b b b b b;
#X msg 23 78 0;
#X obj 150 125 outlet dump;
#X obj 23 279 outlet print;
#X obj 110 148 outlet spigot;
#X obj 156 53 loadbang;
#X msg 156 79 0;
#X msg 81 187 General Midi Control Num Mapping;
#X msg 23 222 --------------------------------;
#X connect 0 0 2 0;
#X connect 1 0 6 0;
#X connect 2 0 3 0;
#X connect 2 1 10 0;
#X connect 2 2 4 0;
#X connect 2 3 10 0;
#X connect 2 4 9 0;
#X connect 2 5 10 0;
#X connect 2 6 1 0;
#X connect 3 0 6 0;
#X connect 7 0 8 0;
#X connect 8 0 6 0;
#X connect 9 0 5 0;
#X connect 10 0 5 0;
#X restore 16 132 pd print;
#X msg 94 156 dump;
#X obj 16 43 inlet name;
#X obj 132 308 outlet note;
#X msg 16 107 bang;
#X text 135 58 see: http://en.wikipedia.org/wiki/General_midi;
#X text 232 290 Dan Wilcox 2009;
#X text 232 309 danomatika.com | robotcowboy.com;
#X obj 16 279 spigot;
#N canvas 0 22 450 300 invert 0;
#X obj 71 51 inlet;
#X obj 71 83 sel 0;
#X msg 71 122 1;
#X msg 106 124 0;
#X obj 71 163 outlet;
#X connect 0 0 1 0;
#X connect 1 0 2 0;
#X connect 1 1 3 0;
#X connect 2 0 4 0;
#X connect 3 0 4 0;
#X restore 165 223 pd invert;
#X obj 132 250 spigot;
#X obj 16 81 route print float symbol;
#X obj 16 307 print gm-control;
#X text 103 40 converts a control name to a control num from the GM
spec;
#X text 15 11 general midi control number mapping look up table;
#N canvas 0 22 433 157 trap 0;
#X obj 13 24 inlet;
#X obj 340 111 outlet;
#X text 80 21 trap all of the coll options;
#X obj 13 53 route bang list dump read write store open wclose clear
next prev length delete remove goto end filetype flags readagain writeagain
refer min max swap renumber sort;
#X connect 0 0 3 0;
#X connect 3 26 1 0;
#X restore 178 107 pd trap;
#X obj 110 107 unsymbol;
#X connect 0 0 12 0;
#X connect 0 0 14 0;
#X connect 1 0 7 0;
#X connect 2 0 0 0;
#X connect 4 0 12 0;
#X connect 4 1 12 1;
#X connect 4 1 13 0;
#X connect 4 2 5 0;
#X connect 5 0 0 0;
#X connect 6 0 15 0;
#X connect 8 0 4 0;
#X connect 12 0 16 0;
#X connect 13 0 14 1;
#X connect 14 0 1 0;
#X connect 15 0 8 0;
#X connect 15 1 7 0;
#X connect 15 2 20 0;
#X connect 15 3 19 0;
#X connect 19 0 0 0;
#X connect 20 0 0 0;
