#N canvas 282 119 382 453 10;
#X msg 112 257 print;
#X obj 59 365 print;
#X text 54 83 see: http://en.wikipedia.org/wiki/General_midi;
#X floatatom 59 329 5 0 0 1 program_num - -;
#X text 157 258 print the table for reference;
#X msg 96 220 60;
#X text 127 220 floats are passed through;
#X text 270 404 Dan Wilcox 2009;
#X text 170 424 danomatika.com | robotcowboy.com;
#X text 147 134 get pgm num using GM name;
#X msg 32 123 Synth_Bass_1;
#X msg 59 148 Choir_Aahs;
#X obj 110 365 pgmout 1;
#N canvas 0 22 188 147 noteout 0;
#X obj 28 104 noteout 1;
#X obj 28 65 makenote 100 500;
#X obj 28 32 inlet;
#X connect 1 0 0 0;
#X connect 1 1 0 1;
#X connect 2 0 1 0;
#X restore 222 363 pd noteout 1;
#X msg 222 333 60;
#X msg 258 334 65;
#X text 214 305 try some notes;
#X msg 82 175 Acoustic_Grand_Piano;
#X text 6 14 gm-instrument: general midi instrument mapping look up
table;
#X text 20 50 converts an instrument name to a program num from the
GM spec;
#X obj 59 293 gm-instrument;
#X connect 0 0 20 0;
#X connect 3 0 1 0;
#X connect 3 0 12 0;
#X connect 5 0 20 0;
#X connect 10 0 20 0;
#X connect 11 0 20 0;
#X connect 14 0 13 0;
#X connect 15 0 13 0;
#X connect 17 0 20 0;
#X connect 20 0 3 0;
