#N canvas 124 361 461 357 10;
#X obj 132 184 coll;
#C flags 1 0;
#C store Acoustic_Grand_Piano 1 Acoustic_Grand_Piano;
#C store Bright_Acoustic_Piano 2 Bright_Acoustic_Piano;
#C store Electric_Grand_Piano 3 Electric_Grand_Piano;
#C store Honky-Tonk_Piano 4 Honky-Tonk_Piano;
#C store Electric_Piano_1 5 Electric_Piano_1;
#C store Electric_Piano_2 6 Electric_Piano_2;
#C store Harpsichord 7 Harpsichord;
#C store Clavinet 8 Clavinet;
#C store Celesta 9 Celesta;
#C store Glockenspiel 10 Glockenspiel;
#C store Music_Box 11 Music_Box;
#C store Vibraphone 12 Vibraphone;
#C store Marimba 13 Marimba;
#C store Xylophone 14 Xylophone;
#C store Tubular_Bells 15 Tubular_Bells;
#C store Dulcimer 16 Dulcimer;
#C store Drawbar_Organ 17 Drawbar_Organ;
#C store Percussive_Organ 18 Percussive_Organ;
#C store Rock_Organ 19 Rock_Organ;
#C store Church_Organ 20 Church_Organ;
#C store Reed_Organ 21 Reed_Organ;
#C store Accordian 22 Accordian;
#C store Harmonica 23 Harmonica;
#C store Tango_Accordian 24 Tango_Accordian;
#C store Acoustic_Guitar_Nylon 25 Acoustic_Guitar_Nylon;
#C store Acoustic_Guitar_Steel 26 Acoustic_Guitar_Steel;
#C store Electric_Guitar_Jazz 27 Electric_Guitar_Jazz;
#C store Electric_Guitar_Clean 28 Electric_Guitar_Clean;
#C store Electric_Guitar_Muted 29 Electric_Guitar_Muted;
#C store Overdriven_Guitar 30 Overdriven_Guitar;
#C store Distortion_Guitar 31 Distortion_Guitar;
#C store Guitar_Harmonics 32 Guitar_Harmonics;
#C store Acoustic_Bass 33 Acoustic_Bass;
#C store Electric_Bass_Finger 34 Electric_Bass_Finger;
#C store Electric_Bass_Pick 35 Electric_Bass_Pick;
#C store Fretless_Bass 36 Fretless_Bass;
#C store Slap_Bass_1 37 Slap_Bass_1;
#C store Slap_Bass_2 38 Slap_Bass_2;
#C store Synth_Bass_1 39 Synth_Bass_1;
#C store Synth_Bass_2 40 Synth_Bass_2;
#C store Violin 41 Violin;
#C store Viola 42 Viola;
#C store Cello 43 Cello;
#C store Contrabass 44 Contrabass;
#C store Tremolo_Strings 45 Tremolo_Strings;
#C store Pizzicato_Strings 46 Pizzicato_Strings;
#C store Orchestral_Harp 47 Orchestral_Harp;
#C store Timpani 48 Timpani;
#C store String_Ensemble_1 49 String_Ensemble_1;
#C store String_Ensemble_2 50 String_Ensemble_2;
#C store Synth_Strings_1 51 Synth_Strings_1;
#C store Synth_Strings_2 52 Synth_Strings_2;
#C store Choir_Aahs 53 Choir_Aahs;
#C store Choir_Oohs 54 Choir_Oohs;
#C store Synth_Voice 55 Synth_Voice;
#C store Orchestra_Hit 56 Orchestra_Hit;
#C store Trumpet 57 Trumpet;
#C store Trombone 58 Trombone;
#C store Tuba 59 Tuba;
#C store Muted_Trumpet 60 Muted_Trumpet;
#C store French_Horn 61 French_Horn;
#C store Brass_Section 62 Brass_Section;
#C store Synth_Brass_1 63 Synth_Brass_1;
#C store Synth_Brass_2 64 Synth_Brass_2;
#C store Soprano_Sax 65 Soprano_Sax;
#C store Alto_Sax 66 Alto_Sax;
#C store Tenor_Sax 67 Tenor_Sax;
#C store Baritone_Sax 68 Baritone_Sax;
#C store Oboe 69 Oboe;
#C store English_Horn 70 English_Horn;
#C store Bassoon 71 Bassoon;
#C store Clarinet 72 Clarinet;
#C store Piccolo 73 Piccolo;
#C store Flute 74 Flute;
#C store Recorder 75 Recorder;
#C store Pan_Flute 76 Pan_Flute;
#C store Blown_Bottle 77 Blown_Bottle;
#C store Shakuhachi 78 Shakuhachi;
#C store Whistle 79 Whistle;
#C store Ocarina 80 Ocarina;
#C store Synth_Lead_Square 81 Synth_Lead_Square;
#C store Synth_Lead_Saw 82 Synth_Lead_Saw;
#C store Synth_Lead_Calliope 83 Synth_Lead_Calliope;
#C store Synth_Lead_Chiff 84 Synth_Lead_Chiff;
#C store Synth_Lead_Charang 85 Synth_Lead_Charang;
#C store Synth_Lead_Voice 86 Synth_Lead_Voice;
#C store Synth_Lead_Fifths 87 Synth_Lead_Fifths;
#C store Synth_Lead_Bass 88 Synth_Lead_Bass;
#C store Synth_Pad_NewAge 89 Synth_Pad_NewAge;
#C store Synth_Pad_Warm 90 Synth_Pad_Warm;
#C store Synth_Pad_Polysynth 91 Synth_Pad_Polysynth;
#C store Synth_Pad_Choir 92 Synth_Pad_Choir;
#C store Synth_Pad_Bowed 93 Synth_Pad_Bowed;
#C store Synth_Pad_Metallic 94 Synth_Pad_Metallic;
#C store Synth_Pad_Halo 95 Synth_Pad_Halo;
#C store Synth_Pad_Sweep 96 Synth_Pad_Sweep;
#C store FX_Rain 97 FX_Rain;
#C store FX_Soundtrack 98 FX_Soundtrack;
#C store FX_Crystal 99 FX_Crystal;
#C store FX_Atmosphere 100 FX_Atmosphere;
#C store FX_Brightness 101 FX_Brightness;
#C store FX_Goblins 102 FX_Goblins;
#C store FX_Echoes 103 FX_Echoes;
#C store FX_SciFi 104 FX_SciFi;
#C store Sitar 105 Sitar;
#C store Banjo 106 Banjo;
#C store Shamisen 107 Shamisen;
#C store Koto 108 Koto;
#C store Kalimba 109 Kalimba;
#C store Bag_Pipes 110 Bag_Pipes;
#C store Fiddle 111 Fiddle;
#C store Shanai 112 Shanai;
#C store Tinkle_Bell 113 Tinkle_Bell;
#C store Agogo 114 Agogo;
#C store Steel_Drums 115 Steel_Drums;
#C store Woodblock 116 Woodblock;
#C store Taiko_Drum 117 Taiko_Drum;
#C store Melodic_Tom 118 Melodic_Tom;
#C store Synth_Drum 119 Synth_Drum;
#C store Reverse_Cymbal 120 Reverse_Cymbal;
#C store Guitar_Fret_Noise 121 Guitar_Fret_Noise;
#C store Breath_Noise 122 Breath_Noise;
#C store Seashore 123 Seashore;
#C store Bird_Tweet 124 Bird_Tweet;
#C store Telephone_Ring 125 Telephone_Ring;
#C store Helicopter 126 Helicopter;
#C store Applause 127 Applause;
#C store Gunshot 128 Gunshot;
#C restore;
#X obj 132 275 unpack f s;
#X msg 188 150 flags 1 0;
#X text 186 127 save in patch;
#N canvas 0 22 315 315 print 0;
#X obj 23 14 inlet;
#X msg 110 79 1;
#X obj 23 40 t b b b b b b b;
#X msg 23 78 0;
#X obj 150 125 outlet dump;
#X obj 23 279 outlet print;
#X obj 110 148 outlet spigot;
#X msg 81 180 General Midi Instrument Note Mapping;
#X msg 23 222 ------------------------------------;
#X obj 156 53 loadbang;
#X msg 156 79 0;
#X connect 0 0 2 0;
#X connect 1 0 6 0;
#X connect 2 0 3 0;
#X connect 2 1 8 0;
#X connect 2 2 4 0;
#X connect 2 3 8 0;
#X connect 2 4 7 0;
#X connect 2 5 8 0;
#X connect 2 6 1 0;
#X connect 3 0 6 0;
#X connect 7 0 5 0;
#X connect 8 0 5 0;
#X connect 9 0 10 0;
#X connect 10 0 6 0;
#X restore 16 132 pd print;
#X msg 94 156 dump;
#X obj 16 43 inlet name;
#X msg 16 107 bang;
#X text 173 71 see: http://en.wikipedia.org/wiki/General_midi;
#X text 239 308 Dan Wilcox 2009;
#X text 239 327 danomatika.com | robotcowboy.com;
#X obj 16 304 spigot;
#N canvas 0 22 450 300 invert 0;
#X obj 71 51 inlet;
#X obj 71 83 sel 0;
#X msg 71 122 1;
#X msg 106 124 0;
#X obj 71 163 outlet;
#X connect 0 0 1 0;
#X connect 1 0 2 0;
#X connect 1 1 3 0;
#X connect 2 0 4 0;
#X connect 3 0 4 0;
#X restore 165 223 pd invert;
#X obj 132 250 spigot;
#X obj 16 81 route print float symbol;
#X text 15 11 general midi melodic instrument mapping look up table
;
#X obj 16 332 print gm-instrument;
#X obj 110 107 unsymbol;
#N canvas 0 22 433 157 trap 0;
#X obj 13 24 inlet;
#X obj 340 111 outlet;
#X text 80 21 trap all of the coll options;
#X obj 13 53 route bang list dump read write store open wclose clear
next prev length delete remove goto end filetype flags readagain writeagain
refer min max swap renumber sort;
#X connect 0 0 3 0;
#X connect 3 26 1 0;
#X restore 171 108 pd trap;
#X text 103 40 converts an instrument name to a program num from the
GM spec;
#X obj 132 308 outlet pgm;
#X connect 0 0 11 0;
#X connect 0 0 13 0;
#X connect 1 0 20 0;
#X connect 2 0 0 0;
#X connect 4 0 11 0;
#X connect 4 1 11 1;
#X connect 4 1 12 0;
#X connect 4 2 5 0;
#X connect 5 0 0 0;
#X connect 6 0 14 0;
#X connect 7 0 4 0;
#X connect 11 0 16 0;
#X connect 12 0 13 1;
#X connect 13 0 1 0;
#X connect 14 0 7 0;
#X connect 14 1 20 0;
#X connect 14 2 17 0;
#X connect 14 3 18 0;
#X connect 17 0 0 0;
#X connect 18 0 0 0;
