#N canvas 654 206 426 363 10;
#X obj 132 275 unpack f s;
#X msg 188 150 flags 1 0;
#X text 257 148 save in patch;
#N canvas 0 22 315 315 print 0;
#X msg 31 223 ------------------------------;
#X obj 31 15 inlet;
#X msg 78 174 General Midi Percussion Note Mapping;
#X msg 118 80 1;
#X obj 31 41 t b b b b b b b;
#X msg 31 79 0;
#X obj 158 126 outlet dump;
#X obj 31 280 outlet print;
#X obj 118 149 outlet spigot;
#X obj 165 54 loadbang;
#X msg 165 80 0;
#X connect 0 0 7 0;
#X connect 1 0 4 0;
#X connect 2 0 7 0;
#X connect 3 0 8 0;
#X connect 4 0 5 0;
#X connect 4 1 0 0;
#X connect 4 2 6 0;
#X connect 4 3 0 0;
#X connect 4 4 2 0;
#X connect 4 5 0 0;
#X connect 4 6 3 0;
#X connect 5 0 8 0;
#X connect 9 0 10 0;
#X connect 10 0 8 0;
#X restore 16 132 pd print;
#X msg 94 156 dump;
#X obj 16 43 inlet name;
#X obj 132 308 outlet note;
#X msg 16 107 bang;
#X text 135 53 see: http://en.wikipedia.org/wiki/General_midi;
#X text 210 318 Dan Wilcox 2009;
#X text 210 337 danomatika.com | robotcowboy.com;
#X obj 16 304 spigot;
#N canvas 0 22 450 300 invert 0;
#X obj 71 51 inlet;
#X obj 71 83 sel 0;
#X msg 71 122 1;
#X msg 106 124 0;
#X obj 71 163 outlet;
#X connect 0 0 1 0;
#X connect 1 0 2 0;
#X connect 1 1 3 0;
#X connect 2 0 4 0;
#X connect 3 0 4 0;
#X restore 165 223 pd invert;
#X obj 132 250 spigot;
#X obj 16 81 route print float symbol;
#X text 103 35 converts a drum name to a note num from the GM spec
;
#N canvas 0 22 433 157 trap 0;
#X obj 13 24 inlet;
#X obj 340 111 outlet;
#X text 80 21 trap all of the coll options;
#X obj 13 53 route bang list dump read write store open wclose clear
next prev length delete remove goto end filetype flags readagain writeagain
refer min max swap renumber sort;
#X connect 0 0 3 0;
#X connect 3 26 1 0;
#X restore 212 107 pd trap;
#X obj 16 332 print gm-percussion;
#X text 15 11 general midi percussion mapping look up table;
#X obj 132 184 cyclone/coll;
#C restore;
#X obj 110 107 iemlib/unsymbol;
#X connect 0 0 6 0;
#X connect 1 0 19 0;
#X connect 3 0 11 0;
#X connect 3 1 11 1;
#X connect 3 1 12 0;
#X connect 3 2 4 0;
#X connect 4 0 19 0;
#X connect 5 0 14 0;
#X connect 7 0 3 0;
#X connect 11 0 17 0;
#X connect 12 0 13 1;
#X connect 13 0 0 0;
#X connect 14 0 7 0;
#X connect 14 1 6 0;
#X connect 14 2 20 0;
#X connect 14 3 16 0;
#X connect 16 0 19 0;
#X connect 19 0 11 0;
#X connect 19 0 13 0;
#X connect 20 0 19 0;
