#N canvas 292 51 378 457 10;
#X obj 68 272 gm-percussion;
#X msg 121 236 print;
#X obj 68 344 print;
#X msg 45 104 Bass_Drum_1;
#X text 24 38 converts a drum name to a note num from the GM spec;
#X text 25 64 see: http://en.wikipedia.org/wiki/General_midi;
#X floatatom 68 308 5 0 0 1 note - -;
#X text 166 237 print the table for reference;
#X msg 105 199 60;
#X text 136 199 floats are passed through;
#X msg 72 129 Snare_Drum_2;
#X text 166 111 get note using GM name;
#X text 271 411 Dan Wilcox 2009;
#X text 170 429 danomatika.com | robotcowboy.com;
#X text 7 10 gm-percussion: general midi percussion mapping look up
table;
#X msg 89 162 Closed_Hi-Hat;
#N canvas 0 22 188 147 noteout 0;
#X obj 28 32 inlet;
#X obj 28 104 noteout 10;
#X obj 28 65 makenote 100 100;
#X connect 0 0 2 0;
#X connect 2 0 1 0;
#X connect 2 1 1 1;
#X restore 120 343 pd noteout 10;
#X text 211 342 try some notes;
#X text 27 380 note: chan 10 for percussion (+11 in GM2);
#X connect 0 0 6 0;
#X connect 1 0 0 0;
#X connect 3 0 0 0;
#X connect 6 0 2 0;
#X connect 6 0 16 0;
#X connect 8 0 0 0;
#X connect 10 0 0 0;
#X connect 15 0 0 0;
