#N canvas 654 206 426 363 10;
#X obj 132 184 coll;
#C flags 1 0;
#C store Bass_Drum_1 35 Bass_Drum_1;
#C store Bass_Drum_2 36 Bass_Drum_2;
#C store Side_Stick 37 Side_Stick;
#C store Snare_Drum_1 38 Snare_Drum_1;
#C store Hand_Clap 39 Hand_Clap;
#C store Snare_Drum_2 40 Snare_Drum_2;
#C store Low_Tom_2 41 Low_Tom_2;
#C store Closed_Hi-Hat 42 Closed_Hi-Hat;
#C store Low_Tom_1 43 Low_Tom_1;
#C store Pedal_Hi-Hat 44 Pedal_Hi-Hat;
#C store Mid_Tom_2 45 Mid_Tom_2;
#C store Open_Hi-Hat 46 Open_Hi-Hat;
#C store Mid_Tom_1 47 Mid_Tom_1;
#C store High_Tom_2 48 High_Tom_2;
#C store Crash_Cymbal_1 49 Crash_Cymbal_1;
#C store High_Tom_1 50 High_Tom_1;
#C store Ride_Cymbal_1 51 Ride_Cymbal_1;
#C store Chinese_Cymbal 52 Chinese_Cymbal;
#C store Ride_Bell 53 Ride_Bell;
#C store Tambourine 54 Tambourine;
#C store Splash_Cymbal 55 Splash_Cymbal;
#C store Cowbell 56 Cowbell;
#C store Crash_Cymbal_2 57 Crash_Cymbal_2;
#C store Vibra_Slap 58 Vibra_Slap;
#C store Ride_Cymbal_2 59 Ride_Cymbal_2;
#C store High_Bongo 60 High_Bongo;
#C store Low_Bongo 61 Low_Bongo;
#C store Mute_High_Conga 62 Mute_High_Conga;
#C store Open_High_Conga 63 Open_High_Conga;
#C store Low_Conga 64 Low_Conga;
#C store High_Timbale 65 High_Timbale;
#C store Low_Timbale 66 Low_Timbale;
#C store High_Agogo 67 High_Agogo;
#C store Low_Agogo 68 Low_Agogo;
#C store Cabasa 69 Cabasa;
#C store Maracas 70 Maracas;
#C store Short_Whistle 71 Short_Whistle;
#C store Long_Whistle 72 Long_Whistle;
#C store Short_Guiro 73 Short_Guiro;
#C store Long_Guiro 74 Long_Guiro;
#C store Claves 75 Claves;
#C store High_Wood_Block 76 High_Wood_Block;
#C store Low_Wood_Block 77 Low_Wood_Block;
#C store Mute_Cuica 78 Mute_Cuica;
#C store Open_Cuica 79 Open_Cuica;
#C store Mute_Triangle 80 Mute_Triangle;
#C store Open_Triangle 81 Open_Triangle;
#C restore;
#X obj 132 275 unpack f s;
#X msg 188 150 flags 1 0;
#X text 185 127 save in patch;
#N canvas 0 22 315 315 print 0;
#X msg 31 223 ------------------------------;
#X obj 31 15 inlet;
#X msg 78 174 General Midi Percussion Note Mapping;
#X msg 118 80 1;
#X obj 31 41 t b b b b b b b;
#X msg 31 79 0;
#X obj 158 126 outlet dump;
#X obj 31 280 outlet print;
#X obj 118 149 outlet spigot;
#X obj 165 54 loadbang;
#X msg 165 80 0;
#X connect 0 0 7 0;
#X connect 1 0 4 0;
#X connect 2 0 7 0;
#X connect 3 0 8 0;
#X connect 4 0 5 0;
#X connect 4 1 0 0;
#X connect 4 2 6 0;
#X connect 4 3 0 0;
#X connect 4 4 2 0;
#X connect 4 5 0 0;
#X connect 4 6 3 0;
#X connect 5 0 8 0;
#X connect 9 0 10 0;
#X connect 10 0 8 0;
#X restore 16 132 pd print;
#X msg 94 156 dump;
#X obj 16 43 inlet name;
#X obj 132 308 outlet note;
#X msg 16 107 bang;
#X text 135 53 see: http://en.wikipedia.org/wiki/General_midi;
#X text 210 318 Dan Wilcox 2009;
#X text 210 337 danomatika.com | robotcowboy.com;
#X obj 16 304 spigot;
#N canvas 0 22 450 300 invert 0;
#X obj 71 51 inlet;
#X obj 71 83 sel 0;
#X msg 71 122 1;
#X msg 106 124 0;
#X obj 71 163 outlet;
#X connect 0 0 1 0;
#X connect 1 0 2 0;
#X connect 1 1 3 0;
#X connect 2 0 4 0;
#X connect 3 0 4 0;
#X restore 165 223 pd invert;
#X obj 132 250 spigot;
#X obj 16 81 route print float symbol;
#X text 103 35 converts a drum name to a note num from the GM spec
;
#X obj 110 107 unsymbol;
#N canvas 0 22 433 157 trap 0;
#X obj 13 24 inlet;
#X obj 340 111 outlet;
#X text 80 21 trap all of the coll options;
#X obj 13 53 route bang list dump read write store open wclose clear
next prev length delete remove goto end filetype flags readagain writeagain
refer min max swap renumber sort;
#X connect 0 0 3 0;
#X connect 3 26 1 0;
#X restore 177 108 pd trap;
#X obj 16 332 print gm-percussion;
#X text 15 11 general midi percussion mapping look up table;
#X connect 0 0 12 0;
#X connect 0 0 14 0;
#X connect 1 0 7 0;
#X connect 2 0 0 0;
#X connect 4 0 12 0;
#X connect 4 1 12 1;
#X connect 4 1 13 0;
#X connect 4 2 5 0;
#X connect 5 0 0 0;
#X connect 6 0 15 0;
#X connect 8 0 4 0;
#X connect 12 0 19 0;
#X connect 13 0 14 1;
#X connect 14 0 1 0;
#X connect 15 0 8 0;
#X connect 15 1 7 0;
#X connect 15 2 17 0;
#X connect 15 3 18 0;
#X connect 17 0 0 0;
#X connect 18 0 0 0;
