#N canvas 309 22 647 495 10;
#X obj 18 307 a_spectroscope~;
#X obj 98 222 noise~;
#X text 363 382 danomatika.com | robotcowboy.com;
#X text 364 367 2011 Dan Wilcox GPL v3;
#X text 364 397 https://github.com/danomatika/rc-patches;
#X text 7 26 a_spectroscope~: a frequency spectrum gui;
#X msg 393 57 refresh \$1;
#X msg 327 30 onoff \$1;
#X obj 327 9 tgl 15 0 empty empty empty 17 7 0 10 -262144 -1 -1 1 1
;
#X obj 396 13 hsl 128 15 10 1000 0 0 empty empty 10-1000 32 8 0 10
-262144 -1 -1 200 1;
#X floatatom 393 35 5 0 0 0 - - -;
#X obj 461 83 hsl 128 15 0 128 0 0 empty empty 0-128 32 8 0 10 -262144
-1 -1 12700 1;
#X floatatom 458 105 5 0 0 0 - - -;
#X msg 458 127 xscale \$1;
#X obj 500 154 hsl 128 15 1 100 1 0 empty empty 0-100 32 8 0 10 -262144
-1 -1 9000 1;
#X floatatom 497 176 5 0 0 0 - - -;
#X msg 497 198 yscale \$1;
#X msg 520 229 reset;
#X obj 21 189 hsl 128 15 20 20000 0 0 empty empty 20-20k 32 8 0 10
-262144 -1 -1 3700 1;
#X obj 18 273 *~ 0.25;
#X floatatom 18 216 10 0 0 0 - - -;
#X text 342 462 <-- reset;
#X text 340 310 <-- refresh & onoff;
#X obj 18 135 loadbang;
#X msg 18 162 440;
#X obj 18 244 osc~;
#X obj 98 273 *~ 0;
#X obj 122 247 hsl 128 15 0 1 0 0 empty empty empty -2 -8 0 10 -262144
-1 -1 400 1;
#X connect 1 0 26 0;
#X connect 6 0 0 1;
#X connect 7 0 0 1;
#X connect 8 0 7 0;
#X connect 9 0 10 0;
#X connect 10 0 6 0;
#X connect 11 0 12 0;
#X connect 12 0 13 0;
#X connect 13 0 0 1;
#X connect 14 0 15 0;
#X connect 15 0 16 0;
#X connect 16 0 0 1;
#X connect 17 0 0 1;
#X connect 18 0 20 0;
#X connect 19 0 0 0;
#X connect 20 0 25 0;
#X connect 23 0 24 0;
#X connect 24 0 18 0;
#X connect 25 0 19 0;
#X connect 26 0 0 0;
#X connect 27 0 26 1;
