#N canvas 327 320 568 260 10;
#X obj 113 53 tgl 15 0 empty empty empty 17 7 0 10 -262144 -1 -1 0
1;
#X floatatom 113 201 5 0 0 1 beats - -, f 5;
#X obj 215 52 hsl 128 15 80 200 0 0 empty empty beats_per_minute 8
8 0 10 -262144 -1 -1 0 1;
#X obj 212 89 int;
#X floatatom 212 115 5 0 0 0 - - -, f 5;
#X obj 113 228 bng 15 250 50 0 empty empty empty 17 7 0 10 -262144
-1 -1;
#X msg 271 115 1;
#X msg 334 115 4;
#X msg 365 115 8;
#X msg 303 115 2;
#X msg 65 115 set 10;
#X msg 23 115 set 0;
#X msg 152 142 reset;
#X text 84 16 bpm metro with built-in beat counter;
#X text 21 89 set next beat;
#X msg 398 115 16;
#X msg 431 115 3;
#X msg 461 115 6;
#X msg 271 142 perbar \$1;
#X text 338 142 # beats per bar (measure);
#X text 270 91 1 whole \, 1/2 half \, 1/4 quarter \, 1/8 \, 1/6 \,
etc;
#X text 239 167 default: 120 bpm w/ 4 beats per bar (quarter notes)
;
#X obj 113 167 c_beatmetro 120 4;
#N canvas 0 23 450 300 tempo 0;
#X text 142 57 0 - 60 Largo;
#X text 142 239 200+ Prestissimo;
#X text 142 213 168 - 200 Presto;
#X text 142 187 120 - 156 Allegro;
#X text 142 161 108 - 120 Moderato;
#X text 142 135 76 - 108 Andante;
#X text 142 109 66 - 76 Adagio;
#X text 142 83 60 - 66 Larghetto;
#X text 140 30 Common tempo markings;
#X restore 366 52 pd tempo markings to bpm;
#X msg 132 115 beat \$1;
#X floatatom 132 89 5 0 0 0 - - -, f 5;
#X connect 0 0 22 0;
#X connect 1 0 5 0;
#X connect 2 0 3 0;
#X connect 3 0 4 0;
#X connect 4 0 22 1;
#X connect 6 0 18 0;
#X connect 7 0 18 0;
#X connect 8 0 18 0;
#X connect 9 0 18 0;
#X connect 10 0 22 0;
#X connect 11 0 22 0;
#X connect 12 0 22 0;
#X connect 15 0 18 0;
#X connect 16 0 18 0;
#X connect 17 0 18 0;
#X connect 18 0 22 1;
#X connect 22 0 1 0;
#X connect 24 0 22 0;
#X connect 25 0 24 0;
