#N canvas 540 136 340 235 10;
#X obj 78 171 f;
#X obj 107 171 + 1;
#X obj 15 25 inlet;
#X obj 201 24 inlet;
#X obj 78 204 outlet;
#X msg 54 129 0;
#N canvas 0 23 287 300 args 0;
#X obj 34 37 loadbang;
#X obj 34 67 t b b;
#X obj 34 110 f \$1;
#X obj 128 111 f \$2;
#X obj 34 144 sel 0;
#X obj 128 143 sel 0;
#X obj 61 214 outlet;
#X msg 155 175 perbar \$1;
#X connect 0 0 1 0;
#X connect 1 0 2 0;
#X connect 1 1 3 0;
#X connect 2 0 4 0;
#X connect 3 0 5 0;
#X connect 4 1 6 0;
#X connect 5 1 7 0;
#X connect 7 0 6 0;
#X restore 247 24 pd args;
#X obj 142 135 metro 0.25 120 permin;
#X msg 159 107 tempo \$1 permin;
#X obj 265 107 /;
#X msg 265 78 4 \$1;
#X obj 201 50 route float perbar;
#X obj 15 107 route beat reset set;
#X connect 0 0 1 0;
#X connect 0 0 4 0;
#X connect 1 0 0 1;
#X connect 2 0 12 0;
#X connect 3 0 11 0;
#X connect 5 0 0 0;
#X connect 6 0 11 0;
#X connect 7 0 0 0;
#X connect 8 0 7 0;
#X connect 9 0 7 1;
#X connect 10 0 9 0;
#X connect 11 0 8 0;
#X connect 11 1 10 0;
#X connect 12 0 0 0;
#X connect 12 1 5 0;
#X connect 12 2 0 1;
#X connect 12 3 7 0;
