#N canvas 77 23 325 261 10;
#X obj 49 51 inlet;
#X obj 73 78 inlet;
#X obj 49 208 outlet;
#X obj 49 157 random 500;
#X obj 49 130 metro 500;
#X text 104 48 toggle on/off;
#X text 18 11 a random impulse generator ala Supercollider;
#X text 138 212 right out of delay-help.pd;
#X text 114 79 density;
#X obj 73 103 moses 0;
#X text 138 112 low numbers yield more dust;
#X obj 49 182 delay;
#X text 138 194 Dan Wilcox 2008 \, 2017;
#X connect 0 0 4 0;
#X connect 1 0 9 0;
#X connect 3 0 11 0;
#X connect 4 0 3 0;
#X connect 9 1 3 1;
#X connect 9 1 4 1;
#X connect 11 0 2 0;
