#N canvas 112 94 868 521 10;
#N canvas 77 71 582 570 REFERENCE 0;
#X text 24 31 Name: c_frombus2;
#X text 24 51 Summary: receive audio from a named audio bus (stereo)
;
#X text 24 91 Argument 0: name of bus to read from;
#X text 24 124 Inlet 0: rename source bus. set <name>: rename source
bus to <name>. <name>: rename source bus to <name> when <name> is not
equal to "set;
#X text 24 176 Outlet 0: signal carrying the bus left audio out;
#X text 24 196 Outlet 1: signal carrying the bus right audio out;
#X text 24 234 Description: [c_frombus2] will read audio from a named
stereo bus. It is meant to be used together with the [c_bus2] object
to read audio to a bus. Please see the [c_bus2] help file for details.
;
#X text 24 334 See also: [c_bus2] [c_tobus2] [c_bus] [c_frombus] etc
;
#X text 24 434 Tags: audio signal bus routing;
#X coords 0 -1 1 1 450 450 1 10 10;
#X restore 5 48 pd REFERENCE;
#X obj 5 18 cnv 15 450 20 empty empty empty 20 12 0 14 -261234 -66577
0;
#X text 468 51 Example:;
#X text 495 488 rc-patches (https://github.com/danomatika/rc-patches)
- 2016;
#X msg 8 20 c_frombus2;
#X msg 591 227 ONE;
#X msg 626 228 TWO;
#X msg 647 255 set ONE;
#X text 523 128 First create busses. Bus names are globally visible.
;
#X obj 606 165 c_bus \$0-MYBUS;
#X text 677 224 renaming bus source;
#X obj 591 314 soundoutput;
#X obj 591 282 c_frombus2 \$0-MYBUS;
#X text 520 192 Receieve from named busses;
#X text 129 21 - receive from a named stereo audio bus;
#X connect 5 0 12 0;
#X connect 6 0 12 0;
#X connect 7 0 12 0;
#X connect 12 0 11 0;
#X connect 12 1 11 1;
