#N canvas 0 23 321 263 10;
#X obj 33 182 outlet~;
#X obj 33 29 inlet;
#X obj 33 80 list;
#X obj 33 54 route set;
#X obj 194 183 outlet~;
#X obj 194 147 r~ \$1/right;
#X obj 33 146 r~ \$1/left;
#X msg 194 113 set \$1/right;
#X msg 33 113 set \$1/left;
#X connect 1 0 3 0;
#X connect 2 0 8 0;
#X connect 2 0 7 0;
#X connect 3 0 2 0;
#X connect 3 1 2 0;
#X connect 5 0 4 0;
#X connect 6 0 0 0;
#X connect 7 0 5 0;
#X connect 8 0 6 0;
