#N canvas 92 117 648 425 12;
#X floatatom 64 238 5 0 0 0 beats - - 0;
#X floatatom 406 338 5 0 0 1 bpm - - 0;
#X obj 138 237 tgl 19 0 empty empty running? 20 10 0 12 #fcfcfc #000000 #000000 0 1;
#X floatatom 240 274 5 0 0 0 ticks - - 0;
#X floatatom 456 313 10 0 0 1 time\ seconds - - 0;
#X floatatom 356 367 10 0 0 1 tick\ ms - - 0;
#X msg 87 87 1;
#X msg 150 87 4;
#X msg 181 87 8;
#X msg 119 87 2;
#X msg 214 87 16;
#X msg 310 87 3;
#X msg 343 87 6;
#X msg 87 118 perbar \$1;
#X text 154 118 # beats per bar (measure);
#X text 86 63 1 whole \, 1/2 half \, 1/4 quarter \, 1/8 \, 1/6 \, etc;
#X text 354 254 extended info (extra calculations);
#X text 206 178 creation args: extended info 1/0 \, beats per bar;
#X text 92 141 default: 4 beats per bar (quarter notes);
#X obj 64 272 bng 19 250 50 0 empty empty empty 0 -10 0 12 #fcfcfc #000000 #000000;
#X obj 356 279 route ticklen bpm time;
#X msg 246 87 32;
#X msg 278 87 64;
#X obj 87 178 c_midiclkin 1 4;
#N canvas 585 68 481 411 xoxo 0;
#X obj 23 60 g_drumseq16;
#X obj 23 341 soundoutput;
#X obj 23 308 s_drumelectro;
#X msg 146 264 oh;
#X obj 23 193 route 1 2 3 4;
#X obj 23 27 c_midiclkin 0 16;
#X obj 23 226 bng 19 250 50 0 empty empty empty 0 -10 0 12 #fcfcfc #000000 #000000;
#X obj 49 226 bng 19 250 50 0 empty empty empty 0 -10 0 12 #fcfcfc #000000 #000000;
#X obj 78 226 bng 19 250 50 0 empty empty empty 0 -10 0 12 #fcfcfc #000000 #000000;
#X obj 105 226 bng 19 250 50 0 empty empty empty 0 -10 0 12 #fcfcfc #000000 #000000;
#X msg 23 264 bd;
#X msg 65 264 sn;
#X msg 107 264 hh;
#X connect 0 0 4 0;
#X connect 2 0 1 0;
#X connect 3 0 2 0;
#X connect 4 0 6 0;
#X connect 4 1 7 0;
#X connect 4 2 8 0;
#X connect 4 3 9 0;
#X connect 5 0 0 0;
#X connect 6 0 10 0;
#X connect 7 0 11 0;
#X connect 8 0 12 0;
#X connect 9 0 3 0;
#X connect 10 0 2 0;
#X connect 11 0 2 0;
#X connect 12 0 2 0;
#X restore 63 351 pd xoxo;
#X text 126 352 <-- drums example;
#X obj 240 240 route float;
#X obj 451 22 c_beatmetro;
#X text 379 21 related:;
#X text 41 21 MIDI clock to beat receiver;
#X connect 0 0 19 0;
#X connect 6 0 13 0;
#X connect 7 0 13 0;
#X connect 8 0 13 0;
#X connect 9 0 13 0;
#X connect 10 0 13 0;
#X connect 11 0 13 0;
#X connect 12 0 13 0;
#X connect 13 0 23 0;
#X connect 20 0 5 0;
#X connect 20 1 1 0;
#X connect 20 2 4 0;
#X connect 21 0 13 0;
#X connect 22 0 13 0;
#X connect 23 0 0 0;
#X connect 23 1 2 0;
#X connect 23 2 26 0;
#X connect 26 0 3 0;
#X connect 26 1 20 0;
