#N canvas 92 25 701 620 12;
#X obj 220 29 midirealtimein;
#X msg 256 92 start;
#X msg 376 92 stop;
#X obj 220 61 route 248 250 251 252;
#X msg 306 92 continue;
#X msg 256 124 1;
#X msg 376 124 0;
#X obj 269 287 timer;
#X msg 256 152 bang;
#X obj 269 253 t b b;
#X obj 220 181 t b b;
#X obj 84 29 midiin;
#X obj 84 61 route 242;
#X obj 45 152 spigot;
#X msg 84 124 1;
#X obj 45 212 t a b;
#X msg 96 212 0;
#X obj 45 181 u_listgroup 2;
#X obj 45 246 unpack f f;
#X obj 45 303 +;
#X obj 112 275 << 7;
#X msg 84 92 songpos;
#X obj 45 335 * 6;
#X obj 45 382 f;
#X obj 84 382 + 1;
#X obj 269 316 m_mavg 5;
#X obj 292 394 expr floor((2500 / $f1) + 0.5);
#X text 315 286 tick length in ms;
#X obj 45 562 outlet;
#X text 88 302 song pos in beats;
#X text 120 381 MIDI ticks;
#X obj 529 562 outlet;
#X obj 376 152 outlet;
#X text 424 152 running?;
#X msg 292 423 bpm \$1;
#X msg 203 541 time \$1;
#X obj 203 511 expr $f1 * $f2 * 0.006;
#X text 367 512 seconds;
#X msg 529 393 ticklen \$1;
#X obj 203 481 pack f f;
#X obj 269 347 t f f f;
#X obj 45 498 int;
#X text 78 498 beats;
#X obj 45 529 change;
#X text 180 181 tick;
#X obj 45 417 t f f f;
#X obj 490 29 inlet;
#N canvas 0 25 194 271 args 0;
#X obj 29 35 loadbang;
#X obj 29 71 f \$2;
#X obj 29 103 sel 0;
#X obj 61 195 outlet;
#X msg 61 135 perbar \$1;
#X connect 0 0 1 0;
#X connect 1 0 2 0;
#X connect 2 1 4 0;
#X connect 4 0 3 0;
#X restore 545 29 pd args;
#X obj 565 101 expr 16/$f1 * 6;
#X obj 565 130 s \$0-tpb;
#X obj 91 468 r \$0-tpb;
#X obj 490 64 route float perbar;
#X obj 416 188 r \$0-ext;
#X obj 269 220 spigot \$1;
#X obj 356 220 spigot \$1;
#X obj 490 131 s \$0-ext;
#X obj 45 468 / 24;
#X msg 457 476 \$1;
#X text 489 476 ticks;
#X connect 0 0 3 0;
#X connect 1 0 5 0;
#X connect 2 0 6 0;
#X connect 3 0 10 0;
#X connect 3 1 1 0;
#X connect 3 2 4 0;
#X connect 3 3 2 0;
#X connect 4 0 5 0;
#X connect 5 0 8 0;
#X connect 5 0 32 0;
#X connect 6 0 32 0;
#X connect 7 0 25 0;
#X connect 8 0 54 0;
#X connect 9 0 7 0;
#X connect 9 1 7 1;
#X connect 10 0 53 0;
#X connect 10 1 23 0;
#X connect 11 0 12 0;
#X connect 12 0 21 0;
#X connect 12 1 13 0;
#X connect 13 0 17 0;
#X connect 14 0 13 1;
#X connect 15 0 18 0;
#X connect 15 1 16 0;
#X connect 16 0 13 1;
#X connect 17 0 15 0;
#X connect 18 0 19 0;
#X connect 18 1 20 0;
#X connect 19 0 22 0;
#X connect 20 0 19 1;
#X connect 21 0 14 0;
#X connect 22 0 23 0;
#X connect 23 0 24 0;
#X connect 23 0 45 0;
#X connect 24 0 23 1;
#X connect 25 0 40 0;
#X connect 26 0 34 0;
#X connect 34 0 31 0;
#X connect 35 0 31 0;
#X connect 36 0 35 0;
#X connect 38 0 31 0;
#X connect 39 0 36 0;
#X connect 40 0 39 0;
#X connect 40 1 26 0;
#X connect 40 2 38 0;
#X connect 41 0 43 0;
#X connect 43 0 28 0;
#X connect 45 0 39 1;
#X connect 45 1 57 0;
#X connect 45 2 56 0;
#X connect 46 0 51 0;
#X connect 47 0 51 0;
#X connect 48 0 49 0;
#X connect 50 0 56 1;
#X connect 51 0 55 0;
#X connect 51 1 48 0;
#X connect 52 0 53 1;
#X connect 52 0 54 1;
#X connect 53 0 9 0;
#X connect 54 0 7 0;
#X connect 56 0 41 0;
#X connect 57 0 31 0;
