#N canvas 185 101 862 519 10;
#N canvas 149 155 582 570 REFERENCE 0;
#X text 24 31 Name: [c_nstep];
#X text 24 241 Outlet 1: bang on end of sequence;
#X text 24 261 Outlet 2: sequence out as a list;
#X text 24 299 Description: This is a flexible length version of Karlheinz
Essel's [16-step] in the rtc lib \, minus the built-in bpm metro. Useful
for simple sequence triggering in conjunction with the list objects
to generate patterns.;
#X text 24 434 Tags: sequencer \, list;
#X text 24 374 See also: [c_qseq] \, [c_seqplay] \, [c_markov] \, [u_listrandom]
\, [c_mulitpass];
#X text 24 94 Argument 0: <float> optional sequence length \, default
is 16;
#X text 24 51 Summary: a simple \, variable length step sequencer;
#X text 24 221 Outlet 0: non-zero sequence numbers;
#X text 23 186 Inlet 1: incoming sequence in a list \, "dump": dump
seq as a list \, "clear": clear seq to zero;
#X text 23 132 Inlet 0: <bang> output next pos \, <float> change pos
& output \, "set" <float>: next pos \, "reset": reset next seq pos
to 0 \, "length": set seq length;
#X coords 0 -1 1 1 450 450 1 10 10;
#X restore 5 48 pd REFERENCE;
#X obj 5 18 cnv 15 450 20 empty empty empty 20 12 0 14 -261234 -66577
0;
#X text 485 478 rc-patches (https://github.com/danomatika/rc-patches)
- 2013;
#X obj 541 416 bng 15 250 50 0 empty empty empty 17 7 0 10 -262144
-1 -1;
#X obj 494 67 metro 200;
#X obj 494 30 tgl 15 0 empty empty empty 17 7 0 10 -262144 -1 -1 0
1;
#X msg 516 96 reset;
#X obj 558 67 sel 0;
#X floatatom 545 42 5 0 0 0 - - -, f 5;
#X msg 592 291 dump;
#X msg 579 266 1 0 1 0 1 1 1 1;
#X obj 516 459 bng 15 250 50 0 empty empty empty 17 7 0 10 -262144
-1 -1;
#X text 687 241 sequences in as lists;
#X text 634 293 dump out the sequence;
#X text 623 366 sequences out as lists;
#X text 558 416 end of seq;
#X obj 516 337 c_nstep 8;
#X obj 567 366 u_show;
#X msg 547 194 4;
#X msg 582 194 8;
#X text 613 201 change sequence length dynamically;
#X msg 547 216 length \$1;
#X msg 567 394 32 0 0 0 64 0 0 0;
#X floatatom 516 438 5 0 0 0 - - -, f 5;
#X msg 567 242 32 0 0 0 64 0 0 0;
#X text 553 438 non-zero numbers out;
#X text 128 21 - arbitrary length sequence player;
#X msg 597 316 clear;
#X text 640 315 clear to all zeros;
#X text 555 96 reset next pos to 0;
#X obj 8 20 c_nstep;
#X floatatom 528 124 5 0 0 0 - - -, f 5;
#X msg 538 168 set \$1;
#X obj 494 96 bng 15 250 50 0 empty empty empty 17 7 0 10 -262144 -1
-1;
#X floatatom 538 147 5 0 0 0 - - -, f 5;
#X text 575 147 set the pos for the *next* bang;
#X text 563 124 change pos & output \, wraps using %;
#X connect 4 0 33 0;
#X connect 5 0 7 0;
#X connect 5 0 4 0;
#X connect 6 0 16 0;
#X connect 7 0 6 0;
#X connect 8 0 4 1;
#X connect 9 0 16 1;
#X connect 10 0 16 1;
#X connect 16 0 23 0;
#X connect 16 1 3 0;
#X connect 16 2 17 0;
#X connect 17 0 22 0;
#X connect 18 0 21 0;
#X connect 19 0 21 0;
#X connect 21 0 16 0;
#X connect 23 0 11 0;
#X connect 24 0 16 1;
#X connect 27 0 16 1;
#X connect 31 0 16 0;
#X connect 32 0 16 0;
#X connect 33 0 16 0;
#X connect 34 0 32 0;
