#N canvas 435 22 614 342 10;
#X obj 81 270 outlet;
#X obj 42 299 outlet;
#X obj 42 49 inlet;
#X obj 419 52 inlet;
#N canvas 243 302 319 321 core 0;
#X obj 138 284 outlet;
#X obj 93 22 inlet;
#X obj 93 164 f;
#X obj 119 165 + 1;
#X obj 146 165 mod 16;
#X obj 93 214 tabread \$0-seq;
#X obj 215 251 outlet;
#X obj 215 203 select 15;
#X obj 93 186 t a a;
#X obj 93 239 select 0;
#X msg 167 113 0;
#X text 226 225 bang on end;
#X text 20 213 read table;
#X obj 266 178 - 1;
#X text 135 21 metro on/off bangs;
#X obj 167 74 inlet;
#X text 209 73 reset counter;
#X text 6 167 counter 0-15;
#X obj 179 142 r \$0-len;
#X connect 1 0 2 0;
#X connect 2 0 3 0;
#X connect 2 0 8 0;
#X connect 3 0 4 0;
#X connect 4 0 2 1;
#X connect 5 0 9 0;
#X connect 7 0 6 0;
#X connect 8 0 5 0;
#X connect 8 1 7 0;
#X connect 9 1 0 0;
#X connect 10 0 2 1;
#X connect 13 0 7 1;
#X connect 15 0 10 0;
#X connect 18 0 4 1;
#X connect 18 0 13 0;
#X restore 42 242 pd core;
#X obj 419 136 s \$0-seq;
#X text 130 269 bang on end of sequence;
#X text 94 300 bang in sequence;
#N canvas 0 22 450 300 (subpatch) 0;
#X array \$0-seq 8 float 0;
#X coords 0 127 7 0 100 70 1 0 0;
#X restore 418 183 graph;
#X text 14 11 a simple n step sequence player;
#X obj 122 242 outlet;
#X text 164 161 send out sequence as list on "dump" msg;
#X text 87 49 metro toggle in;
#N canvas 4 51 316 293 clear_array 0;
#X obj 38 44 inlet;
#X obj 38 103 t b b;
#X obj 38 259 outlet;
#X text 85 259 bang for tabdump after clearing table;
#X obj 65 170 \$0;
#X msg 65 197 \; \$1-seq const 0;
#X text 14 11 clears the table;
#X msg 77 67 bang;
#X connect 0 0 1 0;
#X connect 1 0 2 0;
#X connect 1 1 4 0;
#X connect 4 0 5 0;
#X connect 7 0 1 0;
#X restore 162 129 pd clear_array;
#X msg 122 162 bang;
#X obj 419 107 list prepend 0;
#X text 387 80 start writing at index 0;
#N canvas 172 83 586 377 LICENSE-GPL 0;
#X text 57 88 This program is free software: you can redistribute it
and/or modify it under the terms of the GNU General Public License
as published by the Free Software Foundation \, either version 3 of
the License \, or (at your option) any later version.;
#X text 58 168 This program is distributed in the hope that it will
be useful \, but WITHOUT ANY WARRANTY \; without even the implied warranty
of MERCHANTABILITY or FITNESS FOR A PARTICULAR PURPOSE. See the GNU
General Public License for more details.;
#X text 57 261 You should have received a copy of the GNU General Public
License along with this program. If not \, see <http://www.gnu.org/licenses/>.
;
#X text 60 325 See the file LICENSE.txt for the full license text.
;
#X text 56 54 Copyright (C) 2013 \, Dan Wilcox <danomatika@gmail.com>
;
#X restore 420 294 pd LICENSE-GPL;
#N canvas 728 155 250 285 arg1 0;
#X obj 23 29 loadbang;
#X obj 23 169 f \$0;
#X obj 23 195 pack f f;
#X msg 23 233 \; \$1-seq resize \$2;
#X obj 50 114 moses 1;
#X obj 50 84 \$1;
#X text 106 114 filter bad nums;
#X msg 50 139 16;
#X obj 23 56 t b b;
#X obj 94 31 inlet;
#X obj 94 56 t b f;
#X obj 101 176 s \$0-len;
#X text 108 139 default len: 16;
#X obj 153 248 print;
#X connect 0 0 8 0;
#X connect 1 0 2 0;
#X connect 2 0 3 0;
#X connect 3 0 13 0;
#X connect 4 0 7 0;
#X connect 4 1 2 1;
#X connect 4 1 11 0;
#X connect 5 0 4 0;
#X connect 7 0 2 1;
#X connect 8 0 1 0;
#X connect 8 1 5 0;
#X connect 9 0 10 0;
#X connect 10 0 1 0;
#X connect 10 1 4 0;
#X restore 202 107 pd arg1 len;
#X obj 42 77 route bang reset dump clear length;
#X obj 122 210 u_tabdump \$0-seq;
#X connect 2 0 19 0;
#X connect 3 0 15 0;
#X connect 4 0 1 0;
#X connect 4 1 0 0;
#X connect 13 0 14 0;
#X connect 14 0 20 0;
#X connect 15 0 5 0;
#X connect 19 0 4 0;
#X connect 19 1 4 1;
#X connect 19 2 14 0;
#X connect 19 3 13 0;
#X connect 19 4 18 0;
#X connect 20 0 10 0;
