#N canvas 471 273 513 396 10;
#X obj 52 312 text get \$0-playlist;
#X obj 181 214 text size \$0-playlist;
#X obj 52 339 u_list2symbol;
#X obj 52 366 outlet name;
#X obj 135 367 outlet pos;
#X obj 208 367 outlet len;
#X obj 282 367 outlet end;
#X obj 25 280 t f f;
#X obj 181 239 t f f;
#X obj 25 19 inlet;
#X obj 181 130 u_list2symbol;
#X msg 346 159 clear;
#X obj 181 17 inlet;
#N canvas 172 83 586 377 LICENSE-GPL 0;
#X text 57 88 This program is free software: you can redistribute it
and/or modify it under the terms of the GNU General Public License
as published by the Free Software Foundation \, either version 3 of
the License \, or (at your option) any later version.;
#X text 58 168 This program is distributed in the hope that it will
be useful \, but WITHOUT ANY WARRANTY \; without even the implied warranty
of MERCHANTABILITY or FITNESS FOR A PARTICULAR PURPOSE. See the GNU
General Public License for more details.;
#X text 57 261 You should have received a copy of the GNU General Public
License along with this program. If not \, see <http://www.gnu.org/licenses/>.
;
#X text 60 325 See the file LICENSE.txt for the full license text.
;
#X text 56 54 Copyright (C) 2016 \, Dan Wilcox <danomatika@gmail.com>
;
#X restore 379 21 pd LICENSE-GPL;
#N canvas 240 134 197 223 arg1 0;
#X obj 105 162 outlet;
#X obj 30 23 loadbang;
#X obj 30 59 t b b;
#X obj 105 92 symbol;
#X obj 30 126 select symbol;
#X obj 30 91 symbol \$1;
#X connect 1 0 2 0;
#X connect 2 0 5 0;
#X connect 2 1 3 0;
#X connect 3 0 4 1;
#X connect 4 1 0 0;
#X connect 5 0 4 0;
#X restore 129 17 pd arg1;
#N canvas 0 23 435 296 print 0;
#X obj 29 163 text get \$0-playlist;
#X obj 63 131 + 1;
#X obj 29 131 f;
#X obj 29 100 until;
#X msg 71 100 0;
#X obj 29 72 text size \$0-playlist;
#X obj 92 229 print -n;
#X msg 167 164 --------- playlist contents ---------;
#X obj 29 46 t b b b;
#X obj 29 195 route float;
#X obj 29 19 inlet;
#X text 25 252 floats are printed with a ": " prefix & route somehow
fixes that;
#X connect 0 0 9 0;
#X connect 1 0 2 1;
#X connect 2 0 1 0;
#X connect 2 0 0 0;
#X connect 3 0 2 0;
#X connect 4 0 2 1;
#X connect 5 0 3 0;
#X connect 7 0 6 0;
#X connect 8 0 5 0;
#X connect 8 1 4 0;
#X connect 8 2 7 0;
#X connect 9 0 6 0;
#X connect 9 1 6 0;
#X connect 10 0 8 0;
#X restore 395 159 pd print;
#X obj 346 214 text define \$0-playlist;
#X obj 181 43 route read clear print;
#X obj 224 70 t b b;
#X msg 44 213 reset;
#X obj 181 183 t b b a;
#X obj 25 255 u_count;
#X obj 44 185 t b b;
#X msg 95 214 1;
#X text 348 239 ^ this holds the data ^;
#X msg 181 158 read -c \$1;
#X connect 0 0 2 0;
#X connect 1 0 8 0;
#X connect 2 0 3 0;
#X connect 7 0 4 0;
#X connect 7 1 0 0;
#X connect 8 0 21 1;
#X connect 8 1 5 0;
#X connect 9 0 21 0;
#X connect 10 0 25 0;
#X connect 11 0 16 0;
#X connect 12 0 17 0;
#X connect 14 0 10 0;
#X connect 17 0 10 0;
#X connect 17 1 18 0;
#X connect 17 2 15 0;
#X connect 18 0 22 0;
#X connect 18 1 11 0;
#X connect 19 0 21 0;
#X connect 20 0 1 0;
#X connect 20 1 19 0;
#X connect 20 2 16 0;
#X connect 21 0 7 0;
#X connect 21 1 6 0;
#X connect 22 0 19 0;
#X connect 22 1 23 0;
#X connect 23 0 21 1;
#X connect 25 0 20 0;
