#N canvas 371 33 678 399 10;
#X obj 82 312 text get \$0-playlist;
#X obj 211 214 text size \$0-playlist;
#X obj 82 339 u_list2symbol;
#X obj 82 366 outlet name;
#X obj 165 367 outlet pos;
#X obj 238 367 outlet len;
#X obj 312 367 outlet end;
#X obj 55 280 t f f;
#X obj 211 239 t f f;
#X obj 12 19 inlet;
#X obj 12 90 t b b;
#X msg 39 117 up;
#X obj 55 90 t b b;
#X msg 82 117 down;
#X obj 12 50 route next prev;
#X obj 55 194 t a;
#X obj 55 255 u_count;
#X obj 211 91 u_list2symbol;
#X msg 211 158 read -c \$1;
#X obj 211 183 t b a;
#X msg 467 156 clear;
#X obj 211 17 inlet;
#N canvas 172 83 586 377 LICENSE-GPL 0;
#X text 57 88 This program is free software: you can redistribute it
and/or modify it under the terms of the GNU General Public License
as published by the Free Software Foundation \, either version 3 of
the License \, or (at your option) any later version.;
#X text 58 168 This program is distributed in the hope that it will
be useful \, but WITHOUT ANY WARRANTY \; without even the implied warranty
of MERCHANTABILITY or FITNESS FOR A PARTICULAR PURPOSE. See the GNU
General Public License for more details.;
#X text 57 261 You should have received a copy of the GNU General Public
License along with this program. If not \, see <http://www.gnu.org/licenses/>.
;
#X text 60 325 See the file LICENSE.txt for the full license text.
;
#X text 56 54 Copyright (C) 2016 \, Dan Wilcox <danomatika@gmail.com>
;
#X restore 324 17 pd LICENSE-GPL;
#N canvas 240 134 197 223 arg1 0;
#X obj 105 162 outlet;
#X obj 30 23 loadbang;
#X obj 30 59 t b b;
#X obj 105 92 symbol;
#X obj 30 126 select symbol;
#X obj 30 91 symbol \$1;
#X connect 1 0 2 0;
#X connect 2 0 5 0;
#X connect 2 1 3 0;
#X connect 3 0 4 1;
#X connect 4 1 0 0;
#X connect 5 0 4 0;
#X restore 159 17 pd arg1;
#X msg 513 156 click;
#X msg 558 156 close;
#N canvas 0 23 435 296 print 0;
#X obj 29 163 text get \$0-playlist;
#X obj 63 131 + 1;
#X obj 29 131 f;
#X obj 29 100 until;
#X msg 71 100 0;
#X obj 29 72 text size \$0-playlist;
#X obj 92 229 print -n;
#X msg 167 164 --------- playlist contents ---------;
#X obj 29 46 t b b b;
#X obj 29 195 route float;
#X text 25 252 floats are printed with a ": " prefix & route somehox
fixes that;
#X obj 29 19 inlet;
#X connect 0 0 9 0;
#X connect 1 0 2 1;
#X connect 2 0 1 0;
#X connect 2 0 0 0;
#X connect 3 0 2 0;
#X connect 4 0 2 1;
#X connect 5 0 3 0;
#X connect 7 0 6 0;
#X connect 8 0 5 0;
#X connect 8 1 4 0;
#X connect 8 2 7 0;
#X connect 9 0 6 0;
#X connect 9 1 6 0;
#X connect 11 0 8 0;
#X restore 609 157 pd print;
#X obj 467 212 text define \$0-playlist;
#X obj 305 92 route bang;
#X obj 305 133 symbol;
#X obj 362 116 u_list2symbol;
#X msg 305 158 write -c \$1;
#X obj 467 118 route clear open close print;
#X obj 211 43 route read write;
#X text 469 237 ^ this hold the data ^;
#X text 355 135 < store filename;
#X connect 0 0 2 0;
#X connect 1 0 8 0;
#X connect 2 0 3 0;
#X connect 7 0 4 0;
#X connect 7 1 0 0;
#X connect 8 0 16 1;
#X connect 8 1 5 0;
#X connect 9 0 14 0;
#X connect 10 0 15 0;
#X connect 10 1 11 0;
#X connect 11 0 15 0;
#X connect 12 0 15 0;
#X connect 12 1 13 0;
#X connect 13 0 15 0;
#X connect 14 0 10 0;
#X connect 14 1 12 0;
#X connect 14 2 15 0;
#X connect 15 0 16 0;
#X connect 16 0 7 0;
#X connect 16 1 6 0;
#X connect 17 0 18 0;
#X connect 17 0 29 1;
#X connect 18 0 19 0;
#X connect 19 0 1 0;
#X connect 19 1 27 0;
#X connect 20 0 27 0;
#X connect 21 0 33 0;
#X connect 23 0 17 0;
#X connect 24 0 27 0;
#X connect 25 0 27 0;
#X connect 28 0 29 0;
#X connect 28 1 30 0;
#X connect 29 0 31 0;
#X connect 30 0 29 0;
#X connect 31 0 19 0;
#X connect 32 0 20 0;
#X connect 32 1 24 0;
#X connect 32 2 25 0;
#X connect 32 3 26 0;
#X connect 33 0 17 0;
#X connect 33 1 28 0;
#X connect 33 2 32 0;
