#N canvas 607 234 289 280 10;
#X obj 37 178 osc~;
#X floatatom 89 77 5 0 0 0 - - -, f 5;
#X msg 129 77 60;
#X msg 161 77 200;
#X floatatom 130 119 5 0 0 0 - - -, f 5;
#X obj 37 76 mtof;
#X msg 37 46 60;
#X msg 75 46 70;
#X text 189 77 freqs in;
#X text 105 46 midi in;
#X text 168 120 glide time in ms;
#X obj 37 142 c_portamento 200;
#X obj 37 220 soundoutput;
#X text 72 177 glide freq out;
#X text 34 19 portamento (glide) wrapper for line;
#X connect 0 0 12 0;
#X connect 0 0 12 1;
#X connect 1 0 11 0;
#X connect 2 0 11 0;
#X connect 3 0 11 0;
#X connect 4 0 11 1;
#X connect 5 0 11 0;
#X connect 6 0 5 0;
#X connect 7 0 5 0;
#X connect 11 0 0 0;
