#N canvas 52 158 905 509 10;
#N canvas 119 153 582 570 REFERENCE 0;
#X text 24 51 Summary: a sequencer wrapper abstraction for qlist;
#X text 25 242 Description: You can record a sequence of any list.
It will be played back with the same timing. You can use arbitrary
selectors and lists of any length.;
#X text 24 289 If you want to save your sequence \, you will need the
unique id to be the same when you open your patch again and read the
file. Therefore \, it's recommended to use a symbol or a number as
a unique id \, instead of \$0.;
#X text 24 389 See also: [qlist] [c_seqplay] [seq] (requires cyclone)
;
#X text 25 186 Outlet 0: recorded messages during playback;
#X text 24 120 Inlet 0: messages to record;
#X text 24 144 Inlet 1: sequencer control;
#X text 24 85 Argument 0: <float or symbol> unique id (don't use \$0)
;
#X text 24 435 Tags: Sequencer \, Control;
#X text 23 350 This is a renamed [ya-seq] by Alexandre Quessy in pd-mtl.
;
#X text 25 209 Outlet 1: bangs when sequence is finished;
#X text 24 31 Name: c_qseq;
#X coords 0 -1 1 1 450 450 1 10 10;
#X restore 5 49 pd REFERENCE;
#X obj 5 19 cnv 15 450 20 empty empty empty 20 12 0 14 -261234 -66577
0;
#X text 468 52 Example:;
#X obj 624 345 bng 15 250 50 0 empty empty empty 0 -6 0 8 -262144 -1
-1;
#X msg 679 208 record;
#X msg 679 230 stop;
#X msg 679 187 play;
#X msg 679 274 print;
#X msg 678 164 tempo \$1;
#X floatatom 678 147 5 0 0 0 - - -, f 5;
#X msg 678 126 loop \$1;
#X obj 678 108 tgl 15 0 empty empty empty 0 -6 0 8 -262144 -1 -1 0
1;
#X floatatom 535 127 5 0 0 0 - - -, f 5;
#X msg 535 144 a \$1;
#X floatatom 573 128 5 0 0 0 - - -, f 5;
#X floatatom 556 389 5 0 0 0 - - -, f 5;
#X floatatom 514 388 5 0 0 0 - - -, f 5;
#X msg 573 145 b \$1;
#X text 740 164 1 is the original speed;
#X obj 483 108 hsl 128 15 0 127 0 0 empty empty empty -2 -6 0 8 -262144
-1 -1 0 1;
#X obj 603 399 hsl 128 15 0 127 0 0 empty empty empty -2 -6 0 8 -262144
-1 -1 0 1;
#X text 478 91 Messages to be recorded;
#X msg 480 127 foo \$1;
#X obj 514 359 route a b foo;
#X obj 573 250 c_qseq id;
#X obj 8 21 c_qseq;
#X msg 679 294 write sequence.txt;
#X msg 680 314 read sequence.txt;
#X msg 679 252 clear;
#X text 646 345 banged when done;
#X text 479 479 rc-patches (https://github.com/danomatika/rc-patches)
- 2012;
#X text 129 22 - sequencer interface to qlist;
#X connect 4 0 24 1;
#X connect 5 0 24 1;
#X connect 6 0 24 1;
#X connect 7 0 24 1;
#X connect 8 0 24 1;
#X connect 9 0 8 0;
#X connect 10 0 24 1;
#X connect 11 0 10 0;
#X connect 12 0 13 0;
#X connect 13 0 24 0;
#X connect 14 0 17 0;
#X connect 17 0 24 0;
#X connect 19 0 22 0;
#X connect 22 0 24 0;
#X connect 23 0 16 0;
#X connect 23 1 15 0;
#X connect 23 2 20 0;
#X connect 24 0 23 0;
#X connect 24 1 3 0;
#X connect 26 0 24 1;
#X connect 27 0 24 1;
#X connect 28 0 24 1;
