#N canvas 771 286 314 334 10;
#X msg 25 186 0;
#X msg 52 208 1;
#X obj 52 158 t b b;
#X obj 25 28 inlet;
#X obj 52 116 max 0;
#X obj 25 89 sel 0;
#X obj 196 116 t b a;
#X text 122 290 Dan Wilcox 2008 \, 2010 \, 2018;
#X obj 25 288 outlet;
#X obj 139 89 route bang;
#X text 96 27 a simple controller for readsf~;
#X obj 101 208 list prepend open;
#X obj 101 259 list trim;
#X obj 25 62 route float bang open play pos;
#X obj 101 233 list append 0;
#X obj 101 182 symbol;
#X obj 223 144 symbol;
#X connect 0 0 8 0;
#X connect 1 0 8 0;
#X connect 2 0 1 0;
#X connect 2 1 15 0;
#X connect 3 0 13 0;
#X connect 4 0 2 0;
#X connect 5 0 0 0;
#X connect 5 1 4 0;
#X connect 6 0 2 0;
#X connect 6 1 16 0;
#X connect 9 0 2 0;
#X connect 9 1 6 0;
#X connect 11 0 14 0;
#X connect 12 0 8 0;
#X connect 13 0 5 0;
#X connect 13 1 2 0;
#X connect 13 2 15 0;
#X connect 13 3 9 0;
#X connect 13 4 14 1;
#X connect 13 5 14 1;
#X connect 14 0 12 0;
#X connect 15 0 11 0;
#X connect 16 0 15 1;
