#N canvas 0 23 431 311 10;
#X obj 30 265 outlet~;
#X obj 30 65 inlet~;
#X obj 45 90 inlet;
#X text 29 38 audio signal in;
#X text 87 264 audio signal out;
#X obj 45 132 sel 0;
#X text 79 65 left inlet: onoff toggle \, any nonzero is treated as
1;
#X obj 45 211 vline~;
#X obj 30 238 *~;
#X msg 45 183 0 5;
#X msg 95 183 1 5;
#X text 23 20 spigot with declick for signals;
#N canvas 172 83 586 377 LICENSE-GPL 0;
#X text 57 88 This program is free software: you can redistribute it
and/or modify it under the terms of the GNU General Public License
as published by the Free Software Foundation \, either version 3 of
the License \, or (at your option) any later version.;
#X text 58 168 This program is distributed in the hope that it will
be useful \, but WITHOUT ANY WARRANTY \; without even the implied warranty
of MERCHANTABILITY or FITNESS FOR A PARTICULAR PURPOSE. See the GNU
General Public License for more details.;
#X text 57 261 You should have received a copy of the GNU General Public
License along with this program. If not \, see <http://www.gnu.org/licenses/>.
;
#X text 60 325 See the file LICENSE.txt for the full license text.
;
#X text 56 54 Copyright (C) 2012 \, Dan Wilcox <danomatika@gmail.com>
;
#X restore 304 44 pd LICENSE-GPL;
#X obj 90 90 loadbang;
#X obj 90 112 f \$1;
#X obj 209 265 outlet;
#X obj 209 230 pipe 5;
#X obj 95 154 t b b;
#X msg 278 205 1;
#X msg 209 207 0;
#X obj 45 154 t b b;
#X text 259 265 switch~ control;
#X connect 1 0 8 0;
#X connect 2 0 5 0;
#X connect 5 0 20 0;
#X connect 5 1 17 0;
#X connect 7 0 8 1;
#X connect 8 0 0 0;
#X connect 9 0 7 0;
#X connect 10 0 7 0;
#X connect 13 0 14 0;
#X connect 14 0 5 0;
#X connect 16 0 15 0;
#X connect 17 0 10 0;
#X connect 17 1 18 0;
#X connect 18 0 15 0;
#X connect 19 0 16 0;
#X connect 20 0 9 0;
#X connect 20 1 19 0;
