#N canvas 622 72 303 405 10;
#X obj 92 124 timer;
#X obj 92 64 u_count 2;
#X obj 92 89 sel 0 1;
#X msg 159 64 clear;
#X msg 159 97 set 0;
#N canvas 333 172 609 314 filter-range 0;
#X obj 143 178 outlet;
#X obj 210 178 outlet;
#X obj 210 150 b;
#X obj 143 81 moses 2000;
#X text 248 83 filter viable range \, reset else (Handel \, 1989);
#X obj 79 54 inlet;
#X obj 79 80 moses 50;
#X text 270 181 reset timer from here;
#X connect 2 0 1 0;
#X connect 3 0 0 0;
#X connect 3 1 2 0;
#X connect 5 0 6 0;
#X connect 6 0 2 0;
#X connect 6 1 3 0;
#X restore 92 150 pd filter-range;
#X obj 92 175 m_mavg 4;
#X obj 92 35 inlet tap bangs;
#X obj 92 251 int;
#X obj 92 200 m_ms2bpm;
#X obj 92 333 m_bpm2ms;
#X obj 106 226 inlet bpm;
#X obj 92 362 outlet ms;
#X obj 119 305 outlet bpm;
#X obj 92 278 t f f;
#X connect 0 0 5 0;
#X connect 1 0 2 0;
#X connect 2 0 0 0;
#X connect 2 1 0 1;
#X connect 3 0 4 0;
#X connect 4 0 1 0;
#X connect 5 0 6 0;
#X connect 5 1 3 0;
#X connect 5 1 0 0;
#X connect 6 0 9 0;
#X connect 7 0 1 0;
#X connect 8 0 14 0;
#X connect 9 0 8 0;
#X connect 10 0 12 0;
#X connect 11 0 8 0;
#X connect 14 0 10 0;
#X connect 14 1 13 0;
#X coords 0 405 1 404 85 36 0;
