#N canvas 0 23 463 438 10;
#X obj 143 60 key;
#X obj 143 108 sel 32;
#X obj 143 85 spigot 0;
#X obj 188 62 tgl 15 0 empty empty spacebar? 17 7 0 10 -262144 -1 -1
1 1;
#X obj 143 187 c_taptempo;
#X obj 86 62 tgl 15 0 empty empty on 17 7 0 10 -4034 -1 -1 0 1;
#X obj 86 264 bng 15 250 50 0 empty empty empty 17 7 0 10 -262144 -1
-1;
#X obj 86 236 metro 1000;
#X obj 86 318 s_drumelectro;
#X msg 86 291 bd;
#X obj 86 358 soundoutput;
#X text 116 293 4 on the floor;
#X text 115 138 left: tap bangs in;
#X text 233 14 counts time between incoming bangs;
#X msg 221 120 120;
#X msg 246 150 80;
#X text 253 119 right: override current bpm;
#X text 167 237 outlet: period in ms;
#X text 22 14 c_taptempo: tap tempo calculator;
#X obj 143 162 bng 15 250 50 0 empty empty empty 17 7 0 10 -262144
-1 -1;
#X floatatom 200 214 5 0 0 1 bpm - -, f 5;
#X connect 0 0 2 0;
#X connect 1 0 19 0;
#X connect 2 0 1 0;
#X connect 3 0 2 1;
#X connect 4 0 7 1;
#X connect 4 1 20 0;
#X connect 5 0 7 0;
#X connect 6 0 9 0;
#X connect 7 0 6 0;
#X connect 8 0 10 0;
#X connect 8 0 10 1;
#X connect 9 0 8 0;
#X connect 14 0 4 1;
#X connect 15 0 4 1;
#X connect 19 0 4 0;
