#N canvas 0 23 414 223 10;
#X obj 62 47 inlet~;
#X obj 305 45 inlet;
#X obj 305 96 list;
#X obj 305 70 route set;
#X obj 62 166 throw~ \$1/left;
#X obj 173 47 inlet~;
#X obj 173 166 throw~ \$1/right;
#X msg 75 138 set \$1/left;
#X msg 205 138 set \$1/right;
#X connect 0 0 4 0;
#X connect 1 0 3 0;
#X connect 2 0 7 0;
#X connect 2 0 8 0;
#X connect 3 0 2 0;
#X connect 3 1 2 0;
#X connect 5 0 6 0;
#X connect 7 0 4 0;
#X connect 8 0 6 0;
