#N canvas 771 211 413 392 10;
#X obj 58 201 until;
#X obj 94 229 + 1;
#X obj 94 346 outlet;
#X obj 148 346 outlet lastbang;
#X obj 30 15 inlet;
#X obj 251 17 inlet;
#X obj 30 40 route pause break continue resume;
#X msg 30 77 bang;
#X msg 174 113 0;
#X obj 256 346 outlet num;
#X msg 154 141 1;
#X obj 135 87 t b b b;
#X obj 58 111 spigot;
#X obj 264 86 f \$1;
#X obj 251 177 + 1;
#X obj 264 62 loadbang;
#X obj 94 311 t b f;
#X obj 94 256 moses;
#X obj 58 228 f 0;
#X obj 264 111 moses 1;
#X msg 264 135 1;
#X obj 121 283 t b b;
#X obj 152 176 t b b;
#X connect 0 0 18 0;
#X connect 1 0 18 1;
#X connect 1 0 17 0;
#X connect 4 0 6 0;
#X connect 5 0 14 0;
#X connect 6 0 7 0;
#X connect 6 1 7 0;
#X connect 6 2 12 0;
#X connect 6 3 12 0;
#X connect 6 4 11 0;
#X connect 7 0 0 1;
#X connect 8 0 12 1;
#X connect 8 0 18 1;
#X connect 10 0 12 1;
#X connect 11 0 0 0;
#X connect 11 1 10 0;
#X connect 11 2 8 0;
#X connect 12 0 0 0;
#X connect 13 0 19 0;
#X connect 14 0 17 1;
#X connect 15 0 13 0;
#X connect 16 0 2 0;
#X connect 16 1 9 0;
#X connect 17 0 16 0;
#X connect 17 1 21 0;
#X connect 18 0 1 0;
#X connect 19 0 20 0;
#X connect 19 1 14 0;
#X connect 20 0 14 0;
#X connect 21 0 22 0;
#X connect 21 1 3 0;
#X connect 22 0 0 1;
#X connect 22 1 8 0;
