#N canvas 0 23 268 267 10;
#X obj 55 164 *~;
#X obj 70 135 line~;
#X msg 70 109 \$1 10;
#X obj 55 58 inlet~;
#X obj 110 58 inlet;
#N canvas 0 23 211 209 arg1 0;
#X obj 68 56 loadbang;
#X obj 68 113 sel 0;
#X obj 95 141 outlet;
#X obj 68 86 f \$1;
#X connect 0 0 3 0;
#X connect 1 1 2 0;
#X connect 3 0 1 0;
#X restore 155 59 pd arg1;
#X obj 55 202 outlet~;
#X text 26 24 simple gain math wrapper with line~;
#X text 25 235 2018 Dan Wilcox danomatika.com;
#X connect 0 0 6 0;
#X connect 1 0 0 1;
#X connect 2 0 1 0;
#X connect 3 0 0 0;
#X connect 4 0 2 0;
#X connect 5 0 2 0;
