#N canvas 0 23 300 281 10;
#X obj 95 164 *~;
#X obj 110 135 line~;
#X obj 95 58 inlet~;
#X obj 150 58 inlet;
#N canvas 0 23 211 209 arg1 0;
#X obj 68 56 loadbang;
#X obj 68 113 sel 0;
#X obj 95 141 outlet;
#X obj 68 86 f \$1;
#X connect 0 0 3 0;
#X connect 1 1 2 0;
#X connect 3 0 1 0;
#X restore 195 58 pd arg1;
#X obj 95 202 outlet~;
#X text 25 235 2018 Dan Wilcox danomatika.com;
#X text 26 24 simple stereo gain math wrapper with line~;
#X obj 35 164 *~;
#X obj 35 58 inlet~;
#X obj 35 202 outlet~;
#X msg 110 109 \$1 10;
#X connect 0 0 5 0;
#X connect 1 0 0 1;
#X connect 1 0 8 1;
#X connect 2 0 0 0;
#X connect 3 0 11 0;
#X connect 4 0 11 0;
#X connect 8 0 10 0;
#X connect 9 0 8 0;
#X connect 11 0 1 0;
