#N canvas 301 23 296 333 10;
#X obj 66 177 e_gain 0.25;
#X obj 129 121 / 127;
#X floatatom 129 148 5 0 0 0 - - -;
#X obj 132 92 hsl 128 15 0 127 0 0 empty empty empty -2 -8 0 10 -262144
-1 -1 0 1;
#X obj 66 56 s_pinknoise;
#X obj 66 224 soundoutput;
#X text 43 285 2018 Dan Wilcox danomatika.com;
#X text 147 177 creation arg: gain;
#X text 49 18 e_gain: mono rms gain effect 0-1;
#X connect 0 0 5 0;
#X connect 0 0 5 1;
#X connect 1 0 2 0;
#X connect 2 0 0 1;
#X connect 3 0 1 0;
#X connect 4 0 0 0;
