#N canvas 795 80 396 391 10;
#X obj 23 359 outlet~;
#X obj 121 68 inlet~ env;
#X obj 23 68 inlet~ audio;
#X obj 206 68 inlet freq;
#X obj 311 70 inlet q;
#X obj 206 143 clip 20 20000;
#X obj 311 136 clip 0 1;
#N canvas 0 22 450 300 arg1 0;
#X obj 107 86 f \$1;
#X obj 107 58 loadbang;
#X obj 107 113 sel 0;
#X obj 143 176 outlet;
#X msg 107 137 1044;
#X connect 0 0 2 0;
#X connect 1 0 0 0;
#X connect 2 0 4 0;
#X connect 2 1 3 0;
#X connect 4 0 3 0;
#X restore 241 110 pd arg1;
#N canvas 74 188 450 300 arg2 0;
#X obj 107 58 loadbang;
#X obj 107 113 sel 0;
#X obj 143 176 outlet;
#X obj 107 86 f \$2;
#X msg 107 137 0.5;
#X connect 0 0 3 0;
#X connect 1 0 4 0;
#X connect 1 1 2 0;
#X connect 3 0 1 0;
#X connect 4 0 2 0;
#X restore 326 108 pd arg2;
#X text 15 39 creation args: freq \, q;
#X obj 121 107 clip~ 0 1;
#X text 181 253 q 0 - 4;
#X obj 23 324 hip~ 5;
#N canvas 172 83 586 377 LICENSE-GPL 0;
#X text 57 88 This program is free software: you can redistribute it
and/or modify it under the terms of the GNU General Public License
as published by the Free Software Foundation \, either version 3 of
the License \, or (at your option) any later version.;
#X text 58 168 This program is distributed in the hope that it will
be useful \, but WITHOUT ANY WARRANTY \; without even the implied warranty
of MERCHANTABILITY or FITNESS FOR A PARTICULAR PURPOSE. See the GNU
General Public License for more details.;
#X text 57 261 You should have received a copy of the GNU General Public
License along with this program. If not \, see <http://www.gnu.org/licenses/>.
;
#X text 60 325 See the file LICENSE.txt for the full license text.
;
#X text 56 54 Copyright (C) 2012 \, Dan Wilcox <danomatika@gmail.com>
;
#X restore 275 360 pd LICENSE-GPL;
#X obj 23 291 bob~;
#X obj 135 230 * 4;
#X text 16 10 a low-pass resonant filter bob~ wrapper w/ envelope;
#X obj 121 195 *~ 1044;
#X obj 135 253 sig~ 2;
#X connect 1 0 10 0;
#X connect 2 0 14 0;
#X connect 3 0 5 0;
#X connect 4 0 6 0;
#X connect 5 0 17 1;
#X connect 6 0 15 0;
#X connect 7 0 5 0;
#X connect 8 0 6 0;
#X connect 10 0 17 0;
#X connect 12 0 0 0;
#X connect 14 0 12 0;
#X connect 15 0 18 0;
#X connect 17 0 14 1;
#X connect 18 0 14 2;
