#N canvas 840 23 410 404 10;
#X obj 36 234 inlet~;
#X obj 72 367 outlet~;
#X obj 137 367 outlet~;
#X obj 210 367 outlet~;
#X obj 282 366 outlet~;
#X obj 72 327 *~;
#X obj 87 210 pack 0 10;
#X obj 87 234 line~;
#X obj 137 327 *~;
#X obj 152 210 pack 0 10;
#X obj 152 234 line~;
#X obj 210 324 *~;
#X obj 225 210 pack 0 10;
#X obj 225 234 line~;
#X obj 282 325 *~;
#X obj 297 210 pack 0 10;
#X obj 297 234 line~;
#X obj 150 112 * 1.5708;
#X obj 150 142 cos, f 4;
#X obj 199 142 sin;
#X obj 263 112 * 1.5708;
#X obj 263 142 cos, f 4;
#X obj 312 142 sin;
#X obj 150 178 * 1;
#X obj 199 178 * 1;
#X obj 248 178 * 0;
#X obj 297 178 * 0;
#X obj 150 20 inlet;
#X obj 263 20 inlet;
#N canvas 0 23 211 206 arg1 0;
#X obj 44 105 f \$1;
#N canvas 0 23 715 450 check-arg 0;
#X obj 179 184 makefilename $%d-EMPTY;
#X obj 52 185 symbol \$1-EMPTY;
#X msg 69 156 bang;
#X obj 52 217 select DUMMY;
#X obj 52 39 loadbang;
#X obj 52 62 t b b;
#X obj 179 157 1;
#X obj 52 294 outlet;
#X text 182 85 Using an idiom by IOhannes;
#X msg 133 250 1;
#X msg 52 246 0;
#X text 182 247 Output 0 if no \$1 argument present \, and 1 if \$1
is present even if it's 0!;
#X connect 0 0 3 1;
#X connect 1 0 3 0;
#X connect 2 0 1 0;
#X connect 3 0 10 0;
#X connect 3 1 9 0;
#X connect 4 0 5 0;
#X connect 5 0 1 0;
#X connect 5 1 6 0;
#X connect 6 0 0 0;
#X connect 9 0 7 0;
#X connect 10 0 7 0;
#X restore 44 37 pd check-arg;
#X obj 44 71 sel 1;
#X obj 44 139 outlet;
#X msg 81 106 0.5;
#X connect 0 0 3 0;
#X connect 1 0 2 0;
#X connect 2 0 0 0;
#X connect 2 1 4 0;
#X connect 4 0 3 0;
#X restore 195 20 pd arg1;
#N canvas 0 23 211 206 arg2 0;
#X obj 44 105 f \$1;
#X obj 44 139 outlet;
#X obj 44 37 loadbang;
#X connect 0 0 1 0;
#X connect 2 0 0 0;
#X restore 322 20 pd arg2;
#X text 331 112 * ~PI/2;
#X text 26 20 constant power quad panner, f 15;
#X obj 263 54 t b f;
#X obj 150 89 f;
#X obj 263 88 f;
#X obj 150 53 t b f;
#X text 26 78 Dan Wilcox 2018;
#X connect 0 0 5 0;
#X connect 0 0 8 0;
#X connect 0 0 11 0;
#X connect 0 0 14 0;
#X connect 5 0 1 0;
#X connect 6 0 7 0;
#X connect 7 0 5 1;
#X connect 8 0 2 0;
#X connect 9 0 10 0;
#X connect 10 0 8 1;
#X connect 11 0 3 0;
#X connect 12 0 13 0;
#X connect 13 0 11 1;
#X connect 14 0 4 0;
#X connect 15 0 16 0;
#X connect 16 0 14 1;
#X connect 17 0 18 0;
#X connect 17 0 19 0;
#X connect 18 0 23 0;
#X connect 18 0 25 0;
#X connect 19 0 24 0;
#X connect 19 0 26 0;
#X connect 20 0 21 0;
#X connect 20 0 22 0;
#X connect 21 0 23 1;
#X connect 21 0 24 1;
#X connect 22 0 25 1;
#X connect 22 0 26 1;
#X connect 23 0 6 0;
#X connect 24 0 9 0;
#X connect 25 0 12 0;
#X connect 26 0 15 0;
#X connect 27 0 36 0;
#X connect 28 0 33 0;
#X connect 29 0 36 0;
#X connect 30 0 33 0;
#X connect 33 0 34 0;
#X connect 33 1 35 0;
#X connect 34 0 17 0;
#X connect 35 0 20 0;
#X connect 36 0 35 0;
#X connect 36 1 34 0;
