#N canvas 296 122 419 457 10;
#X obj 26 83 tgl 15 0 empty empty empty 0 -6 0 10 -262144 -1 -1 0 1
;
#X floatatom 26 182 5 0 0 0 - - -, f 5;
#X obj 26 108 metro 500;
#X msg 167 81 127;
#X msg 201 81 64;
#X text 261 81 midi velocites;
#X msg 233 81 0;
#X obj 26 271 osc~;
#X obj 26 237 mtof;
#X msg 269 144 amp 0.5;
#X msg 329 144 A 10;
#X msg 337 169 D 200;
#X msg 348 192 S 57;
#X msg 357 215 R 200;
#X text 264 116 control messages in;
#X obj 146 238 g_adsr;
#X obj 26 400 soundoutput;
#X obj 26 368 *~;
#X obj 26 158 + 30;
#X obj 26 134 random 60;
#X floatatom 119 183 5 0 0 0 - - -, f 5;
#X text 71 44 creation args: state save unique name (optional);
#X obj 26 205 makenote 127 100;
#X floatatom 77 84 5 0 0 0 - - -, f 5;
#X text 9 10 envelope generator \, wrapper for c_adsr;
#X connect 0 0 2 0;
#X connect 1 0 22 0;
#X connect 2 0 19 0;
#X connect 3 0 15 0;
#X connect 4 0 15 0;
#X connect 6 0 15 0;
#X connect 7 0 17 0;
#X connect 8 0 7 0;
#X connect 9 0 15 1;
#X connect 10 0 15 1;
#X connect 11 0 15 1;
#X connect 12 0 15 1;
#X connect 13 0 15 1;
#X connect 15 0 17 1;
#X connect 17 0 16 0;
#X connect 18 0 1 0;
#X connect 19 0 18 0;
#X connect 20 0 22 2;
#X connect 22 0 8 0;
#X connect 22 1 15 0;
#X connect 23 0 2 1;
