#N canvas 159 222 473 257 10;
#X obj 132 59 inlet~;
#N canvas 678 322 322 256 gain 0;
#X obj 26 220 outlet~;
#X obj 26 147 inlet~;
#X obj 26 188 *~ 0;
#X obj 107 25 r \$0-mute;
#X msg 140 91 0;
#X obj 107 48 sel 0 1;
#X obj 107 157 spigot;
#X obj 77 70 t b b;
#X msg 104 91 1;
#X obj 77 126 f 0;
#X obj 180 94 dbtorms;
#X obj 180 25 r \$0-gain;
#X obj 180 65 m_fadtodb;
#X connect 1 0 2 0;
#X connect 2 0 0 0;
#X connect 3 0 5 0;
#X connect 4 0 2 1;
#X connect 4 0 6 1;
#X connect 5 0 7 0;
#X connect 5 1 4 0;
#X connect 6 0 2 1;
#X connect 7 0 9 0;
#X connect 7 1 8 0;
#X connect 8 0 6 1;
#X connect 9 0 6 0;
#X connect 10 0 9 0;
#X connect 11 0 12 0;
#X connect 12 0 10 0;
#X restore 132 96 pd gain;
#X obj 11 13 cnv 15 68 144 empty empty empty 20 12 0 12 -228856 -66577
0;
#X obj 14 33 vsl 30 119 0 120 0 0 \$0-gain \$0-gain empty 0 -9 0 10
-128992 -4034 -4034 5900 1;
#X obj 17 16 hsl 43 15 0 1 0 0 \$0-hsl-out \$0-hsl-in empty 0 8 0 10
-261234 -1 -1 2100 1;
#X obj 45 33 vu 30 120 \$0-vu empty -1 -8 0 10 -66577 -1 0 0;
#X obj 61 16 tgl 15 0 \$0-mute \$0-mute m 5 7 0 10 -258113 -262144
-1 0 1;
#X obj 132 204 outlet~;
#X obj 183 204 outlet~;
#X obj 261 59 inlet;
#N canvas 564 303 313 200 vu_meter 0;
#X obj 27 27 inlet~;
#X obj 27 59 env~ 8192;
#X obj 27 160 s \$0-vu;
#X obj 229 92 switch~;
#X obj 121 27 r \$0-vu-control;
#X obj 229 27 loadbang;
#X obj 27 128 - 100;
#X msg 229 59 1;
#X obj 27 96 line;
#X msg 121 59 0 500;
#X connect 0 0 1 0;
#X connect 1 0 8 0;
#X connect 4 0 3 0;
#X connect 4 0 9 0;
#X connect 5 0 7 0;
#X connect 6 0 2 0;
#X connect 7 0 3 0;
#X connect 8 0 6 0;
#X connect 9 0 8 0;
#X restore 159 127 pd vu_meter;
#X text 107 8 a mono mixer channel with level \, vu \, pan \, and mute
;
#X obj 183 153 r \$0-pan;
#X text 13 232 Dan Wilcox 2008 \, 2016;
#X obj 132 177 e_pan 0.5;
#X text 226 34 Creation args: name (optional);
#X obj 261 229 u_dispatch \$0 gain;
#X obj 326 204 u_loader g_chan-\$1 \$0;
#X obj 261 89 u_dispatch \$0 pan;
#X obj 261 111 u_dispatch \$0 mute;
#X obj 298 156 s \$0-vu-control;
#X obj 207 89 r RC_VU;
#X obj 261 133 route gain on;
#X obj 261 179 m_dbtofad;
#X msg 261 203 gain \$1;
#N canvas 405 41 552 221 defaults 0;
#X obj 64 37 loadbang;
#X obj 64 105 outlet;
#X msg 64 76 gain 100 \, pan 0.5 \, mute 0;
#X msg 321 158 label \$1;
#X obj 246 133 select symbol;
#X obj 321 103 symbol;
#X obj 246 76 t b b;
#X obj 246 103 symbol \$1;
#X text 292 69 set canvas label if arg1;
#X obj 321 186 s \$0-hsl-in;
#X obj 396 135 r \$0-pan;
#X obj 459 135 r \$0-hsl-out;
#X obj 459 161 s \$0-pan;
#X msg 396 158 set \$1;
#X connect 0 0 2 0;
#X connect 0 0 6 0;
#X connect 2 0 1 0;
#X connect 3 0 9 0;
#X connect 4 1 3 0;
#X connect 5 0 4 1;
#X connect 6 0 7 0;
#X connect 6 1 5 0;
#X connect 7 0 4 0;
#X connect 10 0 13 0;
#X connect 11 0 12 0;
#X connect 13 0 9 0;
#X restore 312 60 pd defaults;
#X connect 0 0 1 0;
#X connect 1 0 10 0;
#X connect 1 0 14 0;
#X connect 9 0 18 0;
#X connect 12 0 14 1;
#X connect 14 0 7 0;
#X connect 14 1 8 0;
#X connect 18 0 19 0;
#X connect 19 0 22 0;
#X connect 21 0 22 0;
#X connect 22 0 23 0;
#X connect 22 1 20 0;
#X connect 23 0 24 0;
#X connect 24 0 16 0;
#X connect 25 0 18 0;
#X coords 0 -1 1 1 70 150 2 10 10;
