#N canvas 660 133 414 530 10;
#X obj 132 206 g_tgl on;
#X obj 132 175 g_tgl mute;
#X obj 132 144 g_hsl pan 0 1;
#X obj 132 113 g_hsl gain 0 120;
#X obj 69 64 noise~;
#X obj 69 414 soundoutput;
#X text 21 21 g_chan: a mono to stereo channel strip;
#X text 121 66 left inlet: mono signal in;
#X text 164 376 outlets: stereo signal out;
#X text 215 182 right inlet: controls;
#X text 31 477 optionally create with a name argument for state saving
;
#X obj 224 331 s RC_VU;
#X msg 224 306 on \$1;
#X obj 224 281 tgl 15 0 empty empty empty 17 7 0 10 -262144 -1 -1 0
1;
#X text 192 257 global VU control;
#X text 216 211 turn off VU to save cpu time;
#X obj 69 237 g_chan;
#X connect 0 0 16 1;
#X connect 1 0 0 0;
#X connect 2 0 1 0;
#X connect 3 0 2 0;
#X connect 4 0 16 0;
#X connect 12 0 11 0;
#X connect 13 0 12 0;
#X connect 16 0 5 0;
#X connect 16 1 5 1;
