#N canvas 549 389 538 236 10;
#X obj 129 44 inlet~;
#N canvas 164 148 317 277 gain 0;
#X obj 26 226 outlet~;
#X obj 26 155 inlet~;
#X obj 26 192 *~ 0;
#X obj 189 157 inlet~;
#X obj 189 192 *~ 0;
#X obj 189 224 outlet~;
#X obj 176 112 dbtorms;
#X obj 82 29 r \$0-mute;
#X msg 140 99 0;
#X obj 82 52 sel 0 1;
#X obj 107 167 spigot;
#X obj 82 78 t b b;
#X msg 109 99 1;
#X obj 107 143 f 0;
#X obj 176 47 r \$0-gain;
#X obj 176 90 m_fadtodb;
#X connect 1 0 2 0;
#X connect 2 0 0 0;
#X connect 3 0 4 0;
#X connect 4 0 5 0;
#X connect 6 0 13 0;
#X connect 7 0 9 0;
#X connect 8 0 2 1;
#X connect 8 0 4 1;
#X connect 8 0 10 1;
#X connect 9 0 11 0;
#X connect 9 1 8 0;
#X connect 10 0 2 1;
#X connect 10 0 4 1;
#X connect 11 0 13 0;
#X connect 11 1 12 0;
#X connect 12 0 10 1;
#X connect 13 0 10 0;
#X connect 14 0 15 0;
#X connect 15 0 6 0;
#X restore 129 99 pd gain;
#N canvas 119 192 380 213 vu_meters 0;
#X obj 49 31 inlet~;
#X obj 257 39 inlet~;
#X obj 49 63 env~ 8192;
#X obj 257 66 env~ 8192;
#X obj 49 160 s \$0-vu_l;
#X obj 257 160 s \$0-vu_r;
#X obj 141 161 switch~;
#X obj 141 19 r \$0-vu-control;
#X obj 170 114 loadbang;
#X obj 49 124 - 100;
#X obj 257 124 - 100;
#X msg 170 139 1;
#X obj 257 96 line;
#X obj 49 95 line;
#X msg 169 61 0 500;
#X connect 0 0 2 0;
#X connect 1 0 3 0;
#X connect 2 0 13 0;
#X connect 3 0 12 0;
#X connect 7 0 6 0;
#X connect 7 0 14 0;
#X connect 8 0 11 0;
#X connect 9 0 4 0;
#X connect 10 0 5 0;
#X connect 11 0 6 0;
#X connect 12 0 10 0;
#X connect 13 0 9 0;
#X connect 14 0 12 0;
#X connect 14 0 13 0;
#X restore 211 138 pd vu_meters;
#X obj 11 13 cnv 15 68 144 empty \$0-cnv empty 4 10 0 10 -233017 -66577
0;
#X obj 14 33 vsl 30 119 0 120 0 0 \$0-gain \$0-gain empty 0 -9 0 10
-128992 -4034 -4034 8260 1;
#X obj 45 33 vu 14 120 \$0-vu_l empty -1 -8 0 10 -66577 -1 0 0;
#X obj 61 33 vu 14 120 \$0-vu_r empty -1 -8 0 10 -66577 -1 0 0;
#X obj 61 16 tgl 15 1 \$0-mute \$0-mute m 5 7 0 10 -258113 -262144
-1 0 1;
#X obj 129 183 outlet~;
#X obj 168 161 outlet~;
#X obj 168 68 inlet~;
#X text 11 211 Dan Wilcox 2008 \, 2016;
#X text 111 7 a stereo mixer channel with gain \, vu \, and mute;
#X text 305 26 Creation args: name (optional);
#X obj 314 49 inlet;
#X obj 314 196 u_dispatch \$0 gain;
#X obj 314 78 u_dispatch \$0 mute;
#X obj 351 125 s \$0-vu-control;
#X obj 256 78 r RC_VU;
#X obj 314 102 route gain on;
#X msg 314 170 gain \$1;
#X obj 379 171 u_loader g_chan2-\$1 \$0;
#N canvas 0 23 382 224 defaults 0;
#X obj 43 92 outlet;
#X obj 43 24 loadbang;
#X obj 252 169 s \$0-cnv;
#X msg 252 141 label \$1;
#X obj 177 116 select symbol;
#X obj 252 86 symbol;
#X obj 177 59 t b b;
#X obj 177 86 symbol \$1;
#X text 223 52 set canvas label if arg1;
#X msg 43 58 gain 100 \, mute 0;
#X connect 1 0 9 0;
#X connect 1 0 6 0;
#X connect 3 0 2 0;
#X connect 4 1 3 0;
#X connect 5 0 4 1;
#X connect 6 0 7 0;
#X connect 6 1 5 0;
#X connect 7 0 4 0;
#X connect 9 0 0 0;
#X restore 359 49 pd defaults;
#X obj 314 146 m_dbtofad;
#X connect 0 0 1 0;
#X connect 1 0 2 0;
#X connect 1 0 8 0;
#X connect 1 1 2 1;
#X connect 1 1 9 0;
#X connect 10 0 1 1;
#X connect 14 0 16 0;
#X connect 16 0 19 0;
#X connect 18 0 19 0;
#X connect 19 0 23 0;
#X connect 19 1 17 0;
#X connect 20 0 15 0;
#X connect 22 0 16 0;
#X connect 23 0 20 0;
#X coords 0 -1 1 1 70 150 2 10 10;
