#N canvas 365 23 852 676 10;
#X obj 35 62 tgl 15 0 empty empty empty 0 -6 0 8 -262144 -1 -1 0 1
;
#X obj 35 149 f;
#X obj 63 149 + 1;
#X msg 62 107 0;
#X floatatom 35 189 5 0 0 0 - - -, f 5;
#X obj 35 84 t f b;
#X text 38 170 current tick;
#X obj 130 79 tgl 15 0 empty empty empty 0 -6 0 10 -262144 -1 -1 0
1;
#X obj 130 154 bng 15 250 50 0 empty empty empty 0 -6 0 10 -262144
-1 -1;
#X obj 194 128 sel 0;
#X text 29 44 run using ticks;
#X text 123 59 run using bangs;
#X obj 35 128 metro 200;
#X obj 130 128 metro 200;
#X obj 130 102 t f f;
#X msg 194 164 reset;
#X msg 482 297 dump;
#X text 378 233 first seq;
#X text 394 265 sec seq;
#X text 440 33 sssad state saving;
#X text 234 164 reset msg resets beat pos;
#X text 365 200 load seqs via lists \, first element is the sequence
index;
#X msg 482 324 clear;
#X text 523 323 the seqs;
#X text 513 295 seqs to right outlet;
#X text 245 41 Creation args: name;
#X obj 35 608 bng 15 250 50 0 empty empty empty 0 -6 0 10 -262144 -1
-1;
#X obj 60 636 bng 15 250 50 0 empty empty empty 0 -6 0 10 -262144 -1
-1;
#X obj 444 601 print seq_dump;
#X text 304 578 right outlet: seqs come flying out as indexed lists
;
#X obj 35 578 route 1 2;
#X text 76 598 left outlet: drum beats out as indexed velocities;
#X floatatom 85 637 5 0 0 0 - - -, f 5;
#X text 122 638 vel vals;
#N canvas 0 23 446 337 datastore 0;
#X obj 35 18 inlet;
#X msg 35 82;
#X connect 0 0 1 0;
#X restore 444 121 pd datastore;
#X text 461 373 toggle boxes toggle between 0 and vel level (default
127) \, sliders set vel which is returned to 127 on a clear message
\, incoming vel values of 1 are interpreted a on with vel 127;
#X obj 444 62 g_savestate;
#X msg 443 235 1 1 0 0 0 1 0 0 0 0 0 1 0 1 0 0 0;
#X msg 463 267 2 0 0 60 0 0 0 65 0 0 70 0 0 127 120 127 100;
#X obj 35 340 g_drumseq16_8 drumseq;
#X text 12 13 g_drumseq16_8: an 8 track 16 step drum sequencer with
save state;
#X connect 0 0 5 0;
#X connect 1 0 2 0;
#X connect 1 0 4 0;
#X connect 2 0 1 1;
#X connect 3 0 1 1;
#X connect 4 0 39 0;
#X connect 5 0 12 0;
#X connect 5 1 3 0;
#X connect 7 0 14 0;
#X connect 8 0 39 0;
#X connect 9 0 15 0;
#X connect 12 0 1 0;
#X connect 13 0 8 0;
#X connect 14 0 13 0;
#X connect 14 1 9 0;
#X connect 15 0 39 0;
#X connect 16 0 39 1;
#X connect 22 0 39 1;
#X connect 30 0 26 0;
#X connect 30 1 27 0;
#X connect 30 1 32 0;
#X connect 36 0 34 0;
#X connect 37 0 39 1;
#X connect 38 0 39 1;
#X connect 39 0 30 0;
#X connect 39 1 28 0;
