#N canvas 248 62 405 257 10;
#X obj 17 17 cnv 15 146 52 empty empty empty 20 12 0 14 -228856 -66577
0;
#X obj 21 20 tgl 12 1 \$0-onoff \$0-onoff empty -6 -6 0 10 -228856
-1 -1 1 1;
#X obj 86 20 hsl 70 15 1 1000 1 0 \$0-delay \$0-delay delay 0 8 0 10
-191407 -1 -1 5934 1;
#X obj 86 35 hsl 70 15 0 1 0 0 \$0-feedback \$0-feedback feedback 0
8 0 10 -191407 -1 -1 3450 1;
#X obj 38 36 nbx 4 14 0 1 0 1 \$0-feedback \$0-feedback empty -32 6
0 10 -261234 -1 -1 0.5 256;
#X obj 38 20 nbx 4 14 1 20000 1 1 \$0-delay \$0-delay empty -18 6 0
10 -261234 -1 -1 380 256;
#X obj 86 50 hsl 70 15 0 1 0 0 \$0-dry \$0-dry dry 0 8 0 10 -191407
-1 -1 0 1;
#X obj 38 51 nbx 4 14 0 1 0 1 \$0-dry \$0-dry empty -20 6 0 10 -261234
-1 -1 0 256;
#X obj 20 134 inlet~;
#X obj 20 216 outlet~;
#X obj 124 134 inlet~ delay;
#X obj 225 60 u_dispatch \$0 feedback;
#X obj 225 34 inlet;
#X obj 225 85 u_dispatch \$0 delay;
#X obj 225 109 u_dispatch \$0 dry;
#X text 204 7 gui wrapper for e_fbdelay;
#X obj 225 185 u_loader g_fbdelay-\$1 \$0;
#N canvas 459 121 232 193 bypass 0;
#X obj 26 25 inlet~;
#X obj 26 138 outlet~;
#X obj 117 26 r \$0-onoff;
#X obj 117 52 t f f;
#X obj 117 78 sel 0;
#X msg 117 103 1;
#X msg 149 103 0;
#X obj 117 135 switch~;
#X connect 0 0 1 0;
#X connect 2 0 3 0;
#X connect 3 0 4 0;
#X connect 4 0 5 0;
#X connect 4 1 6 0;
#X connect 5 0 7 0;
#X connect 6 0 7 0;
#X restore 20 182 pd bypass;
#N canvas 361 142 296 218 e_fbdelay 0;
#X obj 30 32 inlet~;
#X obj 79 64 inlet~;
#X obj 129 97 inlet;
#X obj 30 171 outlet~;
#X obj 185 97 switch~;
#X obj 185 33 r \$0-onoff;
#X msg 204 62 1;
#X msg 236 62 0;
#X obj 30 128 e_fbdelay 0 20000;
#X connect 0 0 8 0;
#X connect 1 0 8 1;
#X connect 2 0 8 2;
#X connect 5 0 4 0;
#X connect 6 0 4 0;
#X connect 7 0 4 0;
#X connect 8 0 3 0;
#X restore 90 183 pd e_fbdelay;
#N canvas 344 50 318 178 defaults 0;
#X obj 45 40 loadbang;
#X obj 45 110 outlet;
#X msg 45 74 delay 380 \, feedback 0.5 \, dry 0 \, onoff 1;
#X connect 0 0 2 0;
#X connect 2 0 1 0;
#X restore 288 34 pd defaults;
#X text 223 217 2009 \, 2017 Dan Wilcox;
#X text 19 102 creation args: name (optional);
#N canvas 525 237 394 187 gui 0;
#X obj 21 18 inlet;
#X obj 198 151 outlet;
#X obj 22 83 r \$0-delay;
#X obj 107 82 r \$0-feedback;
#X obj 224 83 r \$0-dry;
#X msg 22 108 delay \$1;
#X msg 107 108 feedback \$1;
#X msg 224 109 dry \$1;
#X obj 294 84 r \$0-onoff;
#X msg 294 110 onoff \$1;
#X obj 21 51 route delay feedback dry onoff;
#X connect 0 0 10 0;
#X connect 2 0 5 0;
#X connect 3 0 6 0;
#X connect 4 0 7 0;
#X connect 5 0 1 0;
#X connect 6 0 1 0;
#X connect 7 0 1 0;
#X connect 8 0 9 0;
#X connect 9 0 1 0;
#X connect 10 4 1 0;
#X restore 159 160 pd gui;
#X obj 225 133 u_dispatch \$0 onoff;
#X connect 8 0 18 0;
#X connect 8 0 17 0;
#X connect 10 0 18 1;
#X connect 11 0 13 0;
#X connect 12 0 11 0;
#X connect 13 0 14 0;
#X connect 14 0 23 0;
#X connect 17 0 9 0;
#X connect 18 0 9 0;
#X connect 19 0 11 0;
#X connect 22 0 18 2;
#X connect 23 0 22 0;
#X coords 0 -1 1 1 148 70 1 16 2;
