#N canvas 174 148 535 370 10;
#X text 190 252 be careful with the feedback \, you can take it to
1;
#X text 190 271 but it will go crazy ...;
#X floatatom 77 46 5 0 0 0 - - -, f 5;
#X obj 26 45 tgl 15 0 empty empty empty 17 7 0 10 -262144 -1 -1 0 1
;
#N canvas 0 23 303 254 tones 0;
#X obj 36 189 *~;
#X obj 36 31 inlet;
#X obj 36 221 outlet~;
#X obj 123 149 c_adsr 0.6 16 350 20 60;
#X obj 36 120 mtof;
#X obj 36 151 s_osc;
#X msg 147 120 saw 1 \, sine 1;
#X obj 36 92 makenote 76 100;
#X msg 36 63 60;
#X obj 147 93 loadbang;
#X connect 0 0 2 0;
#X connect 1 0 8 0;
#X connect 3 0 0 1;
#X connect 4 0 5 0;
#X connect 5 0 0 0;
#X connect 6 0 5 1;
#X connect 7 0 4 0;
#X connect 7 1 3 0;
#X connect 8 0 7 0;
#X connect 9 0 6 0;
#X restore 26 100 pd tones;
#X obj 26 72 metro 500;
#X text 234 338 danomatika.com | robotcowboy.com;
#X obj 171 166 g_hsl dry 0 1;
#X obj 171 135 g_hsl feedback 0 1;
#X obj 171 104 g_hsl delay 0 1000;
#X obj 171 72 g_tgl onoff;
#X text 23 15 g_fbdelay: gui wrapper for e_fbdelay;
#X obj 26 312 soundoutput;
#X text 234 320 Dan Wilcox 2008-2009 \, 2017;
#X text 189 226 there will be some zippering when changing delay time
;
#X text 247 77 these are saved;
#X text 177 42 creation args: state save unique name (optional);
#X text 189 201 other control messages pass through to e_fbdelay;
#X obj 26 203 g_fbdelay;
#X msg 322 177 delay 5000;
#X text 391 177 max 20k;
#X connect 2 0 5 1;
#X connect 3 0 5 0;
#X connect 4 0 18 0;
#X connect 5 0 4 0;
#X connect 7 0 18 2;
#X connect 8 0 7 0;
#X connect 9 0 8 0;
#X connect 10 0 9 0;
#X connect 18 0 12 0;
#X connect 18 0 12 1;
#X connect 19 0 18 2;
