#N canvas 760 107 424 316 10;
#X obj 14 275 outlet;
#X obj 71 275 outlet;
#X obj 14 106 inlet;
#X obj 3 16 cnv 15 143 69 empty empty empty 20 12 0 14 -228856 -66577
0;
#X symbolatom 8 69 22 0 0 0 - #0-filename-in -, f 22;
#X obj 53 26 nbx 3 14 1 500 0 0 \$0-bpm \$0-bpm-in bpm -20 6 0 10 -261234
-1 -1 120 256;
#X obj 8 23 tgl 20 0 \$0-startstop \$0-startstop-in empty 17 7 0 10
-204786 -1 -1 0 1;
#X obj 9 49 bng 15 250 50 0 \$0-rewind \$0-rewind-in rewind 17 7 0
10 -191407 -1 -1;
#X obj 121 49 tgl 15 0 \$0-eof \$0-eof eof_stop -50 7 0 10 -191407
-1 -1 0 1;
#X obj 210 108 inlet control messages;
#N canvas 274 58 769 221 togui 0;
#X obj 62 120 s \$0-filename;
#X obj 22 151 clip 0 1;
#X obj 22 120 int;
#X obj 22 16 inlet;
#X obj 355 17 r \$0-filename;
#X obj 384 51 p_basename;
#X obj 384 81 s \$0-filename-in;
#X obj 187 179 outlet;
#X obj 355 118 u_list2symbol;
#X msg 355 145 open \$1;
#X obj 592 87 loadbang;
#X msg 480 142 symbol empty;
#X obj 480 175 s \$0-filename-in;
#X msg 592 140 set 120;
#X msg 673 141 set 0;
#X obj 258 64 r \$0-startstop;
#X msg 265 122 rewind;
#X obj 265 96 r \$0-rewind;
#X obj 22 63 route float load open rewind;
#X obj 22 177 s \$0-startstop-in;
#X obj 145 94 s \$0-rewind-in;
#X obj 673 176 s \$0-eof;
#X obj 592 176 s \$0-bpm-in;
#X connect 1 0 19 0;
#X connect 2 0 1 0;
#X connect 3 0 18 0;
#X connect 4 0 8 0;
#X connect 4 0 5 0;
#X connect 5 0 6 0;
#X connect 8 0 9 0;
#X connect 9 0 7 0;
#X connect 10 0 13 0;
#X connect 10 0 14 0;
#X connect 10 0 11 0;
#X connect 11 0 12 0;
#X connect 13 0 22 0;
#X connect 14 0 21 0;
#X connect 15 0 7 0;
#X connect 16 0 7 0;
#X connect 17 0 16 0;
#X connect 18 0 2 0;
#X connect 18 1 0 0;
#X connect 18 2 0 0;
#X connect 18 3 20 0;
#X connect 18 4 7 0;
#X restore 14 134 pd togui;
#X obj 210 135 u_dispatch \$0 bpm;
#X obj 210 162 u_dispatch \$0 loop;
#X obj 121 26 tgl 15 0 \$0-loop \$0-loop loop -26 7 0 10 -262130 -1
-1 0 1;
#N canvas 476 187 239 212 fromgui 0;
#X obj 40 153 outlet;
#X obj 40 34 r \$0-bpm;
#X obj 119 35 r \$0-loop;
#X msg 119 63 loop \$1;
#X obj 115 154 s \$0-bpm-in;
#X msg 115 127 set \$1;
#X msg 40 62 bpm \$1;
#X obj 55 105 bng 15 250 50 0 empty empty empty 17 7 0 10 -262144 -1
-1;
#X connect 1 0 6 0;
#X connect 1 0 5 0;
#X connect 2 0 3 0;
#X connect 3 0 0 0;
#X connect 5 0 4 0;
#X connect 6 0 0 0;
#X connect 6 0 7 0;
#X restore 71 173 pd fromgui;
#X obj 210 188 u_dispatch \$0 eof;
#X obj 210 215 u_dispatch \$0 filename;
#X obj 210 247 u_loader g_midimetro-\$1 \$0;
#X obj 73 134 r \$0-startstop;
#X text 166 11 gui wrapper for c_midiplay;
#X text 167 38 a midifile player with syncronized metro;
#X text 169 61 requires mrpeach [midifile] external;
#N canvas 0 23 316 236 file 0;
#X obj 70 50 inlet;
#X obj 70 80 route bpm;
#X obj 156 51 inlet;
#X obj 156 81 route ignore;
#X msg 70 147 set \$1;
#X obj 70 114 spigot 0;
#X obj 156 115 sel 0;
#X msg 156 136 1;
#X msg 189 136 0;
#X obj 70 180 s \$0-bpm-in;
#X connect 0 0 1 0;
#X connect 1 0 5 0;
#X connect 2 0 3 0;
#X connect 3 0 6 0;
#X connect 4 0 9 0;
#X connect 5 0 4 0;
#X connect 6 0 7 0;
#X connect 6 1 8 0;
#X connect 7 0 5 1;
#X connect 8 0 5 1;
#X restore 88 246 pd file bpm;
#X obj 14 198 c_midiplay;
#X text 213 279 Dan Wilcox 2009 \, updated 2017;
#X connect 2 0 10 0;
#X connect 9 0 11 0;
#X connect 10 0 23 0;
#X connect 11 0 12 0;
#X connect 12 0 15 0;
#X connect 14 0 23 1;
#X connect 15 0 22 1;
#X connect 18 0 23 0;
#X connect 23 0 0 0;
#X connect 23 1 1 0;
#X connect 23 1 22 0;
#X coords 0 -1 1 1 145 86 1 2 2;
