#N canvas 1054 68 385 679 10;
#X declare -path .;
#X obj 53 173 bng 15 250 50 0 empty empty empty 17 7 0 10 -262144 -1
-1;
#X text 74 171 play;
#X text 167 140 load from a filename;
#X text 191 523 Creation args: name;
#X obj 30 114 loadbang;
#X obj 30 501 g_sample samp1;
#X obj 30 613 soundoutput;
#X obj 153 391 g_hsl amp 0 1;
#X obj 153 460 g_tgl reverse;
#X msg 153 364 amp 1 \, speed 1 \, reverse 0;
#X obj 153 425 g_hsl speed 0 2;
#X msg 30 138 open media/bang.wav;
#X text 10 8 g_sample: a gui one shot stereo sample player;
#X text 20 31 left inlet: triggering \, open messages;
#X text 30 50 right inlet: control messages;
#X obj 223 637 s RJLIB;
#X msg 223 611 sf-samplerate 44100;
#X text 220 589 Set global samplerate:;
#X obj 276 637 loadbang;
#X msg 156 296 60 127;
#X msg 105 218 60;
#X msg 140 219 127;
#X text 103 197 play using midi velocities \, 0 - 127;
#X msg 174 219 0;
#X text 204 218 stop;
#X msg 262 297 60 0;
#X text 106 274 speed via midi note-vel pairs;
#X msg 107 296 35 127;
#X msg 207 296 72 127;
#X obj 107 336 t a;
#X obj 105 248 t a;
#X obj 257 101 declare -path .;
#X text 35 81 set local path when using relative filenames;
#X connect 0 0 5 0;
#X connect 4 0 11 0;
#X connect 5 0 6 0;
#X connect 5 1 6 1;
#X connect 7 0 10 0;
#X connect 8 0 5 1;
#X connect 9 0 7 0;
#X connect 10 0 8 0;
#X connect 11 0 5 0;
#X connect 16 0 15 0;
#X connect 18 0 16 0;
#X connect 19 0 29 0;
#X connect 20 0 30 0;
#X connect 21 0 30 0;
#X connect 23 0 30 0;
#X connect 25 0 29 0;
#X connect 27 0 29 0;
#X connect 28 0 29 0;
#X connect 29 0 5 0;
#X connect 30 0 5 0;
