#N canvas 144 23 466 573 10;
#X declare -path .;
#X obj 77 284 g_savestate;
#X msg 59 54 save;
#X msg 77 81 load;
#X msg 97 106 clear;
#X msg 149 202 loadfile;
#X text 126 72 save/load to a messagebox;
#X text 321 242 just set the file;
#X msg 126 140 savefile media/state.txt;
#X msg 160 240 setfile media/state2.txt;
#X msg 139 171 loadfile media/state.txt;
#X text 144 106 clears the messagebox;
#X text 215 202 omit file to use currently set textfile;
#N canvas 632 217 450 300 state 0;
#X obj 26 18 inlet;
#X msg 26 49 \; RJ_SCENE_LOAD state hello 21 \, state foo 0.346457
\,;
#X connect 0 0 1 0;
#X restore 77 370 pd state in a messagebox;
#X obj 155 345 bng 15 250 50 0 empty empty done 17 7 0 10 -262144 -1
-1;
#X obj 77 284 g_savestate;
#X msg 59 54 save;
#X msg 77 81 load;
#X msg 97 106 clear;
#X msg 149 202 loadfile;
#X text 126 72 save/load to a messagebox;
#X text 294 151 save/load to a textfile;
#X text 321 242 just set the file;
#X msg 126 140 savefile media/state.txt;
#X msg 160 240 setfile media/state2.txt;
#X msg 139 171 loadfile media/state.txt;
#X text 144 106 clears the messagebox;
#X text 215 202 omit file to use currently set textfile;
#N canvas 632 217 450 300 state 0;
#X obj 26 18 inlet;
#X msg 26 49;
#X connect 0 0 1 0;
#X restore 77 370 pd state in a messagebox;
#X obj 155 345 bng 15 250 50 0 empty empty done 17 7 0 10 -262144 -1
-1;
#X text 24 19 gui wrapper for u_savestate;
#X text 23 416 state-savable objects:;
#N canvas 0 23 229 138 prints 0;
#X obj 108 53 r RJ_SCENE_LOAD;
#X obj 108 82 print LOAD;
#X obj 18 81 print SAVE;
#X obj 18 22 r RJ_SCENE;
#X obj 18 51 list trim;
#X connect 0 0 1 0;
#X connect 3 0 4 0;
#X connect 4 0 2 0;
#X restore 329 530 pd prints;
#X obj 26 448 r \$0-hello;
#X obj 25 498 r \$0-foo;
#X obj 164 440 g_hsl hello 0 127;
#X obj 164 473 g_hsl foo 0 1;
#X obj 164 530 u_dispatch \$0 foo;
#X obj 164 506 u_dispatch \$0 hello;
#X obj 328 504 u_loader state \$0;
#X obj 29 471 hsl 64 15 0 127 0 0 empty empty empty -2 -8 0 10 -262144
-1 -1 0 1;
#X obj 28 521 hsl 64 15 0 1 0 0 empty empty empty -2 -8 0 10 -262144
-1 -1 0 1;
#X obj 343 20 declare -path .;
#X connect 0 0 12 0;
#X connect 0 1 13 0;
#X connect 1 0 0 0;
#X connect 2 0 0 0;
#X connect 3 0 0 0;
#X connect 4 0 0 0;
#X connect 7 0 0 0;
#X connect 8 0 0 0;
#X connect 9 0 0 0;
#X connect 14 0 27 0;
#X connect 14 1 28 0;
#X connect 15 0 14 0;
#X connect 16 0 14 0;
#X connect 17 0 14 0;
#X connect 18 0 14 0;
#X connect 22 0 14 0;
#X connect 23 0 14 0;
#X connect 24 0 14 0;
#X connect 32 0 39 0;
#X connect 33 0 40 0;
#X connect 34 0 35 0;
#X connect 35 0 37 0;
#X connect 37 0 36 0;
