#N canvas 193 306 944 370 10;
#X obj 14 107 inlet;
#X obj 14 334 s \$0-num;
#X obj 129 226 s \$0-clear;
#X obj 487 107 inlet;
#X obj 281 108 r \$0-num;
#X obj 14 306 clip 0 8;
#X text 412 324 right outlet: dumps each stored pattern with a float
index is sent first \, then the seqs as lists;
#X text 386 77 right inlet: manually load a pattern via a message pattern
index first \, then a list of sequences;
#X text 12 88 left inlet: messages and floats;
#X text 569 37 pattern 0 is a "null" pattern for sequencing purposes
\, it cannot be saved to;
#X text 569 7 stay toggles whether patterns will stay on the target
when selecting another pattern;
#X obj 3 17 cnv 15 198 42 empty empty empty 20 12 0 14 -233017 -66577
0;
#X obj 39 22 bng 15 250 50 0 \$0-clear \$0-clear clear -33 6 0 10 -228856
-1 -1;
#X obj 39 42 bng 15 250 50 0 \$0-save \$0-save save -28 6 0 10 -204786
-1 -1;
#X obj 62 22 nbx 2 14 0 8 0 0 \$0-num \$0-num pattern 30 7 0 10 -256490
-1 -1 1 256;
#X obj 62 42 hradio 15 1 0 9 \$0-num \$0-num empty 0 -6 0 10 -178920
-1 -1 1;
#X obj 152 22 tgl 15 0 \$0-stay \$0-stay stay 17 7 0 10 -228856 -1
-1 0 1;
#N canvas 411 23 564 440 savestate 0;
#X obj 42 58 inlet;
#X obj 42 85 list split 1;
#X obj 42 138 list append;
#X obj 42 165 list trim;
#X text 125 83 convert first index to name;
#X obj 41 20 u_loader g_seqstore-\$1 \$0;
#X obj 42 194 u_dispatch \$0 pat1;
#X obj 42 223 u_dispatch \$0 pat2;
#X obj 42 250 u_dispatch \$0 pat3;
#X obj 42 278 u_dispatch \$0 pat4;
#X obj 42 306 u_dispatch \$0 pat5;
#X obj 42 335 u_dispatch \$0 pat6;
#X obj 42 362 u_dispatch \$0 pat7;
#X obj 42 390 u_dispatch \$0 pat8;
#X obj 185 194 r \$0-pat1;
#X obj 42 112 makefilename pat%g;
#X obj 185 223 text fromlist \$0-memory1;
#X obj 185 249 r \$0-pat2;
#X obj 185 277 text fromlist \$0-memory2;
#X obj 185 307 r \$0-pat3;
#X obj 185 335 text fromlist \$0-memory3;
#X obj 185 362 r \$0-pat4;
#X obj 185 390 text fromlist \$0-memory4;
#X obj 365 194 r \$0-pat5;
#X obj 365 223 text fromlist \$0-memory5;
#X obj 365 249 r \$0-pat6;
#X obj 365 277 text fromlist \$0-memory6;
#X obj 365 307 r \$0-pat7;
#X obj 365 335 text fromlist \$0-memory7;
#X obj 365 362 r \$0-pat8;
#X obj 365 390 text fromlist \$0-memory8;
#X obj 365 143 f 0;
#X obj 412 103 r \$0-num;
#X obj 412 127 route float;
#X obj 365 166 s \$0-load;
#X obj 365 56 list trim;
#X obj 365 34 r RJ_SCENE_LOAD;
#X obj 365 79 route g_seqstore-\$1;
#X msg 365 103 bang;
#X text 338 10 send current seq after load;
#X connect 0 0 1 0;
#X connect 1 0 15 0;
#X connect 1 1 2 1;
#X connect 2 0 3 0;
#X connect 3 0 6 0;
#X connect 6 0 7 0;
#X connect 7 0 8 0;
#X connect 8 0 9 0;
#X connect 9 0 10 0;
#X connect 10 0 11 0;
#X connect 11 0 12 0;
#X connect 12 0 13 0;
#X connect 14 0 16 0;
#X connect 15 0 2 0;
#X connect 17 0 18 0;
#X connect 19 0 20 0;
#X connect 21 0 22 0;
#X connect 23 0 24 0;
#X connect 25 0 26 0;
#X connect 27 0 28 0;
#X connect 29 0 30 0;
#X connect 31 0 34 0;
#X connect 32 0 33 0;
#X connect 33 0 31 1;
#X connect 35 0 37 0;
#X connect 36 0 35 0;
#X connect 37 0 38 0;
#X connect 38 0 31 0;
#X restore 780 113 pd savestate;
#N canvas 141 142 320 404 save 0;
#X text 53 16 save the sequences using sssad;
#X obj 26 43 bng 15 250 50 0 empty empty empty 0 -6 0 10 -262144 -1
-1;
#X obj 57 323 list prepend;
#X obj 57 158 until;
#X obj 57 210 t b f f;
#X obj 57 359 outlet;
#X text 143 324 add indexes in front;
#X obj 57 102 t b b;
#X obj 57 42 r RJ_SCENE_SAVE;
#X obj 57 73 route prepare;
#X obj 57 275 text tolist;
#X obj 120 243 makefilename \$0-memory%d;
#X obj 57 185 f;
#X msg 57 131 8;
#X text 136 277 dump as a list;
#X msg 110 159 1;
#X obj 89 185 + 1;
#X connect 1 0 7 0;
#X connect 2 0 5 0;
#X connect 3 0 12 0;
#X connect 4 0 10 0;
#X connect 4 1 11 0;
#X connect 4 2 2 1;
#X connect 7 0 13 0;
#X connect 7 1 15 0;
#X connect 8 0 9 0;
#X connect 9 0 7 0;
#X connect 10 0 2 0;
#X connect 11 0 10 1;
#X connect 12 0 4 0;
#X connect 12 0 16 0;
#X connect 13 0 3 0;
#X connect 15 0 12 1;
#X connect 16 0 12 1;
#X restore 780 87 pd save;
#N canvas 407 260 382 229 load 0;
#X obj 37 46 inlet;
#X text 89 43 floats sent before will update the index;
#X text 12 9 loads patterns sent as lists into the memorybanks;
#X obj 37 75 route list float;
#X obj 71 186 text set;
#X obj 173 129 makefilename \$0-memory%d;
#N canvas 330 135 401 244 list 0;
#X obj 111 152 list split 1;
#X obj 26 152 list split 1;
#X obj 26 116 t a a;
#X obj 26 83 u_demux2;
#X obj 71 57 r \$0-strip;
#X obj 263 119 t a b;
#X msg 290 152 0;
#X obj 26 31 inlet;
#X obj 60 201 outlet;
#X obj 290 200 outlet;
#X text 66 117 first element index;
#X text 306 119 no index;
#X obj 111 184 - 1;
#X connect 0 0 12 0;
#X connect 1 1 8 0;
#X connect 2 0 1 0;
#X connect 2 1 0 0;
#X connect 3 0 2 0;
#X connect 3 1 5 0;
#X connect 4 0 3 1;
#X connect 5 0 8 0;
#X connect 5 1 6 0;
#X connect 6 0 9 0;
#X connect 7 0 3 0;
#X connect 12 0 9 0;
#X restore 37 128 pd list and index;
#X connect 0 0 3 0;
#X connect 3 0 6 0;
#X connect 3 1 5 0;
#X connect 5 0 4 3;
#X connect 6 0 4 0;
#X connect 6 1 4 1;
#X restore 566 209 pd load to memory;
#X obj 781 138 text define \$0-memory1;
#X obj 781 158 text define \$0-memory2;
#X obj 781 178 text define \$0-memory3;
#X obj 781 198 text define \$0-memory4;
#X obj 781 218 text define \$0-memory5;
#X obj 781 238 text define \$0-memory6;
#X obj 781 258 text define \$0-memory7;
#X obj 781 278 text define \$0-memory8;
#X text 787 311 Dan Wilcox 2007 \, 2017;
#N canvas 192 23 405 260 list 0;
#X obj 35 26 inlet;
#X text 208 122 current pattern num to save;
#X text 251 63 pat num from numbox;
#X obj 180 122 f 0;
#X obj 195 65 r \$0-num;
#X obj 180 145 moses 1;
#X obj 35 214 text set;
#X obj 35 66 t a b;
#X obj 219 182 makefilename \$0-memory%d;
#X obj 195 91 route float;
#N canvas 330 135 401 244 list 0;
#X obj 111 152 list split 1;
#X obj 26 152 list split 1;
#X obj 26 116 t a a;
#X obj 26 83 u_demux2;
#X obj 71 57 r \$0-strip;
#X obj 263 119 t a b;
#X msg 290 152 0;
#X obj 26 31 inlet;
#X obj 60 201 outlet;
#X obj 290 200 outlet;
#X text 66 117 first element index;
#X text 306 119 no index;
#X obj 111 184 - 1;
#X connect 0 0 12 0;
#X connect 1 1 8 0;
#X connect 2 0 1 0;
#X connect 2 1 0 0;
#X connect 3 0 2 0;
#X connect 3 1 5 0;
#X connect 4 0 3 1;
#X connect 5 0 8 0;
#X connect 5 1 6 0;
#X connect 6 0 9 0;
#X connect 7 0 3 0;
#X connect 12 0 9 0;
#X restore 35 146 pd list and index;
#X connect 0 0 7 0;
#X connect 3 0 5 0;
#X connect 4 0 9 0;
#X connect 5 1 8 0;
#X connect 7 0 10 0;
#X connect 7 1 3 0;
#X connect 8 0 6 3;
#X connect 9 0 3 1;
#X connect 10 0 6 0;
#X connect 10 1 6 1;
#X restore 69 279 pd list to memory;
#X obj 14 251 int;
#X msg 318 305 dump;
#X text 69 306 constrain to num pats;
#X obj 318 281 r \$0-save;
#X obj 91 251 s \$0-save;
#N canvas 355 72 385 532 send 0;
#X text 8 8 on change in numbox \, bang out pattern from memory and
send it to the target;
#X text 71 174 change seqs on indexs 1 - n;
#X obj 21 202 sel 0;
#X msg 21 376 clear;
#X text 28 355 empty the seqs;
#X obj 21 174 moses 1;
#X obj 21 54 inlet;
#X obj 94 54 r \$0-stay;
#X msg 125 106 0;
#X msg 94 106 1;
#X obj 21 80 change;
#X obj 21 498 outlet;
#X obj 131 371 text get;
#X obj 131 264 text size;
#X obj 131 291 until;
#X obj 131 319 f;
#X obj 161 319 + 1;
#X obj 131 205 t b b f;
#X obj 131 344 t f f;
#X obj 21 144 spigot 1;
#X obj 94 81 sel 0;
#X msg 174 291 0;
#X obj 42 291 sel 0;
#X obj 203 235 makefilename \$0-memory%d;
#X obj 188 463 list prepend;
#X obj 131 398 route bang;
#X obj 308 399 + 1;
#X obj 114 144 r \$0-load;
#X obj 188 426 u_demux2;
#X obj 233 398 r \$0-strip;
#X connect 2 0 3 0;
#X connect 3 0 11 0;
#X connect 5 0 2 0;
#X connect 5 1 17 0;
#X connect 6 0 10 0;
#X connect 7 0 20 0;
#X connect 8 0 19 1;
#X connect 9 0 19 1;
#X connect 10 0 19 0;
#X connect 12 0 25 0;
#X connect 13 0 14 0;
#X connect 13 0 22 0;
#X connect 14 0 15 0;
#X connect 15 0 16 0;
#X connect 15 0 18 0;
#X connect 16 0 15 1;
#X connect 17 0 13 0;
#X connect 17 1 21 0;
#X connect 17 2 23 0;
#X connect 18 0 12 0;
#X connect 18 1 26 0;
#X connect 19 0 5 0;
#X connect 20 0 9 0;
#X connect 20 1 8 0;
#X connect 21 0 15 1;
#X connect 22 0 3 0;
#X connect 23 0 13 1;
#X connect 23 0 12 3;
#X connect 24 0 11 0;
#X connect 25 1 28 0;
#X connect 26 0 24 1;
#X connect 27 0 5 0;
#X connect 28 0 24 0;
#X connect 28 1 11 0;
#X connect 29 0 28 1;
#X restore 281 201 pd send on numbox;
#X text 261 42 Creation args: name (optional);
#X text 210 6 a sequence memory object \, manages the pattern of a
target sequence object ala g_seqtable \, c_nstep \, g_drumseq16 \,
etc;
#N canvas 0 23 448 306 clear 0;
#X obj 183 57 r \$0-num;
#X obj 207 216 text delete;
#X obj 168 109 f 0;
#X obj 168 132 moses 1;
#X obj 207 161 t b f;
#X msg 207 188 -1;
#X obj 34 8 inlet;
#X obj 34 271 outlet;
#X msg 34 243 clear;
#X obj 34 58 t b b;
#X obj 183 84 route float;
#X obj 270 188 makefilename \$0-memory%d;
#X obj 34 211 spigot 1;
#X obj 79 133 r \$0-stay;
#X msg 110 185 0;
#X msg 79 185 1;
#X obj 79 160 sel 0;
#X connect 0 0 10 0;
#X connect 2 0 3 0;
#X connect 3 1 4 0;
#X connect 4 0 5 0;
#X connect 4 1 11 0;
#X connect 5 0 1 0;
#X connect 6 0 9 0;
#X connect 8 0 7 0;
#X connect 9 0 12 0;
#X connect 9 1 2 0;
#X connect 10 0 2 1;
#X connect 11 0 1 1;
#X connect 12 0 8 0;
#X connect 13 0 16 0;
#X connect 14 0 12 1;
#X connect 15 0 12 1;
#X connect 16 0 15 0;
#X connect 16 1 14 0;
#X restore 303 252 pd clear current seq;
#N canvas 0 23 306 303 clear 0;
#X obj 60 41 inlet;
#X obj 60 237 text delete;
#X obj 60 177 t b f;
#X msg 60 209 -1;
#X obj 60 122 until;
#X msg 60 69 8;
#X obj 60 148 f;
#X obj 88 148 + 1;
#X obj 60 96 t f b;
#X msg 101 122 1;
#X obj 123 208 makefilename \$0-memory%d;
#X connect 0 0 5 0;
#X connect 2 0 3 0;
#X connect 2 1 10 0;
#X connect 3 0 1 0;
#X connect 4 0 6 0;
#X connect 5 0 8 0;
#X connect 6 0 7 0;
#X connect 6 0 2 0;
#X connect 7 0 6 1;
#X connect 8 0 4 0;
#X connect 8 1 9 0;
#X connect 9 0 6 1;
#X connect 10 0 1 1;
#X restore 526 239 pd clear all seqs;
#N canvas 822 157 328 504 dump 0;
#X obj 37 47 inlet;
#X text 15 16 dump out patterns as list;
#X obj 153 434 list prepend;
#X obj 37 129 until;
#X msg 37 76 8;
#X obj 37 155 f;
#X obj 65 155 + 1;
#X obj 37 103 t f b;
#X msg 78 129 1;
#X obj 115 463 outlet;
#X text 103 189 seq index as float \, seqs as list;
#X obj 37 381 route bang;
#X obj 37 354 text get;
#X obj 37 247 text size;
#X obj 37 274 until;
#X obj 37 302 f;
#X obj 67 302 + 1;
#X obj 37 327 t f f;
#X msg 80 274 0;
#X obj 109 218 makefilename \$0-memory%d;
#X obj 37 188 t b b f f;
#X obj 94 407 u_demux2;
#X obj 139 380 r \$0-strip;
#X obj 222 380 t f;
#X connect 0 0 4 0;
#X connect 2 0 9 0;
#X connect 3 0 5 0;
#X connect 4 0 7 0;
#X connect 5 0 6 0;
#X connect 5 0 20 0;
#X connect 6 0 5 1;
#X connect 7 0 3 0;
#X connect 7 1 8 0;
#X connect 8 0 5 1;
#X connect 11 1 21 0;
#X connect 12 0 11 0;
#X connect 13 0 14 0;
#X connect 14 0 15 0;
#X connect 15 0 16 0;
#X connect 15 0 17 0;
#X connect 16 0 15 1;
#X connect 17 0 12 0;
#X connect 18 0 15 1;
#X connect 19 0 13 1;
#X connect 19 0 12 3;
#X connect 20 0 13 0;
#X connect 20 1 18 0;
#X connect 20 2 19 0;
#X connect 20 2 23 0;
#X connect 20 3 9 0;
#X connect 21 0 2 0;
#X connect 21 1 9 0;
#X connect 22 0 21 1;
#X connect 23 0 2 1;
#X restore 487 267 pd dump from memory;
#X obj 281 141 t f f;
#N canvas 0 23 449 522 print 0;
#X obj 102 277 + 1;
#X obj 68 277 f;
#X obj 68 246 until;
#X msg 110 246 0;
#X obj 180 482 print -n;
#X obj 95 382 route float;
#X obj 29 19 inlet;
#X obj 207 437 list trim;
#X obj 207 409 list append;
#X obj 68 303 t f f;
#X obj 207 352 makefilename %d;
#X text 186 321 convert f to s to avoid ": " prepend;
#X obj 68 325 + 1;
#X obj 29 106 f 0;
#X obj 81 56 r \$0-num;
#X obj 29 134 moses 1;
#X msg 29 56 bang;
#X obj 68 189 t b b f;
#X obj 68 162 t f f;
#X obj 68 218 text size;
#X obj 95 353 text get;
#X obj 81 82 route float;
#X obj 140 189 makefilename \$0-memory%d;
#X msg 180 216 --------- seqstore pattern \$1 ---------;
#X connect 0 0 1 1;
#X connect 1 0 0 0;
#X connect 1 0 9 0;
#X connect 2 0 1 0;
#X connect 3 0 1 1;
#X connect 5 0 4 0;
#X connect 5 1 8 1;
#X connect 6 0 16 0;
#X connect 7 0 4 0;
#X connect 8 0 7 0;
#X connect 9 0 12 0;
#X connect 9 1 20 0;
#X connect 10 0 8 0;
#X connect 12 0 10 0;
#X connect 13 0 15 0;
#X connect 14 0 21 0;
#X connect 15 1 18 0;
#X connect 16 0 13 0;
#X connect 17 0 19 0;
#X connect 17 1 3 0;
#X connect 17 2 23 0;
#X connect 18 0 17 0;
#X connect 18 1 22 0;
#X connect 19 0 2 0;
#X connect 20 0 5 0;
#X connect 21 0 13 1;
#X connect 22 0 19 1;
#X connect 22 0 20 3;
#X connect 23 0 4 0;
#X restore 168 198 pd print;
#X obj 303 227 r \$0-clear;
#X obj 308 169 outlet current pattern;
#X obj 281 334 outlet seq control;
#X obj 487 296 outlet dump;
#X obj 14 138 route float list save clear print strip;
#X obj 206 168 s \$0-strip;
#X obj 487 137 route dump clear float list;
#X connect 0 0 47 0;
#X connect 3 0 49 0;
#X connect 4 0 41 0;
#X connect 5 0 1 0;
#X connect 18 0 17 0;
#X connect 30 0 5 0;
#X connect 31 0 45 0;
#X connect 33 0 31 0;
#X connect 35 0 45 0;
#X connect 38 0 45 0;
#X connect 40 0 46 0;
#X connect 41 0 35 0;
#X connect 41 1 44 0;
#X connect 43 0 38 0;
#X connect 47 0 30 0;
#X connect 47 1 29 0;
#X connect 47 2 34 0;
#X connect 47 3 2 0;
#X connect 47 4 42 0;
#X connect 47 5 48 0;
#X connect 49 0 40 0;
#X connect 49 1 39 0;
#X connect 49 2 19 0;
#X connect 49 3 19 0;
#X coords 0 -1 1 0 200 60 1 2 2;
