#N canvas 155 32 899 565 10;
#X msg 477 120 asc;
#X msg 483 146 dsc;
#X msg 470 93 norm;
#X msg 492 303 back;
#X text 512 121 sort ascending;
#X text 512 145 sort descending;
#X text 537 302 reverse;
#X text 553 207 inverted pitch;
#X text 511 97 incoming order : default;
#X text 554 180 normal pitch : default;
#X msg 498 328 reset;
#X text 537 327 reset table pos;
#X text 481 254 playback control;
#X text 536 279 forward : default;
#X text 592 379 default;
#X obj 136 84 tgl 15 0 empty empty make_a_note_stream 17 7 0 10 -262144
-1 -1 0 1;
#X obj 24 83 metro 200;
#X obj 24 55 tgl 15 0 empty empty play_sequences 17 7 0 10 -262144
-1 -1 0 1;
#X text 403 20 Creation args: sequence length \, timeout;
#X text 405 37 defualts: 16 \, 1000;
#X msg 484 278 fwd;
#X msg 196 309 clear;
#X text 239 308 empty table;
#X obj 24 509 soundoutput;
#N canvas 0 23 350 304 synth 0;
#X obj 52 37 inlet;
#X obj 52 118 osc~;
#X obj 52 63 makenote 50 80;
#X obj 52 207 *~;
#X obj 52 238 outlet~;
#X obj 52 90 mtof;
#X obj 169 142 c_adsr 0.3 0 300 70 500;
#X obj 106 142 phasor~;
#X obj 52 175 +~;
#X obj 52 143 *~ 0.5;
#X connect 0 0 2 0;
#X connect 1 0 9 0;
#X connect 2 0 5 0;
#X connect 2 1 6 0;
#X connect 3 0 4 0;
#X connect 5 0 1 0;
#X connect 5 0 7 0;
#X connect 6 0 3 1;
#X connect 7 0 8 1;
#X connect 8 0 3 0;
#X connect 9 0 8 0;
#X restore 24 478 pd synth;
#X msg 164 248 32 24 48 64 72 44 62 58 38 40 84 66 32 46 74 34;
#X msg 196 280 dump;
#X msg 492 206 invert 1;
#X msg 492 179 invert 0;
#X msg 525 380 listen 1;
#X msg 525 408 listen 0;
#X text 311 477 note list dump;
#X msg 526 438 timeout 500;
#X text 236 281 dump note list to right outlet;
#X obj 72 300 r \$0-control;
#X obj 470 504 s \$0-control;
#X text 521 356 listen control;
#X obj 470 232 t a;
#X text 17 20 c_seqtable - record and play back a sequence of midi
notes;
#X text 150 99 (give it some time);
#N canvas 0 23 304 258 random 0;
#X obj 67 46 inlet;
#X obj 67 190 outlet;
#X obj 67 160 m_scalefilter;
#X obj 142 107 loadbang;
#X obj 67 81 m_randomrange 32 100;
#X msg 142 132 0 3 5 7 10;
#X connect 0 0 4 0;
#X connect 2 0 1 0;
#X connect 3 0 5 0;
#X connect 4 0 2 0;
#X connect 5 0 2 1;
#X restore 136 177 pd random notes;
#X floatatom 136 202 5 0 0 1 note - -, f 5;
#X floatatom 187 127 5 0 0 0 - - -, f 5;
#X text 163 230 note sequence as a list;
#X text 79 479 non-zero note;
#X obj 24 340 g_seqtable 16;
#X floatatom 50 138 5 0 0 1 pos - -, f 5;
#X text 522 470 will drop a partial list of incoming notes if the list
is not completed within this time \, default: 1000;
#X text 522 457 how long to listen to an incoming stream in ms;
#X obj 218 477 print seqtable;
#X obj 24 111 bng 15 250 50 0 empty empty empty 17 7 0 10 -262144 -1
-1;
#X obj 173 478 bng 15 250 50 0 empty empty end 17 7 0 10 -262144 -1
-1;
#X obj 136 149 metro 100;
#X text 462 70 performs serial operations on incoming note streams:
;
#X msg 58 231 length \$1;
#X msg 58 203 4;
#X msg 93 203 16;
#X connect 0 0 37 0;
#X connect 1 0 37 0;
#X connect 2 0 37 0;
#X connect 3 0 35 0;
#X connect 10 0 35 0;
#X connect 15 0 52 0;
#X connect 16 0 50 0;
#X connect 17 0 16 0;
#X connect 20 0 35 0;
#X connect 21 0 45 1;
#X connect 24 0 23 0;
#X connect 24 0 23 1;
#X connect 25 0 45 1;
#X connect 26 0 45 1;
#X connect 27 0 37 0;
#X connect 28 0 37 0;
#X connect 29 0 35 0;
#X connect 30 0 35 0;
#X connect 32 0 35 0;
#X connect 34 0 45 1;
#X connect 37 0 35 0;
#X connect 40 0 41 0;
#X connect 41 0 45 1;
#X connect 42 0 52 1;
#X connect 45 0 24 0;
#X connect 45 1 51 0;
#X connect 45 2 49 0;
#X connect 46 0 45 0;
#X connect 50 0 45 0;
#X connect 52 0 40 0;
#X connect 54 0 45 0;
#X connect 55 0 54 0;
#X connect 56 0 54 0;
