#N canvas 532 106 298 277 10;
#X obj 80 129 m_dbtoa;
#X floatatom 80 153 5 0 0 1 amplitude - -, f 5;
#X text 13 20 convert decibel value to linear amplitude;
#X obj 65 59 s_pinknoise;
#X obj 65 174 *~;
#X obj 65 213 soundoutput;
#X msg 80 101 0;
#X msg 128 100 -3;
#X msg 174 101 3;
#X msg 223 101 -24;
#X text 111 80 dB values;
#X connect 0 0 1 0;
#X connect 1 0 4 1;
#X connect 3 0 4 0;
#X connect 4 0 5 0;
#X connect 4 0 5 1;
#X connect 6 0 0 0;
#X connect 7 0 0 0;
#X connect 8 0 0 0;
#X connect 9 0 0 0;
