#N canvas 337 74 868 521 10;
#N canvas 187 140 582 570 REFERENCE 0;
#X text 24 434 Tags: midi \, general midi \, look up table;
#X text 24 31 Name: m_gmcontrol;
#X text 24 51 Summary: converts a control name to a control num from
the General Midi (GM) spec;
#X text 24 108 Inlet 0: <symbol> control name \, <float> floats are
passed through \, "print" print the look up table;
#X text 24 164 Outlet 0: control num;
#X text 24 234 Description: This is a helper when woking with the General
Midi spec. I can never remember which control goes with which number
\, so it's nice to use the control names themselves. See the spec for
more info: http://en.wikipedia.org/wiki/General_midi;
#X text 24 334 See also: [m_gminstrument] [m_gmpercussion];
#X coords 0 -1 1 1 450 450 1 10 10;
#X restore 5 48 pd REFERENCE;
#X obj 5 18 cnv 15 450 20 empty empty empty 20 12 0 14 -261234 -66577
0;
#X text 468 51 Example:;
#X text 495 488 rc-patches (https://github.com/danomatika/rc-patches)
- 2013;
#X text 512 439 naturally \, hook up Pd to a General Midi synth ...
;
#X msg 610 264 print;
#X obj 599 371 print;
#X floatatom 557 336 5 0 0 1 control_num - -, f 5;
#X text 655 265 print the table for reference;
#X text 625 227 floats are passed through;
#N canvas 0 22 188 147 noteout 0;
#X obj 28 104 noteout 1;
#X obj 28 65 makenote 100 500;
#X obj 28 32 inlet;
#X connect 1 0 0 0;
#X connect 1 1 0 1;
#X connect 2 0 1 0;
#X restore 720 370 pd noteout 1;
#X msg 720 340 60;
#X msg 756 341 65;
#X text 712 312 try some notes;
#X obj 535 396 ctlout 1;
#X msg 530 130 Mod_Wheel;
#X msg 557 155 Volume;
#X msg 580 182 Pan;
#X obj 511 96 hsl 128 15 0 127 0 0 empty empty control_amount -2 8
0 10 -262144 -1 -1 0 1;
#X floatatom 508 356 5 0 0 0 - - -, f 5;
#X text 614 147 get control num using GM name;
#X msg 594 227 1;
#X obj 557 300 m_gmcontrol;
#X obj 8 20 m_gmcontrol;
#X text 129 21 - general midi control mapping look up table;
#X connect 5 0 22 0;
#X connect 7 0 6 0;
#X connect 7 0 14 1;
#X connect 11 0 10 0;
#X connect 12 0 10 0;
#X connect 15 0 22 0;
#X connect 16 0 22 0;
#X connect 17 0 22 0;
#X connect 18 0 19 0;
#X connect 19 0 14 0;
#X connect 21 0 22 0;
#X connect 22 0 7 0;
