#N canvas 330 38 868 521 10;
#N canvas 187 140 582 570 REFERENCE 0;
#X text 24 31 Name: m_gmpercussion;
#X text 24 51 Summary: converts a drum name to a midi note from the
General Midi (GM) spec;
#X text 24 234 Description: This is a helper when woking with the General
Midi spec. I can never remember which instrument goes with which note
\, so it's nice to use the instrument names themselves. See the spec
for more info: http://en.wikipedia.org/wiki/General_midi;
#X text 24 434 Tags: midi \, general midi \, look up table;
#X text 24 334 See also: [m_gminstrument] [m_gmcontrol];
#X text 24 108 Inlet 0: <symbol> percussion instrument name \, <float>
floats are passed through \, <list> converts leading symbol \, "print"
print the look up table;
#X text 24 164 Outlet 0: midi note or list;
#X coords 0 -1 1 1 450 450 1 10 10;
#X restore 5 48 pd REFERENCE;
#X obj 5 18 cnv 15 450 20 empty empty empty 20 12 0 14 -261234 -66577
0;
#X text 468 51 Example:;
#X text 495 488 rc-patches (https://github.com/danomatika/rc-patches)
- 2013;
#X msg 591 277 print;
#X obj 538 355 print;
#X msg 515 115 Bass_Drum_1;
#X text 636 278 print the table for reference;
#X msg 575 206 60;
#X text 606 206 floats are passed through;
#X msg 538 140 Snare_Drum_2;
#X text 635 138 get note using GM name;
#X msg 559 166 Closed_Hi-Hat;
#N canvas 0 23 188 147 noteout 0;
#X obj 28 32 inlet;
#X obj 28 104 noteout 10;
#X obj 28 65 makenote 100 100;
#X connect 0 0 2 0;
#X connect 2 0 1 0;
#X connect 2 1 1 1;
#X restore 590 354 pd noteout 10;
#X text 681 353 try some notes;
#X text 497 391 note: chan 10 for percussion (+11 in GM2);
#X obj 538 313 m_gmpercussion;
#X text 129 21 - general midi percussion mapping look up table;
#X text 493 431 naturally \, hook up Pd to a General Midi synth ...
;
#X obj 8 20 m_gmpercussion;
#X msg 582 242 Cowbell 100;
#X text 660 242 leading symbols are converted;
#X connect 4 0 16 0;
#X connect 6 0 16 0;
#X connect 8 0 16 0;
#X connect 10 0 16 0;
#X connect 12 0 16 0;
#X connect 16 0 5 0;
#X connect 16 0 13 0;
#X connect 20 0 16 0;
