#N canvas 136 23 523 160 10;
#N canvas 0 23 322 464 print 0;
#X obj 134 182 + 1;
#X obj 100 182 f;
#X obj 100 151 until;
#X msg 142 151 0;
#X obj 100 403 print -n;
#X obj 29 42 inlet;
#X obj 40 247 t b b b;
#X msg 59 321 General Midi Control Num Mapping;
#X obj 100 246 list trim;
#X obj 29 67 t b b b;
#X obj 100 97 t b b;
#X msg 29 293 -----------------------------------;
#X obj 100 214 text get \$0-lookup;
#X obj 100 123 text size \$0-lookup;
#X connect 0 0 1 1;
#X connect 1 0 0 0;
#X connect 1 0 12 0;
#X connect 2 0 1 0;
#X connect 3 0 1 1;
#X connect 5 0 9 0;
#X connect 6 0 11 0;
#X connect 6 1 7 0;
#X connect 6 2 11 0;
#X connect 7 0 4 0;
#X connect 8 0 4 0;
#X connect 9 0 11 0;
#X connect 9 1 10 0;
#X connect 9 2 6 0;
#X connect 10 0 13 0;
#X connect 10 1 3 0;
#X connect 11 0 4 0;
#X connect 12 0 8 0;
#X connect 13 0 2 0;
#X restore 22 88 pd print;
#X obj 257 89 text define -k \$0-lookup;
#A set Mod_Wheel 1 \; Data_Entry_MSB 6 \; Volume 7 \; Pan 10 \; Expression
11 \; Data_Entry_LSB 38 \; Sustain_Pedal 64 \; Filter_Resonance 71
\; Release_Time 72 \; Attack_Time 73 \; Filter_Frequency 74 \; Decay_Time
75 \; Vibrato_Rate 76 \; Vibrato_Depth 77 \; Vibrato_Delay 78 \; Reverb_Level
91 \; Tremolo_Level 92 \; Chorus_Level 93 \; Celeste_Level 94 \; Phaser_Level
95 \; Non_Reg_Param_LSB 98 \; Non_Reg_Param_MSB 99 \; Reg_Param_Num_LSB
100 \; Reg_Param_Num_MSB 101 \; All_Controllers_Off 121 \; All_Notes_Off
123 \;;
#N canvas 561 209 266 280 lookup 0;
#X obj 50 26 inlet;
#X obj 146 227 outlet;
#X obj 119 97 symbol;
#X obj 50 150 moses 0;
#X obj 89 202 unpack s f;
#X obj 50 121 text search \$0-lookup;
#X obj 89 176 text get \$0-lookup;
#X obj 50 50 route symbol;
#X obj 119 74 list trim;
#X connect 0 0 7 0;
#X connect 2 0 5 0;
#X connect 3 1 6 0;
#X connect 4 1 1 0;
#X connect 5 0 3 0;
#X connect 6 0 4 0;
#X connect 7 0 5 0;
#X connect 7 1 8 0;
#X connect 8 0 2 0;
#X restore 121 89 pd lookup;
#X text 254 68 the lookup table data is in here;
#X obj 121 116 outlet;
#X obj 22 58 route print float;
#X obj 22 30 inlet name;
#N canvas 172 83 586 377 LICENSE-GPL 0;
#X text 57 88 This program is free software: you can redistribute it
and/or modify it under the terms of the GNU General Public License
as published by the Free Software Foundation \, either version 3 of
the License \, or (at your option) any later version.;
#X text 58 168 This program is distributed in the hope that it will
be useful \, but WITHOUT ANY WARRANTY \; without even the implied warranty
of MERCHANTABILITY or FITNESS FOR A PARTICULAR PURPOSE. See the GNU
General Public License for more details.;
#X text 57 261 You should have received a copy of the GNU General Public
License along with this program. If not \, see <http://www.gnu.org/licenses/>.
;
#X text 60 325 See the file LICENSE.txt for the full license text.
;
#X text 56 54 Copyright (C) 2013 \, Dan Wilcox <danomatika@gmail.com>
;
#X restore 257 118 pd LICENSE-GPL;
#X text 173 48 see: http://en.wikipedia.org/wiki/General_midi;
#X text 141 30 converts a control name to a control num from the GM
spec;
#X text 13 6 general midi control mapping look up table;
#X connect 2 0 4 0;
#X connect 5 0 0 0;
#X connect 5 1 4 0;
#X connect 5 2 2 0;
#X connect 6 0 5 0;
