#N canvas 0 23 451 357 10;
#X obj 196 240 m_iemcolor;
#X obj 199 296 hsl 128 30 0 127 0 0 empty empty empty -2 -8 0 10 -262144
-1 -1 0 1;
#X msg 196 269 color \$1;
#X floatatom 196 193 5 0 0 0 - - -, f 5;
#X floatatom 237 193 5 0 0 0 - - -, f 5;
#X floatatom 280 193 5 0 0 0 - - -, f 5;
#X obj 199 105 hsl 128 15 0 255 0 0 empty empty empty -2 -8 0 10 -258049
-262144 -1 2000 1;
#X obj 240 126 hsl 128 15 0 255 0 0 empty empty empty -2 -8 0 10 -4033
-262144 -1 11400 1;
#X obj 283 147 hsl 128 15 0 255 0 0 empty empty empty -2 -8 0 10 -64
-262144 -1 0 1;
#X msg 70 121 255 0 255;
#X msg 105 142 127 100 200;
#X msg 27 100 255 255 255;
#X obj 196 169 int;
#X obj 237 169 int;
#X obj 280 170 int;
#X text 28 19 m_iemcolor: convert 3 byte RGB values into a 32 bit color
for IEM guis;
#X text 196 74 R G B inlets: 0-255;
#X text 33 74 R G B lists;
#X connect 0 0 2 0;
#X connect 2 0 1 0;
#X connect 3 0 0 0;
#X connect 4 0 0 1;
#X connect 5 0 0 2;
#X connect 6 0 12 0;
#X connect 7 0 13 0;
#X connect 8 0 14 0;
#X connect 9 0 0 0;
#X connect 10 0 0 0;
#X connect 11 0 0 0;
#X connect 12 0 3 0;
#X connect 13 0 4 0;
#X connect 14 0 5 0;
