#N canvas 0 23 417 386 10;
#X obj 198 192 t b f;
#X obj 132 220 +;
#X obj 132 245 t b f;
#X obj 132 276 +;
#X obj 55 170 * -65536;
#X obj 132 170 * -256;
#X obj 198 170 * -1;
#X obj 132 307 - 1;
#X text 36 16 convert RGB bytes into a 32 bit color int value for IEM
guis;
#X text 164 309 adapted from IEM gui help patches;
#X obj 132 55 inlet G;
#X obj 198 56 inlet B;
#X obj 55 54 inlet R;
#X obj 132 347 outlet RGB;
#X obj 101 108 unpack f f f;
#X obj 55 84 route float list;
#X text 206 86 handle R G B lists as well;
#X obj 55 142 int;
#X obj 132 142 int;
#X obj 198 143 int;
#X connect 0 0 1 0;
#X connect 0 1 1 1;
#X connect 1 0 2 0;
#X connect 2 0 3 0;
#X connect 2 1 3 1;
#X connect 3 0 7 0;
#X connect 4 0 3 0;
#X connect 5 0 1 0;
#X connect 6 0 0 0;
#X connect 7 0 13 0;
#X connect 10 0 18 0;
#X connect 11 0 19 0;
#X connect 12 0 15 0;
#X connect 14 0 17 0;
#X connect 14 1 18 0;
#X connect 14 2 19 0;
#X connect 15 0 17 0;
#X connect 15 1 14 0;
#X connect 17 0 4 0;
#X connect 18 0 5 0;
#X connect 19 0 6 0;
