#N canvas 470 174 278 260 10;
#X obj 37 54 inlet;
#X obj 37 214 outlet;
#X obj 96 123 inlet low;
#X obj 172 123 inlet high;
#X text 35 16 random with min & max range;
#X obj 37 155 m_scale 0 1 \$1 \$2;
#X obj 37 91 m_randomfloat;
#X obj 37 184 int;
#X connect 0 0 6 0;
#X connect 2 0 5 3;
#X connect 3 0 5 4;
#X connect 5 0 7 0;
#X connect 6 0 5 0;
#X connect 7 0 1 0;
