#N canvas 575 145 317 362 10;
#X obj 24 218 oscparse;
#X obj 24 193 list prepend 47 97 0 0 44 102 0 0;
#X obj 24 243 list split 1;
#X obj 24 72 t b b b b;
#X obj 24 47 inlet;
#X obj 58 299 outlet;
#X obj 24 168 pack 63 0 0 0;
#X obj 49 133 | 128;
#X obj 58 274 - 1;
#X obj 127 108 random 256;
#X obj 205 108 random 256;
#X obj 49 108 random 128;
#X text 17 331 originally by IOhannes Zmoelnig on the Pd List;
#X text 19 14 outputs a random float from 0 - 1;
#X connect 0 0 2 0;
#X connect 1 0 0 0;
#X connect 2 1 8 0;
#X connect 3 0 6 0;
#X connect 3 1 11 0;
#X connect 3 2 9 0;
#X connect 3 3 10 0;
#X connect 4 0 3 0;
#X connect 6 0 1 0;
#X connect 7 0 6 1;
#X connect 8 0 5 0;
#X connect 9 0 6 2;
#X connect 10 0 6 3;
#X connect 11 0 7 0;
