#N canvas 113 189 304 247 10;
#X floatatom 79 178 5 0 0 0 - - -, f 5;
#X obj 79 85 bng 15 250 50 0 empty empty empty 17 7 0 10 -262144 -1
-1;
#X floatatom 140 107 5 0 0 0 min - -, f 5;
#X floatatom 202 124 5 0 0 0 max - -, f 5;
#X text 71 47 handles negative ranges as well;
#X text 172 214 Dan Wilcox 2016;
#X obj 79 147 m_randomrange 100 200;
#X text 16 16 output a random int between a range of numbers;
#X connect 1 0 6 0;
#X connect 2 0 6 1;
#X connect 3 0 6 2;
#X connect 6 0 0 0;
