#N canvas 167 306 276 247 10;
#X obj 37 49 inlet;
#X obj 37 208 outlet;
#X text 35 16 random with min & max range;
#X obj 37 83 m_randomfloat;
#X obj 37 178 int;
#X obj 49 115 inlet min;
#X obj 168 115 inlet max;
#X obj 37 149 m_scale 0 1 \$1 \$2;
#N canvas 0 23 256 234 args 0;
#X obj 45 55 loadbang;
#X obj 45 86 pack \$2 \$1;
#X obj 45 116 route 0;
#X obj 45 184 outlet min;
#X obj 145 185 outlet max;
#X msg 45 153 0;
#X text 41 26 arg1 becomes max if arg2 is 0;
#X connect 0 0 1 0;
#X connect 1 0 2 0;
#X connect 2 0 4 0;
#X connect 2 0 5 0;
#X connect 5 0 3 0;
#X restore 113 115 pd args;
#X connect 0 0 3 0;
#X connect 3 0 7 0;
#X connect 4 0 1 0;
#X connect 5 0 7 3;
#X connect 6 0 7 4;
#X connect 7 0 4 0;
#X connect 8 0 7 3;
#X connect 8 1 7 4;
