#N canvas 216 41 868 521 10;
#N canvas 118 68 582 570 REFERENCE 0;
#X text 24 31 Name: [m_scalefilter];
#X text 24 51 Summary: strips the midi octave from the note and compares
its position on the scale to a given scale filter list;
#X text 24 110 Inlet 0: midi note;
#X text 24 130 Inlet 1: <float> list - scale as a list of pitch classes
(0-12) \, "clear" - clear the current list and allow all notes to pass
;
#X text 23 193 Outlet 0: <float> filtered notes within the given scale
;
#X text 24 218 Outlet 1: bang when the given note was *not* in the
scale;
#X text 24 434 Tags: composition \, scale \, note filtering;
#X text 24 268 Description: This is mainly useful (for me at least)
when you have some range of values you want to match to pitch \, but
also want a more melodic component. Simply scale the value to a range
of midi notes \, say 34-72 \, then pass those through [m_scalefilter].
;
#X text 24 367 See also: [m_majorscale] [m_minorscale] [m_chorddict]
;
#X coords 0 -1 1 1 450 450 1 10 10;
#X restore 5 48 pd REFERENCE;
#X obj 5 18 cnv 15 450 20 empty empty empty 20 12 0 14 -261234 -66577
0;
#X text 468 51 Example:;
#X text 495 488 rc-patches (https://github.com/danomatika/rc-patches)
- 2013;
#X msg 635 255 clear;
#X msg 575 125 66;
#X msg 500 125 64;
#X msg 539 125 65;
#X text 645 124 notes in;
#X text 684 255 clear the filter list;
#X floatatom 539 311 5 0 0 0 - - -, f 5;
#X msg 641 202 0 4 7;
#X msg 614 176 0 3 7 5 9;
#X text 688 188 pitch class filter list in;
#N canvas 249 109 733 536 scale 0;
#X obj 50 470 soundoutput;
#X floatatom 50 136 5 0 0 0 - - -, f 5;
#X obj 50 27 tgl 15 0 empty empty empty 17 7 0 10 -262144 -1 -1 0 1
;
#X obj 50 106 int;
#X obj 50 406 pack f f;
#X floatatom 50 346 5 0 0 0 - - -, f 5;
#X obj 125 346 bng 15 250 50 0 empty empty empty 17 7 0 10 -262144
-1 -1;
#X msg 338 214 0 2 4 6 7 9 11;
#X text 433 214 ionian;
#X msg 338 247 0 2 3 5 7 9 10;
#X text 434 247 dorian;
#X msg 337 279 0 1 3 5 7 8 10;
#X text 434 279 phrygian;
#X obj 50 378 makenote 80 100;
#X obj 50 435 s_fmbass scalebass;
#X msg 338 317 0 2 4 6 7 9 11;
#X text 433 314 lydian;
#X text 442 351 mixolydian;
#X msg 338 352 0 3 4 5 7 9 10;
#X text 446 388 aeolian;
#X msg 340 389 0 2 3 5 7 8 10;
#X msg 339 427 0 1 3 5 6 8 10;
#X text 445 426 locrian;
#X text 460 465 dominant bebop;
#X msg 339 466 0 2 4 5 7 9 10 11;
#X text 463 493 major bebop;
#X msg 339 498 0 2 4 5 7 8 9 11;
#X msg 340 51 0 2 5 7 9;
#X text 410 49 major pentatonic;
#X text 425 85 minor pentatonic;
#X msg 340 84 0 3 5 7 10;
#X msg 340 23 0 3 5 7 10;
#X text 418 21 major;
#X text 452 120 natural minor \, just like major 3 steps do;
#X text 452 152 harmonic minor \, raised 7th;
#X text 451 183 melodic minor \, raised 6th and 7th;
#X msg 340 119 0 2 3 5 7 9 10;
#X msg 340 151 0 2 3 5 7 9 10;
#X msg 339 184 0 2 3 5 7 9 10;
#X obj 50 51 metro 100;
#X obj 50 78 c_frand 48 72;
#X obj 50 311 m_scalefilter;
#X connect 1 0 41 0;
#X connect 2 0 39 0;
#X connect 3 0 1 0;
#X connect 4 0 14 0;
#X connect 5 0 13 0;
#X connect 7 0 41 1;
#X connect 9 0 41 1;
#X connect 11 0 41 1;
#X connect 13 0 4 0;
#X connect 13 1 4 1;
#X connect 14 0 0 0;
#X connect 14 0 0 1;
#X connect 15 0 41 1;
#X connect 18 0 41 1;
#X connect 20 0 41 1;
#X connect 21 0 41 1;
#X connect 24 0 41 1;
#X connect 26 0 41 1;
#X connect 27 0 41 1;
#X connect 30 0 41 1;
#X connect 31 0 41 1;
#X connect 36 0 41 1;
#X connect 37 0 41 1;
#X connect 38 0 41 1;
#X connect 39 0 40 0;
#X connect 40 0 3 0;
#X connect 41 0 5 0;
#X connect 41 1 6 0;
#X restore 539 401 pd scale example;
#X obj 539 284 m_scalefilter;
#X text 129 21 - filter notes based on a given scale;
#X obj 614 314 bng 15 250 50 0 empty empty not_in_scale 17 7 0 10 -262144
-1 -1;
#X obj 539 335 bng 15 250 50 0 empty empty in_scale 17 7 0 10 -262144
-1 -1;
#X msg 611 124 67;
#X obj 8 20 m_scalefilter;
#X connect 4 0 15 1;
#X connect 5 0 15 0;
#X connect 6 0 15 0;
#X connect 7 0 15 0;
#X connect 10 0 18 0;
#X connect 11 0 15 1;
#X connect 12 0 15 1;
#X connect 15 0 10 0;
#X connect 15 1 17 0;
#X connect 19 0 15 0;
