#N canvas 599 205 508 497 10;
#X obj 37 23 inlet;
#X obj 224 427 oscformat;
#X msg 224 175 set \$1;
#X obj 37 239 list split 1;
#X obj 224 454 outlet;
#X text 241 75 address;
#X text 88 127 arguments;
#X obj 224 135 list split 1;
#X obj 315 274 sel -f;
#X obj 224 100 list split 3;
#X obj 377 179 list split 2;
#X obj 315 244 list split 1;
#X obj 404 245 list split 1;
#X obj 377 210 t a a;
#X obj 315 333 list append;
#X msg 315 304 format;
#X obj 37 187 u_demux2;
#X obj 82 214 list split 3;
#X msg 82 158 0;
#X obj 315 365 t a b;
#X msg 119 159 1;
#X obj 315 392 list trim;
#X obj 37 77 t a a b;
#X text 380 153 detect format;
#X obj 37 50 route send;
#X text 108 51 strip "send" from mrpeach style messages;
#X connect 0 0 24 0;
#X connect 1 0 4 0;
#X connect 2 0 1 0;
#X connect 3 1 1 0;
#X connect 7 0 2 0;
#X connect 7 1 10 0;
#X connect 8 0 15 0;
#X connect 9 0 7 0;
#X connect 9 2 7 0;
#X connect 10 0 13 0;
#X connect 11 0 8 0;
#X connect 12 1 14 1;
#X connect 13 0 11 0;
#X connect 13 1 12 0;
#X connect 14 0 19 0;
#X connect 15 0 14 0;
#X connect 16 0 3 0;
#X connect 16 1 17 0;
#X connect 17 1 1 0;
#X connect 18 0 16 1;
#X connect 19 0 21 0;
#X connect 19 1 20 0;
#X connect 20 0 16 1;
#X connect 21 0 1 0;
#X connect 22 0 16 0;
#X connect 22 1 9 0;
#X connect 22 2 18 0;
#X connect 24 0 22 0;
#X connect 24 1 22 0;
