#N canvas 604 360 541 336 10;
#X obj 59 294 outlet;
#X obj 59 94 sel 0;
#X obj 59 31 inlet;
#X obj 59 63 route float set;
#X obj 276 185 list prepend connect;
#X obj 276 211 list trim;
#X msg 59 207 disconnect;
#X obj 59 264 netsend -u -b;
#X obj 424 133 spigot;
#X obj 457 99 inlet;
#N canvas 0 22 252 256 args 0;
#X obj 36 28 loadbang;
#X obj 36 55 t b b b;
#X obj 36 120 route symbol;
#X msg 105 88 symbol;
#X obj 36 88 symbol \$1;
#X obj 162 88 f \$2;
#X obj 105 169 pack s f;
#X obj 105 202 outlet;
#X connect 0 0 1 0;
#X connect 1 0 4 0;
#X connect 1 1 3 0;
#X connect 1 2 5 0;
#X connect 2 1 6 0;
#X connect 3 0 2 1;
#X connect 4 0 2 0;
#X connect 5 0 6 1;
#X connect 6 0 7 0;
#X restore 297 131 pd args;
#X obj 276 159 list;
#X msg 86 119 bang;
#X obj 146 184 list prepend send;
#X obj 146 209 list trim;
#X obj 424 159 oscparse;
#X obj 424 185 list trim;
#X obj 424 211 print OSC_SEND;
#X text 238 296 Dan Wilcox 2015;
#X connect 1 0 6 0;
#X connect 1 1 12 0;
#X connect 2 0 3 0;
#X connect 3 0 1 0;
#X connect 3 1 11 1;
#X connect 3 2 8 0;
#X connect 3 2 13 0;
#X connect 4 0 5 0;
#X connect 5 0 7 0;
#X connect 6 0 7 0;
#X connect 7 0 0 0;
#X connect 8 0 15 0;
#X connect 9 0 8 1;
#X connect 10 0 11 1;
#X connect 11 0 4 0;
#X connect 12 0 11 0;
#X connect 13 0 14 0;
#X connect 14 0 7 0;
#X connect 15 0 16 0;
#X connect 16 0 17 0;
