#N canvas 511 307 284 372 10;
#X obj 53 56 route float set;
#X obj 53 236 oscparse;
#X obj 53 265 list trim;
#X obj 114 298 spigot;
#X obj 53 324 outlet;
#X obj 147 265 inlet;
#X msg 53 174 listen 0;
#X obj 53 87 sel 0;
#X obj 53 209 netreceive -u -b;
#X obj 53 24 inlet;
#X msg 118 174 listen \$1;
#X msg 80 117 bang;
#X obj 118 146 f \$1;
#X obj 114 324 print OSC_RECV;
#X text 114 23 Dan Wilcox 2015;
#X connect 0 0 7 0;
#X connect 0 1 12 1;
#X connect 1 0 2 0;
#X connect 2 0 3 0;
#X connect 2 0 4 0;
#X connect 3 0 13 0;
#X connect 5 0 3 1;
#X connect 6 0 8 0;
#X connect 7 0 6 0;
#X connect 7 1 11 0;
#X connect 8 0 1 0;
#X connect 9 0 0 0;
#X connect 10 0 8 0;
#X connect 11 0 12 0;
#X connect 12 0 10 0;
