#N canvas 599 205 660 497 10;
#X obj 37 23 inlet;
#X obj 224 427 oscformat;
#X msg 224 175 set \$1;
#X obj 37 198 list split 1;
#X obj 224 454 outlet;
#X text 241 75 address;
#X text 88 127 arguments;
#X obj 424 152 list split 1;
#X obj 458 275 sel -f;
#X obj 224 100 list split 3;
#X obj 458 185 list split 2;
#X obj 458 245 list split 1;
#X obj 547 246 list split 1;
#X obj 458 216 t a a;
#X obj 458 334 list append;
#X msg 458 305 format;
#X obj 458 366 t a b;
#X obj 458 393 list trim;
#X obj 37 77 t a a b;
#X text 425 129 detect format;
#X obj 37 50 route send;
#X text 108 51 strip "send" from mrpeach style messages;
#X msg 82 158 1;
#X msg 119 159 3;
#X obj 512 299 bng 15 250 50 0 empty empty empty 17 7 0 10 -262144
-1 -1;
#X obj 224 127 t a a;
#X connect 0 0 20 0;
#X connect 1 0 4 0;
#X connect 2 0 1 0;
#X connect 3 1 1 0;
#X connect 7 1 10 0;
#X connect 8 0 15 0;
#X connect 8 1 24 0;
#X connect 9 0 25 0;
#X connect 9 2 2 0;
#X connect 10 0 13 0;
#X connect 11 0 8 0;
#X connect 12 1 14 1;
#X connect 13 0 11 0;
#X connect 13 1 12 0;
#X connect 14 0 16 0;
#X connect 15 0 14 0;
#X connect 16 0 17 0;
#X connect 16 1 23 0;
#X connect 17 0 1 0;
#X connect 18 0 3 0;
#X connect 18 1 9 0;
#X connect 18 2 22 0;
#X connect 20 0 18 0;
#X connect 20 1 18 0;
#X connect 22 0 3 1;
#X connect 23 0 3 1;
#X connect 25 0 7 0;
#X connect 25 1 2 0;
