#N canvas 0 23 325 237 10;
#X obj 111 189 tgl 15 0 empty empty absolute_path? 17 7 0 10 -262144
-1 -1 0 1;
#X text 34 23 checks if a path is absolute or relative;
#X msg 144 116 relative/path/bar;
#X msg 111 83 /absolute/path/foo;
#X msg 75 54 file;
#X obj 111 159 p_absolute;
#X connect 2 0 5 0;
#X connect 3 0 5 0;
#X connect 4 0 5 0;
#X connect 5 0 0 0;
