#N canvas 136 23 290 360 10;
#X obj 34 287 makefilename %s;
#X obj 122 155 sel 0;
#X msg 149 182 set %s;
#X obj 122 234 makefilename %s/;
#X obj 34 86 t a a;
#X msg 122 261 set \$1%s;
#X obj 34 27 inlet;
#X obj 34 319 outlet;
#N canvas 172 83 586 377 LICENSE-GPL 0;
#X text 57 88 This program is free software: you can redistribute it
and/or modify it under the terms of the GNU General Public License
as published by the Free Software Foundation \, either version 3 of
the License \, or (at your option) any later version.;
#X text 58 168 This program is distributed in the hope that it will
be useful \, but WITHOUT ANY WARRANTY \; without even the implied warranty
of MERCHANTABILITY or FITNESS FOR A PARTICULAR PURPOSE. See the GNU
General Public License for more details.;
#X text 57 261 You should have received a copy of the GNU General Public
License along with this program. If not \, see <http://www.gnu.org/licenses/>.
;
#X text 60 325 See the file LICENSE.txt for the full license text.
;
#X text 56 54 Copyright (C) 2016 \, Dan Wilcox <danomatika@gmail.com>
;
#X restore 159 322 pd LICENSE-GPL;
#X text 81 28 make sure paths are absolute;
#X text 128 53 requires ggee/getdir;
#X obj 122 123 p_absolute;
#X obj 122 206 getdir 10;
#X obj 34 55 u_list2symbol;
#X connect 0 0 7 0;
#X connect 1 0 12 0;
#X connect 1 1 2 0;
#X connect 2 0 0 0;
#X connect 3 0 5 0;
#X connect 4 0 0 0;
#X connect 4 1 11 0;
#X connect 5 0 0 0;
#X connect 6 0 13 0;
#X connect 11 0 1 0;
#X connect 12 0 3 0;
#X connect 13 0 4 0;
