#N canvas 758 35 311 354 10;
#X obj 49 165 p_makeabsolute;
#X obj 172 103 getdir 10;
#X obj 172 164 list length;
#X obj 172 134 u_symbol2list /;
#X obj 49 245 list split;
#X obj 77 272 u_list2symbol /;
#X obj 49 195 u_symbol2list /;
#X obj 172 221 - 1;
#X obj 187 194 p_absolute;
#X obj 49 75 t a b a;
#X obj 49 39 inlet;
#X obj 77 306 outlet;
#X text 19 14 make sure a path is relative to the parent patch;
#X obj 110 129 print;
#X obj 18 202 print;
#X connect 0 0 6 0;
#X connect 0 0 14 0;
#X connect 1 0 3 0;
#X connect 1 0 13 0;
#X connect 2 0 7 0;
#X connect 3 0 2 0;
#X connect 4 1 5 0;
#X connect 5 0 11 0;
#X connect 6 0 4 0;
#X connect 7 0 4 1;
#X connect 8 0 7 1;
#X connect 9 0 0 0;
#X connect 9 1 1 0;
#X connect 9 2 8 0;
#X connect 10 0 9 0;
