#N canvas 758 35 329 354 10;
#X obj 49 165 p_makeabsolute;
#X obj 172 164 list length;
#X obj 172 134 u_symbol2list /;
#X obj 49 245 list split;
#X obj 77 272 u_list2symbol /;
#X obj 49 195 u_symbol2list /;
#X obj 172 221 - 1;
#X obj 187 194 p_absolute;
#X obj 49 75 t a b a;
#X obj 49 39 inlet;
#X obj 77 306 outlet;
#X text 19 14 make sure a path is relative to the parent patch;
#N canvas 143 431 196 224 getdir 0;
#X obj 69 53 inlet;
#X obj 69 111 pdcontrol;
#X msg 69 82 dir 10;
#X obj 69 141 outlet;
#X connect 0 0 2 0;
#X connect 1 0 3 0;
#X connect 2 0 1 0;
#X restore 172 109 pd getdir 10;
#X connect 0 0 5 0;
#X connect 1 0 6 0;
#X connect 2 0 1 0;
#X connect 3 1 4 0;
#X connect 4 0 10 0;
#X connect 5 0 3 0;
#X connect 6 0 3 1;
#X connect 7 0 6 1;
#X connect 8 0 0 0;
#X connect 8 1 12 0;
#X connect 8 2 7 0;
#X connect 9 0 8 0;
#X connect 12 0 2 0;
