#N canvas 643 74 399 329 10;
#X msg 109 89 foo.pd;
#X msg 60 56 relative/path/baz.pd;
#X symbolatom 109 232 0 0 0 0 dirname - -;
#X symbolatom 196 201 0 0 0 0 basename - -;
#X msg 137 132 /absolute/hello/world/foo/bar.pd;
#X obj 109 167 p_splitfilename;
#X text 29 18 split a filename into dir and base names;
#X text 18 275 it is currently assumed paths components are separated
by /;
#X connect 0 0 5 0;
#X connect 1 0 5 0;
#X connect 4 0 5 0;
#X connect 5 0 2 0;
#X connect 5 1 3 0;
