#N canvas 466 94 662 408 10;
#N canvas 496 105 387 156 defaults 0;
#X obj 21 12 inlet;
#X obj 58 43 loadbang;
#X obj 21 118 outlet;
#X msg 21 78 cutoff 0.724 \, q 0.645 \, mod 0.874 \, A 0.07 \, D 0.253
\, S 0.259 \, R 0.598 \, waveform 0;
#X connect 0 0 3 0;
#X connect 1 0 3 0;
#X connect 3 0 2 0;
#X restore 532 44 pd defaults;
#X obj 106 160 clip 0 127;
#X obj 241 161 *;
#X obj 241 130 / 3;
#X obj 363 132 / 3;
#X obj 363 165 *;
#X obj 179 161 *;
#X obj 179 130 / 3;
#X obj 179 75 clip 0 1;
#X obj 241 75 clip 0 1;
#X obj 298 75 clip 0 1;
#X obj 363 77 clip 0 1;
#X obj 363 104 * 127;
#X obj 298 194 * 100;
#X obj 133 369 outlet~;
#X obj 133 336 *~;
#X obj 179 104 * 100;
#X obj 241 101 * 100;
#X obj 49 74 unpack 0 0;
#X obj 8 160 stripnote;
#X obj 148 251 c_adsr 0.75 7.24 173 37.6 492;
#X obj 106 188 / 127;
#X obj 106 210 t a a;
#X obj 179 45 r \$0-A;
#X obj 241 45 r \$0-D;
#X obj 298 45 r \$0-S;
#X obj 363 46 r \$0-R;
#X obj 511 139 u_dispatch \$0 A;
#X obj 511 161 u_dispatch \$0 D;
#X obj 511 181 u_dispatch \$0 S;
#X obj 511 202 u_dispatch \$0 R;
#X obj 448 46 route reset;
#N canvas 172 83 586 377 LICENSE-GPL 0;
#X text 57 88 This program is free software: you can redistribute it
and/or modify it under the terms of the GNU General Public License
as published by the Free Software Foundation \, either version 3 of
the License \, or (at your option) any later version.;
#X text 58 168 This program is distributed in the hope that it will
be useful \, but WITHOUT ANY WARRANTY \; without even the implied warranty
of MERCHANTABILITY or FITNESS FOR A PARTICULAR PURPOSE. See the GNU
General Public License for more details.;
#X text 57 261 You should have received a copy of the GNU General Public
License along with this program. If not \, see <http://www.gnu.org/licenses/>.
;
#X text 60 325 See the file LICENSE.txt for the full license text.
;
#X text 56 54 Copyright (C) 2012 \, Dan Wilcox <danomatika@gmail.com>
;
#X restore 417 329 pd LICENSE-GPL;
#X obj 37 7 inlet notes;
#X obj 448 8 inlet control;
#X obj 511 74 u_dispatch \$0 cutoff;
#X obj 511 95 u_dispatch \$0 q;
#X obj 511 117 u_dispatch \$0 mod;
#X text 530 342 damian@frey.co.nz;
#X text 530 327 damian stewart 2008;
#X text 533 373 GPL v3;
#X text 532 298 d-303;
#X text 189 355 adapted from a prerelease of d-303;
#X text 189 370 which is under GPL v3 which means this is GPL v3;
#X text 188 331 danomatika.com | robotcowboy.com;
#N canvas 84 154 264 431 filter 0;
#X obj 15 16 inlet~;
#X obj 44 61 inlet~ env;
#X obj 15 401 outlet~;
#X obj 171 213 * 127;
#X obj 171 240 mtof;
#X obj 171 265 + 200;
#X obj 170 313 r \$0-q;
#X obj 170 339 clip 0 1;
#X obj 171 187 clip 0 1;
#X obj 171 163 r \$0-cutoff;
#X obj 15 366 e_moog 2000 0.5;
#X obj 44 179 *~ 1;
#X obj 90 104 r \$0-mod;
#X obj 90 130 clip 0 1;
#X obj 117 179 - 1;
#X obj 44 224 +~ 0;
#X obj 117 203 abs;
#X obj 90 154 t f f;
#X connect 0 0 10 0;
#X connect 1 0 11 0;
#X connect 3 0 4 0;
#X connect 4 0 5 0;
#X connect 5 0 10 2;
#X connect 6 0 7 0;
#X connect 7 0 10 3;
#X connect 8 0 3 0;
#X connect 9 0 8 0;
#X connect 10 0 2 0;
#X connect 11 0 15 0;
#X connect 12 0 13 0;
#X connect 13 0 17 0;
#X connect 14 0 16 0;
#X connect 15 0 10 1;
#X connect 16 0 15 1;
#X connect 17 0 11 1;
#X connect 17 1 14 0;
#X restore 8 286 pd filter;
#X text 189 319 Dan Wilcox 2009 \, 2013;
#X obj 511 224 u_dispatch \$0 waveform;
#N canvas 608 115 575 346 saw 0;
#X obj 15 64 mtof;
#X obj 408 173 osc~;
#X obj 408 197 *~ 100;
#X obj 408 221 clip~ -1 1;
#X obj 408 73 + 0.1;
#X obj 408 105 mtof;
#X obj 15 16 inlet;
#X obj 250 293 outlet~;
#X obj 15 181 clip~ -1 1;
#X obj 15 131 -~ 0.5;
#X obj 15 108 s_blsaw;
#X obj 250 103 s_blsquare;
#X obj 250 251 c_spigot;
#X obj 15 255 c_spigot;
#X obj 250 180 clip~ -1 1;
#X obj 134 152 r \$0-waveform;
#X obj 134 180 sel 0 1;
#X msg 60 227 1;
#X msg 89 227 0;
#X msg 321 225 1;
#X msg 295 226 0;
#X obj 250 130 -~ 0.5;
#X obj 15 155 *~ 1.8;
#X obj 250 154 *~ 1.8;
#X obj 408 247 *~ 0.1;
#X obj 278 74 sig~ 0.25;
#X text 341 297 slightly off tuned square for flavor;
#X connect 0 0 10 0;
#X connect 0 0 11 0;
#X connect 1 0 2 0;
#X connect 2 0 3 0;
#X connect 3 0 24 0;
#X connect 4 0 5 0;
#X connect 5 0 1 0;
#X connect 6 0 0 0;
#X connect 6 0 4 0;
#X connect 8 0 13 0;
#X connect 9 0 22 0;
#X connect 10 0 9 0;
#X connect 11 0 21 0;
#X connect 12 0 7 0;
#X connect 13 0 7 0;
#X connect 14 0 12 0;
#X connect 15 0 16 0;
#X connect 16 0 17 0;
#X connect 16 0 20 0;
#X connect 16 1 18 0;
#X connect 16 1 19 0;
#X connect 17 0 13 1;
#X connect 18 0 13 1;
#X connect 19 0 12 1;
#X connect 20 0 12 1;
#X connect 21 0 23 0;
#X connect 22 0 8 0;
#X connect 23 0 14 0;
#X connect 24 0 7 0;
#X connect 25 0 11 1;
#X restore 8 252 pd saw or square;
#X obj 462 255 u_loader s_303-\$1 \$0;
#X connect 0 0 35 0;
#X connect 1 0 21 0;
#X connect 2 0 20 3;
#X connect 3 0 2 1;
#X connect 3 0 2 0;
#X connect 4 0 5 1;
#X connect 4 0 5 0;
#X connect 5 0 20 5;
#X connect 6 0 20 2;
#X connect 7 0 6 1;
#X connect 7 0 6 0;
#X connect 8 0 16 0;
#X connect 9 0 17 0;
#X connect 10 0 13 0;
#X connect 11 0 12 0;
#X connect 12 0 4 0;
#X connect 13 0 20 4;
#X connect 15 0 14 0;
#X connect 16 0 7 0;
#X connect 17 0 3 0;
#X connect 18 1 1 0;
#X connect 19 0 48 0;
#X connect 20 0 15 1;
#X connect 20 0 45 1;
#X connect 21 0 22 0;
#X connect 22 0 20 0;
#X connect 22 1 20 1;
#X connect 23 0 8 0;
#X connect 24 0 9 0;
#X connect 25 0 10 0;
#X connect 26 0 11 0;
#X connect 27 0 28 0;
#X connect 28 0 29 0;
#X connect 29 0 30 0;
#X connect 30 0 47 0;
#X connect 31 0 0 0;
#X connect 31 1 35 0;
#X connect 33 0 18 0;
#X connect 33 0 19 0;
#X connect 34 0 31 0;
#X connect 35 0 36 0;
#X connect 36 0 37 0;
#X connect 37 0 27 0;
#X connect 45 0 15 0;
#X connect 48 0 45 0;
