#N canvas 149 184 594 256 10;
#X obj 18 -99 inlet;
#X obj 18 114 outlet~;
#X text 272 14 damian@frey.co.nz;
#X text 272 -1 damian stewart 2008;
#X text 275 45 GPL v3;
#X text 274 -30 808 cymbal;
#X obj 103 3 t b f;
#X obj 64 -24 moses 1;
#X text 115 -23 no noteoffs!;
#N canvas 0 22 450 300 vel*amp 0;
#X obj 90 -126 / 127;
#X obj 150 -15 * 1;
#X obj 138 -78 t b f;
#X obj 138 -47 f 1;
#X obj 138 -102 clip 0 1;
#X obj 90 -160 inlet;
#X obj 138 -133 inlet;
#X obj 150 21 outlet;
#X connect 0 0 3 0;
#X connect 1 0 7 0;
#X connect 2 0 3 0;
#X connect 2 1 1 1;
#X connect 3 0 1 0;
#X connect 4 0 2 0;
#X connect 5 0 0 0;
#X connect 6 0 4 0;
#X restore 130 40 pd vel*amp;
#X text 127 117 both under GPL v3 which means this is GPL v3;
#X text 127 102 adapted from d-808cy~ & d-808brain~;
#N canvas 496 105 387 156 defaults 0;
#X obj 21 12 inlet;
#X obj 58 43 loadbang;
#X obj 21 118 outlet;
#X msg 21 78 amp 0.5 \, tone 0 \, decay 0 \, tune 0.5;
#X connect 0 0 3 0;
#X connect 1 0 3 0;
#X connect 3 0 2 0;
#X restore 480 -53 pd defaults;
#X obj 396 -53 route reset;
#X obj 396 -87 inlet control;
#X obj 459 -25 u_dispatch \$0 amp;
#X obj 459 -4 u_dispatch \$0 tone;
#X obj 459 18 u_dispatch \$0 decay;
#X obj 459 40 u_dispatch \$0 tune;
#X obj 410 73 u_loader s_808cymbal-\$1 \$0;
#N canvas 0 22 413 327 guts 0;
#X obj 80 290 outlet~;
#X obj 7 120 *~ 1;
#X obj 160 120 *~ 1;
#X obj 80 119 *~ 1;
#X obj 28 99 tgl 15 0 empty empty empty 17 7 0 10 -262144 -1 -1 0 1
;
#X obj 101 99 tgl 15 0 empty empty empty 17 7 0 10 -262144 -1 -1 0
1;
#X obj 181 101 tgl 15 0 empty empty empty 17 7 0 10 -262144 -1 -1 0
1;
#X obj 165 291 switch~;
#X msg 137 231 0;
#X obj 165 182 r \$0-trigger;
#X msg 217 209 0;
#X obj 165 265 ||;
#X msg 165 209 1;
#X obj 217 235 t b a;
#N canvas 8 71 430 300 squares_noise_and_filters 0;
#X obj 107 261 outlet~;
#N canvas 65 314 793 317 squares 0;
#X obj 402 176 *~ 0.7;
#X obj 23 170 *~ 0.9;
#X text 668 202 808 support;
#X text 666 246 damian@frey.co.nz;
#X text 666 231 damian stewart 2008;
#X text 669 277 GPL v3;
#X obj 548 101 * 549.5;
#X obj 402 99 * 539.95;
#X obj 23 94 * 210.2;
#X obj 140 99 * 320.09;
#X obj 253 100 * 379.973;
#X obj 673 104 * 799.957;
#X obj 254 259 +~;
#X obj 254 290 outlet~;
#X obj 253 16 inlet;
#X obj 402 125 ftom;
#X obj 253 123 ftom;
#X obj 140 123 ftom;
#X obj 23 120 ftom;
#X obj 548 126 ftom;
#X obj 673 128 ftom;
#N canvas 0 22 379 389 square 0;
#X obj 35 319 outlet~;
#X obj 61 112 mtof;
#X obj 34 50 sel 0;
#X msg 34 79 0;
#X obj 34 20 inlet midi;
#X obj 34 290 clip~ -1 1;
#X obj 34 265 *~ 1000;
#X obj 34 204 osc~ 210.2;
#X connect 1 0 7 0;
#X connect 2 0 3 0;
#X connect 2 1 1 0;
#X connect 3 0 7 0;
#X connect 4 0 2 0;
#X connect 5 0 0 0;
#X connect 6 0 5 0;
#X connect 7 0 6 0;
#X restore 23 145 pd square 210.2;
#N canvas 0 22 379 389 square 0;
#X obj 35 319 outlet~;
#X obj 61 112 mtof;
#X obj 34 50 sel 0;
#X msg 34 79 0;
#X obj 34 20 inlet midi;
#X obj 34 290 clip~ -1 1;
#X obj 34 265 *~ 1000;
#X obj 34 204 osc~ 320.09;
#X connect 1 0 7 0;
#X connect 2 0 3 0;
#X connect 2 1 1 0;
#X connect 3 0 7 0;
#X connect 4 0 2 0;
#X connect 5 0 0 0;
#X connect 6 0 5 0;
#X connect 7 0 6 0;
#X restore 140 147 pd square 320.09;
#N canvas 0 22 379 389 square 0;
#X obj 35 319 outlet~;
#X obj 61 112 mtof;
#X obj 34 50 sel 0;
#X msg 34 79 0;
#X obj 34 20 inlet midi;
#X obj 34 290 clip~ -1 1;
#X obj 34 265 *~ 1000;
#X obj 34 204 osc~ 379.973;
#X connect 1 0 7 0;
#X connect 2 0 3 0;
#X connect 2 1 1 0;
#X connect 3 0 7 0;
#X connect 4 0 2 0;
#X connect 5 0 0 0;
#X connect 6 0 5 0;
#X connect 7 0 6 0;
#X restore 253 147 pd square 379.973;
#N canvas 4 46 379 389 square 0;
#X obj 35 319 outlet~;
#X obj 61 112 mtof;
#X obj 34 50 sel 0;
#X msg 34 79 0;
#X obj 34 20 inlet midi;
#X obj 34 290 clip~ -1 1;
#X obj 34 265 *~ 1000;
#X obj 34 204 osc~ 539.95;
#X connect 1 0 7 0;
#X connect 2 0 3 0;
#X connect 2 1 1 0;
#X connect 3 0 7 0;
#X connect 4 0 2 0;
#X connect 5 0 0 0;
#X connect 6 0 5 0;
#X connect 7 0 6 0;
#X restore 402 150 pd square 539.95;
#N canvas 4 51 379 389 square 0;
#X obj 35 319 outlet~;
#X obj 61 112 mtof;
#X obj 34 50 sel 0;
#X msg 34 79 0;
#X obj 34 20 inlet midi;
#X obj 34 290 clip~ -1 1;
#X obj 34 265 *~ 1000;
#X obj 34 204 osc~ 549.5;
#X connect 1 0 7 0;
#X connect 2 0 3 0;
#X connect 2 1 1 0;
#X connect 3 0 7 0;
#X connect 4 0 2 0;
#X connect 5 0 0 0;
#X connect 6 0 5 0;
#X connect 7 0 6 0;
#X restore 548 150 pd square 549.5;
#N canvas 0 22 379 389 square 0;
#X obj 35 319 outlet~;
#X obj 61 112 mtof;
#X obj 34 50 sel 0;
#X msg 34 79 0;
#X obj 34 20 inlet midi;
#X obj 34 290 clip~ -1 1;
#X obj 34 265 *~ 1000;
#X obj 34 204 osc~ 799.957;
#X connect 1 0 7 0;
#X connect 2 0 3 0;
#X connect 2 1 1 0;
#X connect 3 0 7 0;
#X connect 4 0 2 0;
#X connect 5 0 0 0;
#X connect 6 0 5 0;
#X connect 7 0 6 0;
#X restore 673 153 pd square 799.957;
#X connect 0 0 12 1;
#X connect 1 0 12 0;
#X connect 6 0 19 0;
#X connect 7 0 15 0;
#X connect 8 0 18 0;
#X connect 9 0 17 0;
#X connect 10 0 16 0;
#X connect 11 0 20 0;
#X connect 12 0 13 0;
#X connect 14 0 6 0;
#X connect 14 0 7 0;
#X connect 14 0 8 0;
#X connect 14 0 9 0;
#X connect 14 0 10 0;
#X connect 14 0 11 0;
#X connect 15 0 24 0;
#X connect 16 0 23 0;
#X connect 17 0 22 0;
#X connect 18 0 21 0;
#X connect 19 0 25 0;
#X connect 20 0 26 0;
#X connect 21 0 1 0;
#X connect 22 0 12 0;
#X connect 23 0 12 0;
#X connect 24 0 0 0;
#X connect 25 0 12 1;
#X connect 26 0 12 1;
#X restore 107 123 pd squares;
#X text 37 16 damian did lots of listening ... good job damian!;
#X obj 107 47 r \$0-tune;
#X obj 107 151 bp~ 3462 0.3;
#X obj 107 233 clip~ -1 1;
#X obj 107 177 hip~ 6700;
#X obj 107 203 hip~ 6700;
#X obj 107 98 * 2;
#X obj 107 72 clip 0 1;
#X connect 1 0 4 0;
#X connect 3 0 9 0;
#X connect 4 0 6 0;
#X connect 5 0 0 0;
#X connect 6 0 7 0;
#X connect 7 0 5 0;
#X connect 8 0 1 0;
#X connect 9 0 8 0;
#X restore 80 17 pd squares_noise_and_filters;
#N canvas 8 71 326 645 hf 0;
#X obj 56 28 inlet~;
#X obj 56 605 outlet~;
#X obj 144 293 hsl 128 15 200 22050 1 0 empty empty empty -2 -8 0 10
-262144 -1 -1 0 1;
#X obj 219 356 vsl 15 128 0.1 100 1 0 empty empty empty 0 -9 0 10 -262144
-1 -1 0 1;
#X floatatom 219 494 5 0 0 0 - - -, f 5;
#X floatatom 172 314 5 0 0 0 - - -, f 5;
#X text 188 69 hf bits;
#X obj 66 413 hsl 128 15 200 22050 1 0 empty empty empty -2 -8 0 10
-262144 -1 -1 0 1;
#X floatatom 117 433 5 0 0 0 - - -, f 5;
#X obj 56 321 bp~ 6033 7.8;
#X obj 56 438 hip~ 2390;
#X obj 56 461 hip~ 2390;
#X obj 187 268 + 2.5;
#X obj 81 390 + 2390;
#X obj 81 367 * 7500;
#X obj 56 577 *~ 1.4;
#X obj 89 553 + 1.4;
#X obj 89 531 * -0.4;
#X obj 77 64 r \$0-trigger;
#N canvas 143 219 339 469 hfenv 0;
#X obj 217 190 + 400;
#X obj 217 163 * 800;
#X obj 113 133 * 10;
#X obj 217 211 * 1;
#X obj 267 163 t b a;
#X obj 45 190 + 0;
#X obj 113 90 * 0.9;
#X obj 113 109 + 0.1;
#X obj 73 190 * 1.6;
#X obj 267 142 + 0.4;
#X obj 267 120 * 0.6;
#X obj 141 190 * 2.2;
#X obj 24 18 inlet trigger;
#X obj 217 20 inlet decay;
#X obj 113 19 inlet tone;
#X obj 24 215 f 10;
#X obj 24 43 bang;
#X obj 113 190 + 1;
#X obj 156 71 -;
#X msg 156 46 1 \$1;
#X obj 156 97 *;
#X obj 69 396 line;
#X obj 69 295 del 11;
#X obj 172 298 del 44;
#X msg 172 326 0;
#X obj 172 354 pack f f;
#X obj 69 350 pack f f;
#X msg 69 323 0.8;
#X msg 24 294 1 \$1;
#X obj 69 428 outlet;
#X obj 24 256 t f b b;
#X connect 0 0 3 0;
#X connect 1 0 0 0;
#X connect 2 0 5 0;
#X connect 2 0 8 0;
#X connect 2 0 11 0;
#X connect 2 0 17 0;
#X connect 3 0 25 1;
#X connect 4 0 0 0;
#X connect 4 1 3 1;
#X connect 5 0 15 1;
#X connect 6 0 7 0;
#X connect 7 0 2 0;
#X connect 8 0 26 1;
#X connect 9 0 4 0;
#X connect 10 0 9 0;
#X connect 11 0 23 1;
#X connect 12 0 16 0;
#X connect 13 0 1 0;
#X connect 14 0 19 0;
#X connect 15 0 30 0;
#X connect 16 0 15 0;
#X connect 17 0 22 1;
#X connect 18 0 20 0;
#X connect 18 0 20 1;
#X connect 19 0 18 0;
#X connect 20 0 6 0;
#X connect 20 0 10 0;
#X connect 21 0 29 0;
#X connect 22 0 27 0;
#X connect 23 0 24 0;
#X connect 24 0 25 0;
#X connect 25 0 21 0;
#X connect 26 0 21 0;
#X connect 27 0 26 0;
#X connect 28 0 21 0;
#X connect 30 0 28 0;
#X connect 30 1 22 0;
#X connect 30 2 23 0;
#X restore 77 152 pd hfenv;
#X obj 187 249 * 8;
#X obj 89 511 *;
#N canvas 8 71 450 300 lin2exp 0;
#X text 159 40 linear-to-exp curve converter;
#X text 182 98 adapted from d-lin-to-exp;
#X obj 33 18 inlet;
#X obj 33 148 * 0.010101;
#X obj 33 125 - 1;
#X obj 33 104 exp;
#X obj 33 76 * 4.602;
#X obj 33 43 clip 0 1;
#X obj 33 197 outlet;
#X connect 2 0 7 0;
#X connect 3 0 8 0;
#X connect 4 0 3 0;
#X connect 5 0 4 0;
#X connect 6 0 5 0;
#X connect 7 0 6 0;
#X restore 77 187 pd lin2exp;
#X obj 187 199 -;
#X msg 187 174 1 \$1;
#X obj 187 225 *;
#X obj 56 288 *~ 0;
#X obj 99 98 r \$0-tone-int;
#X obj 122 125 r \$0-decay-int;
#X obj 187 146 r \$0-tone-int;
#X obj 89 489 r \$0-tone-int;
#X obj 81 343 r \$0-tone-int;
#X connect 0 0 26 0;
#X connect 2 0 5 0;
#X connect 2 0 9 1;
#X connect 3 0 4 0;
#X connect 3 0 9 2;
#X connect 7 0 8 0;
#X connect 7 0 10 1;
#X connect 7 0 11 1;
#X connect 9 0 10 0;
#X connect 10 0 11 0;
#X connect 11 0 15 0;
#X connect 12 0 9 2;
#X connect 13 0 10 1;
#X connect 13 0 11 1;
#X connect 14 0 13 0;
#X connect 15 0 1 0;
#X connect 16 0 15 1;
#X connect 17 0 16 0;
#X connect 18 0 19 0;
#X connect 19 0 22 0;
#X connect 20 0 12 0;
#X connect 21 0 17 0;
#X connect 22 0 26 1;
#X connect 23 0 25 0;
#X connect 23 0 25 1;
#X connect 24 0 23 0;
#X connect 25 0 20 0;
#X connect 26 0 9 0;
#X connect 27 0 19 1;
#X connect 28 0 19 2;
#X connect 29 0 24 0;
#X connect 30 0 21 0;
#X connect 30 0 21 1;
#X connect 31 0 14 0;
#X restore 7 147 pd hf bits;
#N canvas 263 153 408 537 mf 0;
#X obj 73 58 r \$0-trigger;
#X obj 124 243 hsl 128 15 200 22050 1 0 empty empty empty -2 -8 0 10
-262144 -1 -1 0 1;
#X obj 124 263 hsl 128 15 200 22050 1 0 empty empty empty -2 -8 0 10
-262144 -1 -1 0 1;
#X floatatom 268 256 5 0 0 0 - - -, f 5;
#X floatatom 265 280 5 0 0 0 - - -, f 5;
#X obj 131 139 pack 0 1800;
#X obj 131 115 del 200;
#X obj 110 298 hsl 128 15 200 22050 1 0 empty empty empty -2 -8 0 10
-262144 -1 -1 0 1;
#X floatatom 117 329 10 0 0 0 - - -, f 10;
#X obj 170 324 vsl 15 128 0.1 100 1 0 empty empty empty 0 -9 0 10 -262144
-1 -1 0 1;
#X floatatom 193 434 5 0 0 0 - - -, f 5;
#X obj 23 308 bp~ 3031 12;
#X obj 23 259 hip~ 2300;
#X obj 23 280 hip~ 2300;
#X obj 288 111 + 600;
#X obj 73 116 del 22;
#X text 345 89 mf bits;
#X obj 22 471 *~ 1.4;
#X msg 73 138 0.7 200;
#X msg 32 115 1 10;
#X obj 23 228 *~;
#X obj 55 425 * 0.8;
#X obj 211 412 + 6;
#X obj 211 390 * -4;
#X obj 55 449 + 1;
#X obj 143 197 * 1428;
#X obj 143 219 + 2300;
#X obj 243 156 del 2300;
#X obj 288 89 * 3000;
#N canvas 0 22 450 300 lin2exp 0;
#X text 159 40 linear-to-exp curve converter;
#X text 182 98 adapted from d-lin-to-exp;
#X obj 33 18 inlet;
#X obj 33 197 outlet~;
#X obj 33 171 sig~;
#X obj 33 148 * 0.010101;
#X obj 33 125 - 1;
#X obj 33 104 exp;
#X obj 33 76 * 4.602;
#X obj 33 43 clip 0 1;
#X connect 2 0 9 0;
#X connect 4 0 3 0;
#X connect 5 0 4 0;
#X connect 6 0 5 0;
#X connect 7 0 6 0;
#X connect 8 0 7 0;
#X connect 9 0 8 0;
#X restore 73 196 pd lin2exp;
#X obj 73 168 line;
#X obj 243 183 outlet;
#X obj 22 499 outlet~;
#X obj 23 18 inlet~;
#X obj 55 401 -;
#X msg 55 376 1 \$1;
#X obj 211 366 *;
#X obj 143 172 r \$0-tone-int;
#X obj 288 57 r \$0-decay-int;
#X obj 55 350 r \$0-tone-int;
#X obj 211 342 r \$0-tone-int;
#X connect 0 0 6 0;
#X connect 0 0 15 0;
#X connect 0 0 19 0;
#X connect 1 0 3 0;
#X connect 1 0 12 1;
#X connect 1 0 13 1;
#X connect 2 0 4 0;
#X connect 5 0 30 0;
#X connect 6 0 5 0;
#X connect 6 0 27 0;
#X connect 7 0 8 0;
#X connect 7 0 11 1;
#X connect 9 0 10 0;
#X connect 9 0 11 2;
#X connect 11 0 17 0;
#X connect 12 0 13 0;
#X connect 13 0 11 0;
#X connect 14 0 5 1;
#X connect 14 0 27 1;
#X connect 15 0 18 0;
#X connect 17 0 32 0;
#X connect 18 0 30 0;
#X connect 19 0 30 0;
#X connect 20 0 12 0;
#X connect 21 0 24 0;
#X connect 22 0 11 2;
#X connect 23 0 22 0;
#X connect 24 0 17 1;
#X connect 25 0 26 0;
#X connect 26 0 12 1;
#X connect 26 0 13 1;
#X connect 27 0 31 0;
#X connect 28 0 14 0;
#X connect 29 0 20 1;
#X connect 30 0 29 0;
#X connect 33 0 20 0;
#X connect 34 0 21 0;
#X connect 35 0 34 0;
#X connect 36 0 23 0;
#X connect 37 0 25 0;
#X connect 38 0 28 0;
#X connect 39 0 35 0;
#X connect 40 0 36 0;
#X connect 40 0 36 1;
#X restore 80 146 pd mf bits;
#N canvas 8 71 462 606 lf 0;
#X obj -102 21 inlet~;
#X obj -102 561 outlet~;
#X obj 164 561 outlet;
#X obj -102 331 *~;
#X obj -44 157 del 6;
#X text 79 239 exp gradient;
#X obj -44 317 hsl 128 15 200 22050 1 0 empty empty empty -2 -8 0 10
-262144 -1 -1 0 1;
#X floatatom -41 351 10 0 0 0 - - -, f 10;
#X obj 81 156 del 300;
#X obj 81 190 pack 0 2300;
#X obj -102 417 hip~ 3728;
#X obj -102 395 lop~ 3728;
#X text -31 21 lf bits;
#X obj 20 112 r \$0-trigger;
#X obj -102 372 lop~ 3728;
#X obj -44 191 pack 1 60;
#X obj -80 166 + 2;
#X obj -80 146 * 58;
#X obj -57 502 + 0.125;
#X obj 20 156 del 70;
#X msg 20 189 0.86 200;
#X obj 36 419 + 4200;
#X obj 36 396 * 10786;
#X obj -102 527 *~ 0.125;
#X obj -57 480 * -0.06;
#X obj 164 212 del 2300;
#X obj 209 167 + 1000;
#X obj 209 144 * 700;
#N canvas 0 22 450 300 lin2exp 0;
#X text 159 40 linear-to-exp curve converter;
#X text 182 98 adapted from d-lin-to-exp;
#X obj 33 18 inlet;
#X obj 33 197 outlet~;
#X obj 33 171 sig~;
#X obj 33 148 * 0.010101;
#X obj 33 125 - 1;
#X obj 33 104 exp;
#X obj 33 76 * 4.602;
#X obj 33 43 clip 0 1;
#X connect 2 0 9 0;
#X connect 4 0 3 0;
#X connect 5 0 4 0;
#X connect 6 0 5 0;
#X connect 7 0 6 0;
#X connect 8 0 7 0;
#X connect 9 0 8 0;
#X restore 20 265 pd lin2exp;
#X obj 20 242 * 1;
#X obj 20 222 line;
#X obj 36 375 *;
#X obj -80 121 -;
#X msg -80 97 1 \$1;
#X obj -80 72 r \$0-tone-int;
#X obj 209 116 r \$0-decay-int;
#X obj 36 352 r \$0-tone-int;
#X obj -57 459 r \$0-tone-int;
#X connect 0 0 3 0;
#X connect 3 0 14 0;
#X connect 4 0 15 0;
#X connect 6 0 7 0;
#X connect 6 0 10 1;
#X connect 6 0 14 1;
#X connect 8 0 9 0;
#X connect 9 0 30 0;
#X connect 10 0 23 0;
#X connect 11 0 10 0;
#X connect 13 0 8 0;
#X connect 13 0 4 0;
#X connect 13 0 19 0;
#X connect 13 0 25 0;
#X connect 14 0 11 0;
#X connect 15 0 30 0;
#X connect 16 0 15 1;
#X connect 17 0 16 0;
#X connect 18 0 23 1;
#X connect 19 0 20 0;
#X connect 20 0 30 0;
#X connect 21 0 14 1;
#X connect 21 0 11 1;
#X connect 21 0 10 1;
#X connect 22 0 21 0;
#X connect 23 0 1 0;
#X connect 24 0 18 0;
#X connect 25 0 2 0;
#X connect 26 0 9 1;
#X connect 26 0 25 1;
#X connect 27 0 26 0;
#X connect 28 0 3 1;
#X connect 29 0 28 0;
#X connect 30 0 29 0;
#X connect 31 0 22 0;
#X connect 32 0 17 0;
#X connect 33 0 32 0;
#X connect 34 0 33 0;
#X connect 35 0 27 0;
#X connect 36 0 31 0;
#X connect 36 0 31 1;
#X connect 37 0 24 0;
#X restore 160 147 pd lf bits;
#X obj 80 212 *~ 2;
#X obj 283 144 r \$0-tone;
#X obj 283 197 s \$0-tone-int;
#X obj 283 171 clip 0 1;
#X obj 283 263 clip 0 1;
#X obj 283 236 r \$0-decay;
#X obj 283 289 s \$0-decay-int;
#X obj 283 70 inlet;
#X obj 283 102 s \$0-trigger;
#X msg 327 70 bang;
#X connect 1 0 15 0;
#X connect 2 0 17 0;
#X connect 3 0 16 0;
#X connect 4 0 1 1;
#X connect 5 0 3 1;
#X connect 6 0 2 1;
#X connect 8 0 11 0;
#X connect 9 0 12 0;
#X connect 10 0 13 0;
#X connect 11 0 7 0;
#X connect 12 0 11 0;
#X connect 12 0 11 1;
#X connect 13 0 11 0;
#X connect 13 1 11 1;
#X connect 14 0 2 0;
#X connect 14 0 3 0;
#X connect 14 0 1 0;
#X connect 15 0 18 0;
#X connect 16 0 18 0;
#X connect 16 1 8 0;
#X connect 17 0 18 0;
#X connect 17 1 10 0;
#X connect 18 0 0 0;
#X connect 19 0 21 0;
#X connect 21 0 20 0;
#X connect 22 0 24 0;
#X connect 23 0 22 0;
#X connect 25 0 26 0;
#X connect 27 0 26 0;
#X restore 18 42 pd guts;
#X obj 18 -59 route bang float;
#X obj 18 75 *~ 0.5;
#X text 129 -96 an 808 cymbal emulation;
#N canvas 172 83 586 377 LICENSE-GPL 0;
#X text 57 88 This program is free software: you can redistribute it
and/or modify it under the terms of the GNU General Public License
as published by the Free Software Foundation \, either version 3 of
the License \, or (at your option) any later version.;
#X text 58 168 This program is distributed in the hope that it will
be useful \, but WITHOUT ANY WARRANTY \; without even the implied warranty
of MERCHANTABILITY or FITNESS FOR A PARTICULAR PURPOSE. See the GNU
General Public License for more details.;
#X text 57 261 You should have received a copy of the GNU General Public
License along with this program. If not \, see <http://www.gnu.org/licenses/>.
;
#X text 60 325 See the file LICENSE.txt for the full license text.
;
#X text 56 54 Copyright (C) 2009 \, 2013 Dan Wilcox <danomatika@gmail.com>
;
#X restore 483 115 pd LICENSE-GPL;
#X connect 0 0 21 0;
#X connect 6 0 20 0;
#X connect 6 1 9 0;
#X connect 7 1 6 0;
#X connect 9 0 22 1;
#X connect 12 0 15 0;
#X connect 13 0 12 0;
#X connect 13 1 15 0;
#X connect 14 0 13 0;
#X connect 15 0 16 0;
#X connect 16 0 17 0;
#X connect 17 0 18 0;
#X connect 20 0 22 0;
#X connect 21 0 20 0;
#X connect 21 1 7 0;
#X connect 21 2 9 1;
#X connect 22 0 1 0;
