#N canvas 643 59 577 282 10;
#X obj 40 17 inlet;
#X obj 40 236 outlet~;
#X obj 125 134 t b f;
#X text 129 225 Adapted from Andy Farnell's AnalogDrumEngine.pd;
#N canvas 161 34 330 665 guts 0;
#X obj 25 10 inlet trigger;
#X obj 27 621 outlet~;
#X obj 27 329 *~;
#X obj 27 558 hip~ 5;
#N canvas 689 261 399 302 notes 0;
#X text 15 31 details garnered from listeing to samples and adjusting
;
#X text 11 94 tone knob;
#X text 23 61 tone_knob decay_knob decay lop click_amp;
#X text 88 100 50 0 200 780 0.7;
#X text 88 124 99 0 200 1001.3 0.9;
#X text 87 80 0 0 200 300 0.5;
#X text 12 192 decay knob;
#X text 24 146 tone knob only seems to change click amp and lop \,
linear?;
#X text 30 252 decay knob only changes decay (suprise) \, non linear
;
#X text 92 187 0 25 600 300 0.5;
#X text 93 217 0 75 3700 300 0.5;
#X text 92 203 0 50 1800 300 0.5;
#X text 94 233 0 99 6500 300 0.5;
#X text 91 170 0 0 200 300 0.5;
#X restore 248 51 pd notes;
#N canvas 4 51 546 457 make_click 0;
#X obj 52 14 inlet~;
#X obj 50 407 outlet~;
#X obj 223 37 inlet;
#X obj 77 90 r \$0-tone;
#X obj 77 196 sig~ 1;
#X msg 223 99 0;
#X msg 274 157 1;
#X obj 223 69 t b b;
#X obj 274 128 t b b;
#X msg 301 244 1;
#X msg 328 245 0;
#X obj 301 216 t b b;
#X text 344 266 turn on audio;
#X text 367 199 put out flat click for 2 ms;
#X obj 301 185 delay 2;
#X text 76 54 tone 0 - 0.5 - 1;
#X text 77 70 amp 0.5 - 0.71 - 0.9;
#X obj 77 121 expr $f1*0.4 + 0.5;
#X text 321 124 turn off audio for 2 ms;
#X obj 274 101 delay 2;
#X obj 51 362 *~ 1;
#X obj 170 378 *~ 0;
#X text 89 165 click level;
#X connect 0 0 20 0;
#X connect 2 0 7 0;
#X connect 3 0 17 0;
#X connect 4 0 21 0;
#X connect 5 0 20 1;
#X connect 5 0 21 1;
#X connect 6 0 21 1;
#X connect 7 0 5 0;
#X connect 7 1 19 0;
#X connect 8 0 6 0;
#X connect 8 1 14 0;
#X connect 9 0 20 1;
#X connect 10 0 21 1;
#X connect 11 0 9 0;
#X connect 11 1 10 0;
#X connect 14 0 11 0;
#X connect 17 0 4 0;
#X connect 19 0 8 0;
#X connect 20 0 1 0;
#X connect 21 0 1 0;
#X restore 27 356 pd make_click;
#X obj 27 529 lop~ 300 1;
#X text 153 448 tone 0 - 0.5 - 1;
#X text 153 469 lop 300 - 780 - 1000;
#X obj 84 446 r \$0-tone;
#X obj 84 498 expr $f1*700 + 300;
#X obj 27 446 *~;
#X obj 42 418 vline~;
#X obj 42 391 r \$0-cutoff;
#X obj 25 47 t b b;
#X obj 25 128 t b b b b b;
#X msg 131 184 \; \$1-cutoff 1;
#X obj 124 68 f \$0;
#X obj 131 159 f \$0;
#X text 172 159 no overlap clicks!;
#X msg 124 93 \; \$1-cutoff 0 5;
#X obj 25 96 delay 5;
#X obj 84 473 clip 0 1;
#X obj 124 10 inlet off;
#X msg 124 35 bang;
#N canvas 0 22 472 526 osc 0;
#X obj 47 301 r \$0-tune;
#X obj 47 354 - 0.5;
#X obj 47 328 clip 0 1;
#X obj 20 463 osc~ 200;
#X obj 20 409 +~ 50;
#X msg 65 437 0;
#X obj 65 410 r \$0-reset-phase;
#X obj 49 86 t b b;
#X msg 49 163 0;
#X msg 118 162 -5;
#X text 66 244 freq mod on attack;
#X obj 34 244 *~;
#X obj 49 220 sig~;
#X obj 49 134 delay 10;
#X obj 19 270 *~;
#X obj 179 84 expr $f1*20 + 10;
#X obj 19 21 inlet~;
#X obj 20 494 outlet~;
#X text 137 137 just do freq mod at beginning;
#X text 160 154 yeah this is lazy \, but it sounds alright;
#X text 291 83 change attack freq mod len;
#X obj 49 57 inlet do freq mod;
#X obj 179 58 inlet freq mod len;
#X obj 47 379 expr $f1*50 + 50;
#X connect 0 0 2 0;
#X connect 1 0 23 0;
#X connect 2 0 1 0;
#X connect 3 0 17 0;
#X connect 4 0 3 0;
#X connect 5 0 3 1;
#X connect 6 0 5 0;
#X connect 7 0 13 0;
#X connect 7 1 9 0;
#X connect 8 0 12 0;
#X connect 9 0 12 0;
#X connect 11 0 14 1;
#X connect 12 0 11 1;
#X connect 13 0 8 0;
#X connect 14 0 4 0;
#X connect 15 0 13 1;
#X connect 16 0 11 0;
#X connect 16 0 14 0;
#X connect 21 0 7 0;
#X connect 22 0 15 0;
#X connect 23 0 4 1;
#X restore 42 298 pd osc;
#X obj 131 239 s \$0-reset-phase;
#N canvas 585 52 305 287 envelope 0;
#X obj 17 19 inlet trigger;
#X obj 16 246 outlet~;
#X obj 16 212 *~;
#X text 182 83 200 - 1800 - 6500;
#X obj 73 140 expr $f1*6300 + 200;
#X obj 73 57 r \$0-decay;
#X text 164 59 \$0-decay 0 - 0.5 - 1;
#X obj 73 109 pow 2;
#X obj 73 83 clip 0 1;
#X obj 133 247 outlet decay pow2;
#X obj 16 174 c_ead 1 300;
#X connect 0 0 10 0;
#X connect 2 0 1 0;
#X connect 4 0 10 2;
#X connect 5 0 8 0;
#X connect 7 0 4 0;
#X connect 7 0 9 0;
#X connect 8 0 7 0;
#X connect 10 0 2 0;
#X connect 10 0 2 1;
#X restore 25 208 pd envelope;
#X obj 176 377 switch~;
#X obj 129 355 > 1;
#X obj 129 305 env~;
#X obj 129 330 change;
#X msg 176 306 1;
#X obj 27 591 *~ 2;
#X connect 0 0 14 0;
#X connect 2 0 5 0;
#X connect 3 0 33 0;
#X connect 5 0 11 0;
#X connect 6 0 3 0;
#X connect 9 0 22 0;
#X connect 10 0 6 1;
#X connect 11 0 6 0;
#X connect 12 0 11 1;
#X connect 13 0 12 0;
#X connect 14 0 21 0;
#X connect 14 1 17 0;
#X connect 15 0 27 0;
#X connect 15 1 25 1;
#X connect 15 2 26 0;
#X connect 15 3 5 1;
#X connect 15 4 18 0;
#X connect 15 4 32 0;
#X connect 17 0 20 0;
#X connect 18 0 16 0;
#X connect 21 0 15 0;
#X connect 22 0 10 0;
#X connect 23 0 24 0;
#X connect 24 0 17 0;
#X connect 25 0 2 1;
#X connect 27 0 25 0;
#X connect 27 0 2 0;
#X connect 27 0 30 0;
#X connect 27 1 25 2;
#X connect 29 0 28 0;
#X connect 30 0 31 0;
#X connect 31 0 29 0;
#X connect 32 0 28 0;
#X connect 33 0 1 0;
#X restore 40 165 pd guts;
#X text 130 240 and inspired by Roman Haefeli's tr808-bd~;
#X obj 86 107 moses 1;
#N canvas 496 105 387 156 defaults 0;
#X obj 21 12 inlet;
#X obj 58 43 loadbang;
#X obj 21 118 outlet;
#X msg 21 78 amp 0.5 \, tone 0.5 \, decay 0.5 \, tune 0.5;
#X connect 0 0 3 0;
#X connect 1 0 3 0;
#X connect 3 0 2 0;
#X restore 460 52 pd defaults;
#X obj 376 52 route reset;
#X obj 376 18 inlet control;
#X obj 439 80 u_dispatch \$0 amp;
#X obj 439 101 u_dispatch \$0 tone;
#X obj 439 123 u_dispatch \$0 decay;
#X obj 439 145 u_dispatch \$0 tune;
#N canvas 172 83 586 377 LICENSE-GPL 0;
#X text 57 88 This program is free software: you can redistribute it
and/or modify it under the terms of the GNU General Public License
as published by the Free Software Foundation \, either version 3 of
the License \, or (at your option) any later version.;
#X text 58 168 This program is distributed in the hope that it will
be useful \, but WITHOUT ANY WARRANTY \; without even the implied warranty
of MERCHANTABILITY or FITNESS FOR A PARTICULAR PURPOSE. See the GNU
General Public License for more details.;
#X text 57 261 You should have received a copy of the GNU General Public
License along with this program. If not \, see <http://www.gnu.org/licenses/>.
;
#X text 60 325 See the file LICENSE.txt for the full license text.
;
#X text 56 54 Copyright (C) 2009 \, 2013 Dan Wilcox <danomatika@gmail.com>
;
#X restore 450 242 pd LICENSE-GPL;
#X obj 40 52 route bang float;
#X obj 209 133 r \$0-amp;
#X obj 86 82 clip 0 127;
#X text 89 17 an 808 bass/kick drum emulation using c_ead;
#X obj 40 202 *~ 0.5;
#X obj 390 178 u_loader s_808bass-\$1 \$0;
#N canvas 4 51 201 257 vel*amp 0;
#X obj 32 -106 / 127;
#X obj 92 5 * 1;
#X obj 80 -58 t b f;
#X obj 80 -27 f 1;
#X obj 80 -82 clip 0 1;
#X obj 32 -140 inlet;
#X obj 80 -113 inlet;
#X obj 92 41 outlet;
#X connect 0 0 3 0;
#X connect 1 0 7 0;
#X connect 2 0 3 0;
#X connect 2 1 1 1;
#X connect 3 0 1 0;
#X connect 4 0 2 0;
#X connect 5 0 0 0;
#X connect 6 0 4 0;
#X restore 152 160 pd vel*amp;
#X connect 0 0 15 0;
#X connect 2 0 4 0;
#X connect 2 1 21 0;
#X connect 4 0 19 0;
#X connect 6 0 4 1;
#X connect 6 1 2 0;
#X connect 7 0 10 0;
#X connect 8 0 7 0;
#X connect 8 1 10 0;
#X connect 9 0 8 0;
#X connect 10 0 11 0;
#X connect 11 0 12 0;
#X connect 12 0 13 0;
#X connect 15 0 4 0;
#X connect 15 1 17 0;
#X connect 16 0 21 1;
#X connect 17 0 6 0;
#X connect 19 0 1 0;
#X connect 21 0 19 1;
