#N canvas 170 103 868 521 10;
#N canvas 183 61 582 570 REFERENCE 0;
#X text 24 91 Argument 0: <float or symbol> unique id (don't use \$0)
;
#X text 24 124 Inlet 0: bang - trigger \, <float> - midi velocity trigger
;
#X text 24 149 Inlet 1: "amp" <float> - amplitude (0-1) \, "tone" <float>
- hit click amount (0-1) \, "decay" <float> - envelope length (0-1)
\, "tune" <float> - drum pitch (0-1);
#X text 24 365 See also: [s_808snare] \, [s_808hihat] \, [s_808cymbal]
\, [s_808bell];
#X text 24 31 Name: [s_808bass];
#X text 24 434 Tags: audio \, drum \, 808 \, kick emulation;
#X text 24 51 Summary: a Roland TR-808 bass/kick drum emulation;
#X text 24 210 Outlet 0: audio signal out;
#X text 24 258 Description: This is an emulation of the TR-808 bass
drum made by comparing recordings of actual hardware at various knob
setting levels to reverse engineer the audio synthesis. Adapted from
Andy Farnell's AnalogDrumEgine & Roman Haefeli's tr808-bd~. The control
values match the 808 controls except for the addition of the tuning
(for hip-hop tracks of course).;
#X coords 0 -1 1 1 450 450 1 10 10;
#X restore 5 48 pd REFERENCE;
#X obj 5 18 cnv 15 450 20 empty empty empty 20 12 0 14 -261234 -66577
0;
#X text 468 51 Example:;
#X obj 561 406 soundoutput;
#X text 495 488 rc-patches (https://github.com/danomatika/rc-patches)
- 2013;
#X text 129 21 - a tr808 bass drum emulation;
#X obj 517 132 bng 15 250 50 0 empty empty empty 17 7 0 10 -262144
-1 -1;
#X msg 561 182 64;
#X msg 581 211 127;
#X text 498 97 triggers;
#X text 558 159 midi vel;
#X text 540 129 bang;
#X text 601 367 output lvl = vel/127 * amp;
#X msg 672 132 reset;
#X obj 672 273 g_hsl tune 0 1;
#X obj 672 238 g_hsl decay 0 1;
#X obj 672 202 g_hsl tone 0 1;
#X obj 672 166 g_hsl amp 0 1;
#X obj 561 366 *~ 1;
#X obj 561 310 s_808bass my808bass;
#X obj 8 20 s_808bass;
#X text 668 99 all values default to 0.5;
#X connect 6 0 19 0;
#X connect 7 0 19 0;
#X connect 8 0 19 0;
#X connect 13 0 17 0;
#X connect 14 0 19 1;
#X connect 15 0 14 0;
#X connect 16 0 15 0;
#X connect 17 0 16 0;
#X connect 18 0 3 1;
#X connect 18 0 3 0;
#X connect 19 0 18 0;
