#N canvas 392 198 868 521 10;
#N canvas 131 104 582 570 REFERENCE 0;
#X text 24 91 Argument 0: <float or symbol> unique id (don't use \$0)
;
#X text 24 134 Inlet 0: bang - trigger \, <float> - midi velocity trigger
;
#X text 24 213 Outlet 0: audio signal out;
#X text 24 367 See also: [s_808bass] \, [s_808hihat] \, [s_808cymbal]
\, [s_808snare];
#X text 24 31 Name: [s_808clap;
#X text 24 51 Summary: a Roland TR-808 hand clap emulation;
#X text 24 162 Inlet 1: "amp" <float> - amplitude (0-1);
#X text 24 263 Description: This is an emulation of the TR-808 hand
clap \, orginally by Roman Haefeli & Frank Barknecht in the rjlib s_drumelectro.
;
#X text 24 434 Tags: audio \, drum \, hand clap \, 808 \, emulation
;
#X coords 0 -1 1 1 450 450 1 10 10;
#X restore 5 48 pd REFERENCE;
#X obj 5 18 cnv 15 450 20 empty empty empty 20 12 0 14 -261234 -66577
0;
#X text 468 51 Example:;
#X obj 561 404 soundoutput;
#X text 495 488 rc-patches (https://github.com/danomatika/rc-patches)
- 2013;
#X obj 517 132 bng 15 250 50 0 empty empty empty 17 7 0 10 -262144
-1 -1;
#X msg 561 182 64;
#X msg 581 211 127;
#X text 498 97 triggers;
#X text 558 159 midi vel;
#X text 540 129 bang;
#X text 601 365 output lvl = vel/127 * amp;
#X msg 672 132 reset;
#X obj 672 166 g_hsl amp 0 1;
#X obj 561 364 *~ 1;
#X text 668 99 all values default to 0.5;
#X obj 561 308 s_808clap my808clap;
#X text 129 21 - a tr808 hand clap emulation;
#X obj 8 20 s_808clap;
#X connect 5 0 16 0;
#X connect 6 0 16 0;
#X connect 7 0 16 0;
#X connect 12 0 13 0;
#X connect 13 0 16 1;
#X connect 14 0 3 1;
#X connect 14 0 3 0;
#X connect 16 0 14 0;
