#N canvas 184 55 907 391 10;
#X obj 357 -75 outlet~;
#X obj 42 -75 outlet~;
#X text 755 -139 damian@frey.co.nz;
#X text 755 -154 damian stewart 2008;
#X text 758 -108 GPL v3;
#X text 757 -183 808 hihats;
#X text 468 -154 adapted from d-808hh~ & d-808brain~;
#X text 468 -139 both under GPL v3 which means this is GPL v3;
#N canvas 8 76 336 454 squares_noise_and_lots_of_filters 0;
#X obj 90 424 outlet~;
#X obj 90 189 bp~ 3462 0.3;
#X obj 90 266 clip~ -1 1;
#X obj 90 241 hip~ 6700;
#X obj 90 215 hip~ 6700;
#X obj 110 129 noise~ 0.3;
#X obj 90 318 hip~ 7029;
#X obj 90 345 lop~ 7029;
#X obj 90 371 hip~ 3764;
#X obj 110 159 *~ 0.2;
#X obj 90 290 bp~ 7029 8;
#X obj 90 397 lop~ 3764;
#N canvas 215 194 804 320 squares 0;
#X obj 402 176 *~ 0.7;
#X obj 23 170 *~ 0.9;
#X text 668 202 808 support;
#X text 666 246 damian@frey.co.nz;
#X text 666 231 damian stewart 2008;
#X text 669 277 GPL v3;
#X obj 548 101 * 549.5;
#X obj 402 99 * 539.95;
#X obj 23 94 * 210.2;
#X obj 140 99 * 320.09;
#X obj 253 100 * 379.973;
#X obj 673 104 * 799.957;
#X obj 254 259 +~;
#X obj 254 290 outlet~;
#X obj 253 16 inlet;
#X obj 402 125 ftom;
#X obj 253 123 ftom;
#X obj 140 123 ftom;
#X obj 23 120 ftom;
#X obj 548 126 ftom;
#X obj 673 128 ftom;
#N canvas 0 22 379 389 square 0;
#X obj 35 319 outlet~;
#X obj 61 112 mtof;
#X obj 34 50 sel 0;
#X msg 34 79 0;
#X obj 34 20 inlet midi;
#X obj 34 290 clip~ -1 1;
#X obj 34 265 *~ 1000;
#X obj 34 204 osc~ 210.2;
#X connect 1 0 7 0;
#X connect 2 0 3 0;
#X connect 2 1 1 0;
#X connect 3 0 7 0;
#X connect 4 0 2 0;
#X connect 5 0 0 0;
#X connect 6 0 5 0;
#X connect 7 0 6 0;
#X restore 23 145 pd square 210.2;
#N canvas 0 22 379 389 square 0;
#X obj 35 319 outlet~;
#X obj 61 112 mtof;
#X obj 34 50 sel 0;
#X msg 34 79 0;
#X obj 34 20 inlet midi;
#X obj 34 290 clip~ -1 1;
#X obj 34 265 *~ 1000;
#X obj 34 204 osc~ 320.09;
#X connect 1 0 7 0;
#X connect 2 0 3 0;
#X connect 2 1 1 0;
#X connect 3 0 7 0;
#X connect 4 0 2 0;
#X connect 5 0 0 0;
#X connect 6 0 5 0;
#X connect 7 0 6 0;
#X restore 140 147 pd square 320.09;
#N canvas 0 22 379 389 square 0;
#X obj 35 319 outlet~;
#X obj 61 112 mtof;
#X obj 34 50 sel 0;
#X msg 34 79 0;
#X obj 34 20 inlet midi;
#X obj 34 290 clip~ -1 1;
#X obj 34 265 *~ 1000;
#X obj 34 204 osc~ 379.973;
#X connect 1 0 7 0;
#X connect 2 0 3 0;
#X connect 2 1 1 0;
#X connect 3 0 7 0;
#X connect 4 0 2 0;
#X connect 5 0 0 0;
#X connect 6 0 5 0;
#X connect 7 0 6 0;
#X restore 253 147 pd square 379.973;
#N canvas 0 22 379 389 square 0;
#X obj 35 319 outlet~;
#X obj 61 112 mtof;
#X obj 34 50 sel 0;
#X msg 34 79 0;
#X obj 34 20 inlet midi;
#X obj 34 290 clip~ -1 1;
#X obj 34 265 *~ 1000;
#X obj 34 204 osc~ 539.95;
#X connect 1 0 7 0;
#X connect 2 0 3 0;
#X connect 2 1 1 0;
#X connect 3 0 7 0;
#X connect 4 0 2 0;
#X connect 5 0 0 0;
#X connect 6 0 5 0;
#X connect 7 0 6 0;
#X restore 402 150 pd square 539.95;
#N canvas 0 22 379 389 square 0;
#X obj 35 319 outlet~;
#X obj 61 112 mtof;
#X obj 34 50 sel 0;
#X msg 34 79 0;
#X obj 34 20 inlet midi;
#X obj 34 290 clip~ -1 1;
#X obj 34 265 *~ 1000;
#X obj 34 204 osc~ 549.5;
#X connect 1 0 7 0;
#X connect 2 0 3 0;
#X connect 2 1 1 0;
#X connect 3 0 7 0;
#X connect 4 0 2 0;
#X connect 5 0 0 0;
#X connect 6 0 5 0;
#X connect 7 0 6 0;
#X restore 548 150 pd square 549.5;
#N canvas 4 51 379 389 square 0;
#X obj 35 319 outlet~;
#X obj 61 112 mtof;
#X obj 34 50 sel 0;
#X msg 34 79 0;
#X obj 34 20 inlet midi;
#X obj 34 290 clip~ -1 1;
#X obj 34 265 *~ 1000;
#X obj 34 204 osc~ 799.957;
#X connect 1 0 7 0;
#X connect 2 0 3 0;
#X connect 2 1 1 0;
#X connect 3 0 7 0;
#X connect 4 0 2 0;
#X connect 5 0 0 0;
#X connect 6 0 5 0;
#X connect 7 0 6 0;
#X restore 673 153 pd square 799.957;
#X connect 0 0 12 1;
#X connect 1 0 12 0;
#X connect 6 0 19 0;
#X connect 7 0 15 0;
#X connect 8 0 18 0;
#X connect 9 0 17 0;
#X connect 10 0 16 0;
#X connect 11 0 20 0;
#X connect 12 0 13 0;
#X connect 14 0 6 0;
#X connect 14 0 7 0;
#X connect 14 0 8 0;
#X connect 14 0 9 0;
#X connect 14 0 10 0;
#X connect 14 0 11 0;
#X connect 15 0 24 0;
#X connect 16 0 23 0;
#X connect 17 0 22 0;
#X connect 18 0 21 0;
#X connect 19 0 25 0;
#X connect 20 0 26 0;
#X connect 21 0 1 0;
#X connect 22 0 12 0;
#X connect 23 0 12 0;
#X connect 24 0 0 0;
#X connect 25 0 12 1;
#X connect 26 0 12 1;
#X restore 90 101 pd squares;
#X text 17 16 damian did lots of listening ... good job damian!;
#X obj 90 46 r \$0-tune;
#X obj 90 74 clip 0 1;
#X connect 1 0 4 0;
#X connect 2 0 10 0;
#X connect 3 0 2 0;
#X connect 4 0 3 0;
#X connect 5 0 9 0;
#X connect 6 0 7 0;
#X connect 7 0 8 0;
#X connect 8 0 11 0;
#X connect 9 0 1 0;
#X connect 10 0 6 0;
#X connect 11 0 0 0;
#X connect 12 0 1 0;
#X connect 14 0 15 0;
#X connect 15 0 12 0;
#X restore 191 -240 pd squares_noise_and_lots_of_filters;
#X obj 432 -399 inlet OH trigger;
#X obj 42 -400 inlet CH trigger;
#X obj 127 -306 t b f;
#X obj 88 -337 moses 1;
#X text 138 -337 no noteoffs!;
#X obj 42 -107 *~ 0.5;
#N canvas 4 51 196 244 vel*amp 0;
#X obj 32 -102 / 127;
#X obj 92 9 * 1;
#X obj 80 -54 t b f;
#X obj 80 -23 f 1;
#X obj 80 -78 clip 0 1;
#X obj 32 -136 inlet;
#X obj 80 -109 inlet;
#X obj 92 45 outlet;
#X connect 0 0 3 0;
#X connect 1 0 7 0;
#X connect 2 0 3 0;
#X connect 2 1 1 1;
#X connect 3 0 1 0;
#X connect 4 0 2 0;
#X connect 5 0 0 0;
#X connect 6 0 4 0;
#X restore 154 -279 pd vel*amp;
#X obj 517 -313 t b f;
#X obj 478 -341 moses 1;
#X text 529 -339 no noteoffs!;
#N canvas 4 51 211 235 vel*amp 0;
#X obj 47 -106 / 127;
#X obj 107 5 * 1;
#X obj 95 -58 t b f;
#X obj 95 -27 f 1;
#X obj 95 -82 clip 0 1;
#X obj 47 -140 inlet;
#X obj 95 -113 inlet;
#X obj 107 41 outlet;
#X connect 0 0 3 0;
#X connect 1 0 7 0;
#X connect 2 0 3 0;
#X connect 2 1 1 1;
#X connect 3 0 1 0;
#X connect 4 0 2 0;
#X connect 5 0 0 0;
#X connect 6 0 4 0;
#X restore 544 -285 pd vel*amp;
#X obj 357 -108 *~ 0.5;
#X obj 601 -312 r \$0-amp;
#X text 349 -430 amp & tune affects both CH and OH \, decay just OH
;
#X obj 211 -306 r \$0-amp;
#X obj 42 -370 route bang float;
#X text 41 -430 an 808 hi hat drum emulation;
#N canvas 0 22 287 404 open 0;
#X obj 107 264 line~;
#X obj 23 306 *~;
#X msg 107 131 stop;
#X obj 222 79 loadbang;
#X msg 20 183 0 20;
#X msg 61 183 1 7;
#X obj 222 184 + 100;
#X obj 61 160 del 8;
#X obj 107 160 del 28;
#X msg 107 184 0.8 50;
#X obj 165 221 pack 0 410;
#X obj 165 159 del 34;
#X obj 61 79 t b b b b;
#X obj 222 158 * 410;
#X obj 149 79 r \$0-decay;
#X msg 222 112 0.5;
#X msg 80 46 bang;
#X obj 149 112 clip 0 1;
#X obj 61 12 inlet;
#X obj 23 263 inlet~;
#X obj 23 368 outlet~;
#X obj 23 337 *~ 2.5;
#X connect 0 0 1 1;
#X connect 1 0 21 0;
#X connect 2 0 8 0;
#X connect 2 0 11 0;
#X connect 2 0 7 0;
#X connect 3 0 15 0;
#X connect 4 0 0 0;
#X connect 5 0 0 0;
#X connect 6 0 10 1;
#X connect 7 0 5 0;
#X connect 8 0 9 0;
#X connect 9 0 0 0;
#X connect 10 0 0 0;
#X connect 11 0 10 0;
#X connect 12 0 11 0;
#X connect 12 0 7 0;
#X connect 12 2 4 0;
#X connect 12 3 2 0;
#X connect 13 0 6 0;
#X connect 14 0 17 0;
#X connect 15 0 13 0;
#X connect 16 0 12 0;
#X connect 17 0 13 0;
#X connect 18 0 12 0;
#X connect 19 0 1 0;
#X connect 21 0 20 0;
#X restore 357 -192 pd open hihat;
#X obj 432 -371 route bang float;
#N canvas 0 22 142 275 closed 0;
#X obj 27 -2 inlet;
#X obj 42 93 inlet~;
#X obj 27 213 outlet~;
#X obj 27 122 *~;
#X obj 27 179 hip~ 4000;
#X obj 27 149 *~ 2.5;
#X msg 35 31 bang;
#X obj 27 59 c_ead 1 100;
#X connect 0 0 7 0;
#X connect 1 0 3 1;
#X connect 3 0 5 0;
#X connect 4 0 2 0;
#X connect 5 0 4 0;
#X connect 6 0 7 0;
#X connect 7 0 3 0;
#X restore 42 -195 pd closed hihat;
#N canvas 496 105 387 156 defaults 0;
#X obj 21 12 inlet;
#X obj 58 43 loadbang;
#X obj 21 118 outlet;
#X msg 21 78 amp 0.5 \, decay 0.5 \, tune 0.5;
#X connect 0 0 3 0;
#X connect 1 0 3 0;
#X connect 3 0 2 0;
#X restore 785 -364 pd defaults;
#X obj 701 -364 route reset;
#X obj 701 -398 inlet control;
#X obj 764 -336 u_dispatch \$0 amp;
#X obj 764 -314 u_dispatch \$0 decay;
#X obj 764 -292 u_dispatch \$0 tune;
#X obj 715 -238 u_loader s_808hihat-\$1 \$0;
#N canvas 172 83 586 377 LICENSE-GPL 0;
#X text 57 88 This program is free software: you can redistribute it
and/or modify it under the terms of the GNU General Public License
as published by the Free Software Foundation \, either version 3 of
the License \, or (at your option) any later version.;
#X text 58 168 This program is distributed in the hope that it will
be useful \, but WITHOUT ANY WARRANTY \; without even the implied warranty
of MERCHANTABILITY or FITNESS FOR A PARTICULAR PURPOSE. See the GNU
General Public License for more details.;
#X text 57 261 You should have received a copy of the GNU General Public
License along with this program. If not \, see <http://www.gnu.org/licenses/>.
;
#X text 60 325 See the file LICENSE.txt for the full license text.
;
#X text 56 54 Copyright (C) 2009 \, 2013 Dan Wilcox <danomatika@gmail.com>
;
#X restore 546 -107 pd LICENSE-GPL;
#X connect 8 0 26 0;
#X connect 8 0 28 1;
#X connect 9 0 27 0;
#X connect 10 0 24 0;
#X connect 11 0 28 0;
#X connect 11 1 15 0;
#X connect 12 1 11 0;
#X connect 14 0 1 0;
#X connect 15 0 14 1;
#X connect 16 0 26 1;
#X connect 16 1 19 0;
#X connect 17 1 16 0;
#X connect 19 0 20 1;
#X connect 20 0 0 0;
#X connect 21 0 19 1;
#X connect 23 0 15 1;
#X connect 24 0 28 0;
#X connect 24 1 12 0;
#X connect 26 0 20 0;
#X connect 27 0 26 1;
#X connect 27 1 17 0;
#X connect 28 0 14 0;
#X connect 29 0 32 0;
#X connect 30 0 29 0;
#X connect 30 1 32 0;
#X connect 31 0 30 0;
#X connect 32 0 33 0;
#X connect 33 0 34 0;
