#N canvas 487 78 594 437 10;
#X obj 43 396 outlet~;
#X obj 212 397 switch~;
#X obj 167 308 env~;
#X obj 167 368 > 1;
#X msg 212 309 1;
#X obj 128 154 t b f;
#X obj 155 183 / 127;
#X obj 214 239 * 1;
#X obj 202 183 t b f;
#X obj 155 212 f 1;
#X obj 202 159 clip 0 1;
#X obj 43 20 inlet;
#X obj 43 367 *~ 0.5;
#X obj 43 335 hip~ 5;
#X obj 43 213 t b b;
#N canvas 480 102 298 320 guts 0;
#X obj 17 16 inlet trigger;
#X obj 98 291 outlet~;
#X obj 61 84 bng 15 250 50 0 empty empty empty 17 7 0 10 -262144 -1
-1;
#X floatatom 144 206 10 0 0 0 - - -, f 10;
#X obj 147 181 hsl 128 15 200 20000 1 0 empty empty empty -2 -8 0 10
-262144 -1 -1 0 1;
#X floatatom 191 229 5 0 0 0 - - -, f 5;
#X obj 98 250 bp~ 3508.52 1.86;
#N canvas 270 103 612 609 osc1_and_osc2 0;
#X obj 373 438 *~;
#X obj 28 397 *~;
#X obj 177 580 outlet~;
#X obj 28 534 *~ 0.57;
#X obj 373 542 *~ 0.4;
#X obj 117 384 r \$0-tone;
#X obj 43 210 env~ 256;
#X obj 67 505 abs;
#X msg 472 193 340 64.53;
#X msg 103 165 172 52.73;
#X obj 43 359 osc~ 172;
#X obj 388 401 osc~ 340;
#X obj 388 216 env~ 256;
#X text 191 321 mod the freq based on the attack;
#X text 494 401 hi freq osc 340Hz;
#X text 106 360 lo freq osc 172Hz;
#X text 94 506 tone just mixes between the two oscs;
#X obj 67 481 - 0.811;
#X obj 117 453 * 0.75;
#X obj 28 172 *~;
#X msg 436 109 350;
#X msg 91 72 480;
#X obj 185 67 expr $f1*120 + 360;
#X obj 380 68 expr $f1*180 + 10;
#X obj 373 192 *~;
#X obj 28 20 inlet trigger;
#X text 177 452 mix;
#X obj 117 431 sqrt;
#X obj 260 144 r \$0-tune;
#X obj 260 192 expr $f1* 24 - 12;
#X obj 172 225 t b f;
#X msg 172 250 52.7389;
#X obj 172 274 + 0;
#X obj 517 266 t b f;
#X obj 517 316 + 0;
#X msg 517 292 64.5364;
#X obj 517 340 mtof;
#X obj 388 369 expr $f1/100 * 2 + $f2;
#X obj 43 325 expr $f1/100 * 2 + $f2;
#X obj 172 298 mtof;
#X text 250 225 change tuning;
#X text 367 39 decays change based on tone;
#X text 449 161 osc2decay;
#X text 102 119 osc1decay;
#X obj 260 168 clip 0 1;
#X obj 273 38 clip 0 1;
#X obj 273 13 r \$0-tone;
#X obj 117 408 clip 0 1;
#X obj 373 161 c_ead 1 300;
#X obj 28 119 c_ead 1 300;
#X connect 0 0 4 0;
#X connect 1 0 3 0;
#X connect 3 0 2 0;
#X connect 4 0 2 0;
#X connect 5 0 47 0;
#X connect 6 0 38 0;
#X connect 7 0 3 1;
#X connect 10 0 1 1;
#X connect 11 0 0 1;
#X connect 12 0 37 0;
#X connect 17 0 7 0;
#X connect 18 0 17 0;
#X connect 18 0 4 1;
#X connect 19 0 6 0;
#X connect 19 0 1 0;
#X connect 20 0 48 2;
#X connect 21 0 49 2;
#X connect 22 0 49 2;
#X connect 23 0 48 2;
#X connect 24 0 12 0;
#X connect 24 0 0 0;
#X connect 25 0 48 0;
#X connect 25 0 49 0;
#X connect 27 0 18 0;
#X connect 28 0 44 0;
#X connect 29 0 30 0;
#X connect 29 0 33 0;
#X connect 30 0 31 0;
#X connect 30 1 32 1;
#X connect 31 0 32 0;
#X connect 32 0 39 0;
#X connect 33 0 35 0;
#X connect 33 1 34 1;
#X connect 34 0 36 0;
#X connect 35 0 34 0;
#X connect 36 0 37 1;
#X connect 37 0 11 0;
#X connect 38 0 10 0;
#X connect 39 0 38 1;
#X connect 44 0 29 0;
#X connect 45 0 22 0;
#X connect 45 0 23 0;
#X connect 46 0 45 0;
#X connect 47 0 27 0;
#X connect 48 0 24 0;
#X connect 48 0 24 1;
#X connect 49 0 19 0;
#X connect 49 0 19 1;
#X restore 17 124 pd osc1_and_osc2;
#N canvas 520 210 450 300 notes 0;
#X text 12 11 parameters garnered from listening to samples at each
knob setting;
#X text 10 93 tone knob;
#X text 54 53 tone snappy osc1decay osc2decay osc_mix;
#X text 11 182 snappy knob;
#X text 52 159 tone snappy noise1decay noise2decay 2amp 2hifreq;
#X text 111 75 0 0 480 dontcare 0;
#X text 111 90 50 0 400 200 0.401;
#X text 111 105 75 0 381 180 0.637;
#X text 111 118 99 0 364 193 0.811;
#X text 107 184 0 0 dontcare dontcare dontcare;
#X text 107 200 0 25 480 520 0.101 dontcare;
#X text 107 218 0 50 480 350 0.5 11196;
#X text 107 238 0 75 480 420 0.66 3911.73;
#X text 107 256 0 99 480 350 0.7 2189.78;
#X restore 209 39 pd notes;
#N canvas 12 96 1047 655 noise 0;
#X obj 34 29 inlet trigger;
#X obj 852 213 env~ 256;
#X obj 852 239 / 100;
#X obj 800 504 *~;
#X floatatom 891 288 5 0 0 0 2bp*freq - -, f 5;
#X obj 894 263 hsl 128 15 200 20000 1 0 empty empty empty -2 -8 0 10
-262144 -1 -1 0 1;
#X floatatom 866 446 9 0 0 0 2hipfreq - -, f 9;
#X obj 869 419 hsl 128 15 200 20000 1 0 empty empty empty -2 -8 0 10
-262144 -1 -1 0 1;
#X floatatom 504 202 5 0 0 0 - - -, f 5;
#X obj 507 177 hsl 128 15 200 20000 1 0 empty empty empty -2 -8 0 10
-262144 -1 -1 0 1;
#X obj 34 478 *~;
#X obj 815 477 hip~ 2189;
#X obj 852 362 + 3263;
#X obj 815 392 bp~ 4862 1.12;
#X obj 453 227 lop~ 8376;
#X msg 864 118 350;
#X msg 97 122 480;
#X obj 800 219 *~;
#X obj 350 625 outlet~;
#X obj 852 318 * 903.6;
#X obj 34 536 *~ 0.01;
#X floatatom 150 407 9 0 0 0 1hipfreq - -, f 9;
#X obj 153 380 hsl 128 15 200 20000 1 0 empty empty empty -2 -8 0 10
-262144 -1 -1 0 1;
#X msg 73 494 0.01;
#X text 874 167 noise 2 = attack noise;
#X obj 538 435 expr abs(13000-$f1*13000) + 2189;
#X obj 800 544 *~ 0.7;
#X text 127 247 noise 1 = snare;
#X obj 49 440 hip~ 2270.64;
#X obj 467 334 expr abs(13421-$f1*13421) + 9006;
#X obj 129 57 r \$0-snappy;
#X text 187 16 noise ... this is the hard part;
#X obj 61 266 sqrt;
#X obj 34 331 sqrt~;
#X obj 262 468 * 0.007;
#X obj 61 295 expr abs(14600-$f1*14600) + 2270;
#X obj 441 435 sqrt;
#X obj 395 545 expr $f1*19200 + 800;
#X obj 395 511 pow 2;
#X obj 350 597 lop~ 800;
#X obj 262 438 pow 2;
#X obj 129 104 pow 2;
#X obj 61 212 env~ 256;
#X obj 61 238 / 100;
#X obj 433 24 r \$0-tune;
#X obj 433 69 expr $f1*2 - 1;
#X obj 598 104 expr abs(350 - $f1*350);
#X text 680 20 mod filter freqs using envelope for "snappiness";
#X text 531 71 -1 - 0 - 1;
#X text 745 106 700 - 350 - 0;
#X obj 208 103 expr abs(300 - $f1*300);
#X text 302 133 ~780 - ~480;
#X text 135 151 expr abs(300-$f1*300) + 480;
#X obj 129 130 expr abs($f2-$f1*$f2) + $f3;
#X obj 371 103 expr abs(480 - $f1*480);
#X obj 453 175 noise~;
#X obj 441 464 * 0.8;
#X text 872 142 noise2decay;
#X text 104 174 noise1decay;
#X text 845 544 2amp;
#X text 411 595 all lop;
#X floatatom 902 343 8 0 0 0 2bp+freq - -, f 8;
#X obj 905 315 hsl 128 15 200 20000 1 0 empty empty empty -2 -8 0 10
-262144 -1 -1 0 1;
#X obj 34 174 c_ead 1 480;
#X obj 801 168 c_ead 1 350;
#X obj 433 47 clip 0 1;
#X obj 395 295 clip 0 1;
#X obj 395 270 r \$0-snappy;
#X obj 129 81 clip 0 1;
#X connect 0 0 63 0;
#X connect 0 0 64 0;
#X connect 1 0 2 0;
#X connect 2 0 19 0;
#X connect 3 0 26 0;
#X connect 4 0 19 1;
#X connect 5 0 4 0;
#X connect 6 0 11 1;
#X connect 7 0 6 0;
#X connect 8 0 14 1;
#X connect 9 0 8 0;
#X connect 10 0 20 0;
#X connect 11 0 3 1;
#X connect 12 0 13 1;
#X connect 13 0 11 0;
#X connect 14 0 13 0;
#X connect 15 0 64 2;
#X connect 16 0 63 2;
#X connect 17 0 3 0;
#X connect 19 0 12 0;
#X connect 20 0 39 0;
#X connect 21 0 28 1;
#X connect 22 0 21 0;
#X connect 23 0 20 1;
#X connect 25 0 11 1;
#X connect 26 0 39 0;
#X connect 28 0 10 1;
#X connect 29 0 12 1;
#X connect 30 0 68 0;
#X connect 32 0 35 0;
#X connect 33 0 10 0;
#X connect 34 0 20 1;
#X connect 35 0 28 1;
#X connect 36 0 56 0;
#X connect 37 0 39 1;
#X connect 38 0 37 0;
#X connect 39 0 18 0;
#X connect 40 0 34 0;
#X connect 41 0 53 0;
#X connect 42 0 43 0;
#X connect 43 0 32 0;
#X connect 44 0 65 0;
#X connect 45 0 46 0;
#X connect 45 0 54 0;
#X connect 45 0 50 0;
#X connect 46 0 64 2;
#X connect 50 0 53 1;
#X connect 53 0 63 2;
#X connect 54 0 53 2;
#X connect 55 0 28 0;
#X connect 55 0 14 0;
#X connect 56 0 26 1;
#X connect 61 0 12 1;
#X connect 62 0 61 0;
#X connect 63 0 33 0;
#X connect 63 0 42 0;
#X connect 64 0 17 0;
#X connect 64 0 17 1;
#X connect 64 0 1 0;
#X connect 65 0 45 0;
#X connect 66 0 29 0;
#X connect 66 0 25 0;
#X connect 66 0 36 0;
#X connect 66 0 38 0;
#X connect 66 0 40 0;
#X connect 67 0 66 0;
#X connect 68 0 41 0;
#X restore 149 124 pd noise;
#X obj 17 158 *~ 0.9;
#X connect 0 0 7 0;
#X connect 0 0 9 0;
#X connect 2 0 7 0;
#X connect 2 0 9 0;
#X connect 3 0 6 1;
#X connect 4 0 3 0;
#X connect 5 0 6 2;
#X connect 6 0 1 0;
#X connect 7 0 10 0;
#X connect 9 0 6 0;
#X connect 10 0 6 0;
#X restore 43 248 pd guts;
#X text 244 239 use amp*vel to set gain;
#X text 243 354 and help from Damian Stewart (frey);
#X obj 89 117 moses 1;
#X text 138 116 no noteoffs!;
#X obj 43 307 *~ 2;
#X text 101 18 an 808 snare drum emulation using c_ead;
#N canvas 172 83 586 377 LICENSE-GPL 0;
#X text 57 88 This program is free software: you can redistribute it
and/or modify it under the terms of the GNU General Public License
as published by the Free Software Foundation \, either version 3 of
the License \, or (at your option) any later version.;
#X text 58 168 This program is distributed in the hope that it will
be useful \, but WITHOUT ANY WARRANTY \; without even the implied warranty
of MERCHANTABILITY or FITNESS FOR A PARTICULAR PURPOSE. See the GNU
General Public License for more details.;
#X text 57 261 You should have received a copy of the GNU General Public
License along with this program. If not \, see <http://www.gnu.org/licenses/>.
;
#X text 60 325 See the file LICENSE.txt for the full license text.
;
#X text 56 54 Copyright (C) 2009 \, 2013 Dan Wilcox <danomatika@gmail.com>
;
#X restore 464 401 pd LICENSE-GPL;
#X obj 167 337 change;
#N canvas 496 105 387 156 defaults 0;
#X obj 21 12 inlet;
#X obj 58 43 loadbang;
#X obj 21 118 outlet;
#X msg 21 78 amp 0.5 \, tone 0.5 \, snappy 0.5 \, tune 0.5;
#X connect 0 0 3 0;
#X connect 1 0 3 0;
#X connect 3 0 2 0;
#X restore 460 52 pd defaults;
#X obj 376 52 route reset;
#X obj 376 18 inlet control;
#X obj 439 80 u_dispatch \$0 amp;
#X obj 439 101 u_dispatch \$0 tone;
#X obj 439 123 u_dispatch \$0 decay;
#X obj 439 145 u_dispatch \$0 tune;
#X obj 390 178 u_loader s_808snare-\$1 \$0;
#X obj 202 134 r \$0-amp;
#X obj 43 56 route bang float;
#X obj 89 88 clip 0 127;
#X text 243 338 Based on a similar drum from Andy Farnell (obiwannabe)
;
#X connect 2 0 23 0;
#X connect 3 0 1 0;
#X connect 4 0 1 0;
#X connect 5 0 14 0;
#X connect 5 1 6 0;
#X connect 6 0 9 0;
#X connect 7 0 12 1;
#X connect 8 0 9 0;
#X connect 8 1 7 1;
#X connect 9 0 7 0;
#X connect 10 0 8 0;
#X connect 11 0 33 0;
#X connect 12 0 0 0;
#X connect 13 0 12 0;
#X connect 14 0 15 0;
#X connect 14 1 4 0;
#X connect 15 0 20 0;
#X connect 15 0 2 0;
#X connect 18 1 5 0;
#X connect 20 0 13 0;
#X connect 23 0 3 0;
#X connect 24 0 27 0;
#X connect 25 0 24 0;
#X connect 25 1 27 0;
#X connect 26 0 25 0;
#X connect 27 0 28 0;
#X connect 28 0 29 0;
#X connect 29 0 30 0;
#X connect 32 0 10 0;
#X connect 33 0 14 0;
#X connect 33 1 34 0;
#X connect 34 0 18 0;
