#N canvas 105 243 512 283 10;
#X obj 21 245 outlet~;
#X obj 106 114 t b f;
#X obj 21 17 inlet;
#X obj 21 219 *~ 0.5;
#N canvas 540 183 358 513 guts 0;
#X obj 26 17 inlet trigger;
#X obj 26 483 outlet~;
#N canvas 472 71 533 685 noise 0;
#X obj 217 19 inlet trigger;
#X obj 269 239 env~ 256;
#X obj 269 265 / 100;
#X obj 217 559 *~;
#X floatatom 308 319 5 0 0 0 bp*freq - -, f 5;
#X obj 311 294 hsl 128 15 200 20000 1 0 empty empty empty -2 -8 0 10
-262144 -1 -1 0 1;
#X floatatom 319 374 8 0 0 0 bp+freq - -, f 8;
#X obj 322 346 hsl 128 15 200 20000 1 0 empty empty empty -2 -8 0 10
-262144 -1 -1 0 1;
#X floatatom 307 418 5 0 0 0 - - -, f 5;
#X floatatom 283 499 9 0 0 0 hipfreq - -, f 9;
#X obj 286 472 hsl 128 15 200 20000 1 0 empty empty empty -2 -8 0 10
-262144 -1 -1 0 1;
#X floatatom 74 272 5 0 0 0 - - -, f 5;
#X obj 77 247 hsl 128 15 200 20000 1 0 empty empty empty -2 -8 0 10
-262144 -1 -1 0 1;
#X obj 269 393 + 3263;
#X obj 232 441 bp~ 4862 1.12;
#X obj 23 297 lop~ 8376;
#X msg 274 144 350;
#X obj 217 245 *~;
#X obj 217 649 outlet~;
#X obj 269 349 * 903.6;
#X floatatom 268 596 9 0 0 0 alllop - -, f 9;
#X obj 271 569 hsl 128 15 200 20000 1 0 empty empty empty -2 -8 0 10
-262144 -1 -1 0 1;
#X obj 23 245 noise~;
#X text 311 194 attack noise;
#X obj 317 37 r \$0-tune;
#X obj 317 142 + 100;
#X obj 317 116 * 450;
#X obj 317 89 expr abs($f1/127-1);
#X text 370 142 ~546 - 100;
#X text 386 37 1 - 127;
#X text 328 16 higher pitch \, shorter attack;
#X obj 217 621 lop~ 1271;
#X obj 232 526 hip~ 4050;
#X text 312 165 noisedecay;
#X obj 217 194 c_ead 1 350;
#X obj 317 62 clip 0 127;
#X connect 0 0 34 0;
#X connect 1 0 2 0;
#X connect 2 0 19 0;
#X connect 3 0 31 0;
#X connect 4 0 19 1;
#X connect 5 0 4 0;
#X connect 6 0 13 1;
#X connect 7 0 6 0;
#X connect 8 0 14 2;
#X connect 9 0 32 1;
#X connect 10 0 9 0;
#X connect 11 0 15 1;
#X connect 12 0 11 0;
#X connect 13 0 14 1;
#X connect 14 0 32 0;
#X connect 15 0 14 0;
#X connect 16 0 34 2;
#X connect 17 0 3 0;
#X connect 19 0 13 0;
#X connect 20 0 31 1;
#X connect 21 0 20 0;
#X connect 22 0 15 0;
#X connect 24 0 35 0;
#X connect 25 0 34 2;
#X connect 26 0 25 0;
#X connect 27 0 26 0;
#X connect 31 0 18 0;
#X connect 32 0 3 1;
#X connect 34 0 17 0;
#X connect 34 0 17 1;
#X connect 34 0 1 0;
#X connect 35 0 27 0;
#X restore 121 207 pd noise;
#X obj 26 326 +~;
#N canvas 708 184 316 572 osc 0;
#X obj 28 532 outlet~;
#X obj 29 9 inlet trigger;
#X obj 28 476 *~;
#X obj 43 402 osc~;
#X obj 43 222 *~;
#X obj 43 250 env~ 256;
#X obj 43 275 / 100;
#X obj 43 349 * 60;
#X obj 64 299 r \$0-tune;
#X obj 43 376 mtof;
#X obj 136 80 r \$0-decay;
#X obj 136 154 + 500;
#X text 131 181 500 - 5000;
#X msg 40 127 500;
#X msg 85 128 5000;
#X obj 136 129 * 4500;
#X text 143 299 1 - 127;
#X obj 99 251 outlet~ envelope;
#X obj 225 80 t b;
#X msg 225 357 0.785398;
#X text 193 387 reset phase pi/4;
#X obj 29 35 t b b;
#X obj 43 451 clip~ -1 1;
#X text 108 424 square it just a touch;
#X obj 43 426 *~ 1.03;
#X obj 28 503 hip~ 50;
#X obj 29 192 c_ead 3 3000;
#X obj 136 105 clip 0 1;
#X obj 64 324 clip 0 127;
#X connect 1 0 21 0;
#X connect 2 0 25 0;
#X connect 3 0 24 0;
#X connect 4 0 5 0;
#X connect 4 0 17 0;
#X connect 5 0 6 0;
#X connect 6 0 7 0;
#X connect 7 0 9 0;
#X connect 8 0 28 0;
#X connect 9 0 3 0;
#X connect 10 0 27 0;
#X connect 11 0 26 2;
#X connect 13 0 26 2;
#X connect 14 0 26 2;
#X connect 15 0 11 0;
#X connect 18 0 19 0;
#X connect 19 0 3 1;
#X connect 21 0 26 0;
#X connect 21 1 18 0;
#X connect 22 0 2 1;
#X connect 24 0 22 0;
#X connect 25 0 0 0;
#X connect 26 0 4 0;
#X connect 26 0 4 1;
#X connect 26 0 2 0;
#X connect 27 0 15 0;
#X connect 28 0 7 1;
#X restore 26 204 pd osc;
#X obj 183 212 r \$0-tone;
#X obj 26 271 *~ 0.7;
#X obj 121 300 *~ 0.5;
#X obj 154 271 * 0.6;
#X obj 26 409 *~;
#X obj 41 381 vline~;
#X obj 41 354 r \$0-cutoff;
#X obj 168 79 f \$0;
#X text 87 46 no overlap clicks!;
#X obj 121 144 f \$0;
#X obj 26 44 t b b b;
#X obj 26 127 t b b;
#X msg 168 104 \; \$1-cutoff 0 2;
#X msg 121 169 \; \$1-cutoff 1 2;
#X obj 26 93 delay 3;
#X obj 183 239 clip 0 1;
#X obj 290 433 switch~;
#X obj 237 360 env~;
#X obj 237 387 > 1;
#X msg 290 262 1;
#X obj 237 412 change;
#X obj 26 459 hip~ 5;
#X obj 26 435 *~ 2;
#X connect 0 0 15 0;
#X connect 2 0 7 0;
#X connect 3 0 9 0;
#X connect 4 0 6 0;
#X connect 4 1 22 0;
#X connect 5 0 20 0;
#X connect 6 0 3 0;
#X connect 7 0 3 1;
#X connect 8 0 7 1;
#X connect 9 0 27 0;
#X connect 10 0 9 1;
#X connect 11 0 10 0;
#X connect 12 0 17 0;
#X connect 14 0 18 0;
#X connect 15 0 19 0;
#X connect 15 1 12 0;
#X connect 15 2 24 0;
#X connect 16 0 2 0;
#X connect 16 0 4 0;
#X connect 16 1 14 0;
#X connect 19 0 16 0;
#X connect 20 0 8 0;
#X connect 22 0 23 0;
#X connect 23 0 25 0;
#X connect 24 0 21 0;
#X connect 25 0 21 0;
#X connect 26 0 1 0;
#X connect 27 0 26 0;
#X restore 21 170 pd guts;
#X obj 67 86 moses 1;
#X text 119 87 no noteoffs!;
#N canvas 496 105 387 156 defaults 0;
#X obj 21 12 inlet;
#X obj 286 22 loadbang;
#X obj 21 118 outlet;
#X obj 286 54 f \$2;
#X obj 286 79 sel 0;
#X msg 286 104 60;
#X obj 286 126 t f;
#X msg 21 78 amp 0.5 \, tone 0.5 \, decay 0.5 \, tune \$1;
#X connect 0 0 3 0;
#X connect 1 0 3 0;
#X connect 3 0 4 0;
#X connect 4 0 5 0;
#X connect 4 1 6 0;
#X connect 5 0 6 0;
#X connect 6 0 7 0;
#X connect 7 0 2 0;
#X restore 396 49 pd defaults;
#X obj 312 49 route reset;
#X obj 312 15 inlet control;
#N canvas 172 83 586 377 LICENSE-GPL 0;
#X text 57 88 This program is free software: you can redistribute it
and/or modify it under the terms of the GNU General Public License
as published by the Free Software Foundation \, either version 3 of
the License \, or (at your option) any later version.;
#X text 58 168 This program is distributed in the hope that it will
be useful \, but WITHOUT ANY WARRANTY \; without even the implied warranty
of MERCHANTABILITY or FITNESS FOR A PARTICULAR PURPOSE. See the GNU
General Public License for more details.;
#X text 57 261 You should have received a copy of the GNU General Public
License along with this program. If not \, see <http://www.gnu.org/licenses/>.
;
#X text 60 325 See the file LICENSE.txt for the full license text.
;
#X text 56 54 Copyright (C) 2009 \, 2013 Dan Wilcox <danomatika@gmail.com>
;
#X restore 386 239 pd LICENSE-GPL;
#X obj 190 119 r \$0-amp;
#N canvas 4 51 201 257 vel*amp 0;
#X obj 32 -106 / 127;
#X obj 92 5 * 1;
#X obj 80 -58 t b f;
#X obj 80 -27 f 1;
#X obj 80 -82 clip 0 1;
#X obj 32 -140 inlet;
#X obj 80 -113 inlet;
#X obj 92 41 outlet;
#X connect 0 0 3 0;
#X connect 1 0 7 0;
#X connect 2 0 3 0;
#X connect 2 1 1 1;
#X connect 3 0 1 0;
#X connect 4 0 2 0;
#X connect 5 0 0 0;
#X connect 6 0 4 0;
#X restore 133 146 pd vel*amp;
#X obj 375 77 u_dispatch \$0 amp;
#X obj 375 98 u_dispatch \$0 tone;
#X obj 375 120 u_dispatch \$0 decay;
#X obj 375 142 u_dispatch \$0 tune;
#X obj 326 175 u_loader s_bendytom-\$1 \$0;
#X obj 21 59 route bang float;
#X text 69 17 an electro bendy tom using c_ead;
#X connect 1 0 4 0;
#X connect 1 1 12 0;
#X connect 2 0 18 0;
#X connect 3 0 0 0;
#X connect 4 0 3 0;
#X connect 5 1 1 0;
#X connect 7 0 13 0;
#X connect 8 0 7 0;
#X connect 8 1 13 0;
#X connect 9 0 8 0;
#X connect 11 0 12 1;
#X connect 12 0 3 1;
#X connect 13 0 14 0;
#X connect 14 0 15 0;
#X connect 15 0 16 0;
#X connect 18 0 4 0;
#X connect 18 1 5 0;
