#N canvas 0 22 490 257 10;
#X obj 30 36 noise~;
#X obj 30 63 *~ 0.125;
#X obj 30 154 fexpr~ if($y+$x > 1 \, 2-$y-$x \, if($y+$x < -1 \, -2-$y-$x
\, $y+$x));
#X obj 30 207 outlet~;
#X obj 99 37 loadbang;
#X obj 99 59 random 65536;
#X obj 99 82 / 32768;
#X obj 99 107 - 1;
#X msg 99 131 set \$1;
#X text 99 204 posted by Matt Barder <brbrofsvl@gmail.com> to the pd-list
Nov 2015;
#X connect 0 0 1 0;
#X connect 1 0 2 0;
#X connect 2 0 3 0;
#X connect 4 0 5 0;
#X connect 5 0 6 0;
#X connect 6 0 7 0;
#X connect 7 0 8 0;
#X connect 8 0 2 0;
