#N canvas 364 103 669 420 10;
#N canvas 254 129 276 467 fm 0;
#X obj 29 103 osc~;
#X obj 29 148 *~;
#X obj 30 306 +~;
#X obj 30 340 osc~;
#X obj 30 375 +~;
#X obj 141 104 osc~;
#X obj 141 151 *~;
#X obj 141 268 *~;
#X obj 141 307 +~;
#X obj 141 341 osc~;
#X obj 30 433 outlet~;
#X obj 156 48 inlet~ envelope;
#X text 185 103 mod freq;
#X text 180 270 mod index;
#X text 179 308 carrer freq;
#X obj 84 17 inlet note;
#X obj 84 46 mtof;
#X obj 30 403 *~ 0.5;
#X obj 156 214 clip 0 1;
#X obj 156 184 r \$0-pluck;
#X obj 156 242 * 1000;
#X obj 30 267 *~ 1005;
#X connect 0 0 1 0;
#X connect 1 0 21 0;
#X connect 2 0 3 0;
#X connect 3 0 4 0;
#X connect 4 0 17 0;
#X connect 5 0 6 0;
#X connect 6 0 7 0;
#X connect 7 0 8 0;
#X connect 8 0 9 0;
#X connect 9 0 4 1;
#X connect 11 0 1 1;
#X connect 11 0 6 1;
#X connect 15 0 16 0;
#X connect 16 0 0 0;
#X connect 16 0 5 0;
#X connect 16 0 2 1;
#X connect 16 0 8 1;
#X connect 17 0 10 0;
#X connect 18 0 20 0;
#X connect 19 0 18 0;
#X connect 20 0 7 1;
#X connect 20 0 21 1;
#X connect 21 0 2 0;
#X restore 28 319 pd fm synthesis;
#N canvas 496 105 387 156 defaults 0;
#X obj 21 12 inlet;
#X obj 58 43 loadbang;
#X obj 21 118 outlet;
#X msg 21 78 pluck 0.5 \, A 0.102 \, D 0.37 \, S 0.291 \, R 0.629;
#X connect 0 0 3 0;
#X connect 1 0 3 0;
#X connect 3 0 2 0;
#X restore 552 59 pd defaults;
#X obj 126 175 clip 0 127;
#X obj 261 176 *;
#X obj 261 145 / 3;
#X obj 383 147 / 3;
#X obj 383 180 *;
#X obj 199 176 *;
#X obj 199 145 / 3;
#X obj 199 90 clip 0 1;
#X obj 261 90 clip 0 1;
#X obj 318 90 clip 0 1;
#X obj 383 92 clip 0 1;
#X obj 383 119 * 127;
#X obj 318 209 * 100;
#X obj 153 384 outlet~;
#X obj 153 351 *~;
#X obj 199 119 * 100;
#X obj 261 116 * 100;
#X text 194 21 a simple fm bass;
#X obj 483 205 u_loader s_fmbass-\$1 \$0;
#X obj 69 89 unpack 0 0;
#X obj 28 175 stripnote;
#X obj 168 266 c_adsr 0.75 7.24 173 37.6 492;
#X obj 126 203 / 127;
#X obj 126 225 t a a;
#X obj 199 60 r \$0-A;
#X obj 261 60 r \$0-D;
#X obj 318 60 r \$0-S;
#X obj 383 61 r \$0-R;
#X obj 531 111 u_dispatch \$0 A;
#X obj 531 133 u_dispatch \$0 D;
#X obj 531 153 u_dispatch \$0 S;
#X obj 531 174 u_dispatch \$0 R;
#X obj 468 61 route reset;
#N canvas 172 83 586 377 LICENSE-GPL 0;
#X text 57 88 This program is free software: you can redistribute it
and/or modify it under the terms of the GNU General Public License
as published by the Free Software Foundation \, either version 3 of
the License \, or (at your option) any later version.;
#X text 58 168 This program is distributed in the hope that it will
be useful \, but WITHOUT ANY WARRANTY \; without even the implied warranty
of MERCHANTABILITY or FITNESS FOR A PARTICULAR PURPOSE. See the GNU
General Public License for more details.;
#X text 57 261 You should have received a copy of the GNU General Public
License along with this program. If not \, see <http://www.gnu.org/licenses/>.
;
#X text 60 325 See the file LICENSE.txt for the full license text.
;
#X text 56 54 Copyright (C) 2012 \, Dan Wilcox <danomatika@gmail.com>
;
#X restore 439 328 pd LICENSE-GPL;
#X obj 57 22 inlet notes;
#X obj 468 23 inlet control;
#X obj 531 89 u_dispatch \$0 pluck;
#X connect 0 0 16 0;
#X connect 1 0 38 0;
#X connect 2 0 24 0;
#X connect 3 0 23 3;
#X connect 4 0 3 1;
#X connect 4 0 3 0;
#X connect 5 0 6 1;
#X connect 5 0 6 0;
#X connect 6 0 23 5;
#X connect 7 0 23 2;
#X connect 8 0 7 1;
#X connect 8 0 7 0;
#X connect 9 0 17 0;
#X connect 10 0 18 0;
#X connect 11 0 14 0;
#X connect 12 0 13 0;
#X connect 13 0 5 0;
#X connect 14 0 23 4;
#X connect 16 0 15 0;
#X connect 17 0 8 0;
#X connect 18 0 4 0;
#X connect 21 1 2 0;
#X connect 22 0 0 0;
#X connect 23 0 16 1;
#X connect 23 0 0 1;
#X connect 24 0 25 0;
#X connect 25 0 23 0;
#X connect 25 1 23 1;
#X connect 26 0 9 0;
#X connect 27 0 10 0;
#X connect 28 0 11 0;
#X connect 29 0 12 0;
#X connect 30 0 31 0;
#X connect 31 0 32 0;
#X connect 32 0 33 0;
#X connect 34 0 1 0;
#X connect 34 1 38 0;
#X connect 36 0 21 0;
#X connect 36 0 22 0;
#X connect 37 0 34 0;
#X connect 38 0 30 0;
