#N canvas 110 114 483 382 10;
#X obj 193 210 r RJLIB;
#X obj 193 231 route sf-samplerate;
#X obj 193 253 s \$0-sr;
#X text 189 189 Allow global setting of soundfile samplerate;
#N canvas 0 22 190 276 sr 0;
#X obj 32 29 inlet;
#X obj 32 89 route sr;
#X obj 32 59 list trim;
#X obj 77 119 outlet;
#X obj 32 219 s \$0-sr;
#X connect 0 0 2 0;
#X connect 1 0 4 0;
#X connect 1 1 3 0;
#X connect 2 0 1 0;
#X restore 307 52 pd sr;
#X obj 20 141 list;
#N canvas 295 98 454 527 defaults 0;
#X obj 22 20 inlet;
#X obj 56 171 t a b;
#X msg 83 381 1;
#X obj 83 351 select 0;
#X obj 56 231 unpack 1 2 3 4;
#X msg 83 201 1 1 0 0;
#X obj 110 321 s \$0-startpos;
#X obj 83 431 s \$0-transpos;
#X obj 56 491 s \$0-gain;
#X obj 22 141 list split 1;
#X obj 49 108 outlet;
#X obj 137 291 s \$0-duration;
#X text 148 201 defaults: gain 1 \, trans 1 \, start 0 \, dur 0==all
;
#X obj 56 461 clip 0 1;
#X obj 22 47 t a a;
#X obj 49 77 list split 1;
#X text 97 109 set table first \, otherwise samplelen not set;
#X connect 0 0 14 0;
#X connect 1 0 4 0;
#X connect 1 1 5 0;
#X connect 2 0 7 0;
#X connect 3 0 2 0;
#X connect 3 1 7 0;
#X connect 4 0 13 0;
#X connect 4 1 3 0;
#X connect 4 2 6 0;
#X connect 4 3 11 0;
#X connect 5 0 4 0;
#X connect 9 1 1 0;
#X connect 13 0 8 0;
#X connect 14 0 9 0;
#X connect 14 1 15 0;
#X connect 15 0 10 0;
#X restore 20 168 pd defaults;
#N canvas 270 23 714 612 loop-sample 1;
#X obj 399 453 samphold~;
#X obj 340 404 loop~;
#X obj 340 454 *~;
#X obj 340 483 +~;
#X obj 558 24 r \$0-startpos;
#X obj 101 23 r \$0-start;
#X obj 26 23 r \$0-stop;
#X obj 42 50 del 5;
#X obj 101 50 t b b;
#X msg 128 81 1;
#X msg 42 81 0;
#X obj 42 111 switch~;
#X obj 356 23 r \$0-transpos;
#X obj 101 151 f;
#X msg 26 149 0;
#X obj 214 245 sel 0;
#X obj 280 160 r \$0-sr;
#X obj 214 52 sel 0;
#X obj 229 78 r \$0-samplelen;
#X obj 214 105 f;
#X obj 597 53 r \$0-sr;
#X obj 558 110 * 22.05;
#X obj 597 82 / 1000;
#X obj 280 186 / 1000;
#X obj 241 211 * 22.05;
#X text 261 247 swallow zero len;
#X text 290 212 ms to samples;
#X obj 214 23 r \$0-duration;
#X text 607 110 ms to samples;
#X obj 128 266 r \$0-set;
#X msg 128 294 set \$1;
#X obj 300 332 loadbang;
#X obj 356 51 moses 0;
#X obj 356 134 abs;
#X obj 356 109 t f b;
#X obj 367 298 f;
#X obj 367 328 * 1;
#X obj 395 78 t f b;
#X msg 422 159 1;
#X msg 383 159 -1;
#X obj 383 268 t b f;
#X obj 449 179 r \$0-samplelen;
#X obj 434 208 f;
#X obj 434 267 -;
#X obj 558 141 t f f;
#X obj 558 355 t a;
#X obj 101 359 t a;
#X text 397 328 -1 when backwards;
#X text 462 268 subtract from end when backwards;
#X obj 340 513 tabread4~;
#N canvas 0 23 371 250 smooth 0;
#X obj 91 48 inlet~;
#X obj 91 206 outlet~;
#X obj 19 46 inlet~;
#N canvas 420 77 352 287 smooth 0;
#X obj 77 89 -~ 0.5;
#X obj 77 117 *~ 0.5;
#X obj 77 146 cos~;
#X obj 77 184 *~;
#X obj 77 51 inlet~;
#X obj 77 227 outlet~;
#X obj 159 51 inlet~;
#X obj 235 51 inlet;
#X obj 235 96 switch~;
#X connect 0 0 1 0;
#X connect 1 0 2 0;
#X connect 2 0 3 0;
#X connect 3 0 5 0;
#X connect 4 0 0 0;
#X connect 6 0 3 1;
#X connect 7 0 8 0;
#X restore 91 110 pd smooth;
#X obj 91 167 c_spigot;
#X obj 19 166 c_spigot;
#X obj 205 48 r \$0-smooth;
#X obj 205 107 expr -$f1+1;
#X msg 238 78 0;
#X obj 293 48 loadbang;
#X connect 0 0 3 0;
#X connect 2 0 3 1;
#X connect 2 0 5 0;
#X connect 3 0 4 0;
#X connect 4 0 1 0;
#X connect 5 0 1 0;
#X connect 6 0 4 1;
#X connect 6 0 3 2;
#X connect 6 0 7 0;
#X connect 7 0 5 1;
#X connect 8 0 7 0;
#X connect 9 0 8 0;
#X restore 340 542 pd smooth;
#X obj 277 481 inlet;
#X obj 340 574 outlet~;
#X msg 300 360 bang;
#X obj 367 369 - 0;
#X connect 0 0 3 1;
#X connect 1 0 0 1;
#X connect 1 0 2 0;
#X connect 1 0 50 1;
#X connect 1 1 2 1;
#X connect 2 0 3 0;
#X connect 3 0 49 0;
#X connect 4 0 21 0;
#X connect 5 0 8 0;
#X connect 6 0 7 0;
#X connect 6 0 14 0;
#X connect 7 0 10 0;
#X connect 8 0 13 0;
#X connect 8 1 9 0;
#X connect 9 0 11 0;
#X connect 10 0 11 0;
#X connect 12 0 32 0;
#X connect 13 0 46 0;
#X connect 14 0 46 0;
#X connect 15 1 35 0;
#X connect 16 0 23 0;
#X connect 17 0 19 0;
#X connect 17 1 24 0;
#X connect 18 0 19 1;
#X connect 19 0 15 0;
#X connect 20 0 22 0;
#X connect 21 0 44 0;
#X connect 22 0 21 1;
#X connect 23 0 24 1;
#X connect 24 0 15 0;
#X connect 27 0 17 0;
#X connect 29 0 30 0;
#X connect 30 0 46 0;
#X connect 31 0 53 0;
#X connect 32 0 34 0;
#X connect 32 1 37 0;
#X connect 33 0 13 0;
#X connect 34 0 33 0;
#X connect 34 1 39 0;
#X connect 34 1 42 0;
#X connect 35 0 36 0;
#X connect 36 0 54 0;
#X connect 37 0 13 0;
#X connect 37 1 38 0;
#X connect 38 0 40 0;
#X connect 39 0 40 0;
#X connect 40 0 35 0;
#X connect 40 1 36 1;
#X connect 41 0 42 1;
#X connect 42 0 43 0;
#X connect 43 0 45 0;
#X connect 44 0 45 0;
#X connect 44 1 43 1;
#X connect 44 1 54 1;
#X connect 45 0 0 0;
#X connect 46 0 1 0;
#X connect 49 0 50 0;
#X connect 50 0 52 0;
#X connect 51 0 49 0;
#X connect 53 0 1 0;
#X connect 54 0 1 1;
#X restore 20 230 pd loop-sample;
#N canvas 0 22 190 276 smooth 0;
#X obj 32 29 inlet;
#X obj 32 59 list trim;
#X obj 101 119 outlet;
#X obj 32 89 route smooth;
#X obj 32 219 s \$0-smooth;
#X obj 32 144 route float;
#X connect 0 0 1 0;
#X connect 1 0 3 0;
#X connect 3 0 5 0;
#X connect 3 1 2 0;
#X connect 5 0 4 0;
#X restore 307 80 pd smooth;
#N canvas 0 22 321 262 set 0;
#X obj 33 24 inlet;
#X obj 173 218 s \$0-samplelen;
#X obj 173 190 array size;
#X obj 173 105 t b a;
#X obj 230 163 symbol;
#X obj 230 136 list trim;
#X obj 52 105 list prepend set;
#X obj 52 134 list trim;
#X obj 33 218 s \$0-start;
#X obj 33 63 t b a a;
#X obj 52 160 outlet;
#X connect 0 0 9 0;
#X connect 2 0 1 0;
#X connect 3 0 2 0;
#X connect 3 1 5 0;
#X connect 4 0 2 1;
#X connect 5 0 4 0;
#X connect 6 0 7 0;
#X connect 7 0 10 0;
#X connect 9 0 8 0;
#X connect 9 1 6 0;
#X connect 9 2 3 0;
#X restore 20 199 pd set table;
#X obj 20 20 inlet;
#X obj 307 21 inlet;
#X obj 77 100 t b a;
#N canvas 44 439 187 275 loop 0;
#X obj 33 24 inlet;
#X obj 52 204 s \$0-stop;
#X obj 33 235 s \$0-start;
#X obj 33 173 sel 1 0;
#X obj 120 85 outlet;
#X obj 76 142 s \$0-set;
#X obj 76 114 clip 0 1;
#X obj 33 53 route float set;
#X connect 0 0 7 0;
#X connect 3 0 2 0;
#X connect 3 1 1 0;
#X connect 6 0 5 0;
#X connect 7 0 3 0;
#X connect 7 1 6 0;
#X connect 7 2 4 0;
#X restore 77 76 pd loop;
#X obj 20 50 route bang;
#X obj 20 345 outlet~;
#X obj 20 313 *~ 1;
#X obj 20 262 hip~ 5;
#X obj 41 287 r \$0-gain;
#N canvas 0 23 202 248 stop 0;
#X obj 31 23 inlet;
#X obj 31 48 list trim;
#X obj 31 200 s \$0-stop;
#X msg 31 173 bang;
#X msg 77 114 0;
#X obj 77 141 s \$0-set;
#X obj 31 74 route stop reset;
#X connect 0 0 1 0;
#X connect 1 0 6 0;
#X connect 3 0 2 0;
#X connect 4 0 5 0;
#X connect 6 0 3 0;
#X connect 6 1 4 0;
#X restore 307 107 pd stop reset;
#X connect 0 0 1 0;
#X connect 1 0 2 0;
#X connect 4 0 8 0;
#X connect 5 0 6 0;
#X connect 6 0 9 0;
#X connect 7 0 17 0;
#X connect 8 0 19 0;
#X connect 9 0 7 0;
#X connect 10 0 14 0;
#X connect 11 0 4 0;
#X connect 12 0 5 0;
#X connect 12 1 5 1;
#X connect 13 0 12 0;
#X connect 14 0 5 0;
#X connect 14 1 13 0;
#X connect 16 0 15 0;
#X connect 17 0 16 0;
#X connect 18 0 16 1;
