#N canvas 756 371 431 481 10;
#X declare -stdpath extra/ggee;
#X obj 32 451 outlet~;
#N canvas 175 362 485 290 Oscillator_Bank 0;
#X obj -27 32 inlet note;
#X obj -27 257 outlet~;
#X obj 129 256 outlet~;
#X obj 228 256 outlet~;
#X obj 113 32 r \$0-control;
#X obj 370 257 outlet~;
#X obj 269 219 throw~ \$0-mod;
#N canvas 66 158 415 355 Mod 0;
#X obj 36 20 inlet~ vco3;
#X obj 55 52 inlet~ pink noise;
#X obj 183 17 inlet control;
#X obj 75 96 clip 0 10;
#X obj 75 125 / 10;
#X obj 57 192 / 127;
#X obj 36 225 *~ 0;
#X obj 219 320 outlet~ mod vca;
#X obj 36 323 outlet~ mod vco;
#X obj 36 270 *~ 0;
#X obj 219 276 *~ 0;
#X obj 36 155 c_xfade;
#X obj 145 194 int;
#X obj 145 222 clip 0 1;
#X obj 240 195 int;
#X obj 240 223 clip 0 1;
#X obj 334 95 int;
#X obj 334 123 clip 0 1;
#X obj 183 52 route mix float osc filter onoff;
#X obj 334 151 switch~;
#X connect 0 0 11 0;
#X connect 1 0 11 1;
#X connect 2 0 18 0;
#X connect 3 0 4 0;
#X connect 4 0 11 2;
#X connect 5 0 6 1;
#X connect 6 0 10 0;
#X connect 6 0 9 0;
#X connect 9 0 8 0;
#X connect 10 0 7 0;
#X connect 11 0 6 0;
#X connect 12 0 13 0;
#X connect 13 0 9 1;
#X connect 14 0 15 0;
#X connect 15 0 10 1;
#X connect 16 0 17 0;
#X connect 17 0 19 0;
#X connect 18 0 3 0;
#X connect 18 1 5 0;
#X connect 18 2 12 0;
#X connect 18 3 14 0;
#X connect 18 4 16 0;
#X restore 267 181 pd Mod Mixer;
#N canvas 90 48 579 720 Osc3 0;
#X msg 488 481 0.33;
#X msg 452 481 0.5;
#X msg 530 481 0.25;
#X obj 157 617 *~ 0;
#X obj 272 620 *~ 0;
#X obj 34 618 *~ 1;
#X msg 55 589 1;
#X msg 85 591 0;
#X msg 177 587 1;
#X msg 207 589 0;
#X obj 55 562 sel 0;
#X obj 177 560 sel 1;
#X msg 294 588 1;
#X msg 324 590 0;
#X obj 294 561 sel 2;
#X obj 389 620 *~ 0;
#X msg 411 588 1;
#X msg 441 590 0;
#X obj 411 561 sel 3 4 5;
#X obj 329 439 int;
#X text 443 69 0 - triangle;
#X text 444 106 2 - sawtooth;
#X text 444 124 3 - 1:2 square;
#X text 445 141 4 - 1:3 square;
#X text 444 159 5 - 1:4 square;
#X obj 225 139 int;
#X obj 165 412 + 0;
#X obj 329 465 clip 0 5;
#X obj 225 165 clip 0 5;
#X obj 165 319 f;
#X obj 225 224 t b f;
#X obj 165 382 + 0;
#X obj 165 269 t b f;
#X obj 89 28 inlet note;
#X text 443 87 1 - rev sawtooth;
#X obj 174 29 inlet control;
#N canvas 0 22 481 394 detune 0;
#X msg 235 154 127;
#X msg 207 153 0;
#X msg 115 153 -7;
#X msg 148 153 7;
#X obj 90 198 clip -7 7;
#X obj 115 68 inlet control;
#X obj 115 110 sel 1;
#X obj 90 305 outlet note;
#X obj 171 302 outlet detune;
#X msg 225 213 0;
#X msg 173 214 1;
#X text 156 110 increase range if control is off;
#X obj 90 36 inlet detune;
#X obj 90 254 u_demux2;
#X connect 0 0 4 2;
#X connect 1 0 4 1;
#X connect 2 0 4 1;
#X connect 3 0 4 2;
#X connect 4 0 13 0;
#X connect 5 0 6 0;
#X connect 6 0 2 0;
#X connect 6 0 3 0;
#X connect 6 0 10 0;
#X connect 6 1 1 0;
#X connect 6 1 0 0;
#X connect 6 1 9 0;
#X connect 9 0 13 1;
#X connect 10 0 13 1;
#X connect 12 0 4 0;
#X connect 13 0 7 0;
#X connect 13 1 8 0;
#X restore 134 234 pd detune;
#X obj 389 683 outlet~ mod;
#X obj 157 682 outlet~;
#X obj 89 202 spigot;
#X obj 165 352 + 0;
#X obj 259 269 r \$0-tune;
#X obj 259 298 t b f;
#X obj 225 196 expr ($f1-2)*12;
#X obj 389 509 s_blsquare;
#X obj 34 512 s_bltriangle;
#N canvas 0 22 141 202 saw 0;
#X obj 31 80 s_blsaw;
#X obj 31 128 -~ 0.8;
#X obj 31 104 *~ 1.6;
#X obj 31 26 inlet~;
#X obj 70 52 inlet;
#X obj 31 157 outlet~;
#X connect 0 0 2 0;
#X connect 1 0 5 0;
#X connect 2 0 1 0;
#X connect 3 0 0 0;
#X connect 4 0 0 1;
#X restore 272 507 pd saw;
#X obj 206 439 inlet~ mod;
#X obj 165 468 +~;
#X obj 165 439 mtof;
#X obj 437 460 sig~ 0.5;
#N canvas 0 22 141 202 rev 0;
#X obj 31 80 s_blsaw;
#X obj 31 128 -~ 0.8;
#X obj 31 104 *~ 1.6;
#X obj 31 26 inlet~;
#X obj 70 52 inlet;
#X obj 31 157 outlet~;
#X obj 31 52 *~ -1;
#X connect 0 0 2 0;
#X connect 1 0 5 0;
#X connect 2 0 1 0;
#X connect 3 0 6 0;
#X connect 4 0 0 1;
#X connect 6 0 0 0;
#X restore 157 510 pd rev saw;
#X obj 174 68 route control range detune waveform;
#X obj 159 94 int;
#X obj 159 121 clip 0 1;
#X obj 158 145 t f f;
#X connect 0 0 50 0;
#X connect 1 0 50 0;
#X connect 2 0 50 0;
#X connect 3 0 37 0;
#X connect 3 0 38 0;
#X connect 4 0 37 0;
#X connect 4 0 38 0;
#X connect 5 0 37 0;
#X connect 5 0 38 0;
#X connect 6 0 5 1;
#X connect 7 0 5 1;
#X connect 8 0 3 1;
#X connect 9 0 3 1;
#X connect 10 0 6 0;
#X connect 10 1 7 0;
#X connect 11 0 8 0;
#X connect 11 1 9 0;
#X connect 12 0 4 1;
#X connect 13 0 4 1;
#X connect 14 0 12 0;
#X connect 14 1 13 0;
#X connect 15 0 37 0;
#X connect 15 0 38 0;
#X connect 16 0 15 1;
#X connect 17 0 15 1;
#X connect 18 0 16 0;
#X connect 18 0 1 0;
#X connect 18 1 0 0;
#X connect 18 1 16 0;
#X connect 18 2 2 0;
#X connect 18 2 16 0;
#X connect 18 3 17 0;
#X connect 19 0 27 0;
#X connect 25 0 28 0;
#X connect 26 0 49 0;
#X connect 27 0 14 0;
#X connect 27 0 18 0;
#X connect 27 0 11 0;
#X connect 27 0 10 0;
#X connect 28 0 43 0;
#X connect 29 0 40 0;
#X connect 30 0 29 0;
#X connect 30 1 26 1;
#X connect 31 0 26 0;
#X connect 32 0 29 0;
#X connect 32 1 31 1;
#X connect 33 0 39 0;
#X connect 35 0 52 0;
#X connect 36 0 29 0;
#X connect 36 1 32 0;
#X connect 39 0 29 0;
#X connect 40 0 31 0;
#X connect 41 0 42 0;
#X connect 42 0 29 0;
#X connect 42 1 40 1;
#X connect 43 0 30 0;
#X connect 44 0 15 0;
#X connect 45 0 5 0;
#X connect 46 0 4 0;
#X connect 47 0 48 1;
#X connect 48 0 45 0;
#X connect 48 0 51 0;
#X connect 48 0 46 0;
#X connect 48 0 44 0;
#X connect 49 0 48 0;
#X connect 50 0 44 1;
#X connect 51 0 3 0;
#X connect 52 0 53 0;
#X connect 52 1 25 0;
#X connect 52 2 36 0;
#X connect 52 3 19 0;
#X connect 53 0 54 0;
#X connect 54 0 55 0;
#X connect 55 0 39 1;
#X connect 55 1 36 1;
#X restore 228 142 pd Osc3;
#N canvas 66 142 567 582 Osc2 0;
#X msg 480 323 0.33;
#X msg 445 323 0.5;
#X msg 523 322 0.25;
#X obj 153 489 *~ 0;
#X obj 268 492 *~ 0;
#X obj 30 490 *~ 1;
#X msg 51 461 1;
#X msg 81 461 0;
#X msg 174 459 1;
#X msg 204 459 0;
#X obj 51 434 sel 0;
#X obj 174 432 sel 1;
#X msg 289 460 1;
#X msg 319 460 0;
#X obj 289 433 sel 2;
#X obj 385 487 *~ 0;
#X msg 406 455 1;
#X msg 439 455 0;
#X obj 407 411 sel 3 4 5;
#X obj 353 117 int;
#X text 404 25 0 - triangle;
#X text 405 46 1 - triangle/sawtooth mix;
#X text 406 65 2 - sawtooth;
#X text 406 83 3 - 1:2 square;
#X text 407 100 4 - 1:3 square;
#X text 406 118 5 - 1:4 square;
#X obj 140 86 int;
#X obj 30 299 + 0;
#X obj 353 143 clip 0 5;
#X obj 140 112 clip 0 5;
#X obj 30 213 f;
#X obj 140 171 t b f;
#X obj 30 272 + 0;
#X obj 262 144 t b f;
#X obj 30 24 inlet note;
#X obj 262 116 clip -7 7;
#X obj 207 549 outlet~;
#X obj 140 25 inlet controller;
#X obj 49 145 r \$0-tune;
#X obj 49 174 t b f;
#X obj 30 244 + 0;
#X obj 140 143 expr ($f1-2)*12;
#X obj 385 381 s_blsquare;
#X obj 30 384 s_bltriangle;
#N canvas 0 22 256 274 trisaw 0;
#X obj 17 84 s_bltriangle;
#X obj 123 85 s_blsaw;
#X obj 81 159 +~;
#X obj 81 209 -~ 0.25;
#X obj 81 186 *~ 0.75;
#X msg 162 53 1;
#X obj 162 24 loadbang;
#X obj 123 133 -~ 0.8;
#X obj 123 109 *~ 1.6;
#X obj 17 23 inlet~;
#X obj 81 236 outlet~;
#X obj 86 23 inlet;
#X connect 0 0 2 0;
#X connect 1 0 8 0;
#X connect 2 0 4 0;
#X connect 3 0 10 0;
#X connect 4 0 3 0;
#X connect 5 0 0 2;
#X connect 5 0 1 1;
#X connect 6 0 5 0;
#X connect 7 0 2 1;
#X connect 8 0 7 0;
#X connect 9 0 1 0;
#X connect 9 0 0 0;
#X connect 11 0 1 1;
#X connect 11 0 0 2;
#X restore 153 383 pd trisaw;
#N canvas 0 22 141 202 saw 0;
#X obj 31 80 s_blsaw;
#X obj 31 128 -~ 0.8;
#X obj 31 104 *~ 1.6;
#X obj 31 26 inlet~;
#X obj 70 52 inlet;
#X obj 31 157 outlet~;
#X connect 0 0 2 0;
#X connect 1 0 5 0;
#X connect 2 0 1 0;
#X connect 3 0 0 0;
#X connect 4 0 0 1;
#X restore 268 381 pd saw;
#X obj 413 355 sig~ 0.5;
#X obj 68 299 inlet~ mod;
#X obj 30 325 mtof;
#X obj 140 55 route range detune waveform;
#X obj 30 353 +~;
#X obj 68 325 *~;
#X connect 0 0 46 0;
#X connect 1 0 46 0;
#X connect 2 0 46 0;
#X connect 3 0 36 0;
#X connect 4 0 36 0;
#X connect 5 0 36 0;
#X connect 6 0 5 1;
#X connect 7 0 5 1;
#X connect 8 0 3 1;
#X connect 9 0 3 1;
#X connect 10 0 6 0;
#X connect 10 1 7 0;
#X connect 11 0 8 0;
#X connect 11 1 9 0;
#X connect 12 0 4 1;
#X connect 13 0 4 1;
#X connect 14 0 12 0;
#X connect 14 1 13 0;
#X connect 15 0 36 0;
#X connect 16 0 15 1;
#X connect 17 0 15 1;
#X connect 18 0 16 0;
#X connect 18 0 1 0;
#X connect 18 1 0 0;
#X connect 18 1 16 0;
#X connect 18 2 2 0;
#X connect 18 2 16 0;
#X connect 18 3 17 0;
#X connect 19 0 28 0;
#X connect 26 0 29 0;
#X connect 27 0 48 0;
#X connect 28 0 14 0;
#X connect 28 0 18 0;
#X connect 28 0 11 0;
#X connect 28 0 10 0;
#X connect 29 0 41 0;
#X connect 30 0 40 0;
#X connect 31 0 30 0;
#X connect 31 1 27 1;
#X connect 32 0 27 0;
#X connect 33 0 30 0;
#X connect 33 1 32 1;
#X connect 34 0 30 0;
#X connect 35 0 33 0;
#X connect 37 0 49 0;
#X connect 38 0 39 0;
#X connect 39 0 30 0;
#X connect 39 1 40 1;
#X connect 40 0 32 0;
#X connect 41 0 31 0;
#X connect 42 0 15 0;
#X connect 43 0 5 0;
#X connect 44 0 3 0;
#X connect 45 0 4 0;
#X connect 46 0 42 1;
#X connect 47 0 51 0;
#X connect 48 0 50 0;
#X connect 48 0 51 1;
#X connect 49 0 26 0;
#X connect 49 1 35 0;
#X connect 49 2 19 0;
#X connect 50 0 43 0;
#X connect 50 0 44 0;
#X connect 50 0 45 0;
#X connect 50 0 42 0;
#X connect 51 0 50 1;
#X restore 129 225 pd Osc2;
#N canvas 724 208 573 531 Osc1 0;
#X obj 206 496 outlet~;
#X msg 483 288 0.33;
#X msg 448 288 0.5;
#X msg 526 288 0.25;
#X obj 153 434 *~ 0;
#X obj 268 437 *~ 0;
#X obj 30 435 *~ 1;
#X msg 51 406 1;
#X msg 81 406 0;
#X msg 174 405 1;
#X msg 204 405 0;
#X obj 51 379 sel 0;
#X obj 174 378 sel 1;
#X msg 289 405 1;
#X msg 319 405 0;
#X obj 289 378 sel 2;
#X obj 385 437 *~ 0;
#X msg 406 404 1;
#X msg 436 404 0;
#X obj 406 375 sel 3 4 5;
#X obj 276 118 int;
#X text 361 53 0 - triangle;
#X text 361 74 1 - triangle/sawtooth mix;
#X text 361 93 2 - sawtooth;
#X text 361 111 3 - 1:2 square;
#X text 361 128 4 - 1:3 square;
#X text 361 146 5 - 1:4 square;
#X obj 130 95 int;
#X obj 276 144 clip 0 5;
#X obj 130 121 clip 0 5;
#X obj 30 179 f;
#X obj 130 180 t b f;
#X obj 30 26 inlet note;
#X obj 130 27 inlet control;
#X obj 74 235 inlet~ mod;
#X obj 181 205 loadbang;
#X obj 54 106 r \$0-tune;
#X obj 54 135 t b f;
#X obj 30 204 + 0;
#X obj 130 152 expr ($f1-2)*12;
#X text 260 234 seed the phase;
#X obj 385 326 s_blsquare;
#X obj 30 233 + 0;
#X obj 30 261 mtof;
#X obj 413 265 sig~ 0.5;
#N canvas 0 22 256 274 trisaw 0;
#X obj 17 84 s_bltriangle;
#X obj 123 85 s_blsaw;
#X obj 81 159 +~;
#X obj 81 209 -~ 0.25;
#X obj 81 186 *~ 0.75;
#X msg 162 53 1;
#X obj 162 24 loadbang;
#X obj 123 133 -~ 0.8;
#X obj 123 109 *~ 1.6;
#X obj 17 23 inlet~;
#X obj 81 236 outlet~;
#X connect 0 0 2 0;
#X connect 1 0 8 0;
#X connect 2 0 4 0;
#X connect 3 0 10 0;
#X connect 4 0 3 0;
#X connect 5 0 0 2;
#X connect 5 0 1 1;
#X connect 6 0 5 0;
#X connect 7 0 2 1;
#X connect 8 0 7 0;
#X connect 9 0 1 0;
#X connect 9 0 0 0;
#X restore 153 328 pd trisaw;
#N canvas 0 22 141 202 saw 0;
#X obj 31 80 s_blsaw;
#X obj 31 128 -~ 0.8;
#X obj 31 104 *~ 1.6;
#X obj 31 26 inlet~;
#X obj 70 52 inlet;
#X obj 31 157 outlet~;
#X connect 0 0 2 0;
#X connect 1 0 5 0;
#X connect 2 0 1 0;
#X connect 3 0 0 0;
#X connect 4 0 0 1;
#X restore 268 326 pd saw;
#X obj 30 329 s_bltriangle;
#X obj 130 63 route range waveform;
#X obj 30 290 +~;
#X obj 74 262 *~;
#X msg 257 199 bang;
#X obj 181 236 random 1000;
#X obj 181 264 * 0.0001;
#X connect 1 0 44 0;
#X connect 2 0 44 0;
#X connect 3 0 44 0;
#X connect 4 0 0 0;
#X connect 5 0 0 0;
#X connect 6 0 0 0;
#X connect 7 0 6 1;
#X connect 8 0 6 1;
#X connect 9 0 4 1;
#X connect 10 0 4 1;
#X connect 11 0 7 0;
#X connect 11 1 8 0;
#X connect 12 0 9 0;
#X connect 12 1 10 0;
#X connect 13 0 5 1;
#X connect 14 0 5 1;
#X connect 15 0 13 0;
#X connect 15 1 14 0;
#X connect 16 0 0 0;
#X connect 17 0 16 1;
#X connect 18 0 16 1;
#X connect 19 0 17 0;
#X connect 19 0 2 0;
#X connect 19 1 1 0;
#X connect 19 1 17 0;
#X connect 19 2 3 0;
#X connect 19 2 17 0;
#X connect 19 3 18 0;
#X connect 20 0 28 0;
#X connect 27 0 29 0;
#X connect 28 0 15 0;
#X connect 28 0 19 0;
#X connect 28 0 12 0;
#X connect 28 0 11 0;
#X connect 29 0 39 0;
#X connect 30 0 38 0;
#X connect 31 0 30 0;
#X connect 31 1 42 1;
#X connect 32 0 30 0;
#X connect 33 0 48 0;
#X connect 34 0 50 0;
#X connect 35 0 52 0;
#X connect 36 0 37 0;
#X connect 37 0 30 0;
#X connect 37 1 38 1;
#X connect 38 0 42 0;
#X connect 39 0 31 0;
#X connect 41 0 16 0;
#X connect 42 0 43 0;
#X connect 43 0 49 0;
#X connect 43 0 50 1;
#X connect 44 0 41 1;
#X connect 45 0 4 0;
#X connect 46 0 5 0;
#X connect 47 0 6 0;
#X connect 48 0 27 0;
#X connect 48 1 20 0;
#X connect 49 0 41 0;
#X connect 49 0 45 0;
#X connect 49 0 46 0;
#X connect 49 0 47 0;
#X connect 50 0 49 1;
#X connect 51 0 52 0;
#X connect 52 0 53 0;
#X restore -27 227 pd Osc1;
#N canvas 133 284 442 260 Noise 0;
#X msg 279 134 0;
#X obj 24 102 noise~;
#X obj 55 158 *~ 1;
#X msg 76 129 1;
#X msg 106 131 0;
#X obj 76 102 sel 0;
#X obj 226 161 *~ 1;
#X msg 247 132 1;
#X obj 247 105 sel 1;
#X text 191 38 0 - white noise to mixer / pink to mod;
#X text 190 56 1 - pink noise to mixer / pink to mod;
#X obj 55 224 outlet~ mixer;
#X obj 197 224 outlet~ mod;
#X obj 76 21 inlet control;
#X obj 197 132 *~ 2;
#X obj 162 105 s_pinknoise;
#X obj 76 47 route type;
#X connect 0 0 6 1;
#X connect 1 0 2 0;
#X connect 2 0 11 0;
#X connect 3 0 2 1;
#X connect 4 0 2 1;
#X connect 5 0 3 0;
#X connect 5 1 4 0;
#X connect 6 0 11 0;
#X connect 7 0 6 1;
#X connect 8 0 7 0;
#X connect 8 1 0 0;
#X connect 13 0 16 0;
#X connect 14 0 6 0;
#X connect 14 0 12 0;
#X connect 15 0 14 0;
#X connect 16 0 5 0;
#X connect 16 0 8 0;
#X restore 370 143 pd Noise;
#X obj 113 65 route osc1 osc2 osc3 mod noise;
#X connect 0 0 10 0;
#X connect 0 0 9 0;
#X connect 0 0 8 0;
#X connect 4 0 12 0;
#X connect 7 0 10 1;
#X connect 7 0 9 1;
#X connect 7 1 6 0;
#X connect 8 0 3 0;
#X connect 8 1 7 0;
#X connect 9 0 2 0;
#X connect 10 0 1 0;
#X connect 11 0 5 0;
#X connect 11 1 7 1;
#X connect 12 0 10 2;
#X connect 12 1 9 2;
#X connect 12 2 8 1;
#X connect 12 3 7 2;
#X connect 12 4 11 0;
#X restore 32 289 pd Oscillator_Bank;
#X obj 173 323 inlet~ external;
#X obj 291 178 inlet control;
#N canvas 12 52 498 351 defaults 0;
#X obj 47 15 loadbang;
#X obj 32 313 outlet;
#X msg 47 113 osc1 range 3 \, osc waveform 0 \, osc2 range 3 \, osc2
detune 0 \, osc2 waveform 2 \, osc3 range 3 \, osc3 control 1 \, osc3
detune 0 \, osc3 waveform 3;
#X msg 88 172 osc1 vol 5 \, osc1 onoff 1 \, osc2 vol 5 \, osc2 onoff
1 \, osc3 vol 5 \, osc3 onoff 1 \, external onoff 0 \, external vol
5 \, noise onoff 0 \, noise vol 5 \, noise type 0;
#X msg 126 238 filter cutoff 100 \, filter emphasis 7 \, filter amount
7 \, filter A 10 \, filter D 300 \, filter S 5 \, contour A 10 \, contour
D 100 \, contour S 5;
#X msg 145 293 vol 7.5 \, A440 0;
#X msg 32 64 glide onoff 0 \, glide 0 \, tune 0 \, decay 1 \, mod onoff
0 \, mod 0 \, mod mix 0 \, mod osc 0 \, mod filter 0 \, keyboard 1
;
#X connect 0 0 3 0;
#X connect 0 0 6 0;
#X connect 0 0 2 0;
#X connect 0 0 4 0;
#X connect 0 0 5 0;
#X connect 2 0 1 0;
#X connect 3 0 1 0;
#X connect 4 0 1 0;
#X connect 5 0 1 0;
#X connect 6 0 1 0;
#X restore 320 212 pd defaults;
#X obj 32 177 inlet note;
#N canvas 177 387 354 358 Controllers 0;
#X obj 11 29 inlet note;
#X obj 102 96 clip -2.5 2.5;
#X text 114 67 Tune;
#X text 101 231 Glide;
#X obj 50 327 outlet note;
#X obj 174 29 r \$0-control;
#X msg 213 262 0;
#X msg 240 262 1;
#X obj 213 233 sel 0;
#X obj 123 171 clip 0 5000;
#X obj 102 122 s \$0-tune;
#X obj 11 63 moses 1;
#X obj 66 229 line;
#X obj 66 200 pack 0 200;
#X obj 252 97 s \$0-mod-int;
#X obj 174 58 route tune glide mod;
#X obj 213 129 route onoff;
#X obj 50 295 u_mux2;
#X obj 157 233 loadbang;
#X connect 0 0 11 0;
#X connect 1 0 10 0;
#X connect 5 0 15 0;
#X connect 6 0 17 2;
#X connect 7 0 17 2;
#X connect 8 0 6 0;
#X connect 8 1 7 0;
#X connect 9 0 13 1;
#X connect 11 1 17 0;
#X connect 11 1 13 0;
#X connect 12 0 17 1;
#X connect 13 0 12 0;
#X connect 15 0 1 0;
#X connect 15 1 16 0;
#X connect 15 2 14 0;
#X connect 16 0 8 0;
#X connect 16 1 9 0;
#X connect 17 0 4 0;
#X connect 18 0 6 0;
#X restore 32 252 pd Controllers;
#X obj 291 251 s \$0-control;
#N canvas 631 266 337 341 Modifiers 0;
#X obj 27 19 inlet~ audio;
#X obj 27 312 outlet~ audio;
#X obj 27 275 *~;
#X obj 156 131 r \$0-control;
#N canvas 693 45 414 306 Loudness 0;
#X obj 29 30 inlet vel;
#X obj 143 32 inlet control;
#X obj 29 265 outlet~;
#X text 164 57 R = D;
#X obj 185 108 * 10;
#X obj 143 79 route A D S;
#X obj 29 212 c_adsr 1 20 0 50 100;
#X obj 278 32 inlet decay;
#X obj 278 75 sel 0 1;
#X obj 146 174 f 100;
#X msg 278 118 5;
#X connect 0 0 6 0;
#X connect 1 0 5 0;
#X connect 4 0 6 4;
#X connect 5 0 6 2;
#X connect 5 1 6 3;
#X connect 5 1 9 0;
#X connect 5 2 4 0;
#X connect 6 0 2 0;
#X connect 7 0 8 0;
#X connect 8 0 10 0;
#X connect 8 1 9 0;
#X connect 9 0 6 5;
#X connect 10 0 6 5;
#X restore 108 223 pd Loudness Contour;
#N canvas 250 172 498 498 Filter 0;
#X obj 61 57 inlet vel;
#X obj 115 231 inlet~ mod;
#X obj 180 59 inlet control;
#X obj 34 19 inlet~;
#X obj 34 462 outlet~;
#X msg 100 106 127;
#X text 258 97 R = D;
#X obj 296 202 / 10;
#X obj 296 175 clip 0 10;
#X obj 425 202 / 10;
#X obj 425 176 clip 0 10;
#X obj 358 175 clip 0 127;
#X obj 222 127 * 10;
#X obj 61 83 moses 1;
#X obj 358 206 mtof;
#X obj 100 202 c_adsr 1 20 1000 50 1000;
#X obj 34 434 e_moog;
#X obj 100 319 *~ 1;
#X obj 148 320 - 1;
#X obj 100 364 +~ 0;
#X obj 148 344 abs;
#X obj 121 295 t f f;
#X obj 296 131 route amount cutoff emphasis;
#X obj 180 96 route A D S;
#X obj 100 257 +~;
#X connect 0 0 13 0;
#X connect 1 0 24 1;
#X connect 2 0 23 0;
#X connect 3 0 16 0;
#X connect 5 0 15 0;
#X connect 7 0 21 0;
#X connect 8 0 7 0;
#X connect 9 0 16 3;
#X connect 10 0 9 0;
#X connect 11 0 14 0;
#X connect 12 0 15 4;
#X connect 13 0 15 0;
#X connect 13 1 5 0;
#X connect 14 0 16 2;
#X connect 15 0 24 0;
#X connect 16 0 4 0;
#X connect 17 0 19 0;
#X connect 18 0 20 0;
#X connect 19 0 16 1;
#X connect 20 0 19 1;
#X connect 21 0 17 1;
#X connect 21 1 18 0;
#X connect 22 0 8 0;
#X connect 22 1 11 0;
#X connect 22 2 10 0;
#X connect 23 0 15 2;
#X connect 23 1 15 3;
#X connect 23 1 15 5;
#X connect 23 2 12 0;
#X connect 23 3 22 0;
#X connect 24 0 17 0;
#X restore 27 224 pd Filter;
#X obj 61 54 catch~ \$0-mod;
#X obj 156 161 route filter contour decay;
#X obj 108 90 r \$0-velocity;
#X connect 0 0 5 0;
#X connect 2 0 1 0;
#X connect 3 0 7 0;
#X connect 4 0 2 1;
#X connect 5 0 2 0;
#X connect 6 0 5 2;
#X connect 7 0 5 3;
#X connect 7 1 4 1;
#X connect 7 2 4 2;
#X connect 8 0 5 1;
#X connect 8 0 4 0;
#X restore 32 386 pd Modifiers;
#N canvas 191 87 1027 375 Mixer---------------- 0;
#X obj 19 17 inlet~ vco1;
#X obj 175 18 inlet~ vco2;
#X obj 331 20 inlet~ vco3;
#X obj 647 17 inlet~ external;
#X obj 331 337 outlet~;
#X obj 19 251 *~;
#X obj 175 243 *~;
#X obj 331 244 *~;
#X obj 793 16 r \$0-control;
#X obj 487 17 inlet~ noise;
#X obj 487 244 *~;
#X obj 647 246 *~;
#X obj 34 190 clip 0 10;
#X obj 34 221 / 10;
#X obj 190 216 / 10;
#X obj 346 218 / 10;
#X obj 502 217 / 10;
#X obj 662 220 / 10;
#X obj 190 190 clip 0 10;
#X obj 346 191 clip 0 10;
#X obj 502 191 clip 0 10;
#X obj 662 193 clip 0 10;
#X obj 19 281 c_spigot;
#X obj 175 281 c_spigot;
#X obj 331 282 c_spigot;
#X obj 487 282 c_spigot;
#X obj 647 284 c_spigot;
#X obj 793 52 route osc1 osc2 osc3 noise external;
#X obj 674 165 route vol onoff;
#X obj 516 163 route vol onoff;
#X obj 354 163 route vol onoff;
#X obj 206 162 route vol onoff;
#X obj 43 161 route vol onoff;
#X obj 175 67 *~ 0.5;
#X obj 19 65 *~ 0.5;
#X obj 331 65 *~ 0.5;
#X obj 487 62 *~ 0.5;
#X connect 0 0 34 0;
#X connect 1 0 33 0;
#X connect 2 0 35 0;
#X connect 3 0 11 0;
#X connect 5 0 22 0;
#X connect 6 0 23 0;
#X connect 7 0 24 0;
#X connect 8 0 27 0;
#X connect 9 0 36 0;
#X connect 10 0 25 0;
#X connect 11 0 26 0;
#X connect 12 0 13 0;
#X connect 13 0 5 1;
#X connect 14 0 6 1;
#X connect 15 0 7 1;
#X connect 16 0 10 1;
#X connect 17 0 11 1;
#X connect 18 0 14 0;
#X connect 19 0 15 0;
#X connect 20 0 16 0;
#X connect 21 0 17 0;
#X connect 22 0 4 0;
#X connect 23 0 4 0;
#X connect 24 0 4 0;
#X connect 25 0 4 0;
#X connect 26 0 4 0;
#X connect 27 0 32 0;
#X connect 27 1 31 0;
#X connect 27 2 30 0;
#X connect 27 3 29 0;
#X connect 27 4 28 0;
#X connect 28 0 21 0;
#X connect 28 1 26 1;
#X connect 29 0 20 0;
#X connect 29 1 25 1;
#X connect 30 0 19 0;
#X connect 30 1 24 1;
#X connect 31 0 18 0;
#X connect 31 1 23 1;
#X connect 32 0 12 0;
#X connect 32 1 22 1;
#X connect 33 0 6 0;
#X connect 34 0 5 0;
#X connect 35 0 7 0;
#X connect 36 0 10 0;
#X restore 32 349 pd Mixer----------------;
#N canvas 0 22 215 261 Output 0;
#X obj 95 15 r \$0-control;
#N canvas 467 170 244 147 testtone 0;
#X obj 133 50 sel 0;
#X msg 163 79 1;
#X msg 133 78 0;
#X obj 26 23 osc~ 440;
#X obj 133 17 inlet;
#X obj 26 88 outlet~;
#X obj 133 114 switch~;
#X obj 26 61 *~ 0.33;
#X connect 0 0 2 0;
#X connect 0 1 1 0;
#X connect 1 0 6 0;
#X connect 2 0 6 0;
#X connect 3 0 7 0;
#X connect 4 0 0 0;
#X connect 7 0 5 0;
#X restore 44 107 pd testtone;
#X obj 25 -1 inlet~;
#X obj 25 220 outlet~;
#X obj 25 185 *~;
#X obj 135 146 / 10;
#X obj 135 120 clip 0 10;
#X obj 95 48 route A440 vol;
#X obj 25 148 c_xfade;
#X obj 95 75 t f f;
#X connect 0 0 7 0;
#X connect 1 0 8 1;
#X connect 2 0 8 0;
#X connect 4 0 3 0;
#X connect 5 0 4 1;
#X connect 6 0 5 0;
#X connect 7 0 9 0;
#X connect 7 1 6 0;
#X connect 8 0 4 0;
#X connect 9 0 1 0;
#X connect 9 1 8 2;
#X restore 32 420 pd Output;
#X text 26 14 a minimoog-inspired 3 osc synth;
#X text 198 452 danomatika.com | robotcowboy.com;
#X text 52 38 modeled after what I can find about the minimoog ...
;
#X text 31 84 references:;
#X text 50 103 http://www.workrobot.com/music/minimoog.html;
#X text 51 121 http://emusician.com/mag/emusic_moog_minimoog/;
#X text 52 139 http://www.soundonsound.com/sos/mar05/articles/arturiaminimoog.htm
;
#X text 91 61 I'm quite sure it dosen't sound *exactly* like one;
#X text 198 437 2010 \, 2014 Dan Wilcox;
#N canvas 60 149 718 317 Keyboard 0;
#X obj 19 16 inlet;
#X obj 136 138 route 0;
#X obj 278 164 unpack f f;
#X text 354 162 note on;
#X text 192 139 note off;
#X obj 136 79 swap;
#X obj 136 105 pack f f;
#N canvas 315 22 448 554 detect 0;
#X obj 71 317 + 1;
#X obj 36 317 f;
#X obj 36 408 &;
#X obj 36 433 sel 1;
#X obj 36 378 == 0;
#X obj 71 378 == 1;
#X text 68 409 attack;
#X obj 138 410 &;
#X obj 138 435 sel 1;
#X text 173 410 release;
#X obj 172 378 == 0;
#X obj 138 378 == 1;
#X text 112 319 keep a running count of the number of keys held down
;
#X text 220 379 look for edge envelopes;
#X msg 76 288 -1;
#X msg 109 288 1;
#X obj 110 48 inlet note on;
#X obj 36 18 inlet note off;
#X obj 36 474 f;
#X obj 110 75 t b b f;
#X msg 138 474 0;
#X obj 183 507 outlet release;
#X obj 36 508 s \$0-velocity;
#X obj 36 73 t b b f;
#X obj 153 121 outlet note off;
#X text 257 122 pass through;
#X obj 183 172 r \$0-control;
#X msg 183 257 0;
#X obj 183 230 t b b;
#X obj 183 203 route panic;
#X text 268 204 clear all notes on panic;
#X connect 0 0 1 1;
#X connect 0 0 10 0;
#X connect 0 0 5 0;
#X connect 1 0 0 0;
#X connect 1 0 11 0;
#X connect 1 0 4 0;
#X connect 2 0 3 0;
#X connect 3 0 18 0;
#X connect 4 0 2 0;
#X connect 5 0 2 1;
#X connect 7 0 8 0;
#X connect 8 0 20 0;
#X connect 8 0 21 0;
#X connect 10 0 7 1;
#X connect 11 0 7 0;
#X connect 14 0 0 1;
#X connect 15 0 0 1;
#X connect 16 0 19 0;
#X connect 17 0 23 0;
#X connect 18 0 22 0;
#X connect 19 0 1 0;
#X connect 19 1 15 0;
#X connect 19 2 18 1;
#X connect 20 0 22 0;
#X connect 23 0 1 0;
#X connect 23 1 14 0;
#X connect 23 2 24 0;
#X connect 26 0 29 0;
#X connect 27 0 1 1;
#X connect 28 0 27 0;
#X connect 28 1 20 0;
#X connect 28 1 21 0;
#X connect 29 0 28 0;
#X restore 137 200 pd detect attack release;
#X text 327 15 The ADSRs are only triggered when a note is played on
the keyboard while no other notes are down. If a note is down \, hitting
another note may change the pitch (only if the second note is lower
than the first) \, but will not retrigger the ADSRs.;
#N canvas 0 22 490 605 choose 0;
#X obj 58 556 outlet;
#X obj 58 253 list;
#X obj 58 290 u_listunique;
#X obj 58 319 u_listsort;
#X msg 152 51 list;
#X obj 58 417 u_listmap;
#X obj 140 384 t f f;
#X obj 185 421 f;
#X obj 140 450 sel 0;
#X obj 39 144 t b b f;
#X obj 58 526 list split 1;
#X obj 140 421 == -1;
#X msg 167 198 -1;
#X obj 39 23 inlet note off;
#X obj 264 24 inlet note on;
#X obj 152 23 inlet release;
#X text 193 292 build asc sorted list of unique notes;
#X text 166 529 output lowest note;
#X text 220 421 remove note from list on note off;
#X connect 1 0 2 0;
#X connect 2 0 3 0;
#X connect 3 0 5 0;
#X connect 4 0 1 1;
#X connect 5 0 1 1;
#X connect 5 0 10 0;
#X connect 5 1 6 0;
#X connect 6 0 11 0;
#X connect 6 1 7 1;
#X connect 7 0 5 1;
#X connect 8 0 7 0;
#X connect 9 0 12 0;
#X connect 9 1 1 0;
#X connect 9 2 11 1;
#X connect 10 0 0 0;
#X connect 11 0 8 0;
#X connect 12 0 11 1;
#X connect 13 0 9 0;
#X connect 14 0 1 0;
#X connect 15 0 4 0;
#X restore 217 243 pd choose lowest note;
#X obj 99 272 outlet note;
#X obj 19 46 u_demux2;
#X obj 19 116 stripnote;
#X obj 65 147 unpack 0 0;
#X obj 19 81 t a a;
#X obj 71 219 s \$0-velocity;
#X obj 76 28 tgl 15 0 empty empty empty 17 7 0 10 -262144 -1 -1 1 1
;
#X obj 186 33 r \$0-control;
#X obj 203 64 route keyboard;
#X connect 0 0 11 0;
#X connect 1 0 7 0;
#X connect 1 1 2 0;
#X connect 2 0 7 1;
#X connect 2 1 9 2;
#X connect 5 0 6 0;
#X connect 5 1 6 1;
#X connect 6 0 1 0;
#X connect 7 0 9 0;
#X connect 7 1 9 1;
#X connect 9 0 10 0;
#X connect 11 0 14 0;
#X connect 11 1 5 0;
#X connect 12 0 10 0;
#X connect 13 1 15 0;
#X connect 14 0 13 0;
#X connect 14 1 12 0;
#X connect 16 0 11 1;
#X connect 17 0 18 0;
#X connect 18 0 16 0;
#X restore 32 217 pd Keyboard;
#X connect 1 0 9 0;
#X connect 1 1 9 1;
#X connect 1 2 9 2;
#X connect 1 3 9 3;
#X connect 2 0 9 4;
#X connect 3 0 7 0;
#X connect 4 0 7 0;
#X connect 5 0 20 0;
#X connect 6 0 1 0;
#X connect 8 0 10 0;
#X connect 9 0 8 0;
#X connect 10 0 0 0;
#X connect 20 0 6 0;
