#N canvas 122 22 705 674 10;
#X declare -stdpath extra/ggee;
#X obj 228 224 tgl 15 0 empty empty input 17 7 0 10 -262144 -1 -1 0
1;
#X text 188 142 External Input;
#X text 51 40 modeled after what I can find about the minimoog ...
;
#X text 90 63 I'm quite sure it dosen't sound *exactly* like one;
#X text 25 16 rc-minmoog~_ : a minimoog-inspired 3 osc synth;
#X text 452 35 danomatika.com | robotcowboy.com;
#X text 443 90 Controls;
#N canvas 215 41 909 658 Oscillator 0;
#X obj 67 154 hradio 15 1 0 6 empty empty 0-5_int 0 -8 0 10 -262144
-1 -1 3;
#X obj 32 62 hradio 15 1 0 6 empty empty 0-5_int 0 -8 0 10 -262144
-1 -1 3;
#X floatatom 32 83 5 0 0 0 - - -, f 5;
#X floatatom 67 176 5 0 0 0 - - -, f 5;
#X text 182 127 0 - triangle;
#X text 182 148 1 - triangle/sawtooth mix;
#X text 183 167 2 - sawtooth;
#X text 183 185 3 - 1:2 square;
#X text 183 202 4 - 1:3 square;
#X text 184 220 5 - 1:4 square;
#X text 76 83 2 by default;
#X text 84 225 0 by default;
#X obj 631 133 hradio 15 1 0 6 empty empty 0-5_int 0 -8 0 10 -262144
-1 -1 3;
#X obj 449 53 hradio 15 1 0 6 empty empty 0-5_int 0 -8 0 10 -262144
-1 -1 3;
#X floatatom 449 74 5 0 0 0 - - -, f 5;
#X floatatom 631 155 5 0 0 0 - - -, f 5;
#X text 741 113 0 - triangle;
#X text 742 134 1 - triangle/sawtooth mix;
#X text 743 153 2 - sawtooth;
#X text 743 171 3 - 1:2 square;
#X text 744 188 4 - 1:3 square;
#X text 743 206 5 - 1:4 square;
#X text 488 73 2 by default;
#X text 630 206 0 by default;
#X obj 454 514 hradio 15 1 0 6 empty empty 0-5_int 0 -8 0 10 -262144
-1 -1 2;
#X obj 35 366 hradio 15 1 0 6 empty empty 0-5_int 0 -8 0 10 -262144
-1 -1 2;
#X floatatom 35 387 5 0 0 0 - - -, f 5;
#X floatatom 454 536 5 0 0 0 - - -, f 5;
#X obj 253 483 hsl 128 15 -7 7 0 0 empty empty empty 32 8 0 10 -262144
-1 -1 0 1;
#X floatatom 250 508 5 0 0 0 - - -, f 5;
#X msg 250 452 0;
#X text 397 365 if control is 0 \, osc 3's frequency is set by the
detune which is 0-127;
#X text 318 321 turn control off to set osc3 freq manually \, useful
when using it for modulation;
#X text 595 496 0 - triangle;
#X text 596 533 2 - sawtooth;
#X text 596 551 3 - 1:2 square;
#X text 597 568 4 - 1:3 square;
#X text 596 586 5 - 1:4 square;
#X text 595 514 1 - rev sawtooth;
#X msg 303 451 range -7 7;
#X msg 384 452 range 0 127;
#X obj 303 420 sel 1;
#X text 73 385 2 by default;
#X text 294 507 0 by default;
#X text 498 536 0 by default;
#X msg 67 198 osc1wave \$1;
#X msg 32 105 osc1range \$1;
#X obj 32 264 s \$0-control;
#X obj 449 258 s \$0-control;
#X text 181 49 oscillator 1: sound source;
#X text 606 43 oscillator 2: sound source with detune;
#X text 32 322 oscillator 3: sound and modulation source;
#X obj 449 148 g_hsl osc2detune -7 7;
#X msg 449 96 osc2range \$1;
#X text 452 130 -7 --------|------- 7;
#X msg 631 177 osc2wave \$1;
#X obj 35 628 s \$0-control;
#X obj 303 358 g_tgl osc3ctl;
#X obj 303 395 route osc3ctl;
#X msg 454 558 osc3wave \$1;
#X msg 250 531 osc3detune \$1;
#X msg 35 408 osc3range \$1;
#X text 396 408 if control is 1 \, osc3's frequency is set by the incoming
note and the detune is -7 to 7 (default);
#X connect 0 0 3 0;
#X connect 1 0 2 0;
#X connect 2 0 46 0;
#X connect 3 0 45 0;
#X connect 12 0 15 0;
#X connect 13 0 14 0;
#X connect 14 0 53 0;
#X connect 15 0 55 0;
#X connect 24 0 27 0;
#X connect 25 0 26 0;
#X connect 26 0 61 0;
#X connect 27 0 59 0;
#X connect 28 0 29 0;
#X connect 29 0 60 0;
#X connect 30 0 28 0;
#X connect 39 0 28 0;
#X connect 40 0 28 0;
#X connect 41 0 39 0;
#X connect 41 1 40 0;
#X connect 45 0 47 0;
#X connect 46 0 47 0;
#X connect 52 0 48 0;
#X connect 53 0 52 0;
#X connect 55 0 48 0;
#X connect 57 0 56 0;
#X connect 57 0 58 0;
#X connect 58 0 41 0;
#X connect 59 0 56 0;
#X connect 60 0 56 0;
#X connect 61 0 56 0;
#X coords 0 0 1 1 120 90 0;
#X restore 356 121 pd Oscillator Bank;
#N canvas 107 173 539 546 Mixer 0;
#X text 111 27 Osc1;
#X text 111 105 Osc2;
#X text 110 170 Osc3 on and vol controls apply only to the mixer \,
not to modulation;
#X obj 186 422 hradio 15 1 0 2 empty empty 0-2_int 0 -8 0 10 -262144
-1 -1 0;
#X floatatom 186 443 5 0 0 0 - - -, f 5;
#X text 261 428 0 - white noise;
#X text 261 444 1 - pink noise;
#X text 117 330 the noise sources can be used for both sound and modulation
;
#X text 183 363 on and vol controls apply only to the mixer \, not
to modulation;
#X text 197 495 pink noise is used for modulation;
#X text 253 408 type sets the sound noise source;
#X obj 26 24 g_tgl osc1on;
#X obj 26 57 g_hsl osc1vol 0 10;
#X obj 26 99 g_tgl osc2on;
#X obj 26 131 g_hsl osc2vol 0 10;
#X obj 26 172 g_tgl osc3on;
#X obj 26 205 g_hsl osc3vol 0 10;
#X obj 26 506 s \$0-control;
#X obj 26 283 g_hsl externalvol 0 10;
#X text 111 249 External signal source goes through Filter and Contour
;
#X obj 26 325 g_tgl noiseon;
#X obj 26 365 g_hsl noisevol 0 10;
#X obj 26 245 g_tgl externalon;
#X msg 186 465 noisetype \$1;
#X connect 3 0 4 0;
#X connect 4 0 23 0;
#X connect 11 0 12 0;
#X connect 12 0 13 0;
#X connect 13 0 14 0;
#X connect 14 0 15 0;
#X connect 15 0 16 0;
#X connect 16 0 22 0;
#X connect 18 0 20 0;
#X connect 20 0 21 0;
#X connect 21 0 17 0;
#X connect 22 0 18 0;
#X connect 23 0 17 0;
#X restore 473 121 pd Mixer;
#N canvas 465 228 802 310 Controllers 0;
#X msg 473 126 10;
#X msg 423 126 5;
#X text 365 108 osc3 ------|----- noise;
#X text 98 39 glide (aka portamento);
#X text 166 157 overall tuning;
#X text 439 35 modulation control;
#X text 510 154 modulation source mixing betwen osc3 and noise;
#X text 445 191 send modulation to the osc1 and osc2?;
#X text 446 228 send modulation to the filter vca?;
#X obj 18 37 g_tgl glideon;
#X obj 18 75 g_hsl glide 0 10;
#X obj 18 153 g_hsl tune -2.5 2.5;
#X obj 18 190 g_tgl decayon;
#X text 93 191 enable/disable the ADSD release;
#X obj 360 32 g_tgl modon;
#X obj 360 151 g_hsl modmix 0 10;
#X obj 360 189 g_tgl oscmod;
#X obj 360 223 g_tgl filtermod;
#X obj 18 269 s \$0-control;
#X obj 360 268 s \$0-control;
#X obj 360 72 g_nhsl mod 0 127;
#X msg 366 126 0;
#X text 22 129 -2.5 ------|----- 2.5;
#X obj 18 229 g_tgl keytrack;
#X connect 9 0 10 0;
#X connect 10 0 11 0;
#X connect 11 0 12 0;
#X connect 12 0 23 0;
#X connect 14 0 20 0;
#X connect 15 0 16 0;
#X connect 16 0 17 0;
#X connect 17 0 19 0;
#X connect 20 0 15 0;
#X connect 23 0 18 0;
#X restore 261 121 pd Controllers;
#N canvas 563 277 753 450 Modifiers 0;
#X text 66 87 cutoff frequency;
#X obj 190 247 hsl 128 15 200 20000 1 0 empty empty 0-20k_log 32 8
0 10 -262144 -1 -1 0 1;
#X floatatom 187 296 5 0 0 1 0-10k_ms - -, f 5;
#X obj 190 138 hsl 128 15 200 20000 1 0 empty empty 0-20k_log 32 8
0 10 -262144 -1 -1 0 1;
#X floatatom 187 187 5 0 0 1 0-10k_ms - -, f 5;
#X obj 543 171 hsl 128 15 200 20000 1 0 empty empty 0-20k_log 32 8
0 10 -262144 -1 -1 0 1;
#X floatatom 540 220 5 0 0 1 0-10k_ms - -, f 5;
#X text 508 19 an ampltude envelope generator (vca);
#X obj 520 62 hsl 128 15 200 20000 1 0 empty empty 0-20k_log 32 8 0
10 -262144 -1 -1 0 1;
#X floatatom 517 111 5 0 0 1 0-10k_ms - -, f 5;
#X msg 187 321 filter D \$1;
#X msg 187 212 filterA \$1;
#X text 16 13 a low-pass filter [e_moog];
#X msg 540 245 contourD \$1;
#X msg 517 136 contourA \$1;
#X obj 517 88 - 200;
#X obj 540 197 - 200;
#X obj 187 164 - 200;
#X obj 187 273 - 200;
#X text 337 65 emphasis (resonance);
#X obj 28 409 s \$0-control;
#X obj 188 355 g_hsl filterS 0 10;
#X obj 186 91 g_hsl filteramt 0 10;
#X obj 186 59 g_hsl filteremph 0 10;
#X text 338 96 amount of contour;
#X obj 517 406 s \$0-control;
#X obj 542 293 g_hsl contourS 0 10;
#X obj 28 58 g_hsl filtercutoff -5 5;
#X connect 1 0 18 0;
#X connect 2 0 10 0;
#X connect 3 0 17 0;
#X connect 4 0 11 0;
#X connect 5 0 16 0;
#X connect 6 0 13 0;
#X connect 8 0 15 0;
#X connect 9 0 14 0;
#X connect 10 0 20 0;
#X connect 11 0 20 0;
#X connect 13 0 25 0;
#X connect 14 0 25 0;
#X connect 15 0 9 0;
#X connect 16 0 6 0;
#X connect 17 0 4 0;
#X connect 18 0 2 0;
#X connect 21 0 20 0;
#X connect 22 0 20 0;
#X connect 23 0 22 0;
#X connect 26 0 25 0;
#X connect 27 0 20 0;
#X coords 0 0 1 1 140 120 0;
#X restore 531 121 pd Modifiers;
#N canvas 807 364 470 177 Output 0;
#X text 45 11 Main Output;
#X obj 47 128 s \$0-control;
#X obj 47 87 g_tgl A440on;
#X obj 47 47 g_hsl vol 0 10;
#X text 202 52 default: 7.5;
#X text 123 90 A - 440Hz test tone for tuning your analog beast :D
;
#X connect 2 0 1 0;
#X connect 3 0 2 0;
#X restore 617 121 pd Output;
#X obj 44 609 soundoutput;
#X obj 175 520 g_scope;
#X obj 183 251 c_spigot;
#X obj 183 170 soundinput;
#X obj 34 320 notein 1;
#X obj 34 352 pack f 0;
#X obj 107 251 tgl 15 0 empty empty play_seq 17 7 0 10 -262144 -1 -1
0 1;
#N canvas 0 22 376 329 seq 0;
#X obj 94 127 sel 0 1 2 3 4 5 6 7;
#X obj 179 163 bng 15 250 50 0 empty empty empty 17 7 0 10 -262144
-1 -1;
#X obj 212 164 bng 15 250 50 0 empty empty empty 17 7 0 10 -262144
-1 -1;
#X obj 245 164 bng 15 250 50 0 empty empty empty 17 7 0 10 -262144
-1 -1;
#X obj 276 164 bng 15 250 50 0 empty empty empty 17 7 0 10 -262144
-1 -1;
#X obj 311 165 bng 15 250 50 0 empty empty empty 17 7 0 10 -262144
-1 -1;
#X obj 70 161 bng 15 250 50 0 empty empty empty 17 7 0 10 -262144 -1
-1;
#X obj 105 162 bng 15 250 50 0 empty empty empty 17 7 0 10 -262144
-1 -1;
#X obj 143 162 bng 15 250 50 0 empty empty empty 17 7 0 10 -262144
-1 -1;
#X obj 185 299 outlet;
#X obj 94 20 inlet;
#X obj 45 49 sel 0;
#X msg 45 72 reset;
#X msg 179 185 38;
#X msg 245 186 50;
#X msg 276 186 34;
#X msg 70 183 38;
#X msg 143 185 40;
#X msg 212 186 45;
#X msg 105 184 45;
#X msg 311 187 rest;
#X obj 185 241 makenote 64 100;
#X obj 185 270 pack f f;
#X floatatom 145 47 5 0 0 0 - - -, f 5;
#X obj 94 99 u_count 8;
#X obj 94 73 metro 100;
#X connect 0 0 6 0;
#X connect 0 1 7 0;
#X connect 0 2 8 0;
#X connect 0 3 1 0;
#X connect 0 4 2 0;
#X connect 0 5 3 0;
#X connect 0 6 4 0;
#X connect 0 7 5 0;
#X connect 1 0 13 0;
#X connect 2 0 18 0;
#X connect 3 0 14 0;
#X connect 4 0 15 0;
#X connect 5 0 20 0;
#X connect 6 0 16 0;
#X connect 7 0 19 0;
#X connect 8 0 17 0;
#X connect 10 0 11 0;
#X connect 10 0 25 0;
#X connect 11 0 12 0;
#X connect 12 0 24 0;
#X connect 13 0 21 0;
#X connect 14 0 21 0;
#X connect 15 0 21 0;
#X connect 16 0 21 0;
#X connect 17 0 21 0;
#X connect 18 0 21 0;
#X connect 19 0 21 0;
#X connect 21 0 22 0;
#X connect 21 1 22 1;
#X connect 22 0 9 0;
#X connect 23 0 25 1;
#X connect 24 0 0 0;
#X connect 25 0 24 0;
#X restore 107 278 pd seq;
#X obj 284 249 tgl 15 0 empty empty play_seq 17 7 0 10 -262144 -1 -1
1 1;
#X msg 277 377 panic;
#N canvas 0 22 376 329 seq2 0;
#X obj 94 127 sel 0 1 2 3 4 5 6 7;
#X obj 179 163 bng 15 250 50 0 empty empty empty 17 7 0 10 -262144
-1 -1;
#X obj 212 164 bng 15 250 50 0 empty empty empty 17 7 0 10 -262144
-1 -1;
#X obj 245 164 bng 15 250 50 0 empty empty empty 17 7 0 10 -262144
-1 -1;
#X obj 276 164 bng 15 250 50 0 empty empty empty 17 7 0 10 -262144
-1 -1;
#X obj 311 165 bng 15 250 50 0 empty empty empty 17 7 0 10 -262144
-1 -1;
#X obj 70 161 bng 15 250 50 0 empty empty empty 17 7 0 10 -262144 -1
-1;
#X obj 105 162 bng 15 250 50 0 empty empty empty 17 7 0 10 -262144
-1 -1;
#X obj 143 162 bng 15 250 50 0 empty empty empty 17 7 0 10 -262144
-1 -1;
#X obj 185 299 outlet;
#X obj 94 20 inlet;
#X obj 45 49 sel 0;
#X msg 45 72 reset;
#X msg 276 186 34;
#X msg 311 187 rest;
#X obj 185 241 makenote 64 100;
#X obj 185 270 pack f f;
#X floatatom 145 47 5 0 0 0 - - -, f 5;
#X obj 94 73 metro 100;
#X msg 70 183 60;
#X msg 105 184 62;
#X msg 143 185 64;
#X msg 179 185 55;
#X msg 212 186 57;
#X msg 245 186 59;
#X obj 94 99 u_count 6;
#X connect 0 0 6 0;
#X connect 0 1 7 0;
#X connect 0 2 8 0;
#X connect 0 3 1 0;
#X connect 0 4 2 0;
#X connect 0 5 3 0;
#X connect 0 6 4 0;
#X connect 0 7 5 0;
#X connect 1 0 22 0;
#X connect 2 0 23 0;
#X connect 3 0 24 0;
#X connect 4 0 13 0;
#X connect 5 0 14 0;
#X connect 6 0 19 0;
#X connect 7 0 20 0;
#X connect 8 0 21 0;
#X connect 10 0 11 0;
#X connect 10 0 18 0;
#X connect 11 0 12 0;
#X connect 12 0 25 0;
#X connect 13 0 15 0;
#X connect 15 0 16 0;
#X connect 15 1 16 1;
#X connect 16 0 9 0;
#X connect 17 0 18 1;
#X connect 18 0 25 0;
#X connect 19 0 15 0;
#X connect 20 0 15 0;
#X connect 21 0 15 0;
#X connect 22 0 15 0;
#X connect 23 0 15 0;
#X connect 24 0 15 0;
#X connect 25 0 0 0;
#X restore 284 276 pd seq2;
#X msg 361 426 reset;
#X obj 183 376 r \$0-control;
#X text 452 20 2010 \, 2014 Dan Wilcox;
#X obj 494 437 g_vu;
#X obj 84 413 s_minimoog mymoog;
#X connect 0 0 14 1;
#X connect 14 0 27 1;
#X connect 15 0 14 0;
#X connect 16 0 17 0;
#X connect 16 1 17 1;
#X connect 17 0 27 0;
#X connect 18 0 19 0;
#X connect 19 0 27 0;
#X connect 20 0 22 0;
#X connect 21 0 27 2;
#X connect 22 0 27 0;
#X connect 23 0 27 2;
#X connect 24 0 27 2;
#X connect 27 0 13 0;
#X connect 27 0 12 0;
#X connect 27 0 12 1;
#X connect 27 0 26 0;
