#N canvas 114 165 574 485 10;
#X obj 32 451 outlet~;
#N canvas 660 269 449 253 Oscillator_Bank 0;
#X obj 103 22 inlet note;
#X obj 22 209 outlet~;
#X obj 103 209 outlet~;
#X obj 158 209 outlet~;
#X obj 382 209 outlet~;
#N canvas 66 158 368 379 Mod 0;
#X obj 36 20 inlet~ vco3;
#X obj 55 52 inlet~ pink noise;
#X obj 36 241 *~ 0;
#X obj 219 338 outlet~ mod vca;
#X obj 36 341 outlet~ mod vco;
#X obj 36 310 *~ 0;
#X obj 219 308 *~ 0;
#X obj 36 147 c_xfade;
#X obj 148 212 int;
#X obj 148 237 clip 0 1;
#X obj 240 211 int;
#X obj 240 236 clip 0 1;
#X obj 247 82 int;
#X obj 247 110 clip 0 1;
#X obj 247 138 switch~;
#X obj 75 91 r \$0-modmix;
#X obj 247 54 r \$0-modon;
#X obj 57 183 r \$0-mod;
#X obj 148 184 r \$0-oscmod;
#X obj 240 183 r \$0-filtermod;
#X obj 57 211 clip 0 1;
#X obj 75 118 clip 0 11;
#X connect 0 0 7 0;
#X connect 1 0 7 1;
#X connect 2 0 6 0;
#X connect 2 0 5 0;
#X connect 5 0 4 0;
#X connect 6 0 3 0;
#X connect 7 0 2 0;
#X connect 8 0 9 0;
#X connect 9 0 5 1;
#X connect 10 0 11 0;
#X connect 11 0 6 1;
#X connect 12 0 13 0;
#X connect 13 0 14 0;
#X connect 15 0 21 0;
#X connect 16 0 12 0;
#X connect 17 0 20 0;
#X connect 18 0 8 0;
#X connect 19 0 10 0;
#X connect 20 0 2 1;
#X connect 21 0 7 2;
#X restore 197 120 pd Mod Mixer;
#N canvas 823 179 583 617 Osc3 0;
#X msg 480 371 0.33;
#X msg 444 371 0.5;
#X msg 522 371 0.25;
#X obj 149 507 *~ 0;
#X obj 264 508 *~ 0;
#X obj 26 508 *~ 1;
#X msg 47 479 1;
#X msg 74 479 0;
#X msg 170 477 1;
#X msg 198 477 0;
#X obj 47 452 sel 0;
#X obj 170 450 sel 1;
#X msg 285 477 1;
#X msg 312 477 0;
#X obj 285 450 sel 2;
#X obj 381 510 *~ 0;
#X msg 402 478 1;
#X msg 453 478 0;
#X obj 402 451 sel 3 4 5;
#X obj 285 239 int;
#X text 414 209 0 - triangle;
#X text 414 246 2 - sawtooth;
#X text 414 264 3 - 1:2 square;
#X text 415 281 4 - 1:3 square;
#X text 414 299 5 - 1:4 square;
#X obj 272 47 int;
#X obj 157 302 + 0;
#X obj 285 265 clip 0 5;
#X obj 272 73 clip 0 5;
#X obj 157 209 f;
#X obj 272 155 t b f;
#X obj 157 272 + 0;
#X obj 157 178 t b f;
#X obj 24 18 inlet note;
#X text 414 227 1 - rev sawtooth;
#X obj 381 573 outlet~ mod;
#X obj 149 572 outlet~;
#X obj 24 156 spigot;
#X obj 157 242 + 0;
#X obj 432 49 r \$0-tune;
#X obj 432 130 t b f;
#X obj 381 399 s_blsquare;
#X obj 26 402 s_bltriangle;
#N canvas 0 22 141 202 saw 0;
#X obj 31 80 s_blsaw;
#X obj 31 128 -~ 0.8;
#X obj 31 104 *~ 1.6;
#X obj 31 26 inlet~;
#X obj 70 52 inlet;
#X obj 31 157 outlet~;
#X connect 0 0 2 0;
#X connect 1 0 5 0;
#X connect 2 0 1 0;
#X connect 3 0 0 0;
#X connect 4 0 0 1;
#X restore 264 397 pd saw;
#X obj 195 330 inlet~ mod;
#X obj 157 358 +~;
#X obj 157 329 mtof;
#X obj 429 350 sig~ 0.5;
#N canvas 0 22 141 202 rev 0;
#X obj 31 80 s_blsaw;
#X obj 31 128 -~ 0.8;
#X obj 31 104 *~ 1.6;
#X obj 31 26 inlet~;
#X obj 70 52 inlet;
#X obj 31 157 outlet~;
#X obj 31 52 *~ -1;
#X connect 0 0 2 0;
#X connect 1 0 5 0;
#X connect 2 0 1 0;
#X connect 3 0 6 0;
#X connect 4 0 0 1;
#X connect 6 0 0 0;
#X restore 149 400 pd rev saw;
#X obj 57 73 int;
#X obj 57 101 clip 0 1;
#X obj 57 46 r \$0-osc3ctl;
#X obj 272 20 r \$0-osc3range;
#X obj 285 213 r \$0-osc3wave;
#X obj 432 76 clip 0 1;
#X obj 432 103 m_scale 0 1 -2.5 2.5;
#X obj 157 99 clip 0 1;
#X obj 157 126 m_scale 0 1 -7 7;
#X obj 157 70 r \$0-osc3detune;
#X obj 272 102 moses 1;
#X msg 272 129 -88;
#X obj 84 158 sel 0;
#X obj 57 128 t f f;
#X msg 122 126 0;
#X obj 157 153 f 0;
#X obj 121 173 b;
#X obj 311 129 expr ($f1-3)*12;
#X msg 84 205 60;
#X floatatom 361 331 5 0 0 0 - - -, f 5;
#X connect 0 0 47 0;
#X connect 1 0 47 0;
#X connect 2 0 47 0;
#X connect 3 0 35 0;
#X connect 3 0 36 0;
#X connect 4 0 35 0;
#X connect 4 0 36 0;
#X connect 5 0 35 0;
#X connect 5 0 36 0;
#X connect 6 0 5 1;
#X connect 7 0 5 1;
#X connect 8 0 3 1;
#X connect 9 0 3 1;
#X connect 10 0 6 0;
#X connect 10 1 7 0;
#X connect 11 0 8 0;
#X connect 11 1 9 0;
#X connect 12 0 4 1;
#X connect 13 0 4 1;
#X connect 14 0 12 0;
#X connect 14 1 13 0;
#X connect 15 0 35 0;
#X connect 15 0 36 0;
#X connect 16 0 15 1;
#X connect 17 0 15 1;
#X connect 18 0 16 0;
#X connect 18 0 1 0;
#X connect 18 1 0 0;
#X connect 18 1 16 0;
#X connect 18 2 2 0;
#X connect 18 2 16 0;
#X connect 18 3 17 0;
#X connect 19 0 27 0;
#X connect 25 0 28 0;
#X connect 26 0 46 0;
#X connect 27 0 14 0;
#X connect 27 0 18 0;
#X connect 27 0 11 0;
#X connect 27 0 10 0;
#X connect 28 0 59 0;
#X connect 29 0 38 0;
#X connect 30 0 29 0;
#X connect 30 1 26 1;
#X connect 31 0 26 0;
#X connect 32 0 29 0;
#X connect 32 1 31 1;
#X connect 33 0 37 0;
#X connect 37 0 29 0;
#X connect 38 0 31 0;
#X connect 39 0 54 0;
#X connect 40 0 29 0;
#X connect 40 1 38 1;
#X connect 41 0 15 0;
#X connect 42 0 5 0;
#X connect 43 0 4 0;
#X connect 44 0 45 1;
#X connect 45 0 42 0;
#X connect 45 0 48 0;
#X connect 45 0 43 0;
#X connect 45 0 41 0;
#X connect 46 0 45 0;
#X connect 47 0 41 1;
#X connect 48 0 3 0;
#X connect 49 0 50 0;
#X connect 50 0 62 0;
#X connect 51 0 49 0;
#X connect 52 0 25 0;
#X connect 53 0 19 0;
#X connect 54 0 55 0;
#X connect 55 0 40 0;
#X connect 56 0 57 0;
#X connect 57 0 64 0;
#X connect 58 0 56 0;
#X connect 59 0 60 0;
#X connect 59 1 66 0;
#X connect 60 0 30 0;
#X connect 61 0 67 0;
#X connect 61 0 63 0;
#X connect 61 1 65 0;
#X connect 62 0 37 1;
#X connect 62 1 61 0;
#X connect 63 0 32 0;
#X connect 64 0 32 0;
#X connect 65 0 64 0;
#X connect 66 0 30 0;
#X connect 67 0 29 0;
#X connect 68 0 41 2;
#X restore 158 88 pd Osc3;
#N canvas 66 142 561 571 Osc2 0;
#X msg 480 308 0.33;
#X msg 445 308 0.5;
#X msg 523 307 0.25;
#X obj 153 474 *~ 0;
#X obj 268 477 *~ 0;
#X obj 30 475 *~ 1;
#X msg 51 446 1;
#X msg 81 446 0;
#X msg 174 444 1;
#X msg 204 444 0;
#X obj 51 419 sel 0;
#X obj 174 417 sel 1;
#X msg 289 445 1;
#X msg 319 445 0;
#X obj 289 418 sel 2;
#X obj 385 472 *~ 0;
#X msg 406 440 1;
#X msg 439 440 0;
#X obj 407 396 sel 3 4 5;
#X obj 289 210 int;
#X text 394 177 0 - triangle;
#X text 394 198 1 - triangle/sawtooth mix;
#X text 394 217 2 - sawtooth;
#X text 394 235 3 - 1:2 square;
#X text 395 252 4 - 1:3 square;
#X text 395 270 5 - 1:4 square;
#X obj 177 73 int;
#X obj 30 284 + 0;
#X obj 289 236 clip 0 5;
#X obj 177 99 clip 0 5;
#X obj 30 198 f;
#X obj 177 183 t b f;
#X obj 30 257 + 0;
#X obj 374 126 t b f;
#X obj 30 15 inlet note;
#X obj 207 534 outlet~;
#X obj 45 72 r \$0-tune;
#X obj 45 153 t b f;
#X obj 30 229 + 0;
#X obj 385 366 s_blsquare;
#X obj 30 369 s_bltriangle;
#N canvas 0 22 256 274 trisaw 0;
#X obj 17 84 s_bltriangle;
#X obj 123 85 s_blsaw;
#X obj 81 159 +~;
#X obj 81 209 -~ 0.25;
#X obj 81 186 *~ 0.75;
#X msg 162 53 1;
#X obj 162 24 loadbang;
#X obj 123 133 -~ 0.8;
#X obj 123 109 *~ 1.6;
#X obj 17 23 inlet~;
#X obj 81 236 outlet~;
#X obj 86 23 inlet;
#X connect 0 0 2 0;
#X connect 1 0 8 0;
#X connect 2 0 4 0;
#X connect 3 0 10 0;
#X connect 4 0 3 0;
#X connect 5 0 0 2;
#X connect 5 0 1 1;
#X connect 6 0 5 0;
#X connect 7 0 2 1;
#X connect 8 0 7 0;
#X connect 9 0 1 0;
#X connect 9 0 0 0;
#X connect 11 0 1 1;
#X connect 11 0 0 2;
#X restore 153 368 pd trisaw;
#N canvas 0 22 141 202 saw 0;
#X obj 31 80 s_blsaw;
#X obj 31 128 -~ 0.8;
#X obj 31 104 *~ 1.6;
#X obj 31 26 inlet~;
#X obj 70 52 inlet;
#X obj 31 157 outlet~;
#X connect 0 0 2 0;
#X connect 1 0 5 0;
#X connect 2 0 1 0;
#X connect 3 0 0 0;
#X connect 4 0 0 1;
#X restore 268 366 pd saw;
#X obj 413 340 sig~ 0.5;
#X obj 68 284 inlet~ mod;
#X obj 30 310 mtof;
#X obj 30 338 +~;
#X obj 68 310 *~;
#X obj 289 177 r \$0-osc2wave;
#X obj 374 45 r \$0-osc2detune;
#X obj 177 45 r \$0-osc2range;
#X obj 45 99 clip 0 1;
#X obj 45 126 m_scale 0 1 -2.5 2.5;
#X obj 374 99 m_scale 0 1 -7 7;
#X obj 374 72 clip 0 1;
#X obj 216 152 expr ($f1-3)*12;
#X obj 177 125 moses 1;
#X msg 177 152 -84;
#X floatatom 359 302 5 0 0 0 - - -, f 5;
#X obj 30 44 - 0.0008;
#X text 86 44 pinch of salt;
#X connect 0 0 43 0;
#X connect 1 0 43 0;
#X connect 2 0 43 0;
#X connect 3 0 35 0;
#X connect 4 0 35 0;
#X connect 5 0 35 0;
#X connect 6 0 5 1;
#X connect 7 0 5 1;
#X connect 8 0 3 1;
#X connect 9 0 3 1;
#X connect 10 0 6 0;
#X connect 10 1 7 0;
#X connect 11 0 8 0;
#X connect 11 1 9 0;
#X connect 12 0 4 1;
#X connect 13 0 4 1;
#X connect 14 0 12 0;
#X connect 14 1 13 0;
#X connect 15 0 35 0;
#X connect 16 0 15 1;
#X connect 17 0 15 1;
#X connect 18 0 16 0;
#X connect 18 0 1 0;
#X connect 18 1 0 0;
#X connect 18 1 16 0;
#X connect 18 2 2 0;
#X connect 18 2 16 0;
#X connect 18 3 17 0;
#X connect 19 0 28 0;
#X connect 26 0 29 0;
#X connect 27 0 45 0;
#X connect 28 0 14 0;
#X connect 28 0 18 0;
#X connect 28 0 11 0;
#X connect 28 0 10 0;
#X connect 29 0 56 0;
#X connect 30 0 38 0;
#X connect 31 0 30 0;
#X connect 31 1 27 1;
#X connect 32 0 27 0;
#X connect 33 0 30 0;
#X connect 33 1 32 1;
#X connect 34 0 59 0;
#X connect 36 0 51 0;
#X connect 37 0 30 0;
#X connect 37 1 38 1;
#X connect 38 0 32 0;
#X connect 39 0 15 0;
#X connect 40 0 5 0;
#X connect 41 0 3 0;
#X connect 42 0 4 0;
#X connect 43 0 39 1;
#X connect 44 0 47 0;
#X connect 45 0 46 0;
#X connect 45 0 47 1;
#X connect 46 0 40 0;
#X connect 46 0 41 0;
#X connect 46 0 42 0;
#X connect 46 0 39 0;
#X connect 47 0 46 1;
#X connect 48 0 19 0;
#X connect 49 0 54 0;
#X connect 50 0 26 0;
#X connect 51 0 52 0;
#X connect 52 0 37 0;
#X connect 53 0 33 0;
#X connect 54 0 53 0;
#X connect 55 0 31 0;
#X connect 56 0 57 0;
#X connect 56 1 55 0;
#X connect 57 0 31 0;
#X connect 58 0 39 2;
#X connect 59 0 30 0;
#X restore 103 178 pd Osc2;
#N canvas 116 229 577 531 Osc1 0;
#X obj 206 484 outlet~;
#X msg 483 276 0.33;
#X msg 448 276 0.5;
#X msg 526 276 0.25;
#X obj 153 422 *~ 0;
#X obj 268 425 *~ 0;
#X obj 30 423 *~ 1;
#X msg 51 394 1;
#X msg 78 394 0;
#X msg 174 393 1;
#X msg 201 393 0;
#X obj 51 367 sel 0;
#X obj 174 366 sel 1;
#X msg 289 393 1;
#X msg 316 393 0;
#X obj 289 366 sel 2;
#X obj 385 425 *~ 0;
#X msg 406 392 1;
#X msg 457 392 0;
#X obj 406 363 sel 3 4 5;
#X obj 289 216 int;
#X text 408 124 0 - triangle;
#X text 408 145 1 - triangle/sawtooth mix;
#X text 408 164 2 - sawtooth;
#X text 408 182 3 - 1:2 square;
#X text 408 199 4 - 1:3 square;
#X text 408 217 5 - 1:4 square;
#X obj 183 82 int;
#X obj 289 250 clip 0 5;
#X obj 183 108 clip 0 5;
#X obj 30 178 f;
#X obj 183 190 t b f;
#X obj 30 26 inlet note;
#X obj 74 229 inlet~ mod;
#X obj 49 80 r \$0-tune;
#X obj 49 152 t b f;
#X obj 30 203 + 0;
#X obj 385 314 s_blsquare;
#X obj 30 227 + 0;
#X obj 30 252 mtof;
#X obj 413 253 sig~ 0.5;
#N canvas 0 22 256 274 trisaw 0;
#X obj 17 84 s_bltriangle;
#X obj 123 85 s_blsaw;
#X obj 81 159 +~;
#X obj 81 209 -~ 0.25;
#X obj 81 186 *~ 0.75;
#X msg 162 53 1;
#X obj 162 24 loadbang;
#X obj 123 133 -~ 0.8;
#X obj 123 109 *~ 1.6;
#X obj 17 23 inlet~;
#X obj 81 236 outlet~;
#X connect 0 0 2 0;
#X connect 1 0 8 0;
#X connect 2 0 4 0;
#X connect 3 0 10 0;
#X connect 4 0 3 0;
#X connect 5 0 0 2;
#X connect 5 0 1 1;
#X connect 6 0 5 0;
#X connect 7 0 2 1;
#X connect 8 0 7 0;
#X connect 9 0 1 0;
#X connect 9 0 0 0;
#X restore 153 316 pd trisaw;
#N canvas 0 22 141 202 saw 0;
#X obj 31 80 s_blsaw;
#X obj 31 128 -~ 0.8;
#X obj 31 104 *~ 1.6;
#X obj 31 26 inlet~;
#X obj 70 52 inlet;
#X obj 31 157 outlet~;
#X connect 0 0 2 0;
#X connect 1 0 5 0;
#X connect 2 0 1 0;
#X connect 3 0 0 0;
#X connect 4 0 0 1;
#X restore 268 314 pd saw;
#X obj 30 317 s_bltriangle;
#X obj 30 278 +~;
#X obj 74 253 *~;
#X obj 289 187 r \$0-osc1wave;
#X obj 183 55 r \$0-osc1range;
#X obj 49 131 m_scale 0 1 -2.5 2.5;
#X obj 49 105 clip 0 1;
#X obj 222 165 expr ($f1-3)*12;
#X obj 183 138 moses 1;
#X msg 183 165 -84;
#X floatatom 207 236 5 0 0 0 - - -, f 5;
#X obj 30 55 + 0.001;
#X text 82 56 pinch of salt;
#X connect 1 0 40 0;
#X connect 2 0 40 0;
#X connect 3 0 40 0;
#X connect 4 0 0 0;
#X connect 5 0 0 0;
#X connect 6 0 0 0;
#X connect 7 0 6 1;
#X connect 8 0 6 1;
#X connect 9 0 4 1;
#X connect 10 0 4 1;
#X connect 11 0 7 0;
#X connect 11 1 8 0;
#X connect 12 0 9 0;
#X connect 12 1 10 0;
#X connect 13 0 5 1;
#X connect 14 0 5 1;
#X connect 15 0 13 0;
#X connect 15 1 14 0;
#X connect 16 0 0 0;
#X connect 17 0 16 1;
#X connect 18 0 16 1;
#X connect 19 0 17 0;
#X connect 19 0 2 0;
#X connect 19 1 1 0;
#X connect 19 1 17 0;
#X connect 19 2 3 0;
#X connect 19 2 17 0;
#X connect 19 3 18 0;
#X connect 20 0 28 0;
#X connect 27 0 29 0;
#X connect 28 0 15 0;
#X connect 28 0 19 0;
#X connect 28 0 12 0;
#X connect 28 0 11 0;
#X connect 29 0 51 0;
#X connect 30 0 36 0;
#X connect 31 0 30 0;
#X connect 31 1 38 1;
#X connect 32 0 54 0;
#X connect 33 0 45 0;
#X connect 34 0 49 0;
#X connect 35 0 30 0;
#X connect 35 1 36 1;
#X connect 36 0 38 0;
#X connect 37 0 16 0;
#X connect 38 0 39 0;
#X connect 39 0 44 0;
#X connect 39 0 45 1;
#X connect 40 0 37 1;
#X connect 41 0 4 0;
#X connect 42 0 5 0;
#X connect 43 0 6 0;
#X connect 44 0 37 0;
#X connect 44 0 41 0;
#X connect 44 0 42 0;
#X connect 44 0 43 0;
#X connect 45 0 44 1;
#X connect 46 0 20 0;
#X connect 47 0 27 0;
#X connect 48 0 35 0;
#X connect 49 0 48 0;
#X connect 50 0 31 0;
#X connect 51 0 52 0;
#X connect 51 1 50 0;
#X connect 52 0 31 0;
#X connect 53 0 37 2;
#X connect 54 0 30 0;
#X restore 22 179 pd Osc1;
#N canvas 133 284 298 318 Noise 0;
#X msg 90 203 0;
#X obj 175 74 noise~;
#X obj 175 235 *~ 1;
#X msg 196 206 1;
#X msg 223 206 0;
#X obj 196 179 sel 0;
#X obj 42 232 *~ 1;
#X msg 63 203 1;
#X obj 63 176 sel 1;
#X text 11 18 0 - white noise to mixer / pink to mod;
#X text 10 36 1 - pink noise to mixer / pink to mod;
#X obj 175 276 outlet~ mixer;
#X obj 14 275 outlet~ mod;
#X obj 42 107 *~ 2;
#X obj 14 73 s_pinknoise;
#X obj 63 136 r \$0-noisetype;
#X connect 0 0 6 1;
#X connect 1 0 2 0;
#X connect 2 0 11 0;
#X connect 3 0 2 1;
#X connect 4 0 2 1;
#X connect 5 0 3 0;
#X connect 5 1 4 0;
#X connect 6 0 11 0;
#X connect 7 0 6 1;
#X connect 8 0 7 0;
#X connect 8 1 0 0;
#X connect 13 0 6 0;
#X connect 14 0 13 0;
#X connect 14 0 12 0;
#X connect 15 0 8 0;
#X connect 15 0 5 0;
#X restore 337 51 pd Noise;
#X obj 266 209 throw~ \$0-modsig;
#X connect 0 0 8 0;
#X connect 0 0 7 0;
#X connect 0 0 6 0;
#X connect 5 0 8 1;
#X connect 5 0 7 1;
#X connect 5 1 10 0;
#X connect 6 0 3 0;
#X connect 6 1 5 0;
#X connect 7 0 2 0;
#X connect 8 0 1 0;
#X connect 9 0 5 1;
#X connect 9 1 4 0;
#X restore 32 289 pd Oscillator_Bank;
#X obj 173 323 inlet~ external;
#X obj 291 178 inlet control;
#N canvas 598 116 517 301 defaults 0;
#X obj 136 17 loadbang;
#X obj 136 70 \$0;
#X msg 136 44 bang;
#X obj 74 16 inlet;
#X msg 136 119 \; \$1-osc1range 3 \; \$1-osc1wave 0 \; \$1-osc2range
3 \; \$1-osc2detune 0.5 \; \$1-osc2wave 2 \; \$1-osc3range 3 \; \$1-osc3ctl
1 \; \$1-osc3detune 0.5 \; \$1-osc3wave 3;
#X msg 387 119 \; \$1-osc1vol 1 \; \$1-osc1on 1 \; \$1-osc2vol 1 \;
\$1-osc2on 1 \; \$1-osc3vol 1 \; \$1-osc3on 1 \; \$1-externalon 0 \;
\$1-externalvol 0 \; \$1-noiseon 0 \; \$1-noisevol 0 \; \$1-noisetype
0;
#X msg 255 119 \; \$1-filtercutoff 0.7 \; \$1-filteremph 0.7 \; \$1-filteramt
0.7 \; \$1-filterA 0.01 \; \$1-filterD 0.1 \; \$1-filterS 0.5 \; \$1-contourA
0.01 \; \$1-contourD 0.05 \; \$1-contourS 0.5;
#X msg 19 120 \; \$1-vol 1 \; \$1-glideon 0 \; \$1-glide 0 \; \$1-tune
0.5 \; \$1-decayon 1 \; \$1-modon 0 \; \$1-mod 0 \; \$1-modmix 0 \;
\$1-oscmod 0 \; \$1-filtermod 0 \; \$1-keytrack 1;
#X connect 0 0 2 0;
#X connect 1 0 7 0;
#X connect 1 0 4 0;
#X connect 1 0 6 0;
#X connect 1 0 5 0;
#X connect 2 0 1 0;
#X connect 3 0 2 0;
#X restore 419 290 pd defaults;
#X obj 32 177 inlet note;
#N canvas 642 364 440 332 Controllers 0;
#X obj 11 29 inlet note;
#X obj 50 293 outlet note;
#X msg 211 87 0;
#X obj 211 58 sel 0;
#X obj 11 63 moses 1;
#X obj 50 241 line;
#X obj 254 58 loadbang;
#X obj 122 29 r \$0-glide;
#X obj 211 29 r \$0-glideon;
#X obj 122 54 clip 0 1;
#X obj 58 123 - 0;
#X obj 50 91 t f f;
#X obj 58 147 abs;
#X text 102 242 real minimoog takes max 5 seconds to cross 44 keys
;
#X msg 238 87 bang;
#X obj 107 186 * 0;
#X obj 50 212 pack 0 0;
#X text 151 267 so max between keys ~= 5000/44 = 113.63 ms;
#X obj 134 90 pow 2;
#X floatatom 148 116 5 0 0 0 - - -, f 5;
#X obj 122 158 * 28.4;
#X connect 0 0 4 0;
#X connect 2 0 15 1;
#X connect 3 0 2 0;
#X connect 3 1 14 0;
#X connect 4 1 11 0;
#X connect 5 0 1 0;
#X connect 6 0 2 0;
#X connect 7 0 9 0;
#X connect 8 0 3 0;
#X connect 9 0 18 0;
#X connect 10 0 12 0;
#X connect 11 0 10 1;
#X connect 11 0 16 0;
#X connect 11 1 10 0;
#X connect 12 0 15 0;
#X connect 14 0 20 0;
#X connect 15 0 16 1;
#X connect 16 0 5 0;
#X connect 18 0 19 0;
#X connect 19 0 20 0;
#X connect 20 0 15 1;
#X restore 32 252 pd Controllers;
#N canvas 219 346 261 246 Modifiers 0;
#X obj 27 19 inlet~ audio;
#X obj 27 209 outlet~ audio;
#X obj 27 172 *~;
#N canvas 5 70 328 412 Loudness 0;
#X obj 29 30 inlet vel;
#X obj 29 382 outlet~;
#X text 234 92 R = D;
#X obj 29 345 c_adsr 1 20 0 50 100;
#X obj 146 260 f 100;
#X obj 75 59 r \$0-contourA;
#X obj 138 91 r \$0-contourD;
#X obj 218 260 r \$0-contourS;
#X obj 224 127 r \$0-decayon;
#X obj 218 287 * 100;
#X msg 243 196 1;
#N canvas 0 22 383 437 scale 0;
#X obj 25 72 moses 1;
#X obj 64 92 moses 2;
#X obj 103 112 moses 3;
#X obj 142 132 moses 4;
#X obj 181 152 moses 5;
#X obj 220 172 moses 6;
#X obj 64 222 - 1;
#X obj 103 222 - 2;
#X obj 142 222 - 3;
#X obj 181 222 - 4;
#X obj 220 222 - 5;
#X obj 25 253 * 83;
#X obj 64 252 * 278;
#X obj 64 282 + 83;
#X obj 103 252 * 94;
#X obj 103 282 + 362;
#X obj 142 252 * 312;
#X obj 142 282 + 456;
#X obj 181 252 * 982;
#X obj 181 282 + 768;
#X obj 220 252 * 4550;
#X obj 220 282 + 1750;
#X obj 269 192 moses 7;
#X obj 269 222 - 6;
#X obj 318 222 - 7;
#X obj 269 252 * 6450;
#X obj 269 282 + 6300;
#X obj 318 252 * 12250;
#X obj 25 363 t f;
#X obj 318 282 + 12750;
#X obj 25 50 * 7.99;
#X obj 25 223 - 0;
#X obj 25 283 + 0;
#X obj 25 22 inlet;
#X obj 25 400 outlet;
#X text 109 20 approximating minmoog knob curv;
#X connect 0 0 31 0;
#X connect 0 1 1 0;
#X connect 1 0 6 0;
#X connect 1 1 2 0;
#X connect 2 0 7 0;
#X connect 2 1 3 0;
#X connect 3 0 8 0;
#X connect 3 1 4 0;
#X connect 4 0 9 0;
#X connect 4 1 5 0;
#X connect 5 0 10 0;
#X connect 5 1 22 0;
#X connect 6 0 12 0;
#X connect 7 0 14 0;
#X connect 8 0 16 0;
#X connect 9 0 18 0;
#X connect 10 0 20 0;
#X connect 11 0 32 0;
#X connect 12 0 13 0;
#X connect 13 0 28 0;
#X connect 14 0 15 0;
#X connect 15 0 28 0;
#X connect 16 0 17 0;
#X connect 17 0 28 0;
#X connect 18 0 19 0;
#X connect 19 0 28 0;
#X connect 20 0 21 0;
#X connect 21 0 28 0;
#X connect 22 0 23 0;
#X connect 22 1 24 0;
#X connect 23 0 25 0;
#X connect 24 0 27 0;
#X connect 25 0 26 0;
#X connect 26 0 28 0;
#X connect 27 0 29 0;
#X connect 28 0 34 0;
#X connect 29 0 28 0;
#X connect 30 0 0 0;
#X connect 31 0 11 0;
#X connect 32 0 28 0;
#X connect 33 0 30 0;
#X restore 75 195 pd scale;
#N canvas 0 22 383 428 scale 0;
#X obj 25 72 moses 1;
#X obj 64 92 moses 2;
#X obj 103 112 moses 3;
#X obj 142 132 moses 4;
#X obj 181 152 moses 5;
#X obj 220 172 moses 6;
#X obj 64 222 - 1;
#X obj 103 222 - 2;
#X obj 142 222 - 3;
#X obj 181 222 - 4;
#X obj 220 222 - 5;
#X obj 25 253 * 83;
#X obj 64 252 * 278;
#X obj 64 282 + 83;
#X obj 103 252 * 94;
#X obj 103 282 + 362;
#X obj 142 252 * 312;
#X obj 142 282 + 456;
#X obj 181 252 * 982;
#X obj 181 282 + 768;
#X obj 220 252 * 4550;
#X obj 220 282 + 1750;
#X obj 269 192 moses 7;
#X obj 269 222 - 6;
#X obj 318 222 - 7;
#X obj 269 252 * 6450;
#X obj 269 282 + 6300;
#X obj 318 252 * 12250;
#X obj 25 363 t f;
#X obj 318 282 + 12750;
#X obj 25 50 * 7.99;
#X obj 25 223 - 0;
#X obj 25 283 + 0;
#X obj 25 22 inlet;
#X obj 25 396 outlet;
#X text 109 20 approximating minmoog knob curv;
#X connect 0 0 31 0;
#X connect 0 1 1 0;
#X connect 1 0 6 0;
#X connect 1 1 2 0;
#X connect 2 0 7 0;
#X connect 2 1 3 0;
#X connect 3 0 8 0;
#X connect 3 1 4 0;
#X connect 4 0 9 0;
#X connect 4 1 5 0;
#X connect 5 0 10 0;
#X connect 5 1 22 0;
#X connect 6 0 12 0;
#X connect 7 0 14 0;
#X connect 8 0 16 0;
#X connect 9 0 18 0;
#X connect 10 0 20 0;
#X connect 11 0 32 0;
#X connect 12 0 13 0;
#X connect 13 0 28 0;
#X connect 14 0 15 0;
#X connect 15 0 28 0;
#X connect 16 0 17 0;
#X connect 17 0 28 0;
#X connect 18 0 19 0;
#X connect 19 0 28 0;
#X connect 20 0 21 0;
#X connect 21 0 28 0;
#X connect 22 0 23 0;
#X connect 22 1 24 0;
#X connect 23 0 25 0;
#X connect 24 0 27 0;
#X connect 25 0 26 0;
#X connect 26 0 28 0;
#X connect 27 0 29 0;
#X connect 28 0 34 0;
#X connect 29 0 28 0;
#X connect 30 0 0 0;
#X connect 31 0 11 0;
#X connect 32 0 28 0;
#X connect 33 0 30 0;
#X restore 138 196 pd scale;
#X obj 75 165 clip 0 1;
#X obj 138 165 clip 0 1;
#X obj 224 167 sel 1 0;
#X connect 0 0 3 0;
#X connect 3 0 1 0;
#X connect 4 0 3 5;
#X connect 5 0 13 0;
#X connect 6 0 14 0;
#X connect 7 0 9 0;
#X connect 8 0 15 0;
#X connect 9 0 3 4;
#X connect 10 0 3 5;
#X connect 11 0 3 2;
#X connect 12 0 3 3;
#X connect 12 0 4 0;
#X connect 13 0 11 0;
#X connect 14 0 12 0;
#X connect 15 0 4 0;
#X connect 15 1 10 0;
#X restore 108 120 pd Loudness Contour;
#N canvas 20 82 390 629 Filter 0;
#X obj 61 50 inlet vel;
#X obj 115 397 inlet~ mod;
#X obj 33 19 inlet~;
#X obj 33 586 outlet~;
#X msg 100 107 127;
#X text 303 96 R = D;
#X obj 61 76 moses 1;
#X obj 100 210 c_adsr 1 20 1000 50 1000;
#X obj 100 322 *~ 1;
#X obj 148 323 - 1;
#X obj 100 367 +~ 0;
#X obj 148 347 abs;
#X obj 121 298 t f f;
#X obj 100 423 +~;
#X obj 101 462 r \$0-filtercutoff;
#X obj 164 515 r \$0-filteremph;
#X obj 121 242 r \$0-filteramt;
#X obj 156 68 r \$0-filterA;
#X obj 218 97 r \$0-filterD;
#X obj 278 154 r \$0-filterS;
#X obj 121 271 clip 0 1;
#X obj 101 488 clip 0 1;
#X obj 278 180 * 100;
#N canvas 0 22 383 428 scale 0;
#X obj 25 72 moses 1;
#X obj 64 92 moses 2;
#X obj 103 112 moses 3;
#X obj 142 132 moses 4;
#X obj 181 152 moses 5;
#X obj 220 172 moses 6;
#X obj 64 222 - 1;
#X obj 103 222 - 2;
#X obj 142 222 - 3;
#X obj 181 222 - 4;
#X obj 220 222 - 5;
#X obj 25 253 * 83;
#X obj 64 252 * 278;
#X obj 64 282 + 83;
#X obj 103 252 * 94;
#X obj 103 282 + 362;
#X obj 142 252 * 312;
#X obj 142 282 + 456;
#X obj 181 252 * 982;
#X obj 181 282 + 768;
#X obj 220 252 * 4550;
#X obj 220 282 + 1750;
#X obj 269 192 moses 7;
#X obj 269 222 - 6;
#X obj 318 222 - 7;
#X obj 269 252 * 6450;
#X obj 269 282 + 6300;
#X obj 318 252 * 12250;
#X obj 25 363 t f;
#X obj 318 282 + 12750;
#X obj 25 50 * 7.99;
#X obj 25 223 - 0;
#X obj 25 283 + 0;
#X obj 25 22 inlet;
#X obj 25 396 outlet;
#X text 109 20 approximating minmoog knob curv;
#X connect 0 0 31 0;
#X connect 0 1 1 0;
#X connect 1 0 6 0;
#X connect 1 1 2 0;
#X connect 2 0 7 0;
#X connect 2 1 3 0;
#X connect 3 0 8 0;
#X connect 3 1 4 0;
#X connect 4 0 9 0;
#X connect 4 1 5 0;
#X connect 5 0 10 0;
#X connect 5 1 22 0;
#X connect 6 0 12 0;
#X connect 7 0 14 0;
#X connect 8 0 16 0;
#X connect 9 0 18 0;
#X connect 10 0 20 0;
#X connect 11 0 32 0;
#X connect 12 0 13 0;
#X connect 13 0 28 0;
#X connect 14 0 15 0;
#X connect 15 0 28 0;
#X connect 16 0 17 0;
#X connect 17 0 28 0;
#X connect 18 0 19 0;
#X connect 19 0 28 0;
#X connect 20 0 21 0;
#X connect 21 0 28 0;
#X connect 22 0 23 0;
#X connect 22 1 24 0;
#X connect 23 0 25 0;
#X connect 24 0 27 0;
#X connect 25 0 26 0;
#X connect 26 0 28 0;
#X connect 27 0 29 0;
#X connect 28 0 34 0;
#X connect 29 0 28 0;
#X connect 30 0 0 0;
#X connect 31 0 11 0;
#X connect 32 0 28 0;
#X connect 33 0 30 0;
#X restore 218 153 pd scale;
#N canvas 547 68 383 428 scale 0;
#X obj 25 72 moses 1;
#X obj 64 92 moses 2;
#X obj 103 112 moses 3;
#X obj 142 132 moses 4;
#X obj 181 152 moses 5;
#X obj 220 172 moses 6;
#X obj 64 222 - 1;
#X obj 103 222 - 2;
#X obj 142 222 - 3;
#X obj 181 222 - 4;
#X obj 220 222 - 5;
#X obj 25 253 * 83;
#X obj 64 252 * 278;
#X obj 64 282 + 83;
#X obj 103 252 * 94;
#X obj 103 282 + 362;
#X obj 142 252 * 312;
#X obj 142 282 + 456;
#X obj 181 252 * 982;
#X obj 181 282 + 768;
#X obj 220 252 * 4550;
#X obj 220 282 + 1750;
#X obj 269 192 moses 7;
#X obj 269 222 - 6;
#X obj 318 222 - 7;
#X obj 269 252 * 6450;
#X obj 269 282 + 6300;
#X obj 318 252 * 12250;
#X obj 25 363 t f;
#X obj 318 282 + 12750;
#X obj 25 50 * 7.99;
#X obj 25 223 - 0;
#X obj 25 283 + 0;
#X obj 25 22 inlet;
#X obj 25 396 outlet;
#X text 109 20 approximating minmoog knob curv;
#X connect 0 0 31 0;
#X connect 0 1 1 0;
#X connect 1 0 6 0;
#X connect 1 1 2 0;
#X connect 2 0 7 0;
#X connect 2 1 3 0;
#X connect 3 0 8 0;
#X connect 3 1 4 0;
#X connect 4 0 9 0;
#X connect 4 1 5 0;
#X connect 5 0 10 0;
#X connect 5 1 22 0;
#X connect 6 0 12 0;
#X connect 7 0 14 0;
#X connect 8 0 16 0;
#X connect 9 0 18 0;
#X connect 10 0 20 0;
#X connect 11 0 32 0;
#X connect 12 0 13 0;
#X connect 13 0 28 0;
#X connect 14 0 15 0;
#X connect 15 0 28 0;
#X connect 16 0 17 0;
#X connect 17 0 28 0;
#X connect 18 0 19 0;
#X connect 19 0 28 0;
#X connect 20 0 21 0;
#X connect 21 0 28 0;
#X connect 22 0 23 0;
#X connect 22 1 24 0;
#X connect 23 0 25 0;
#X connect 24 0 27 0;
#X connect 25 0 26 0;
#X connect 26 0 28 0;
#X connect 27 0 29 0;
#X connect 28 0 34 0;
#X connect 29 0 28 0;
#X connect 30 0 0 0;
#X connect 31 0 11 0;
#X connect 32 0 28 0;
#X connect 33 0 30 0;
#X restore 156 152 pd scale;
#N canvas 0 22 395 438 scale 0;
#X obj 25 72 moses 1;
#X obj 64 92 moses 2;
#X obj 103 112 moses 3;
#X obj 142 132 moses 4;
#X obj 183 152 moses 5;
#X obj 230 172 moses 6;
#X obj 64 222 - 1;
#X obj 103 222 - 2;
#X obj 142 222 - 3;
#X obj 183 222 - 4;
#X obj 230 222 - 5;
#X obj 279 192 moses 7;
#X obj 279 222 - 6;
#X obj 328 222 - 7;
#X obj 25 363 t f;
#X obj 25 50 * 7.99;
#X obj 25 223 - 0;
#X obj 25 22 inlet;
#X obj 25 396 outlet;
#X obj 25 283 + 20;
#X obj 25 253 * 60;
#X obj 64 282 + 80;
#X obj 103 282 + 192;
#X obj 142 282 + 449;
#X obj 183 282 + 1048;
#X obj 230 282 + 2618;
#X obj 279 282 + 6280;
#X obj 328 282 + 14647;
#X obj 328 252 * 5353;
#X obj 279 252 * 8367;
#X obj 230 252 * 3662;
#X obj 183 252 * 1570;
#X obj 142 252 * 599;
#X obj 103 252 * 257;
#X obj 64 252 * 112;
#X text 109 20 approximating minmoog knob curv;
#X connect 0 0 16 0;
#X connect 0 1 1 0;
#X connect 1 0 6 0;
#X connect 1 1 2 0;
#X connect 2 0 7 0;
#X connect 2 1 3 0;
#X connect 3 0 8 0;
#X connect 3 1 4 0;
#X connect 4 0 9 0;
#X connect 4 1 5 0;
#X connect 5 0 10 0;
#X connect 5 1 11 0;
#X connect 6 0 34 0;
#X connect 7 0 33 0;
#X connect 8 0 32 0;
#X connect 9 0 31 0;
#X connect 10 0 30 0;
#X connect 11 0 12 0;
#X connect 11 1 13 0;
#X connect 12 0 29 0;
#X connect 13 0 28 0;
#X connect 14 0 18 0;
#X connect 15 0 0 0;
#X connect 16 0 20 0;
#X connect 17 0 15 0;
#X connect 19 0 14 0;
#X connect 20 0 19 0;
#X connect 21 0 14 0;
#X connect 22 0 14 0;
#X connect 23 0 14 0;
#X connect 24 0 14 0;
#X connect 25 0 14 0;
#X connect 26 0 14 0;
#X connect 27 0 14 0;
#X connect 28 0 27 0;
#X connect 29 0 26 0;
#X connect 30 0 25 0;
#X connect 31 0 24 0;
#X connect 32 0 23 0;
#X connect 33 0 22 0;
#X connect 34 0 21 0;
#X restore 101 514 pd scale;
#X obj 156 125 clip 0 1;
#X obj 218 127 clip 0 1;
#X obj 33 550 e_moog 1044 0.5;
#X connect 0 0 6 0;
#X connect 1 0 13 1;
#X connect 2 0 28 0;
#X connect 4 0 7 0;
#X connect 6 0 7 0;
#X connect 6 1 4 0;
#X connect 7 0 8 0;
#X connect 8 0 10 0;
#X connect 9 0 11 0;
#X connect 10 0 13 0;
#X connect 11 0 10 1;
#X connect 12 0 8 1;
#X connect 12 1 9 0;
#X connect 13 0 28 1;
#X connect 14 0 21 0;
#X connect 15 0 28 3;
#X connect 16 0 20 0;
#X connect 17 0 26 0;
#X connect 18 0 27 0;
#X connect 19 0 22 0;
#X connect 20 0 12 0;
#X connect 21 0 25 0;
#X connect 22 0 7 4;
#X connect 23 0 7 3;
#X connect 23 0 7 5;
#X connect 24 0 7 2;
#X connect 25 0 28 2;
#X connect 26 0 24 0;
#X connect 27 0 23 0;
#X connect 28 0 3 0;
#X restore 27 121 pd Filter;
#X obj 108 87 r \$0-velocity;
#X obj 78 54 catch~ \$0-modsig;
#X connect 0 0 4 0;
#X connect 2 0 1 0;
#X connect 3 0 2 1;
#X connect 4 0 2 0;
#X connect 5 0 4 1;
#X connect 5 0 3 0;
#X connect 6 0 4 2;
#X restore 32 386 pd Modifiers;
#N canvas 191 87 809 288 Mixer---------------- 0;
#X obj 19 17 inlet~ vco1;
#X obj 175 18 inlet~ vco2;
#X obj 331 20 inlet~ vco3;
#X obj 647 17 inlet~ external;
#X obj 331 259 outlet~;
#X obj 19 168 *~;
#X obj 175 165 *~;
#X obj 331 166 *~;
#X obj 487 17 inlet~ noise;
#X obj 487 166 *~;
#X obj 647 168 *~;
#X obj 19 203 c_spigot;
#X obj 175 203 c_spigot;
#X obj 331 204 c_spigot;
#X obj 487 204 c_spigot;
#X obj 647 206 c_spigot;
#X obj 175 67 *~ 0.5;
#X obj 19 65 *~ 0.5;
#X obj 331 65 *~ 0.5;
#X obj 487 62 *~ 0.5;
#X obj 34 102 r \$0-osc1vol;
#X obj 64 168 r \$0-osc1on;
#X obj 190 102 r \$0-osc2vol;
#X obj 220 166 r \$0-osc2on;
#X obj 376 167 r \$0-osc3on;
#X obj 346 102 r \$0-osc3vol;
#X obj 502 101 r \$0-noisevol;
#X obj 532 166 r \$0-noiseon;
#X obj 662 102 r \$0-externalvol;
#X obj 34 131 clip 0 1;
#X obj 190 131 clip 0 1;
#X obj 346 132 clip 0 1;
#X obj 502 132 clip 0 1;
#X obj 662 134 clip 0 1;
#X obj 692 168 r \$0-externalon;
#X connect 0 0 17 0;
#X connect 1 0 16 0;
#X connect 2 0 18 0;
#X connect 3 0 10 0;
#X connect 5 0 11 0;
#X connect 6 0 12 0;
#X connect 7 0 13 0;
#X connect 8 0 19 0;
#X connect 9 0 14 0;
#X connect 10 0 15 0;
#X connect 11 0 4 0;
#X connect 12 0 4 0;
#X connect 13 0 4 0;
#X connect 14 0 4 0;
#X connect 15 0 4 0;
#X connect 16 0 6 0;
#X connect 17 0 5 0;
#X connect 18 0 7 0;
#X connect 19 0 9 0;
#X connect 20 0 29 0;
#X connect 21 0 11 1;
#X connect 22 0 30 0;
#X connect 23 0 12 1;
#X connect 24 0 13 1;
#X connect 25 0 31 0;
#X connect 26 0 32 0;
#X connect 27 0 14 1;
#X connect 28 0 33 0;
#X connect 29 0 5 1;
#X connect 30 0 6 1;
#X connect 31 0 7 1;
#X connect 32 0 9 1;
#X connect 33 0 10 1;
#X connect 34 0 15 1;
#X restore 32 349 pd Mixer----------------;
#N canvas 0 22 167 307 Output 0;
#N canvas 467 170 244 147 testtone 0;
#X obj 133 50 sel 0;
#X msg 163 79 1;
#X msg 133 78 0;
#X obj 26 23 osc~ 440;
#X obj 133 17 inlet;
#X obj 26 88 outlet~;
#X obj 133 114 switch~;
#X obj 26 61 *~ 0.33;
#X connect 0 0 2 0;
#X connect 0 1 1 0;
#X connect 1 0 6 0;
#X connect 2 0 6 0;
#X connect 3 0 7 0;
#X connect 4 0 0 0;
#X connect 7 0 5 0;
#X restore 62 100 pd testtone;
#X obj 43 3 inlet~;
#X obj 43 273 outlet~;
#X obj 43 238 *~;
#X obj 43 141 c_xfade;
#X obj 62 69 t f f;
#X obj 62 42 r \$0-A440on;
#X obj 58 178 r \$0-vol;
#X obj 58 207 clip 0 1;
#X connect 0 0 4 1;
#X connect 1 0 4 0;
#X connect 3 0 2 0;
#X connect 4 0 3 0;
#X connect 5 0 0 0;
#X connect 5 1 4 2;
#X connect 6 0 5 0;
#X connect 7 0 8 0;
#X connect 8 0 3 1;
#X restore 32 420 pd Output;
#X text 26 14 a minimoog-inspired 3 osc synth;
#X text 286 455 danomatika.com | robotcowboy.com;
#X text 31 84 references:;
#X text 50 103 http://www.workrobot.com/music/minimoog.html;
#X text 51 121 http://emusician.com/mag/emusic_moog_minimoog/;
#X text 52 139 http://www.soundonsound.com/sos/mar05/articles/arturiaminimoog.htm
;
#X text 91 61 I'm quite sure it dosen't sound *exactly* like one;
#N canvas 731 160 572 396 Keyboard 0;
#X obj 21 25 inlet;
#X obj 120 196 route 0;
#X obj 261 222 unpack f f;
#X text 337 220 note on;
#X text 176 197 note off;
#X obj 120 137 swap;
#X obj 120 163 pack f f;
#N canvas 315 22 535 523 detect 0;
#X obj 56 297 + 1;
#X obj 21 297 f;
#X obj 21 388 &;
#X obj 21 413 sel 1;
#X obj 21 358 == 0;
#X obj 56 358 == 1;
#X text 54 389 attack;
#X obj 123 390 &;
#X obj 123 415 sel 1;
#X text 150 391 release;
#X obj 157 358 == 0;
#X obj 123 358 == 1;
#X text 109 299 keep a running count of the number of keys held down
;
#X text 205 359 look for edge envelopes;
#X msg 61 268 -1;
#X msg 94 268 1;
#X obj 75 179 inlet note on;
#X obj 21 24 inlet note off;
#X obj 21 454 f;
#X obj 75 206 t b b f;
#X msg 123 454 0;
#X obj 168 487 outlet release;
#X obj 21 488 s \$0-velocity;
#X obj 21 115 t b b f;
#X obj 60 146 outlet note off;
#X text 164 147 pass through;
#X msg 168 95 0;
#X obj 168 62 t b b;
#X text 243 36 clear all notes on panic;
#X obj 168 34 r \$0-panic;
#X obj 195 416 t b b;
#X obj 21 87 spigot;
#X msg 166 206 1;
#X obj 108 63 loadbang;
#X text 204 96 don't allow note offs through until note on has been
receieved;
#X connect 0 0 1 1;
#X connect 0 0 10 0;
#X connect 0 0 5 0;
#X connect 1 0 0 0;
#X connect 1 0 11 0;
#X connect 1 0 4 0;
#X connect 2 0 3 0;
#X connect 3 0 18 0;
#X connect 4 0 2 0;
#X connect 5 0 2 1;
#X connect 7 0 8 0;
#X connect 8 0 20 0;
#X connect 8 0 21 0;
#X connect 10 0 7 1;
#X connect 11 0 7 0;
#X connect 14 0 0 1;
#X connect 15 0 0 1;
#X connect 16 0 19 0;
#X connect 16 0 32 0;
#X connect 17 0 31 0;
#X connect 18 0 22 0;
#X connect 19 0 1 0;
#X connect 19 1 15 0;
#X connect 19 2 18 1;
#X connect 20 0 22 0;
#X connect 23 0 1 0;
#X connect 23 1 14 0;
#X connect 23 2 24 0;
#X connect 26 0 1 1;
#X connect 26 0 31 1;
#X connect 27 0 26 0;
#X connect 27 1 30 0;
#X connect 29 0 27 0;
#X connect 30 0 20 0;
#X connect 30 1 21 0;
#X connect 31 0 23 0;
#X connect 32 0 31 1;
#X connect 33 0 26 0;
#X restore 120 258 pd detect attack release;
#N canvas 0 23 490 605 choose 0;
#X obj 58 556 outlet;
#X obj 58 253 list;
#X obj 58 290 u_listunique;
#X obj 58 319 u_listsort;
#X msg 152 51 list;
#X obj 58 417 u_listmap;
#X obj 140 384 t f f;
#X obj 185 421 f;
#X obj 140 450 sel 0;
#X obj 39 144 t b b f;
#X obj 58 526 list split 1;
#X obj 140 421 == -1;
#X msg 167 198 -1;
#X obj 39 23 inlet note off;
#X obj 264 24 inlet note on;
#X obj 152 23 inlet release;
#X text 193 292 build asc sorted list of unique notes;
#X text 166 529 output lowest note;
#X text 220 421 remove note from list on note off;
#X connect 1 0 2 0;
#X connect 2 0 3 0;
#X connect 3 0 5 0;
#X connect 4 0 1 1;
#X connect 5 0 1 1;
#X connect 5 0 10 0;
#X connect 5 1 6 0;
#X connect 6 0 11 0;
#X connect 6 1 7 1;
#X connect 7 0 5 1;
#X connect 8 0 7 0;
#X connect 9 0 12 0;
#X connect 9 1 1 0;
#X connect 9 2 11 1;
#X connect 10 0 0 0;
#X connect 11 0 8 0;
#X connect 12 0 11 1;
#X connect 13 0 9 0;
#X connect 14 0 1 0;
#X connect 15 0 4 0;
#X restore 200 301 pd choose lowest note;
#X obj 82 356 outlet note;
#X obj 21 112 u_demux2;
#N canvas 0 22 275 241 pass 0;
#X obj 52 27 inlet;
#X obj 79 121 outlet;
#X obj 79 93 stripnote;
#X obj 52 156 unpack 0 0;
#X obj 52 61 t a a;
#X obj 109 181 s \$0-velocity;
#X connect 0 0 4 0;
#X connect 2 0 1 0;
#X connect 3 1 5 0;
#X connect 4 0 3 0;
#X connect 4 1 2 0;
#X restore 21 301 pd pass all notes;
#X obj 66 26 r \$0-keytrack;
#X obj 93 82 sel 1;
#X obj 66 53 t f f;
#X obj 93 111 s \$0-panic;
#X text 176 23 The ADSRs are only triggered when a note is played on
the keyboard while no other notes are down. If a note is down \, hitting
another note may change the pitch (only if the second note is lower
than the first) \, but will not retrigger the ADSRs.;
#X text 166 113 clear key tracker before turning it on;
#X connect 0 0 10 0;
#X connect 1 0 7 0;
#X connect 1 1 2 0;
#X connect 2 0 7 1;
#X connect 2 1 8 2;
#X connect 5 0 6 0;
#X connect 5 1 6 1;
#X connect 6 0 1 0;
#X connect 7 0 8 0;
#X connect 7 1 8 1;
#X connect 8 0 9 0;
#X connect 10 0 11 0;
#X connect 10 1 5 0;
#X connect 11 0 9 0;
#X connect 12 0 14 0;
#X connect 13 0 15 0;
#X connect 14 0 10 1;
#X connect 14 1 13 0;
#X restore 32 217 pd Keyboard;
#X obj 291 206 list trim;
#X obj 291 372 u_loader s_minimoog-\$1 \$0;
#X obj 291 401 outlet;
#N canvas 0 22 471 545 dispatchers 0;
#X obj 45 20 inlet;
#X obj 45 47 u_dispatch \$0 tune;
#X obj 45 68 u_dispatch \$0 glideon;
#X obj 45 90 u_dispatch \$0 glide;
#X obj 45 135 u_dispatch \$0 decayon;
#X obj 45 180 u_dispatch \$0 modon;
#X obj 45 203 u_dispatch \$0 modmix;
#X obj 45 225 u_dispatch \$0 oscmod;
#X obj 45 247 u_dispatch \$0 filtermod;
#X obj 45 321 u_dispatch \$0 osc1range;
#X obj 45 343 u_dispatch \$0 osc1wave;
#X obj 45 365 u_dispatch \$0 osc2range;
#X obj 45 387 u_dispatch \$0 osc2wave;
#X obj 45 409 u_dispatch \$0 osc2detune;
#X obj 45 453 u_dispatch \$0 osc3range;
#X obj 45 475 u_dispatch \$0 osc3wave;
#X obj 45 497 u_dispatch \$0 osc3detune;
#X obj 276 46 u_dispatch \$0 osc1on;
#X obj 276 68 u_dispatch \$0 osc1vol;
#X obj 276 90 u_dispatch \$0 osc2on;
#X obj 276 112 u_dispatch \$0 osc2vol;
#X obj 276 158;
#X obj 276 134 u_dispatch \$0 osc3on;
#X obj 276 156 u_dispatch \$0 osc3vol;
#X obj 276 222 u_dispatch \$0 noiseon;
#X obj 276 244 u_dispatch \$0 noisevol;
#X obj 276 266 u_dispatch \$0 noisetype;
#X obj 276 299 u_dispatch \$0 filtercutoff;
#X obj 276 343 u_dispatch \$0 filteramt;
#X obj 276 365 u_dispatch \$0 filterA;
#X obj 276 387 u_dispatch \$0 filterD;
#X obj 276 409 u_dispatch \$0 filterS;
#X obj 276 431 u_dispatch \$0 contourA;
#X obj 276 453 u_dispatch \$0 contourD;
#X obj 276 475 u_dispatch \$0 contourS;
#X obj 276 497 u_dispatch \$0 vol;
#X obj 276 321 u_dispatch \$0 filteremph;
#X obj 45 431 u_dispatch \$0 osc3ctl;
#X obj 45 157 u_dispatch \$0 mod;
#X obj 276 178 u_dispatch \$0 externalon;
#X obj 276 200 u_dispatch \$0 externalvol;
#X obj 45 112 u_dispatch \$0 keytrack;
#X connect 0 0 1 0;
#X connect 1 0 2 0;
#X connect 2 0 3 0;
#X connect 3 0 41 0;
#X connect 4 0 38 0;
#X connect 5 0 6 0;
#X connect 6 0 7 0;
#X connect 7 0 8 0;
#X connect 8 0 9 0;
#X connect 9 0 10 0;
#X connect 10 0 11 0;
#X connect 11 0 12 0;
#X connect 12 0 13 0;
#X connect 13 0 37 0;
#X connect 14 0 15 0;
#X connect 15 0 16 0;
#X connect 16 0 17 0;
#X connect 17 0 18 0;
#X connect 18 0 19 0;
#X connect 19 0 20 0;
#X connect 20 0 22 0;
#X connect 22 0 21 0;
#X connect 22 0 23 0;
#X connect 23 0 39 0;
#X connect 24 0 25 0;
#X connect 25 0 26 0;
#X connect 26 0 27 0;
#X connect 27 0 36 0;
#X connect 28 0 29 0;
#X connect 29 0 30 0;
#X connect 30 0 31 0;
#X connect 31 0 32 0;
#X connect 32 0 33 0;
#X connect 33 0 34 0;
#X connect 34 0 35 0;
#X connect 36 0 28 0;
#X connect 37 0 14 0;
#X connect 38 0 5 0;
#X connect 39 0 40 0;
#X connect 40 0 24 0;
#X connect 41 0 4 0;
#X restore 462 263 pd dispatchers;
#X obj 376 316 s \$0-panic;
#X msg 376 290 bang;
#X obj 291 233 route save A440on panic reset;
#X obj 333 344 s \$0-A440on;
#X text 52 38 modeled after what I can find about the minimoog model
D ...;
#N canvas 172 83 586 377 LICENSE-GPL 0;
#X text 57 88 This program is free software: you can redistribute it
and/or modify it under the terms of the GNU General Public License
as published by the Free Software Foundation \, either version 3 of
the License \, or (at your option) any later version.;
#X text 58 168 This program is distributed in the hope that it will
be useful \, but WITHOUT ANY WARRANTY \; without even the implied warranty
of MERCHANTABILITY or FITNESS FOR A PARTICULAR PURPOSE. See the GNU
General Public License for more details.;
#X text 57 261 You should have received a copy of the GNU General Public
License along with this program. If not \, see <http://www.gnu.org/licenses/>.
;
#X text 60 325 See the file LICENSE.txt for the full license text.
;
#X text 56 54 Copyright (C) 2009 \, 2015 Dan Wilcox <danomatika@gmail.com>
;
#X restore 435 103 pd LICENSE-GPL;
#X text 286 440 2010 \, 2015 Dan Wilcox;
#X connect 1 0 8 0;
#X connect 1 1 8 1;
#X connect 1 2 8 2;
#X connect 1 3 8 3;
#X connect 2 0 8 4;
#X connect 3 0 18 0;
#X connect 5 0 17 0;
#X connect 6 0 1 0;
#X connect 7 0 9 0;
#X connect 8 0 7 0;
#X connect 9 0 0 0;
#X connect 17 0 6 0;
#X connect 18 0 24 0;
#X connect 19 0 20 0;
#X connect 23 0 22 0;
#X connect 24 0 19 0;
#X connect 24 1 25 0;
#X connect 24 2 23 0;
#X connect 24 3 4 0;
#X connect 24 4 21 0;
