#N canvas 109 219 308 398 10;
#X msg 22 223 0;
#X msg 49 245 1;
#X obj 49 195 t b b;
#X obj 22 277 readsf~ 2;
#X msg 101 249 open \$1;
#X obj 73 306 outlet bang_when_done;
#X obj 22 360 outlet~ left;
#X obj 47 333 outlet~ right;
#X obj 22 51 inlet;
#X obj 49 139 max 0;
#X obj 22 112 sel 0;
#X obj 22 85 route float bang open play;
#X obj 136 115 t b a;
#X text 151 361 Dan Wilcox 2008 \, 2010;
#X obj 101 223 symbol;
#X text 152 177 for spaces in filename;
#X text 19 16 a simple wrapper around readsf~;
#X obj 134 197 u_list2symbol;
#X connect 0 0 3 0;
#X connect 1 0 3 0;
#X connect 2 0 1 0;
#X connect 2 1 14 0;
#X connect 3 0 6 0;
#X connect 3 1 7 0;
#X connect 3 2 5 0;
#X connect 4 0 3 0;
#X connect 8 0 11 0;
#X connect 9 0 2 0;
#X connect 10 0 0 0;
#X connect 10 1 9 0;
#X connect 11 0 10 0;
#X connect 11 1 2 0;
#X connect 11 2 17 0;
#X connect 11 3 12 0;
#X connect 12 0 2 0;
#X connect 12 1 17 0;
#X connect 14 0 4 0;
#X connect 17 0 14 1;
