#N canvas 207 170 364 367 10;
#X msg 70 135 1;
#X msg 108 159 0;
#X msg 145 182 bang;
#X obj 103 234 bng 15 250 50 0 empty empty done_playing 17 7 0 10 -262144
-1 -1;
#X text 140 45 wrapper around readsf~;
#X obj 46 46 loadbang;
#X text 138 158 turn off;
#X text 98 133 plays on floats > 0;
#X text 184 182 bang to play;
#X msg 46 74 open media/bang.wav;
#X obj 218 297 readsf~;
#X text 160 270 see readsf~ help for more info;
#X msg 60 104 play media/aw.wav;
#X text 182 330 Dan Wilcox 2008 \, 2016;
#X obj 46 308 soundoutput;
#X text 24 17 s_playsf: a simple stereo soundfile player;
#X obj 46 210 s_playsf;
#X text 172 73 set file \, don't play;
#X text 173 104 set file and play;
#X connect 0 0 16 0;
#X connect 1 0 16 0;
#X connect 2 0 16 0;
#X connect 5 0 9 0;
#X connect 9 0 16 0;
#X connect 12 0 16 0;
#X connect 16 0 14 0;
#X connect 16 1 14 1;
#X connect 16 2 3 0;
