#N canvas 185 25 479 528 10;
#N canvas 0 22 450 278 (subpatch) 0;
#X array record-samp 220500 float 2;
#X coords 0 1 220500 -1 100 70 1 0 0;
#X restore 324 434 graph;
#X obj 29 35 adc~ 1;
#X listbox 29 447 15 0 0 1 start\ duration - - 0;
#X msg 51 99 record-samp;
#X obj 104 421 bng 16 250 50 0 empty empty done 20 9 0 10 #fcfcfc #000000 #000000;
#X msg 84 193 record-samp 3000 1000;
#X msg 73 160 record-samp 1000 2000;
#X msg 63 129 record-samp 1000;
#X text 134 99 record to entire "record-samp" table;
#X text 173 129 record starting at 1 second;
#X text 212 160 record 2 seconds \, starting at 1 second;
#X text 221 194 record 1 second \, starting at 3 seconds;
#X text 48 74 fixed length recording: tablename start duration (ms);
#X msg 207 339 sr 44100;
#X msg 132 338 sr 22050;
#X msg 104 279 stop;
#X text 138 279 stop recording in progress;
#X msg 99 226 bang;
#X text 141 226 repeat last instruction;
#X text 130 318 override samplerate (Hz);
#N canvas 353 242 386 389 playback 0;
#X obj 131 149 inlet;
#X obj 30 272 s_playtable;
#X msg 30 55 record-samp;
#X obj 30 330 soundoutput;
#X listbox 68 206 29 0 0 0 - - - 0;
#X obj 68 89 bng 16 250 50 0 empty empty play\ last\ recorded\ part 20 9 0 10 #00ff04 #000000 #000000;
#X obj 68 176 list append;
#X msg 68 118 list record-samp 1 1;
#X obj 267 206 samplerate~;
#X msg 267 237 sr \$1;
#X obj 267 176 loadbang;
#X msg 328 176 bang;
#X obj 93 297 bng 16 250 50 0 empty empty done 20 9 0 10 #fcfcfc #000000 #000000;
#X text 113 55 play entire table;
#X text 30 11 requires rjlib [s_playtable];
#X connect 0 0 6 1;
#X connect 1 0 3 0;
#X connect 1 1 12 0;
#X connect 2 0 1 0;
#X connect 4 0 1 0;
#X connect 5 0 7 0;
#X connect 6 0 4 0;
#X connect 7 0 6 0;
#X connect 8 0 9 0;
#X connect 9 0 1 1;
#X connect 10 0 8 0;
#X connect 11 0 8 0;
#X restore 29 487 pd playback;
#N canvas 469 358 409 277 record 0;
#X obj 87 115 sel 1 0;
#X msg 87 145 record-samp;
#X msg 177 146 stop;
#X obj 68 184 s_recordtable;
#X obj 68 55 adc~ 1;
#X listbox 68 235 20 0 0 0 - - - 0;
#X obj 143 208 bng 16 250 50 0 empty empty empty 0 -8 0 10 #fcfcfc #000000 #000000;
#X obj 87 91 tgl 16 0 empty empty empty 0 -8 0 10 #ffc7c6 #000000 #000000 0 1;
#X msg 226 146 set 0;
#X text 19 17 For a simple record toggle: start - ? (up to end of table);
#X connect 0 0 1 0;
#X connect 0 1 2 0;
#X connect 1 0 3 0;
#X connect 2 0 3 1;
#X connect 3 0 5 0;
#X connect 3 1 6 0;
#X connect 4 0 3 0;
#X connect 6 0 8 0;
#X connect 7 0 0 0;
#X connect 8 0 7 0;
#X restore 323 387 pd record toggle;
#X text 86 35 low level but flexible table sample recorder;
#X text 23 9 s_recordtable;
#X obj 29 395 s_recordtable;
#X connect 1 0 24 0;
#X connect 2 0 20 0;
#X connect 3 0 24 0;
#X connect 5 0 24 0;
#X connect 6 0 24 0;
#X connect 7 0 24 0;
#X connect 13 0 24 1;
#X connect 14 0 24 1;
#X connect 15 0 24 1;
#X connect 17 0 24 0;
#X connect 24 0 2 0;
#X connect 24 1 4 0;
