#N canvas 396 241 488 242 10;
#X obj 14 19 inlet;
#X msg 68 20 bang;
#N canvas 474 125 187 315 vel 0;
#X obj 22 18 inlet;
#X obj 100 161 s \$0-vel;
#X obj 100 132 / 127;
#X obj 61 222 s \$0-play;
#X obj 22 278 s \$0-stop;
#X msg 22 249 bang;
#X obj 22 45 moses 1;
#X obj 100 105 clip 0 127;
#X obj 61 76 t b b f;
#X obj 80 191 s \$0-speedreset;
#X connect 0 0 6 0;
#X connect 2 0 1 0;
#X connect 5 0 4 0;
#X connect 6 0 5 0;
#X connect 6 1 8 0;
#X connect 7 0 2 0;
#X connect 8 0 3 0;
#X connect 8 1 9 0;
#X connect 8 2 7 0;
#X restore 123 103 pd vel;
#N canvas 941 92 245 431 playsample 0;
#X obj 34 396 outlet~;
#X obj 68 371 outlet~;
#X obj 34 317 s_playtable2;
#X obj 55 120 r \$0-vel;
#X obj 34 23 r \$0-play;
#X msg 103 292 stop;
#X obj 103 267 r \$0-stop;
#N canvas 486 135 337 200 speed 0;
#X obj 185 19 r \$0-speed;
#X obj 4 19 r \$0-midi;
#X obj 197 163 outlet;
#X obj 31 102 / 60;
#X text 65 102 middle C;
#X obj 4 48 sel 0;
#X obj 4 74 s \$0-stop;
#X obj 185 48 sel 0;
#X obj 185 74 s \$0-stop;
#X text 232 47 speed as a float;
#X text 48 47 speed as midi note;
#X obj 31 131 t b f;
#X obj 31 163 outlet;
#X obj 197 103 r \$0-speedreset;
#X obj 197 134 f 1;
#X connect 0 0 7 0;
#X connect 1 0 5 0;
#X connect 3 0 11 0;
#X connect 5 0 6 0;
#X connect 5 1 3 0;
#X connect 7 0 8 0;
#X connect 7 1 14 1;
#X connect 11 0 12 0;
#X connect 11 1 2 0;
#X connect 13 0 14 0;
#X connect 14 0 2 0;
#X restore 47 53 pd speed;
#X obj 34 86 t b b;
#X obj 136 120 f;
#X obj 170 182 r \$0-dur;
#X obj 34 210 pack \$0 f f 0 0;
#X msg 34 238 \$1-sample \$2 \$3 \$4 \$5;
#X obj 55 178 * 1;
#X obj 70 150 r \$0-amp;
#N canvas 629 541 319 295 reverse 0;
#X obj 192 237 outlet;
#X msg 133 133 1;
#X msg 219 134 -1;
#X obj 106 69 sel 0;
#X obj 106 106 t f b;
#X obj 192 206 f;
#X obj 207 173 r \$0-dur;
#X obj 192 106 t b b;
#X msg 106 161 0;
#X obj 50 36 inlet;
#X obj 50 239 outlet;
#X obj 50 215 * 1;
#X obj 106 37 r \$0-reverse;
#X connect 1 0 11 1;
#X connect 2 0 11 1;
#X connect 3 0 4 0;
#X connect 3 1 7 0;
#X connect 4 0 8 0;
#X connect 4 1 1 0;
#X connect 5 0 0 0;
#X connect 6 0 5 1;
#X connect 7 0 5 0;
#X connect 7 1 2 0;
#X connect 8 0 0 0;
#X connect 9 0 11 0;
#X connect 11 0 10 0;
#X connect 12 0 3 0;
#X restore 136 149 pd reverse;
#X connect 2 0 0 0;
#X connect 2 1 1 0;
#X connect 3 0 13 0;
#X connect 4 0 8 0;
#X connect 5 0 2 1;
#X connect 6 0 5 0;
#X connect 7 0 8 0;
#X connect 7 1 9 1;
#X connect 8 0 11 0;
#X connect 8 1 9 0;
#X connect 9 0 15 0;
#X connect 10 0 11 4;
#X connect 11 0 12 0;
#X connect 12 0 2 0;
#X connect 13 0 11 1;
#X connect 14 0 13 1;
#X connect 15 0 11 2;
#X connect 15 1 11 3;
#X restore 164 173 pd playsample;
#X obj 164 210 outlet~;
#X obj 239 210 outlet~;
#X obj 329 158 u_loader s_sample-\$1 \$0;
#X obj 330 74 u_dispatch \$0 speed;
#X obj 330 23 inlet;
#N canvas 79 167 256 371 midi 0;
#X obj 34 22 inlet;
#X obj 163 266 s \$0-vel;
#X obj 163 237 / 127;
#X obj 136 328 s \$0-stop;
#X msg 136 299 bang;
#X obj 163 210 clip 0 127;
#X obj 34 82 unpack f f;
#X obj 34 49 list split 2;
#X obj 136 152 f;
#X obj 61 300 clip 0 127;
#X obj 61 329 s \$0-midi;
#X obj 34 114 t b f;
#X obj 136 180 sel 0;
#X connect 0 0 7 0;
#X connect 2 0 1 0;
#X connect 4 0 3 0;
#X connect 5 0 2 0;
#X connect 6 0 11 0;
#X connect 6 1 8 1;
#X connect 7 0 6 0;
#X connect 8 0 12 0;
#X connect 9 0 10 0;
#X connect 11 0 8 0;
#X connect 11 1 9 0;
#X connect 12 0 4 0;
#X connect 12 1 5 0;
#X restore 160 75 pd midi pair;
#N canvas 172 83 586 377 LICENSE-GPL 0;
#X text 57 88 This program is free software: you can redistribute it
and/or modify it under the terms of the GNU General Public License
as published by the Free Software Foundation \, either version 3 of
the License \, or (at your option) any later version.;
#X text 58 168 This program is distributed in the hope that it will
be useful \, but WITHOUT ANY WARRANTY \; without even the implied warranty
of MERCHANTABILITY or FITNESS FOR A PARTICULAR PURPOSE. See the GNU
General Public License for more details.;
#X text 57 261 You should have received a copy of the GNU General Public
License along with this program. If not \, see <http://www.gnu.org/licenses/>.
;
#X text 60 325 See the file LICENSE.txt for the full license text.
;
#X text 56 54 Copyright (C) 2012 \, Dan Wilcox <danomatika@gmail.com>
;
#X restore 15 209 pd LICENSE-GPL;
#X obj 330 48 u_dispatch \$0 amp;
#X obj 330 101 u_dispatch \$0 reverse;
#N canvas 637 173 286 242 openfile 0;
#X obj 19 18 inlet;
#X obj 122 104 u_samplebank2 \$0-sample;
#X obj 19 46 u_list2symbol;
#X msg 122 78 open \$1;
#X obj 122 131 unpack s f f f;
#X obj 149 160 s \$0-dur;
#X obj 19 210 s \$0-filename;
#X obj 122 19 r \$0-filename;
#X obj 122 47 u_list2symbol;
#X connect 0 0 2 0;
#X connect 1 0 4 0;
#X connect 2 0 6 0;
#X connect 3 0 1 0;
#X connect 4 1 5 0;
#X connect 7 0 8 0;
#X connect 8 0 3 0;
#X restore 14 161 pd openfile;
#N canvas 223 219 178 175 play 0;
#X obj 26 16 inlet;
#X obj 26 50 t b b;
#X obj 53 78 s \$0-speedreset;
#X obj 26 102 s \$0-play;
#X connect 0 0 1 0;
#X connect 1 0 3 0;
#X connect 1 1 2 0;
#X restore 87 131 pd play;
#N canvas 780 235 159 167 arg2 0;
#X obj 19 18 loadbang;
#X obj 19 71 symbol \$2;
#X obj 19 101 select symbol;
#X obj 94 71 symbol;
#X obj 19 44 t b b;
#X obj 94 128 outlet;
#X connect 0 0 4 0;
#X connect 1 0 2 0;
#X connect 2 1 5 0;
#X connect 3 0 2 1;
#X connect 4 0 1 0;
#X connect 4 1 3 0;
#X restore 32 131 pd arg2;
#X obj 329 211 outlet;
#N canvas 0 23 450 184 to 0;
#X obj 52 40 r \$0-amp;
#X obj 194 41 r \$0-reverse;
#X obj 120 41 r \$0-speed;
#X obj 283 42 r \$0-filename;
#X msg 52 79 amp \$1;
#X msg 120 79 speed \$1;
#X msg 194 80 reverse \$1;
#X msg 283 103 filename \$1;
#X obj 194 126 outlet;
#X obj 283 80 u_list2symbol;
#X connect 0 0 4 0;
#X connect 1 0 6 0;
#X connect 2 0 5 0;
#X connect 3 0 9 0;
#X connect 4 0 8 0;
#X connect 5 0 8 0;
#X connect 6 0 8 0;
#X connect 7 0 8 0;
#X connect 9 0 7 0;
#X restore 329 185 pd to gui;
#X obj 330 129 u_dispatch \$0 filename;
#X obj 14 47 route open load bang float list;
#X connect 0 0 19 0;
#X connect 1 0 19 0;
#X connect 3 0 4 0;
#X connect 3 1 5 0;
#X connect 7 0 12 0;
#X connect 8 0 11 0;
#X connect 11 0 7 0;
#X connect 15 0 13 0;
#X connect 17 0 16 0;
#X connect 19 0 13 0;
#X connect 19 1 13 0;
#X connect 19 2 14 0;
#X connect 19 3 2 0;
#X connect 19 4 9 0;
