#N canvas 0 23 296 278 10;
#X obj 46 216 samphold~;
#X obj 46 192 noise~;
#X obj 97 191 phasor~ 50;
#X obj 97 166 sig~;
#X obj 46 242 outlet~;
#N canvas 352 136 450 300 arg1 0;
#X obj 107 86 f \$1;
#X obj 107 58 loadbang;
#X obj 107 113 sel 0;
#X obj 134 176 outlet;
#X connect 0 0 2 0;
#X connect 1 0 0 0;
#X connect 2 1 3 0;
#X restore 174 53 pd arg1;
#X obj 97 108 sel 0;
#X msg 97 135 0;
#X text 10 10 simple sample and hold noise for 8-bit sound;
#X obj 97 83 clip 0 20000;
#X obj 97 53 inlet freq;
#X connect 0 0 4 0;
#X connect 1 0 0 0;
#X connect 2 0 0 1;
#X connect 3 0 2 0;
#X connect 5 0 9 0;
#X connect 6 0 7 0;
#X connect 6 1 3 0;
#X connect 7 0 3 0;
#X connect 7 0 4 0;
#X connect 9 0 6 0;
#X connect 10 0 9 0;
