#N canvas 99 238 532 259 10;
#X obj 35 38 hsl 128 15 1 10000 0 0 empty empty empty -2 -8 0 10 -262144
-1 -1 1176 1;
#X floatatom 32 67 5 0 0 1 freq - -, f 5;
#N canvas 0 23 450 300 (subpatch) 0;
#X array \$0-scope 1000 float 0;
#X coords 0 1 999 -1 200 140 1;
#X restore 290 82 graph;
#X obj 157 91 tgl 15 0 empty empty empty 17 7 0 10 -262144 -1 -1 0
1;
#X msg 157 138 bang;
#X text 176 89 graph;
#X obj 157 114 metro 100;
#X obj 157 162 tabwrite~ \$0-scope;
#X obj 32 185 soundoutput;
#X text 32 10 simple sample and hold noise for that crunchy 8-bit sound
;
#X obj 32 92 s_sampnoise 440;
#X connect 0 0 1 0;
#X connect 1 0 10 0;
#X connect 3 0 6 0;
#X connect 4 0 7 0;
#X connect 6 0 4 0;
#X connect 10 0 7 0;
#X connect 10 0 8 0;
#X connect 10 0 8 1;
