#N canvas 256 239 318 488 10;
#X obj 29 28 inlet;
#X obj 29 448 outlet~;
#X obj 29 250 *;
#X obj 29 304 int;
#X obj 29 333 pack 0 100;
#X obj 44 174 t b a;
#X obj 90 101 s \$0-table;
#X obj 171 306 r \$0-table;
#X obj 119 194 symbol;
#X obj 44 146 r \$0-table;
#X obj 86 278 inlet;
#X obj 86 305 route float;
#X obj 29 59 route float set;
#X obj 29 419 hip~ 5;
#X obj 119 168 loadbang;
#N canvas 0 23 200 200 arg1 0;
#X obj 31 92 symbol \$1;
#X obj 31 30 loadbang;
#X obj 31 123 sel symbol;
#X obj 88 152 s \$0-table;
#X obj 113 93 symbol;
#X obj 31 58 t b b;
#X connect 0 0 2 0;
#X connect 1 0 5 0;
#X connect 2 1 3 0;
#X connect 4 0 2 1;
#X connect 5 0 0 0;
#X connect 5 1 4 0;
#X restore 183 27 pd arg1;
#X obj 44 220 array size;
#X obj 29 391 tabread4~;
#X obj 171 333 list prepend set;
#X obj 171 359 list trim;
#X obj 29 361 vline~;
#X obj 29 101 clip -1 1;
#X obj 184 131 unpack f f;
#X obj 184 202 m_ms2sm;
#X obj 250 178 +;
#X obj 184 102 t a a;
#X obj 250 202 m_ms2sm;
#X obj 29 277 + 0;
#X text 155 447 Dan Wilcox 2015 \, 2024;
#X obj 211 152 route 0;
#X msg 211 178 bang;
#X connect 0 0 12 0;
#X connect 2 0 27 0;
#X connect 3 0 4 0;
#X connect 4 0 20 0;
#X connect 5 0 16 0;
#X connect 5 1 8 0;
#X connect 7 0 18 0;
#X connect 8 0 16 1;
#X connect 9 0 5 0;
#X connect 10 0 11 0;
#X connect 11 0 4 1;
#X connect 12 0 21 0;
#X connect 12 1 6 0;
#X connect 12 2 25 0;
#X connect 13 0 1 0;
#X connect 14 0 16 0;
#X connect 16 0 2 1;
#X connect 17 0 13 0;
#X connect 18 0 19 0;
#X connect 19 0 17 0;
#X connect 20 0 17 0;
#X connect 21 0 2 0;
#X connect 22 0 23 0;
#X connect 23 0 27 1;
#X connect 24 0 26 0;
#X connect 25 0 22 0;
#X connect 25 1 29 0;
#X connect 26 0 2 1;
#X connect 27 0 3 0;
#X connect 29 0 30 0;
#X connect 29 1 24 0;
#X connect 30 0 16 0;
