#N canvas 256 239 318 424 10;
#X obj 63 25 inlet;
#X obj 45 390 outlet~;
#X obj 45 217 *;
#X obj 45 246 int;
#X obj 45 275 pack 0 100;
#X obj 60 141 t b a;
#X obj 106 85 s \$0-table;
#X obj 187 248 r \$0-table;
#X obj 135 161 symbol;
#X obj 60 113 r \$0-table;
#X obj 102 220 inlet;
#X obj 102 247 route float;
#X obj 63 56 route float set;
#X obj 45 361 hip~ 5;
#X obj 135 135 loadbang;
#N canvas 0 23 200 200 arg1 0;
#X obj 31 92 symbol \$1;
#X obj 31 30 loadbang;
#X obj 31 123 sel symbol;
#X obj 88 152 s \$0-table;
#X obj 113 93 symbol;
#X obj 31 58 t b b;
#X connect 0 0 2 0;
#X connect 1 0 5 0;
#X connect 2 1 3 0;
#X connect 4 0 2 1;
#X connect 5 0 0 0;
#X connect 5 1 4 0;
#X restore 197 34 pd arg1;
#X obj 60 187 array size;
#X obj 45 333 tabread4~;
#X obj 187 275 list prepend set;
#X obj 187 301 list trim;
#X obj 45 86 clip 0 1;
#X obj 45 303 vline~;
#X text 171 389 Dan Wilcox 2015;
#X connect 0 0 12 0;
#X connect 2 0 3 0;
#X connect 3 0 4 0;
#X connect 4 0 21 0;
#X connect 5 0 16 0;
#X connect 5 1 8 0;
#X connect 7 0 18 0;
#X connect 8 0 16 1;
#X connect 9 0 5 0;
#X connect 10 0 11 0;
#X connect 11 0 4 1;
#X connect 12 0 20 0;
#X connect 12 1 6 0;
#X connect 13 0 1 0;
#X connect 14 0 16 0;
#X connect 16 0 2 1;
#X connect 17 0 13 0;
#X connect 18 0 19 0;
#X connect 19 0 17 0;
#X connect 20 0 2 0;
#X connect 21 0 17 0;
