#N canvas 525 345 603 399 10;
#X obj 25 52 inlet;
#X obj 416 48 inlet;
#X obj 25 356 outlet;
#X obj 25 290 f 0;
#X obj 185 289 + 1;
#X obj 428 136 f \$1;
#X msg 25 109 bang;
#X text 455 48 set new upper limit;
#X text 8 9 simple counter;
#X text 140 22 creation arg: upper limit;
#X obj 428 112 loadbang;
#X obj 185 356 outlet;
#X text 230 356 bang on reset;
#X obj 416 160 moses 1;
#X msg 197 109 1;
#X msg 229 109 -1;
#X text 68 51 bang to increase/decrease count;
#X obj 455 185 t b a;
#N canvas 172 83 586 377 LICENSE-GPL 0;
#X text 57 88 This program is free software: you can redistribute it
and/or modify it under the terms of the GNU General Public License
as published by the Free Software Foundation \, either version 3 of
the License \, or (at your option) any later version.;
#X text 58 168 This program is distributed in the hope that it will
be useful \, but WITHOUT ANY WARRANTY \; without even the implied warranty
of MERCHANTABILITY or FITNESS FOR A PARTICULAR PURPOSE. See the GNU
General Public License for more details.;
#X text 57 261 You should have received a copy of the GNU General Public
License along with this program. If not \, see <http://www.gnu.org/licenses/>.
;
#X text 60 325 See the file LICENSE.txt for the full license text.
;
#X text 56 54 Copyright (C) 2013 \, Dan Wilcox <danomatika@gmail.com>
;
#X restore 417 356 pd LICENSE-GPL;
#X obj 79 109 t b f;
#X obj 416 82 route float;
#X obj 229 204 t b f;
#X msg 155 109 0;
#X obj 499 238 s \$0-max;
#X obj 416 238 s \$0-maxctl;
#X msg 455 208 1;
#X msg 416 185 0;
#N canvas 0 23 398 342 check 0;
#X obj 183 288 outlet;
#X msg 183 244 bang;
#X obj 183 137 sel 1;
#X obj 93 115 < 0;
#X obj 93 138 sel 1;
#X obj 108 187 - 1;
#X obj 93 85 spigot;
#X obj 93 243 s \$0-set;
#X obj 93 209 f;
#X obj 183 114 >=;
#X obj 108 164 r \$0-max;
#X obj 198 92 r \$0-max;
#X obj 93 30 inlet;
#X obj 126 57 r \$0-maxctl;
#X obj 228 244 inlet;
#X obj 183 265 spigot 1;
#X msg 183 163 0;
#X connect 1 0 15 0;
#X connect 2 0 16 0;
#X connect 3 0 4 0;
#X connect 4 0 8 0;
#X connect 5 0 8 1;
#X connect 6 0 9 0;
#X connect 6 0 3 0;
#X connect 8 0 1 0;
#X connect 8 0 7 0;
#X connect 9 0 2 0;
#X connect 10 0 5 0;
#X connect 11 0 9 1;
#X connect 12 0 6 0;
#X connect 13 0 6 1;
#X connect 14 0 15 1;
#X connect 15 0 0 0;
#X connect 16 0 1 0;
#X connect 16 0 7 0;
#X restore 185 323 pd check limit;
#X obj 252 241 t b b b;
#X msg 290 288 0;
#X msg 252 288 1;
#X obj 25 79 route bang next float set reset up down prev;
#N canvas 0 23 281 254 clip 0;
#X obj 69 51 inlet;
#X obj 69 198 outlet;
#X obj 69 96 int;
#X obj 159 125 -1;
#X obj 69 121 u_demux2;
#X obj 159 103 r \$0-max;
#X obj 114 80 r \$0-maxctl;
#X obj 114 151 clip 0 0;
#X obj 115 175 r \$0-set;
#X connect 0 0 2 0;
#X connect 2 0 4 0;
#X connect 3 0 7 2;
#X connect 4 0 1 0;
#X connect 4 1 7 0;
#X connect 5 0 3 0;
#X connect 6 0 4 1;
#X connect 7 0 1 0;
#X connect 8 0 1 0;
#X restore 122 143 pd clip and set;
#X obj 312 160 * -1;
#X obj 229 143 f 1;
#X obj 291 185 f -1;
#X obj 262 110 t b b b;
#X obj 268 143 t b;
#X connect 0 0 31 0;
#X connect 1 0 20 0;
#X connect 3 0 4 0;
#X connect 3 0 2 0;
#X connect 4 0 3 1;
#X connect 4 0 27 0;
#X connect 5 0 13 0;
#X connect 6 0 3 0;
#X connect 10 0 5 0;
#X connect 13 0 26 0;
#X connect 13 1 17 0;
#X connect 14 0 34 0;
#X connect 15 0 34 0;
#X connect 17 0 25 0;
#X connect 17 1 23 0;
#X connect 19 0 3 0;
#X connect 19 1 32 0;
#X connect 20 0 13 0;
#X connect 21 0 28 0;
#X connect 21 1 4 1;
#X connect 22 0 32 0;
#X connect 25 0 24 0;
#X connect 26 0 24 0;
#X connect 27 0 11 0;
#X connect 28 0 30 0;
#X connect 28 1 4 0;
#X connect 28 2 29 0;
#X connect 29 0 27 1;
#X connect 30 0 27 1;
#X connect 31 0 6 0;
#X connect 31 1 6 0;
#X connect 31 2 19 0;
#X connect 31 3 32 0;
#X connect 31 4 22 0;
#X connect 31 5 14 0;
#X connect 31 6 15 0;
#X connect 31 7 36 0;
#X connect 32 0 3 1;
#X connect 33 0 35 1;
#X connect 34 0 21 0;
#X connect 34 0 33 0;
#X connect 35 0 21 0;
#X connect 36 0 34 0;
#X connect 36 1 37 0;
#X connect 36 2 35 0;
#X connect 37 0 3 0;
