#N canvas 372 65 643 444 10;
#X obj 91 359 f;
#X obj 91 51 inlet;
#X obj 183 47 inlet;
#X obj 91 396 outlet;
#X text 60 27 value to find;
#X obj 91 210 t a b;
#X obj 91 158 list;
#X text 180 27 list to search in;
#X text 208 103 [list-find] Find positions of a value (symbol or float)
in a list.;
#X obj 91 317 select 1;
#N canvas 0 22 450 300 count 0;
#X obj 120 148 f 0;
#X obj 148 149 + 1;
#X obj 163 100 0;
#X obj 117 24 inlet;
#X obj 119 176 outlet;
#X obj 181 25 inlet;
#X obj 114 47 b;
#X connect 0 0 1 0;
#X connect 0 0 4 0;
#X connect 1 0 0 1;
#X connect 2 0 0 1;
#X connect 3 0 6 0;
#X connect 5 0 2 0;
#X connect 6 0 0 0;
#X restore 121 245 pd count;
#X obj 91 80 t b a b b;
#X obj 176 395 outlet;
#X obj 248 351 + 1;
#X obj 176 375 f;
#X obj 219 350 f 1;
#X msg 235 317 1;
#X msg 199 318 0;
#X obj 91 180 u_listdrip;
#N canvas 0 22 390 462 compare-any 0;
#X obj 39 17 inlet;
#X obj 39 440 outlet;
#X obj 39 325 ==;
#X obj 39 347 select 1;
#N canvas 272 259 450 300 demux 0;
#X obj 76 87 inlet;
#X obj 169 86 inlet;
#X obj 76 145 list prepend 0;
#X obj 76 186 route 0 1;
#X obj 76 242 outlet;
#X obj 105 213 outlet;
#X connect 0 0 2 0;
#X connect 1 0 2 1;
#X connect 2 0 3 0;
#X connect 3 0 4 0;
#X connect 3 1 5 0;
#X restore 39 219 pd demux;
#X msg 90 196 0;
#X msg 121 195 1;
#X obj 39 284 route float;
#X obj 140 282 route symbol;
#X obj 280 188 print HUH?;
#X obj 140 261 list;
#X obj 159 153 route float symbol;
#X obj 159 125 list;
#X msg 39 412 1;
#X msg 111 407 0;
#X obj 159 17 inlet;
#X obj 140 345 select [DUMMY-SYMBOL];
#X connect 0 0 4 0;
#X connect 2 0 3 0;
#X connect 3 0 13 0;
#X connect 3 1 14 0;
#X connect 4 0 7 0;
#X connect 4 1 10 0;
#X connect 5 0 4 1;
#X connect 6 0 4 1;
#X connect 7 0 2 0;
#X connect 7 1 14 0;
#X connect 8 0 16 0;
#X connect 8 1 14 0;
#X connect 10 0 8 0;
#X connect 11 0 2 1;
#X connect 11 0 5 0;
#X connect 11 1 6 0;
#X connect 11 1 16 1;
#X connect 11 2 9 0;
#X connect 12 0 11 0;
#X connect 13 0 1 0;
#X connect 14 0 1 0;
#X connect 15 0 12 0;
#X connect 16 0 13 0;
#X connect 16 1 14 0;
#X restore 91 293 pd compare-any;
#X connect 0 0 3 0;
#X connect 1 0 11 0;
#X connect 2 0 6 1;
#X connect 5 0 19 0;
#X connect 5 1 10 0;
#X connect 6 0 18 0;
#X connect 9 0 0 0;
#X connect 9 0 15 0;
#X connect 10 0 0 1;
#X connect 11 0 6 0;
#X connect 11 1 19 1;
#X connect 11 2 10 1;
#X connect 11 3 16 0;
#X connect 11 3 17 0;
#X connect 13 0 15 1;
#X connect 14 0 12 0;
#X connect 15 0 14 1;
#X connect 15 0 13 0;
#X connect 16 0 15 1;
#X connect 17 0 14 1;
#X connect 18 0 5 0;
#X connect 18 1 14 0;
#X connect 19 0 9 0;
