#N canvas 545 329 469 412 10;
#X text 296 387 close the patch window;
#X text 20 371 open the patch window;
#X obj 22 309 pack s s;
#X text 45 6 opens and closes patches via patchname;
#X text 250 240 closes prev patch \, opens current;
#X obj 200 240 symbol;
#X obj 65 268 outlet opened;
#X obj 200 340 outlet closed;
#N canvas 4 51 172 174 filter_empty_symbol 0;
#X obj 24 40 inlet;
#X obj 99 130 outlet;
#X obj 99 40 loadbang;
#X obj 99 69 symbol;
#X obj 24 98 select symbol;
#X connect 0 0 4 0;
#X connect 2 0 3 0;
#X connect 3 0 4 1;
#X connect 4 1 1 0;
#X restore 200 268 pd filter_empty_symbol;
#X obj 233 204 symbol;
#X text 282 204 send in empty symbol;
#X text 123 97 in case of spaces in path;
#X obj 166 32 inlet file;
#X obj 166 167 t b b b b;
#X msg 424 202 1;
#X msg 166 204 0;
#X obj 200 293 spigot;
#X obj 166 62 route close;
#X obj 181 134 r #closebang;
#X obj 22 134 t a b;
#X obj 65 239 t a a;
#X obj 22 204 p_splitfilename;
#X obj 22 168 p_makeabsolute;
#X obj 22 96 u_list2symbol;
#X obj 200 315 t a a;
#X obj 299 330 makefilename pd-%s;
#X msg 299 353 \; \$1 menuclose 1;
#X msg 22 337 \; pd open \$2 \$1;
#X connect 2 0 27 0;
#X connect 5 0 8 0;
#X connect 8 0 16 0;
#X connect 9 0 5 1;
#X connect 12 0 17 0;
#X connect 13 0 15 0;
#X connect 13 1 9 0;
#X connect 13 2 5 0;
#X connect 13 3 14 0;
#X connect 14 0 16 1;
#X connect 15 0 16 1;
#X connect 16 0 24 0;
#X connect 17 0 13 0;
#X connect 17 1 23 0;
#X connect 18 0 13 0;
#X connect 19 0 22 0;
#X connect 19 1 13 0;
#X connect 20 0 6 0;
#X connect 20 1 2 1;
#X connect 21 0 2 0;
#X connect 21 1 20 0;
#X connect 21 1 5 1;
#X connect 22 0 21 0;
#X connect 23 0 19 0;
#X connect 24 0 7 0;
#X connect 24 1 25 0;
#X connect 25 0 26 0;
