#N canvas 551 370 398 206 10;
#X obj 52 30 inlet;
#X obj 202 30 inlet;
#X obj 202 130 outlet;
#X obj 97 130 outlet;
#X obj 52 65 route \$1;
#X obj 202 65 list prepend \$1;
#X obj 202 92 list trim;
#X text 69 163 2018 Dan Wilcox danomatika.com;
#N canvas 629 73 200 207 arg2 0;
#X obj 86 146 outlet;
#X msg 59 67 bang;
#X obj 59 118 sel 0;
#X obj 59 41 loadbang;
#X obj 59 92 list append \$2;
#X connect 1 0 4 0;
#X connect 2 1 0 0;
#X connect 3 0 1 0;
#X connect 4 0 2 0;
#X restore 289 30 pd arg2;
#X connect 0 0 4 0;
#X connect 1 0 5 0;
#X connect 4 0 2 0;
#X connect 4 1 3 0;
#X connect 5 0 6 0;
#X connect 6 0 3 0;
#X connect 8 0 5 1;
