#N canvas 518 23 476 541 10;
#X obj 97 395 route foo bar baz;
#X obj 97 494 print foo;
#X obj 130 470 print bar;
#X obj 163 445 print baz;
#X obj 204 186 + 1;
#X msg 37 125 foo \$1;
#X floatatom 37 101 5 0 0 0 - - -, f 5;
#X obj 100 105 hsl 64 15 0 127 0 0 empty empty empty -2 -8 0 10 -262144
-1 -1 4500 1;
#X msg 97 125 bar \$1;
#X obj 204 224 / 127;
#X obj 97 290 u_routemap baz;
#X msg 284 126 ka something else 1 2 3;
#X obj 196 421 print;
#X obj 204 290 u_listmap;
#X obj 279 290 makefilename %d-baz;
#X msg 174 126 baz 1 2 3 4;
#X text 122 268 chain for list processing \, element by element;
#X text 250 226 midi range convert;
#X text 227 496 2018 Dan Wilcox danomatika.com;
#X obj 97 186 u_routemap foo;
#X obj 97 224 u_routemap bar;
#X text 38 20 u_routemap: apply function on a matching message name
;
#X text 237 186 filter for foo \, then apply function;
#X text 38 60 route ARG1 -> r outlet -> function -> l inlet -> prepend
ARG2, f 63;
#X text 123 323 route foo to kra after applying function;
#X obj 97 347 u_routemap ka kra;
#X obj 218 347 list append a b c;
#X connect 0 0 1 0;
#X connect 0 1 2 0;
#X connect 0 2 3 0;
#X connect 0 3 12 0;
#X connect 4 0 19 1;
#X connect 5 0 19 0;
#X connect 6 0 5 0;
#X connect 7 0 8 0;
#X connect 8 0 19 0;
#X connect 9 0 20 1;
#X connect 10 0 25 0;
#X connect 10 1 13 0;
#X connect 11 0 19 0;
#X connect 13 0 10 1;
#X connect 13 1 14 0;
#X connect 14 0 13 1;
#X connect 15 0 19 0;
#X connect 19 0 20 0;
#X connect 19 1 4 0;
#X connect 20 0 10 0;
#X connect 20 1 9 0;
#X connect 25 0 0 0;
#X connect 25 1 26 0;
#X connect 26 0 25 1;
