#N canvas 187 144 305 162 10;
#X obj 28 24 inlet;
#N canvas 10 52 377 394 messagebox 0;
#X obj 32 42 route save load clear;
#X obj 49 164 s RJ_SCENE_SAVE;
#X obj 33 223 r RJ_SCENE;
#X obj 33 321 u_cocollect;
#X msg 174 130 clear;
#X obj 33 289 spigot;
#X obj 32 71 t b b b b;
#X msg 66 192 1;
#X msg 32 192 0;
#X obj 32 16 inlet;
#X msg 226 130 bang;
#X obj 155 71 outlet commands;
#X obj 140 355 outlet msg;
#X msg 49 130 prepare \, save;
#N canvas 0 23 273 495 filter 0;
#X obj 35 35 inlet;
#X obj 62 103 list split 1;
#X obj 35 417 spigot;
#X obj 62 133 list fromsymbol;
#X obj 62 161 t a a;
#X obj 89 190 list length;
#X obj 89 217 - 2;
#X obj 62 252 list split;
#X obj 90 281 unpack f f;
#X obj 90 308 == 36;
#X obj 147 309 == 49;
#X obj 90 334 &&;
#X obj 90 361 sel 0;
#X obj 35 70 t a a;
#X msg 90 384 1;
#X msg 117 384 0;
#X obj 35 445 outlet;
#X text 191 310 \$1 chars;
#X text 19 9 filter out names ending with \$1;
#X connect 0 0 13 0;
#X connect 1 0 3 0;
#X connect 2 0 16 0;
#X connect 3 0 4 0;
#X connect 4 0 7 0;
#X connect 4 1 5 0;
#X connect 5 0 6 0;
#X connect 6 0 7 1;
#X connect 7 1 8 0;
#X connect 8 0 9 0;
#X connect 8 1 10 0;
#X connect 9 0 11 0;
#X connect 10 0 11 1;
#X connect 11 0 12 0;
#X connect 12 0 14 0;
#X connect 12 1 15 0;
#X connect 13 0 2 0;
#X connect 13 1 1 0;
#X connect 14 0 2 1;
#X connect 15 0 2 1;
#X restore 33 257 pd filter dollar ones;
#X obj 40 102 s \$0-done;
#X obj 147 103 t b b;
#X msg 183 257 addsemi \, add2 RJ_SCENE_LOAD;
#X connect 0 0 6 0;
#X connect 0 1 10 0;
#X connect 0 2 4 0;
#X connect 0 3 11 0;
#X connect 2 0 14 0;
#X connect 3 0 12 0;
#X connect 4 0 3 1;
#X connect 5 0 3 0;
#X connect 6 0 8 0;
#X connect 6 0 15 0;
#X connect 6 1 13 0;
#X connect 6 2 7 0;
#X connect 6 3 16 0;
#X connect 7 0 5 1;
#X connect 8 0 5 1;
#X connect 9 0 0 0;
#X connect 10 0 12 0;
#X connect 13 0 1 0;
#X connect 14 0 5 0;
#X connect 16 0 17 0;
#X connect 16 1 4 0;
#X connect 17 0 12 0;
#X restore 28 61 pd messagebox;
#N canvas 120 164 572 576 textfile 0;
#X obj 50 293 s RJ_SCENE_SAVE;
#X obj 33 351 r RJ_SCENE;
#X msg 217 453 clear;
#X obj 33 403 spigot;
#X msg 66 320 1;
#X msg 34 320 0;
#X obj 19 15 inlet;
#X obj 33 442 list prepend add;
#X obj 33 464 list trim;
#X obj 294 507 textfile;
#X obj 364 484 until;
#X msg 391 455 read \$1 \, rewind;
#X msg 294 455 write \$1;
#X obj 294 340 symbol;
#X obj 19 205 t b b b b b;
#X obj 112 174 t b a;
#X obj 294 540 s RJ_SCENE_LOAD;
#X obj 338 150 t b a;
#X obj 294 377 u_demux2;
#X msg 339 266 0;
#X obj 245 172 t b b;
#X msg 376 266 1;
#X obj 19 148 route bang float;
#X obj 245 122 route bang float;
#X obj 294 401 symbol;
#X obj 364 402 symbol;
#X obj 327 294 r \$0-filename;
#X obj 397 147 s \$0-filename;
#X obj 82 237 s \$0-clear;
#X text 270 102 load;
#X text 35 126 save;
#N canvas 596 430 191 193 file 0;
#X obj 20 17 loadbang;
#X obj 20 50 t b b;
#X obj 95 83 symbol;
#X obj 20 113 select symbol;
#X obj 20 82 symbol \$1;
#X obj 95 144 outlet;
#X connect 0 0 1 0;
#X connect 1 0 4 0;
#X connect 1 1 2 0;
#X connect 2 0 3 1;
#X connect 3 1 5 0;
#X connect 4 0 3 0;
#X restore 397 40 pd file arg1;
#X obj 275 243 t b b b;
#X obj 295 71 route bang float;
#X text 343 54 set;
#X obj 397 117 symbol;
#X obj 139 204 s \$0-set-filename;
#X obj 365 175 s \$0-set-filename;
#X obj 413 68 r \$0-set-filename;
#X msg 50 263 prepare \, save;
#X obj 399 540 s \$0-done;
#N canvas 0 23 278 495 filter 0;
#X obj 35 35 inlet;
#X obj 62 103 list split 1;
#X obj 35 417 spigot;
#X obj 62 133 list fromsymbol;
#X obj 62 161 t a a;
#X obj 89 190 list length;
#X obj 89 217 - 2;
#X obj 62 252 list split;
#X obj 90 281 unpack f f;
#X obj 90 308 == 36;
#X obj 147 309 == 49;
#X obj 90 334 &&;
#X obj 90 361 sel 0;
#X obj 35 70 t a a;
#X msg 90 384 1;
#X msg 117 384 0;
#X obj 35 445 outlet;
#X text 191 310 \$1 chars;
#X text 19 9 filter out names ending with \$1;
#X text 75 34 save state objects without a name;
#X connect 0 0 13 0;
#X connect 1 0 3 0;
#X connect 2 0 16 0;
#X connect 3 0 4 0;
#X connect 4 0 7 0;
#X connect 4 1 5 0;
#X connect 5 0 6 0;
#X connect 6 0 7 1;
#X connect 7 1 8 0;
#X connect 8 0 9 0;
#X connect 8 1 10 0;
#X connect 9 0 11 0;
#X connect 10 0 11 1;
#X connect 11 0 12 0;
#X connect 12 0 14 0;
#X connect 12 1 15 0;
#X connect 13 0 2 0;
#X connect 13 1 1 0;
#X connect 14 0 2 1;
#X connect 15 0 2 1;
#X restore 33 377 pd filter dollar ones;
#X obj 327 317 u_list2symbol;
#X obj 364 429 t b b a;
#X obj 294 424 t b a;
#X obj 19 41 route savefile loadfile setfile;
#X connect 1 0 41 0;
#X connect 2 0 9 0;
#X connect 3 0 7 0;
#X connect 4 0 3 1;
#X connect 5 0 3 1;
#X connect 6 0 45 0;
#X connect 7 0 8 0;
#X connect 8 0 9 0;
#X connect 9 0 16 0;
#X connect 9 1 10 1;
#X connect 9 1 40 0;
#X connect 10 0 9 0;
#X connect 11 0 9 0;
#X connect 12 0 9 0;
#X connect 13 0 18 0;
#X connect 14 0 32 0;
#X connect 14 1 5 0;
#X connect 14 2 39 0;
#X connect 14 3 4 0;
#X connect 14 4 28 0;
#X connect 15 0 14 0;
#X connect 15 1 36 0;
#X connect 17 0 20 0;
#X connect 17 1 37 0;
#X connect 18 0 24 0;
#X connect 18 1 25 0;
#X connect 19 0 18 1;
#X connect 20 0 13 0;
#X connect 20 1 21 0;
#X connect 21 0 18 1;
#X connect 22 0 14 0;
#X connect 22 2 15 0;
#X connect 23 0 20 0;
#X connect 23 2 17 0;
#X connect 24 0 44 0;
#X connect 25 0 43 0;
#X connect 26 0 42 0;
#X connect 31 0 35 0;
#X connect 32 1 13 0;
#X connect 32 2 19 0;
#X connect 33 2 35 0;
#X connect 35 0 27 0;
#X connect 38 0 35 0;
#X connect 39 0 0 0;
#X connect 41 0 3 0;
#X connect 42 0 13 1;
#X connect 43 0 2 0;
#X connect 43 1 10 0;
#X connect 43 2 11 0;
#X connect 44 0 2 0;
#X connect 44 1 12 0;
#X connect 45 0 22 0;
#X connect 45 1 23 0;
#X connect 45 3 33 0;
#X restore 103 91 pd textfile;
#X obj 28 122 outlet state out to msgbox;
#X obj 201 122 outlet done;
#N canvas 172 83 586 377 LICENSE-GPL 0;
#X text 57 88 This program is free software: you can redistribute it
and/or modify it under the terms of the GNU General Public License
as published by the Free Software Foundation \, either version 3 of
the License \, or (at your option) any later version.;
#X text 58 168 This program is distributed in the hope that it will
be useful \, but WITHOUT ANY WARRANTY \; without even the implied warranty
of MERCHANTABILITY or FITNESS FOR A PARTICULAR PURPOSE. See the GNU
General Public License for more details.;
#X text 57 261 You should have received a copy of the GNU General Public
License along with this program. If not \, see <http://www.gnu.org/licenses/>.
;
#X text 60 325 See the file LICENSE.txt for the full license text.
;
#X text 56 54 Copyright (C) 2013 \, Dan Wilcox <danomatika@gmail.com>
;
#X restore 182 25 pd LICENSE-GPL;
#X obj 201 91 r \$0-done;
#X connect 0 0 1 0;
#X connect 1 0 3 0;
#X connect 1 1 2 0;
#X connect 6 0 4 0;
