#N canvas 152 272 475 451 10;
#X obj 30 45 list fromsymbol;
#X obj 30 113 moses 48;
#X obj 75 135 moses 58;
#X obj 75 207 - 48;
#X obj 75 229 t f b;
#X obj 102 251 f;
#X obj 102 273 * 10;
#X obj 75 290 +;
#X obj 75 312 t f f;
#X msg 117 229 0;
#X obj 60 334 f;
#X obj 30 23 inlet;
#X obj 60 406 outlet;
#X obj 225 242 f;
#X obj 255 242 + 1;
#X obj 225 264 swap 10;
#X obj 225 286 pow;
#X obj 60 384 /;
#X obj 30 135 sel 46;
#X msg 240 219 1;
#X msg 75 360 1;
#X obj 99 113 spigot;
#X obj 30 67 t l b b;
#X msg 132 84 0;
#X obj 75 177 t f b b;
#X msg 143 113 1;
#X obj 225 194 spigot;
#X msg 273 195 1;
#X msg 258 161 0;
#X obj 140 144 t b b b b;
#X obj 30 91 u_listdrip;
#X text 124 383 by Cyrille Henry on the pd-list July 2015;
#X text 124 406 updated for decimal points by Alexandros Drymonitis
;
#X connect 0 0 22 0;
#X connect 1 0 18 0;
#X connect 1 1 2 0;
#X connect 2 0 24 0;
#X connect 3 0 4 0;
#X connect 4 0 7 0;
#X connect 4 1 5 0;
#X connect 5 0 6 0;
#X connect 6 0 7 1;
#X connect 7 0 8 0;
#X connect 8 0 10 1;
#X connect 8 1 5 1;
#X connect 9 0 5 1;
#X connect 10 0 17 0;
#X connect 11 0 0 0;
#X connect 13 0 14 0;
#X connect 13 0 15 0;
#X connect 14 0 13 1;
#X connect 15 0 16 0;
#X connect 15 1 16 1;
#X connect 16 0 17 1;
#X connect 17 0 12 0;
#X connect 18 0 27 0;
#X connect 19 0 13 1;
#X connect 20 0 17 1;
#X connect 21 0 10 0;
#X connect 22 0 30 0;
#X connect 22 1 29 0;
#X connect 22 2 23 0;
#X connect 23 0 21 1;
#X connect 24 0 3 0;
#X connect 24 1 25 0;
#X connect 24 2 26 0;
#X connect 25 0 21 1;
#X connect 26 0 13 0;
#X connect 27 0 26 1;
#X connect 28 0 26 1;
#X connect 29 0 9 0;
#X connect 29 1 20 0;
#X connect 29 2 19 0;
#X connect 29 3 28 0;
#X connect 30 0 1 0;
#X connect 30 1 21 0;
