#N canvas 537 186 446 263 10;
#X obj 230 226 outlet;
#X obj 38 32 inlet;
#X obj 253 181 t a;
#X obj 230 152 symbol;
#X obj 230 122 loadbang;
#X obj 173 181 select SYM;
#X text 283 154 start with empty symbol;
#X text 284 182 pass \, then set;
#X obj 173 92 symbol;
#X text 225 92 convert to a symbol;
#X obj 38 63 route float list symbol;
#X obj 38 229 print u_symbolchange;
#X msg 38 202 ignoring nonsymbol \$1;
#X text 326 29 Dan Wilcox 2015;
#X connect 1 0 10 0;
#X connect 2 0 5 1;
#X connect 3 0 5 1;
#X connect 4 0 3 0;
#X connect 5 1 0 0;
#X connect 5 1 2 0;
#X connect 8 0 5 0;
#X connect 10 0 12 0;
#X connect 10 1 12 0;
#X connect 10 2 5 0;
#X connect 10 3 8 0;
#X connect 12 0 11 0;
