#N canvas 155 218 962 523 10;
#N canvas 47 43 582 570 REFERENCE 0;
#X text 24 136 Inlet 0: symbol to convert;
#X text 24 193 Outlet 0: converted symbol as a list;
#X text 24 31 Name: [u_symbol2list];
#X text 24 51 Summary: convert an incoming symbol into a list \, companion
to [u_list2symbol];
#X text 24 156 Inlet 1: <symbol> delimiter char as a symbol \, <float>
delimiter as an ascii char value;
#X text 24 94 Argument 0: <symbol> optional delimiter char \, default
is a space;
#X text 24 234 Description: This is essentially a pd-vanilla version
of [symbol2list] in the zexy external. Currently \, the only difference
is that multiple char delimiters are not supported.;
#X text 24 334 See also: [u_list2symbol] [list] [u_listdrip] [u_lister]
;
#X text 24 434 Tags: Lists \, Utilities;
#X coords 0 -1 1 1 450 450 1 10 10;
#X restore 5 48 pd REFERENCE;
#X obj 5 18 cnv 15 450 20 empty empty empty 20 12 0 14 -261234 -66577
0;
#X text 468 51 Example:;
#X symbolatom 483 460 22 0 0 0 - - -, f 22;
#X symbolatom 570 347 10 0 0 0 - - -, f 10;
#X symbolatom 514 443 16 0 0 0 - - -, f 16;
#X symbolatom 545 426 10 0 0 0 - - -, f 10;
#X msg 483 80 symbol a_dash_separated_list;
#X msg 627 307 symbol -;
#X obj 530 188 t b s;
#X obj 483 391 unpack s s s s;
#X symbolatom 576 410 10 0 0 0 - - -, f 10;
#X msg 502 105 symbol what_is-the_de-limiter_i-ask-(_i) ?;
#X text 597 218 using a zero-symbol as delimiter will break the symbol
up into its characters.;
#X msg 589 255 symbol;
#X obj 589 274 t b s;
#X text 644 347 delimiter;
#X text 554 135 banging the object will re-parse the list-symbol;
#X msg 520 134 bang;
#X msg 530 168 symbol i;
#X text 129 21 - convert a symbol into a list;
#X text 495 488 rc-patches (https://github.com/danomatika/rc-patches)
- 2014;
#X text 597 165 by default \, list-elements are separated by spaces.
You can set the separator to any char either with an argument or by
setting the second inlet;
#X obj 8 20 u_symbol2list;
#X obj 483 371 u_symbol2list _;
#X msg 733 347 97;
#X text 730 321 delimiter as an ascii char value;
#X text 764 349 'a';
#X connect 4 0 24 1;
#X connect 7 0 24 0;
#X connect 8 0 4 0;
#X connect 9 0 24 0;
#X connect 9 1 4 0;
#X connect 10 0 3 0;
#X connect 10 1 5 0;
#X connect 10 2 6 0;
#X connect 10 3 11 0;
#X connect 12 0 24 0;
#X connect 14 0 15 0;
#X connect 15 0 24 0;
#X connect 15 1 4 0;
#X connect 18 0 24 0;
#X connect 19 0 9 0;
#X connect 24 0 10 0;
#X connect 25 0 24 1;
