#N canvas 222 46 339 366 10;
#X msg 40 68 one;
#X msg 82 68 two;
#X msg 123 68 three;
#X symbolatom 40 293 10 0 0 0 - - -, f 10;
#X obj 40 259 u_symbolchange;
#X text 18 14 u_symbolchange: like [change] but for symbols;
#X obj 40 103 symbol;
#X msg 81 136 four;
#X msg 125 136 five;
#X msg 130 210 list one two three;
#X msg 122 181 1;
#X text 160 181 ignores floats & lists;
#X text 173 69 compares symbols;
#X text 166 136 converts to symbol;
#X obj 40 324 print;
#X connect 0 0 6 0;
#X connect 1 0 6 0;
#X connect 2 0 6 0;
#X connect 3 0 14 0;
#X connect 4 0 3 0;
#X connect 6 0 4 0;
#X connect 7 0 4 0;
#X connect 8 0 4 0;
#X connect 9 0 4 0;
#X connect 10 0 4 0;
