#N canvas 577 77 395 409 10;
#X obj 35 41 inlet;
#X msg 35 260 set \$1;
#X obj 35 106 symbol;
#N canvas 172 83 586 377 LICENSE-GPL 0;
#X text 57 88 This program is free software: you can redistribute it
and/or modify it under the terms of the GNU General Public License
as published by the Free Software Foundation \, either version 3 of
the License \, or (at your option) any later version.;
#X text 58 168 This program is distributed in the hope that it will
be useful \, but WITHOUT ANY WARRANTY \; without even the implied warranty
of MERCHANTABILITY or FITNESS FOR A PARTICULAR PURPOSE. See the GNU
General Public License for more details.;
#X text 57 261 You should have received a copy of the GNU General Public
License along with this program. If not \, see <http://www.gnu.org/licenses/>.
;
#X text 60 325 See the file LICENSE.txt for the full license text.
;
#X text 56 54 Copyright (C) 2013 \, Dan Wilcox <danomatika@gmail.com>
;
#X restore 258 101 pd LICENSE-GPL;
#X obj 118 381 outlet;
#X text 229 41 based on : zexy [tabdump];
#X obj 118 226 until;
#X obj 118 261 f;
#X obj 150 260 + 1;
#X obj 118 354 spigot;
#X obj 49 199 t b b;
#X msg 76 227 1;
#X msg 217 291 bang;
#X obj 217 325 list;
#X obj 35 69 route set bang;
#X obj 118 197 f;
#X obj 118 324 list prepend;
#X msg 217 198 0;
#X obj 118 290 tabread \$1;
#N canvas 177 160 195 196 arg1 0;
#X obj 109 139 outlet;
#X obj 34 21 loadbang;
#X obj 34 49 t b b;
#X obj 34 75 symbol \$1;
#X obj 109 74 symbol;
#X obj 34 103 select symbol;
#X connect 1 0 2 0;
#X connect 2 0 3 0;
#X connect 2 1 4 0;
#X connect 3 0 5 0;
#X connect 4 0 5 1;
#X connect 5 1 0 0;
#X restore 186 120 pd arg1;
#X obj 35 134 t a a;
#X obj 135 170 expr size("$s1");
#X text 23 9 usage: c_tabdump <table name>;
#X obj 101 103 t b b b b;
#X obj 135 146 symbol \$1;
#X connect 0 0 14 0;
#X connect 1 0 18 0;
#X connect 2 0 20 0;
#X connect 6 0 7 0;
#X connect 7 0 8 0;
#X connect 7 0 18 0;
#X connect 8 0 7 1;
#X connect 9 0 4 0;
#X connect 10 0 16 0;
#X connect 10 1 11 0;
#X connect 11 0 9 1;
#X connect 12 0 13 0;
#X connect 13 0 16 1;
#X connect 14 0 2 0;
#X connect 14 1 23 0;
#X connect 15 0 6 0;
#X connect 16 0 9 0;
#X connect 16 0 13 0;
#X connect 17 0 12 0;
#X connect 17 0 9 1;
#X connect 17 0 7 1;
#X connect 18 0 16 0;
#X connect 19 0 24 1;
#X connect 20 0 1 0;
#X connect 20 1 24 1;
#X connect 21 0 15 1;
#X connect 23 0 10 0;
#X connect 23 1 15 0;
#X connect 23 2 24 0;
#X connect 23 3 17 0;
#X connect 24 0 21 0;
