#N canvas 154 76 389 708 10;
#X obj 30 110 inlet~;
#X obj 108 433 spigot;
#X msg 174 297 0;
#X msg 182 216 1;
#X msg 248 95 bang;
#X obj 108 381 mavg 5;
#X obj 91 251 rc-count 5;
#X obj 113 523 + 8;
#X obj 52 187 env~ 2048;
#X msg 123 589 1;
#X msg 86 588 0;
#X obj 29 633 rc-spigot~;
#X obj 30 671 outlet~;
#X obj 86 556 moses;
#X obj 248 44 inlet;
#X obj 248 67 route calibrate;
#X obj 5 21 bng 15 250 50 0 empty empty calibrate 20 8 0 10 -191407
-1 -1;
#X obj 314 197 loadbang;
#X obj 314 225 f \$1;
#X obj 314 251 sel 0;
#X obj 229 198 loadbang;
#X obj 229 224 delay 500;
#X msg 229 250 1;
#X obj 230 316 spigot;
#X msg 341 277 0;
#X msg 314 276 1;
#X obj 52 216 t f f b;
#X connect 0 0 8 0;
#X connect 0 0 11 0;
#X connect 1 0 7 0;
#X connect 2 0 1 1;
#X connect 3 0 1 1;
#X connect 4 0 16 0;
#X connect 5 0 1 0;
#X connect 6 1 2 0;
#X connect 7 0 13 1;
#X connect 8 0 26 0;
#X connect 9 0 11 1;
#X connect 10 0 11 1;
#X connect 11 0 12 0;
#X connect 13 0 10 0;
#X connect 13 1 9 0;
#X connect 14 0 15 0;
#X connect 15 0 4 0;
#X connect 16 0 3 0;
#X connect 17 0 18 0;
#X connect 18 0 19 0;
#X connect 19 0 25 0;
#X connect 19 1 24 0;
#X connect 19 1 7 0;
#X connect 20 0 21 0;
#X connect 21 0 22 0;
#X connect 22 0 23 0;
#X connect 23 0 1 1;
#X connect 24 0 23 1;
#X connect 25 0 23 1;
#X connect 26 0 13 0;
#X connect 26 1 5 0;
#X connect 26 2 6 0;
#X coords 0 0 1 1 80 40 0;
