#N canvas 832 347 521 459 10;
#X obj 32 110 inlet~;
#X floatatom 33 189 5 0 0 0 - - -;
#X obj 36 402 hsl 128 15 0 100 0 0 empty empty empty -2 -8 0 10 -262144
-1 -1 1949 1;
#X floatatom 59 326 5 0 0 0 - - -;
#X obj 62 353 spigot;
#X obj 198 297 tgl 15 0 empty empty empty 17 7 0 10 -262144 -1 -1 0
1;
#X floatatom 178 387 5 0 0 0 - - -;
#X msg 165 283 0;
#X msg 91 226 bang;
#X msg 182 216 1;
#X msg 175 78 bang;
#X obj 60 300 mavg 5;
#X obj 91 251 rc-count 5;
#X obj 126 379 + 8;
#X obj 33 161 env~ 2048;
#X msg 356 194 1;
#X msg 319 193 0;
#X obj 324 267 rc-spigot~;
#X obj 325 305 outlet~;
#X obj 325 161 moses;
#X obj 175 27 inlet;
#X obj 175 50 route calibrate;
#X obj 5 21 bng 15 250 50 0 empty empty calibrate 20 8 0 10 -191407
-1 -1;
#X obj 288 350 loadbang;
#X obj 269 375 f \$1;
#X obj 268 398 sel 0;
#X obj 311 44 loadbang;
#X obj 311 70 delay 500;
#X msg 256 123 1;
#X obj 215 318 spigot;
#X msg 305 426 0;
#X msg 271 420 1;
#X connect 0 0 14 0;
#X connect 0 0 17 0;
#X connect 1 0 2 0;
#X connect 1 0 8 0;
#X connect 1 0 11 0;
#X connect 1 0 19 0;
#X connect 3 0 4 0;
#X connect 4 0 13 0;
#X connect 5 0 4 1;
#X connect 6 0 19 1;
#X connect 7 0 5 0;
#X connect 8 0 12 0;
#X connect 9 0 4 1;
#X connect 10 0 22 0;
#X connect 11 0 3 0;
#X connect 12 1 7 0;
#X connect 13 0 6 0;
#X connect 14 0 1 0;
#X connect 15 0 17 1;
#X connect 16 0 17 1;
#X connect 17 0 18 0;
#X connect 19 0 16 0;
#X connect 19 1 15 0;
#X connect 20 0 21 0;
#X connect 21 0 10 0;
#X connect 22 0 9 0;
#X connect 23 0 24 0;
#X connect 24 0 25 0;
#X connect 25 0 31 0;
#X connect 25 1 30 0;
#X connect 25 1 13 0;
#X connect 26 0 27 0;
#X connect 27 0 28 0;
#X connect 28 0 29 0;
#X connect 29 0 4 1;
#X connect 30 0 29 1;
#X connect 31 0 29 1;
#X coords 0 -1 1 1 80 40 1 0 0;
