#N canvas 236 351 367 321 10;
#X obj 56 170 rc-fmbass~_;
#X obj 56 16 inlet note;
#X obj 56 209 rc-dist~_;
#X obj 57 249 *~ 1;
#X obj 142 17 inlet vel control;
#X obj 57 283 outlet~;
#X obj 142 46 route float preset;
#X obj 149 102 route dist amp;
#N canvas 484 278 536 453 presets 0;
#X obj 32 386 outlet;
#X obj 32 8 inlet;
#X obj 140 7 loadbang;
#X obj 140 62 list-onearg \$1;
#X obj 140 85 unsymbol;
#X obj 140 31 t b b;
#X msg 101 7 bang;
#X text 235 19 preset name as creation arg;
#X msg 241 61 symbol short;
#X msg 129 286 dist 0.133 \, amp 1 \, mod1 0.732 \, mod2 0.858 \, a
0.33 \, d 0.181 \, s 0.244 \, r 0.338;
#X msg 32 180 dist 0 \, amp 1 \, mod1 0.446 \, mod2 0.142 \, a 0.102
\, d 0.37 \, s 0.291 \, r 0.629;
#X msg 168 332 dist 1 \, amp 0.222 \, mod1 0.37 \, mod2 0.566 \, a
0.086 \, d 0.22 \, s 0.228 \, r 0.771;
#X obj 32 122 route short buzz wub satan long;
#X msg 130 382 dist 0 \, amp 1 \, mod1 0.446 \, mod2 0.142 \, a 0.102
\, d 0.5 \, s 0.291 \, r 0.629;
#X msg 81 235 dist 0.3 \, amp 0.9 \, mod1 0.446 \, mod2 0.142 \, a
0.102 \, d 0.37 \, s 0.291 \, r 0.629;
#X connect 1 0 12 0;
#X connect 2 0 5 0;
#X connect 3 0 4 0;
#X connect 4 0 12 0;
#X connect 5 0 3 0;
#X connect 5 1 8 0;
#X connect 6 0 5 0;
#X connect 8 0 4 0;
#X connect 9 0 0 0;
#X connect 10 0 0 0;
#X connect 11 0 0 0;
#X connect 12 0 10 0;
#X connect 12 1 14 0;
#X connect 12 2 9 0;
#X connect 12 3 11 0;
#X connect 12 4 13 0;
#X connect 13 0 0 0;
#X connect 14 0 0 0;
#X restore 263 77 pd presets;
#X connect 0 0 2 0;
#X connect 1 0 0 0;
#X connect 2 0 3 0;
#X connect 3 0 5 0;
#X connect 4 0 6 0;
#X connect 6 0 0 1;
#X connect 6 1 8 0;
#X connect 6 2 7 0;
#X connect 7 0 2 1;
#X connect 7 1 3 1;
#X connect 7 2 0 0;
#X connect 8 0 7 0;
