#N canvas 0 0 450 300 10;
#X obj 97 102 metro;
#X obj 8 18 tgl 15 0 empty empty play 20 8 0 10 -262144 -1 -1 0 1;
#X obj 45 79 sel 0;
#X msg 45 101 reset;
#X text 120 44 play pattern (run s-metro to set metro speed);
#X obj 45 146 outlet;
#X obj 129 77 r \$1/ticklength;
#X connect 0 0 5 0;
#X connect 1 0 0 0;
#X connect 1 0 2 0;
#X connect 2 0 3 0;
#X connect 3 0 5 0;
#X connect 6 0 0 1;
#X coords 0 -1 1 1 85 40 1 0 0;
