#N canvas 0 0 591 298 10;
#X obj 266 53 inlet midi stream;
#X obj 190 235 outlet note;
#X obj 311 235 outlet vel;
#X obj 27 120 rc-notein 1;
#X obj 111 121 rc-notein 2;
#X obj 190 123 rc-notein 3;
#X obj 266 123 rc-notein 4;
#X obj 349 126 rc-notein 5;
#X obj 434 125 rc-notein 6;
#X connect 0 0 3 0;
#X connect 0 0 4 0;
#X connect 0 0 5 0;
#X connect 0 0 6 0;
#X connect 0 0 7 0;
#X connect 0 0 8 0;
#X connect 3 0 1 0;
#X connect 3 1 2 0;
#X connect 4 0 1 0;
#X connect 4 1 2 0;
#X connect 5 0 1 0;
#X connect 5 1 2 0;
#X connect 6 0 1 0;
#X connect 6 1 2 0;
#X connect 7 0 1 0;
#X connect 7 1 2 0;
#X connect 8 0 1 0;
#X connect 8 1 2 0;
