#N canvas 582 116 322 502 10;
#X obj 34 24 inlet~;
#X obj 34 474 outlet~;
#X obj 155 25 inlet control;
#N canvas 916 395 663 494 presets 0;
#X obj 38 446 outlet;
#X obj 38 -16 inlet;
#X obj 146 -17 loadbang;
#X obj 146 38 list-onearg \$1;
#X obj 146 61 unsymbol;
#X obj 146 7 t b b;
#X msg 107 -17 bang;
#X text 241 -5 preset name as creation arg;
#X msg 38 206 delay 100 \, depth 0.3 \, dist 0 \, amp 1;
#X msg 163 308 delay 0 \, depth 0.5 \, dist 0 \, amp 1;
#X msg 247 37 symbol thick;
#X obj 38 104 route short thick space off solo dry;
#X msg 203 348 delay 200 \, depth 0.5 \, dist 0.3 \, amp 0.6;
#X obj 251 165 print delayomatic;
#X msg 83 241 delay 200 \, depth 0.5 \, dist 0 \, amp 0.9;
#X msg 129 273 delay 400 \, depth 0.65 \, dist 0 \, amp 0.9;
#X msg 251 135 unknown preset:;
#X msg 227 382 delay 0 \, depth 0.3 \, dist 0.3 \, amp 0.5;
#X connect 1 0 11 0;
#X connect 2 0 5 0;
#X connect 3 0 4 0;
#X connect 4 0 11 0;
#X connect 5 0 3 0;
#X connect 5 1 10 0;
#X connect 6 0 5 0;
#X connect 8 0 0 0;
#X connect 9 0 0 0;
#X connect 10 0 4 0;
#X connect 11 0 8 0;
#X connect 11 1 14 0;
#X connect 11 2 15 0;
#X connect 11 3 9 0;
#X connect 11 4 12 0;
#X connect 11 5 17 0;
#X connect 11 6 16 0;
#X connect 12 0 0 0;
#X connect 14 0 0 0;
#X connect 15 0 0 0;
#X connect 16 0 13 0;
#X connect 17 0 0 0;
#X restore 240 102 pd presets;
#X obj 155 62 route preset;
#X obj 34 331 +~;
#X obj 68 269 delread~ \$0-d2 200;
#X obj 195 471 outlet~;
#X obj 127 405 rc-pan~_ 0.7;
#X obj 35 405 rc-pan~_ 0.3;
#X msg 167 237 200;
#X msg 133 237 100;
#X obj 35 54 rc-guitar_filt~;
#X obj 199 272 * 0.5;
#X obj 67 298 *~ 0.5;
#X obj 35 208 *~ 1;
#X obj 115 131 route dist amp delay depth;
#X obj 120 364 delwrite~ \$0-d2 1000;
#X obj 35 365 *~ 4;
#X obj 36 163 rc-dist~_ 0;
#X connect 0 0 12 0;
#X connect 2 0 4 0;
#X connect 3 0 16 0;
#X connect 4 0 3 0;
#X connect 4 1 16 0;
#X connect 5 0 17 0;
#X connect 5 0 18 0;
#X connect 6 0 14 0;
#X connect 8 0 1 0;
#X connect 8 1 7 0;
#X connect 9 0 1 0;
#X connect 9 1 7 0;
#X connect 10 0 6 0;
#X connect 11 0 6 0;
#X connect 12 0 19 0;
#X connect 13 0 14 1;
#X connect 14 0 8 0;
#X connect 14 0 5 1;
#X connect 15 0 5 0;
#X connect 16 0 19 1;
#X connect 16 1 15 1;
#X connect 16 2 6 0;
#X connect 16 3 13 0;
#X connect 18 0 9 0;
#X connect 19 0 15 0;
