#N canvas 506 384 358 338 10;
#X obj 57 27 inlet~;
#X obj 58 294 outlet~;
#X obj 121 294 outlet~;
#X obj 178 28 inlet control;
#X obj 57 63 rc-guitar_filt~;
#X obj 57 159 rc-dist~_ 0.46;
#X obj 58 202 *~ 0.46;
#N canvas 872 120 713 742 presets 0;
#X obj 38 678 outlet;
#X msg 38 206 reverb 0.62 \, echo 0.26 \, wet 0.42 \, dry 0.85 \, reverbpan
0.13 \, echopan 0.95 \, dist 0.46 \, amp 0.46;
#X obj 38 -16 inlet;
#X obj 146 -17 loadbang;
#X msg 155 368 wet 0 \, dry 1 \, dist 0.46 \, amp 0.9;
#X obj 146 38 list-onearg \$1;
#X obj 146 61 unsymbol;
#X obj 146 7 t b b;
#X msg 247 37 symbol lush;
#X msg 107 -17 bang;
#X text 241 -5 preset name as creation arg;
#X msg 135 312 reverb 0.89 \, echo 0.37 \, wet 0.5 \, dry 1 \, reverbpan
0.23 \, echopan 0.56 \, dist 0.46 \, amp 0.35;
#X msg 87 261 reverb 0.2 \, echo 0.23 \, wet 0.17 \, dry 0.82 \, reverbpan
0.23 \, echopan 0.56 \, dist 0.48 \, amp 0.8;
#X msg 183 410 wet 0 \, dry 1 \, dist 0 \, amp 1.75;
#X msg 271 442 reverb 0.29 \, echo 0.3 \, wet 0.47 \, dry 0.9 \, reverbpan
0.73 \, echopan 0.13 \, dist 0 \, amp 1;
#X msg 302 493 reverb 0.82 \, echo 0.5 \, wet 0.43 \, dry 1 \, reverbpan
0.17 \, echopan 0.81 \, dist 0 \, amp 1;
#X msg 333 536 reverb 0.21 \, echo 0.79 \, wet 0.49 \, dry 0.85 \,
reverbpan 0 \, echopan 1 \, dist 0 \, amp 0.9;
#X msg 369 581 reverb 0.07 \, echo 0.3 \, wet 0.69 \, dry 1 \, reverbpan
0 \, echopan 1;
#X obj 38 104 route tinny short lush dry off full martian spacey spacelight
;
#X connect 1 0 0 0;
#X connect 2 0 18 0;
#X connect 3 0 7 0;
#X connect 4 0 0 0;
#X connect 5 0 6 0;
#X connect 6 0 18 0;
#X connect 7 0 5 0;
#X connect 7 1 8 0;
#X connect 8 0 6 0;
#X connect 9 0 7 0;
#X connect 11 0 0 0;
#X connect 12 0 0 0;
#X connect 13 0 0 0;
#X connect 14 0 0 0;
#X connect 15 0 0 0;
#X connect 16 0 0 0;
#X connect 17 0 0 0;
#X connect 18 0 1 0;
#X connect 18 1 12 0;
#X connect 18 2 11 0;
#X connect 18 3 4 0;
#X connect 18 4 13 0;
#X connect 18 5 14 0;
#X connect 18 6 15 0;
#X connect 18 7 16 0;
#X connect 18 8 17 0;
#X restore 263 105 pd presets;
#X obj 58 238 rc-reverb~_;
#X obj 138 134 route dist amp;
#X obj 178 65 route preset;
#X connect 0 0 4 0;
#X connect 3 0 10 0;
#X connect 4 0 5 0;
#X connect 5 0 6 0;
#X connect 6 0 8 0;
#X connect 7 0 9 0;
#X connect 8 0 1 0;
#X connect 8 1 2 0;
#X connect 9 0 5 1;
#X connect 9 1 6 1;
#X connect 9 2 8 1;
#X connect 10 0 7 0;
#X connect 10 1 9 0;
