#N canvas 835 119 450 300 10;
#X obj 90 49 inlet~;
#X obj 88 198 outlet~;
#X obj 89 88 hip~ 100;
#X obj 235 197 outlet~;
#X obj 90 121 lop~ 10000;
#X obj 89 153 rc-reverb~_ 0.7 0.49 0.89;
#X msg 236 125 reverb \$1;
#X obj 209 45 loadbang;
#X obj 209 71 \$1;
#X obj 209 96 sel 0;
#X connect 0 0 2 0;
#X connect 2 0 4 0;
#X connect 4 0 5 0;
#X connect 5 0 1 0;
#X connect 5 1 3 0;
#X connect 6 0 5 1;
#X connect 7 0 8 0;
#X connect 8 0 9 0;
#X connect 9 1 6 0;
