#N canvas 4 51 459 475 10;
#X obj 34 63 adc~ 1;
#X obj 34 266 rc-reverb~ /ach/gtrrev;
#X obj 33 196 rc-dist~ /ach/gtrdist;
#X obj 33 154 lop~ 15000;
#X obj 44 418 rc-throw2~ GUITAR;
#X obj 33 92 rc-autospigot~ 40;
#X obj 180 130 rc-guitar_rev~;
#X msg 246 61 preset tinny;
#X msg 298 95 preset short;
#X text 139 32 preset testbed;
#X connect 0 0 5 0;
#X connect 1 0 4 0;
#X connect 1 1 4 1;
#X connect 2 0 1 0;
#X connect 3 0 2 0;
#X connect 5 0 3 0;
#X connect 6 2 1 1;
#X connect 6 2 2 1;
#X connect 7 0 6 1;
#X connect 8 0 6 1;
