#N canvas 12 98 450 300 10;
#X obj 120 98 *~ 2;
#X obj 120 189 outlet~;
#X obj 120 55 inlet~;
#X obj 121 131 clip~ -1 1;
#X obj 120 159 *~ 0.5;
#X connect 0 0 3 0;
#X connect 2 0 0 0;
#X connect 3 0 4 0;
#X connect 4 0 1 0;
