#N canvas 0 0 450 300 10;
#X obj 43 188 outlet guitar;
#X obj 289 189 outlet vox;
#X obj 119 47 loadbang;
#X obj 7 20 bng 15 250 50 0 empty empty set 17 7 0 10 -191407 -1 -1
;
#X msg 190 96 gain 67.5;
#X msg 102 98 gain 52;
#X connect 2 0 5 0;
#X connect 2 0 4 0;
#X connect 3 0 5 0;
#X connect 3 0 4 0;
#X connect 4 0 1 0;
#X connect 5 0 0 0;
#X coords 0 -1 1 1 60 40 1 0 0;
