#N canvas 0 0 450 300 10;
#X obj 51 97 route 0 1;
#X obj 81 124 moses 1;
#X text 123 94 which score lines to listen to;
#X text 137 123 ignore 0's on lines above 0;
#X obj 51 156 change;
#X obj 51 184 outlet;
#X text 123 29 filter tracks 0 and 1 for drum pats;
#X obj 51 60 inlet;
#X connect 0 0 4 0;
#X connect 0 1 1 0;
#X connect 1 1 4 0;
#X connect 4 0 5 0;
#X connect 7 0 0 0;
