#N canvas 375 397 426 200 10;
#X obj 32 101 route start stop;
#X msg 32 132 1;
#X msg 78 133 0;
#X obj 32 162 s \$1/startstop;
#X obj 129 162 s \$1/reset;
#X obj 32 23 r UNIT_OSC;
#X obj 32 49 routeOSC /pd;
#X obj 32 75 routeOSC /transport;
#X msg 239 72 /pd/transport done;
#X obj 239 45 inlet;
#X obj 239 100 s UNIT_OSC;
#X connect 0 0 1 0;
#X connect 0 1 2 0;
#X connect 1 0 3 0;
#X connect 2 0 3 0;
#X connect 2 0 4 0;
#X connect 5 0 6 0;
#X connect 6 0 7 0;
#X connect 7 0 0 0;
#X connect 8 0 10 0;
#X connect 9 0 8 0;
#X connect 9 0 2 0;
