#N canvas 375 397 493 277 10;
#X obj 40 157 route start stop;
#X msg 40 188 1;
#X msg 86 189 0;
#X obj 40 218 s \$1/startstop;
#X obj 137 218 s \$1/reset;
#X obj 40 79 r UNIT_OSC;
#X obj 40 105 routeOSC /pd;
#X obj 40 131 routeOSC /transport;
#X msg 261 215 /pd/transport done;
#X obj 261 243 s UNIT_OSC;
#X msg 261 188 0;
#X text 309 131 stop playback at tick num;
#X text 325 52 current tick;
#X obj 261 159 delay 3000;
#X obj 261 130 sel \$2;
#X obj 261 55 r \$1/tick;
#X text 202 9 \$1 metro name \, \$2 tick to autostop;
#X obj 142 56 s \$1/pos;
#X obj 142 27 inlet;
#X floatatom 4 19 5 0 0 1 tick - -;
#X obj 4 40 bng 15 250 50 0 empty empty autostop 18 7 0 10 -203904
-1 -1;
#X obj 79 21 bng 15 250 50 0 empty empty start 17 7 0 10 -204786 -1
-1;
#X obj 79 41 bng 15 250 50 0 empty empty stop 17 7 0 10 -261234 -1
-1;
#X obj 17 242 outlet startstop;
#X obj 261 104 spigot;
#N canvas 0 0 450 300 autostop 0;
#X obj 134 74 \$2;
#X obj 134 35 loadbang;
#X obj 134 100 moses 1;
#X msg 134 132 0;
#X msg 173 134 1;
#X obj 147 170 outlet;
#X connect 0 0 2 0;
#X connect 1 0 0 0;
#X connect 2 0 3 0;
#X connect 2 1 4 0;
#X connect 3 0 5 0;
#X connect 4 0 5 0;
#X restore 294 80 pd autostop ticks;
#X connect 0 0 1 0;
#X connect 0 0 21 0;
#X connect 0 1 2 0;
#X connect 0 1 22 0;
#X connect 1 0 3 0;
#X connect 1 0 23 0;
#X connect 2 0 3 0;
#X connect 2 0 4 0;
#X connect 2 0 23 0;
#X connect 5 0 6 0;
#X connect 6 0 7 0;
#X connect 7 0 0 0;
#X connect 8 0 9 0;
#X connect 10 0 8 0;
#X connect 13 0 10 0;
#X connect 13 0 2 0;
#X connect 13 0 20 0;
#X connect 14 0 13 0;
#X connect 15 0 19 0;
#X connect 15 0 24 0;
#X connect 18 0 17 0;
#X connect 24 0 14 0;
#X connect 25 0 24 1;
#X coords 0 -1 1 1 125 60 1 0 0;
