#N canvas 8 76 450 355 10;
#X obj 187 43 inlet~;
#X obj 171 273 outlet~;
#X obj 189 138 compressor~ 1;
#X obj 190 171 rc-chorus~_ 0.31 0.5 0.5;
#X obj 170 209 +~;
#X obj 133 168 *~ 0.18;
#X obj 171 237 clip~ -1 1;
#X connect 0 0 2 0;
#X connect 2 0 3 0;
#X connect 2 0 5 0;
#X connect 3 0 4 1;
#X connect 4 0 6 0;
#X connect 5 0 4 0;
#X connect 6 0 1 0;
