#N canvas 999 202 332 384 10;
#X obj 38 230 +~;
#X obj 54 198 delread~ lala 100;
#X obj 53 166 delwrite~ lala 100;
#X obj 39 285 *~;
#X obj 55 258 osc~ 90;
#X text 110 257 ring modulation \, freq at 90Hz;
#X text 172 180 100 msec delay line;
#X obj 40 72 inlet~;
#X obj 40 346 outlet~;
#X text 16 16 robotcowboy voice effect;
#X text 138 131 distortion;
#X obj 40 316 lop~ 10000;
#X obj 39 131 rc-dist~_ 0.55;
#X connect 0 0 3 0;
#X connect 1 0 0 1;
#X connect 3 0 11 0;
#X connect 4 0 3 1;
#X connect 7 0 12 0;
#X connect 11 0 8 0;
#X connect 12 0 2 0;
#X connect 12 0 0 0;
