#N canvas 425 400 320 331 10;
#X obj 32 212 +~;
#X obj 34 39 inlet~;
#X obj 31 295 outlet~;
#X text 16 16 robotcowboy voice effect;
#N canvas 0 0 450 300 default 0;
#X obj 173 107 sel 0;
#X msg 173 133 0.5;
#X obj 200 180 outlet;
#X obj 173 81 f \$1;
#X obj 173 53 loadbang;
#X connect 0 0 1 0;
#X connect 0 1 2 0;
#X connect 1 0 2 0;
#X connect 3 0 0 0;
#X connect 4 0 3 0;
#X restore 108 77 pd default;
#X text 137 108 distortion;
#X obj 33 106 rc-dist~_ 0.5;
#X text 137 242 clip me;
#X text 176 159 20 msec delay line;
#X obj 62 196 *~ 0.5;
#X obj 33 77 hip~ 100;
#X obj 33 58 compressor~ 1;
#X obj 47 141 delwrite~ \$0-lala 100;
#X obj 47 173 delread~ \$0-lala 100;
#X obj 32 239 clip~ -0.6 0.6;
#X connect 0 0 14 0;
#X connect 1 0 11 0;
#X connect 4 0 6 1;
#X connect 6 0 0 0;
#X connect 6 0 12 0;
#X connect 9 0 0 1;
#X connect 10 0 6 0;
#X connect 11 0 10 0;
#X connect 13 0 9 0;
#X connect 14 0 2 0;
