#N canvas 91 285 320 331 10;
#X obj 32 242 +~;
#X obj 34 39 inlet~;
#X obj 31 295 outlet~;
#X text 16 16 robotcowboy voice effect;
#N canvas 4 48 450 300 default 0;
#X obj 173 107 sel 0;
#X msg 173 133 0.5;
#X obj 200 180 outlet;
#X obj 173 81 f \$1;
#X obj 173 53 loadbang;
#X connect 0 0 1 0;
#X connect 0 1 2 0;
#X connect 1 0 2 0;
#X connect 3 0 0 0;
#X connect 4 0 3 0;
#X restore 108 107 pd default;
#X text 137 138 distortion;
#X text 137 272 clip me;
#X text 176 159 20 msec delay line;
#X obj 33 107 hip~ 100;
#X obj 34 85 compressor~ 1;
#X obj 32 269 clip~ -0.6 0.6;
#X obj 34 62 *~ 2;
#X obj 33 136 rc-dist~_ 0.4;
#X obj 55 221 *~ 0.25;
#X obj 47 171 delwrite~ \$0-lala 100;
#X obj 55 199 delread~ \$0-lala 100;
#X connect 0 0 10 0;
#X connect 1 0 11 0;
#X connect 4 0 12 1;
#X connect 8 0 12 0;
#X connect 9 0 8 0;
#X connect 10 0 2 0;
#X connect 11 0 9 0;
#X connect 12 0 0 0;
#X connect 12 0 14 0;
#X connect 13 0 0 1;
#X connect 15 0 13 0;
