#N canvas 373 177 320 356 10;
#X obj 32 205 +~;
#X obj 34 47 inlet~;
#X obj 32 318 outlet~;
#X text 16 16 robotcowboy voice effect;
#X obj 32 288 lop~ 10000;
#X obj 32 265 hip~ 5;
#X obj 31 236 clip~ -1 1;
#X obj 47 141 delwrite~ \$0-lala 50;
#X obj 47 173 delread~ \$0-lala 50;
#X text 176 159 50 msec delay line;
#N canvas 0 0 450 300 default 0;
#X obj 173 107 sel 0;
#X msg 173 133 0.5;
#X obj 200 180 outlet;
#X obj 173 81 f \$1;
#X obj 173 53 loadbang;
#X connect 0 0 1 0;
#X connect 0 1 2 0;
#X connect 1 0 2 0;
#X connect 3 0 0 0;
#X connect 4 0 3 0;
#X restore 121 80 pd default;
#X text 137 108 distortion;
#X obj 33 106 rc-dist~_ 0.5;
#X text 125 236 clip me;
#X text 125 290 filter me;
#X connect 0 0 6 0;
#X connect 1 0 12 0;
#X connect 4 0 2 0;
#X connect 5 0 4 0;
#X connect 6 0 5 0;
#X connect 8 0 0 1;
#X connect 10 0 12 1;
#X connect 12 0 0 0;
#X connect 12 0 7 0;
