#N canvas 0 0 379 375 10;
#X obj 6 16 bng 15 250 50 0 empty empty connect 17 7 0 10 -204786 -1
-1;
#X obj 6 38 bng 15 250 50 0 empty empty disconnect 17 7 0 10 -261234
-1 -1;
#X obj 90 348 tgl 15 0 empty empty empty 0 -6 0 10 -262144 -1 -1 1
1;
#X obj 90 322 udpsend 7770;
#X msg 189 283 connect 127.0.0.1 7770;
#X obj 90 240 packOSC;
#X obj 90 269 prepend send;
#X msg 90 214 send /unitd/wiimote \$1;
#X obj 189 255 loadbang;
#X msg 12 111 1;
#X msg 43 80 0;
#X obj 120 60 inlet;
#X obj 120 87 route float;
#X obj 120 139 clip 0 1;
#X obj 120 113 int;
#X connect 0 0 9 0;
#X connect 1 0 10 0;
#X connect 3 0 2 0;
#X connect 4 0 3 0;
#X connect 5 0 6 0;
#X connect 6 0 3 0;
#X connect 7 0 5 0;
#X connect 8 0 4 0;
#X connect 9 0 7 0;
#X connect 10 0 7 0;
#X connect 11 0 12 0;
#X connect 12 0 14 0;
#X connect 13 0 7 0;
#X connect 14 0 13 0;
#X coords 0 -1 1 1 85 60 1 0 0;
