#N canvas 660 41 695 703 10;
#X obj 44 127 rc-bitcrusher~;
#X obj 44 263 rc-delay~;
#X obj 44 16 rc-dist~_;
#X obj 502 51 rc-filter~;
#X obj 503 141 rc-gain~;
#X obj 502 237 rc-pan~;
#X obj 45 392 rc-pshift~;
#X obj 503 339 rc-ringmod~;
#X obj 500 657 rc-aliaser~_;
#X text 114 15 distortion;
#X text 375 662 resampler/aliaser;
#X text 227 151 samphold;
#X text 148 235 delay;
#X text 213 423 pitch shifter;
#X text 355 72 low pass resonant filter;
#X text 436 149 amplitude;
#X text 399 255 square root pan;
#X text 399 372 ring modulation;
#X obj 44 237 rc-delay~_;
#X obj 45 45 rc-dist~;
#X obj 500 471 rc-chorus~;
#X obj 499 442 rc-chorus~_;
#X text 431 441 chorus;
#X obj 499 591 rc-compressor~;
#X text 418 590 compressor;
#X obj 502 14 rc-lp~_;
#X obj 501 202 rc-pan~_;
#X obj 47 549 rc-reverb~;
#X obj 48 519 rc-reverb~_;
#X text 136 519 grainy reverb;
#X obj 502 307 rc-ringmod~_;
