#N canvas 775 48 449 714 10;
#X obj 38 31 rc-count;
#X text 101 30 yet another counter;
#X obj 37 72 rc-lfo;
#X text 202 95 message-based low freq oscillator;
#X text 128 177 turns relative path filenames into absolute paths;
#X text 129 198 handles ../;
#X obj 40 244 rc-openclose;
#X text 130 243 open or close a patch automatically;
#X obj 40 327 rc-spigot~;
#X text 129 328 signal spigot;
#X obj 40 187 rc-filename;
#X obj 40 372 rc-dust;
#X text 130 371 random impulse generator;
#X obj 40 420 rc-jitter;
#X text 130 420 adds timing jitter to messages;
#X obj 41 469 rc-metro;
#X text 131 470 bpm metro;
#X obj 41 286 rc-pathtype;
#X text 129 287 determine if a path is relative or absolute;
#X obj 40 521 rc-playlist;
#X text 131 522 a patch playlist wrapper around cyclone/coll;
#X obj 41 595 rc-sssad;
#X text 130 567 simple state saving;
#X obj 120 673 rc-throw2~;
#X obj 41 673 rc-throw~;
#X text 193 673 stereo bus throws to \$1/left & \$1/right;
#X obj 40 568 rc-sssad_;
