#N canvas 228 405 524 429 10;
#X obj 23 364 outlet~;
#N canvas 0 22 447 432 state_saving 0;
#X text 10 9 sssad sends and recieves;
#X obj 193 41 r \$0-cutoff;
#X obj 70 64 sssad/sssad \$1/cutoff;
#X obj 70 89 s \$0-cutoff;
#X obj 245 99 r \$0-q;
#X obj 152 125 sssad/sssad \$1/q;
#X obj 152 147 s \$0-q;
#X obj 333 145 r \$0-mod;
#X obj 228 170 sssad/sssad \$1/mod;
#X obj 228 192 s \$0-mod;
#X obj 117 192 r \$0-a;
#X obj 24 217 sssad/sssad \$1/d;
#X obj 24 239 s \$0-d;
#X obj 188 244 r \$0-d;
#X obj 95 267 sssad/sssad \$1/d;
#X obj 94 289 s \$0-d;
#X obj 266 288 r \$0-s;
#X obj 173 314 sssad/sssad \$1/s;
#X obj 171 336 s \$0-s;
#X obj 366 332 r \$0-r;
#X obj 273 357 sssad/sssad \$1/r;
#X obj 273 379 s \$0-r;
#X connect 1 0 2 1;
#X connect 2 0 3 0;
#X connect 4 0 5 1;
#X connect 5 0 6 0;
#X connect 7 0 8 1;
#X connect 8 0 9 0;
#X connect 10 0 11 1;
#X connect 11 0 12 0;
#X connect 13 0 14 1;
#X connect 14 0 15 0;
#X connect 16 0 17 1;
#X connect 17 0 18 0;
#X connect 19 0 20 1;
#X connect 20 0 21 0;
#X restore 257 390 pd state_saving;
#X text 190 55 Creation args: name;
#X obj 1 16 cnv 15 128 136 empty empty empty 20 12 0 14 -228856 -66577
0;
#X obj 54 46 hsl 70 15 0 1 0 0 \$0-q \$0-q q 0 8 0 10 -191407 -1 -1
4450 1;
#X obj 6 47 nbx 4 14 0 1 0 1 \$0-q \$0-q empty -20 6 0 10 -261234 -1
-1 0.645 256;
#X obj 54 61 hsl 70 15 0 1 0 0 \$0-mod \$0-mod mod 0 8 0 10 -191407
-1 -1 6031 1;
#X obj 6 62 nbx 4 14 0 1 0 1 \$0-mod \$0-mod empty -20 6 0 10 -261234
-1 -1 0.874 256;
#X obj 54 31 hsl 70 15 0 1 0 0 \$0-cutoff \$0-cutoff cutoff 0 8 0 10
-191407 -1 -1 2988 1;
#X obj 6 32 nbx 4 14 0 1 0 1 \$0-cutoff \$0-cutoff empty -20 6 0 10
-261234 -1 -1 0.433 256;
#N canvas 0 22 450 300 defaults 0;
#X obj 157 254 outlet;
#X msg 272 128 a 0.07;
#X msg 257 187 s 0.259;
#X msg 247 219 r 0.598;
#X msg 81 186 cutoff 0.433;
#X msg 123 155 q 0.645;
#X msg 157 129 mod 0.874;
#X obj 157 70 t b;
#X obj 194 41 loadbang;
#X msg 271 157 d 0.253;
#X obj 148 29 inlet;
#X connect 1 0 0 0;
#X connect 2 0 0 0;
#X connect 3 0 0 0;
#X connect 4 0 0 0;
#X connect 5 0 0 0;
#X connect 6 0 0 0;
#X connect 7 0 4 0;
#X connect 7 0 5 0;
#X connect 7 0 6 0;
#X connect 7 0 1 0;
#X connect 7 0 9 0;
#X connect 7 0 2 0;
#X connect 7 0 3 0;
#X connect 8 0 7 0;
#X connect 9 0 0 0;
#X connect 10 0 7 0;
#X restore 294 178 pd defaults;
#X obj 53 105 hsl 70 15 0 1 0 0 \$0-d \$0-d d 0 8 0 10 -191407 -1 -1
1746 1;
#X obj 5 106 nbx 4 14 0 1 0 1 \$0-d \$0-d empty -20 6 0 10 -261234
-1 -1 0.253 256;
#X obj 53 120 hsl 70 15 0 1 0 0 \$0-s \$0-s s 0 8 0 10 -191407 -1 -1
1787 1;
#X obj 5 121 nbx 4 14 0 1 0 1 \$0-s \$0-s empty -20 6 0 10 -261234
-1 -1 0.259 256;
#X obj 53 90 hsl 70 15 0 1 0 0 \$0-a \$0-a a 0 8 0 10 -191407 -1 -1
483 1;
#X obj 5 91 nbx 4 14 0 1 0 1 \$0-a \$0-a empty -20 6 0 10 -261234 -1
-1 0.07 256;
#X obj 53 135 hsl 70 15 0 1 0 0 \$0-r \$0-r r 0 8 0 10 -191407 -1 -1
4126 1;
#X obj 5 136 nbx 4 14 0 1 0 1 \$0-r \$0-r empty -20 6 0 10 -261234
-1 -1 0.598 256;
#X text 2 16 filter;
#X text 1 75 envelope;
#X obj 23 331 rc-303~_;
#X obj 121 208 route float cutoff q mod a d s r reset;
#X obj 146 391 s \$0-cutoff;
#X obj 171 366 s \$0-q;
#X obj 196 337 s \$0-mod;
#X obj 221 311 s \$0-a;
#X obj 271 263 s \$0-s;
#X obj 296 238 s \$0-r;
#X obj 246 287 s \$0-d;
#X obj 121 176 inlet note control messages;
#X obj 402 178 inlet vel;
#N canvas 377 278 446 409 note 0;
#X obj 131 369 outlet;
#X obj 66 125 inlet;
#X msg 131 59 cutoff \$1;
#X msg 157 115 q \$1;
#X msg 179 175 mod \$1;
#X obj 179 151 r \$0-mod;
#X obj 157 90 r \$0-q;
#X obj 131 33 r \$0-cutoff;
#X obj 263 109 r \$0-a;
#X msg 263 133 a \$1;
#X obj 307 148 r \$0-d;
#X msg 307 174 d \$1;
#X obj 344 190 r \$0-s;
#X msg 344 214 s \$1;
#X obj 387 233 r \$0-r;
#X msg 387 258 r \$1;
#X connect 1 0 0 0;
#X connect 2 0 0 0;
#X connect 3 0 0 0;
#X connect 4 0 0 0;
#X connect 5 0 4 0;
#X connect 6 0 3 0;
#X connect 7 0 2 0;
#X connect 8 0 9 0;
#X connect 9 0 0 0;
#X connect 10 0 11 0;
#X connect 11 0 0 0;
#X connect 12 0 13 0;
#X connect 13 0 0 0;
#X connect 14 0 15 0;
#X connect 15 0 0 0;
#X restore 23 258 pd note control in;
#X obj 68 305 r \$0-vel;
#X obj 402 203 s \$0-vel;
#X text 172 19 a tr303 emulation with gui;
#X text 166 85 Dan Wilcox 2009;
#X text 166 121 adapted from a prerelease of d-303;
#X text 166 136 which is under GPL v3 which means this is GPL v3;
#X text 165 97 danomatika.com | robotcowboy.com;
#X text 378 313 damian@frey.co.nz;
#X text 378 298 damian stewart 2008;
#X text 381 344 GPL v3;
#X text 380 269 d-303;
#X connect 10 0 22 0;
#X connect 21 0 0 0;
#X connect 22 0 32 0;
#X connect 22 1 23 0;
#X connect 22 2 24 0;
#X connect 22 3 25 0;
#X connect 22 4 26 0;
#X connect 22 5 29 0;
#X connect 22 6 27 0;
#X connect 22 7 28 0;
#X connect 22 8 10 0;
#X connect 30 0 22 0;
#X connect 31 0 34 0;
#X connect 32 0 21 0;
#X connect 33 0 21 1;
#X coords 0 -1 1 1 130 155 1 0 0;
