#N canvas 223 57 349 335 10;
#X obj 41 271 *~;
#X msg 99 200 start;
#X msg 144 199 stop;
#X obj 41 307 outlet~;
#X obj 42 63 inlet;
#X obj 144 173 del 30;
#X obj 42 223 osc~ \$1;
#X obj 99 144 t b b;
#X text 13 11 super simple kick drum;
#X text 148 308 Dan Wilcox 2007;
#X text 48 32 Creation args: frequency;
#X obj 110 103 inlet;
#X text 100 60 bangs to play;
#X text 155 106 floats to change freq;
#X obj 99 237 creb/ear~ 10 20;
#X connect 0 0 3 0;
#X connect 1 0 14 0;
#X connect 2 0 14 0;
#X connect 4 0 7 0;
#X connect 5 0 2 0;
#X connect 6 0 0 0;
#X connect 7 0 1 0;
#X connect 7 1 5 0;
#X connect 11 0 6 0;
#X connect 14 0 0 1;
