#N canvas 423 214 377 462 10;
#X obj 25 52 inlet;
#X obj 206 179 inlet;
#X obj 25 435 outlet;
#X obj 25 242 f 0;
#X obj 80 245 + 1;
#X obj 206 228 f \$1;
#X msg 25 107 bang;
#X text 245 182 set new upper limit;
#X text 8 9 simple counter;
#X text 140 22 creation arg: upper limit;
#X obj 218 203 loadbang;
#X obj 80 435 outlet;
#X msg 80 413 bang;
#X text 125 423 bang on reset;
#X obj 80 289 >= 4;
#X obj 80 312 sel 1;
#X obj 143 291 < 0;
#X obj 143 314 sel 1;
#X obj 60 171 f 0;
#X msg 80 338 0;
#X obj 68 147 t b f;
#X obj 68 124 r \$0-resetnum;
#X obj 25 79 route bang reset up down;
#X obj 143 389 s \$0-resetnum;
#X obj 143 355 f 3;
#X obj 206 251 moses 1;
#X msg 115 163 1;
#X msg 149 164 -1;
#X obj 115 190 t b f;
#X text 68 51 bang to increase/decrease count;
#X obj 245 292 - 1;
#X connect 0 0 22 0;
#X connect 1 0 5 0;
#X connect 3 0 4 0;
#X connect 3 0 2 0;
#X connect 4 0 3 1;
#X connect 4 0 14 0;
#X connect 4 0 16 0;
#X connect 5 0 25 0;
#X connect 6 0 3 0;
#X connect 10 0 5 0;
#X connect 12 0 11 0;
#X connect 14 0 15 0;
#X connect 15 0 19 0;
#X connect 16 0 17 0;
#X connect 17 0 24 0;
#X connect 18 0 3 1;
#X connect 19 0 23 0;
#X connect 19 0 12 0;
#X connect 20 0 18 0;
#X connect 20 1 18 1;
#X connect 21 0 20 0;
#X connect 22 0 6 0;
#X connect 22 1 18 0;
#X connect 22 2 26 0;
#X connect 22 3 27 0;
#X connect 24 0 23 0;
#X connect 24 0 12 0;
#X connect 25 1 14 1;
#X connect 25 1 30 0;
#X connect 26 0 28 0;
#X connect 27 0 28 0;
#X connect 28 0 4 0;
#X connect 28 1 4 1;
#X connect 30 0 24 1;
