#N canvas 585 653 335 265 10;
#X declare -lib unauthorized;
#X obj 4 201 outlet~;
#N canvas 1075 461 459 426 mix 0;
#X obj 348 304 *~;
#X obj 79 306 *~;
#X obj 78 344 +~;
#X obj 348 65 inlet~;
#X obj 80 29 inlet~;
#X obj 77 375 outlet~;
#X obj 183 102 r \$0-onoff;
#X text 404 67 wet;
#X text 123 28 dry;
#X text 167 358 turn mix on and off;
#X text 169 375 turns dry to 1 when off;
#X obj 159 154 sel 0;
#X msg 159 189 1;
#X msg 191 189 0;
#X obj 244 153 sel 0;
#X msg 244 188 0;
#X msg 276 188 1;
#X connect 0 0 2 1;
#X connect 1 0 2 0;
#X connect 2 0 5 0;
#X connect 3 0 0 0;
#X connect 4 0 1 0;
#X connect 6 0 11 0;
#X connect 6 0 14 0;
#X connect 11 0 12 0;
#X connect 11 1 13 0;
#X connect 12 0 1 1;
#X connect 13 0 1 1;
#X connect 14 0 15 0;
#X connect 14 1 16 0;
#X connect 15 0 0 1;
#X connect 16 0 0 1;
#X restore 4 174 pd mix;
#N canvas 0 22 577 289 state_saving 0;
#X text 10 9 sssad sends and recieves;
#X obj 139 120 sssad/sssad \$1/onoff;
#X obj 256 95 r \$0-onoff;
#X obj 139 142 s \$0-onoff;
#X obj 181 41 r \$0-gain;
#X obj 70 64 sssad/sssad \$1/gain;
#X obj 70 89 s \$0-gain;
#X connect 1 0 3 0;
#X connect 2 0 1 1;
#X connect 4 0 5 1;
#X connect 5 0 6 0;
#X restore 227 236 pd state_saving;
#X obj 243 194 s \$0-onoff;
#X text 168 49 Creation args: name;
#X obj 1 16 cnv 15 143 21 empty empty empty 20 12 0 14 -228856 -66577
0;
#X obj 4 19 tgl 12 1 \$0-onoff \$0-onoff empty -6 -6 0 10 -191407 -1
-1 0 1;
#X obj 70 18 hsl 70 15 0 1 0 0 \$0-gain \$0-gain gain_ceiling 0 8 0
10 -191407 -1 -1 4965 1;
#X obj 21 19 nbx 4 14 0 1 0 1 \$0-gain \$0-gain empty -26 6 0 10 -261234
-1 -1 0.719565 256;
#X obj 3 52 import unauthorized;
#N canvas 407 307 450 300 guts 0;
#X obj 44 200 compressor~;
#X obj 44 106 inlet~;
#X obj 45 230 outlet~;
#X obj 185 232 switch~;
#X obj 185 203 r \$0-onoff;
#X obj 107 158 inlet;
#X connect 0 0 2 0;
#X connect 1 0 0 0;
#X connect 4 0 3 0;
#X connect 5 0 0 1;
#X restore 37 146 pd guts;
#X obj 170 194 s \$0-gain;
#X text 163 4 wrapper around compressor~;
#X text 165 16 by ydegoyon.free.fr;
#X text 2 224 2009 Dan Wilcox;
#X text 1 239 danomatika.com | robotcowboy.com;
#X obj 76 123 r \$0-gain;
#X obj 4 87 inlet~ audio;
#X obj 170 84 inlet control messages;
#N canvas 0 22 450 300 defaults 0;
#X obj 120 158 outlet;
#X obj 123 74 loadbang;
#X msg 113 118 gain 0;
#X msg 178 120 onoff 0;
#X connect 1 0 2 0;
#X connect 1 0 3 0;
#X connect 2 0 0 0;
#X connect 3 0 0 0;
#X restore 208 107 pd defaults;
#X obj 170 165 clip 0 1;
#X obj 170 132 route float onoff;
#X connect 1 0 0 0;
#X connect 10 0 1 1;
#X connect 16 0 10 1;
#X connect 17 0 1 0;
#X connect 17 0 10 0;
#X connect 18 0 21 0;
#X connect 19 0 21 0;
#X connect 20 0 11 0;
#X connect 21 0 20 0;
#X connect 21 1 3 0;
#X coords 0 -1 1 1 145 40 1 0 0;
