#N canvas 555 372 549 548 10;
#N canvas 862 359 340 446 fm 0;
#X obj 58 104 osc~;
#X obj 59 149 *~;
#X obj 59 227 *~;
#X obj 59 268 +~;
#X obj 59 300 osc~;
#X obj 60 340 +~;
#X obj 168 105 osc~;
#X obj 168 152 *~;
#X obj 169 227 *~;
#X obj 170 265 +~;
#X obj 170 301 osc~;
#X obj 60 414 outlet~;
#X obj 194 49 inlet~ envelope;
#X text -3 99 mod freq;
#X text -10 225 mod index;
#X text -23 266 carrer freq;
#X obj 74 194 r \$0-mod1;
#X obj 184 193 r \$0-mod2;
#X obj 98 16 inlet note;
#X obj 98 47 mtof;
#X obj 61 374 *~ 0.5;
#X connect 0 0 1 0;
#X connect 1 0 2 0;
#X connect 2 0 3 0;
#X connect 3 0 4 0;
#X connect 4 0 5 0;
#X connect 5 0 20 0;
#X connect 6 0 7 0;
#X connect 7 0 8 0;
#X connect 8 0 9 0;
#X connect 9 0 10 0;
#X connect 10 0 5 1;
#X connect 12 0 1 1;
#X connect 12 0 7 1;
#X connect 16 0 2 1;
#X connect 17 0 8 1;
#X connect 18 0 19 0;
#X connect 19 0 0 0;
#X connect 19 0 6 0;
#X connect 19 0 3 1;
#X connect 19 0 9 1;
#X connect 20 0 11 0;
#X restore 67 437 pd fm synthesis;
#X obj 28 190 moses 1;
#X text -1 212 no 0 notes;
#X obj 167 358 r \$0-vel;
#X obj 96 13 inlet note control;
#N canvas 949 222 472 305 defaults 0;
#X obj 115 31 inlet;
#X obj 157 254 outlet;
#X obj 157 70 t b;
#X obj 194 41 loadbang;
#X msg 147 157 mod2 0.142;
#X msg 166 21 bang;
#X msg 81 186 mod1 0.446;
#X msg 272 128 a 0.102;
#X msg 271 157 d 0.37;
#X msg 257 187 s 0.291;
#X msg 247 219 r 0.629;
#X connect 0 0 2 0;
#X connect 2 0 6 0;
#X connect 2 0 4 0;
#X connect 2 0 7 0;
#X connect 2 0 8 0;
#X connect 2 0 9 0;
#X connect 2 0 10 0;
#X connect 3 0 2 0;
#X connect 4 0 1 0;
#X connect 5 0 2 0;
#X connect 6 0 1 0;
#X connect 7 0 1 0;
#X connect 8 0 1 0;
#X connect 9 0 1 0;
#X connect 10 0 1 0;
#X restore 225 15 pd defaults;
#X obj 406 9 inlet vel;
#X obj 406 36 clip 0 127;
#X obj 406 64 s \$0-vel;
#X obj 81 141 clip 0 1;
#X obj 302 311 *;
#X obj 302 280 / 3;
#X obj 424 282 / 3;
#X obj 424 315 *;
#X obj 240 311 *;
#X obj 240 280 / 3;
#X obj 240 225 clip 0 1;
#X obj 302 225 clip 0 1;
#X obj 359 225 clip 0 1;
#X obj 424 227 clip 0 1;
#X obj 424 254 * 127;
#X obj 359 344 * 100;
#X obj 96 42 route float mod1 mod2 a d s r reset;
#X obj 147 140 clip 0 1;
#X obj 81 202 s \$0-mod1;
#X obj 147 203 s \$0-mod2;
#X obj 164 516 outlet~;
#X obj 164 483 *~;
#X obj 81 171 * 1000;
#X obj 147 173 * 1000;
#X obj 210 401 rc-adsr~_ 0.75 7.24 173 37.6 492;
#X obj 240 254 * 100;
#X obj 302 251 * 100;
#X text -11 14 a simple fm bass;
#X text 269 474 Dan Wilcox 2009;
#X text 267 487 robotcowboy.com|danomatika.com;
#X connect 0 0 27 0;
#X connect 1 1 0 0;
#X connect 3 0 30 0;
#X connect 4 0 22 0;
#X connect 5 0 22 0;
#X connect 6 0 7 0;
#X connect 7 0 8 0;
#X connect 9 0 28 0;
#X connect 10 0 30 3;
#X connect 11 0 10 1;
#X connect 11 0 10 0;
#X connect 12 0 13 1;
#X connect 12 0 13 0;
#X connect 13 0 30 5;
#X connect 14 0 30 2;
#X connect 15 0 14 1;
#X connect 15 0 14 0;
#X connect 16 0 31 0;
#X connect 17 0 32 0;
#X connect 18 0 21 0;
#X connect 19 0 20 0;
#X connect 20 0 12 0;
#X connect 21 0 30 4;
#X connect 22 0 1 0;
#X connect 22 1 9 0;
#X connect 22 2 23 0;
#X connect 22 3 16 0;
#X connect 22 4 17 0;
#X connect 22 5 18 0;
#X connect 22 6 19 0;
#X connect 22 7 5 0;
#X connect 23 0 29 0;
#X connect 27 0 26 0;
#X connect 28 0 24 0;
#X connect 29 0 25 0;
#X connect 30 0 0 1;
#X connect 30 0 27 1;
#X connect 31 0 15 0;
#X connect 32 0 11 0;
