#N canvas 474 204 415 335 10;
#X obj 57 125 t b a;
#X obj 57 274 timer;
#X floatatom 57 304 5 0 0 0 - - -;
#X obj 151 256 print;
#X msg 204 164 reset;
#X text 243 163 reset pipe and random to 0;
#X msg 153 94 20;
#X msg 192 100 100;
#X text 148 72 set random amount;
#X floatatom 91 72 5 0 0 0 - - -;
#X floatatom 153 223 5 0 0 1 pipe_length - -;
#X floatatom 201 125 5 0 0 0 - - -;
#X text 198 257 messages out;
#X msg 98 95 127;
#X msg 26 78 1;
#X text 16 11 rc-jitter: a random length pipe;
#X text 37 45 floats in;
#X obj 84 194 rc-jitter 50;
#X msg 84 240 bang;
#X connect 0 0 1 0;
#X connect 0 1 17 0;
#X connect 1 0 2 0;
#X connect 4 0 17 1;
#X connect 6 0 17 1;
#X connect 7 0 17 1;
#X connect 9 0 0 0;
#X connect 11 0 17 1;
#X connect 13 0 0 0;
#X connect 14 0 0 0;
#X connect 17 0 3 0;
#X connect 17 0 18 0;
#X connect 17 1 10 0;
#X connect 18 0 1 1;
