#N canvas 795 80 396 512 10;
#X obj 23 478 outlet~;
#X obj 115 93 inlet~ env;
#X obj 23 92 inlet~ audio;
#X text 16 10 a low-pass resonant filter;
#X obj 200 94 inlet freq;
#X obj 311 94 inlet q;
#X obj 200 169 clip 20 20000;
#X obj 23 324 moog~;
#X obj 311 216 pow 2;
#X obj 311 242 / 16;
#X obj 311 187 * 8;
#X obj 311 160 clip 0 1;
#N canvas 0 22 450 300 arg1 0;
#X obj 107 86 f \$1;
#X obj 107 58 loadbang;
#X obj 107 113 sel 0;
#X msg 107 137 2000;
#X obj 143 176 outlet;
#X connect 0 0 2 0;
#X connect 1 0 0 0;
#X connect 2 0 3 0;
#X connect 2 1 4 0;
#X connect 3 0 4 0;
#X restore 235 136 pd arg1;
#N canvas 74 188 450 300 arg2 0;
#X obj 107 58 loadbang;
#X obj 107 113 sel 0;
#X obj 143 176 outlet;
#X obj 107 86 f \$2;
#X msg 107 137 0.5;
#X connect 0 0 3 0;
#X connect 1 0 4 0;
#X connect 1 1 2 0;
#X connect 3 0 1 0;
#X connect 4 0 2 0;
#X restore 326 132 pd arg2;
#X text 56 35 just a wrapper around moog~;
#X text 145 59 creation args: freq \, q;
#X text 183 467 Dan Wilcox 2009;
#X text 182 479 danomatika.com | robotcowboy.com;
#X obj 75 297 sig~ 3;
#X obj 115 132 clip~ 0 1;
#X obj 323 370 + 0;
#X obj 311 332 f 1;
#X obj 311 301 t b f;
#X text 31 378 moog~ seems to be a bit quiet with higher q ...;
#X text 33 407 so increase vol;
#X text 121 297 q 0 - 4;
#X obj 115 220 *~ 2000;
#X msg 323 398 \$1 10;
#X obj 323 427 vline~;
#X obj 23 441 *~;
#X obj 311 272 / 2.4;
#X obj 23 357 hip~ 5;
#X connect 1 0 19 0;
#X connect 2 0 7 0;
#X connect 4 0 6 0;
#X connect 5 0 11 0;
#X connect 6 0 26 1;
#X connect 7 0 31 0;
#X connect 8 0 9 0;
#X connect 9 0 18 0;
#X connect 9 0 30 0;
#X connect 10 0 8 0;
#X connect 11 0 10 0;
#X connect 12 0 6 0;
#X connect 13 0 11 0;
#X connect 18 0 7 2;
#X connect 19 0 26 0;
#X connect 20 0 27 0;
#X connect 21 0 20 0;
#X connect 22 0 21 0;
#X connect 22 1 20 1;
#X connect 26 0 7 1;
#X connect 27 0 28 0;
#X connect 28 0 29 1;
#X connect 29 0 0 0;
#X connect 30 0 22 0;
#X connect 31 0 29 0;
