#N canvas 951 422 347 471 10;
#X obj 121 52 inlet;
#N canvas 557 737 188 194 m2channel 0;
#X obj 81 147 outlet chan;
#X obj 30 23 inlet;
#X obj 30 57 moses 191;
#X obj 81 119 - 191;
#X obj 81 89 moses 208;
#X connect 1 0 2 0;
#X connect 2 1 4 0;
#X connect 3 0 0 0;
#X connect 4 0 3 0;
#X restore 121 146 pd m2channel;
#X obj 148 207 f;
#X obj 121 367 list trim;
#X obj 38 144 loadbang;
#X obj 38 200 sel 0;
#N canvas 0 22 172 197 gate 0;
#X obj 18 21 inlet;
#X obj 107 24 inlet;
#X obj 39 158 outlet;
#X obj 68 134 outlet;
#X obj 39 74 list prepend 1;
#X obj 39 99 route 1 2;
#X connect 0 0 4 1;
#X connect 1 0 4 0;
#X connect 4 0 5 0;
#X connect 5 0 2 0;
#X connect 5 1 3 0;
#X restore 70 272 pd gate 2;
#X msg 38 226 1;
#X msg 70 226 2;
#X obj 38 175 f \$1;
#X obj 121 309 route \$1;
#X text 25 121 if no arg \$1;
#X text 23 107 don't filter;
#X obj 187 438 outlet chan;
#X obj 121 241 pack f f;
#X obj 121 174 t f b;
#X obj 121 401 unpack f f;
#X obj 178 175 + 1;
#X text 12 12 an analog to [pgmin] for midi streams from midiin or
mrpeach [midifile];
#X text 184 240 chan pgm;
#X text 185 309 filter by channel;
#X obj 121 339 list prepend 0;
#X text 198 400 chan pgm;
#X obj 101 436 outlet pgm;
#X obj 121 84 list-abs/list-lastx 2;
#X text 185 55 grab groups of 2 filo;
#X text 193 114 event+chan pgm;
#X obj 121 116 unpack f f;
#X connect 0 0 24 0;
#X connect 1 0 15 0;
#X connect 2 0 14 1;
#X connect 3 0 16 0;
#X connect 4 0 9 0;
#X connect 5 0 7 0;
#X connect 5 1 8 0;
#X connect 6 0 16 0;
#X connect 6 1 10 0;
#X connect 7 0 6 0;
#X connect 8 0 6 0;
#X connect 9 0 5 0;
#X connect 10 0 21 0;
#X connect 14 0 6 1;
#X connect 15 0 14 0;
#X connect 15 1 2 0;
#X connect 16 0 13 0;
#X connect 16 1 23 0;
#X connect 17 0 2 1;
#X connect 21 0 3 0;
#X connect 24 0 27 0;
#X connect 27 0 1 0;
#X connect 27 1 17 0;
