#N canvas 416 269 421 221 10;
#X obj -20 126 pack 0 100;
#X obj -20 63 inlet;
#X obj 37 93 inlet;
#X text -28 7 portamento \, generates a glide between notes;
#X text 21 64 note in;
#X obj -20 185 outlet;
#X text 36 189 20007 Dan Wilcox \, Based off of the pd portamento example
;
#X obj -20 155 line3;
#X text 36 153 <-- note \, using line3 for a less-then-linear aka more
realistic glide;
#X text 63 38 Creation args: glide speed (ms);
#X text 80 93 glide speed in;
#X connect 0 0 7 0;
#X connect 1 0 0 0;
#X connect 2 0 0 1;
#X connect 7 0 5 0;
#X coords 0 0 1 1 160 45 0;
