#N canvas 440 461 382 373 10;
#X msg 122 151 1;
#X msg 77 151 0;
#X obj 38 -40 t a a b;
#X obj 155 225 outlet absolute;
#X obj 38 261 outlet relative;
#X obj 38 -69 inlet;
#X text 111 -59 determines absolute or relative path;
#X obj 122 -13 list trim;
#X msg 215 11 symbol;
#X obj 122 11 symbol;
#X obj 122 122 sel /;
#X obj 122 70 list split 2;
#X obj 122 96 list split 1;
#X text 269 12 empty symbol;
#X obj 215 -14 loadbang;
#X obj 191 122 sel :;
#X text 152 151 path begins with '/' - linux;
#X text 164 170 or 2nd char is ':' - windows;
#X text 173 256 Dan Wilcox 2009;
#X text 171 269 robotcowboy.com|danomatika.com;
#X obj 38 195 zexy/demultiplex 0 1;
#X obj 122 42 zexy/symbol2list;
#X connect 0 0 20 1;
#X connect 1 0 20 1;
#X connect 2 0 20 0;
#X connect 2 1 7 0;
#X connect 2 2 1 0;
#X connect 5 0 2 0;
#X connect 7 0 9 0;
#X connect 8 0 21 1;
#X connect 9 0 21 0;
#X connect 10 0 0 0;
#X connect 11 0 12 0;
#X connect 12 0 10 0;
#X connect 12 1 15 0;
#X connect 14 0 8 0;
#X connect 15 0 0 0;
#X connect 20 0 4 0;
#X connect 20 1 3 0;
#X connect 21 0 11 0;
