#N canvas 1173 416 599 580 10;
#X msg -373 40 prev;
#X msg -358 66 next;
#X msg -318 163 close;
#X symbolatom -373 552 21 0 0 0 patch - -;
#X symbolatom -315 531 21 0 0 0 list - -;
#X obj -373 504 route patch playlist;
#X floatatom -342 477 5 0 0 1 patch_index - -;
#X msg -339 100 home;
#X msg -164 215 playlist load;
#X msg -138 361 playlist edit;
#X obj -310 448 bng 15 250 50 0 empty empty loading 17 7 0 10 -262144
-1 -1;
#X msg -176 114 load;
#X msg -150 325 playlist close;
#X obj -373 417 rc-playlist;
#X text -134 114 select a patch to load;
#X text -158 163 open patch via filename \, also takes relative paths
;
#X text -305 101 return to 1;
#X text -73 215 select a playlist to load;
#X text -146 273 open playlist via filename \, also takes relative
paths;
#X text -44 361 open the coll editor;
#X text -17 539 Dan Wilcox 2009;
#X text -19 552 robotcowboy.com|danomatika.com;
#X text -393 8 rc-playlist: a pd patch playlist managed by a coll;
#X obj 47 55 coll;
#C restore;
#X text -208 417 sample playlist:;
#X text -189 440 1 \, RunningMan.pd \;;
#X text -189 455 2 \, StarBurst.pd \;;
#X text -189 470 3 \, Velocipede.pd \;;
#X text -189 485 4 \, ArpeggiateNow.pd \;;
#X text -77 415 the patchnames are relative to the playlist;
#X text -53 434 so patches in subfolders can be opened;
#X text -32 468 5 \, rotp/Dynamite.pd \;;
#X text -32 483 6 \, rotp/Ache.pd \;;
#X text -35 33 see coll help for the file format;
#X text -47 327 close the current playlist;
#X text -332 141 close the current patch;
#X msg -151 242 playlist load media/sample_playlist.txt;
#X msg -168 143 load rc-pan~-help.pd;
#X connect 0 0 13 0;
#X connect 1 0 13 0;
#X connect 2 0 13 0;
#X connect 5 0 3 0;
#X connect 5 1 4 0;
#X connect 7 0 13 0;
#X connect 8 0 13 0;
#X connect 9 0 13 0;
#X connect 11 0 13 0;
#X connect 12 0 13 0;
#X connect 13 0 5 0;
#X connect 13 1 6 0;
#X connect 13 2 10 0;
#X connect 36 0 13 0;
#X connect 37 0 13 0;
