#N canvas 1405 360 684 544 10;
#X obj -4 218 openpanel;
#X obj -4 389 rc-openclose;
#X msg 97 219 close;
#X obj 140 220 loadbang;
#X msg 97 280 symbol unnamed;
#X obj 125 63 inlet play;
#X obj 376 507 outlet playlist pos;
#X obj 210 501 outlet files;
#X msg 97 436 patch symbol \$1;
#X msg 210 436 playlist symbol \$1;
#X obj 538 508 outlet loading;
#X obj 218 280 t a b;
#X obj 125 92 route load close prev next home playlist;
#X msg 204 145 prev;
#X msg 243 145 next;
#X msg 283 146 home;
#N canvas 711 245 485 428 coll 0;
#X obj 31 352 route float;
#X text 15 15 the playlist patches are managed by a coll;
#X obj 31 301 coll;
#C restore;
#X msg 31 96 1;
#X obj 31 71 route home;
#X obj 400 334 outlet pos;
#X obj 151 42 inlet playlist;
#X obj 31 42 inlet acton;
#X obj 94 393 outlet patch;
#X obj 233 134 openpanel;
#X obj 151 78 route close edit load;
#X msg 192 160 open;
#X msg 151 160 clear;
#X text 312 134 absolute path;
#X obj 380 191 splitfilename;
#X obj 293 197 loadbang;
#X msg 293 249 symbol empty;
#X obj 293 287 outlet playlist;
#X obj 233 106 route bang;
#X msg 172 223 read \$1;
#X obj 290 164 rc-filename;
#X obj 293 223 delay 1;
#X obj 181 272 s \$0-playlistpath;
#X connect 0 1 8 0;
#X connect 2 0 0 0;
#X connect 2 1 5 0;
#X connect 3 0 2 0;
#X connect 4 0 3 0;
#X connect 4 1 2 0;
#X connect 6 0 10 0;
#X connect 7 0 4 0;
#X connect 9 0 20 0;
#X connect 10 0 12 0;
#X connect 10 1 11 0;
#X connect 10 2 18 0;
#X connect 11 0 2 0;
#X connect 12 0 2 0;
#X connect 12 0 16 0;
#X connect 14 1 17 0;
#X connect 15 0 21 0;
#X connect 16 0 17 0;
#X connect 18 0 9 0;
#X connect 18 1 20 0;
#X connect 19 0 2 0;
#X connect 20 0 19 0;
#X connect 20 0 14 0;
#X connect 20 0 22 0;
#X connect 21 0 16 0;
#X restore 283 321 pd coll;
#X text -1 24 a pd patch playlist managed by a coll;
#X text -2 503 Dan Wilcox 2009;
#X text -4 516 robotcowboy.com|danomatika.com;
#X text 408 114 sample playlist:;
#X text 427 137 1 \, RunningMan.pd \;;
#X text 426 152 2 \, StarBurst.pd \;;
#X text 427 167 3 \, Velocipede.pd \;;
#X text 427 182 4 \, ArpeggiateNow.pd \;;
#X text 384 243 the patchnames are relative to the playlist;
#X text 408 262 so patches in subfolders can be opened;
#X text 429 296 5 \, rotp/Dynamite.pd \;;
#X text 429 311 6 \, rotp/Ache.pd \;;
#X obj 19 188 route bang;
#X obj 140 246 delay 1;
#X text 341 376 get path relative to playlist;
#N canvas 648 508 397 291 append_path 0;
#X obj 53 24 inlet patchname in;
#X obj 218 27 inlet path from playlist;
#X obj 158 255 outlet patch with path;
#X obj 218 55 splitfilename;
#X obj 53 136 symbol;
#X obj 53 195 mergefilename /;
#X obj 53 169 pack s s;
#X obj 53 96 t b a;
#X obj 53 60 rc-pathtype;
#X connect 0 0 8 0;
#X connect 1 0 3 0;
#X connect 3 0 4 1;
#X connect 4 0 6 0;
#X connect 5 0 2 0;
#X connect 6 0 5 0;
#X connect 7 0 4 0;
#X connect 7 1 6 1;
#X connect 8 0 7 0;
#X connect 8 1 2 0;
#X restore 203 399 pd append_path;
#X obj 284 374 symbol;
#X obj 284 348 r \$0-playlistpath;
#X obj 203 376 symbol;
#X connect 0 0 1 0;
#X connect 1 0 8 0;
#X connect 2 0 1 0;
#X connect 2 0 4 0;
#X connect 3 0 30 0;
#X connect 4 0 8 0;
#X connect 5 0 12 0;
#X connect 8 0 7 0;
#X connect 9 0 7 0;
#X connect 11 0 16 0;
#X connect 11 1 10 0;
#X connect 12 0 29 0;
#X connect 12 1 2 0;
#X connect 12 2 13 0;
#X connect 12 3 14 0;
#X connect 12 4 15 0;
#X connect 12 5 16 1;
#X connect 13 0 11 0;
#X connect 14 0 11 0;
#X connect 15 0 11 0;
#X connect 16 0 35 0;
#X connect 16 1 9 0;
#X connect 16 2 6 0;
#X connect 29 0 0 0;
#X connect 29 1 35 0;
#X connect 30 0 4 0;
#X connect 32 0 1 0;
#X connect 33 0 32 1;
#X connect 34 0 33 0;
#X connect 35 0 32 0;
