#N canvas 484 355 364 275 10;
#X obj 19 99 rc-spigot~;
#X obj 76 74 tgl 15 0 empty empty empty 0 -6 0 10 -262144 -1 -1 0 1
;
#X obj 19 39 osc~ 440;
#X obj 67 240 dac~;
#X obj 19 70 *~ 0.5;
#X text 100 74 sound on/off;
#X floatatom 152 132 5 0 1 0 - - -;
#X obj 237 169 sssad/datastore;
#N canvas 0 22 450 300 datastore 0;
#X obj 10 10 r SSSADDATA;
#X msg 10 30 \; SSSAD pan1/pan 0.713768 \; SSSAD_ADMIN set \;;
#X connect 0 0 1 0;
#X restore 237 237 pd datastore;
#X text 234 144 sssad state saving;
#X text 164 38 Creation args: name \, value;
#X obj 155 110 hsl 128 15 0 1 0 0 empty empty empty -2 -8 0 10 -262144
-1 -1 0 1;
#X text 8 10 rc-pan: square root pan with gui;
#X obj 19 155 rc-pan~ pan1 0.25;
#X connect 0 0 13 0;
#X connect 1 0 0 1;
#X connect 2 0 4 0;
#X connect 4 0 0 0;
#X connect 6 0 13 1;
#X connect 11 0 6 0;
#X connect 13 0 3 0;
#X connect 13 1 3 1;
