#N canvas 15 482 383 235 10;
#X text 16 10 converts raw midi bytes from [mrpeach/midifile] or [midiin]
;
#X obj 21 41 midiin;
#X floatatom 21 197 5 0 0 1 program_change - -;
#X floatatom 66 170 5 0 0 1 channel - -;
#X floatatom 255 178 5 0 0 0 - - -;
#X floatatom 282 153 5 0 0 0 - - -;
#X obj 54 77 tgl 15 0 empty empty empty 17 7 0 10 -262144 -1 -1 0 1
;
#X text 247 208 Dan Wilcox 2009;
#X text 226 95 equivalent to [pgmin];
#X obj 21 140 rc-pgmin;
#X obj 255 124 pgmin;
#N canvas 515 648 257 370 generate 0;
#X obj 18 18 inlet;
#X obj 104 112 random 15;
#X obj 104 140 + 1;
#X obj 18 339 outlet;
#X text 94 281 convert to raw midi;
#X obj 18 281 f;
#X obj 18 248 t b f;
#X obj 18 49 metro 1000;
#X obj 94 51 bng 15 250 50 0 empty empty empty 17 7 0 10 -262144 -1
-1;
#X text 115 250 <- raw pgm event;
#X msg 144 205 \; #pgmin \$1 \$2;
#X text 153 182 send to [pgmin];
#X obj 18 170 pack f f;
#X obj 18 78 t b b;
#X obj 18 218 unpack f f;
#X obj 18 310 pack f f;
#X obj 63 281 - 1;
#X obj 75 250 + 191;
#X obj 18 112 random 127;
#X connect 0 0 7 0;
#X connect 1 0 2 0;
#X connect 2 0 12 1;
#X connect 5 0 15 0;
#X connect 6 0 5 0;
#X connect 6 1 16 0;
#X connect 7 0 13 0;
#X connect 8 0 13 0;
#X connect 12 0 10 0;
#X connect 12 0 14 0;
#X connect 13 0 18 0;
#X connect 13 1 1 0;
#X connect 14 0 6 0;
#X connect 14 1 17 0;
#X connect 15 0 3 0;
#X connect 16 0 15 1;
#X connect 17 0 5 1;
#X connect 18 0 12 0;
#X restore 54 102 pd generate random pgmin;
#X connect 1 0 9 0;
#X connect 6 0 11 0;
#X connect 9 0 2 0;
#X connect 9 1 3 0;
#X connect 10 0 4 0;
#X connect 10 1 5 0;
#X connect 11 0 9 0;
