#N canvas 470 246 749 311 10;
#X obj 23 59 inlet~;
#X obj 23 217 outlet~;
#X obj 128 219 outlet~;
#X obj 262 155 clip 0 1;
#X text 355 258 Dan Wilcox 2009;
#X text 356 275 danomatika.com | robotcowboy.com;
#N canvas 258 181 515 388 mix 0;
#X obj 57 342 outlet~;
#X obj 219 348 outlet~;
#X obj 220 296 hip~ 5;
#X obj 58 289 hip~ 5;
#X obj 59 178 *~ 1;
#X text 89 178 dry;
#X obj 58 34 inlet~ dry;
#X obj 96 147 r \$0-dry;
#X obj 220 323 clip~ -1 1;
#X obj 57 316 clip~ -1 1;
#X obj 269 235 *~ 0;
#X obj 341 90 expr sqrt(1-$f1) \; sqrt($f1);
#X obj 199 197 *~ 0;
#X obj 159 34 inlet~ wet main;
#X obj 270 35 inlet~ wet echo;
#X obj 353 190 expr sqrt(1-$f1) \; sqrt($f1);
#X obj 353 164 r \$0-echopan;
#X obj 312 238 *~ 1;
#X obj 158 199 *~ 1;
#X obj 341 63 r \$0-revpan;
#X obj 158 101 *~ 0;
#X obj 204 67 r \$0-wet;
#X obj 270 98 *~ 0;
#X connect 2 0 8 0;
#X connect 3 0 9 0;
#X connect 4 0 3 0;
#X connect 4 0 2 0;
#X connect 6 0 4 0;
#X connect 7 0 4 1;
#X connect 8 0 1 0;
#X connect 9 0 0 0;
#X connect 10 0 3 0;
#X connect 11 0 18 1;
#X connect 11 1 12 1;
#X connect 12 0 2 0;
#X connect 13 0 20 0;
#X connect 14 0 22 0;
#X connect 15 0 10 1;
#X connect 15 1 17 1;
#X connect 16 0 15 0;
#X connect 17 0 2 0;
#X connect 18 0 3 0;
#X connect 19 0 11 0;
#X connect 20 0 18 0;
#X connect 20 0 12 0;
#X connect 21 0 20 1;
#X connect 21 0 22 1;
#X connect 22 0 10 0;
#X connect 22 0 17 0;
#X restore 23 190 pd mix wet and dry;
#X obj 522 162 clip 0 1;
#X obj 603 162 clip 0 1;
#X obj 522 192 s \$0-wet;
#X obj 603 192 s \$0-dry;
#N canvas 465 82 638 685 guts 0;
#X obj 214 324 +~;
#X obj 270 324 +~;
#X obj 213 405 +~;
#X obj 322 406 +~;
#X obj 255 405 -~;
#X obj 362 405 -~;
#X obj 212 461 +~;
#X obj 256 462 +~;
#X obj 300 463 -~;
#X obj 339 463 -~;
#X obj 299 545 *~ 0;
#X obj 257 544 *~ 0;
#X obj 212 543 *~ 0;
#X obj 340 546 *~ 0;
#X obj 228 274 delread~ \$0-loop-del1 39.5161;
#X obj 213 656 delwrite~ \$0-loop-del1 39.5161;
#X obj 284 299 delread~ \$0-loop-del2 37.1212;
#X obj 257 632 delwrite~ \$0-loop-del2 37.1212;
#X obj 323 332 delread~ \$0-loop-del3 34.534;
#X obj 300 608 delwrite~ \$0-loop-del3 34.534;
#X obj 339 584 delwrite~ \$0-loop-del4 32.5221;
#X obj 377 356 delread~ \$0-loop-del4 32.5221;
#X obj 106 25 inlet~;
#X obj 286 213 *~ 0.3;
#X obj 386 475 r \$0-rev;
#X obj 319 188 r \$0-echo;
#X obj 160 507 outlet~ echo;
#X obj 88 487 outlet~ reverb;
#X obj 107 63 rc-reverb-echo \$0-echo-del1 5.43216;
#X obj 107 84 rc-reverb-echo \$0-echo-del2 8.45346;
#X obj 108 109 rc-reverb-echo \$0-echo-del3 79.3165;
#X obj 107 132 rc-reverb-echo \$0-echo-del4 100;
#X obj 107 157 rc-reverb-echo \$0-echo-del5 129.326;
#X obj 108 181 rc-reverb-echo \$0-echo-del6 192;
#X connect 0 0 2 0;
#X connect 0 0 4 0;
#X connect 0 0 27 0;
#X connect 1 0 2 1;
#X connect 1 0 4 1;
#X connect 1 0 26 0;
#X connect 2 0 6 0;
#X connect 2 0 8 0;
#X connect 3 0 8 1;
#X connect 3 0 6 1;
#X connect 4 0 7 0;
#X connect 4 0 9 0;
#X connect 5 0 7 1;
#X connect 5 0 9 1;
#X connect 6 0 12 0;
#X connect 7 0 11 0;
#X connect 8 0 10 0;
#X connect 9 0 13 0;
#X connect 10 0 19 0;
#X connect 11 0 17 0;
#X connect 12 0 15 0;
#X connect 13 0 20 0;
#X connect 14 0 0 1;
#X connect 16 0 1 1;
#X connect 18 0 3 0;
#X connect 18 0 5 0;
#X connect 21 0 3 1;
#X connect 21 0 5 1;
#X connect 22 0 28 0;
#X connect 23 0 1 1;
#X connect 24 0 13 1;
#X connect 24 0 10 1;
#X connect 24 0 11 1;
#X connect 24 0 12 1;
#X connect 25 0 23 1;
#X connect 28 0 29 0;
#X connect 28 1 29 1;
#X connect 29 0 30 0;
#X connect 29 1 30 1;
#X connect 30 0 31 0;
#X connect 30 1 31 1;
#X connect 31 0 32 0;
#X connect 31 1 32 1;
#X connect 32 0 33 0;
#X connect 32 1 33 1;
#X connect 33 0 0 0;
#X connect 33 1 23 0;
#X restore 75 142 pd guts;
#X text 14 266 Reverb design by Miller Puckette. Adapted from Chris
McCormick's s-reverb abstraction.;
#X obj 23 99 clip~ -1 1;
#X obj 287 56 inlet control;
#X obj 262 185 * 0.4;
#X obj 323 156 clip 0 1;
#X obj 323 188 s \$0-echo;
#X obj 262 214 s \$0-rev;
#X obj 389 184 clip 0 1;
#X obj 465 189 clip 0 1;
#X obj 389 214 s \$0-revpan;
#X obj 465 219 s \$0-echopan;
#X text 24 14 a simple stereo reverb;
#N canvas 4 51 600 278 defaults 0;
#X obj 251 57 loadbang;
#X obj 251 95 t b;
#X obj 204 55 inlet;
#X msg 50 166 reverb 0.25;
#X msg 159 168 echo 0.25;
#X msg 251 168 reverbpan 0.5;
#X msg 354 168 echopan 0.5;
#X msg 446 168 wet 0.2;
#X msg 510 168 dry 0.8;
#X obj 251 222 outlet;
#X connect 0 0 1 0;
#X connect 1 0 3 0;
#X connect 1 0 4 0;
#X connect 1 0 5 0;
#X connect 1 0 7 0;
#X connect 1 0 6 0;
#X connect 1 0 8 0;
#X connect 2 0 1 0;
#X connect 3 0 9 0;
#X connect 4 0 9 0;
#X connect 5 0 9 0;
#X connect 6 0 9 0;
#X connect 7 0 9 0;
#X connect 8 0 9 0;
#X restore 440 55 pd defaults;
#X obj 287 81 route reverb echo reverbpan echopan wet dry reset;
#X connect 0 0 13 0;
#X connect 3 0 15 0;
#X connect 6 0 1 0;
#X connect 6 1 2 0;
#X connect 7 0 9 0;
#X connect 8 0 10 0;
#X connect 11 0 6 1;
#X connect 11 1 6 2;
#X connect 13 0 11 0;
#X connect 13 0 6 0;
#X connect 14 0 25 0;
#X connect 15 0 18 0;
#X connect 16 0 17 0;
#X connect 19 0 21 0;
#X connect 20 0 22 0;
#X connect 24 0 25 0;
#X connect 25 0 3 0;
#X connect 25 1 16 0;
#X connect 25 2 19 0;
#X connect 25 3 20 0;
#X connect 25 4 7 0;
#X connect 25 5 8 0;
#X connect 25 6 24 0;
