#N canvas 222 227 404 642 10;
#X obj 43 591 dac~;
#X text 17 14 rc-reverb~_: simple reverb;
#N canvas 0 22 450 300 synth 0;
#X obj 102 141 osc~ 440;
#X obj 102 113 mtof;
#X obj 102 76 t f b;
#X obj 103 261 outlet~;
#X obj 102 50 inlet;
#X obj 103 233 *~;
#X obj 169 143 rc-adsr~_ 0.1 5 100 50 300;
#X connect 0 0 5 0;
#X connect 1 0 0 0;
#X connect 2 0 1 0;
#X connect 2 1 6 0;
#X connect 4 0 2 0;
#X connect 5 0 3 0;
#X connect 6 0 5 1;
#X restore 24 178 pd synth;
#X obj 24 121 random 12;
#X obj 24 70 tgl 15 0 empty empty empty 17 7 0 10 -262144 -1 -1 1 1
;
#X obj 24 95 metro 1000;
#X obj 24 148 + 48;
#X obj 113 96 hsl 128 15 0 1 0 0 empty empty 0-1 32 8 0 10 -262144
-1 -1 10000 1;
#X floatatom 110 120 5 0 0 1 reverb - -;
#X obj 182 277 hsl 128 15 0 1 0 0 empty empty 0-1 32 8 0 10 -262144
-1 -1 1400 1;
#X floatatom 179 301 5 0 0 1 wet - -;
#X obj 214 362 hsl 128 15 0 1 0 0 empty empty 0-1 32 8 0 10 -262144
-1 -1 5900 1;
#X floatatom 211 386 5 0 0 1 dry - -;
#X text 84 45 Creation args: reverb wet dry;
#X msg 211 412 dry \$1;
#X msg 179 327 wet \$1;
#X msg 110 146 reverb \$1;
#X obj 149 184 hsl 128 15 0 1 0 0 empty empty 0-1 32 8 0 10 -262144
-1 -1 6400 1;
#X floatatom 146 208 5 0 0 1 echo - -;
#X msg 146 234 echo \$1;
#X obj 23 553 rc-reverb~_;
#X obj 220 458 hsl 128 15 0 1 0 0 empty empty 0-1 32 8 0 10 -262144
-1 -1 12600 1;
#X floatatom 217 482 5 0 0 1 reverbpan - -;
#X obj 252 543 hsl 128 15 0 1 0 0 empty empty 0-1 32 8 0 10 -262144
-1 -1 4100 1;
#X floatatom 249 567 5 0 0 1 echopan - -;
#X msg 217 508 reverbpan \$1;
#X text 216 439 0 - L;
#X text 315 437 1 - R;
#X text 248 527 0 - L;
#X text 347 525 1 - R;
#X msg 249 593 echopan \$1;
#X msg 39 519 reverb;
#X connect 2 0 20 0;
#X connect 3 0 6 0;
#X connect 4 0 5 0;
#X connect 5 0 3 0;
#X connect 6 0 2 0;
#X connect 7 0 8 0;
#X connect 8 0 16 0;
#X connect 9 0 10 0;
#X connect 10 0 15 0;
#X connect 11 0 12 0;
#X connect 12 0 14 0;
#X connect 14 0 20 1;
#X connect 15 0 20 1;
#X connect 16 0 20 1;
#X connect 17 0 18 0;
#X connect 18 0 19 0;
#X connect 19 0 20 1;
#X connect 20 0 0 0;
#X connect 20 1 0 1;
#X connect 21 0 22 0;
#X connect 22 0 25 0;
#X connect 23 0 24 0;
#X connect 24 0 30 0;
#X connect 25 0 20 1;
#X connect 30 0 20 1;
#X connect 31 0 20 0;
