#N canvas 232 219 455 431 10;
#X floatatom 74 135 5 0 0 0 - - -, f 5;
#X obj 74 381 dac~;
#X obj 29 83 random 90;
#X obj 29 110 moses 20;
#X obj 29 21 tgl 15 0 empty empty empty 0 -6 0 10 -262144 -1 -1 0 1
;
#X floatatom 86 34 5 0 0 0 - - -, f 5;
#X text 52 18 run;
#X text 126 31 metro speed;
#X text 89 110 filter out notes under 20;
#X text 48 261 midi in;
#X obj 74 325 *~;
#X msg 237 161 bang;
#X obj 237 282 rc-adsr~_ 0.1 28.9 463 58 434;
#X obj 281 226 loadbang;
#X floatatom 197 212 5 0 1 0 phase - -, f 5;
#X floatatom 198 243 5 0 1 0 pulsewidth - -, f 5;
#X text 20 -7 rc-square~_: a simple squarewave oscillator;
#X text 159 76 Creation args: frequency;
#X obj 74 283 rc-square~_ 440;
#X msg 281 251 dur 500;
#X obj 86 206 rc-spigot~;
#X obj 86 180 osc~ 5;
#X obj 143 183 tgl 15 0 empty empty freq_modulation 17 7 0 10 -262144
-1 -1 0 1;
#X obj 29 58 metro 1000;
#X text 154 325 default pulsewidth is 0.5;
#X connect 0 0 11 0;
#X connect 0 0 18 0;
#X connect 2 0 3 0;
#X connect 3 1 0 0;
#X connect 4 0 23 0;
#X connect 5 0 23 1;
#X connect 10 0 1 0;
#X connect 10 0 1 1;
#X connect 11 0 12 0;
#X connect 12 0 10 1;
#X connect 13 0 19 0;
#X connect 14 0 18 2;
#X connect 15 0 18 3;
#X connect 18 0 10 0;
#X connect 19 0 12 0;
#X connect 20 0 18 1;
#X connect 21 0 20 0;
#X connect 22 0 20 1;
#X connect 23 0 2 0;
