#N canvas 644 335 511 627 10;
#X obj 282 421 r \$0-load;
#X text 269 400 if the load button is pressed;
#X obj 25 207 r \$0-save;
#X obj 294 321 s \$0-load;
#X obj 252 349 s \$0-save;
#X msg 252 320 bang;
#X msg 294 296 bang;
#X obj 252 208 inlet control;
#X text 66 36 Creation arg: local_prefix;
#X text 289 563 2008 Dan Wilcox;
#N canvas 1095 408 503 482 local 0;
#X obj 64 320 s SSSAD_ADMIN;
#X obj 48 68 t b a b b b;
#X obj 111 94 s SSSAD_SAVE;
#X msg 48 354 \$1 add SSSAD_ADMIN set;
#X obj 48 191 symbol \$1;
#X obj 117 253 symbol \$1;
#X obj 79 448 outlet;
#X obj 323 243 route persist;
#X obj 323 213 list trim;
#X obj 323 381 list trim;
#N canvas 211 69 356 296 local 0;
#X obj 41 129 t a a;
#X msg 74 204 1;
#X obj 41 238 spigot;
#N canvas 427 206 321 380 check-for-slash 0;
#X obj 81 111 symbol2list;
#X msg 155 84 symbol;
#X msg 81 240 1;
#X msg 113 265 0;
#X obj 81 136 list trim;
#X obj 81 213 sel /;
#X obj 81 160 symbol;
#X obj 155 59 loadbang;
#X obj 81 289 t f;
#X obj 49 26 inlet;
#X obj 49 319 spigot;
#X obj 49 346 outlet;
#X obj 49 55 t a a;
#X obj 81 85 l2s;
#X obj 81 186 l2s;
#X connect 0 0 4 0;
#X connect 1 0 0 1;
#X connect 2 0 8 0;
#X connect 3 0 8 0;
#X connect 4 0 6 0;
#X connect 5 0 2 0;
#X connect 5 1 3 0;
#X connect 6 0 14 0;
#X connect 7 0 1 0;
#X connect 8 0 10 1;
#X connect 9 0 12 0;
#X connect 10 0 11 0;
#X connect 12 0 10 0;
#X connect 12 1 13 0;
#X connect 13 0 0 0;
#X connect 14 0 5 0;
#X restore 41 102 pd check-for-slash;
#X obj 41 71 inlet;
#X obj 41 264 outlet;
#X text 30 18 if local \, only let correct prefixes through;
#X obj 225 73 inlet;
#X obj 74 169 routeOSC /REPLACE;
#X msg 148 204 0;
#X obj 211 262 outlet;
#X obj 211 205 r \$0-prefix;
#X msg 211 235 \$1 add SSSAD;
#X connect 0 0 2 0;
#X connect 0 1 8 0;
#X connect 1 0 2 1;
#X connect 2 0 5 0;
#X connect 3 0 0 0;
#X connect 4 0 3 0;
#X connect 7 0 8 0;
#X connect 8 0 1 0;
#X connect 8 1 9 0;
#X connect 9 0 2 1;
#X connect 11 0 12 0;
#X connect 12 0 10 0;
#X restore 323 332 pd local filter;
#X obj 323 357 list prepend \$1 add SSSAD;
#X obj 48 18 inlet save command;
#X obj 323 186 inlet incoming data;
#X obj 179 128 r \$0-clear;
#X obj 194 152 r \$0-savetype;
#X obj 179 180 f;
#X obj 179 209 sel 1;
#X obj 79 422 routeOSC /REPLACE;
#N canvas 766 148 444 300 setaddr 0;
#X msg 168 237 set \$1;
#X obj 174 22 loadbang;
#X msg 236 24 bang;
#X obj 124 107 s2l;
#X obj 124 134 list-len;
#X obj 124 160 sel 0;
#X obj 174 80 t a a;
#X msg 151 185 bang;
#X obj 174 53 symbol \$1;
#X obj 168 211 symbol;
#X obj 168 265 outlet;
#X obj 94 22 r \$0-prefix;
#X obj 94 47 sel GLOBAL;
#X connect 0 0 10 0;
#X connect 1 0 8 0;
#X connect 2 0 8 0;
#X connect 3 0 4 0;
#X connect 4 0 5 0;
#X connect 5 1 7 0;
#X connect 6 0 3 0;
#X connect 6 1 9 1;
#X connect 7 0 9 0;
#X connect 8 0 6 0;
#X connect 9 0 0 0;
#X connect 11 0 12 0;
#X connect 12 1 8 0;
#X restore 246 294 pd setaddr from creation arg;
#X obj 99 128 r \$0-prefix;
#X msg 203 262 \$1 set \, \$1 addsemi;
#X obj 203 235 symbol \$1;
#X msg 79 282 set \, addsemi;
#X connect 1 0 4 0;
#X connect 1 1 0 0;
#X connect 1 2 5 0;
#X connect 1 2 23 0;
#X connect 1 4 2 0;
#X connect 3 0 18 0;
#X connect 4 0 3 0;
#X connect 7 0 10 0;
#X connect 8 0 7 0;
#X connect 9 0 18 0;
#X connect 10 0 11 0;
#X connect 10 1 11 1;
#X connect 11 0 9 0;
#X connect 12 0 1 0;
#X connect 13 0 8 0;
#X connect 14 0 16 0;
#X connect 15 0 16 1;
#X connect 16 0 17 0;
#X connect 17 0 5 0;
#X connect 17 0 23 0;
#X connect 18 0 6 0;
#X connect 19 0 10 1;
#X connect 19 0 18 0;
#X connect 20 0 5 1;
#X connect 20 0 4 1;
#X connect 22 0 21 0;
#X connect 23 0 6 0;
#X restore 85 439 pd local save;
#N canvas 301 353 557 493 global 0;
#X obj 98 314 s SSSAD_ADMIN;
#X msg 117 275 set \, addsemi;
#X msg 80 348 add SSSAD_ADMIN set;
#X obj 80 109 t b a b b b;
#X obj 154 134 s SSSAD_SAVE;
#X obj 117 413 outlet;
#X obj 339 316 route persist;
#X obj 339 286 list trim;
#X obj 339 372 list trim;
#X obj 339 348 list prepend add SSSAD;
#X obj 339 256 inlet incoming data;
#X obj 80 54 inlet save command;
#X obj 141 167 r \$0-clear;
#X obj 159 191 r \$0-savetype;
#X obj 141 219 f;
#X obj 141 248 sel 0;
#X connect 1 0 5 0;
#X connect 2 0 5 0;
#X connect 3 0 2 0;
#X connect 3 1 0 0;
#X connect 3 2 1 0;
#X connect 3 4 4 0;
#X connect 6 0 9 0;
#X connect 7 0 6 0;
#X connect 8 0 5 0;
#X connect 9 0 8 0;
#X connect 10 0 7 0;
#X connect 11 0 3 0;
#X connect 12 0 14 0;
#X connect 13 0 14 1;
#X connect 14 0 15 0;
#X connect 15 0 1 0;
#X restore 25 472 pd global save;
#X obj 25 331 demux 1 2;
#N canvas 521 235 355 382 savetype 0;
#X obj 36 25 loadbang;
#X obj 36 178 sel 1;
#X text 114 204 global \, no arg;
#X text 117 231 local \, arg;
#X obj 36 274 outlet;
#X msg 36 207 0;
#X msg 68 232 1;
#X msg 119 26 bang;
#X obj 88 274 s \$0-savetype;
#X obj 103 123 r \$0-prefix;
#X text 148 83 set to local if prefix loaded;
#X msg 10 305 set GLOBAL;
#X msg 220 277 set \$1;
#X obj 86 348 s \$0-prefix-atom;
#X obj 103 154 sel GLOBAL;
#X obj 36 58 t b b;
#X obj 36 84 list-onearg \$1;
#X msg 63 115 1;
#X connect 0 0 15 0;
#X connect 1 0 5 0;
#X connect 1 1 6 0;
#X connect 1 1 12 0;
#X connect 5 0 4 0;
#X connect 5 0 8 0;
#X connect 5 0 11 0;
#X connect 6 0 4 0;
#X connect 6 0 8 0;
#X connect 7 0 15 0;
#X connect 9 0 14 0;
#X connect 11 0 13 0;
#X connect 12 0 13 0;
#X connect 14 0 5 0;
#X connect 14 1 6 0;
#X connect 15 0 16 0;
#X connect 15 1 17 0;
#X connect 16 0 1 0;
#X connect 17 0 1 0;
#X restore 85 304 pd savetype;
#X text 66 59 The local_prefix is an osc address style prefix to the
object name of sssad enabled patches aka;
#X text 106 90 [rc-patch /ka/name];
#X text 67 109 The contents of /ka/name will only be saved and loaded
by rc-sssad if its creation arg is "/ka".;
#X msg 25 297 save;
#X obj 328 496 r \$0-savetype;
#X obj 305 448 symbol \$1;
#X msg 305 471 \$1 bang;
#X obj 282 522 mux 1 2;
#X obj 109 333 r SSSAD_ADMIN;
#X obj 109 411 demux 1 2;
#X text 20 180 if the save button is pressed;
#X text 14 588 Based off of the datastore patch and sssad abstractions
by Frank Barknecht and the diy2 808_local & 808_global patches.;
#X msg 335 270 bang;
#X obj 335 296 s \$0-clear;
#X obj 57 281 s SSSAD_ADMIN;
#X obj 57 258 f \$0;
#N canvas 0 0 446 355 sender 0;
#X obj 32 37 inlet;
#X obj 57 303 spigot;
#X msg 96 275 0;
#X obj 64 90 route float;
#X obj 32 64 t a a;
#X obj 64 168 ==;
#X obj 82 116 loadbang;
#X obj 82 141 f \$0;
#X obj 64 194 sel 1;
#X obj 64 220 t b b;
#X msg 64 247 1;
#X obj 57 329 outlet;
#X text 24 8 only write settings if this object sent the save command
;
#X text 131 145 compare \$0 sent on save command with \$0;
#X text 215 234 receive settings;
#X text 130 216 open spigot for a short time to;
#X obj 96 248 delay 100;
#X connect 0 0 4 0;
#X connect 1 0 11 0;
#X connect 2 0 1 1;
#X connect 3 0 5 0;
#X connect 4 0 1 0;
#X connect 4 1 3 0;
#X connect 5 0 8 0;
#X connect 6 0 7 0;
#X connect 7 0 5 1;
#X connect 8 0 9 0;
#X connect 9 0 10 0;
#X connect 9 1 16 0;
#X connect 10 0 1 1;
#X connect 16 0 2 0;
#X restore 109 359 pd sender filter;
#X obj 25 227 t b b;
#X obj 160 385 r \$0-savetype;
#X obj 85 560 outlet SSSADDATA in message;
#X text 65 3 saves state saving enabled (sssad) patch settings to a
message;
#X obj 252 233 route save load clear set;
#X obj 375 260 symbol;
#X obj 356 421 r \$0-prefix;
#X text 67 144 The prefix can be set using a "set" message. Sending
"set GLOBAL" resets rc-sssad to global SSSAD.;
#X obj 403 286 s \$0-prefix;
#N canvas 4 51 450 300 init 0;
#X obj 136 78;
#X restore 365 203 pd init;
#X connect 0 0 19 0;
#X connect 0 0 21 0;
#X connect 2 0 31 0;
#X connect 5 0 4 0;
#X connect 6 0 3 0;
#X connect 7 0 35 0;
#X connect 10 0 33 0;
#X connect 11 0 33 0;
#X connect 12 0 11 0;
#X connect 12 1 10 0;
#X connect 13 0 12 1;
#X connect 17 0 12 0;
#X connect 18 0 21 2;
#X connect 19 0 20 0;
#X connect 20 0 21 1;
#X connect 21 0 33 0;
#X connect 22 0 30 0;
#X connect 23 0 11 1;
#X connect 23 1 10 1;
#X connect 26 0 27 0;
#X connect 29 0 28 0;
#X connect 30 0 23 0;
#X connect 31 0 17 0;
#X connect 31 1 29 0;
#X connect 32 0 23 1;
#X connect 35 0 5 0;
#X connect 35 1 6 0;
#X connect 35 2 26 0;
#X connect 35 3 36 0;
#X connect 36 0 39 0;
#X connect 37 0 19 1;
#X coords 0 0 1 1 85 70 0;
