#N canvas 281 389 351 394 10;
#X msg 49 230 0;
#X msg 76 252 1;
#X obj 76 202 t b b;
#X obj 128 230 symbol file.wav;
#X obj 49 284 readsf~ 2;
#X msg 128 256 open \$1;
#X obj 125 173 l2s;
#X obj 100 313 outlet bang_when_done;
#X obj 48 367 outlet~ left;
#X obj 73 340 outlet~ right;
#X obj 49 58 inlet;
#X text 19 16 a simple wrapper around sfplay~;
#X obj 76 146 max 0;
#X text 178 362 Dan Wilcox 2008;
#N canvas 519 389 338 320 filename 0;
#X obj 53 48 l2s;
#X text 86 47 handle spaces in filenames;
#X obj 53 19 inlet;
#X obj 140 281 outlet;
#N canvas 519 199 332 389 rel/abs 0;
#X obj 170 116 any2string 128 -1;
#X obj 170 166 list split 1;
#X obj 170 192 sel 47;
#X obj 74 254 demultiplex 0 1;
#X obj 74 48 t a a b;
#X msg 113 137 0;
#X msg 170 216 1;
#X obj 170 141 list split 2;
#X obj 227 195 sel 58;
#X text 220 238 47 - '/';
#X text 220 254 58 - 'C';
#X obj 74 14 inlet;
#X obj 161 315 outlet absolute;
#X obj 74 348 outlet relative;
#X obj 170 89 list trim;
#X connect 0 0 7 0;
#X connect 1 0 2 0;
#X connect 1 1 8 0;
#X connect 2 0 6 0;
#X connect 3 0 13 0;
#X connect 3 1 12 0;
#X connect 4 0 3 0;
#X connect 4 1 14 0;
#X connect 4 2 5 0;
#X connect 5 0 3 1;
#X connect 6 0 3 1;
#X connect 7 0 1 0;
#X connect 8 0 6 0;
#X connect 11 0 4 0;
#X connect 14 0 0 0;
#X restore 53 79 pd rel/abs path;
#X obj 53 151 getdir 10;
#X obj 53 220 mergefilename /;
#X obj 53 191 pack s s;
#X obj 53 115 t b a;
#X text 130 150 append path to rel path;
#X connect 0 0 4 0;
#X connect 2 0 0 0;
#X connect 4 0 8 0;
#X connect 4 1 3 0;
#X connect 5 0 7 0;
#X connect 6 0 3 0;
#X connect 7 0 6 0;
#X connect 8 0 5 0;
#X connect 8 1 7 1;
#X restore 125 202 pd filename;
#X obj 49 119 sel 0;
#X obj 49 92 route float bang open play;
#X text 151 171 in case of spaces in filename;
#X obj 163 122 t b a;
#X connect 0 0 4 0;
#X connect 1 0 4 0;
#X connect 2 0 1 0;
#X connect 2 1 3 0;
#X connect 3 0 5 0;
#X connect 4 0 8 0;
#X connect 4 1 9 0;
#X connect 4 2 7 0;
#X connect 5 0 4 0;
#X connect 6 0 14 0;
#X connect 10 0 16 0;
#X connect 12 0 2 0;
#X connect 14 0 3 1;
#X connect 15 0 0 0;
#X connect 15 1 12 0;
#X connect 16 0 15 0;
#X connect 16 1 2 0;
#X connect 16 2 6 0;
#X connect 16 3 18 0;
#X connect 18 0 2 0;
#X connect 18 1 6 0;
