#N canvas 528 65 903 588 10;
#X obj 167 19 notein 1;
#X obj 167 50 pack f f;
#X obj 308 418 bng 15 250 50 0 empty empty empty 17 7 0 10 -262144
-1 -1;
#X obj 167 137 route 0;
#X obj 167 77 list;
#X obj 206 186 unpack f f;
#X obj 308 328 list;
#X obj 308 393 route bang;
#X floatatom 35 422 5 0 0 0 - - -, f 5;
#X text 56 446 lowest note;
#X text 331 418 all notes off;
#X text 630 275 clear lists;
#X obj 206 241 bng 15 250 50 0 empty empty empty 17 7 0 10 -262144
-1 -1;
#X text 228 240 note on;
#X floatatom 206 215 5 0 0 0 - - -, f 5;
#X floatatom 286 190 5 0 0 0 - - -, f 5;
#X floatatom 105 173 5 0 0 0 - - -, f 5;
#X obj 105 200 bng 15 250 50 0 empty empty empty 17 7 0 10 -262144
-1 -1;
#X text 126 201 note off;
#X obj 182 265 t b b f;
#X text 374 19 The ADSRs are only triggered when a note is played on
the keyboard while no other notes are down. If a note is down \, hitting
another note may change the pitch (only if the second note is lower
than the first) \, but will not retrigger the ADSRs.;
#X obj 35 365 list split 1;
#X msg 382 295 list;
#X obj 146 448 list split;
#X obj 146 366 t a a;
#X obj 203 421 - 1;
#X floatatom 174 505 5 0 0 0 - - -, f 5;
#X text 200 527 highest note;
#X obj 174 529 bng 15 250 50 0 empty empty empty 17 7 0 10 -262144
-1 -1;
#X obj 35 447 bng 15 250 50 0 empty empty empty 17 7 0 10 -262144 -1
-1;
#X obj 545 249 + 1;
#X obj 469 187 t b b;
#X msg 539 219 1;
#X msg 591 218 -1;
#X obj 510 162 t b b b;
#X obj 510 249 f;
#X floatatom 560 277 5 0 0 0 - - -, f 5;
#X floatatom 510 276 5 0 0 0 - - -, f 5;
#X obj 528 335 &;
#X obj 528 360 sel 1;
#X obj 528 386 bng 15 250 50 0 empty empty empty 17 7 0 10 -262144
-1 -1;
#X obj 510 305 == 0;
#X obj 560 305 == 1;
#X obj 290 226 list;
#X text 603 357 detect initial note on;
#X text 551 387 attack;
#X obj 167 107 u_listrev;
#X obj 290 263 u_listunique;
#X obj 290 287 u_listsort;
#X obj 203 394 u_listlen;
#X obj 35 395 change;
#X obj 174 476 change;
#X obj 548 447 s ka;
#X obj 308 366 list-abs/list-delete;
#X obj 183 329 list-abs/list-find;
#X connect 0 0 1 0;
#X connect 0 1 1 1;
#X connect 1 0 4 0;
#X connect 3 0 16 0;
#X connect 3 0 19 0;
#X connect 3 0 34 0;
#X connect 3 1 5 0;
#X connect 3 1 31 0;
#X connect 4 0 46 0;
#X connect 5 0 14 0;
#X connect 5 1 15 0;
#X connect 5 1 43 0;
#X connect 6 0 53 0;
#X connect 7 0 2 0;
#X connect 7 0 22 0;
#X connect 7 1 47 0;
#X connect 8 0 29 0;
#X connect 14 0 12 0;
#X connect 16 0 17 0;
#X connect 19 1 6 0;
#X connect 19 2 54 0;
#X connect 21 0 50 0;
#X connect 22 0 6 1;
#X connect 22 0 43 1;
#X connect 22 0 54 1;
#X connect 23 1 51 0;
#X connect 24 0 23 0;
#X connect 24 1 49 0;
#X connect 25 0 23 1;
#X connect 26 0 28 0;
#X connect 30 0 35 1;
#X connect 30 0 36 0;
#X connect 31 0 35 0;
#X connect 31 1 32 0;
#X connect 32 0 30 1;
#X connect 33 0 30 1;
#X connect 34 0 35 0;
#X connect 34 1 33 0;
#X connect 35 0 30 0;
#X connect 35 0 37 0;
#X connect 36 0 42 0;
#X connect 37 0 41 0;
#X connect 38 0 39 0;
#X connect 39 0 40 0;
#X connect 40 0 52 0;
#X connect 41 0 38 0;
#X connect 42 0 38 1;
#X connect 43 0 47 0;
#X connect 46 0 3 0;
#X connect 47 0 48 0;
#X connect 48 0 6 1;
#X connect 48 0 24 0;
#X connect 48 0 21 0;
#X connect 48 0 43 1;
#X connect 48 0 54 1;
#X connect 49 0 25 0;
#X connect 50 0 8 0;
#X connect 51 0 26 0;
#X connect 53 0 7 0;
#X connect 54 0 53 1;
