#N canvas 591 221 701 302 10;
#X obj 39 20 rc-noteflip;
#X text 116 19 invert a midi note;
#X obj 38 100 rc-arp;
#X text 203 119 arpeggiator;
#X obj 38 234 rc-portamento;
#X text 225 242 glide between notes;
#X text 137 55 filter midi notes based on a scale;
#X obj 39 56 rc-scalefilter;
#X obj 513 53 rc-midimetro;
#X text 426 17 synchronized metro & midifile playback;
#X obj 461 241 rc-notein;
#X obj 538 241 rc-ctlin;
#X obj 607 240 rc-pgmin;
#X text 429 211 convert raw midi bytes;
#X obj 38 204 rc-portamento_;
