#N canvas 793 119 539 586 10;
#X obj 30 74 rc-sawosc~_;
#X obj 30 109 rc-sawosc~;
#X obj 335 26 rc-chipwave~;
#X obj 32 450 rc-square~_;
#X obj 31 484 rc-square~;
#X obj 330 359 rc-wave~;
#X obj 30 205 rc-noise~;
#X text 92 205 crunchy samphold noise;
#X text 115 75 buzz;
#X text 131 449 squares;
#X text 254 398 wavetable;
#X text 250 83 chiptunes;
#X obj 31 274 rc-303~;
#N canvas 0 22 450 300 simple 0;
#X obj 76 66 rc-bump~;
#X obj 75 99 rc-sqump~;
#X obj 76 137 rc-pish~;
#X obj 76 167 rc-swish~;
#X text 147 114 super simple drums;
#X restore 29 28 pd simple drums;
#X obj 329 512 rc-fmbass~_;
#X text 226 512 punchy fm bass;
#X obj 31 248 rc-303~_;
#X text 107 249 simple tb-303 emulation;
