#N canvas 563 340 435 564 10;
#X obj 19 513 dac~;
#X msg 163 160 lfo \$1;
#X msg 194 221 freq \$1;
#X obj 132 74 hsl 128 15 0 1 0 0 empty empty 0-1 132 8 0 10 -262144
-1 -1 0 1;
#X obj 166 135 hsl 128 15 0 1 0 0 empty empty 0-1 132 8 0 10 -262144
-1 -1 0 1;
#X obj 197 196 hsl 128 15 0 1 0 0 empty empty 0-1 132 8 0 10 -262144
-1 -1 0 1;
#X msg 129 98 depth \$1;
#X text 103 499 2009 Dan Wilcox;
#X text 103 518 danomatika.com | robotcowboy.com;
#X text 248 221 lfo frequecy;
#X text 223 163 lfo mix amount;
#X text 192 96 delay 10 - 50 ms;
#X text 126 46 control messages;
#X obj 20 359 rc-chorus~;
#X obj 212 253 hsl 128 15 0 1 0 0 empty empty 0-1 132 8 0 10 -262144
-1 -1 0 1;
#X obj 234 307 hsl 128 15 0 1 0 0 empty empty 0-1 132 8 0 10 -262144
-1 -1 0 1;
#X msg 209 278 wet \$1;
#X msg 231 332 dry \$1;
#X text 186 416 changing the depth will cause clicks;
#X text 187 401 NOTE;
#X obj 297 354 tgl 15 0 empty empty empty 17 7 0 10 -262144 -1 -1 0
1;
#X msg 297 377 onoff \$1;
#X text 14 15 rc-chorus~ : a 5 voice chorus with gui;
#X obj 20 240 adc~ 1;
#X connect 1 0 13 1;
#X connect 2 0 13 1;
#X connect 3 0 6 0;
#X connect 4 0 1 0;
#X connect 5 0 2 0;
#X connect 6 0 13 1;
#X connect 13 0 0 0;
#X connect 13 0 0 1;
#X connect 14 0 16 0;
#X connect 15 0 17 0;
#X connect 16 0 13 1;
#X connect 17 0 13 1;
#X connect 20 0 21 0;
#X connect 21 0 13 1;
#X connect 23 0 13 0;
