#N canvas 4 51 346 334 10;
#X declare -lib unauthorized;
#X text 118 29 by ydegoyon.free.fr;
#X text 21 15 rc-compressor : gui wrapper around compressor~;
#X obj 176 84 hsl 128 15 0 1 0 0 empty empty gain_0-1 8 8 0 10 -262144
-1 -1 3800 1;
#X text 169 58 control messages;
#X obj 199 109 tgl 15 0 empty empty empty 17 7 0 10 -262144 -1 -1 0
1;
#X msg 199 132 onoff \$1;
#X text 130 281 2009 Dan Wilcox;
#X text 130 300 danomatika.com | robotcowboy.com;
#X obj 35 298 dac~;
#X obj 35 268 *~;
#X obj 35 153 *~;
#X obj 35 75 osc~ 400;
#X obj 50 103 osc~ 1;
#X obj 50 128 clip~ 0 1;
#X obj 35 181 rc-compressor~ comp;
#X obj 53 242 hsl 128 15 0 1 0 0 empty empty empty -2 -8 0 10 -262144
-1 -1 900 1;
#X connect 2 0 14 1;
#X connect 4 0 5 0;
#X connect 5 0 14 1;
#X connect 9 0 8 0;
#X connect 9 0 8 1;
#X connect 10 0 14 0;
#X connect 11 0 10 0;
#X connect 12 0 13 0;
#X connect 13 0 10 1;
#X connect 14 0 9 0;
#X connect 15 0 9 1;
