#N canvas 106 198 322 330 10;
#X obj 30 300 dac~;
#X msg 127 155 lfo \$1;
#X msg 158 216 freq \$1;
#X obj 96 69 hsl 128 15 0 1 0 0 empty empty 0-1 132 8 0 10 -262144
-1 -1 5900 1;
#X obj 130 130 hsl 128 15 0 1 0 0 empty empty 0-1 132 8 0 10 -262144
-1 -1 0 1;
#X obj 161 191 hsl 128 15 0 1 0 0 empty empty 0-1 132 8 0 10 -262144
-1 -1 0 1;
#X msg 93 93 depth \$1;
#X text 101 285 2009 Dan Wilcox;
#X text 101 304 danomatika.com | robotcowboy.com;
#X text 212 216 lfo frequecy;
#X text 187 158 lfo mix amount;
#X text 156 91 delay 10 - 50 ms;
#X text 90 41 control messages;
#X text 14 15 rc-chorus~ : a 5 voice chorus;
#X obj 30 254 rc-chorus~_;
#N canvas 0 22 450 300 tones 0;
#X obj 98 73 metro 1000;
#X obj 98 41 inlet;
#X msg 98 101 440;
#X obj 103 185 *~;
#X obj 165 178 line~;
#X obj 108 232 outlet~;
#X msg 236 150 1 100;
#X msg 165 148 0 500;
#X obj 182 90 t b b;
#X obj 165 121 delay 200;
#X obj 97 130 osc~;
#X connect 0 0 2 0;
#X connect 0 0 8 0;
#X connect 1 0 0 0;
#X connect 2 0 10 0;
#X connect 3 0 5 0;
#X connect 4 0 3 1;
#X connect 6 0 4 0;
#X connect 7 0 4 0;
#X connect 8 0 9 0;
#X connect 8 1 6 0;
#X connect 9 0 7 0;
#X connect 10 0 3 0;
#X restore 30 161 pd tones;
#X obj 30 131 tgl 15 0 empty empty empty 17 7 0 10 -262144 -1 -1 0
1;
#X connect 1 0 14 1;
#X connect 2 0 14 1;
#X connect 3 0 6 0;
#X connect 4 0 1 0;
#X connect 5 0 2 0;
#X connect 6 0 14 1;
#X connect 14 0 0 0;
#X connect 14 0 0 1;
#X connect 15 0 14 0;
#X connect 16 0 15 0;
