#N canvas 52 359 426 231 10;
#N canvas 12 97 385 499 rel_to_abs_path 0;
#X obj 218 125 f;
#X obj 257 124 + 1;
#X msg 294 56 0;
#X obj 51 214 list split;
#X obj 78 152 list length;
#X obj 108 188 -;
#X obj 51 124 t a a;
#X obj 51 269 makefilename /%s;
#X obj 191 -41 t a b;
#X obj 218 67 select ..;
#X obj 51 303 pack s s;
#X obj 161 220 list split;
#X obj 191 13 t a a;
#X obj 164 -74 t b a;
#X text 260 210 and adjusts path;
#X text 256 191 checks for '../'s;
#X obj 51 358 outlet absolute path;
#X obj 164 -103 inlet relative path;
#X obj 218 40 list-abs/list-drip;
#X obj 51 330 iemlib/mergefilename /;
#X obj 191 -13 zexy/symbol2list /;
#X obj 189 250 zexy/list2symbol /;
#X obj 51 242 zexy/list2symbol /;
#X obj 51 98 zexy/symbol2list /;
#X obj 51 69 ggee/getdir 10;
#X connect 0 0 1 0;
#X connect 0 0 11 1;
#X connect 0 0 5 1;
#X connect 1 0 0 1;
#X connect 2 0 0 0;
#X connect 3 0 22 0;
#X connect 4 0 5 0;
#X connect 5 0 3 1;
#X connect 6 0 3 0;
#X connect 6 1 4 0;
#X connect 7 0 10 0;
#X connect 8 0 20 0;
#X connect 8 1 2 0;
#X connect 9 0 0 0;
#X connect 10 0 19 0;
#X connect 11 1 21 0;
#X connect 12 0 11 0;
#X connect 12 1 18 0;
#X connect 13 0 24 0;
#X connect 13 1 8 0;
#X connect 17 0 13 0;
#X connect 18 0 9 0;
#X connect 19 0 16 0;
#X connect 20 0 12 0;
#X connect 21 0 10 1;
#X connect 22 0 7 0;
#X connect 23 0 6 0;
#X connect 24 0 23 0;
#X restore 27 1 pd rel_to_abs_path;
#X obj 27 -83 inlet abs or rel path;
#X obj 27 72 outlet abs path;
#X obj 27 50 symbol;
#X text 23 -126 takes an abs or rel path to a filename and spits out
an absolute path;
#X text 145 54 2008 Dan Wilcox;
#X text 145 72 assembled from PdMtl file.* object examples;
#X text 165 0 handles ../ operations as well;
#X obj 27 -32 rc-pathtype;
#X obj 27 -58 zexy/list2symbol;
#X connect 0 0 3 0;
#X connect 1 0 9 0;
#X connect 3 0 2 0;
#X connect 8 0 0 0;
#X connect 8 1 3 0;
#X connect 9 0 8 0;
