#N canvas 802 442 457 330 10;
#X obj 33 69 osc~ 400;
#X floatatom 151 149 5 0 0 0 - - -, f 5;
#X obj 154 125 hsl 128 15 0 1 0 0 empty empty empty -2 -6 0 10 -262144
-1 -1 0 1;
#X obj 33 294 dac~;
#X obj 33 262 rc-spigot~;
#X obj 92 96 osc~ 600;
#X obj 151 265 rc-spigot~;
#X obj 208 238 tgl 15 0 empty empty empty 0 -6 0 10 -262144 -1 -1 0
1;
#X text 30 46 left and right in;
#X text 150 101 amplitude control in \, 0 - 1;
#X text 38 233 left and right out;
#X text 233 237 audio on;
#X obj 340 225 sssad/datastore;
#N canvas 0 22 450 300 datastore 0;
#X obj 10 10 r SSSADDATA;
#X msg 10 30 \; SSSAD gain1/amp 0.242899 \; SSSAD_ADMIN set \;;
#X connect 0 0 1 0;
#X restore 340 292 pd datastore;
#X text 330 190 sssad state saving;
#X text 9 15 rc-gain: gain control on an audio signal \, stereo;
#X text 203 48 Creation args: name \, value;
#X obj 33 176 rc-gain~ gain1 0.6;
#X connect 0 0 17 0;
#X connect 1 0 17 2;
#X connect 2 0 1 0;
#X connect 4 0 3 0;
#X connect 5 0 17 1;
#X connect 6 0 3 1;
#X connect 7 0 6 1;
#X connect 7 0 4 1;
#X connect 17 0 4 0;
#X connect 17 1 6 0;
