#N canvas 274 44 593 625 10;
#X floatatom 98 587 5 0 0 0 - - -;
#X floatatom 117 536 5 0 0 0 - - -;
#X obj 117 510 rc-ctlin;
#X obj 137 456 rc-pgmin;
#X floatatom 137 481 5 0 0 0 - - -;
#X floatatom 182 482 5 0 0 0 - - -;
#X floatatom 155 536 5 0 0 0 - - -;
#X floatatom 193 536 5 0 0 0 - - -;
#X floatatom 135 587 5 0 0 0 - - -;
#X floatatom 173 587 5 0 0 0 - - -;
#X obj 98 427 t a a a;
#X floatatom 29 389 5 0 0 1 tick - -;
#X obj 167 388 bng 15 250 50 0 empty empty beat 17 7 0 10 -262144 -1
-1;
#X obj 29 265 rc-midimetro testmetro;
#X obj 29 43 tgl 15 0 empty empty run 17 7 0 10 -262144 -1 -1 0 1;
#X text 182 312 metro runs with same bpm as midi out;
#X text 8 3 rc-midimetro: a metro with synchronized midifile;
#X msg 86 162 reset;
#X text 256 32 uses SSSAD to save the state based on the name (\$1)
;
#X msg 167 232 bpm \$1;
#X msg 228 232 ticksperbeat \$1;
#X msg 347 233 eof \$1;
#X msg 418 233 midiin \$1;
#X floatatom 167 205 5 0 2000 0 - - -;
#X floatatom 228 205 5 0 2000 0 - - -;
#X obj 347 207 tgl 15 0 empty empty empty 17 7 0 10 -262144 -1 -1 0
1;
#X obj 418 206 tgl 15 0 empty empty empty 17 7 0 10 -262144 -1 -1 0
1;
#X text 228 181 control messages;
#X text 374 568 Dan Wilcox 2009;
#X text 374 587 robotcowboy.com | danomatika.com;
#X msg 77 127 reload;
#X obj 98 561 rc-notein;
#N canvas 0 22 623 308 sends 0;
#X obj 23 217 r testmetro/midi;
#X floatatom 23 271 5 0 0 0 - - -;
#X floatatom 60 271 5 0 0 0 - - -;
#X floatatom 100 271 5 0 0 0 - - -;
#X obj 21 53 r testmetro/ticksperbeat;
#X floatatom 21 82 5 0 0 0 - - -;
#X obj 221 55 r testmetro/bpm;
#X floatatom 221 82 5 0 0 0 - - -;
#X obj 218 114 r testmetro/beatlength;
#X floatatom 218 144 5 0 0 0 - - -;
#X obj 420 91 s testmetro/pos;
#X floatatom 420 59 5 0 2000 0 - - -;
#X obj 422 144 s testmetro/startstop;
#X obj 422 119 tgl 15 0 empty empty empty 17 7 0 10 -262144 -1 -1 0
1;
#X obj 423 241 s testmetro/reset;
#X msg 423 217 bang;
#X floatatom 21 144 5 0 0 0 - - -;
#X obj 21 115 r testmetro/ticksize;
#X text 59 145 changes on a beat;
#X text 14 15 receives based on the name;
#X text 411 25 sends based on the name;
#X text 467 69 not midi file;
#X text 467 53 applies to metro ticks;
#X obj 23 245 rc-notein;
#X obj 222 249 bng 15 250 50 0 empty empty empty 17 7 0 10 -262144
-1 -1;
#X obj 222 222 r testmetro/resetout;
#X connect 0 0 23 0;
#X connect 4 0 5 0;
#X connect 6 0 7 0;
#X connect 8 0 9 0;
#X connect 11 0 10 0;
#X connect 13 0 12 0;
#X connect 15 0 14 0;
#X connect 17 0 16 0;
#X connect 23 0 1 0;
#X connect 23 1 2 0;
#X connect 23 2 3 0;
#X connect 25 0 24 0;
#X restore 312 373 pd sends and receives;
#X text 221 422 These are not meant as replacements to notein \, ctlin
\, or pgmin. They just make it easier to use the same midi stream from
both the midi file and an external sequencer (in this case seq24) used
to make the midi file.;
#X msg 54 68 load media/Fugue.mid;
#X text 193 66 reads midi type 1 file (multiple tracks);
#X text 339 4 also contains a [midiin] object;
#X text 126 127 reload the current file;
#X text 128 163 reset to defaults;
#X msg 64 98 load media/test_midi.mid;
#X connect 2 0 1 0;
#X connect 2 1 6 0;
#X connect 2 2 7 0;
#X connect 3 0 4 0;
#X connect 3 1 5 0;
#X connect 10 0 31 0;
#X connect 10 1 2 0;
#X connect 10 2 3 0;
#X connect 13 0 11 0;
#X connect 13 1 10 0;
#X connect 13 2 12 0;
#X connect 14 0 13 0;
#X connect 17 0 13 0;
#X connect 19 0 13 1;
#X connect 20 0 13 1;
#X connect 21 0 13 1;
#X connect 22 0 13 1;
#X connect 23 0 19 0;
#X connect 24 0 20 0;
#X connect 25 0 21 0;
#X connect 26 0 22 0;
#X connect 30 0 13 0;
#X connect 31 0 0 0;
#X connect 31 1 8 0;
#X connect 31 2 9 0;
#X connect 34 0 13 0;
#X connect 39 0 13 0;
