#N canvas 726 111 468 524 10;
#X obj 272 397 makefilename pd-%s;
#X text 269 459 close the patch window;
#X text 16 492 open the patch window;
#X obj 18 430 pack s s;
#X obj 95 239 t a b;
#X obj 61 27 inlet patchname_in;
#X text 20 4 opens and closes patches via patchname;
#X text 214 329 closes prev patch \, opens current;
#X text 260 496 2008 Dan Wilcox;
#X msg 18 458 \; pd open \$2 \$1;
#X obj 164 329 symbol;
#X obj 135 427 outlet opened;
#X obj 164 398 outlet closed;
#N canvas 4 51 450 300 filter_empty_symbol 0;
#X obj 95 100 makefilename /%s;
#X obj 95 128 sel /;
#X obj 95 72 inlet;
#X obj 122 189 outlet;
#X obj 122 158 zexy/symbol2list /;
#X connect 0 0 1 0;
#X connect 1 1 4 0;
#X connect 2 0 0 0;
#X connect 4 0 3 0;
#X restore 164 357 pd filter_empty_symbol;
#X msg 272 425 \; \$1 menuclose 1;
#X msg 224 269 bang;
#X obj 61 113 route close;
#X obj 197 295 symbol;
#X obj 197 240 t b b;
#X text 250 294 send in empty symbol;
#X obj 157 136 rc-filename;
#X text 170 58 in case of spaces in path;
#X obj 95 213 symbol;
#X obj 157 160 t a a;
#N canvas 16 111 504 401 is 0;
#X obj 78 210 list split 1;
#X obj 112 239 sel pd;
#X obj 18 17 inlet;
#X obj 112 309 outlet;
#X obj 171 367 print;
#X msg 171 341 rc-openclose: \$1 does not have the .pd extension;
#X text 74 14 send out a bang only if the path+file ends with .pd;
#X obj 171 306 symbol;
#X msg 145 266 bang;
#X obj 18 40 t a a;
#X obj 21 150 t a a;
#X obj -2 268 sel 1;
#X text 192 210 catch files without extensions as well;
#X obj -2 238 list-abs/list-len;
#X obj 18 74 iemlib/splitfilename;
#X obj 21 122 zexy/symbol2list .;
#X connect 0 1 1 0;
#X connect 1 0 3 0;
#X connect 1 1 8 0;
#X connect 2 0 9 0;
#X connect 5 0 4 0;
#X connect 7 0 5 0;
#X connect 8 0 7 0;
#X connect 9 0 14 0;
#X connect 9 1 7 1;
#X connect 10 0 13 0;
#X connect 10 1 0 0;
#X connect 11 0 7 0;
#X connect 13 0 11 0;
#X connect 14 1 15 0;
#X connect 15 0 10 0;
#X restore 157 188 pd is pd file;
#X obj 61 83 iemlib/unsymbol;
#X obj 61 55 zexy/list2symbol;
#X obj 18 283 iemlib/splitfilename;
#X connect 0 0 14 0;
#X connect 3 0 9 0;
#X connect 4 0 27 0;
#X connect 4 1 10 0;
#X connect 5 0 26 0;
#X connect 10 0 13 0;
#X connect 13 0 12 0;
#X connect 13 0 0 0;
#X connect 15 0 10 0;
#X connect 16 0 18 0;
#X connect 16 1 20 0;
#X connect 17 0 10 1;
#X connect 18 0 17 0;
#X connect 18 1 15 0;
#X connect 20 0 23 0;
#X connect 22 0 4 0;
#X connect 23 0 24 0;
#X connect 23 1 22 1;
#X connect 24 0 22 0;
#X connect 25 0 16 0;
#X connect 26 0 25 0;
#X connect 27 0 3 0;
#X connect 27 1 3 1;
#X connect 27 1 10 1;
#X connect 27 1 11 0;
