#N canvas 296 125 317 392 10;
#X obj 120 280 *~;
#X msg 135 213 start;
#X msg 184 213 stop;
#X msg 135 170 bang;
#X obj 120 341 outlet~;
#X obj 184 187 del 15;
#X obj 36 242 +~;
#X obj 36 163 f \$1;
#X obj 36 138 loadbang;
#X obj 36 214 rc-noise~;
#X obj 36 191 ftom;
#X obj 120 309 lop~ \$2;
#X obj 47 77 inlet trigger bangs;
#X obj 136 119 inlet freq;
#X obj 188 279 inlet filter;
#X text 14 22 a super simple crunchy noise drum;
#X obj 135 248 creb/ear~ 1 80;
#X connect 0 0 11 0;
#X connect 1 0 16 0;
#X connect 2 0 16 0;
#X connect 3 0 1 0;
#X connect 3 0 5 0;
#X connect 5 0 2 0;
#X connect 6 0 0 0;
#X connect 7 0 10 0;
#X connect 8 0 7 0;
#X connect 9 0 6 0;
#X connect 10 0 9 0;
#X connect 11 0 4 0;
#X connect 12 0 3 0;
#X connect 13 0 10 0;
#X connect 14 0 11 1;
#X connect 16 0 0 1;
