#N canvas 633 156 333 551 10;
#X msg 48 374 start;
#X msg 29 401 stop;
#X obj 48 149 t b b;
#X obj 119 73 inlet;
#X obj 272 415 inlet~;
#X obj 143 414 inlet~;
#X text 196 414 right in;
#X text 266 392 left in;
#X obj 29 118 sel 0 1;
#X msg 113 357 open \$1;
#X obj 119 103 route float set;
#X text 144 180 filename;
#X obj 29 91 r \$0-onoff;
#X obj 119 136 s \$0-onoff;
#X obj 75 204 makefilename %s.mp3;
#X text 162 43 default filename: out.mp3;
#X text 105 15 record to stereo mp3 file;
#X obj 193 138 symbol;
#X obj 75 180 symbol out;
#X obj 1 14 cnv 15 88 25 empty empty empty 20 12 0 14 -233017 -66577
0;
#X obj 51 20 tgl 15 0 \$0-onoff \$0-onoff on/off -40 8 0 10 -191407
-1 -1 0 1;
#X obj 75 290 pack s s;
#X obj 75 231 t b s;
#X text 164 260 get parent patch dir;
#X obj 92 488 outlet filename;
#X obj 215 324 outlet recording;
#X obj 215 298 r \$0-onoff;
#X text 5 512 Dan Wilcox 2009;
#X text 3 525 robotcowboy.com|danomatika.com;
#X obj 143 459 unauthorized/mp3write~;
#X obj 92 324 zexy/list2symbol /;
#X obj 75 260 ggee/getdir 1;
#X connect 0 0 29 0;
#X connect 1 0 29 0;
#X connect 2 0 0 0;
#X connect 2 1 18 0;
#X connect 3 0 10 0;
#X connect 4 0 29 1;
#X connect 5 0 29 0;
#X connect 8 0 1 0;
#X connect 8 1 2 0;
#X connect 9 0 29 0;
#X connect 10 0 13 0;
#X connect 10 1 17 0;
#X connect 12 0 8 0;
#X connect 14 0 22 0;
#X connect 17 0 18 1;
#X connect 18 0 14 0;
#X connect 21 0 30 0;
#X connect 22 0 31 0;
#X connect 22 1 21 1;
#X connect 26 0 25 0;
#X connect 30 0 9 0;
#X connect 30 0 24 0;
#X connect 31 0 21 0;
#X coords 0 0 1 1 90 40 0;
