#N canvas 263 238 351 394 10;
#X msg 22 223 0;
#X msg 49 245 1;
#X obj 49 195 t b b;
#X obj 101 223 symbol file.wav;
#X obj 22 277 readsf~ 2;
#X msg 101 249 open \$1;
#X obj 73 306 outlet bang_when_done;
#X obj 22 360 outlet~ left;
#X obj 47 333 outlet~ right;
#X obj 22 51 inlet;
#X text 19 16 a simple wrapper around sfplay~;
#X obj 49 139 max 0;
#X obj 22 112 sel 0;
#X obj 22 85 route float bang open play;
#X text 148 142 in case of spaces in filename;
#X obj 136 115 t b a;
#X obj 188 196 rc-filename;
#X text 151 355 Dan Wilcox 2008 \, 2010;
#X connect 0 0 4 0;
#X connect 1 0 4 0;
#X connect 2 0 1 0;
#X connect 2 1 3 0;
#X connect 3 0 5 0;
#X connect 4 0 7 0;
#X connect 4 1 8 0;
#X connect 4 2 6 0;
#X connect 5 0 4 0;
#X connect 9 0 13 0;
#X connect 11 0 2 0;
#X connect 12 0 0 0;
#X connect 12 1 11 0;
#X connect 13 0 12 0;
#X connect 13 1 2 0;
#X connect 13 2 16 0;
#X connect 13 3 15 0;
#X connect 15 0 2 0;
#X connect 16 0 3 1;
