#N canvas 543 329 417 362 10;
#X obj 34 216 osc~ 440;
#X obj 34 243 *~ 0.25;
#X obj 253 253 catch~ TEST2/right;
#X obj 232 282 dac~;
#X text 190 310 Dan Wilcox 2009;
#X text 190 327 danomatika.com | robotcowboy.com;
#X obj 34 319 rc-throw2~ TEST2;
#X obj 232 222 catch~ TEST2/left;
#X obj 34 288 rc-pan~_;
#X obj 82 265 hsl 120 15 0 1 0 0 empty empty empty -2 -8 0 10 -262144
-1 -1 0 1;
#X text 80 39 Creation args: catch root name;
#X obj 35 119 rc-throw2~;
#X obj 171 120 catch~ LEFT;
#X obj 256 120 catch~ RIGHT;
#X text 29 81 an empty name sends to LEFT and RIGHT by default;
#X text 30 174 a named send sends to name/left and name/right;
#X text 19 12 rc-throw2~: throws two signals to a named stereo catches
;
#X obj 111 217 loadbang;
#X msg 111 242 0.5;
#X connect 0 0 1 0;
#X connect 1 0 8 0;
#X connect 2 0 3 1;
#X connect 7 0 3 0;
#X connect 8 0 6 0;
#X connect 9 0 8 1;
#X connect 17 0 18 0;
#X connect 18 0 9 0;
