#N canvas 387 323 462 296 10;
#X obj 39 35 inlet~;
#X obj 157 35 inlet~;
#X obj 40 256 throw~ LEFT;
#X obj 158 257 throw~ RIGHT;
#X msg 59 206 set \$1/left;
#X msg 295 202 set \$1/right;
#X text 251 239 Dan Wilcox 2009;
#X text 251 256 danomatika.com | robotcowboy.com;
#X obj 220 37 loadbang;
#X obj 220 65 t b b;
#X obj 220 91 symbol \$1;
#X obj 295 90 symbol;
#X obj 220 119 select symbol;
#X text 18 4 throws two signals to named stereo catches;
#X connect 0 0 2 0;
#X connect 1 0 3 0;
#X connect 4 0 2 0;
#X connect 5 0 3 0;
#X connect 8 0 9 0;
#X connect 9 0 10 0;
#X connect 9 1 11 0;
#X connect 10 0 12 0;
#X connect 11 0 12 1;
#X connect 12 1 5 0;
#X connect 12 1 4 0;
