#N canvas 335 92 458 305 10;
#X obj 39 35 inlet~;
#X obj 158 35 loadbang;
#X msg 47 209 set \$1/left;
#X msg 233 207 set \$1/right;
#X obj 158 257 throw~ RIGHT;
#X obj 39 256 throw~ LEFT;
#X text 247 242 Dan Wilcox 2009;
#X text 247 259 danomatika.com | robotcowboy.com;
#X obj 158 63 t b b;
#X obj 158 89 symbol \$1;
#X obj 233 88 symbol;
#X obj 158 117 select symbol;
#X text 19 6 throws a single signal to named stereo catches;
#X connect 0 0 4 0;
#X connect 0 0 5 0;
#X connect 1 0 8 0;
#X connect 2 0 5 0;
#X connect 3 0 4 0;
#X connect 8 0 9 0;
#X connect 8 1 10 0;
#X connect 9 0 11 0;
#X connect 10 0 11 1;
#X connect 11 1 3 0;
#X connect 11 1 2 0;
